<?xml version="1.0" encoding="utf-8" standalone="no"?>
<!DOCTYPE svg PUBLIC "-//W3C//DTD SVG 1.1//EN"
  "http://www.w3.org/Graphics/SVG/1.1/DTD/svg11.dtd">
<svg xmlns:xlink="http://www.w3.org/1999/xlink" width="640.199375pt" height="423.639687pt" viewBox="0 0 640.199375 423.639687" xmlns="http://www.w3.org/2000/svg" version="1.1">
 <metadata>
  <rdf:RDF xmlns:dc="http://purl.org/dc/elements/1.1/" xmlns:cc="http://creativecommons.org/ns#" xmlns:rdf="http://www.w3.org/1999/02/22-rdf-syntax-ns#">
   <cc:Work>
    <dc:type rdf:resource="http://purl.org/dc/dcmitype/StillImage"/>
    <dc:date>2026-03-23T22:35:18.180920</dc:date>
    <dc:format>image/svg+xml</dc:format>
    <dc:creator>
     <cc:Agent>
      <dc:title>Matplotlib v3.10.8, https://matplotlib.org/</dc:title>
     </cc:Agent>
    </dc:creator>
   </cc:Work>
  </rdf:RDF>
 </metadata>
 <defs>
  <style type="text/css">*{stroke-linejoin: round; stroke-linecap: butt}</style>
 </defs>
 <g id="figure_1">
  <g id="patch_1">
   <path d="M 0 423.639687 
L 640.199375 423.639687 
L 640.199375 0 
L 0 0 
z
" style="fill: #ffffff"/>
  </g>
  <g id="axes_1">
   <g id="patch_2">
    <path d="M 41.599375 385.435 
L 632.999375 385.435 
L 632.999375 7.2 
L 41.599375 7.2 
z
" style="fill: #ffffff"/>
   </g>
   <g id="matplotlib.axis_1">
    <g id="xtick_1">
     <g id="line2d_1">
      <path d="M 68.47822 385.435 
L 68.47822 7.2 
" clip-path="url(#p9b43d63785)" style="fill: none; stroke-dasharray: 2.96,1.28; stroke-dashoffset: 0; stroke: #b0b0b0; stroke-opacity: 0.6; stroke-width: 0.8"/>
     </g>
     <g id="line2d_2">
      <defs>
       <path id="m0d3f6cd5a6" d="M 0 0 
L 0 3.5 
" style="stroke: #000000; stroke-width: 0.8"/>
      </defs>
      <g>
       <use xlink:href="#m0d3f6cd5a6" x="68.47822" y="385.435" style="stroke: #000000; stroke-width: 0.8"/>
      </g>
     </g>
     <g id="text_1">
      <!-- 0 -->
      <g transform="translate(65.97822 399.37875) scale(0.1 -0.1)">
       <defs>
        <path id="TimesNewRomanPSMT-30" d="M 231 2094 
Q 231 2819 450 3342 
Q 669 3866 1031 4122 
Q 1313 4325 1613 4325 
Q 2100 4325 2488 3828 
Q 2972 3213 2972 2159 
Q 2972 1422 2759 906 
Q 2547 391 2217 158 
Q 1888 -75 1581 -75 
Q 975 -75 572 641 
Q 231 1244 231 2094 
z
M 844 2016 
Q 844 1141 1059 588 
Q 1238 122 1591 122 
Q 1759 122 1940 273 
Q 2122 425 2216 781 
Q 2359 1319 2359 2297 
Q 2359 3022 2209 3506 
Q 2097 3866 1919 4016 
Q 1791 4119 1609 4119 
Q 1397 4119 1231 3928 
Q 1006 3669 925 3112 
Q 844 2556 844 2016 
z
" transform="scale(0.015625)"/>
       </defs>
       <use xlink:href="#TimesNewRomanPSMT-30"/>
      </g>
     </g>
    </g>
    <g id="xtick_2">
     <g id="line2d_3">
      <path d="M 142.815831 385.435 
L 142.815831 7.2 
" clip-path="url(#p9b43d63785)" style="fill: none; stroke-dasharray: 2.96,1.28; stroke-dashoffset: 0; stroke: #b0b0b0; stroke-opacity: 0.6; stroke-width: 0.8"/>
     </g>
     <g id="line2d_4">
      <g>
       <use xlink:href="#m0d3f6cd5a6" x="142.815831" y="385.435" style="stroke: #000000; stroke-width: 0.8"/>
      </g>
     </g>
     <g id="text_2">
      <!-- 250 -->
      <g transform="translate(135.315831 399.37875) scale(0.1 -0.1)">
       <defs>
        <path id="TimesNewRomanPSMT-32" d="M 2934 816 
L 2638 0 
L 138 0 
L 138 116 
Q 1241 1122 1691 1759 
Q 2141 2397 2141 2925 
Q 2141 3328 1894 3587 
Q 1647 3847 1303 3847 
Q 991 3847 742 3664 
Q 494 3481 375 3128 
L 259 3128 
Q 338 3706 661 4015 
Q 984 4325 1469 4325 
Q 1984 4325 2329 3994 
Q 2675 3663 2675 3213 
Q 2675 2891 2525 2569 
Q 2294 2063 1775 1497 
Q 997 647 803 472 
L 1909 472 
Q 2247 472 2383 497 
Q 2519 522 2628 598 
Q 2738 675 2819 816 
L 2934 816 
z
" transform="scale(0.015625)"/>
        <path id="TimesNewRomanPSMT-35" d="M 2778 4238 
L 2534 3706 
L 1259 3706 
L 981 3138 
Q 1809 3016 2294 2522 
Q 2709 2097 2709 1522 
Q 2709 1188 2573 903 
Q 2438 619 2231 419 
Q 2025 219 1772 97 
Q 1413 -75 1034 -75 
Q 653 -75 479 54 
Q 306 184 306 341 
Q 306 428 378 495 
Q 450 563 559 563 
Q 641 563 702 538 
Q 763 513 909 409 
Q 1144 247 1384 247 
Q 1750 247 2026 523 
Q 2303 800 2303 1197 
Q 2303 1581 2056 1914 
Q 1809 2247 1375 2428 
Q 1034 2569 447 2591 
L 1259 4238 
L 2778 4238 
z
" transform="scale(0.015625)"/>
       </defs>
       <use xlink:href="#TimesNewRomanPSMT-32"/>
       <use xlink:href="#TimesNewRomanPSMT-35" transform="translate(50 0)"/>
       <use xlink:href="#TimesNewRomanPSMT-30" transform="translate(100 0)"/>
      </g>
     </g>
    </g>
    <g id="xtick_3">
     <g id="line2d_5">
      <path d="M 217.153441 385.435 
L 217.153441 7.2 
" clip-path="url(#p9b43d63785)" style="fill: none; stroke-dasharray: 2.96,1.28; stroke-dashoffset: 0; stroke: #b0b0b0; stroke-opacity: 0.6; stroke-width: 0.8"/>
     </g>
     <g id="line2d_6">
      <g>
       <use xlink:href="#m0d3f6cd5a6" x="217.153441" y="385.435" style="stroke: #000000; stroke-width: 0.8"/>
      </g>
     </g>
     <g id="text_3">
      <!-- 500 -->
      <g transform="translate(209.653441 399.37875) scale(0.1 -0.1)">
       <use xlink:href="#TimesNewRomanPSMT-35"/>
       <use xlink:href="#TimesNewRomanPSMT-30" transform="translate(50 0)"/>
       <use xlink:href="#TimesNewRomanPSMT-30" transform="translate(100 0)"/>
      </g>
     </g>
    </g>
    <g id="xtick_4">
     <g id="line2d_7">
      <path d="M 291.491052 385.435 
L 291.491052 7.2 
" clip-path="url(#p9b43d63785)" style="fill: none; stroke-dasharray: 2.96,1.28; stroke-dashoffset: 0; stroke: #b0b0b0; stroke-opacity: 0.6; stroke-width: 0.8"/>
     </g>
     <g id="line2d_8">
      <g>
       <use xlink:href="#m0d3f6cd5a6" x="291.491052" y="385.435" style="stroke: #000000; stroke-width: 0.8"/>
      </g>
     </g>
     <g id="text_4">
      <!-- 750 -->
      <g transform="translate(283.991052 399.37875) scale(0.1 -0.1)">
       <defs>
        <path id="TimesNewRomanPSMT-37" d="M 644 4238 
L 2916 4238 
L 2916 4119 
L 1503 -88 
L 1153 -88 
L 2419 3728 
L 1253 3728 
Q 900 3728 750 3644 
Q 488 3500 328 3200 
L 238 3234 
L 644 4238 
z
" transform="scale(0.015625)"/>
       </defs>
       <use xlink:href="#TimesNewRomanPSMT-37"/>
       <use xlink:href="#TimesNewRomanPSMT-35" transform="translate(50 0)"/>
       <use xlink:href="#TimesNewRomanPSMT-30" transform="translate(100 0)"/>
      </g>
     </g>
    </g>
    <g id="xtick_5">
     <g id="line2d_9">
      <path d="M 365.828663 385.435 
L 365.828663 7.2 
" clip-path="url(#p9b43d63785)" style="fill: none; stroke-dasharray: 2.96,1.28; stroke-dashoffset: 0; stroke: #b0b0b0; stroke-opacity: 0.6; stroke-width: 0.8"/>
     </g>
     <g id="line2d_10">
      <g>
       <use xlink:href="#m0d3f6cd5a6" x="365.828663" y="385.435" style="stroke: #000000; stroke-width: 0.8"/>
      </g>
     </g>
     <g id="text_5">
      <!-- 1000 -->
      <g transform="translate(355.828663 399.37875) scale(0.1 -0.1)">
       <defs>
        <path id="TimesNewRomanPSMT-31" d="M 750 3822 
L 1781 4325 
L 1884 4325 
L 1884 747 
Q 1884 391 1914 303 
Q 1944 216 2037 169 
Q 2131 122 2419 116 
L 2419 0 
L 825 0 
L 825 116 
Q 1125 122 1212 167 
Q 1300 213 1334 289 
Q 1369 366 1369 747 
L 1369 3034 
Q 1369 3497 1338 3628 
Q 1316 3728 1258 3775 
Q 1200 3822 1119 3822 
Q 1003 3822 797 3725 
L 750 3822 
z
" transform="scale(0.015625)"/>
       </defs>
       <use xlink:href="#TimesNewRomanPSMT-31"/>
       <use xlink:href="#TimesNewRomanPSMT-30" transform="translate(50 0)"/>
       <use xlink:href="#TimesNewRomanPSMT-30" transform="translate(100 0)"/>
       <use xlink:href="#TimesNewRomanPSMT-30" transform="translate(150 0)"/>
      </g>
     </g>
    </g>
    <g id="xtick_6">
     <g id="line2d_11">
      <path d="M 440.166274 385.435 
L 440.166274 7.2 
" clip-path="url(#p9b43d63785)" style="fill: none; stroke-dasharray: 2.96,1.28; stroke-dashoffset: 0; stroke: #b0b0b0; stroke-opacity: 0.6; stroke-width: 0.8"/>
     </g>
     <g id="line2d_12">
      <g>
       <use xlink:href="#m0d3f6cd5a6" x="440.166274" y="385.435" style="stroke: #000000; stroke-width: 0.8"/>
      </g>
     </g>
     <g id="text_6">
      <!-- 1250 -->
      <g transform="translate(430.166274 399.37875) scale(0.1 -0.1)">
       <use xlink:href="#TimesNewRomanPSMT-31"/>
       <use xlink:href="#TimesNewRomanPSMT-32" transform="translate(50 0)"/>
       <use xlink:href="#TimesNewRomanPSMT-35" transform="translate(100 0)"/>
       <use xlink:href="#TimesNewRomanPSMT-30" transform="translate(150 0)"/>
      </g>
     </g>
    </g>
    <g id="xtick_7">
     <g id="line2d_13">
      <path d="M 514.503885 385.435 
L 514.503885 7.2 
" clip-path="url(#p9b43d63785)" style="fill: none; stroke-dasharray: 2.96,1.28; stroke-dashoffset: 0; stroke: #b0b0b0; stroke-opacity: 0.6; stroke-width: 0.8"/>
     </g>
     <g id="line2d_14">
      <g>
       <use xlink:href="#m0d3f6cd5a6" x="514.503885" y="385.435" style="stroke: #000000; stroke-width: 0.8"/>
      </g>
     </g>
     <g id="text_7">
      <!-- 1500 -->
      <g transform="translate(504.503885 399.37875) scale(0.1 -0.1)">
       <use xlink:href="#TimesNewRomanPSMT-31"/>
       <use xlink:href="#TimesNewRomanPSMT-35" transform="translate(50 0)"/>
       <use xlink:href="#TimesNewRomanPSMT-30" transform="translate(100 0)"/>
       <use xlink:href="#TimesNewRomanPSMT-30" transform="translate(150 0)"/>
      </g>
     </g>
    </g>
    <g id="xtick_8">
     <g id="line2d_15">
      <path d="M 588.841496 385.435 
L 588.841496 7.2 
" clip-path="url(#p9b43d63785)" style="fill: none; stroke-dasharray: 2.96,1.28; stroke-dashoffset: 0; stroke: #b0b0b0; stroke-opacity: 0.6; stroke-width: 0.8"/>
     </g>
     <g id="line2d_16">
      <g>
       <use xlink:href="#m0d3f6cd5a6" x="588.841496" y="385.435" style="stroke: #000000; stroke-width: 0.8"/>
      </g>
     </g>
     <g id="text_8">
      <!-- 1750 -->
      <g transform="translate(578.841496 399.37875) scale(0.1 -0.1)">
       <use xlink:href="#TimesNewRomanPSMT-31"/>
       <use xlink:href="#TimesNewRomanPSMT-37" transform="translate(50 0)"/>
       <use xlink:href="#TimesNewRomanPSMT-35" transform="translate(100 0)"/>
       <use xlink:href="#TimesNewRomanPSMT-30" transform="translate(150 0)"/>
      </g>
     </g>
    </g>
    <g id="text_9">
     <!-- Failure Time (Days) -->
     <g transform="translate(288.63 413.850312) scale(0.12 -0.12)">
      <defs>
       <path id="TimesNewRomanPSMT-46" d="M 1309 4006 
L 1309 2341 
L 2081 2341 
Q 2347 2341 2470 2458 
Q 2594 2575 2634 2922 
L 2750 2922 
L 2750 1488 
L 2634 1488 
Q 2631 1734 2570 1850 
Q 2509 1966 2401 2023 
Q 2294 2081 2081 2081 
L 1309 2081 
L 1309 750 
Q 1309 428 1350 325 
Q 1381 247 1481 191 
Q 1619 116 1769 116 
L 1922 116 
L 1922 0 
L 103 0 
L 103 116 
L 253 116 
Q 516 116 634 269 
Q 709 369 709 750 
L 709 3488 
Q 709 3809 669 3913 
Q 638 3991 541 4047 
Q 406 4122 253 4122 
L 103 4122 
L 103 4238 
L 3256 4238 
L 3297 3306 
L 3188 3306 
Q 3106 3603 2998 3742 
Q 2891 3881 2733 3943 
Q 2575 4006 2244 4006 
L 1309 4006 
z
" transform="scale(0.015625)"/>
       <path id="TimesNewRomanPSMT-61" d="M 1822 413 
Q 1381 72 1269 19 
Q 1100 -59 909 -59 
Q 613 -59 420 144 
Q 228 347 228 678 
Q 228 888 322 1041 
Q 450 1253 767 1440 
Q 1084 1628 1822 1897 
L 1822 2009 
Q 1822 2438 1686 2597 
Q 1550 2756 1291 2756 
Q 1094 2756 978 2650 
Q 859 2544 859 2406 
L 866 2225 
Q 866 2081 792 2003 
Q 719 1925 600 1925 
Q 484 1925 411 2006 
Q 338 2088 338 2228 
Q 338 2497 613 2722 
Q 888 2947 1384 2947 
Q 1766 2947 2009 2819 
Q 2194 2722 2281 2516 
Q 2338 2381 2338 1966 
L 2338 994 
Q 2338 584 2353 492 
Q 2369 400 2405 369 
Q 2441 338 2488 338 
Q 2538 338 2575 359 
Q 2641 400 2828 588 
L 2828 413 
Q 2478 -56 2159 -56 
Q 2006 -56 1915 50 
Q 1825 156 1822 413 
z
M 1822 616 
L 1822 1706 
Q 1350 1519 1213 1441 
Q 966 1303 859 1153 
Q 753 1003 753 825 
Q 753 600 887 451 
Q 1022 303 1197 303 
Q 1434 303 1822 616 
z
" transform="scale(0.015625)"/>
       <path id="TimesNewRomanPSMT-69" d="M 928 4444 
Q 1059 4444 1151 4351 
Q 1244 4259 1244 4128 
Q 1244 3997 1151 3903 
Q 1059 3809 928 3809 
Q 797 3809 703 3903 
Q 609 3997 609 4128 
Q 609 4259 701 4351 
Q 794 4444 928 4444 
z
M 1188 2947 
L 1188 647 
Q 1188 378 1227 289 
Q 1266 200 1342 156 
Q 1419 113 1622 113 
L 1622 0 
L 231 0 
L 231 113 
Q 441 113 512 153 
Q 584 194 626 287 
Q 669 381 669 647 
L 669 1750 
Q 669 2216 641 2353 
Q 619 2453 572 2492 
Q 525 2531 444 2531 
Q 356 2531 231 2484 
L 188 2597 
L 1050 2947 
L 1188 2947 
z
" transform="scale(0.015625)"/>
       <path id="TimesNewRomanPSMT-6c" d="M 1184 4444 
L 1184 647 
Q 1184 378 1223 290 
Q 1263 203 1344 158 
Q 1425 113 1647 113 
L 1647 0 
L 244 0 
L 244 113 
Q 441 113 512 153 
Q 584 194 625 287 
Q 666 381 666 647 
L 666 3247 
Q 666 3731 644 3842 
Q 622 3953 573 3993 
Q 525 4034 450 4034 
Q 369 4034 244 3984 
L 191 4094 
L 1044 4444 
L 1184 4444 
z
" transform="scale(0.015625)"/>
       <path id="TimesNewRomanPSMT-75" d="M 2709 2863 
L 2709 1128 
Q 2709 631 2732 520 
Q 2756 409 2807 365 
Q 2859 322 2928 322 
Q 3025 322 3147 375 
L 3191 266 
L 2334 -88 
L 2194 -88 
L 2194 519 
Q 1825 119 1631 15 
Q 1438 -88 1222 -88 
Q 981 -88 804 51 
Q 628 191 559 409 
Q 491 628 491 1028 
L 491 2306 
Q 491 2509 447 2587 
Q 403 2666 317 2708 
Q 231 2750 6 2747 
L 6 2863 
L 1009 2863 
L 1009 947 
Q 1009 547 1148 422 
Q 1288 297 1484 297 
Q 1619 297 1789 381 
Q 1959 466 2194 703 
L 2194 2325 
Q 2194 2569 2105 2655 
Q 2016 2741 1734 2747 
L 1734 2863 
L 2709 2863 
z
" transform="scale(0.015625)"/>
       <path id="TimesNewRomanPSMT-72" d="M 1038 2947 
L 1038 2303 
Q 1397 2947 1775 2947 
Q 1947 2947 2059 2842 
Q 2172 2738 2172 2600 
Q 2172 2478 2090 2393 
Q 2009 2309 1897 2309 
Q 1788 2309 1652 2417 
Q 1516 2525 1450 2525 
Q 1394 2525 1328 2463 
Q 1188 2334 1038 2041 
L 1038 669 
Q 1038 431 1097 309 
Q 1138 225 1241 169 
Q 1344 113 1538 113 
L 1538 0 
L 72 0 
L 72 113 
Q 291 113 397 181 
Q 475 231 506 341 
Q 522 394 522 644 
L 522 1753 
Q 522 2253 501 2348 
Q 481 2444 426 2487 
Q 372 2531 291 2531 
Q 194 2531 72 2484 
L 41 2597 
L 906 2947 
L 1038 2947 
z
" transform="scale(0.015625)"/>
       <path id="TimesNewRomanPSMT-65" d="M 681 1784 
Q 678 1147 991 784 
Q 1303 422 1725 422 
Q 2006 422 2214 576 
Q 2422 731 2563 1106 
L 2659 1044 
Q 2594 616 2278 264 
Q 1963 -88 1488 -88 
Q 972 -88 605 314 
Q 238 716 238 1394 
Q 238 2128 614 2539 
Q 991 2950 1559 2950 
Q 2041 2950 2350 2633 
Q 2659 2316 2659 1784 
L 681 1784 
z
M 681 1966 
L 2006 1966 
Q 1991 2241 1941 2353 
Q 1863 2528 1708 2628 
Q 1553 2728 1384 2728 
Q 1125 2728 920 2526 
Q 716 2325 681 1966 
z
" transform="scale(0.015625)"/>
       <path id="TimesNewRomanPSMT-20" transform="scale(0.015625)"/>
       <path id="TimesNewRomanPSMT-54" d="M 3703 4238 
L 3750 3244 
L 3631 3244 
Q 3597 3506 3538 3619 
Q 3441 3800 3280 3886 
Q 3119 3972 2856 3972 
L 2259 3972 
L 2259 734 
Q 2259 344 2344 247 
Q 2463 116 2709 116 
L 2856 116 
L 2856 0 
L 1059 0 
L 1059 116 
L 1209 116 
Q 1478 116 1591 278 
Q 1659 378 1659 734 
L 1659 3972 
L 1150 3972 
Q 853 3972 728 3928 
Q 566 3869 450 3700 
Q 334 3531 313 3244 
L 194 3244 
L 244 4238 
L 3703 4238 
z
" transform="scale(0.015625)"/>
       <path id="TimesNewRomanPSMT-6d" d="M 1050 2338 
Q 1363 2650 1419 2697 
Q 1559 2816 1721 2881 
Q 1884 2947 2044 2947 
Q 2313 2947 2506 2790 
Q 2700 2634 2766 2338 
Q 3088 2713 3309 2830 
Q 3531 2947 3766 2947 
Q 3994 2947 4170 2830 
Q 4347 2713 4450 2447 
Q 4519 2266 4519 1878 
L 4519 647 
Q 4519 378 4559 278 
Q 4591 209 4675 161 
Q 4759 113 4950 113 
L 4950 0 
L 3538 0 
L 3538 113 
L 3597 113 
Q 3781 113 3884 184 
Q 3956 234 3988 344 
Q 4000 397 4000 647 
L 4000 1878 
Q 4000 2228 3916 2372 
Q 3794 2572 3525 2572 
Q 3359 2572 3192 2489 
Q 3025 2406 2788 2181 
L 2781 2147 
L 2788 2013 
L 2788 647 
Q 2788 353 2820 281 
Q 2853 209 2943 161 
Q 3034 113 3253 113 
L 3253 0 
L 1806 0 
L 1806 113 
Q 2044 113 2133 169 
Q 2222 225 2256 338 
Q 2272 391 2272 647 
L 2272 1878 
Q 2272 2228 2169 2381 
Q 2031 2581 1784 2581 
Q 1616 2581 1450 2491 
Q 1191 2353 1050 2181 
L 1050 647 
Q 1050 366 1089 281 
Q 1128 197 1204 155 
Q 1281 113 1516 113 
L 1516 0 
L 100 0 
L 100 113 
Q 297 113 375 155 
Q 453 197 493 289 
Q 534 381 534 647 
L 534 1741 
Q 534 2213 506 2350 
Q 484 2453 437 2492 
Q 391 2531 309 2531 
Q 222 2531 100 2484 
L 53 2597 
L 916 2947 
L 1050 2947 
L 1050 2338 
z
" transform="scale(0.015625)"/>
       <path id="TimesNewRomanPSMT-28" d="M 1988 -1253 
L 1988 -1369 
Q 1516 -1131 1200 -813 
Q 750 -359 506 256 
Q 263 872 263 1534 
Q 263 2503 741 3301 
Q 1219 4100 1988 4444 
L 1988 4313 
Q 1603 4100 1356 3731 
Q 1109 3363 987 2797 
Q 866 2231 866 1616 
Q 866 947 969 400 
Q 1050 -31 1165 -292 
Q 1281 -553 1476 -793 
Q 1672 -1034 1988 -1253 
z
" transform="scale(0.015625)"/>
       <path id="TimesNewRomanPSMT-44" d="M 109 0 
L 109 116 
L 269 116 
Q 538 116 650 288 
Q 719 391 719 750 
L 719 3488 
Q 719 3884 631 3984 
Q 509 4122 269 4122 
L 109 4122 
L 109 4238 
L 1834 4238 
Q 2784 4238 3279 4022 
Q 3775 3806 4076 3303 
Q 4378 2800 4378 2141 
Q 4378 1256 3841 663 
Q 3238 0 2003 0 
L 109 0 
z
M 1319 306 
Q 1716 219 1984 219 
Q 2709 219 3187 728 
Q 3666 1238 3666 2109 
Q 3666 2988 3187 3494 
Q 2709 4000 1959 4000 
Q 1678 4000 1319 3909 
L 1319 306 
z
" transform="scale(0.015625)"/>
       <path id="TimesNewRomanPSMT-79" d="M 38 2863 
L 1372 2863 
L 1372 2747 
L 1306 2747 
Q 1166 2747 1095 2686 
Q 1025 2625 1025 2534 
Q 1025 2413 1128 2197 
L 1825 753 
L 2466 2334 
Q 2519 2463 2519 2588 
Q 2519 2644 2497 2672 
Q 2472 2706 2419 2726 
Q 2366 2747 2231 2747 
L 2231 2863 
L 3163 2863 
L 3163 2747 
Q 3047 2734 2984 2696 
Q 2922 2659 2847 2556 
Q 2819 2513 2741 2316 
L 1575 -541 
Q 1406 -956 1132 -1168 
Q 859 -1381 606 -1381 
Q 422 -1381 303 -1275 
Q 184 -1169 184 -1031 
Q 184 -900 270 -820 
Q 356 -741 506 -741 
Q 609 -741 788 -809 
Q 913 -856 944 -856 
Q 1038 -856 1148 -759 
Q 1259 -663 1372 -384 
L 1575 113 
L 547 2272 
Q 500 2369 397 2513 
Q 319 2622 269 2659 
Q 197 2709 38 2747 
L 38 2863 
z
" transform="scale(0.015625)"/>
       <path id="TimesNewRomanPSMT-73" d="M 2050 2947 
L 2050 1972 
L 1947 1972 
Q 1828 2431 1642 2597 
Q 1456 2763 1169 2763 
Q 950 2763 815 2647 
Q 681 2531 681 2391 
Q 681 2216 781 2091 
Q 878 1963 1175 1819 
L 1631 1597 
Q 2266 1288 2266 781 
Q 2266 391 1970 151 
Q 1675 -88 1309 -88 
Q 1047 -88 709 6 
Q 606 38 541 38 
Q 469 38 428 -44 
L 325 -44 
L 325 978 
L 428 978 
Q 516 541 762 319 
Q 1009 97 1316 97 
Q 1531 97 1667 223 
Q 1803 350 1803 528 
Q 1803 744 1651 891 
Q 1500 1038 1047 1263 
Q 594 1488 453 1669 
Q 313 1847 313 2119 
Q 313 2472 555 2709 
Q 797 2947 1181 2947 
Q 1350 2947 1591 2875 
Q 1750 2828 1803 2828 
Q 1853 2828 1881 2850 
Q 1909 2872 1947 2947 
L 2050 2947 
z
" transform="scale(0.015625)"/>
       <path id="TimesNewRomanPSMT-29" d="M 144 4313 
L 144 4444 
Q 619 4209 934 3891 
Q 1381 3434 1625 2820 
Q 1869 2206 1869 1541 
Q 1869 572 1392 -226 
Q 916 -1025 144 -1369 
L 144 -1253 
Q 528 -1038 776 -670 
Q 1025 -303 1145 264 
Q 1266 831 1266 1447 
Q 1266 2113 1163 2663 
Q 1084 3094 967 3353 
Q 850 3613 656 3853 
Q 463 4094 144 4313 
z
" transform="scale(0.015625)"/>
      </defs>
      <use xlink:href="#TimesNewRomanPSMT-46"/>
      <use xlink:href="#TimesNewRomanPSMT-61" transform="translate(55.615234 0)"/>
      <use xlink:href="#TimesNewRomanPSMT-69" transform="translate(100 0)"/>
      <use xlink:href="#TimesNewRomanPSMT-6c" transform="translate(127.783203 0)"/>
      <use xlink:href="#TimesNewRomanPSMT-75" transform="translate(155.566406 0)"/>
      <use xlink:href="#TimesNewRomanPSMT-72" transform="translate(205.566406 0)"/>
      <use xlink:href="#TimesNewRomanPSMT-65" transform="translate(238.867188 0)"/>
      <use xlink:href="#TimesNewRomanPSMT-20" transform="translate(283.251953 0)"/>
      <use xlink:href="#TimesNewRomanPSMT-54" transform="translate(306.501953 0)"/>
      <use xlink:href="#TimesNewRomanPSMT-69" transform="translate(364.085938 0)"/>
      <use xlink:href="#TimesNewRomanPSMT-6d" transform="translate(391.869141 0)"/>
      <use xlink:href="#TimesNewRomanPSMT-65" transform="translate(469.652344 0)"/>
      <use xlink:href="#TimesNewRomanPSMT-20" transform="translate(514.037109 0)"/>
      <use xlink:href="#TimesNewRomanPSMT-28" transform="translate(539.037109 0)"/>
      <use xlink:href="#TimesNewRomanPSMT-44" transform="translate(572.337891 0)"/>
      <use xlink:href="#TimesNewRomanPSMT-61" transform="translate(644.554688 0)"/>
      <use xlink:href="#TimesNewRomanPSMT-79" transform="translate(688.939453 0)"/>
      <use xlink:href="#TimesNewRomanPSMT-73" transform="translate(738.939453 0)"/>
      <use xlink:href="#TimesNewRomanPSMT-29" transform="translate(777.855469 0)"/>
     </g>
    </g>
   </g>
   <g id="matplotlib.axis_2">
    <g id="ytick_1">
     <g id="line2d_17">
      <path d="M 41.599375 368.2425 
L 632.999375 368.2425 
" clip-path="url(#p9b43d63785)" style="fill: none; stroke-dasharray: 2.96,1.28; stroke-dashoffset: 0; stroke: #b0b0b0; stroke-opacity: 0.6; stroke-width: 0.8"/>
     </g>
     <g id="line2d_18">
      <defs>
       <path id="m4e04f2e8d5" d="M 0 0 
L -3.5 0 
" style="stroke: #000000; stroke-width: 0.8"/>
      </defs>
      <g>
       <use xlink:href="#m4e04f2e8d5" x="41.599375" y="368.2425" style="stroke: #000000; stroke-width: 0.8"/>
      </g>
     </g>
     <g id="text_10">
      <!-- 0.0 -->
      <g transform="translate(22.099375 371.714375) scale(0.1 -0.1)">
       <defs>
        <path id="TimesNewRomanPSMT-2e" d="M 800 606 
Q 947 606 1047 504 
Q 1147 403 1147 259 
Q 1147 116 1045 14 
Q 944 -88 800 -88 
Q 656 -88 554 14 
Q 453 116 453 259 
Q 453 406 554 506 
Q 656 606 800 606 
z
" transform="scale(0.015625)"/>
       </defs>
       <use xlink:href="#TimesNewRomanPSMT-30"/>
       <use xlink:href="#TimesNewRomanPSMT-2e" transform="translate(50 0)"/>
       <use xlink:href="#TimesNewRomanPSMT-30" transform="translate(75 0)"/>
      </g>
     </g>
    </g>
    <g id="ytick_2">
     <g id="line2d_19">
      <path d="M 41.599375 299.4725 
L 632.999375 299.4725 
" clip-path="url(#p9b43d63785)" style="fill: none; stroke-dasharray: 2.96,1.28; stroke-dashoffset: 0; stroke: #b0b0b0; stroke-opacity: 0.6; stroke-width: 0.8"/>
     </g>
     <g id="line2d_20">
      <g>
       <use xlink:href="#m4e04f2e8d5" x="41.599375" y="299.4725" style="stroke: #000000; stroke-width: 0.8"/>
      </g>
     </g>
     <g id="text_11">
      <!-- 0.2 -->
      <g transform="translate(22.099375 302.944375) scale(0.1 -0.1)">
       <use xlink:href="#TimesNewRomanPSMT-30"/>
       <use xlink:href="#TimesNewRomanPSMT-2e" transform="translate(50 0)"/>
       <use xlink:href="#TimesNewRomanPSMT-32" transform="translate(75 0)"/>
      </g>
     </g>
    </g>
    <g id="ytick_3">
     <g id="line2d_21">
      <path d="M 41.599375 230.7025 
L 632.999375 230.7025 
" clip-path="url(#p9b43d63785)" style="fill: none; stroke-dasharray: 2.96,1.28; stroke-dashoffset: 0; stroke: #b0b0b0; stroke-opacity: 0.6; stroke-width: 0.8"/>
     </g>
     <g id="line2d_22">
      <g>
       <use xlink:href="#m4e04f2e8d5" x="41.599375" y="230.7025" style="stroke: #000000; stroke-width: 0.8"/>
      </g>
     </g>
     <g id="text_12">
      <!-- 0.4 -->
      <g transform="translate(22.099375 234.174375) scale(0.1 -0.1)">
       <defs>
        <path id="TimesNewRomanPSMT-34" d="M 2978 1563 
L 2978 1119 
L 2409 1119 
L 2409 0 
L 1894 0 
L 1894 1119 
L 100 1119 
L 100 1519 
L 2066 4325 
L 2409 4325 
L 2409 1563 
L 2978 1563 
z
M 1894 1563 
L 1894 3666 
L 406 1563 
L 1894 1563 
z
" transform="scale(0.015625)"/>
       </defs>
       <use xlink:href="#TimesNewRomanPSMT-30"/>
       <use xlink:href="#TimesNewRomanPSMT-2e" transform="translate(50 0)"/>
       <use xlink:href="#TimesNewRomanPSMT-34" transform="translate(75 0)"/>
      </g>
     </g>
    </g>
    <g id="ytick_4">
     <g id="line2d_23">
      <path d="M 41.599375 161.9325 
L 632.999375 161.9325 
" clip-path="url(#p9b43d63785)" style="fill: none; stroke-dasharray: 2.96,1.28; stroke-dashoffset: 0; stroke: #b0b0b0; stroke-opacity: 0.6; stroke-width: 0.8"/>
     </g>
     <g id="line2d_24">
      <g>
       <use xlink:href="#m4e04f2e8d5" x="41.599375" y="161.9325" style="stroke: #000000; stroke-width: 0.8"/>
      </g>
     </g>
     <g id="text_13">
      <!-- 0.6 -->
      <g transform="translate(22.099375 165.404375) scale(0.1 -0.1)">
       <defs>
        <path id="TimesNewRomanPSMT-36" d="M 2869 4325 
L 2869 4209 
Q 2456 4169 2195 4045 
Q 1934 3922 1679 3669 
Q 1425 3416 1258 3105 
Q 1091 2794 978 2366 
Q 1428 2675 1881 2675 
Q 2316 2675 2634 2325 
Q 2953 1975 2953 1425 
Q 2953 894 2631 456 
Q 2244 -75 1606 -75 
Q 1172 -75 869 213 
Q 275 772 275 1663 
Q 275 2231 503 2743 
Q 731 3256 1154 3653 
Q 1578 4050 1965 4187 
Q 2353 4325 2688 4325 
L 2869 4325 
z
M 925 2138 
Q 869 1716 869 1456 
Q 869 1156 980 804 
Q 1091 453 1309 247 
Q 1469 100 1697 100 
Q 1969 100 2183 356 
Q 2397 613 2397 1088 
Q 2397 1622 2184 2012 
Q 1972 2403 1581 2403 
Q 1463 2403 1327 2353 
Q 1191 2303 925 2138 
z
" transform="scale(0.015625)"/>
       </defs>
       <use xlink:href="#TimesNewRomanPSMT-30"/>
       <use xlink:href="#TimesNewRomanPSMT-2e" transform="translate(50 0)"/>
       <use xlink:href="#TimesNewRomanPSMT-36" transform="translate(75 0)"/>
      </g>
     </g>
    </g>
    <g id="ytick_5">
     <g id="line2d_25">
      <path d="M 41.599375 93.1625 
L 632.999375 93.1625 
" clip-path="url(#p9b43d63785)" style="fill: none; stroke-dasharray: 2.96,1.28; stroke-dashoffset: 0; stroke: #b0b0b0; stroke-opacity: 0.6; stroke-width: 0.8"/>
     </g>
     <g id="line2d_26">
      <g>
       <use xlink:href="#m4e04f2e8d5" x="41.599375" y="93.1625" style="stroke: #000000; stroke-width: 0.8"/>
      </g>
     </g>
     <g id="text_14">
      <!-- 0.8 -->
      <g transform="translate(22.099375 96.634375) scale(0.1 -0.1)">
       <defs>
        <path id="TimesNewRomanPSMT-38" d="M 1228 2134 
Q 725 2547 579 2797 
Q 434 3047 434 3316 
Q 434 3728 753 4026 
Q 1072 4325 1600 4325 
Q 2113 4325 2425 4047 
Q 2738 3769 2738 3413 
Q 2738 3175 2569 2928 
Q 2400 2681 1866 2347 
Q 2416 1922 2594 1678 
Q 2831 1359 2831 1006 
Q 2831 559 2490 242 
Q 2150 -75 1597 -75 
Q 994 -75 656 303 
Q 388 606 388 966 
Q 388 1247 577 1523 
Q 766 1800 1228 2134 
z
M 1719 2469 
Q 2094 2806 2194 3001 
Q 2294 3197 2294 3444 
Q 2294 3772 2109 3958 
Q 1925 4144 1606 4144 
Q 1288 4144 1088 3959 
Q 888 3775 888 3528 
Q 888 3366 970 3203 
Q 1053 3041 1206 2894 
L 1719 2469 
z
M 1375 2016 
Q 1116 1797 991 1539 
Q 866 1281 866 981 
Q 866 578 1086 336 
Q 1306 94 1647 94 
Q 1984 94 2187 284 
Q 2391 475 2391 747 
Q 2391 972 2272 1150 
Q 2050 1481 1375 2016 
z
" transform="scale(0.015625)"/>
       </defs>
       <use xlink:href="#TimesNewRomanPSMT-30"/>
       <use xlink:href="#TimesNewRomanPSMT-2e" transform="translate(50 0)"/>
       <use xlink:href="#TimesNewRomanPSMT-38" transform="translate(75 0)"/>
      </g>
     </g>
    </g>
    <g id="ytick_6">
     <g id="line2d_27">
      <path d="M 41.599375 24.3925 
L 632.999375 24.3925 
" clip-path="url(#p9b43d63785)" style="fill: none; stroke-dasharray: 2.96,1.28; stroke-dashoffset: 0; stroke: #b0b0b0; stroke-opacity: 0.6; stroke-width: 0.8"/>
     </g>
     <g id="line2d_28">
      <g>
       <use xlink:href="#m4e04f2e8d5" x="41.599375" y="24.3925" style="stroke: #000000; stroke-width: 0.8"/>
      </g>
     </g>
     <g id="text_15">
      <!-- 1.0 -->
      <g transform="translate(22.099375 27.864375) scale(0.1 -0.1)">
       <use xlink:href="#TimesNewRomanPSMT-31"/>
       <use xlink:href="#TimesNewRomanPSMT-2e" transform="translate(50 0)"/>
       <use xlink:href="#TimesNewRomanPSMT-30" transform="translate(75 0)"/>
      </g>
     </g>
    </g>
    <g id="text_16">
     <!-- Cumulative Distribution F(t) -->
     <g transform="translate(15.5325 265.31375) rotate(-90) scale(0.12 -0.12)">
      <defs>
       <path id="TimesNewRomanPSMT-43" d="M 3853 4334 
L 3950 2894 
L 3853 2894 
Q 3659 3541 3300 3825 
Q 2941 4109 2438 4109 
Q 2016 4109 1675 3895 
Q 1334 3681 1139 3212 
Q 944 2744 944 2047 
Q 944 1472 1128 1050 
Q 1313 628 1683 403 
Q 2053 178 2528 178 
Q 2941 178 3256 354 
Q 3572 531 3950 1056 
L 4047 994 
Q 3728 428 3303 165 
Q 2878 -97 2294 -97 
Q 1241 -97 663 684 
Q 231 1266 231 2053 
Q 231 2688 515 3219 
Q 800 3750 1298 4042 
Q 1797 4334 2388 4334 
Q 2847 4334 3294 4109 
Q 3425 4041 3481 4041 
Q 3566 4041 3628 4100 
Q 3709 4184 3744 4334 
L 3853 4334 
z
" transform="scale(0.015625)"/>
       <path id="TimesNewRomanPSMT-74" d="M 1031 3803 
L 1031 2863 
L 1700 2863 
L 1700 2644 
L 1031 2644 
L 1031 788 
Q 1031 509 1111 412 
Q 1191 316 1316 316 
Q 1419 316 1516 380 
Q 1613 444 1666 569 
L 1788 569 
Q 1678 263 1478 108 
Q 1278 -47 1066 -47 
Q 922 -47 784 33 
Q 647 113 581 261 
Q 516 409 516 719 
L 516 2644 
L 63 2644 
L 63 2747 
Q 234 2816 414 2980 
Q 594 3144 734 3369 
Q 806 3488 934 3803 
L 1031 3803 
z
" transform="scale(0.015625)"/>
       <path id="TimesNewRomanPSMT-76" d="M 53 2863 
L 1400 2863 
L 1400 2747 
L 1313 2747 
Q 1191 2747 1127 2687 
Q 1063 2628 1063 2528 
Q 1063 2419 1128 2269 
L 1794 688 
L 2463 2328 
Q 2534 2503 2534 2594 
Q 2534 2638 2509 2666 
Q 2475 2713 2422 2730 
Q 2369 2747 2206 2747 
L 2206 2863 
L 3141 2863 
L 3141 2747 
Q 2978 2734 2916 2681 
Q 2806 2588 2719 2369 
L 1703 -88 
L 1575 -88 
L 553 2328 
Q 484 2497 421 2570 
Q 359 2644 263 2694 
Q 209 2722 53 2747 
L 53 2863 
z
" transform="scale(0.015625)"/>
       <path id="TimesNewRomanPSMT-62" d="M 984 2369 
Q 1400 2947 1881 2947 
Q 2322 2947 2650 2570 
Q 2978 2194 2978 1541 
Q 2978 778 2472 313 
Q 2038 -88 1503 -88 
Q 1253 -88 995 3 
Q 738 94 469 275 
L 469 3241 
Q 469 3728 445 3840 
Q 422 3953 372 3993 
Q 322 4034 247 4034 
Q 159 4034 28 3984 
L -16 4094 
L 844 4444 
L 984 4444 
L 984 2369 
z
M 984 2169 
L 984 456 
Q 1144 300 1314 220 
Q 1484 141 1663 141 
Q 1947 141 2192 453 
Q 2438 766 2438 1363 
Q 2438 1913 2192 2208 
Q 1947 2503 1634 2503 
Q 1469 2503 1303 2419 
Q 1178 2356 984 2169 
z
" transform="scale(0.015625)"/>
       <path id="TimesNewRomanPSMT-6f" d="M 1600 2947 
Q 2250 2947 2644 2453 
Q 2978 2031 2978 1484 
Q 2978 1100 2793 706 
Q 2609 313 2286 112 
Q 1963 -88 1566 -88 
Q 919 -88 538 428 
Q 216 863 216 1403 
Q 216 1797 411 2186 
Q 606 2575 925 2761 
Q 1244 2947 1600 2947 
z
M 1503 2744 
Q 1338 2744 1170 2645 
Q 1003 2547 900 2300 
Q 797 2053 797 1666 
Q 797 1041 1045 587 
Q 1294 134 1700 134 
Q 2003 134 2200 384 
Q 2397 634 2397 1244 
Q 2397 2006 2069 2444 
Q 1847 2744 1503 2744 
z
" transform="scale(0.015625)"/>
       <path id="TimesNewRomanPSMT-6e" d="M 1034 2341 
Q 1538 2947 1994 2947 
Q 2228 2947 2397 2830 
Q 2566 2713 2666 2444 
Q 2734 2256 2734 1869 
L 2734 647 
Q 2734 375 2778 278 
Q 2813 200 2889 156 
Q 2966 113 3172 113 
L 3172 0 
L 1756 0 
L 1756 113 
L 1816 113 
Q 2016 113 2095 173 
Q 2175 234 2206 353 
Q 2219 400 2219 647 
L 2219 1819 
Q 2219 2209 2117 2386 
Q 2016 2563 1775 2563 
Q 1403 2563 1034 2156 
L 1034 647 
Q 1034 356 1069 288 
Q 1113 197 1189 155 
Q 1266 113 1500 113 
L 1500 0 
L 84 0 
L 84 113 
L 147 113 
Q 366 113 442 223 
Q 519 334 519 647 
L 519 1709 
Q 519 2225 495 2337 
Q 472 2450 423 2490 
Q 375 2531 294 2531 
Q 206 2531 84 2484 
L 38 2597 
L 900 2947 
L 1034 2947 
L 1034 2341 
z
" transform="scale(0.015625)"/>
      </defs>
      <use xlink:href="#TimesNewRomanPSMT-43"/>
      <use xlink:href="#TimesNewRomanPSMT-75" transform="translate(66.699219 0)"/>
      <use xlink:href="#TimesNewRomanPSMT-6d" transform="translate(116.699219 0)"/>
      <use xlink:href="#TimesNewRomanPSMT-75" transform="translate(194.482422 0)"/>
      <use xlink:href="#TimesNewRomanPSMT-6c" transform="translate(244.482422 0)"/>
      <use xlink:href="#TimesNewRomanPSMT-61" transform="translate(272.265625 0)"/>
      <use xlink:href="#TimesNewRomanPSMT-74" transform="translate(316.650391 0)"/>
      <use xlink:href="#TimesNewRomanPSMT-69" transform="translate(344.433594 0)"/>
      <use xlink:href="#TimesNewRomanPSMT-76" transform="translate(372.216797 0)"/>
      <use xlink:href="#TimesNewRomanPSMT-65" transform="translate(422.216797 0)"/>
      <use xlink:href="#TimesNewRomanPSMT-20" transform="translate(466.601562 0)"/>
      <use xlink:href="#TimesNewRomanPSMT-44" transform="translate(491.601562 0)"/>
      <use xlink:href="#TimesNewRomanPSMT-69" transform="translate(563.818359 0)"/>
      <use xlink:href="#TimesNewRomanPSMT-73" transform="translate(591.601562 0)"/>
      <use xlink:href="#TimesNewRomanPSMT-74" transform="translate(630.517578 0)"/>
      <use xlink:href="#TimesNewRomanPSMT-72" transform="translate(658.300781 0)"/>
      <use xlink:href="#TimesNewRomanPSMT-69" transform="translate(691.601562 0)"/>
      <use xlink:href="#TimesNewRomanPSMT-62" transform="translate(719.384766 0)"/>
      <use xlink:href="#TimesNewRomanPSMT-75" transform="translate(769.384766 0)"/>
      <use xlink:href="#TimesNewRomanPSMT-74" transform="translate(819.384766 0)"/>
      <use xlink:href="#TimesNewRomanPSMT-69" transform="translate(847.167969 0)"/>
      <use xlink:href="#TimesNewRomanPSMT-6f" transform="translate(874.951172 0)"/>
      <use xlink:href="#TimesNewRomanPSMT-6e" transform="translate(924.951172 0)"/>
      <use xlink:href="#TimesNewRomanPSMT-20" transform="translate(974.951172 0)"/>
      <use xlink:href="#TimesNewRomanPSMT-46" transform="translate(999.951172 0)"/>
      <use xlink:href="#TimesNewRomanPSMT-28" transform="translate(1055.566406 0)"/>
      <use xlink:href="#TimesNewRomanPSMT-74" transform="translate(1088.867188 0)"/>
      <use xlink:href="#TimesNewRomanPSMT-29" transform="translate(1116.650391 0)"/>
     </g>
    </g>
   </g>
   <g id="line2d_29">
    <path d="M 68.481193 368.218946 
L 71.713476 343.545846 
L 74.945759 320.643296 
L 78.178041 299.38424 
L 81.410324 279.650741 
L 84.642607 261.333325 
L 87.87489 244.330373 
L 91.107172 228.547558 
L 94.339455 213.897323 
L 97.571738 200.298394 
L 100.804021 187.675328 
L 104.036303 175.958098 
L 107.268586 165.081701 
L 110.500869 154.985797 
L 113.733152 145.614378 
L 116.965434 136.915456 
L 120.197717 128.840771 
L 123.43 121.345529 
L 126.662283 114.388147 
L 129.894565 107.93003 
L 133.126848 101.935349 
L 136.359131 96.370848 
L 139.591414 91.205658 
L 142.823696 86.411123 
L 146.055979 81.960646 
L 149.288262 77.829537 
L 152.520545 73.994877 
L 155.752827 70.435394 
L 158.98511 67.131341 
L 163.29482 63.091782 
L 167.604531 59.434031 
L 171.914241 56.122 
L 176.223951 53.123014 
L 180.533662 50.407484 
L 184.843372 47.948618 
L 189.153082 45.722158 
L 193.462793 43.706137 
L 198.849931 41.45192 
L 204.237069 39.460807 
L 209.624206 37.70209 
L 215.011344 36.148644 
L 221.47591 34.521933 
L 227.940475 33.120312 
L 235.482468 31.728269 
L 243.024462 30.558251 
L 251.643882 29.447792 
L 261.34073 28.435713 
L 272.115006 27.546975 
L 283.96671 26.793253 
L 297.973268 26.131134 
L 314.134682 25.590643 
L 334.605806 25.140135 
L 360.464068 24.804569 
L 397.096606 24.569695 
L 457.43255 24.436634 
L 606.117557 24.393936 
L 606.117557 24.393936 
" clip-path="url(#p9b43d63785)" style="fill: none; stroke: #1f77b4; stroke-width: 1.5; stroke-linecap: square"/>
   </g>
   <g id="line2d_30">
    <path d="M 68.481193 315.299661 
L 71.713476 308.866217 
L 74.945759 301.955168 
L 78.178041 294.573711 
L 81.410324 286.735124 
L 85.720035 275.607219 
L 90.029745 263.765568 
L 94.339455 251.292768 
L 99.726593 234.968362 
L 106.191159 214.609338 
L 125.584855 152.922374 
L 130.971993 136.813226 
L 135.281703 124.555597 
L 139.591414 112.960786 
L 143.901124 102.104687 
L 147.133407 94.482117 
L 150.365689 87.323781 
L 153.597972 80.640031 
L 156.830255 74.435258 
L 160.062538 68.70823 
L 163.29482 63.452535 
L 166.527103 58.657094 
L 169.759386 54.306739 
L 172.991669 50.382836 
L 176.223951 46.863915 
L 179.456234 43.726311 
L 182.688517 40.944775 
L 185.9208 38.493069 
L 189.153082 36.344497 
L 192.385365 34.472397 
L 195.617648 32.850566 
L 198.849931 31.453619 
L 202.082213 30.257287 
L 206.391924 28.93484 
L 210.701634 27.878367 
L 215.011344 27.042973 
L 220.398482 26.249903 
L 225.78562 25.675241 
L 232.250186 25.199339 
L 240.869606 24.813149 
L 251.643882 24.569117 
L 268.882724 24.431377 
L 311.979827 24.392947 
L 606.117557 24.3925 
L 606.117557 24.3925 
" clip-path="url(#p9b43d63785)" style="fill: none; stroke: #ff7f0e; stroke-width: 1.5; stroke-linecap: square"/>
   </g>
   <g id="line2d_31">
    <path d="M 68.481193 368.219796 
L 71.713476 344.373208 
L 74.945759 322.1198 
L 78.178041 301.357525 
L 81.410324 281.990562 
L 84.642607 263.928959 
L 87.87489 247.088296 
L 91.107172 231.389358 
L 94.339455 216.757835 
L 97.571738 203.124036 
L 100.804021 190.42261 
L 104.036303 178.592298 
L 107.268586 167.575685 
L 110.500869 157.318973 
L 113.733152 147.771766 
L 116.965434 138.886862 
L 120.197717 130.620065 
L 123.43 122.930001 
L 126.662283 115.777946 
L 129.894565 109.127667 
L 133.126848 102.945267 
L 136.359131 97.199045 
L 139.591414 91.859357 
L 142.823696 86.898489 
L 146.055979 82.290543 
L 149.288262 78.011314 
L 152.520545 74.038195 
L 155.752827 70.350067 
L 158.98511 66.927213 
L 162.217393 63.751223 
L 166.527103 59.871052 
L 170.836814 56.361757 
L 175.146524 53.189081 
L 179.456234 50.321813 
L 183.765945 47.731528 
L 188.075655 45.392348 
L 192.385365 43.280725 
L 196.695075 41.375238 
L 202.082213 39.253759 
L 207.469351 37.389881 
L 212.856489 35.753287 
L 219.321055 34.051773 
L 225.78562 32.598351 
L 232.250186 31.357896 
L 239.792179 30.139667 
L 248.411599 28.999721 
L 257.03102 28.080485 
L 266.727868 27.258648 
L 278.579572 26.493298 
L 291.508703 25.884723 
L 307.670116 25.361074 
L 327.063813 24.965214 
L 352.922075 24.673471 
L 390.63204 24.489628 
L 461.742261 24.404639 
L 606.117557 24.392631 
L 606.117557 24.392631 
" clip-path="url(#p9b43d63785)" style="fill: none; stroke: #2ca02c; stroke-width: 1.5; stroke-linecap: square"/>
   </g>
   <g id="line2d_32">
    <path d="M 68.481193 368.2425 
L 69.558621 367.982473 
L 70.636048 366.104505 
L 71.713476 362.184993 
L 72.790904 356.580362 
L 73.868331 349.749671 
L 76.023186 333.895088 
L 83.565179 274.886588 
L 86.797462 252.217929 
L 88.952317 238.346214 
L 91.107172 225.453923 
L 93.262028 213.496839 
L 95.416883 202.417766 
L 97.571738 192.154546 
L 99.726593 182.644607 
L 101.881448 173.827479 
L 104.036303 165.646108 
L 107.268586 154.451221 
L 110.500869 144.407073 
L 113.733152 135.372718 
L 116.965434 127.225835 
L 120.197717 119.860565 
L 123.43 113.185341 
L 126.662283 107.120899 
L 129.894565 101.598517 
L 133.126848 96.558483 
L 136.359131 91.948795 
L 139.591414 87.724042 
L 142.823696 83.844468 
L 146.055979 80.275173 
L 149.288262 76.985437 
L 152.520545 73.94815 
L 156.830255 70.250067 
L 161.139965 66.908919 
L 165.449676 63.882314 
L 169.759386 61.133821 
L 174.069096 58.632005 
L 178.378807 56.349642 
L 183.765945 53.76954 
L 189.153082 51.455886 
L 194.54022 49.375056 
L 201.004786 47.145394 
L 207.469351 45.16831 
L 213.933917 43.409047 
L 221.47591 41.59326 
L 229.017903 39.99596 
L 237.637324 38.397517 
L 247.334172 36.842861 
L 258.108448 35.366309 
L 269.960151 33.991763 
L 282.889282 32.733739 
L 296.895841 31.598878 
L 313.057254 30.522516 
L 331.373523 29.537508 
L 351.844647 28.661885 
L 375.548054 27.869948 
L 403.561171 27.157609 
L 438.038854 26.514079 
L 480.05853 25.962881 
L 533.929909 25.492605 
L 605.040129 25.109714 
L 606.117557 25.105308 
L 606.117557 25.105308 
" clip-path="url(#p9b43d63785)" style="fill: none; stroke: #d62728; stroke-width: 1.5; stroke-linecap: square"/>
   </g>
   <g id="line2d_33">
    <path d="M 68.481193 368.236303 
L 69.558621 363.329423 
L 71.713476 351.507383 
L 85.720035 270.979276 
L 90.029745 248.479521 
L 93.262028 232.60123 
L 96.49431 217.597697 
L 99.726593 203.46679 
L 102.958876 190.193833 
L 106.191159 177.755585 
L 109.423441 166.122988 
L 112.655724 155.263151 
L 115.888007 145.140785 
L 119.12029 135.719277 
L 122.352572 126.961484 
L 125.584855 118.830335 
L 128.817138 111.289274 
L 132.049421 104.302595 
L 135.281703 97.835684 
L 138.513986 91.855187 
L 141.746269 86.329136 
L 144.978552 81.227018 
L 148.210834 76.519821 
L 151.443117 72.180045 
L 154.6754 68.181703 
L 157.907683 64.500294 
L 161.139965 61.112775 
L 164.372248 57.997513 
L 167.604531 55.134241 
L 170.836814 52.504 
L 175.146524 49.329073 
L 179.456234 46.49838 
L 183.765945 43.976737 
L 188.075655 41.732223 
L 192.385365 39.735934 
L 196.695075 37.961742 
L 202.082213 36.020631 
L 207.469351 34.348895 
L 212.856489 32.910632 
L 219.321055 31.448996 
L 225.78562 30.231848 
L 233.327613 29.068392 
L 240.869606 28.13165 
L 249.489027 27.283948 
L 259.185875 26.553477 
L 271.037579 25.902283 
L 285.044137 25.377173 
L 302.282979 24.971436 
L 324.908958 24.67855 
L 358.309213 24.492014 
L 420.800013 24.405722 
L 606.117557 24.392526 
L 606.117557 24.392526 
" clip-path="url(#p9b43d63785)" style="fill: none; stroke: #9467bd; stroke-width: 1.5; stroke-linecap: square"/>
   </g>
   <g id="line2d_34">
    <path d="M 68.481193 368.2425 
L 69.558621 364.433861 
L 71.713476 352.165183 
L 83.565179 281.868709 
L 87.87489 258.433748 
L 91.107172 241.898546 
L 94.339455 226.280419 
L 97.571738 211.57727 
L 100.804021 197.772853 
L 104.036303 184.84158 
L 107.268586 172.751731 
L 110.500869 161.467679 
L 113.733152 150.951468 
L 116.965434 141.16396 
L 120.197717 132.065666 
L 123.43 123.617356 
L 126.662283 115.780513 
L 129.894565 108.517652 
L 133.126848 101.792552 
L 136.359131 95.570415 
L 139.591414 89.817971 
L 142.823696 84.503539 
L 146.055979 79.597054 
L 149.288262 75.070072 
L 152.520545 70.895751 
L 155.752827 67.048819 
L 158.98511 63.505533 
L 162.217393 60.243628 
L 165.449676 57.242258 
L 168.681958 54.481934 
L 172.991669 51.145203 
L 177.301379 48.16506 
L 181.611089 45.505381 
L 185.9208 43.133394 
L 190.23051 41.019422 
L 194.54022 39.136629 
L 198.849931 37.460784 
L 204.237069 35.623926 
L 209.624206 34.038498 
L 215.011344 32.671267 
L 221.47591 31.277969 
L 227.940475 30.113969 
L 235.482468 28.997168 
L 244.101889 27.980148 
L 252.72131 27.183769 
L 263.495586 26.428177 
L 275.347289 25.827622 
L 289.353848 25.339091 
L 307.670116 24.939292 
L 331.373523 24.659334 
L 366.928634 24.4822 
L 435.883999 24.402883 
L 606.117557 24.392542 
L 606.117557 24.392542 
" clip-path="url(#p9b43d63785)" style="fill: none; stroke: #8c564b; stroke-width: 1.5; stroke-linecap: square"/>
   </g>
   <g id="line2d_35">
    <path d="M 68.481193 368.24091 
L 69.558621 364.904111 
L 70.636048 360.180774 
L 72.790904 349.102891 
L 76.023186 330.68813 
L 85.720035 274.120708 
L 90.029745 250.62528 
L 93.262028 234.017278 
L 96.49431 218.337366 
L 99.726593 203.601073 
L 102.958876 189.801561 
L 106.191159 176.917118 
L 109.423441 164.916232 
L 112.655724 153.761127 
L 115.888007 143.410253 
L 119.12029 133.820072 
L 122.352572 124.946331 
L 125.584855 116.744983 
L 128.817138 109.172833 
L 132.049421 102.187993 
L 135.281703 95.750196 
L 138.513986 89.820994 
L 141.746269 84.363879 
L 144.978552 79.344342 
L 148.210834 74.729887 
L 151.443117 70.49001 
L 154.6754 66.596158 
L 157.907683 63.021662 
L 161.139965 59.741669 
L 164.372248 56.733058 
L 167.604531 53.97435 
L 170.836814 51.445626 
L 175.146524 48.400048 
L 179.456234 45.690705 
L 183.765945 43.281614 
L 188.075655 41.140439 
L 192.385365 39.238155 
L 196.695075 37.548748 
L 202.082213 35.701096 
L 207.469351 34.109682 
L 212.856489 32.739616 
L 219.321055 31.345381 
L 225.78562 30.181765 
L 233.327613 29.065829 
L 241.947034 28.049308 
L 251.643882 27.165694 
L 262.418158 26.430446 
L 274.269861 25.843527 
L 289.353848 25.3332 
L 307.670116 24.947458 
L 332.450951 24.663661 
L 370.160916 24.48332 
L 443.425992 24.403232 
L 606.117557 24.392591 
L 606.117557 24.392591 
" clip-path="url(#p9b43d63785)" style="fill: none; stroke: #e377c2; stroke-width: 1.5; stroke-linecap: square"/>
   </g>
   <g id="line2d_36">
    <path d="M 68.481193 368.2425 
L 69.558621 365.475507 
L 70.636048 360.535787 
L 72.790904 348.987663 
L 76.023186 330.021492 
L 83.565179 285.096925 
L 87.87489 260.837158 
L 91.107172 243.657757 
L 94.339455 227.423093 
L 97.571738 212.154811 
L 100.804021 197.848754 
L 104.036303 184.484021 
L 107.268586 172.028886 
L 110.500869 160.444809 
L 113.733152 149.689194 
L 116.965434 139.717331 
L 120.197717 130.48376 
L 123.43 121.943242 
L 126.662283 114.051431 
L 129.894565 106.765346 
L 133.126848 100.043686 
L 136.359131 93.84703 
L 139.591414 88.137959 
L 142.823696 82.881107 
L 146.055979 78.043172 
L 149.288262 73.592895 
L 152.520545 69.501009 
L 155.752827 65.740175 
L 158.98511 62.284905 
L 162.217393 59.111477 
L 165.449676 56.197844 
L 168.681958 53.523547 
L 172.991669 50.29754 
L 177.301379 47.422346 
L 181.611089 44.860917 
L 185.9208 42.579916 
L 190.23051 40.549389 
L 194.54022 38.742446 
L 199.927358 36.7617 
L 205.314496 35.051186 
L 210.701634 33.57466 
L 217.1662 32.067628 
L 223.630765 30.80571 
L 231.172758 29.591107 
L 238.714751 28.604831 
L 247.334172 27.703107 
L 257.03102 26.915886 
L 267.805296 26.257566 
L 280.734427 25.689132 
L 296.895841 25.214776 
L 317.366965 24.853648 
L 345.380082 24.601021 
L 389.554613 24.451893 
L 489.755378 24.395892 
L 606.117557 24.39262 
L 606.117557 24.39262 
" clip-path="url(#p9b43d63785)" style="fill: none; stroke: #7f7f7f; stroke-width: 1.5; stroke-linecap: square"/>
   </g>
   <g id="patch_3">
    <path d="M 41.599375 385.435 
L 41.599375 7.2 
" style="fill: none; stroke: #000000; stroke-width: 0.8; stroke-linejoin: miter; stroke-linecap: square"/>
   </g>
   <g id="patch_4">
    <path d="M 632.999375 385.435 
L 632.999375 7.2 
" style="fill: none; stroke: #000000; stroke-width: 0.8; stroke-linejoin: miter; stroke-linecap: square"/>
   </g>
   <g id="patch_5">
    <path d="M 41.599375 385.435 
L 632.999375 385.435 
" style="fill: none; stroke: #000000; stroke-width: 0.8; stroke-linejoin: miter; stroke-linecap: square"/>
   </g>
   <g id="patch_6">
    <path d="M 41.599375 7.2 
L 632.999375 7.2 
" style="fill: none; stroke: #000000; stroke-width: 0.8; stroke-linejoin: miter; stroke-linecap: square"/>
   </g>
   <g id="legend_1">
    <g id="patch_7">
     <path d="M 463.537813 380.935 
L 626.699375 380.935 
Q 628.499375 380.935 628.499375 379.135 
L 628.499375 329.066875 
Q 628.499375 327.266875 626.699375 327.266875 
L 463.537813 327.266875 
Q 461.737813 327.266875 461.737813 329.066875 
L 461.737813 379.135 
Q 461.737813 380.935 463.537813 380.935 
z
" style="fill: #ffffff; opacity: 0.8; stroke: #cccccc; stroke-linejoin: miter"/>
    </g>
    <g id="line2d_37">
     <path d="M 465.337813 334.016875 
L 474.337813 334.016875 
L 483.337813 334.016875 
" style="fill: none; stroke: #1f77b4; stroke-width: 1.5; stroke-linecap: square"/>
    </g>
    <g id="text_17">
     <!-- Exponential -->
     <g transform="translate(490.537813 337.166875) scale(0.09 -0.09)">
      <defs>
       <path id="TimesNewRomanPSMT-45" d="M 1338 4006 
L 1338 2331 
L 2269 2331 
Q 2631 2331 2753 2441 
Q 2916 2584 2934 2947 
L 3050 2947 
L 3050 1472 
L 2934 1472 
Q 2891 1781 2847 1869 
Q 2791 1978 2662 2040 
Q 2534 2103 2269 2103 
L 1338 2103 
L 1338 706 
Q 1338 425 1363 364 
Q 1388 303 1450 267 
Q 1513 231 1688 231 
L 2406 231 
Q 2766 231 2928 281 
Q 3091 331 3241 478 
Q 3434 672 3638 1063 
L 3763 1063 
L 3397 0 
L 131 0 
L 131 116 
L 281 116 
Q 431 116 566 188 
Q 666 238 702 338 
Q 738 438 738 747 
L 738 3500 
Q 738 3903 656 3997 
Q 544 4122 281 4122 
L 131 4122 
L 131 4238 
L 3397 4238 
L 3444 3309 
L 3322 3309 
Q 3256 3644 3176 3769 
Q 3097 3894 2941 3959 
Q 2816 4006 2500 4006 
L 1338 4006 
z
" transform="scale(0.015625)"/>
       <path id="TimesNewRomanPSMT-78" d="M 84 2863 
L 1431 2863 
L 1431 2747 
Q 1303 2747 1251 2703 
Q 1200 2659 1200 2588 
Q 1200 2513 1309 2356 
Q 1344 2306 1413 2200 
L 1616 1875 
L 1850 2200 
Q 2075 2509 2075 2591 
Q 2075 2656 2022 2701 
Q 1969 2747 1850 2747 
L 1850 2863 
L 2819 2863 
L 2819 2747 
Q 2666 2738 2553 2663 
Q 2400 2556 2134 2200 
L 1744 1678 
L 2456 653 
Q 2719 275 2831 198 
Q 2944 122 3122 113 
L 3122 0 
L 1772 0 
L 1772 113 
Q 1913 113 1991 175 
Q 2050 219 2050 291 
Q 2050 363 1850 653 
L 1431 1266 
L 972 653 
Q 759 369 759 316 
Q 759 241 829 180 
Q 900 119 1041 113 
L 1041 0 
L 106 0 
L 106 113 
Q 219 128 303 191 
Q 422 281 703 653 
L 1303 1450 
L 759 2238 
Q 528 2575 401 2661 
Q 275 2747 84 2747 
L 84 2863 
z
" transform="scale(0.015625)"/>
       <path id="TimesNewRomanPSMT-70" d="M -6 2578 
L 875 2934 
L 994 2934 
L 994 2266 
Q 1216 2644 1439 2795 
Q 1663 2947 1909 2947 
Q 2341 2947 2628 2609 
Q 2981 2197 2981 1534 
Q 2981 794 2556 309 
Q 2206 -88 1675 -88 
Q 1444 -88 1275 -22 
Q 1150 25 994 166 
L 994 -706 
Q 994 -1000 1030 -1079 
Q 1066 -1159 1155 -1206 
Q 1244 -1253 1478 -1253 
L 1478 -1369 
L -22 -1369 
L -22 -1253 
L 56 -1253 
Q 228 -1256 350 -1188 
Q 409 -1153 442 -1076 
Q 475 -1000 475 -688 
L 475 2019 
Q 475 2297 450 2372 
Q 425 2447 370 2484 
Q 316 2522 222 2522 
Q 147 2522 31 2478 
L -6 2578 
z
M 994 2081 
L 994 1013 
Q 994 666 1022 556 
Q 1066 375 1236 237 
Q 1406 100 1666 100 
Q 1978 100 2172 344 
Q 2425 663 2425 1241 
Q 2425 1897 2138 2250 
Q 1938 2494 1663 2494 
Q 1513 2494 1366 2419 
Q 1253 2363 994 2081 
z
" transform="scale(0.015625)"/>
      </defs>
      <use xlink:href="#TimesNewRomanPSMT-45"/>
      <use xlink:href="#TimesNewRomanPSMT-78" transform="translate(61.083984 0)"/>
      <use xlink:href="#TimesNewRomanPSMT-70" transform="translate(111.083984 0)"/>
      <use xlink:href="#TimesNewRomanPSMT-6f" transform="translate(161.083984 0)"/>
      <use xlink:href="#TimesNewRomanPSMT-6e" transform="translate(211.083984 0)"/>
      <use xlink:href="#TimesNewRomanPSMT-65" transform="translate(261.083984 0)"/>
      <use xlink:href="#TimesNewRomanPSMT-6e" transform="translate(305.46875 0)"/>
      <use xlink:href="#TimesNewRomanPSMT-74" transform="translate(355.46875 0)"/>
      <use xlink:href="#TimesNewRomanPSMT-69" transform="translate(383.251953 0)"/>
      <use xlink:href="#TimesNewRomanPSMT-61" transform="translate(411.035156 0)"/>
      <use xlink:href="#TimesNewRomanPSMT-6c" transform="translate(455.419922 0)"/>
     </g>
    </g>
    <g id="line2d_38">
     <path d="M 465.337813 346.742031 
L 474.337813 346.742031 
L 483.337813 346.742031 
" style="fill: none; stroke: #ff7f0e; stroke-width: 1.5; stroke-linecap: square"/>
    </g>
    <g id="text_18">
     <!-- Normal -->
     <g transform="translate(490.537813 349.892031) scale(0.09 -0.09)">
      <defs>
       <path id="TimesNewRomanPSMT-4e" d="M -84 4238 
L 1066 4238 
L 3656 1059 
L 3656 3503 
Q 3656 3894 3569 3991 
Q 3453 4122 3203 4122 
L 3056 4122 
L 3056 4238 
L 4531 4238 
L 4531 4122 
L 4381 4122 
Q 4113 4122 4000 3959 
Q 3931 3859 3931 3503 
L 3931 -69 
L 3819 -69 
L 1025 3344 
L 1025 734 
Q 1025 344 1109 247 
Q 1228 116 1475 116 
L 1625 116 
L 1625 0 
L 150 0 
L 150 116 
L 297 116 
Q 569 116 681 278 
Q 750 378 750 734 
L 750 3681 
Q 566 3897 470 3965 
Q 375 4034 191 4094 
Q 100 4122 -84 4122 
L -84 4238 
z
" transform="scale(0.015625)"/>
      </defs>
      <use xlink:href="#TimesNewRomanPSMT-4e"/>
      <use xlink:href="#TimesNewRomanPSMT-6f" transform="translate(72.216797 0)"/>
      <use xlink:href="#TimesNewRomanPSMT-72" transform="translate(122.216797 0)"/>
      <use xlink:href="#TimesNewRomanPSMT-6d" transform="translate(155.517578 0)"/>
      <use xlink:href="#TimesNewRomanPSMT-61" transform="translate(233.300781 0)"/>
      <use xlink:href="#TimesNewRomanPSMT-6c" transform="translate(277.685547 0)"/>
     </g>
    </g>
    <g id="line2d_39">
     <path d="M 465.337813 359.467187 
L 474.337813 359.467187 
L 483.337813 359.467187 
" style="fill: none; stroke: #2ca02c; stroke-width: 1.5; stroke-linecap: square"/>
    </g>
    <g id="text_19">
     <!-- TruncNormal -->
     <g transform="translate(490.537813 362.617187) scale(0.09 -0.09)">
      <defs>
       <path id="TimesNewRomanPSMT-63" d="M 2631 1088 
Q 2516 522 2178 217 
Q 1841 -88 1431 -88 
Q 944 -88 581 321 
Q 219 731 219 1428 
Q 219 2103 620 2525 
Q 1022 2947 1584 2947 
Q 2006 2947 2278 2723 
Q 2550 2500 2550 2259 
Q 2550 2141 2473 2067 
Q 2397 1994 2259 1994 
Q 2075 1994 1981 2113 
Q 1928 2178 1911 2362 
Q 1894 2547 1784 2644 
Q 1675 2738 1481 2738 
Q 1169 2738 978 2506 
Q 725 2200 725 1697 
Q 725 1184 976 792 
Q 1228 400 1656 400 
Q 1963 400 2206 609 
Q 2378 753 2541 1131 
L 2631 1088 
z
" transform="scale(0.015625)"/>
      </defs>
      <use xlink:href="#TimesNewRomanPSMT-54"/>
      <use xlink:href="#TimesNewRomanPSMT-72" transform="translate(57.583984 0)"/>
      <use xlink:href="#TimesNewRomanPSMT-75" transform="translate(90.884766 0)"/>
      <use xlink:href="#TimesNewRomanPSMT-6e" transform="translate(140.884766 0)"/>
      <use xlink:href="#TimesNewRomanPSMT-63" transform="translate(190.884766 0)"/>
      <use xlink:href="#TimesNewRomanPSMT-4e" transform="translate(235.269531 0)"/>
      <use xlink:href="#TimesNewRomanPSMT-6f" transform="translate(307.486328 0)"/>
      <use xlink:href="#TimesNewRomanPSMT-72" transform="translate(357.486328 0)"/>
      <use xlink:href="#TimesNewRomanPSMT-6d" transform="translate(390.787109 0)"/>
      <use xlink:href="#TimesNewRomanPSMT-61" transform="translate(468.570312 0)"/>
      <use xlink:href="#TimesNewRomanPSMT-6c" transform="translate(512.955078 0)"/>
     </g>
    </g>
    <g id="line2d_40">
     <path d="M 465.337813 372.192344 
L 474.337813 372.192344 
L 483.337813 372.192344 
" style="fill: none; stroke: #d62728; stroke-width: 1.5; stroke-linecap: square"/>
    </g>
    <g id="text_20">
     <!-- LogNormal -->
     <g transform="translate(490.537813 375.342344) scale(0.09 -0.09)">
      <defs>
       <path id="TimesNewRomanPSMT-4c" d="M 3669 1172 
L 3772 1150 
L 3409 0 
L 128 0 
L 128 116 
L 288 116 
Q 556 116 672 291 
Q 738 391 738 753 
L 738 3488 
Q 738 3884 650 3984 
Q 528 4122 288 4122 
L 128 4122 
L 128 4238 
L 2047 4238 
L 2047 4122 
Q 1709 4125 1573 4059 
Q 1438 3994 1388 3894 
Q 1338 3794 1338 3416 
L 1338 753 
Q 1338 494 1388 397 
Q 1425 331 1503 300 
Q 1581 269 1991 269 
L 2300 269 
Q 2788 269 2984 341 
Q 3181 413 3343 595 
Q 3506 778 3669 1172 
z
" transform="scale(0.015625)"/>
       <path id="TimesNewRomanPSMT-67" d="M 966 1044 
Q 703 1172 562 1401 
Q 422 1631 422 1909 
Q 422 2334 742 2640 
Q 1063 2947 1563 2947 
Q 1972 2947 2272 2747 
L 2878 2747 
Q 3013 2747 3034 2739 
Q 3056 2731 3066 2713 
Q 3084 2684 3084 2613 
Q 3084 2531 3069 2500 
Q 3059 2484 3036 2475 
Q 3013 2466 2878 2466 
L 2506 2466 
Q 2681 2241 2681 1891 
Q 2681 1491 2375 1206 
Q 2069 922 1553 922 
Q 1341 922 1119 984 
Q 981 866 932 777 
Q 884 688 884 625 
Q 884 572 936 522 
Q 988 472 1138 450 
Q 1225 438 1575 428 
Q 2219 413 2409 384 
Q 2700 344 2873 169 
Q 3047 -6 3047 -263 
Q 3047 -616 2716 -925 
Q 2228 -1381 1444 -1381 
Q 841 -1381 425 -1109 
Q 191 -953 191 -784 
Q 191 -709 225 -634 
Q 278 -519 444 -313 
Q 466 -284 763 25 
Q 600 122 533 198 
Q 466 275 466 372 
Q 466 481 555 628 
Q 644 775 966 1044 
z
M 1509 2797 
Q 1278 2797 1122 2612 
Q 966 2428 966 2047 
Q 966 1553 1178 1281 
Q 1341 1075 1591 1075 
Q 1828 1075 1981 1253 
Q 2134 1431 2134 1813 
Q 2134 2309 1919 2591 
Q 1759 2797 1509 2797 
z
M 934 0 
Q 788 -159 713 -296 
Q 638 -434 638 -550 
Q 638 -700 819 -813 
Q 1131 -1006 1722 -1006 
Q 2284 -1006 2551 -807 
Q 2819 -609 2819 -384 
Q 2819 -222 2659 -153 
Q 2497 -84 2016 -72 
Q 1313 -53 934 0 
z
" transform="scale(0.015625)"/>
      </defs>
      <use xlink:href="#TimesNewRomanPSMT-4c"/>
      <use xlink:href="#TimesNewRomanPSMT-6f" transform="translate(61.083984 0)"/>
      <use xlink:href="#TimesNewRomanPSMT-67" transform="translate(111.083984 0)"/>
      <use xlink:href="#TimesNewRomanPSMT-4e" transform="translate(161.083984 0)"/>
      <use xlink:href="#TimesNewRomanPSMT-6f" transform="translate(233.300781 0)"/>
      <use xlink:href="#TimesNewRomanPSMT-72" transform="translate(283.300781 0)"/>
      <use xlink:href="#TimesNewRomanPSMT-6d" transform="translate(316.601562 0)"/>
      <use xlink:href="#TimesNewRomanPSMT-61" transform="translate(394.384766 0)"/>
      <use xlink:href="#TimesNewRomanPSMT-6c" transform="translate(438.769531 0)"/>
     </g>
    </g>
    <g id="line2d_41">
     <path d="M 557.203906 334.016875 
L 566.203906 334.016875 
L 575.203906 334.016875 
" style="fill: none; stroke: #9467bd; stroke-width: 1.5; stroke-linecap: square"/>
    </g>
    <g id="text_21">
     <!-- Weibull_2P -->
     <g transform="translate(582.403906 337.166875) scale(0.09 -0.09)">
      <defs>
       <path id="TimesNewRomanPSMT-57" d="M 5991 4238 
L 5991 4122 
Q 5825 4122 5722 4062 
Q 5619 4003 5525 3841 
Q 5463 3731 5328 3319 
L 4147 -97 
L 4022 -97 
L 3056 2613 
L 2097 -97 
L 1984 -97 
L 725 3422 
Q 584 3816 547 3888 
Q 484 4006 376 4064 
Q 269 4122 84 4122 
L 84 4238 
L 1653 4238 
L 1653 4122 
L 1578 4122 
Q 1413 4122 1325 4047 
Q 1238 3972 1238 3866 
Q 1238 3756 1375 3363 
L 2209 984 
L 2913 3006 
L 2788 3363 
L 2688 3647 
Q 2622 3803 2541 3922 
Q 2500 3981 2441 4022 
Q 2363 4078 2284 4103 
Q 2225 4122 2097 4122 
L 2097 4238 
L 3747 4238 
L 3747 4122 
L 3634 4122 
Q 3459 4122 3378 4047 
Q 3297 3972 3297 3844 
Q 3297 3684 3438 3288 
L 4250 984 
L 5056 3319 
Q 5194 3706 5194 3856 
Q 5194 3928 5148 3990 
Q 5103 4053 5034 4078 
Q 4916 4122 4725 4122 
L 4725 4238 
L 5991 4238 
z
" transform="scale(0.015625)"/>
       <path id="TimesNewRomanPSMT-5f" d="M 3256 -1381 
L -53 -1381 
L -53 -1119 
L 3256 -1119 
L 3256 -1381 
z
" transform="scale(0.015625)"/>
       <path id="TimesNewRomanPSMT-50" d="M 1313 1984 
L 1313 750 
Q 1313 350 1400 253 
Q 1519 116 1759 116 
L 1922 116 
L 1922 0 
L 106 0 
L 106 116 
L 266 116 
Q 534 116 650 291 
Q 713 388 713 750 
L 713 3488 
Q 713 3888 628 3984 
Q 506 4122 266 4122 
L 106 4122 
L 106 4238 
L 1659 4238 
Q 2228 4238 2556 4120 
Q 2884 4003 3109 3725 
Q 3334 3447 3334 3066 
Q 3334 2547 2992 2222 
Q 2650 1897 2025 1897 
Q 1872 1897 1694 1919 
Q 1516 1941 1313 1984 
z
M 1313 2163 
Q 1478 2131 1606 2115 
Q 1734 2100 1825 2100 
Q 2150 2100 2386 2351 
Q 2622 2603 2622 3003 
Q 2622 3278 2509 3514 
Q 2397 3750 2190 3867 
Q 1984 3984 1722 3984 
Q 1563 3984 1313 3925 
L 1313 2163 
z
" transform="scale(0.015625)"/>
      </defs>
      <use xlink:href="#TimesNewRomanPSMT-57"/>
      <use xlink:href="#TimesNewRomanPSMT-65" transform="translate(86.384766 0)"/>
      <use xlink:href="#TimesNewRomanPSMT-69" transform="translate(130.769531 0)"/>
      <use xlink:href="#TimesNewRomanPSMT-62" transform="translate(158.552734 0)"/>
      <use xlink:href="#TimesNewRomanPSMT-75" transform="translate(208.552734 0)"/>
      <use xlink:href="#TimesNewRomanPSMT-6c" transform="translate(258.552734 0)"/>
      <use xlink:href="#TimesNewRomanPSMT-6c" transform="translate(286.335938 0)"/>
      <use xlink:href="#TimesNewRomanPSMT-5f" transform="translate(314.119141 0)"/>
      <use xlink:href="#TimesNewRomanPSMT-32" transform="translate(364.119141 0)"/>
      <use xlink:href="#TimesNewRomanPSMT-50" transform="translate(414.119141 0)"/>
     </g>
    </g>
    <g id="line2d_42">
     <path d="M 557.203906 346.758906 
L 566.203906 346.758906 
L 575.203906 346.758906 
" style="fill: none; stroke: #8c564b; stroke-width: 1.5; stroke-linecap: square"/>
    </g>
    <g id="text_22">
     <!-- Weibull_3P -->
     <g transform="translate(582.403906 349.908906) scale(0.09 -0.09)">
      <defs>
       <path id="TimesNewRomanPSMT-33" d="M 325 3431 
Q 506 3859 782 4092 
Q 1059 4325 1472 4325 
Q 1981 4325 2253 3994 
Q 2459 3747 2459 3466 
Q 2459 3003 1878 2509 
Q 2269 2356 2469 2072 
Q 2669 1788 2669 1403 
Q 2669 853 2319 450 
Q 1863 -75 997 -75 
Q 569 -75 414 31 
Q 259 138 259 259 
Q 259 350 332 419 
Q 406 488 509 488 
Q 588 488 669 463 
Q 722 447 909 348 
Q 1097 250 1169 231 
Q 1284 197 1416 197 
Q 1734 197 1970 444 
Q 2206 691 2206 1028 
Q 2206 1275 2097 1509 
Q 2016 1684 1919 1775 
Q 1784 1900 1550 2001 
Q 1316 2103 1072 2103 
L 972 2103 
L 972 2197 
Q 1219 2228 1467 2375 
Q 1716 2522 1828 2728 
Q 1941 2934 1941 3181 
Q 1941 3503 1739 3701 
Q 1538 3900 1238 3900 
Q 753 3900 428 3381 
L 325 3431 
z
" transform="scale(0.015625)"/>
      </defs>
      <use xlink:href="#TimesNewRomanPSMT-57"/>
      <use xlink:href="#TimesNewRomanPSMT-65" transform="translate(86.384766 0)"/>
      <use xlink:href="#TimesNewRomanPSMT-69" transform="translate(130.769531 0)"/>
      <use xlink:href="#TimesNewRomanPSMT-62" transform="translate(158.552734 0)"/>
      <use xlink:href="#TimesNewRomanPSMT-75" transform="translate(208.552734 0)"/>
      <use xlink:href="#TimesNewRomanPSMT-6c" transform="translate(258.552734 0)"/>
      <use xlink:href="#TimesNewRomanPSMT-6c" transform="translate(286.335938 0)"/>
      <use xlink:href="#TimesNewRomanPSMT-5f" transform="translate(314.119141 0)"/>
      <use xlink:href="#TimesNewRomanPSMT-33" transform="translate(364.119141 0)"/>
      <use xlink:href="#TimesNewRomanPSMT-50" transform="translate(414.119141 0)"/>
     </g>
    </g>
    <g id="line2d_43">
     <path d="M 557.203906 359.500937 
L 566.203906 359.500937 
L 575.203906 359.500937 
" style="fill: none; stroke: #e377c2; stroke-width: 1.5; stroke-linecap: square"/>
    </g>
    <g id="text_23">
     <!-- Gamma_2P -->
     <g transform="translate(582.403906 362.650937) scale(0.09 -0.09)">
      <defs>
       <path id="TimesNewRomanPSMT-47" d="M 3928 4334 
L 4038 2997 
L 3928 2997 
Q 3763 3497 3500 3750 
Q 3122 4116 2528 4116 
Q 1719 4116 1297 3475 
Q 944 2934 944 2188 
Q 944 1581 1178 1081 
Q 1413 581 1792 348 
Q 2172 116 2572 116 
Q 2806 116 3025 175 
Q 3244 234 3447 350 
L 3447 1575 
Q 3447 1894 3398 1992 
Q 3350 2091 3248 2142 
Q 3147 2194 2891 2194 
L 2891 2313 
L 4531 2313 
L 4531 2194 
L 4453 2194 
Q 4209 2194 4119 2031 
Q 4056 1916 4056 1575 
L 4056 278 
Q 3697 84 3347 -6 
Q 2997 -97 2569 -97 
Q 1341 -97 703 691 
Q 225 1281 225 2053 
Q 225 2613 494 3125 
Q 813 3734 1369 4063 
Q 1834 4334 2469 4334 
Q 2700 4334 2889 4296 
Q 3078 4259 3425 4131 
Q 3600 4066 3659 4066 
Q 3719 4066 3761 4120 
Q 3803 4175 3813 4334 
L 3928 4334 
z
" transform="scale(0.015625)"/>
      </defs>
      <use xlink:href="#TimesNewRomanPSMT-47"/>
      <use xlink:href="#TimesNewRomanPSMT-61" transform="translate(72.216797 0)"/>
      <use xlink:href="#TimesNewRomanPSMT-6d" transform="translate(116.601562 0)"/>
      <use xlink:href="#TimesNewRomanPSMT-6d" transform="translate(194.384766 0)"/>
      <use xlink:href="#TimesNewRomanPSMT-61" transform="translate(272.167969 0)"/>
      <use xlink:href="#TimesNewRomanPSMT-5f" transform="translate(316.552734 0)"/>
      <use xlink:href="#TimesNewRomanPSMT-32" transform="translate(366.552734 0)"/>
      <use xlink:href="#TimesNewRomanPSMT-50" transform="translate(416.552734 0)"/>
     </g>
    </g>
    <g id="line2d_44">
     <path d="M 557.203906 372.242969 
L 566.203906 372.242969 
L 575.203906 372.242969 
" style="fill: none; stroke: #7f7f7f; stroke-width: 1.5; stroke-linecap: square"/>
    </g>
    <g id="text_24">
     <!-- Gamma_3P -->
     <g transform="translate(582.403906 375.392969) scale(0.09 -0.09)">
      <use xlink:href="#TimesNewRomanPSMT-47"/>
      <use xlink:href="#TimesNewRomanPSMT-61" transform="translate(72.216797 0)"/>
      <use xlink:href="#TimesNewRomanPSMT-6d" transform="translate(116.601562 0)"/>
      <use xlink:href="#TimesNewRomanPSMT-6d" transform="translate(194.384766 0)"/>
      <use xlink:href="#TimesNewRomanPSMT-61" transform="translate(272.167969 0)"/>
      <use xlink:href="#TimesNewRomanPSMT-5f" transform="translate(316.552734 0)"/>
      <use xlink:href="#TimesNewRomanPSMT-33" transform="translate(366.552734 0)"/>
      <use xlink:href="#TimesNewRomanPSMT-50" transform="translate(416.552734 0)"/>
     </g>
    </g>
   </g>
  </g>
 </g>
 <defs>
  <clipPath id="p9b43d63785">
   <rect x="41.599375" y="7.2" width="591.4" height="378.235"/>
  </clipPath>
 </defs>
</svg>
