<?xml version="1.0" encoding="utf-8" standalone="no"?>
<!DOCTYPE svg PUBLIC "-//W3C//DTD SVG 1.1//EN"
  "http://www.w3.org/Graphics/SVG/1.1/DTD/svg11.dtd">
<svg xmlns:xlink="http://www.w3.org/1999/xlink" width="640.079375pt" height="423.148437pt" viewBox="0 0 640.079375 423.148437" xmlns="http://www.w3.org/2000/svg" version="1.1">
 <metadata>
  <rdf:RDF xmlns:dc="http://purl.org/dc/elements/1.1/" xmlns:cc="http://creativecommons.org/ns#" xmlns:rdf="http://www.w3.org/1999/02/22-rdf-syntax-ns#">
   <cc:Work>
    <dc:type rdf:resource="http://purl.org/dc/dcmitype/StillImage"/>
    <dc:date>2026-03-25T11:10:45.993199</dc:date>
    <dc:format>image/svg+xml</dc:format>
    <dc:creator>
     <cc:Agent>
      <dc:title>Matplotlib v3.10.8, https://matplotlib.org/</dc:title>
     </cc:Agent>
    </dc:creator>
   </cc:Work>
  </rdf:RDF>
 </metadata>
 <defs>
  <style type="text/css">*{stroke-linejoin: round; stroke-linecap: butt}</style>
 </defs>
 <g id="figure_1">
  <g id="patch_1">
   <path d="M 0 423.148437 
L 640.079375 423.148437 
L 640.079375 0 
L 0 0 
z
" style="fill: #ffffff"/>
  </g>
  <g id="axes_1">
   <g id="patch_2">
    <path d="M 41.599375 384.94375 
L 632.879375 384.94375 
L 632.879375 7.2 
L 41.599375 7.2 
z
" style="fill: #ffffff"/>
   </g>
   <g id="matplotlib.axis_1">
    <g id="xtick_1">
     <g id="line2d_1">
      <path d="M 68.472766 384.94375 
L 68.472766 7.2 
" clip-path="url(#pbf19a46779)" style="fill: none; stroke-dasharray: 2.96,1.28; stroke-dashoffset: 0; stroke: #b0b0b0; stroke-opacity: 0.6; stroke-width: 0.8"/>
     </g>
     <g id="line2d_2">
      <defs>
       <path id="me8717e6596" d="M 0 0 
L 0 3.5 
" style="stroke: #000000; stroke-width: 0.8"/>
      </defs>
      <g>
       <use xlink:href="#me8717e6596" x="68.472766" y="384.94375" style="stroke: #000000; stroke-width: 0.8"/>
      </g>
     </g>
     <g id="text_1">
      <!-- 0 -->
      <g transform="translate(65.972766 398.8875) scale(0.1 -0.1)">
       <defs>
        <path id="TimesNewRomanPSMT-30" d="M 231 2094 
Q 231 2819 450 3342 
Q 669 3866 1031 4122 
Q 1313 4325 1613 4325 
Q 2100 4325 2488 3828 
Q 2972 3213 2972 2159 
Q 2972 1422 2759 906 
Q 2547 391 2217 158 
Q 1888 -75 1581 -75 
Q 975 -75 572 641 
Q 231 1244 231 2094 
z
M 844 2016 
Q 844 1141 1059 588 
Q 1238 122 1591 122 
Q 1759 122 1940 273 
Q 2122 425 2216 781 
Q 2359 1319 2359 2297 
Q 2359 3022 2209 3506 
Q 2097 3866 1919 4016 
Q 1791 4119 1609 4119 
Q 1397 4119 1231 3928 
Q 1006 3669 925 3112 
Q 844 2556 844 2016 
z
" transform="scale(0.015625)"/>
       </defs>
       <use xlink:href="#TimesNewRomanPSMT-30"/>
      </g>
     </g>
    </g>
    <g id="xtick_2">
     <g id="line2d_3">
      <path d="M 142.795293 384.94375 
L 142.795293 7.2 
" clip-path="url(#pbf19a46779)" style="fill: none; stroke-dasharray: 2.96,1.28; stroke-dashoffset: 0; stroke: #b0b0b0; stroke-opacity: 0.6; stroke-width: 0.8"/>
     </g>
     <g id="line2d_4">
      <g>
       <use xlink:href="#me8717e6596" x="142.795293" y="384.94375" style="stroke: #000000; stroke-width: 0.8"/>
      </g>
     </g>
     <g id="text_2">
      <!-- 250 -->
      <g transform="translate(135.295293 398.8875) scale(0.1 -0.1)">
       <defs>
        <path id="TimesNewRomanPSMT-32" d="M 2934 816 
L 2638 0 
L 138 0 
L 138 116 
Q 1241 1122 1691 1759 
Q 2141 2397 2141 2925 
Q 2141 3328 1894 3587 
Q 1647 3847 1303 3847 
Q 991 3847 742 3664 
Q 494 3481 375 3128 
L 259 3128 
Q 338 3706 661 4015 
Q 984 4325 1469 4325 
Q 1984 4325 2329 3994 
Q 2675 3663 2675 3213 
Q 2675 2891 2525 2569 
Q 2294 2063 1775 1497 
Q 997 647 803 472 
L 1909 472 
Q 2247 472 2383 497 
Q 2519 522 2628 598 
Q 2738 675 2819 816 
L 2934 816 
z
" transform="scale(0.015625)"/>
        <path id="TimesNewRomanPSMT-35" d="M 2778 4238 
L 2534 3706 
L 1259 3706 
L 981 3138 
Q 1809 3016 2294 2522 
Q 2709 2097 2709 1522 
Q 2709 1188 2573 903 
Q 2438 619 2231 419 
Q 2025 219 1772 97 
Q 1413 -75 1034 -75 
Q 653 -75 479 54 
Q 306 184 306 341 
Q 306 428 378 495 
Q 450 563 559 563 
Q 641 563 702 538 
Q 763 513 909 409 
Q 1144 247 1384 247 
Q 1750 247 2026 523 
Q 2303 800 2303 1197 
Q 2303 1581 2056 1914 
Q 1809 2247 1375 2428 
Q 1034 2569 447 2591 
L 1259 4238 
L 2778 4238 
z
" transform="scale(0.015625)"/>
       </defs>
       <use xlink:href="#TimesNewRomanPSMT-32"/>
       <use xlink:href="#TimesNewRomanPSMT-35" transform="translate(50 0)"/>
       <use xlink:href="#TimesNewRomanPSMT-30" transform="translate(100 0)"/>
      </g>
     </g>
    </g>
    <g id="xtick_3">
     <g id="line2d_5">
      <path d="M 217.11782 384.94375 
L 217.11782 7.2 
" clip-path="url(#pbf19a46779)" style="fill: none; stroke-dasharray: 2.96,1.28; stroke-dashoffset: 0; stroke: #b0b0b0; stroke-opacity: 0.6; stroke-width: 0.8"/>
     </g>
     <g id="line2d_6">
      <g>
       <use xlink:href="#me8717e6596" x="217.11782" y="384.94375" style="stroke: #000000; stroke-width: 0.8"/>
      </g>
     </g>
     <g id="text_3">
      <!-- 500 -->
      <g transform="translate(209.61782 398.8875) scale(0.1 -0.1)">
       <use xlink:href="#TimesNewRomanPSMT-35"/>
       <use xlink:href="#TimesNewRomanPSMT-30" transform="translate(50 0)"/>
       <use xlink:href="#TimesNewRomanPSMT-30" transform="translate(100 0)"/>
      </g>
     </g>
    </g>
    <g id="xtick_4">
     <g id="line2d_7">
      <path d="M 291.440347 384.94375 
L 291.440347 7.2 
" clip-path="url(#pbf19a46779)" style="fill: none; stroke-dasharray: 2.96,1.28; stroke-dashoffset: 0; stroke: #b0b0b0; stroke-opacity: 0.6; stroke-width: 0.8"/>
     </g>
     <g id="line2d_8">
      <g>
       <use xlink:href="#me8717e6596" x="291.440347" y="384.94375" style="stroke: #000000; stroke-width: 0.8"/>
      </g>
     </g>
     <g id="text_4">
      <!-- 750 -->
      <g transform="translate(283.940347 398.8875) scale(0.1 -0.1)">
       <defs>
        <path id="TimesNewRomanPSMT-37" d="M 644 4238 
L 2916 4238 
L 2916 4119 
L 1503 -88 
L 1153 -88 
L 2419 3728 
L 1253 3728 
Q 900 3728 750 3644 
Q 488 3500 328 3200 
L 238 3234 
L 644 4238 
z
" transform="scale(0.015625)"/>
       </defs>
       <use xlink:href="#TimesNewRomanPSMT-37"/>
       <use xlink:href="#TimesNewRomanPSMT-35" transform="translate(50 0)"/>
       <use xlink:href="#TimesNewRomanPSMT-30" transform="translate(100 0)"/>
      </g>
     </g>
    </g>
    <g id="xtick_5">
     <g id="line2d_9">
      <path d="M 365.762874 384.94375 
L 365.762874 7.2 
" clip-path="url(#pbf19a46779)" style="fill: none; stroke-dasharray: 2.96,1.28; stroke-dashoffset: 0; stroke: #b0b0b0; stroke-opacity: 0.6; stroke-width: 0.8"/>
     </g>
     <g id="line2d_10">
      <g>
       <use xlink:href="#me8717e6596" x="365.762874" y="384.94375" style="stroke: #000000; stroke-width: 0.8"/>
      </g>
     </g>
     <g id="text_5">
      <!-- 1000 -->
      <g transform="translate(355.762874 398.8875) scale(0.1 -0.1)">
       <defs>
        <path id="TimesNewRomanPSMT-31" d="M 750 3822 
L 1781 4325 
L 1884 4325 
L 1884 747 
Q 1884 391 1914 303 
Q 1944 216 2037 169 
Q 2131 122 2419 116 
L 2419 0 
L 825 0 
L 825 116 
Q 1125 122 1212 167 
Q 1300 213 1334 289 
Q 1369 366 1369 747 
L 1369 3034 
Q 1369 3497 1338 3628 
Q 1316 3728 1258 3775 
Q 1200 3822 1119 3822 
Q 1003 3822 797 3725 
L 750 3822 
z
" transform="scale(0.015625)"/>
       </defs>
       <use xlink:href="#TimesNewRomanPSMT-31"/>
       <use xlink:href="#TimesNewRomanPSMT-30" transform="translate(50 0)"/>
       <use xlink:href="#TimesNewRomanPSMT-30" transform="translate(100 0)"/>
       <use xlink:href="#TimesNewRomanPSMT-30" transform="translate(150 0)"/>
      </g>
     </g>
    </g>
    <g id="xtick_6">
     <g id="line2d_11">
      <path d="M 440.085402 384.94375 
L 440.085402 7.2 
" clip-path="url(#pbf19a46779)" style="fill: none; stroke-dasharray: 2.96,1.28; stroke-dashoffset: 0; stroke: #b0b0b0; stroke-opacity: 0.6; stroke-width: 0.8"/>
     </g>
     <g id="line2d_12">
      <g>
       <use xlink:href="#me8717e6596" x="440.085402" y="384.94375" style="stroke: #000000; stroke-width: 0.8"/>
      </g>
     </g>
     <g id="text_6">
      <!-- 1250 -->
      <g transform="translate(430.085402 398.8875) scale(0.1 -0.1)">
       <use xlink:href="#TimesNewRomanPSMT-31"/>
       <use xlink:href="#TimesNewRomanPSMT-32" transform="translate(50 0)"/>
       <use xlink:href="#TimesNewRomanPSMT-35" transform="translate(100 0)"/>
       <use xlink:href="#TimesNewRomanPSMT-30" transform="translate(150 0)"/>
      </g>
     </g>
    </g>
    <g id="xtick_7">
     <g id="line2d_13">
      <path d="M 514.407929 384.94375 
L 514.407929 7.2 
" clip-path="url(#pbf19a46779)" style="fill: none; stroke-dasharray: 2.96,1.28; stroke-dashoffset: 0; stroke: #b0b0b0; stroke-opacity: 0.6; stroke-width: 0.8"/>
     </g>
     <g id="line2d_14">
      <g>
       <use xlink:href="#me8717e6596" x="514.407929" y="384.94375" style="stroke: #000000; stroke-width: 0.8"/>
      </g>
     </g>
     <g id="text_7">
      <!-- 1500 -->
      <g transform="translate(504.407929 398.8875) scale(0.1 -0.1)">
       <use xlink:href="#TimesNewRomanPSMT-31"/>
       <use xlink:href="#TimesNewRomanPSMT-35" transform="translate(50 0)"/>
       <use xlink:href="#TimesNewRomanPSMT-30" transform="translate(100 0)"/>
       <use xlink:href="#TimesNewRomanPSMT-30" transform="translate(150 0)"/>
      </g>
     </g>
    </g>
    <g id="xtick_8">
     <g id="line2d_15">
      <path d="M 588.730456 384.94375 
L 588.730456 7.2 
" clip-path="url(#pbf19a46779)" style="fill: none; stroke-dasharray: 2.96,1.28; stroke-dashoffset: 0; stroke: #b0b0b0; stroke-opacity: 0.6; stroke-width: 0.8"/>
     </g>
     <g id="line2d_16">
      <g>
       <use xlink:href="#me8717e6596" x="588.730456" y="384.94375" style="stroke: #000000; stroke-width: 0.8"/>
      </g>
     </g>
     <g id="text_8">
      <!-- 1750 -->
      <g transform="translate(578.730456 398.8875) scale(0.1 -0.1)">
       <use xlink:href="#TimesNewRomanPSMT-31"/>
       <use xlink:href="#TimesNewRomanPSMT-37" transform="translate(50 0)"/>
       <use xlink:href="#TimesNewRomanPSMT-35" transform="translate(100 0)"/>
       <use xlink:href="#TimesNewRomanPSMT-30" transform="translate(150 0)"/>
      </g>
     </g>
    </g>
    <g id="text_9">
     <!-- Failure Time (Days) -->
     <g transform="translate(288.57 413.359062) scale(0.12 -0.12)">
      <defs>
       <path id="TimesNewRomanPSMT-46" d="M 1309 4006 
L 1309 2341 
L 2081 2341 
Q 2347 2341 2470 2458 
Q 2594 2575 2634 2922 
L 2750 2922 
L 2750 1488 
L 2634 1488 
Q 2631 1734 2570 1850 
Q 2509 1966 2401 2023 
Q 2294 2081 2081 2081 
L 1309 2081 
L 1309 750 
Q 1309 428 1350 325 
Q 1381 247 1481 191 
Q 1619 116 1769 116 
L 1922 116 
L 1922 0 
L 103 0 
L 103 116 
L 253 116 
Q 516 116 634 269 
Q 709 369 709 750 
L 709 3488 
Q 709 3809 669 3913 
Q 638 3991 541 4047 
Q 406 4122 253 4122 
L 103 4122 
L 103 4238 
L 3256 4238 
L 3297 3306 
L 3188 3306 
Q 3106 3603 2998 3742 
Q 2891 3881 2733 3943 
Q 2575 4006 2244 4006 
L 1309 4006 
z
" transform="scale(0.015625)"/>
       <path id="TimesNewRomanPSMT-61" d="M 1822 413 
Q 1381 72 1269 19 
Q 1100 -59 909 -59 
Q 613 -59 420 144 
Q 228 347 228 678 
Q 228 888 322 1041 
Q 450 1253 767 1440 
Q 1084 1628 1822 1897 
L 1822 2009 
Q 1822 2438 1686 2597 
Q 1550 2756 1291 2756 
Q 1094 2756 978 2650 
Q 859 2544 859 2406 
L 866 2225 
Q 866 2081 792 2003 
Q 719 1925 600 1925 
Q 484 1925 411 2006 
Q 338 2088 338 2228 
Q 338 2497 613 2722 
Q 888 2947 1384 2947 
Q 1766 2947 2009 2819 
Q 2194 2722 2281 2516 
Q 2338 2381 2338 1966 
L 2338 994 
Q 2338 584 2353 492 
Q 2369 400 2405 369 
Q 2441 338 2488 338 
Q 2538 338 2575 359 
Q 2641 400 2828 588 
L 2828 413 
Q 2478 -56 2159 -56 
Q 2006 -56 1915 50 
Q 1825 156 1822 413 
z
M 1822 616 
L 1822 1706 
Q 1350 1519 1213 1441 
Q 966 1303 859 1153 
Q 753 1003 753 825 
Q 753 600 887 451 
Q 1022 303 1197 303 
Q 1434 303 1822 616 
z
" transform="scale(0.015625)"/>
       <path id="TimesNewRomanPSMT-69" d="M 928 4444 
Q 1059 4444 1151 4351 
Q 1244 4259 1244 4128 
Q 1244 3997 1151 3903 
Q 1059 3809 928 3809 
Q 797 3809 703 3903 
Q 609 3997 609 4128 
Q 609 4259 701 4351 
Q 794 4444 928 4444 
z
M 1188 2947 
L 1188 647 
Q 1188 378 1227 289 
Q 1266 200 1342 156 
Q 1419 113 1622 113 
L 1622 0 
L 231 0 
L 231 113 
Q 441 113 512 153 
Q 584 194 626 287 
Q 669 381 669 647 
L 669 1750 
Q 669 2216 641 2353 
Q 619 2453 572 2492 
Q 525 2531 444 2531 
Q 356 2531 231 2484 
L 188 2597 
L 1050 2947 
L 1188 2947 
z
" transform="scale(0.015625)"/>
       <path id="TimesNewRomanPSMT-6c" d="M 1184 4444 
L 1184 647 
Q 1184 378 1223 290 
Q 1263 203 1344 158 
Q 1425 113 1647 113 
L 1647 0 
L 244 0 
L 244 113 
Q 441 113 512 153 
Q 584 194 625 287 
Q 666 381 666 647 
L 666 3247 
Q 666 3731 644 3842 
Q 622 3953 573 3993 
Q 525 4034 450 4034 
Q 369 4034 244 3984 
L 191 4094 
L 1044 4444 
L 1184 4444 
z
" transform="scale(0.015625)"/>
       <path id="TimesNewRomanPSMT-75" d="M 2709 2863 
L 2709 1128 
Q 2709 631 2732 520 
Q 2756 409 2807 365 
Q 2859 322 2928 322 
Q 3025 322 3147 375 
L 3191 266 
L 2334 -88 
L 2194 -88 
L 2194 519 
Q 1825 119 1631 15 
Q 1438 -88 1222 -88 
Q 981 -88 804 51 
Q 628 191 559 409 
Q 491 628 491 1028 
L 491 2306 
Q 491 2509 447 2587 
Q 403 2666 317 2708 
Q 231 2750 6 2747 
L 6 2863 
L 1009 2863 
L 1009 947 
Q 1009 547 1148 422 
Q 1288 297 1484 297 
Q 1619 297 1789 381 
Q 1959 466 2194 703 
L 2194 2325 
Q 2194 2569 2105 2655 
Q 2016 2741 1734 2747 
L 1734 2863 
L 2709 2863 
z
" transform="scale(0.015625)"/>
       <path id="TimesNewRomanPSMT-72" d="M 1038 2947 
L 1038 2303 
Q 1397 2947 1775 2947 
Q 1947 2947 2059 2842 
Q 2172 2738 2172 2600 
Q 2172 2478 2090 2393 
Q 2009 2309 1897 2309 
Q 1788 2309 1652 2417 
Q 1516 2525 1450 2525 
Q 1394 2525 1328 2463 
Q 1188 2334 1038 2041 
L 1038 669 
Q 1038 431 1097 309 
Q 1138 225 1241 169 
Q 1344 113 1538 113 
L 1538 0 
L 72 0 
L 72 113 
Q 291 113 397 181 
Q 475 231 506 341 
Q 522 394 522 644 
L 522 1753 
Q 522 2253 501 2348 
Q 481 2444 426 2487 
Q 372 2531 291 2531 
Q 194 2531 72 2484 
L 41 2597 
L 906 2947 
L 1038 2947 
z
" transform="scale(0.015625)"/>
       <path id="TimesNewRomanPSMT-65" d="M 681 1784 
Q 678 1147 991 784 
Q 1303 422 1725 422 
Q 2006 422 2214 576 
Q 2422 731 2563 1106 
L 2659 1044 
Q 2594 616 2278 264 
Q 1963 -88 1488 -88 
Q 972 -88 605 314 
Q 238 716 238 1394 
Q 238 2128 614 2539 
Q 991 2950 1559 2950 
Q 2041 2950 2350 2633 
Q 2659 2316 2659 1784 
L 681 1784 
z
M 681 1966 
L 2006 1966 
Q 1991 2241 1941 2353 
Q 1863 2528 1708 2628 
Q 1553 2728 1384 2728 
Q 1125 2728 920 2526 
Q 716 2325 681 1966 
z
" transform="scale(0.015625)"/>
       <path id="TimesNewRomanPSMT-20" transform="scale(0.015625)"/>
       <path id="TimesNewRomanPSMT-54" d="M 3703 4238 
L 3750 3244 
L 3631 3244 
Q 3597 3506 3538 3619 
Q 3441 3800 3280 3886 
Q 3119 3972 2856 3972 
L 2259 3972 
L 2259 734 
Q 2259 344 2344 247 
Q 2463 116 2709 116 
L 2856 116 
L 2856 0 
L 1059 0 
L 1059 116 
L 1209 116 
Q 1478 116 1591 278 
Q 1659 378 1659 734 
L 1659 3972 
L 1150 3972 
Q 853 3972 728 3928 
Q 566 3869 450 3700 
Q 334 3531 313 3244 
L 194 3244 
L 244 4238 
L 3703 4238 
z
" transform="scale(0.015625)"/>
       <path id="TimesNewRomanPSMT-6d" d="M 1050 2338 
Q 1363 2650 1419 2697 
Q 1559 2816 1721 2881 
Q 1884 2947 2044 2947 
Q 2313 2947 2506 2790 
Q 2700 2634 2766 2338 
Q 3088 2713 3309 2830 
Q 3531 2947 3766 2947 
Q 3994 2947 4170 2830 
Q 4347 2713 4450 2447 
Q 4519 2266 4519 1878 
L 4519 647 
Q 4519 378 4559 278 
Q 4591 209 4675 161 
Q 4759 113 4950 113 
L 4950 0 
L 3538 0 
L 3538 113 
L 3597 113 
Q 3781 113 3884 184 
Q 3956 234 3988 344 
Q 4000 397 4000 647 
L 4000 1878 
Q 4000 2228 3916 2372 
Q 3794 2572 3525 2572 
Q 3359 2572 3192 2489 
Q 3025 2406 2788 2181 
L 2781 2147 
L 2788 2013 
L 2788 647 
Q 2788 353 2820 281 
Q 2853 209 2943 161 
Q 3034 113 3253 113 
L 3253 0 
L 1806 0 
L 1806 113 
Q 2044 113 2133 169 
Q 2222 225 2256 338 
Q 2272 391 2272 647 
L 2272 1878 
Q 2272 2228 2169 2381 
Q 2031 2581 1784 2581 
Q 1616 2581 1450 2491 
Q 1191 2353 1050 2181 
L 1050 647 
Q 1050 366 1089 281 
Q 1128 197 1204 155 
Q 1281 113 1516 113 
L 1516 0 
L 100 0 
L 100 113 
Q 297 113 375 155 
Q 453 197 493 289 
Q 534 381 534 647 
L 534 1741 
Q 534 2213 506 2350 
Q 484 2453 437 2492 
Q 391 2531 309 2531 
Q 222 2531 100 2484 
L 53 2597 
L 916 2947 
L 1050 2947 
L 1050 2338 
z
" transform="scale(0.015625)"/>
       <path id="TimesNewRomanPSMT-28" d="M 1988 -1253 
L 1988 -1369 
Q 1516 -1131 1200 -813 
Q 750 -359 506 256 
Q 263 872 263 1534 
Q 263 2503 741 3301 
Q 1219 4100 1988 4444 
L 1988 4313 
Q 1603 4100 1356 3731 
Q 1109 3363 987 2797 
Q 866 2231 866 1616 
Q 866 947 969 400 
Q 1050 -31 1165 -292 
Q 1281 -553 1476 -793 
Q 1672 -1034 1988 -1253 
z
" transform="scale(0.015625)"/>
       <path id="TimesNewRomanPSMT-44" d="M 109 0 
L 109 116 
L 269 116 
Q 538 116 650 288 
Q 719 391 719 750 
L 719 3488 
Q 719 3884 631 3984 
Q 509 4122 269 4122 
L 109 4122 
L 109 4238 
L 1834 4238 
Q 2784 4238 3279 4022 
Q 3775 3806 4076 3303 
Q 4378 2800 4378 2141 
Q 4378 1256 3841 663 
Q 3238 0 2003 0 
L 109 0 
z
M 1319 306 
Q 1716 219 1984 219 
Q 2709 219 3187 728 
Q 3666 1238 3666 2109 
Q 3666 2988 3187 3494 
Q 2709 4000 1959 4000 
Q 1678 4000 1319 3909 
L 1319 306 
z
" transform="scale(0.015625)"/>
       <path id="TimesNewRomanPSMT-79" d="M 38 2863 
L 1372 2863 
L 1372 2747 
L 1306 2747 
Q 1166 2747 1095 2686 
Q 1025 2625 1025 2534 
Q 1025 2413 1128 2197 
L 1825 753 
L 2466 2334 
Q 2519 2463 2519 2588 
Q 2519 2644 2497 2672 
Q 2472 2706 2419 2726 
Q 2366 2747 2231 2747 
L 2231 2863 
L 3163 2863 
L 3163 2747 
Q 3047 2734 2984 2696 
Q 2922 2659 2847 2556 
Q 2819 2513 2741 2316 
L 1575 -541 
Q 1406 -956 1132 -1168 
Q 859 -1381 606 -1381 
Q 422 -1381 303 -1275 
Q 184 -1169 184 -1031 
Q 184 -900 270 -820 
Q 356 -741 506 -741 
Q 609 -741 788 -809 
Q 913 -856 944 -856 
Q 1038 -856 1148 -759 
Q 1259 -663 1372 -384 
L 1575 113 
L 547 2272 
Q 500 2369 397 2513 
Q 319 2622 269 2659 
Q 197 2709 38 2747 
L 38 2863 
z
" transform="scale(0.015625)"/>
       <path id="TimesNewRomanPSMT-73" d="M 2050 2947 
L 2050 1972 
L 1947 1972 
Q 1828 2431 1642 2597 
Q 1456 2763 1169 2763 
Q 950 2763 815 2647 
Q 681 2531 681 2391 
Q 681 2216 781 2091 
Q 878 1963 1175 1819 
L 1631 1597 
Q 2266 1288 2266 781 
Q 2266 391 1970 151 
Q 1675 -88 1309 -88 
Q 1047 -88 709 6 
Q 606 38 541 38 
Q 469 38 428 -44 
L 325 -44 
L 325 978 
L 428 978 
Q 516 541 762 319 
Q 1009 97 1316 97 
Q 1531 97 1667 223 
Q 1803 350 1803 528 
Q 1803 744 1651 891 
Q 1500 1038 1047 1263 
Q 594 1488 453 1669 
Q 313 1847 313 2119 
Q 313 2472 555 2709 
Q 797 2947 1181 2947 
Q 1350 2947 1591 2875 
Q 1750 2828 1803 2828 
Q 1853 2828 1881 2850 
Q 1909 2872 1947 2947 
L 2050 2947 
z
" transform="scale(0.015625)"/>
       <path id="TimesNewRomanPSMT-29" d="M 144 4313 
L 144 4444 
Q 619 4209 934 3891 
Q 1381 3434 1625 2820 
Q 1869 2206 1869 1541 
Q 1869 572 1392 -226 
Q 916 -1025 144 -1369 
L 144 -1253 
Q 528 -1038 776 -670 
Q 1025 -303 1145 264 
Q 1266 831 1266 1447 
Q 1266 2113 1163 2663 
Q 1084 3094 967 3353 
Q 850 3613 656 3853 
Q 463 4094 144 4313 
z
" transform="scale(0.015625)"/>
      </defs>
      <use xlink:href="#TimesNewRomanPSMT-46"/>
      <use xlink:href="#TimesNewRomanPSMT-61" transform="translate(55.615234 0)"/>
      <use xlink:href="#TimesNewRomanPSMT-69" transform="translate(100 0)"/>
      <use xlink:href="#TimesNewRomanPSMT-6c" transform="translate(127.783203 0)"/>
      <use xlink:href="#TimesNewRomanPSMT-75" transform="translate(155.566406 0)"/>
      <use xlink:href="#TimesNewRomanPSMT-72" transform="translate(205.566406 0)"/>
      <use xlink:href="#TimesNewRomanPSMT-65" transform="translate(238.867188 0)"/>
      <use xlink:href="#TimesNewRomanPSMT-20" transform="translate(283.251953 0)"/>
      <use xlink:href="#TimesNewRomanPSMT-54" transform="translate(306.501953 0)"/>
      <use xlink:href="#TimesNewRomanPSMT-69" transform="translate(364.085938 0)"/>
      <use xlink:href="#TimesNewRomanPSMT-6d" transform="translate(391.869141 0)"/>
      <use xlink:href="#TimesNewRomanPSMT-65" transform="translate(469.652344 0)"/>
      <use xlink:href="#TimesNewRomanPSMT-20" transform="translate(514.037109 0)"/>
      <use xlink:href="#TimesNewRomanPSMT-28" transform="translate(539.037109 0)"/>
      <use xlink:href="#TimesNewRomanPSMT-44" transform="translate(572.337891 0)"/>
      <use xlink:href="#TimesNewRomanPSMT-61" transform="translate(644.554688 0)"/>
      <use xlink:href="#TimesNewRomanPSMT-79" transform="translate(688.939453 0)"/>
      <use xlink:href="#TimesNewRomanPSMT-73" transform="translate(738.939453 0)"/>
      <use xlink:href="#TimesNewRomanPSMT-29" transform="translate(777.855469 0)"/>
     </g>
    </g>
   </g>
   <g id="matplotlib.axis_2">
    <g id="ytick_1">
     <g id="line2d_17">
      <path d="M 41.599375 367.77358 
L 632.879375 367.77358 
" clip-path="url(#pbf19a46779)" style="fill: none; stroke-dasharray: 2.96,1.28; stroke-dashoffset: 0; stroke: #b0b0b0; stroke-opacity: 0.6; stroke-width: 0.8"/>
     </g>
     <g id="line2d_18">
      <defs>
       <path id="m5cce03c0b4" d="M 0 0 
L -3.5 0 
" style="stroke: #000000; stroke-width: 0.8"/>
      </defs>
      <g>
       <use xlink:href="#m5cce03c0b4" x="41.599375" y="367.77358" style="stroke: #000000; stroke-width: 0.8"/>
      </g>
     </g>
     <g id="text_10">
      <!-- 0.0 -->
      <g transform="translate(22.099375 371.245455) scale(0.1 -0.1)">
       <defs>
        <path id="TimesNewRomanPSMT-2e" d="M 800 606 
Q 947 606 1047 504 
Q 1147 403 1147 259 
Q 1147 116 1045 14 
Q 944 -88 800 -88 
Q 656 -88 554 14 
Q 453 116 453 259 
Q 453 406 554 506 
Q 656 606 800 606 
z
" transform="scale(0.015625)"/>
       </defs>
       <use xlink:href="#TimesNewRomanPSMT-30"/>
       <use xlink:href="#TimesNewRomanPSMT-2e" transform="translate(50 0)"/>
       <use xlink:href="#TimesNewRomanPSMT-30" transform="translate(75 0)"/>
      </g>
     </g>
    </g>
    <g id="ytick_2">
     <g id="line2d_19">
      <path d="M 41.599375 299.092898 
L 632.879375 299.092898 
" clip-path="url(#pbf19a46779)" style="fill: none; stroke-dasharray: 2.96,1.28; stroke-dashoffset: 0; stroke: #b0b0b0; stroke-opacity: 0.6; stroke-width: 0.8"/>
     </g>
     <g id="line2d_20">
      <g>
       <use xlink:href="#m5cce03c0b4" x="41.599375" y="299.092898" style="stroke: #000000; stroke-width: 0.8"/>
      </g>
     </g>
     <g id="text_11">
      <!-- 0.2 -->
      <g transform="translate(22.099375 302.564773) scale(0.1 -0.1)">
       <use xlink:href="#TimesNewRomanPSMT-30"/>
       <use xlink:href="#TimesNewRomanPSMT-2e" transform="translate(50 0)"/>
       <use xlink:href="#TimesNewRomanPSMT-32" transform="translate(75 0)"/>
      </g>
     </g>
    </g>
    <g id="ytick_3">
     <g id="line2d_21">
      <path d="M 41.599375 230.412216 
L 632.879375 230.412216 
" clip-path="url(#pbf19a46779)" style="fill: none; stroke-dasharray: 2.96,1.28; stroke-dashoffset: 0; stroke: #b0b0b0; stroke-opacity: 0.6; stroke-width: 0.8"/>
     </g>
     <g id="line2d_22">
      <g>
       <use xlink:href="#m5cce03c0b4" x="41.599375" y="230.412216" style="stroke: #000000; stroke-width: 0.8"/>
      </g>
     </g>
     <g id="text_12">
      <!-- 0.4 -->
      <g transform="translate(22.099375 233.884091) scale(0.1 -0.1)">
       <defs>
        <path id="TimesNewRomanPSMT-34" d="M 2978 1563 
L 2978 1119 
L 2409 1119 
L 2409 0 
L 1894 0 
L 1894 1119 
L 100 1119 
L 100 1519 
L 2066 4325 
L 2409 4325 
L 2409 1563 
L 2978 1563 
z
M 1894 1563 
L 1894 3666 
L 406 1563 
L 1894 1563 
z
" transform="scale(0.015625)"/>
       </defs>
       <use xlink:href="#TimesNewRomanPSMT-30"/>
       <use xlink:href="#TimesNewRomanPSMT-2e" transform="translate(50 0)"/>
       <use xlink:href="#TimesNewRomanPSMT-34" transform="translate(75 0)"/>
      </g>
     </g>
    </g>
    <g id="ytick_4">
     <g id="line2d_23">
      <path d="M 41.599375 161.731534 
L 632.879375 161.731534 
" clip-path="url(#pbf19a46779)" style="fill: none; stroke-dasharray: 2.96,1.28; stroke-dashoffset: 0; stroke: #b0b0b0; stroke-opacity: 0.6; stroke-width: 0.8"/>
     </g>
     <g id="line2d_24">
      <g>
       <use xlink:href="#m5cce03c0b4" x="41.599375" y="161.731534" style="stroke: #000000; stroke-width: 0.8"/>
      </g>
     </g>
     <g id="text_13">
      <!-- 0.6 -->
      <g transform="translate(22.099375 165.203409) scale(0.1 -0.1)">
       <defs>
        <path id="TimesNewRomanPSMT-36" d="M 2869 4325 
L 2869 4209 
Q 2456 4169 2195 4045 
Q 1934 3922 1679 3669 
Q 1425 3416 1258 3105 
Q 1091 2794 978 2366 
Q 1428 2675 1881 2675 
Q 2316 2675 2634 2325 
Q 2953 1975 2953 1425 
Q 2953 894 2631 456 
Q 2244 -75 1606 -75 
Q 1172 -75 869 213 
Q 275 772 275 1663 
Q 275 2231 503 2743 
Q 731 3256 1154 3653 
Q 1578 4050 1965 4187 
Q 2353 4325 2688 4325 
L 2869 4325 
z
M 925 2138 
Q 869 1716 869 1456 
Q 869 1156 980 804 
Q 1091 453 1309 247 
Q 1469 100 1697 100 
Q 1969 100 2183 356 
Q 2397 613 2397 1088 
Q 2397 1622 2184 2012 
Q 1972 2403 1581 2403 
Q 1463 2403 1327 2353 
Q 1191 2303 925 2138 
z
" transform="scale(0.015625)"/>
       </defs>
       <use xlink:href="#TimesNewRomanPSMT-30"/>
       <use xlink:href="#TimesNewRomanPSMT-2e" transform="translate(50 0)"/>
       <use xlink:href="#TimesNewRomanPSMT-36" transform="translate(75 0)"/>
      </g>
     </g>
    </g>
    <g id="ytick_5">
     <g id="line2d_25">
      <path d="M 41.599375 93.050852 
L 632.879375 93.050852 
" clip-path="url(#pbf19a46779)" style="fill: none; stroke-dasharray: 2.96,1.28; stroke-dashoffset: 0; stroke: #b0b0b0; stroke-opacity: 0.6; stroke-width: 0.8"/>
     </g>
     <g id="line2d_26">
      <g>
       <use xlink:href="#m5cce03c0b4" x="41.599375" y="93.050852" style="stroke: #000000; stroke-width: 0.8"/>
      </g>
     </g>
     <g id="text_14">
      <!-- 0.8 -->
      <g transform="translate(22.099375 96.522727) scale(0.1 -0.1)">
       <defs>
        <path id="TimesNewRomanPSMT-38" d="M 1228 2134 
Q 725 2547 579 2797 
Q 434 3047 434 3316 
Q 434 3728 753 4026 
Q 1072 4325 1600 4325 
Q 2113 4325 2425 4047 
Q 2738 3769 2738 3413 
Q 2738 3175 2569 2928 
Q 2400 2681 1866 2347 
Q 2416 1922 2594 1678 
Q 2831 1359 2831 1006 
Q 2831 559 2490 242 
Q 2150 -75 1597 -75 
Q 994 -75 656 303 
Q 388 606 388 966 
Q 388 1247 577 1523 
Q 766 1800 1228 2134 
z
M 1719 2469 
Q 2094 2806 2194 3001 
Q 2294 3197 2294 3444 
Q 2294 3772 2109 3958 
Q 1925 4144 1606 4144 
Q 1288 4144 1088 3959 
Q 888 3775 888 3528 
Q 888 3366 970 3203 
Q 1053 3041 1206 2894 
L 1719 2469 
z
M 1375 2016 
Q 1116 1797 991 1539 
Q 866 1281 866 981 
Q 866 578 1086 336 
Q 1306 94 1647 94 
Q 1984 94 2187 284 
Q 2391 475 2391 747 
Q 2391 972 2272 1150 
Q 2050 1481 1375 2016 
z
" transform="scale(0.015625)"/>
       </defs>
       <use xlink:href="#TimesNewRomanPSMT-30"/>
       <use xlink:href="#TimesNewRomanPSMT-2e" transform="translate(50 0)"/>
       <use xlink:href="#TimesNewRomanPSMT-38" transform="translate(75 0)"/>
      </g>
     </g>
    </g>
    <g id="ytick_6">
     <g id="line2d_27">
      <path d="M 41.599375 24.37017 
L 632.879375 24.37017 
" clip-path="url(#pbf19a46779)" style="fill: none; stroke-dasharray: 2.96,1.28; stroke-dashoffset: 0; stroke: #b0b0b0; stroke-opacity: 0.6; stroke-width: 0.8"/>
     </g>
     <g id="line2d_28">
      <g>
       <use xlink:href="#m5cce03c0b4" x="41.599375" y="24.37017" style="stroke: #000000; stroke-width: 0.8"/>
      </g>
     </g>
     <g id="text_15">
      <!-- 1.0 -->
      <g transform="translate(22.099375 27.842045) scale(0.1 -0.1)">
       <use xlink:href="#TimesNewRomanPSMT-31"/>
       <use xlink:href="#TimesNewRomanPSMT-2e" transform="translate(50 0)"/>
       <use xlink:href="#TimesNewRomanPSMT-30" transform="translate(75 0)"/>
      </g>
     </g>
    </g>
    <g id="text_16">
     <!-- Cumulative Distribution F(t) -->
     <g transform="translate(15.5325 265.068125) rotate(-90) scale(0.12 -0.12)">
      <defs>
       <path id="TimesNewRomanPSMT-43" d="M 3853 4334 
L 3950 2894 
L 3853 2894 
Q 3659 3541 3300 3825 
Q 2941 4109 2438 4109 
Q 2016 4109 1675 3895 
Q 1334 3681 1139 3212 
Q 944 2744 944 2047 
Q 944 1472 1128 1050 
Q 1313 628 1683 403 
Q 2053 178 2528 178 
Q 2941 178 3256 354 
Q 3572 531 3950 1056 
L 4047 994 
Q 3728 428 3303 165 
Q 2878 -97 2294 -97 
Q 1241 -97 663 684 
Q 231 1266 231 2053 
Q 231 2688 515 3219 
Q 800 3750 1298 4042 
Q 1797 4334 2388 4334 
Q 2847 4334 3294 4109 
Q 3425 4041 3481 4041 
Q 3566 4041 3628 4100 
Q 3709 4184 3744 4334 
L 3853 4334 
z
" transform="scale(0.015625)"/>
       <path id="TimesNewRomanPSMT-74" d="M 1031 3803 
L 1031 2863 
L 1700 2863 
L 1700 2644 
L 1031 2644 
L 1031 788 
Q 1031 509 1111 412 
Q 1191 316 1316 316 
Q 1419 316 1516 380 
Q 1613 444 1666 569 
L 1788 569 
Q 1678 263 1478 108 
Q 1278 -47 1066 -47 
Q 922 -47 784 33 
Q 647 113 581 261 
Q 516 409 516 719 
L 516 2644 
L 63 2644 
L 63 2747 
Q 234 2816 414 2980 
Q 594 3144 734 3369 
Q 806 3488 934 3803 
L 1031 3803 
z
" transform="scale(0.015625)"/>
       <path id="TimesNewRomanPSMT-76" d="M 53 2863 
L 1400 2863 
L 1400 2747 
L 1313 2747 
Q 1191 2747 1127 2687 
Q 1063 2628 1063 2528 
Q 1063 2419 1128 2269 
L 1794 688 
L 2463 2328 
Q 2534 2503 2534 2594 
Q 2534 2638 2509 2666 
Q 2475 2713 2422 2730 
Q 2369 2747 2206 2747 
L 2206 2863 
L 3141 2863 
L 3141 2747 
Q 2978 2734 2916 2681 
Q 2806 2588 2719 2369 
L 1703 -88 
L 1575 -88 
L 553 2328 
Q 484 2497 421 2570 
Q 359 2644 263 2694 
Q 209 2722 53 2747 
L 53 2863 
z
" transform="scale(0.015625)"/>
       <path id="TimesNewRomanPSMT-62" d="M 984 2369 
Q 1400 2947 1881 2947 
Q 2322 2947 2650 2570 
Q 2978 2194 2978 1541 
Q 2978 778 2472 313 
Q 2038 -88 1503 -88 
Q 1253 -88 995 3 
Q 738 94 469 275 
L 469 3241 
Q 469 3728 445 3840 
Q 422 3953 372 3993 
Q 322 4034 247 4034 
Q 159 4034 28 3984 
L -16 4094 
L 844 4444 
L 984 4444 
L 984 2369 
z
M 984 2169 
L 984 456 
Q 1144 300 1314 220 
Q 1484 141 1663 141 
Q 1947 141 2192 453 
Q 2438 766 2438 1363 
Q 2438 1913 2192 2208 
Q 1947 2503 1634 2503 
Q 1469 2503 1303 2419 
Q 1178 2356 984 2169 
z
" transform="scale(0.015625)"/>
       <path id="TimesNewRomanPSMT-6f" d="M 1600 2947 
Q 2250 2947 2644 2453 
Q 2978 2031 2978 1484 
Q 2978 1100 2793 706 
Q 2609 313 2286 112 
Q 1963 -88 1566 -88 
Q 919 -88 538 428 
Q 216 863 216 1403 
Q 216 1797 411 2186 
Q 606 2575 925 2761 
Q 1244 2947 1600 2947 
z
M 1503 2744 
Q 1338 2744 1170 2645 
Q 1003 2547 900 2300 
Q 797 2053 797 1666 
Q 797 1041 1045 587 
Q 1294 134 1700 134 
Q 2003 134 2200 384 
Q 2397 634 2397 1244 
Q 2397 2006 2069 2444 
Q 1847 2744 1503 2744 
z
" transform="scale(0.015625)"/>
       <path id="TimesNewRomanPSMT-6e" d="M 1034 2341 
Q 1538 2947 1994 2947 
Q 2228 2947 2397 2830 
Q 2566 2713 2666 2444 
Q 2734 2256 2734 1869 
L 2734 647 
Q 2734 375 2778 278 
Q 2813 200 2889 156 
Q 2966 113 3172 113 
L 3172 0 
L 1756 0 
L 1756 113 
L 1816 113 
Q 2016 113 2095 173 
Q 2175 234 2206 353 
Q 2219 400 2219 647 
L 2219 1819 
Q 2219 2209 2117 2386 
Q 2016 2563 1775 2563 
Q 1403 2563 1034 2156 
L 1034 647 
Q 1034 356 1069 288 
Q 1113 197 1189 155 
Q 1266 113 1500 113 
L 1500 0 
L 84 0 
L 84 113 
L 147 113 
Q 366 113 442 223 
Q 519 334 519 647 
L 519 1709 
Q 519 2225 495 2337 
Q 472 2450 423 2490 
Q 375 2531 294 2531 
Q 206 2531 84 2484 
L 38 2597 
L 900 2947 
L 1034 2947 
L 1034 2341 
z
" transform="scale(0.015625)"/>
      </defs>
      <use xlink:href="#TimesNewRomanPSMT-43"/>
      <use xlink:href="#TimesNewRomanPSMT-75" transform="translate(66.699219 0)"/>
      <use xlink:href="#TimesNewRomanPSMT-6d" transform="translate(116.699219 0)"/>
      <use xlink:href="#TimesNewRomanPSMT-75" transform="translate(194.482422 0)"/>
      <use xlink:href="#TimesNewRomanPSMT-6c" transform="translate(244.482422 0)"/>
      <use xlink:href="#TimesNewRomanPSMT-61" transform="translate(272.265625 0)"/>
      <use xlink:href="#TimesNewRomanPSMT-74" transform="translate(316.650391 0)"/>
      <use xlink:href="#TimesNewRomanPSMT-69" transform="translate(344.433594 0)"/>
      <use xlink:href="#TimesNewRomanPSMT-76" transform="translate(372.216797 0)"/>
      <use xlink:href="#TimesNewRomanPSMT-65" transform="translate(422.216797 0)"/>
      <use xlink:href="#TimesNewRomanPSMT-20" transform="translate(466.601562 0)"/>
      <use xlink:href="#TimesNewRomanPSMT-44" transform="translate(491.601562 0)"/>
      <use xlink:href="#TimesNewRomanPSMT-69" transform="translate(563.818359 0)"/>
      <use xlink:href="#TimesNewRomanPSMT-73" transform="translate(591.601562 0)"/>
      <use xlink:href="#TimesNewRomanPSMT-74" transform="translate(630.517578 0)"/>
      <use xlink:href="#TimesNewRomanPSMT-72" transform="translate(658.300781 0)"/>
      <use xlink:href="#TimesNewRomanPSMT-69" transform="translate(691.601562 0)"/>
      <use xlink:href="#TimesNewRomanPSMT-62" transform="translate(719.384766 0)"/>
      <use xlink:href="#TimesNewRomanPSMT-75" transform="translate(769.384766 0)"/>
      <use xlink:href="#TimesNewRomanPSMT-74" transform="translate(819.384766 0)"/>
      <use xlink:href="#TimesNewRomanPSMT-69" transform="translate(847.167969 0)"/>
      <use xlink:href="#TimesNewRomanPSMT-6f" transform="translate(874.951172 0)"/>
      <use xlink:href="#TimesNewRomanPSMT-6e" transform="translate(924.951172 0)"/>
      <use xlink:href="#TimesNewRomanPSMT-20" transform="translate(974.951172 0)"/>
      <use xlink:href="#TimesNewRomanPSMT-46" transform="translate(999.951172 0)"/>
      <use xlink:href="#TimesNewRomanPSMT-28" transform="translate(1055.566406 0)"/>
      <use xlink:href="#TimesNewRomanPSMT-74" transform="translate(1088.867188 0)"/>
      <use xlink:href="#TimesNewRomanPSMT-29" transform="translate(1116.650391 0)"/>
     </g>
    </g>
   </g>
   <g id="line2d_29">
    <path d="M 68.475739 367.750056 
L 71.707366 343.109001 
L 74.938992 320.236197 
L 78.170619 299.004752 
L 81.402246 279.296883 
L 84.633873 261.003258 
L 87.8655 244.022389 
L 91.097127 228.260072 
L 94.328754 213.628865 
L 97.560381 200.047598 
L 100.792008 187.440928 
L 104.023634 175.738916 
L 107.255261 164.876645 
L 110.486888 154.793853 
L 113.718515 145.434606 
L 116.950142 136.746982 
L 120.181769 128.682785 
L 123.413396 121.197277 
L 126.645023 114.248932 
L 129.87665 107.799202 
L 133.108276 101.812307 
L 136.339903 96.255033 
L 139.57153 91.096552 
L 142.803157 86.308244 
L 146.034784 81.863548 
L 149.266411 77.737804 
L 152.498038 73.908125 
L 155.729665 70.353265 
L 158.961292 67.053502 
L 163.270127 63.01919 
L 167.578963 59.366189 
L 171.887799 56.058461 
L 176.196635 53.06337 
L 180.505471 50.351366 
L 184.814307 47.895694 
L 189.123143 45.672126 
L 193.431978 43.658723 
L 198.818023 41.407434 
L 204.204068 39.418907 
L 209.590113 37.662474 
L 216.053367 35.823203 
L 222.51662 34.238434 
L 228.979874 32.872951 
L 236.520337 31.5168 
L 244.0608 30.376948 
L 252.678471 29.295121 
L 262.373352 28.309137 
L 273.145442 27.443313 
L 284.99474 26.709025 
L 298.998457 26.063976 
L 316.2338 25.508805 
L 336.700771 25.080672 
L 363.630995 24.752173 
L 401.333308 24.530409 
L 464.888637 24.407217 
L 606.003011 24.371605 
L 606.003011 24.371605 
" clip-path="url(#pbf19a46779)" style="fill: none; stroke: #1f77b4; stroke-width: 1.5; stroke-linecap: square"/>
   </g>
   <g id="line2d_30">
    <path d="M 68.475739 314.899502 
L 71.707366 308.474415 
L 74.938992 301.572341 
L 78.170619 294.200471 
L 81.402246 286.372065 
L 85.711082 275.258613 
L 90.019918 263.432342 
L 94.328754 250.975742 
L 99.714799 234.672537 
L 106.178052 214.339955 
L 125.567814 152.733111 
L 130.953859 136.644885 
L 135.262694 124.403176 
L 139.57153 112.823425 
L 143.880366 101.981425 
L 147.111993 94.368755 
L 150.34362 87.219717 
L 153.575247 80.544648 
L 156.806874 74.347933 
L 160.038501 68.628344 
L 163.270127 63.379475 
L 166.501754 58.590261 
L 169.733381 54.245557 
L 172.965008 50.32675 
L 176.196635 46.8124 
L 179.428262 43.67887 
L 182.659889 40.900948 
L 185.891516 38.452426 
L 189.123143 36.306644 
L 192.354769 34.436976 
L 195.586396 32.817251 
L 198.818023 31.422118 
L 202.04965 30.22734 
L 206.358486 28.906611 
L 210.667322 27.85151 
L 214.976158 27.017201 
L 220.362202 26.225161 
L 225.748247 25.651245 
L 232.211501 25.175962 
L 240.829173 24.790273 
L 251.601262 24.546558 
L 268.836606 24.408997 
L 311.924964 24.370617 
L 606.003011 24.37017 
L 606.003011 24.37017 
" clip-path="url(#pbf19a46779)" style="fill: none; stroke: #ff7f0e; stroke-width: 1.5; stroke-linecap: square"/>
   </g>
   <g id="line2d_31">
    <path d="M 68.475739 367.750905 
L 71.707366 343.935289 
L 74.938992 321.710784 
L 78.170619 300.975474 
L 81.402246 281.633665 
L 84.633873 263.59552 
L 87.8655 246.77673 
L 91.097127 231.098181 
L 94.328754 216.485663 
L 97.560381 202.86957 
L 100.792008 190.184641 
L 104.023634 178.369694 
L 107.255261 167.36739 
L 110.486888 157.124 
L 113.718515 147.589192 
L 116.950142 138.715828 
L 120.181769 130.459768 
L 123.413396 122.779691 
L 126.645023 115.636925 
L 129.87665 108.995284 
L 133.108276 102.820914 
L 136.339903 97.082155 
L 139.57153 91.749401 
L 142.803157 86.794977 
L 146.034784 82.193015 
L 149.266411 77.919345 
L 152.498038 73.951386 
L 155.729665 70.268048 
L 158.961292 66.849639 
L 162.192918 63.677774 
L 166.501754 59.802643 
L 170.81059 56.297906 
L 175.119426 53.129351 
L 179.428262 50.265807 
L 183.737098 47.678886 
L 188.045934 45.342744 
L 192.354769 43.233863 
L 196.663605 41.330852 
L 202.04965 39.212128 
L 207.435695 37.350671 
L 212.82174 35.716202 
L 219.284994 34.016898 
L 225.748247 32.565363 
L 232.211501 31.32652 
L 239.751964 30.109873 
L 248.369636 28.971408 
L 256.987307 28.053366 
L 266.682188 27.232596 
L 278.531486 26.46824 
L 291.457994 25.860456 
L 307.616129 25.337487 
L 327.00589 24.94214 
L 352.858905 24.650776 
L 390.561219 24.467173 
L 461.65701 24.382294 
L 606.003011 24.370301 
L 606.003011 24.370301 
" clip-path="url(#pbf19a46779)" style="fill: none; stroke: #2ca02c; stroke-width: 1.5; stroke-linecap: square"/>
   </g>
   <g id="line2d_32">
    <path d="M 68.475739 367.77358 
L 69.552948 367.513891 
L 70.630157 365.638362 
L 71.707366 361.72394 
L 72.784574 356.126588 
L 73.861783 349.304769 
L 76.016201 333.470778 
L 83.556664 274.538918 
L 86.788291 251.8997 
L 88.942709 238.046002 
L 91.097127 225.170456 
L 93.251545 213.228902 
L 95.405963 202.164218 
L 97.560381 191.914328 
L 99.714799 182.41674 
L 101.869217 173.611063 
L 104.023634 165.440319 
L 107.255261 154.259972 
L 110.486888 144.228869 
L 113.718515 135.206247 
L 116.950142 127.069946 
L 120.181769 119.714242 
L 123.413396 113.047688 
L 126.645023 106.991123 
L 129.87665 101.475913 
L 133.108276 96.442425 
L 136.339903 91.838723 
L 139.57153 87.619457 
L 142.803157 83.744922 
L 146.034784 80.180263 
L 149.266411 76.8948 
L 152.498038 73.861458 
L 156.806874 70.168178 
L 161.115709 66.831369 
L 165.424545 63.808695 
L 169.733381 61.063772 
L 174.042217 58.565205 
L 178.351053 56.285806 
L 183.737098 53.709055 
L 189.123143 51.398406 
L 194.509187 49.320279 
L 200.972441 47.093513 
L 207.435695 45.118997 
L 213.898949 43.362019 
L 221.439411 41.548591 
L 228.979874 39.953365 
L 237.597546 38.356998 
L 247.292427 36.804361 
L 258.064516 35.329726 
L 269.913815 33.956966 
L 282.840322 32.700576 
L 296.844039 31.567189 
L 313.002173 30.492224 
L 331.314726 29.508496 
L 351.781696 28.634011 
L 375.480293 27.843102 
L 403.487726 27.131688 
L 437.958413 26.488994 
L 479.969563 25.938511 
L 533.830011 25.468846 
L 604.925802 25.086453 
L 606.003011 25.082052 
L 606.003011 25.082052 
" clip-path="url(#pbf19a46779)" style="fill: none; stroke: #d62728; stroke-width: 1.5; stroke-linecap: square"/>
   </g>
   <g id="line2d_33">
    <path d="M 68.475739 367.76739 
L 69.552948 362.866884 
L 71.707366 351.060198 
L 85.711082 270.636681 
L 90.019918 248.166148 
L 93.251545 232.308479 
L 96.483172 217.324434 
L 99.714799 203.211879 
L 102.946425 189.956162 
L 106.178052 177.534068 
L 109.409679 165.91658 
L 112.641306 155.070847 
L 115.872933 144.961628 
L 119.10456 135.552357 
L 122.336187 126.805939 
L 125.567814 118.68535 
L 128.799441 111.154083 
L 132.031067 104.176479 
L 135.262694 97.717966 
L 138.494321 91.745237 
L 141.725948 86.226364 
L 144.957575 81.130872 
L 148.189202 76.429788 
L 151.420829 72.095649 
L 154.652456 68.1025 
L 157.884083 64.425873 
L 161.115709 61.042753 
L 164.347336 57.931538 
L 167.578963 55.071985 
L 170.81059 52.445159 
L 175.119426 49.274355 
L 179.428262 46.447339 
L 183.737098 43.928972 
L 188.045934 41.687373 
L 192.354769 39.693677 
L 196.663605 37.921789 
L 202.04965 35.983199 
L 207.435695 34.313634 
L 212.82174 32.877239 
L 219.284994 31.417501 
L 225.748247 30.201934 
L 233.28871 29.039989 
L 240.829173 28.104464 
L 249.446844 27.257863 
L 259.141725 26.528341 
L 270.991024 25.877993 
L 284.99474 25.353565 
L 302.230084 24.948355 
L 324.851472 24.655849 
L 358.24495 24.469555 
L 420.72307 24.383375 
L 606.003011 24.370196 
L 606.003011 24.370196 
" clip-path="url(#pbf19a46779)" style="fill: none; stroke: #9467bd; stroke-width: 1.5; stroke-linecap: square"/>
   </g>
   <g id="line2d_34">
    <path d="M 68.475739 367.77358 
L 69.552948 363.969887 
L 71.707366 351.717144 
L 83.556664 281.511971 
L 87.8655 258.107447 
L 91.097127 241.593721 
L 94.328754 225.995878 
L 97.560381 211.311826 
L 100.792008 197.525338 
L 104.023634 184.61086 
L 107.255261 172.536713 
L 110.486888 161.267317 
L 113.718515 150.764765 
L 116.950142 140.989969 
L 120.181769 131.903491 
L 123.413396 123.466154 
L 126.645023 115.63949 
L 129.87665 108.386061 
L 133.108276 101.669696 
L 136.339903 95.45564 
L 139.57153 89.710667 
L 142.803157 84.403137 
L 146.034784 79.503025 
L 149.266411 74.981923 
L 152.498038 70.813023 
L 155.729665 66.971087 
L 158.961292 63.432404 
L 162.192918 60.174735 
L 165.424545 57.177263 
L 168.656172 54.420525 
L 172.965008 51.088128 
L 177.273844 48.111855 
L 181.58268 45.45563 
L 185.891516 43.086724 
L 190.200351 40.975498 
L 194.509187 39.095149 
L 198.818023 37.421481 
L 204.204068 35.587009 
L 209.590113 34.00364 
L 214.976158 32.638185 
L 221.439411 31.246697 
L 227.902665 30.084209 
L 235.443128 28.968857 
L 244.0608 27.953159 
L 252.678471 27.157814 
L 263.450561 26.403204 
L 275.29986 25.803429 
L 289.303576 25.315532 
L 307.616129 24.916252 
L 331.314726 24.636657 
L 366.862621 24.459754 
L 436.881204 24.380192 
L 606.003011 24.370212 
L 606.003011 24.370212 
" clip-path="url(#pbf19a46779)" style="fill: none; stroke: #8c564b; stroke-width: 1.5; stroke-linecap: square"/>
   </g>
   <g id="line2d_35">
    <path d="M 68.475739 367.771992 
L 69.552948 364.439527 
L 70.630157 359.722324 
L 72.784574 348.658829 
L 76.016201 330.267985 
L 85.711082 273.774033 
L 90.019918 250.309121 
L 93.251545 233.722689 
L 96.483172 218.063142 
L 99.714799 203.345988 
L 102.946425 189.564399 
L 106.178052 176.69669 
L 109.409679 164.711391 
L 112.641306 153.570774 
L 115.872933 143.233344 
L 119.10456 133.655618 
L 122.336187 124.793403 
L 125.567814 116.602707 
L 128.799441 109.040391 
L 132.031067 102.064623 
L 135.262694 95.635187 
L 138.494321 89.713686 
L 141.725948 84.263659 
L 144.957575 79.250641 
L 148.189202 74.642179 
L 151.420829 70.407809 
L 154.652456 66.519014 
L 157.884083 62.949161 
L 161.115709 59.673428 
L 164.347336 56.668725 
L 167.578963 53.9136 
L 170.81059 51.38816 
L 175.119426 48.346537 
L 179.428262 45.640713 
L 183.737098 43.234752 
L 188.045934 41.096357 
L 192.354769 39.196544 
L 196.663605 37.509331 
L 202.04965 35.664079 
L 207.435695 34.074732 
L 212.82174 32.706446 
L 219.284994 31.314021 
L 225.748247 30.151917 
L 233.28871 29.03743 
L 241.906382 28.022229 
L 251.601262 27.139763 
L 262.373352 26.405469 
L 274.222651 25.819313 
L 289.303576 25.309648 
L 307.616129 24.924408 
L 332.391935 24.64098 
L 370.094248 24.460872 
L 443.344458 24.380889 
L 606.003011 24.370261 
L 606.003011 24.370261 
" clip-path="url(#pbf19a46779)" style="fill: none; stroke: #e377c2; stroke-width: 1.5; stroke-linecap: square"/>
   </g>
   <g id="line2d_36">
    <path d="M 68.475739 367.77358 
L 69.552948 365.01018 
L 70.630157 360.076876 
L 72.784574 348.543751 
L 76.016201 329.602213 
L 83.556664 284.735994 
L 87.8655 260.507735 
L 91.097127 243.350646 
L 94.328754 227.137068 
L 97.560381 211.888616 
L 100.792008 197.60114 
L 104.023634 184.253765 
L 107.255261 171.814807 
L 110.486888 160.245776 
L 113.718515 149.50413 
L 116.950142 139.545218 
L 120.181769 130.32364 
L 123.413396 121.794214 
L 126.645023 113.912653 
L 129.87665 106.636031 
L 133.108276 99.923101 
L 136.339903 93.734494 
L 139.57153 88.032837 
L 142.803157 82.782812 
L 146.034784 77.951161 
L 149.266411 73.506664 
L 152.498038 69.420092 
L 155.729665 65.664143 
L 158.961292 62.213361 
L 162.192918 59.044054 
L 165.424545 56.134206 
L 168.656172 53.463382 
L 172.965008 50.241565 
L 177.273844 47.370106 
L 181.58268 44.812003 
L 185.891516 42.533965 
L 190.200351 40.506074 
L 194.509187 38.701479 
L 199.895232 36.723306 
L 205.281277 35.015013 
L 210.667322 33.540405 
L 217.130576 32.03533 
L 223.593829 30.775051 
L 231.134292 29.562025 
L 238.674755 28.577031 
L 247.292427 27.676478 
L 256.987307 26.890279 
L 267.759397 26.232815 
L 280.685904 25.665119 
L 296.844039 25.191379 
L 317.311009 24.83072 
L 345.318442 24.578421 
L 389.48401 24.429487 
L 489.664443 24.373558 
L 606.003011 24.37029 
L 606.003011 24.37029 
" clip-path="url(#pbf19a46779)" style="fill: none; stroke: #7f7f7f; stroke-width: 1.5; stroke-linecap: square"/>
   </g>
   <g id="patch_3">
    <path d="M 41.599375 384.94375 
L 41.599375 7.2 
" style="fill: none; stroke: #000000; stroke-width: 0.8; stroke-linejoin: miter; stroke-linecap: square"/>
   </g>
   <g id="patch_4">
    <path d="M 632.879375 384.94375 
L 632.879375 7.2 
" style="fill: none; stroke: #000000; stroke-width: 0.8; stroke-linejoin: miter; stroke-linecap: square"/>
   </g>
   <g id="patch_5">
    <path d="M 41.599375 384.94375 
L 632.879375 384.94375 
" style="fill: none; stroke: #000000; stroke-width: 0.8; stroke-linejoin: miter; stroke-linecap: square"/>
   </g>
   <g id="patch_6">
    <path d="M 41.599375 7.2 
L 632.879375 7.2 
" style="fill: none; stroke: #000000; stroke-width: 0.8; stroke-linejoin: miter; stroke-linecap: square"/>
   </g>
   <g id="legend_1">
    <g id="patch_7">
     <path d="M 463.417812 380.44375 
L 626.579375 380.44375 
Q 628.379375 380.44375 628.379375 378.64375 
L 628.379375 328.575625 
Q 628.379375 326.775625 626.579375 326.775625 
L 463.417812 326.775625 
Q 461.617812 326.775625 461.617812 328.575625 
L 461.617812 378.64375 
Q 461.617812 380.44375 463.417812 380.44375 
z
" style="fill: #ffffff; opacity: 0.8; stroke: #cccccc; stroke-linejoin: miter"/>
    </g>
    <g id="line2d_37">
     <path d="M 465.217812 333.525625 
L 474.217812 333.525625 
L 483.217812 333.525625 
" style="fill: none; stroke: #1f77b4; stroke-width: 1.5; stroke-linecap: square"/>
    </g>
    <g id="text_17">
     <!-- Exponential -->
     <g transform="translate(490.417812 336.675625) scale(0.09 -0.09)">
      <defs>
       <path id="TimesNewRomanPSMT-45" d="M 1338 4006 
L 1338 2331 
L 2269 2331 
Q 2631 2331 2753 2441 
Q 2916 2584 2934 2947 
L 3050 2947 
L 3050 1472 
L 2934 1472 
Q 2891 1781 2847 1869 
Q 2791 1978 2662 2040 
Q 2534 2103 2269 2103 
L 1338 2103 
L 1338 706 
Q 1338 425 1363 364 
Q 1388 303 1450 267 
Q 1513 231 1688 231 
L 2406 231 
Q 2766 231 2928 281 
Q 3091 331 3241 478 
Q 3434 672 3638 1063 
L 3763 1063 
L 3397 0 
L 131 0 
L 131 116 
L 281 116 
Q 431 116 566 188 
Q 666 238 702 338 
Q 738 438 738 747 
L 738 3500 
Q 738 3903 656 3997 
Q 544 4122 281 4122 
L 131 4122 
L 131 4238 
L 3397 4238 
L 3444 3309 
L 3322 3309 
Q 3256 3644 3176 3769 
Q 3097 3894 2941 3959 
Q 2816 4006 2500 4006 
L 1338 4006 
z
" transform="scale(0.015625)"/>
       <path id="TimesNewRomanPSMT-78" d="M 84 2863 
L 1431 2863 
L 1431 2747 
Q 1303 2747 1251 2703 
Q 1200 2659 1200 2588 
Q 1200 2513 1309 2356 
Q 1344 2306 1413 2200 
L 1616 1875 
L 1850 2200 
Q 2075 2509 2075 2591 
Q 2075 2656 2022 2701 
Q 1969 2747 1850 2747 
L 1850 2863 
L 2819 2863 
L 2819 2747 
Q 2666 2738 2553 2663 
Q 2400 2556 2134 2200 
L 1744 1678 
L 2456 653 
Q 2719 275 2831 198 
Q 2944 122 3122 113 
L 3122 0 
L 1772 0 
L 1772 113 
Q 1913 113 1991 175 
Q 2050 219 2050 291 
Q 2050 363 1850 653 
L 1431 1266 
L 972 653 
Q 759 369 759 316 
Q 759 241 829 180 
Q 900 119 1041 113 
L 1041 0 
L 106 0 
L 106 113 
Q 219 128 303 191 
Q 422 281 703 653 
L 1303 1450 
L 759 2238 
Q 528 2575 401 2661 
Q 275 2747 84 2747 
L 84 2863 
z
" transform="scale(0.015625)"/>
       <path id="TimesNewRomanPSMT-70" d="M -6 2578 
L 875 2934 
L 994 2934 
L 994 2266 
Q 1216 2644 1439 2795 
Q 1663 2947 1909 2947 
Q 2341 2947 2628 2609 
Q 2981 2197 2981 1534 
Q 2981 794 2556 309 
Q 2206 -88 1675 -88 
Q 1444 -88 1275 -22 
Q 1150 25 994 166 
L 994 -706 
Q 994 -1000 1030 -1079 
Q 1066 -1159 1155 -1206 
Q 1244 -1253 1478 -1253 
L 1478 -1369 
L -22 -1369 
L -22 -1253 
L 56 -1253 
Q 228 -1256 350 -1188 
Q 409 -1153 442 -1076 
Q 475 -1000 475 -688 
L 475 2019 
Q 475 2297 450 2372 
Q 425 2447 370 2484 
Q 316 2522 222 2522 
Q 147 2522 31 2478 
L -6 2578 
z
M 994 2081 
L 994 1013 
Q 994 666 1022 556 
Q 1066 375 1236 237 
Q 1406 100 1666 100 
Q 1978 100 2172 344 
Q 2425 663 2425 1241 
Q 2425 1897 2138 2250 
Q 1938 2494 1663 2494 
Q 1513 2494 1366 2419 
Q 1253 2363 994 2081 
z
" transform="scale(0.015625)"/>
      </defs>
      <use xlink:href="#TimesNewRomanPSMT-45"/>
      <use xlink:href="#TimesNewRomanPSMT-78" transform="translate(61.083984 0)"/>
      <use xlink:href="#TimesNewRomanPSMT-70" transform="translate(111.083984 0)"/>
      <use xlink:href="#TimesNewRomanPSMT-6f" transform="translate(161.083984 0)"/>
      <use xlink:href="#TimesNewRomanPSMT-6e" transform="translate(211.083984 0)"/>
      <use xlink:href="#TimesNewRomanPSMT-65" transform="translate(261.083984 0)"/>
      <use xlink:href="#TimesNewRomanPSMT-6e" transform="translate(305.46875 0)"/>
      <use xlink:href="#TimesNewRomanPSMT-74" transform="translate(355.46875 0)"/>
      <use xlink:href="#TimesNewRomanPSMT-69" transform="translate(383.251953 0)"/>
      <use xlink:href="#TimesNewRomanPSMT-61" transform="translate(411.035156 0)"/>
      <use xlink:href="#TimesNewRomanPSMT-6c" transform="translate(455.419922 0)"/>
     </g>
    </g>
    <g id="line2d_38">
     <path d="M 465.217812 346.250781 
L 474.217812 346.250781 
L 483.217812 346.250781 
" style="fill: none; stroke: #ff7f0e; stroke-width: 1.5; stroke-linecap: square"/>
    </g>
    <g id="text_18">
     <!-- Normal -->
     <g transform="translate(490.417812 349.400781) scale(0.09 -0.09)">
      <defs>
       <path id="TimesNewRomanPSMT-4e" d="M -84 4238 
L 1066 4238 
L 3656 1059 
L 3656 3503 
Q 3656 3894 3569 3991 
Q 3453 4122 3203 4122 
L 3056 4122 
L 3056 4238 
L 4531 4238 
L 4531 4122 
L 4381 4122 
Q 4113 4122 4000 3959 
Q 3931 3859 3931 3503 
L 3931 -69 
L 3819 -69 
L 1025 3344 
L 1025 734 
Q 1025 344 1109 247 
Q 1228 116 1475 116 
L 1625 116 
L 1625 0 
L 150 0 
L 150 116 
L 297 116 
Q 569 116 681 278 
Q 750 378 750 734 
L 750 3681 
Q 566 3897 470 3965 
Q 375 4034 191 4094 
Q 100 4122 -84 4122 
L -84 4238 
z
" transform="scale(0.015625)"/>
      </defs>
      <use xlink:href="#TimesNewRomanPSMT-4e"/>
      <use xlink:href="#TimesNewRomanPSMT-6f" transform="translate(72.216797 0)"/>
      <use xlink:href="#TimesNewRomanPSMT-72" transform="translate(122.216797 0)"/>
      <use xlink:href="#TimesNewRomanPSMT-6d" transform="translate(155.517578 0)"/>
      <use xlink:href="#TimesNewRomanPSMT-61" transform="translate(233.300781 0)"/>
      <use xlink:href="#TimesNewRomanPSMT-6c" transform="translate(277.685547 0)"/>
     </g>
    </g>
    <g id="line2d_39">
     <path d="M 465.217812 358.975937 
L 474.217812 358.975937 
L 483.217812 358.975937 
" style="fill: none; stroke: #2ca02c; stroke-width: 1.5; stroke-linecap: square"/>
    </g>
    <g id="text_19">
     <!-- TruncNormal -->
     <g transform="translate(490.417812 362.125937) scale(0.09 -0.09)">
      <defs>
       <path id="TimesNewRomanPSMT-63" d="M 2631 1088 
Q 2516 522 2178 217 
Q 1841 -88 1431 -88 
Q 944 -88 581 321 
Q 219 731 219 1428 
Q 219 2103 620 2525 
Q 1022 2947 1584 2947 
Q 2006 2947 2278 2723 
Q 2550 2500 2550 2259 
Q 2550 2141 2473 2067 
Q 2397 1994 2259 1994 
Q 2075 1994 1981 2113 
Q 1928 2178 1911 2362 
Q 1894 2547 1784 2644 
Q 1675 2738 1481 2738 
Q 1169 2738 978 2506 
Q 725 2200 725 1697 
Q 725 1184 976 792 
Q 1228 400 1656 400 
Q 1963 400 2206 609 
Q 2378 753 2541 1131 
L 2631 1088 
z
" transform="scale(0.015625)"/>
      </defs>
      <use xlink:href="#TimesNewRomanPSMT-54"/>
      <use xlink:href="#TimesNewRomanPSMT-72" transform="translate(57.583984 0)"/>
      <use xlink:href="#TimesNewRomanPSMT-75" transform="translate(90.884766 0)"/>
      <use xlink:href="#TimesNewRomanPSMT-6e" transform="translate(140.884766 0)"/>
      <use xlink:href="#TimesNewRomanPSMT-63" transform="translate(190.884766 0)"/>
      <use xlink:href="#TimesNewRomanPSMT-4e" transform="translate(235.269531 0)"/>
      <use xlink:href="#TimesNewRomanPSMT-6f" transform="translate(307.486328 0)"/>
      <use xlink:href="#TimesNewRomanPSMT-72" transform="translate(357.486328 0)"/>
      <use xlink:href="#TimesNewRomanPSMT-6d" transform="translate(390.787109 0)"/>
      <use xlink:href="#TimesNewRomanPSMT-61" transform="translate(468.570312 0)"/>
      <use xlink:href="#TimesNewRomanPSMT-6c" transform="translate(512.955078 0)"/>
     </g>
    </g>
    <g id="line2d_40">
     <path d="M 465.217812 371.701094 
L 474.217812 371.701094 
L 483.217812 371.701094 
" style="fill: none; stroke: #d62728; stroke-width: 1.5; stroke-linecap: square"/>
    </g>
    <g id="text_20">
     <!-- LogNormal -->
     <g transform="translate(490.417812 374.851094) scale(0.09 -0.09)">
      <defs>
       <path id="TimesNewRomanPSMT-4c" d="M 3669 1172 
L 3772 1150 
L 3409 0 
L 128 0 
L 128 116 
L 288 116 
Q 556 116 672 291 
Q 738 391 738 753 
L 738 3488 
Q 738 3884 650 3984 
Q 528 4122 288 4122 
L 128 4122 
L 128 4238 
L 2047 4238 
L 2047 4122 
Q 1709 4125 1573 4059 
Q 1438 3994 1388 3894 
Q 1338 3794 1338 3416 
L 1338 753 
Q 1338 494 1388 397 
Q 1425 331 1503 300 
Q 1581 269 1991 269 
L 2300 269 
Q 2788 269 2984 341 
Q 3181 413 3343 595 
Q 3506 778 3669 1172 
z
" transform="scale(0.015625)"/>
       <path id="TimesNewRomanPSMT-67" d="M 966 1044 
Q 703 1172 562 1401 
Q 422 1631 422 1909 
Q 422 2334 742 2640 
Q 1063 2947 1563 2947 
Q 1972 2947 2272 2747 
L 2878 2747 
Q 3013 2747 3034 2739 
Q 3056 2731 3066 2713 
Q 3084 2684 3084 2613 
Q 3084 2531 3069 2500 
Q 3059 2484 3036 2475 
Q 3013 2466 2878 2466 
L 2506 2466 
Q 2681 2241 2681 1891 
Q 2681 1491 2375 1206 
Q 2069 922 1553 922 
Q 1341 922 1119 984 
Q 981 866 932 777 
Q 884 688 884 625 
Q 884 572 936 522 
Q 988 472 1138 450 
Q 1225 438 1575 428 
Q 2219 413 2409 384 
Q 2700 344 2873 169 
Q 3047 -6 3047 -263 
Q 3047 -616 2716 -925 
Q 2228 -1381 1444 -1381 
Q 841 -1381 425 -1109 
Q 191 -953 191 -784 
Q 191 -709 225 -634 
Q 278 -519 444 -313 
Q 466 -284 763 25 
Q 600 122 533 198 
Q 466 275 466 372 
Q 466 481 555 628 
Q 644 775 966 1044 
z
M 1509 2797 
Q 1278 2797 1122 2612 
Q 966 2428 966 2047 
Q 966 1553 1178 1281 
Q 1341 1075 1591 1075 
Q 1828 1075 1981 1253 
Q 2134 1431 2134 1813 
Q 2134 2309 1919 2591 
Q 1759 2797 1509 2797 
z
M 934 0 
Q 788 -159 713 -296 
Q 638 -434 638 -550 
Q 638 -700 819 -813 
Q 1131 -1006 1722 -1006 
Q 2284 -1006 2551 -807 
Q 2819 -609 2819 -384 
Q 2819 -222 2659 -153 
Q 2497 -84 2016 -72 
Q 1313 -53 934 0 
z
" transform="scale(0.015625)"/>
      </defs>
      <use xlink:href="#TimesNewRomanPSMT-4c"/>
      <use xlink:href="#TimesNewRomanPSMT-6f" transform="translate(61.083984 0)"/>
      <use xlink:href="#TimesNewRomanPSMT-67" transform="translate(111.083984 0)"/>
      <use xlink:href="#TimesNewRomanPSMT-4e" transform="translate(161.083984 0)"/>
      <use xlink:href="#TimesNewRomanPSMT-6f" transform="translate(233.300781 0)"/>
      <use xlink:href="#TimesNewRomanPSMT-72" transform="translate(283.300781 0)"/>
      <use xlink:href="#TimesNewRomanPSMT-6d" transform="translate(316.601562 0)"/>
      <use xlink:href="#TimesNewRomanPSMT-61" transform="translate(394.384766 0)"/>
      <use xlink:href="#TimesNewRomanPSMT-6c" transform="translate(438.769531 0)"/>
     </g>
    </g>
    <g id="line2d_41">
     <path d="M 557.083906 333.525625 
L 566.083906 333.525625 
L 575.083906 333.525625 
" style="fill: none; stroke: #9467bd; stroke-width: 1.5; stroke-linecap: square"/>
    </g>
    <g id="text_21">
     <!-- Weibull_2P -->
     <g transform="translate(582.283906 336.675625) scale(0.09 -0.09)">
      <defs>
       <path id="TimesNewRomanPSMT-57" d="M 5991 4238 
L 5991 4122 
Q 5825 4122 5722 4062 
Q 5619 4003 5525 3841 
Q 5463 3731 5328 3319 
L 4147 -97 
L 4022 -97 
L 3056 2613 
L 2097 -97 
L 1984 -97 
L 725 3422 
Q 584 3816 547 3888 
Q 484 4006 376 4064 
Q 269 4122 84 4122 
L 84 4238 
L 1653 4238 
L 1653 4122 
L 1578 4122 
Q 1413 4122 1325 4047 
Q 1238 3972 1238 3866 
Q 1238 3756 1375 3363 
L 2209 984 
L 2913 3006 
L 2788 3363 
L 2688 3647 
Q 2622 3803 2541 3922 
Q 2500 3981 2441 4022 
Q 2363 4078 2284 4103 
Q 2225 4122 2097 4122 
L 2097 4238 
L 3747 4238 
L 3747 4122 
L 3634 4122 
Q 3459 4122 3378 4047 
Q 3297 3972 3297 3844 
Q 3297 3684 3438 3288 
L 4250 984 
L 5056 3319 
Q 5194 3706 5194 3856 
Q 5194 3928 5148 3990 
Q 5103 4053 5034 4078 
Q 4916 4122 4725 4122 
L 4725 4238 
L 5991 4238 
z
" transform="scale(0.015625)"/>
       <path id="TimesNewRomanPSMT-5f" d="M 3256 -1381 
L -53 -1381 
L -53 -1119 
L 3256 -1119 
L 3256 -1381 
z
" transform="scale(0.015625)"/>
       <path id="TimesNewRomanPSMT-50" d="M 1313 1984 
L 1313 750 
Q 1313 350 1400 253 
Q 1519 116 1759 116 
L 1922 116 
L 1922 0 
L 106 0 
L 106 116 
L 266 116 
Q 534 116 650 291 
Q 713 388 713 750 
L 713 3488 
Q 713 3888 628 3984 
Q 506 4122 266 4122 
L 106 4122 
L 106 4238 
L 1659 4238 
Q 2228 4238 2556 4120 
Q 2884 4003 3109 3725 
Q 3334 3447 3334 3066 
Q 3334 2547 2992 2222 
Q 2650 1897 2025 1897 
Q 1872 1897 1694 1919 
Q 1516 1941 1313 1984 
z
M 1313 2163 
Q 1478 2131 1606 2115 
Q 1734 2100 1825 2100 
Q 2150 2100 2386 2351 
Q 2622 2603 2622 3003 
Q 2622 3278 2509 3514 
Q 2397 3750 2190 3867 
Q 1984 3984 1722 3984 
Q 1563 3984 1313 3925 
L 1313 2163 
z
" transform="scale(0.015625)"/>
      </defs>
      <use xlink:href="#TimesNewRomanPSMT-57"/>
      <use xlink:href="#TimesNewRomanPSMT-65" transform="translate(86.384766 0)"/>
      <use xlink:href="#TimesNewRomanPSMT-69" transform="translate(130.769531 0)"/>
      <use xlink:href="#TimesNewRomanPSMT-62" transform="translate(158.552734 0)"/>
      <use xlink:href="#TimesNewRomanPSMT-75" transform="translate(208.552734 0)"/>
      <use xlink:href="#TimesNewRomanPSMT-6c" transform="translate(258.552734 0)"/>
      <use xlink:href="#TimesNewRomanPSMT-6c" transform="translate(286.335938 0)"/>
      <use xlink:href="#TimesNewRomanPSMT-5f" transform="translate(314.119141 0)"/>
      <use xlink:href="#TimesNewRomanPSMT-32" transform="translate(364.119141 0)"/>
      <use xlink:href="#TimesNewRomanPSMT-50" transform="translate(414.119141 0)"/>
     </g>
    </g>
    <g id="line2d_42">
     <path d="M 557.083906 346.267656 
L 566.083906 346.267656 
L 575.083906 346.267656 
" style="fill: none; stroke: #8c564b; stroke-width: 1.5; stroke-linecap: square"/>
    </g>
    <g id="text_22">
     <!-- Weibull_3P -->
     <g transform="translate(582.283906 349.417656) scale(0.09 -0.09)">
      <defs>
       <path id="TimesNewRomanPSMT-33" d="M 325 3431 
Q 506 3859 782 4092 
Q 1059 4325 1472 4325 
Q 1981 4325 2253 3994 
Q 2459 3747 2459 3466 
Q 2459 3003 1878 2509 
Q 2269 2356 2469 2072 
Q 2669 1788 2669 1403 
Q 2669 853 2319 450 
Q 1863 -75 997 -75 
Q 569 -75 414 31 
Q 259 138 259 259 
Q 259 350 332 419 
Q 406 488 509 488 
Q 588 488 669 463 
Q 722 447 909 348 
Q 1097 250 1169 231 
Q 1284 197 1416 197 
Q 1734 197 1970 444 
Q 2206 691 2206 1028 
Q 2206 1275 2097 1509 
Q 2016 1684 1919 1775 
Q 1784 1900 1550 2001 
Q 1316 2103 1072 2103 
L 972 2103 
L 972 2197 
Q 1219 2228 1467 2375 
Q 1716 2522 1828 2728 
Q 1941 2934 1941 3181 
Q 1941 3503 1739 3701 
Q 1538 3900 1238 3900 
Q 753 3900 428 3381 
L 325 3431 
z
" transform="scale(0.015625)"/>
      </defs>
      <use xlink:href="#TimesNewRomanPSMT-57"/>
      <use xlink:href="#TimesNewRomanPSMT-65" transform="translate(86.384766 0)"/>
      <use xlink:href="#TimesNewRomanPSMT-69" transform="translate(130.769531 0)"/>
      <use xlink:href="#TimesNewRomanPSMT-62" transform="translate(158.552734 0)"/>
      <use xlink:href="#TimesNewRomanPSMT-75" transform="translate(208.552734 0)"/>
      <use xlink:href="#TimesNewRomanPSMT-6c" transform="translate(258.552734 0)"/>
      <use xlink:href="#TimesNewRomanPSMT-6c" transform="translate(286.335938 0)"/>
      <use xlink:href="#TimesNewRomanPSMT-5f" transform="translate(314.119141 0)"/>
      <use xlink:href="#TimesNewRomanPSMT-33" transform="translate(364.119141 0)"/>
      <use xlink:href="#TimesNewRomanPSMT-50" transform="translate(414.119141 0)"/>
     </g>
    </g>
    <g id="line2d_43">
     <path d="M 557.083906 359.009687 
L 566.083906 359.009687 
L 575.083906 359.009687 
" style="fill: none; stroke: #e377c2; stroke-width: 1.5; stroke-linecap: square"/>
    </g>
    <g id="text_23">
     <!-- Gamma_2P -->
     <g transform="translate(582.283906 362.159687) scale(0.09 -0.09)">
      <defs>
       <path id="TimesNewRomanPSMT-47" d="M 3928 4334 
L 4038 2997 
L 3928 2997 
Q 3763 3497 3500 3750 
Q 3122 4116 2528 4116 
Q 1719 4116 1297 3475 
Q 944 2934 944 2188 
Q 944 1581 1178 1081 
Q 1413 581 1792 348 
Q 2172 116 2572 116 
Q 2806 116 3025 175 
Q 3244 234 3447 350 
L 3447 1575 
Q 3447 1894 3398 1992 
Q 3350 2091 3248 2142 
Q 3147 2194 2891 2194 
L 2891 2313 
L 4531 2313 
L 4531 2194 
L 4453 2194 
Q 4209 2194 4119 2031 
Q 4056 1916 4056 1575 
L 4056 278 
Q 3697 84 3347 -6 
Q 2997 -97 2569 -97 
Q 1341 -97 703 691 
Q 225 1281 225 2053 
Q 225 2613 494 3125 
Q 813 3734 1369 4063 
Q 1834 4334 2469 4334 
Q 2700 4334 2889 4296 
Q 3078 4259 3425 4131 
Q 3600 4066 3659 4066 
Q 3719 4066 3761 4120 
Q 3803 4175 3813 4334 
L 3928 4334 
z
" transform="scale(0.015625)"/>
      </defs>
      <use xlink:href="#TimesNewRomanPSMT-47"/>
      <use xlink:href="#TimesNewRomanPSMT-61" transform="translate(72.216797 0)"/>
      <use xlink:href="#TimesNewRomanPSMT-6d" transform="translate(116.601562 0)"/>
      <use xlink:href="#TimesNewRomanPSMT-6d" transform="translate(194.384766 0)"/>
      <use xlink:href="#TimesNewRomanPSMT-61" transform="translate(272.167969 0)"/>
      <use xlink:href="#TimesNewRomanPSMT-5f" transform="translate(316.552734 0)"/>
      <use xlink:href="#TimesNewRomanPSMT-32" transform="translate(366.552734 0)"/>
      <use xlink:href="#TimesNewRomanPSMT-50" transform="translate(416.552734 0)"/>
     </g>
    </g>
    <g id="line2d_44">
     <path d="M 557.083906 371.751719 
L 566.083906 371.751719 
L 575.083906 371.751719 
" style="fill: none; stroke: #7f7f7f; stroke-width: 1.5; stroke-linecap: square"/>
    </g>
    <g id="text_24">
     <!-- Gamma_3P -->
     <g transform="translate(582.283906 374.901719) scale(0.09 -0.09)">
      <use xlink:href="#TimesNewRomanPSMT-47"/>
      <use xlink:href="#TimesNewRomanPSMT-61" transform="translate(72.216797 0)"/>
      <use xlink:href="#TimesNewRomanPSMT-6d" transform="translate(116.601562 0)"/>
      <use xlink:href="#TimesNewRomanPSMT-6d" transform="translate(194.384766 0)"/>
      <use xlink:href="#TimesNewRomanPSMT-61" transform="translate(272.167969 0)"/>
      <use xlink:href="#TimesNewRomanPSMT-5f" transform="translate(316.552734 0)"/>
      <use xlink:href="#TimesNewRomanPSMT-33" transform="translate(366.552734 0)"/>
      <use xlink:href="#TimesNewRomanPSMT-50" transform="translate(416.552734 0)"/>
     </g>
    </g>
   </g>
  </g>
 </g>
 <defs>
  <clipPath id="pbf19a46779">
   <rect x="41.599375" y="7.2" width="591.28" height="377.74375"/>
  </clipPath>
 </defs>
</svg>
