<?xml version="1.0" encoding="utf-8" standalone="no"?>
<!DOCTYPE svg PUBLIC "-//W3C//DTD SVG 1.1//EN"
  "http://www.w3.org/Graphics/SVG/1.1/DTD/svg11.dtd">
<svg xmlns:xlink="http://www.w3.org/1999/xlink" width="639.965625pt" height="423.148437pt" viewBox="0 0 639.965625 423.148437" xmlns="http://www.w3.org/2000/svg" version="1.1">
 <metadata>
  <rdf:RDF xmlns:dc="http://purl.org/dc/elements/1.1/" xmlns:cc="http://creativecommons.org/ns#" xmlns:rdf="http://www.w3.org/1999/02/22-rdf-syntax-ns#">
   <cc:Work>
    <dc:type rdf:resource="http://purl.org/dc/dcmitype/StillImage"/>
    <dc:date>2026-03-25T11:10:46.201595</dc:date>
    <dc:format>image/svg+xml</dc:format>
    <dc:creator>
     <cc:Agent>
      <dc:title>Matplotlib v3.10.8, https://matplotlib.org/</dc:title>
     </cc:Agent>
    </dc:creator>
   </cc:Work>
  </rdf:RDF>
 </metadata>
 <defs>
  <style type="text/css">*{stroke-linejoin: round; stroke-linecap: butt}</style>
 </defs>
 <g id="figure_1">
  <g id="patch_1">
   <path d="M 0 423.148437 
L 639.965625 423.148437 
L 639.965625 0 
L 0 0 
z
" style="fill: #ffffff"/>
  </g>
  <g id="axes_1">
   <g id="patch_2">
    <path d="M 51.621875 384.94375 
L 632.765625 384.94375 
L 632.765625 7.2 
L 51.621875 7.2 
z
" style="fill: #ffffff"/>
   </g>
   <g id="matplotlib.axis_1">
    <g id="xtick_1">
     <g id="line2d_1">
      <path d="M 78.034578 384.94375 
L 78.034578 7.2 
" clip-path="url(#pf8ee1b202f)" style="fill: none; stroke-dasharray: 2.96,1.28; stroke-dashoffset: 0; stroke: #b0b0b0; stroke-opacity: 0.6; stroke-width: 0.8"/>
     </g>
     <g id="line2d_2">
      <defs>
       <path id="m5537e6477e" d="M 0 0 
L 0 3.5 
" style="stroke: #000000; stroke-width: 0.8"/>
      </defs>
      <g>
       <use xlink:href="#m5537e6477e" x="78.034578" y="384.94375" style="stroke: #000000; stroke-width: 0.8"/>
      </g>
     </g>
     <g id="text_1">
      <!-- 0 -->
      <g transform="translate(75.534578 398.8875) scale(0.1 -0.1)">
       <defs>
        <path id="TimesNewRomanPSMT-30" d="M 231 2094 
Q 231 2819 450 3342 
Q 669 3866 1031 4122 
Q 1313 4325 1613 4325 
Q 2100 4325 2488 3828 
Q 2972 3213 2972 2159 
Q 2972 1422 2759 906 
Q 2547 391 2217 158 
Q 1888 -75 1581 -75 
Q 975 -75 572 641 
Q 231 1244 231 2094 
z
M 844 2016 
Q 844 1141 1059 588 
Q 1238 122 1591 122 
Q 1759 122 1940 273 
Q 2122 425 2216 781 
Q 2359 1319 2359 2297 
Q 2359 3022 2209 3506 
Q 2097 3866 1919 4016 
Q 1791 4119 1609 4119 
Q 1397 4119 1231 3928 
Q 1006 3669 925 3112 
Q 844 2556 844 2016 
z
" transform="scale(0.015625)"/>
       </defs>
       <use xlink:href="#TimesNewRomanPSMT-30"/>
      </g>
     </g>
    </g>
    <g id="xtick_2">
     <g id="line2d_3">
      <path d="M 151.083002 384.94375 
L 151.083002 7.2 
" clip-path="url(#pf8ee1b202f)" style="fill: none; stroke-dasharray: 2.96,1.28; stroke-dashoffset: 0; stroke: #b0b0b0; stroke-opacity: 0.6; stroke-width: 0.8"/>
     </g>
     <g id="line2d_4">
      <g>
       <use xlink:href="#m5537e6477e" x="151.083002" y="384.94375" style="stroke: #000000; stroke-width: 0.8"/>
      </g>
     </g>
     <g id="text_2">
      <!-- 250 -->
      <g transform="translate(143.583002 398.8875) scale(0.1 -0.1)">
       <defs>
        <path id="TimesNewRomanPSMT-32" d="M 2934 816 
L 2638 0 
L 138 0 
L 138 116 
Q 1241 1122 1691 1759 
Q 2141 2397 2141 2925 
Q 2141 3328 1894 3587 
Q 1647 3847 1303 3847 
Q 991 3847 742 3664 
Q 494 3481 375 3128 
L 259 3128 
Q 338 3706 661 4015 
Q 984 4325 1469 4325 
Q 1984 4325 2329 3994 
Q 2675 3663 2675 3213 
Q 2675 2891 2525 2569 
Q 2294 2063 1775 1497 
Q 997 647 803 472 
L 1909 472 
Q 2247 472 2383 497 
Q 2519 522 2628 598 
Q 2738 675 2819 816 
L 2934 816 
z
" transform="scale(0.015625)"/>
        <path id="TimesNewRomanPSMT-35" d="M 2778 4238 
L 2534 3706 
L 1259 3706 
L 981 3138 
Q 1809 3016 2294 2522 
Q 2709 2097 2709 1522 
Q 2709 1188 2573 903 
Q 2438 619 2231 419 
Q 2025 219 1772 97 
Q 1413 -75 1034 -75 
Q 653 -75 479 54 
Q 306 184 306 341 
Q 306 428 378 495 
Q 450 563 559 563 
Q 641 563 702 538 
Q 763 513 909 409 
Q 1144 247 1384 247 
Q 1750 247 2026 523 
Q 2303 800 2303 1197 
Q 2303 1581 2056 1914 
Q 1809 2247 1375 2428 
Q 1034 2569 447 2591 
L 1259 4238 
L 2778 4238 
z
" transform="scale(0.015625)"/>
       </defs>
       <use xlink:href="#TimesNewRomanPSMT-32"/>
       <use xlink:href="#TimesNewRomanPSMT-35" transform="translate(50 0)"/>
       <use xlink:href="#TimesNewRomanPSMT-30" transform="translate(100 0)"/>
      </g>
     </g>
    </g>
    <g id="xtick_3">
     <g id="line2d_5">
      <path d="M 224.131426 384.94375 
L 224.131426 7.2 
" clip-path="url(#pf8ee1b202f)" style="fill: none; stroke-dasharray: 2.96,1.28; stroke-dashoffset: 0; stroke: #b0b0b0; stroke-opacity: 0.6; stroke-width: 0.8"/>
     </g>
     <g id="line2d_6">
      <g>
       <use xlink:href="#m5537e6477e" x="224.131426" y="384.94375" style="stroke: #000000; stroke-width: 0.8"/>
      </g>
     </g>
     <g id="text_3">
      <!-- 500 -->
      <g transform="translate(216.631426 398.8875) scale(0.1 -0.1)">
       <use xlink:href="#TimesNewRomanPSMT-35"/>
       <use xlink:href="#TimesNewRomanPSMT-30" transform="translate(50 0)"/>
       <use xlink:href="#TimesNewRomanPSMT-30" transform="translate(100 0)"/>
      </g>
     </g>
    </g>
    <g id="xtick_4">
     <g id="line2d_7">
      <path d="M 297.17985 384.94375 
L 297.17985 7.2 
" clip-path="url(#pf8ee1b202f)" style="fill: none; stroke-dasharray: 2.96,1.28; stroke-dashoffset: 0; stroke: #b0b0b0; stroke-opacity: 0.6; stroke-width: 0.8"/>
     </g>
     <g id="line2d_8">
      <g>
       <use xlink:href="#m5537e6477e" x="297.17985" y="384.94375" style="stroke: #000000; stroke-width: 0.8"/>
      </g>
     </g>
     <g id="text_4">
      <!-- 750 -->
      <g transform="translate(289.67985 398.8875) scale(0.1 -0.1)">
       <defs>
        <path id="TimesNewRomanPSMT-37" d="M 644 4238 
L 2916 4238 
L 2916 4119 
L 1503 -88 
L 1153 -88 
L 2419 3728 
L 1253 3728 
Q 900 3728 750 3644 
Q 488 3500 328 3200 
L 238 3234 
L 644 4238 
z
" transform="scale(0.015625)"/>
       </defs>
       <use xlink:href="#TimesNewRomanPSMT-37"/>
       <use xlink:href="#TimesNewRomanPSMT-35" transform="translate(50 0)"/>
       <use xlink:href="#TimesNewRomanPSMT-30" transform="translate(100 0)"/>
      </g>
     </g>
    </g>
    <g id="xtick_5">
     <g id="line2d_9">
      <path d="M 370.228274 384.94375 
L 370.228274 7.2 
" clip-path="url(#pf8ee1b202f)" style="fill: none; stroke-dasharray: 2.96,1.28; stroke-dashoffset: 0; stroke: #b0b0b0; stroke-opacity: 0.6; stroke-width: 0.8"/>
     </g>
     <g id="line2d_10">
      <g>
       <use xlink:href="#m5537e6477e" x="370.228274" y="384.94375" style="stroke: #000000; stroke-width: 0.8"/>
      </g>
     </g>
     <g id="text_5">
      <!-- 1000 -->
      <g transform="translate(360.228274 398.8875) scale(0.1 -0.1)">
       <defs>
        <path id="TimesNewRomanPSMT-31" d="M 750 3822 
L 1781 4325 
L 1884 4325 
L 1884 747 
Q 1884 391 1914 303 
Q 1944 216 2037 169 
Q 2131 122 2419 116 
L 2419 0 
L 825 0 
L 825 116 
Q 1125 122 1212 167 
Q 1300 213 1334 289 
Q 1369 366 1369 747 
L 1369 3034 
Q 1369 3497 1338 3628 
Q 1316 3728 1258 3775 
Q 1200 3822 1119 3822 
Q 1003 3822 797 3725 
L 750 3822 
z
" transform="scale(0.015625)"/>
       </defs>
       <use xlink:href="#TimesNewRomanPSMT-31"/>
       <use xlink:href="#TimesNewRomanPSMT-30" transform="translate(50 0)"/>
       <use xlink:href="#TimesNewRomanPSMT-30" transform="translate(100 0)"/>
       <use xlink:href="#TimesNewRomanPSMT-30" transform="translate(150 0)"/>
      </g>
     </g>
    </g>
    <g id="xtick_6">
     <g id="line2d_11">
      <path d="M 443.276698 384.94375 
L 443.276698 7.2 
" clip-path="url(#pf8ee1b202f)" style="fill: none; stroke-dasharray: 2.96,1.28; stroke-dashoffset: 0; stroke: #b0b0b0; stroke-opacity: 0.6; stroke-width: 0.8"/>
     </g>
     <g id="line2d_12">
      <g>
       <use xlink:href="#m5537e6477e" x="443.276698" y="384.94375" style="stroke: #000000; stroke-width: 0.8"/>
      </g>
     </g>
     <g id="text_6">
      <!-- 1250 -->
      <g transform="translate(433.276698 398.8875) scale(0.1 -0.1)">
       <use xlink:href="#TimesNewRomanPSMT-31"/>
       <use xlink:href="#TimesNewRomanPSMT-32" transform="translate(50 0)"/>
       <use xlink:href="#TimesNewRomanPSMT-35" transform="translate(100 0)"/>
       <use xlink:href="#TimesNewRomanPSMT-30" transform="translate(150 0)"/>
      </g>
     </g>
    </g>
    <g id="xtick_7">
     <g id="line2d_13">
      <path d="M 516.325122 384.94375 
L 516.325122 7.2 
" clip-path="url(#pf8ee1b202f)" style="fill: none; stroke-dasharray: 2.96,1.28; stroke-dashoffset: 0; stroke: #b0b0b0; stroke-opacity: 0.6; stroke-width: 0.8"/>
     </g>
     <g id="line2d_14">
      <g>
       <use xlink:href="#m5537e6477e" x="516.325122" y="384.94375" style="stroke: #000000; stroke-width: 0.8"/>
      </g>
     </g>
     <g id="text_7">
      <!-- 1500 -->
      <g transform="translate(506.325122 398.8875) scale(0.1 -0.1)">
       <use xlink:href="#TimesNewRomanPSMT-31"/>
       <use xlink:href="#TimesNewRomanPSMT-35" transform="translate(50 0)"/>
       <use xlink:href="#TimesNewRomanPSMT-30" transform="translate(100 0)"/>
       <use xlink:href="#TimesNewRomanPSMT-30" transform="translate(150 0)"/>
      </g>
     </g>
    </g>
    <g id="xtick_8">
     <g id="line2d_15">
      <path d="M 589.373546 384.94375 
L 589.373546 7.2 
" clip-path="url(#pf8ee1b202f)" style="fill: none; stroke-dasharray: 2.96,1.28; stroke-dashoffset: 0; stroke: #b0b0b0; stroke-opacity: 0.6; stroke-width: 0.8"/>
     </g>
     <g id="line2d_16">
      <g>
       <use xlink:href="#m5537e6477e" x="589.373546" y="384.94375" style="stroke: #000000; stroke-width: 0.8"/>
      </g>
     </g>
     <g id="text_8">
      <!-- 1750 -->
      <g transform="translate(579.373546 398.8875) scale(0.1 -0.1)">
       <use xlink:href="#TimesNewRomanPSMT-31"/>
       <use xlink:href="#TimesNewRomanPSMT-37" transform="translate(50 0)"/>
       <use xlink:href="#TimesNewRomanPSMT-35" transform="translate(100 0)"/>
       <use xlink:href="#TimesNewRomanPSMT-30" transform="translate(150 0)"/>
      </g>
     </g>
    </g>
    <g id="text_9">
     <!-- Failure Time (Days) -->
     <g transform="translate(293.524375 413.359062) scale(0.12 -0.12)">
      <defs>
       <path id="TimesNewRomanPSMT-46" d="M 1309 4006 
L 1309 2341 
L 2081 2341 
Q 2347 2341 2470 2458 
Q 2594 2575 2634 2922 
L 2750 2922 
L 2750 1488 
L 2634 1488 
Q 2631 1734 2570 1850 
Q 2509 1966 2401 2023 
Q 2294 2081 2081 2081 
L 1309 2081 
L 1309 750 
Q 1309 428 1350 325 
Q 1381 247 1481 191 
Q 1619 116 1769 116 
L 1922 116 
L 1922 0 
L 103 0 
L 103 116 
L 253 116 
Q 516 116 634 269 
Q 709 369 709 750 
L 709 3488 
Q 709 3809 669 3913 
Q 638 3991 541 4047 
Q 406 4122 253 4122 
L 103 4122 
L 103 4238 
L 3256 4238 
L 3297 3306 
L 3188 3306 
Q 3106 3603 2998 3742 
Q 2891 3881 2733 3943 
Q 2575 4006 2244 4006 
L 1309 4006 
z
" transform="scale(0.015625)"/>
       <path id="TimesNewRomanPSMT-61" d="M 1822 413 
Q 1381 72 1269 19 
Q 1100 -59 909 -59 
Q 613 -59 420 144 
Q 228 347 228 678 
Q 228 888 322 1041 
Q 450 1253 767 1440 
Q 1084 1628 1822 1897 
L 1822 2009 
Q 1822 2438 1686 2597 
Q 1550 2756 1291 2756 
Q 1094 2756 978 2650 
Q 859 2544 859 2406 
L 866 2225 
Q 866 2081 792 2003 
Q 719 1925 600 1925 
Q 484 1925 411 2006 
Q 338 2088 338 2228 
Q 338 2497 613 2722 
Q 888 2947 1384 2947 
Q 1766 2947 2009 2819 
Q 2194 2722 2281 2516 
Q 2338 2381 2338 1966 
L 2338 994 
Q 2338 584 2353 492 
Q 2369 400 2405 369 
Q 2441 338 2488 338 
Q 2538 338 2575 359 
Q 2641 400 2828 588 
L 2828 413 
Q 2478 -56 2159 -56 
Q 2006 -56 1915 50 
Q 1825 156 1822 413 
z
M 1822 616 
L 1822 1706 
Q 1350 1519 1213 1441 
Q 966 1303 859 1153 
Q 753 1003 753 825 
Q 753 600 887 451 
Q 1022 303 1197 303 
Q 1434 303 1822 616 
z
" transform="scale(0.015625)"/>
       <path id="TimesNewRomanPSMT-69" d="M 928 4444 
Q 1059 4444 1151 4351 
Q 1244 4259 1244 4128 
Q 1244 3997 1151 3903 
Q 1059 3809 928 3809 
Q 797 3809 703 3903 
Q 609 3997 609 4128 
Q 609 4259 701 4351 
Q 794 4444 928 4444 
z
M 1188 2947 
L 1188 647 
Q 1188 378 1227 289 
Q 1266 200 1342 156 
Q 1419 113 1622 113 
L 1622 0 
L 231 0 
L 231 113 
Q 441 113 512 153 
Q 584 194 626 287 
Q 669 381 669 647 
L 669 1750 
Q 669 2216 641 2353 
Q 619 2453 572 2492 
Q 525 2531 444 2531 
Q 356 2531 231 2484 
L 188 2597 
L 1050 2947 
L 1188 2947 
z
" transform="scale(0.015625)"/>
       <path id="TimesNewRomanPSMT-6c" d="M 1184 4444 
L 1184 647 
Q 1184 378 1223 290 
Q 1263 203 1344 158 
Q 1425 113 1647 113 
L 1647 0 
L 244 0 
L 244 113 
Q 441 113 512 153 
Q 584 194 625 287 
Q 666 381 666 647 
L 666 3247 
Q 666 3731 644 3842 
Q 622 3953 573 3993 
Q 525 4034 450 4034 
Q 369 4034 244 3984 
L 191 4094 
L 1044 4444 
L 1184 4444 
z
" transform="scale(0.015625)"/>
       <path id="TimesNewRomanPSMT-75" d="M 2709 2863 
L 2709 1128 
Q 2709 631 2732 520 
Q 2756 409 2807 365 
Q 2859 322 2928 322 
Q 3025 322 3147 375 
L 3191 266 
L 2334 -88 
L 2194 -88 
L 2194 519 
Q 1825 119 1631 15 
Q 1438 -88 1222 -88 
Q 981 -88 804 51 
Q 628 191 559 409 
Q 491 628 491 1028 
L 491 2306 
Q 491 2509 447 2587 
Q 403 2666 317 2708 
Q 231 2750 6 2747 
L 6 2863 
L 1009 2863 
L 1009 947 
Q 1009 547 1148 422 
Q 1288 297 1484 297 
Q 1619 297 1789 381 
Q 1959 466 2194 703 
L 2194 2325 
Q 2194 2569 2105 2655 
Q 2016 2741 1734 2747 
L 1734 2863 
L 2709 2863 
z
" transform="scale(0.015625)"/>
       <path id="TimesNewRomanPSMT-72" d="M 1038 2947 
L 1038 2303 
Q 1397 2947 1775 2947 
Q 1947 2947 2059 2842 
Q 2172 2738 2172 2600 
Q 2172 2478 2090 2393 
Q 2009 2309 1897 2309 
Q 1788 2309 1652 2417 
Q 1516 2525 1450 2525 
Q 1394 2525 1328 2463 
Q 1188 2334 1038 2041 
L 1038 669 
Q 1038 431 1097 309 
Q 1138 225 1241 169 
Q 1344 113 1538 113 
L 1538 0 
L 72 0 
L 72 113 
Q 291 113 397 181 
Q 475 231 506 341 
Q 522 394 522 644 
L 522 1753 
Q 522 2253 501 2348 
Q 481 2444 426 2487 
Q 372 2531 291 2531 
Q 194 2531 72 2484 
L 41 2597 
L 906 2947 
L 1038 2947 
z
" transform="scale(0.015625)"/>
       <path id="TimesNewRomanPSMT-65" d="M 681 1784 
Q 678 1147 991 784 
Q 1303 422 1725 422 
Q 2006 422 2214 576 
Q 2422 731 2563 1106 
L 2659 1044 
Q 2594 616 2278 264 
Q 1963 -88 1488 -88 
Q 972 -88 605 314 
Q 238 716 238 1394 
Q 238 2128 614 2539 
Q 991 2950 1559 2950 
Q 2041 2950 2350 2633 
Q 2659 2316 2659 1784 
L 681 1784 
z
M 681 1966 
L 2006 1966 
Q 1991 2241 1941 2353 
Q 1863 2528 1708 2628 
Q 1553 2728 1384 2728 
Q 1125 2728 920 2526 
Q 716 2325 681 1966 
z
" transform="scale(0.015625)"/>
       <path id="TimesNewRomanPSMT-20" transform="scale(0.015625)"/>
       <path id="TimesNewRomanPSMT-54" d="M 3703 4238 
L 3750 3244 
L 3631 3244 
Q 3597 3506 3538 3619 
Q 3441 3800 3280 3886 
Q 3119 3972 2856 3972 
L 2259 3972 
L 2259 734 
Q 2259 344 2344 247 
Q 2463 116 2709 116 
L 2856 116 
L 2856 0 
L 1059 0 
L 1059 116 
L 1209 116 
Q 1478 116 1591 278 
Q 1659 378 1659 734 
L 1659 3972 
L 1150 3972 
Q 853 3972 728 3928 
Q 566 3869 450 3700 
Q 334 3531 313 3244 
L 194 3244 
L 244 4238 
L 3703 4238 
z
" transform="scale(0.015625)"/>
       <path id="TimesNewRomanPSMT-6d" d="M 1050 2338 
Q 1363 2650 1419 2697 
Q 1559 2816 1721 2881 
Q 1884 2947 2044 2947 
Q 2313 2947 2506 2790 
Q 2700 2634 2766 2338 
Q 3088 2713 3309 2830 
Q 3531 2947 3766 2947 
Q 3994 2947 4170 2830 
Q 4347 2713 4450 2447 
Q 4519 2266 4519 1878 
L 4519 647 
Q 4519 378 4559 278 
Q 4591 209 4675 161 
Q 4759 113 4950 113 
L 4950 0 
L 3538 0 
L 3538 113 
L 3597 113 
Q 3781 113 3884 184 
Q 3956 234 3988 344 
Q 4000 397 4000 647 
L 4000 1878 
Q 4000 2228 3916 2372 
Q 3794 2572 3525 2572 
Q 3359 2572 3192 2489 
Q 3025 2406 2788 2181 
L 2781 2147 
L 2788 2013 
L 2788 647 
Q 2788 353 2820 281 
Q 2853 209 2943 161 
Q 3034 113 3253 113 
L 3253 0 
L 1806 0 
L 1806 113 
Q 2044 113 2133 169 
Q 2222 225 2256 338 
Q 2272 391 2272 647 
L 2272 1878 
Q 2272 2228 2169 2381 
Q 2031 2581 1784 2581 
Q 1616 2581 1450 2491 
Q 1191 2353 1050 2181 
L 1050 647 
Q 1050 366 1089 281 
Q 1128 197 1204 155 
Q 1281 113 1516 113 
L 1516 0 
L 100 0 
L 100 113 
Q 297 113 375 155 
Q 453 197 493 289 
Q 534 381 534 647 
L 534 1741 
Q 534 2213 506 2350 
Q 484 2453 437 2492 
Q 391 2531 309 2531 
Q 222 2531 100 2484 
L 53 2597 
L 916 2947 
L 1050 2947 
L 1050 2338 
z
" transform="scale(0.015625)"/>
       <path id="TimesNewRomanPSMT-28" d="M 1988 -1253 
L 1988 -1369 
Q 1516 -1131 1200 -813 
Q 750 -359 506 256 
Q 263 872 263 1534 
Q 263 2503 741 3301 
Q 1219 4100 1988 4444 
L 1988 4313 
Q 1603 4100 1356 3731 
Q 1109 3363 987 2797 
Q 866 2231 866 1616 
Q 866 947 969 400 
Q 1050 -31 1165 -292 
Q 1281 -553 1476 -793 
Q 1672 -1034 1988 -1253 
z
" transform="scale(0.015625)"/>
       <path id="TimesNewRomanPSMT-44" d="M 109 0 
L 109 116 
L 269 116 
Q 538 116 650 288 
Q 719 391 719 750 
L 719 3488 
Q 719 3884 631 3984 
Q 509 4122 269 4122 
L 109 4122 
L 109 4238 
L 1834 4238 
Q 2784 4238 3279 4022 
Q 3775 3806 4076 3303 
Q 4378 2800 4378 2141 
Q 4378 1256 3841 663 
Q 3238 0 2003 0 
L 109 0 
z
M 1319 306 
Q 1716 219 1984 219 
Q 2709 219 3187 728 
Q 3666 1238 3666 2109 
Q 3666 2988 3187 3494 
Q 2709 4000 1959 4000 
Q 1678 4000 1319 3909 
L 1319 306 
z
" transform="scale(0.015625)"/>
       <path id="TimesNewRomanPSMT-79" d="M 38 2863 
L 1372 2863 
L 1372 2747 
L 1306 2747 
Q 1166 2747 1095 2686 
Q 1025 2625 1025 2534 
Q 1025 2413 1128 2197 
L 1825 753 
L 2466 2334 
Q 2519 2463 2519 2588 
Q 2519 2644 2497 2672 
Q 2472 2706 2419 2726 
Q 2366 2747 2231 2747 
L 2231 2863 
L 3163 2863 
L 3163 2747 
Q 3047 2734 2984 2696 
Q 2922 2659 2847 2556 
Q 2819 2513 2741 2316 
L 1575 -541 
Q 1406 -956 1132 -1168 
Q 859 -1381 606 -1381 
Q 422 -1381 303 -1275 
Q 184 -1169 184 -1031 
Q 184 -900 270 -820 
Q 356 -741 506 -741 
Q 609 -741 788 -809 
Q 913 -856 944 -856 
Q 1038 -856 1148 -759 
Q 1259 -663 1372 -384 
L 1575 113 
L 547 2272 
Q 500 2369 397 2513 
Q 319 2622 269 2659 
Q 197 2709 38 2747 
L 38 2863 
z
" transform="scale(0.015625)"/>
       <path id="TimesNewRomanPSMT-73" d="M 2050 2947 
L 2050 1972 
L 1947 1972 
Q 1828 2431 1642 2597 
Q 1456 2763 1169 2763 
Q 950 2763 815 2647 
Q 681 2531 681 2391 
Q 681 2216 781 2091 
Q 878 1963 1175 1819 
L 1631 1597 
Q 2266 1288 2266 781 
Q 2266 391 1970 151 
Q 1675 -88 1309 -88 
Q 1047 -88 709 6 
Q 606 38 541 38 
Q 469 38 428 -44 
L 325 -44 
L 325 978 
L 428 978 
Q 516 541 762 319 
Q 1009 97 1316 97 
Q 1531 97 1667 223 
Q 1803 350 1803 528 
Q 1803 744 1651 891 
Q 1500 1038 1047 1263 
Q 594 1488 453 1669 
Q 313 1847 313 2119 
Q 313 2472 555 2709 
Q 797 2947 1181 2947 
Q 1350 2947 1591 2875 
Q 1750 2828 1803 2828 
Q 1853 2828 1881 2850 
Q 1909 2872 1947 2947 
L 2050 2947 
z
" transform="scale(0.015625)"/>
       <path id="TimesNewRomanPSMT-29" d="M 144 4313 
L 144 4444 
Q 619 4209 934 3891 
Q 1381 3434 1625 2820 
Q 1869 2206 1869 1541 
Q 1869 572 1392 -226 
Q 916 -1025 144 -1369 
L 144 -1253 
Q 528 -1038 776 -670 
Q 1025 -303 1145 264 
Q 1266 831 1266 1447 
Q 1266 2113 1163 2663 
Q 1084 3094 967 3353 
Q 850 3613 656 3853 
Q 463 4094 144 4313 
z
" transform="scale(0.015625)"/>
      </defs>
      <use xlink:href="#TimesNewRomanPSMT-46"/>
      <use xlink:href="#TimesNewRomanPSMT-61" transform="translate(55.615234 0)"/>
      <use xlink:href="#TimesNewRomanPSMT-69" transform="translate(100 0)"/>
      <use xlink:href="#TimesNewRomanPSMT-6c" transform="translate(127.783203 0)"/>
      <use xlink:href="#TimesNewRomanPSMT-75" transform="translate(155.566406 0)"/>
      <use xlink:href="#TimesNewRomanPSMT-72" transform="translate(205.566406 0)"/>
      <use xlink:href="#TimesNewRomanPSMT-65" transform="translate(238.867188 0)"/>
      <use xlink:href="#TimesNewRomanPSMT-20" transform="translate(283.251953 0)"/>
      <use xlink:href="#TimesNewRomanPSMT-54" transform="translate(306.501953 0)"/>
      <use xlink:href="#TimesNewRomanPSMT-69" transform="translate(364.085938 0)"/>
      <use xlink:href="#TimesNewRomanPSMT-6d" transform="translate(391.869141 0)"/>
      <use xlink:href="#TimesNewRomanPSMT-65" transform="translate(469.652344 0)"/>
      <use xlink:href="#TimesNewRomanPSMT-20" transform="translate(514.037109 0)"/>
      <use xlink:href="#TimesNewRomanPSMT-28" transform="translate(539.037109 0)"/>
      <use xlink:href="#TimesNewRomanPSMT-44" transform="translate(572.337891 0)"/>
      <use xlink:href="#TimesNewRomanPSMT-61" transform="translate(644.554688 0)"/>
      <use xlink:href="#TimesNewRomanPSMT-79" transform="translate(688.939453 0)"/>
      <use xlink:href="#TimesNewRomanPSMT-73" transform="translate(738.939453 0)"/>
      <use xlink:href="#TimesNewRomanPSMT-29" transform="translate(777.855469 0)"/>
     </g>
    </g>
   </g>
   <g id="matplotlib.axis_2">
    <g id="ytick_1">
     <g id="line2d_17">
      <path d="M 51.621875 367.77358 
L 632.765625 367.77358 
" clip-path="url(#pf8ee1b202f)" style="fill: none; stroke-dasharray: 2.96,1.28; stroke-dashoffset: 0; stroke: #b0b0b0; stroke-opacity: 0.6; stroke-width: 0.8"/>
     </g>
     <g id="line2d_18">
      <defs>
       <path id="m634c6c6f2f" d="M 0 0 
L -3.5 0 
" style="stroke: #000000; stroke-width: 0.8"/>
      </defs>
      <g>
       <use xlink:href="#m634c6c6f2f" x="51.621875" y="367.77358" style="stroke: #000000; stroke-width: 0.8"/>
      </g>
     </g>
     <g id="text_10">
      <!-- 0.000 -->
      <g transform="translate(22.121875 371.245455) scale(0.1 -0.1)">
       <defs>
        <path id="TimesNewRomanPSMT-2e" d="M 800 606 
Q 947 606 1047 504 
Q 1147 403 1147 259 
Q 1147 116 1045 14 
Q 944 -88 800 -88 
Q 656 -88 554 14 
Q 453 116 453 259 
Q 453 406 554 506 
Q 656 606 800 606 
z
" transform="scale(0.015625)"/>
       </defs>
       <use xlink:href="#TimesNewRomanPSMT-30"/>
       <use xlink:href="#TimesNewRomanPSMT-2e" transform="translate(50 0)"/>
       <use xlink:href="#TimesNewRomanPSMT-30" transform="translate(75 0)"/>
       <use xlink:href="#TimesNewRomanPSMT-30" transform="translate(125 0)"/>
       <use xlink:href="#TimesNewRomanPSMT-30" transform="translate(175 0)"/>
      </g>
     </g>
    </g>
    <g id="ytick_2">
     <g id="line2d_19">
      <path d="M 51.621875 318.297359 
L 632.765625 318.297359 
" clip-path="url(#pf8ee1b202f)" style="fill: none; stroke-dasharray: 2.96,1.28; stroke-dashoffset: 0; stroke: #b0b0b0; stroke-opacity: 0.6; stroke-width: 0.8"/>
     </g>
     <g id="line2d_20">
      <g>
       <use xlink:href="#m634c6c6f2f" x="51.621875" y="318.297359" style="stroke: #000000; stroke-width: 0.8"/>
      </g>
     </g>
     <g id="text_11">
      <!-- 0.001 -->
      <g transform="translate(22.121875 321.769234) scale(0.1 -0.1)">
       <use xlink:href="#TimesNewRomanPSMT-30"/>
       <use xlink:href="#TimesNewRomanPSMT-2e" transform="translate(50 0)"/>
       <use xlink:href="#TimesNewRomanPSMT-30" transform="translate(75 0)"/>
       <use xlink:href="#TimesNewRomanPSMT-30" transform="translate(125 0)"/>
       <use xlink:href="#TimesNewRomanPSMT-31" transform="translate(175 0)"/>
      </g>
     </g>
    </g>
    <g id="ytick_3">
     <g id="line2d_21">
      <path d="M 51.621875 268.821138 
L 632.765625 268.821138 
" clip-path="url(#pf8ee1b202f)" style="fill: none; stroke-dasharray: 2.96,1.28; stroke-dashoffset: 0; stroke: #b0b0b0; stroke-opacity: 0.6; stroke-width: 0.8"/>
     </g>
     <g id="line2d_22">
      <g>
       <use xlink:href="#m634c6c6f2f" x="51.621875" y="268.821138" style="stroke: #000000; stroke-width: 0.8"/>
      </g>
     </g>
     <g id="text_12">
      <!-- 0.002 -->
      <g transform="translate(22.121875 272.293013) scale(0.1 -0.1)">
       <use xlink:href="#TimesNewRomanPSMT-30"/>
       <use xlink:href="#TimesNewRomanPSMT-2e" transform="translate(50 0)"/>
       <use xlink:href="#TimesNewRomanPSMT-30" transform="translate(75 0)"/>
       <use xlink:href="#TimesNewRomanPSMT-30" transform="translate(125 0)"/>
       <use xlink:href="#TimesNewRomanPSMT-32" transform="translate(175 0)"/>
      </g>
     </g>
    </g>
    <g id="ytick_4">
     <g id="line2d_23">
      <path d="M 51.621875 219.344918 
L 632.765625 219.344918 
" clip-path="url(#pf8ee1b202f)" style="fill: none; stroke-dasharray: 2.96,1.28; stroke-dashoffset: 0; stroke: #b0b0b0; stroke-opacity: 0.6; stroke-width: 0.8"/>
     </g>
     <g id="line2d_24">
      <g>
       <use xlink:href="#m634c6c6f2f" x="51.621875" y="219.344918" style="stroke: #000000; stroke-width: 0.8"/>
      </g>
     </g>
     <g id="text_13">
      <!-- 0.003 -->
      <g transform="translate(22.121875 222.816793) scale(0.1 -0.1)">
       <defs>
        <path id="TimesNewRomanPSMT-33" d="M 325 3431 
Q 506 3859 782 4092 
Q 1059 4325 1472 4325 
Q 1981 4325 2253 3994 
Q 2459 3747 2459 3466 
Q 2459 3003 1878 2509 
Q 2269 2356 2469 2072 
Q 2669 1788 2669 1403 
Q 2669 853 2319 450 
Q 1863 -75 997 -75 
Q 569 -75 414 31 
Q 259 138 259 259 
Q 259 350 332 419 
Q 406 488 509 488 
Q 588 488 669 463 
Q 722 447 909 348 
Q 1097 250 1169 231 
Q 1284 197 1416 197 
Q 1734 197 1970 444 
Q 2206 691 2206 1028 
Q 2206 1275 2097 1509 
Q 2016 1684 1919 1775 
Q 1784 1900 1550 2001 
Q 1316 2103 1072 2103 
L 972 2103 
L 972 2197 
Q 1219 2228 1467 2375 
Q 1716 2522 1828 2728 
Q 1941 2934 1941 3181 
Q 1941 3503 1739 3701 
Q 1538 3900 1238 3900 
Q 753 3900 428 3381 
L 325 3431 
z
" transform="scale(0.015625)"/>
       </defs>
       <use xlink:href="#TimesNewRomanPSMT-30"/>
       <use xlink:href="#TimesNewRomanPSMT-2e" transform="translate(50 0)"/>
       <use xlink:href="#TimesNewRomanPSMT-30" transform="translate(75 0)"/>
       <use xlink:href="#TimesNewRomanPSMT-30" transform="translate(125 0)"/>
       <use xlink:href="#TimesNewRomanPSMT-33" transform="translate(175 0)"/>
      </g>
     </g>
    </g>
    <g id="ytick_5">
     <g id="line2d_25">
      <path d="M 51.621875 169.868697 
L 632.765625 169.868697 
" clip-path="url(#pf8ee1b202f)" style="fill: none; stroke-dasharray: 2.96,1.28; stroke-dashoffset: 0; stroke: #b0b0b0; stroke-opacity: 0.6; stroke-width: 0.8"/>
     </g>
     <g id="line2d_26">
      <g>
       <use xlink:href="#m634c6c6f2f" x="51.621875" y="169.868697" style="stroke: #000000; stroke-width: 0.8"/>
      </g>
     </g>
     <g id="text_14">
      <!-- 0.004 -->
      <g transform="translate(22.121875 173.340572) scale(0.1 -0.1)">
       <defs>
        <path id="TimesNewRomanPSMT-34" d="M 2978 1563 
L 2978 1119 
L 2409 1119 
L 2409 0 
L 1894 0 
L 1894 1119 
L 100 1119 
L 100 1519 
L 2066 4325 
L 2409 4325 
L 2409 1563 
L 2978 1563 
z
M 1894 1563 
L 1894 3666 
L 406 1563 
L 1894 1563 
z
" transform="scale(0.015625)"/>
       </defs>
       <use xlink:href="#TimesNewRomanPSMT-30"/>
       <use xlink:href="#TimesNewRomanPSMT-2e" transform="translate(50 0)"/>
       <use xlink:href="#TimesNewRomanPSMT-30" transform="translate(75 0)"/>
       <use xlink:href="#TimesNewRomanPSMT-30" transform="translate(125 0)"/>
       <use xlink:href="#TimesNewRomanPSMT-34" transform="translate(175 0)"/>
      </g>
     </g>
    </g>
    <g id="ytick_6">
     <g id="line2d_27">
      <path d="M 51.621875 120.392477 
L 632.765625 120.392477 
" clip-path="url(#pf8ee1b202f)" style="fill: none; stroke-dasharray: 2.96,1.28; stroke-dashoffset: 0; stroke: #b0b0b0; stroke-opacity: 0.6; stroke-width: 0.8"/>
     </g>
     <g id="line2d_28">
      <g>
       <use xlink:href="#m634c6c6f2f" x="51.621875" y="120.392477" style="stroke: #000000; stroke-width: 0.8"/>
      </g>
     </g>
     <g id="text_15">
      <!-- 0.005 -->
      <g transform="translate(22.121875 123.864352) scale(0.1 -0.1)">
       <use xlink:href="#TimesNewRomanPSMT-30"/>
       <use xlink:href="#TimesNewRomanPSMT-2e" transform="translate(50 0)"/>
       <use xlink:href="#TimesNewRomanPSMT-30" transform="translate(75 0)"/>
       <use xlink:href="#TimesNewRomanPSMT-30" transform="translate(125 0)"/>
       <use xlink:href="#TimesNewRomanPSMT-35" transform="translate(175 0)"/>
      </g>
     </g>
    </g>
    <g id="ytick_7">
     <g id="line2d_29">
      <path d="M 51.621875 70.916256 
L 632.765625 70.916256 
" clip-path="url(#pf8ee1b202f)" style="fill: none; stroke-dasharray: 2.96,1.28; stroke-dashoffset: 0; stroke: #b0b0b0; stroke-opacity: 0.6; stroke-width: 0.8"/>
     </g>
     <g id="line2d_30">
      <g>
       <use xlink:href="#m634c6c6f2f" x="51.621875" y="70.916256" style="stroke: #000000; stroke-width: 0.8"/>
      </g>
     </g>
     <g id="text_16">
      <!-- 0.006 -->
      <g transform="translate(22.121875 74.388131) scale(0.1 -0.1)">
       <defs>
        <path id="TimesNewRomanPSMT-36" d="M 2869 4325 
L 2869 4209 
Q 2456 4169 2195 4045 
Q 1934 3922 1679 3669 
Q 1425 3416 1258 3105 
Q 1091 2794 978 2366 
Q 1428 2675 1881 2675 
Q 2316 2675 2634 2325 
Q 2953 1975 2953 1425 
Q 2953 894 2631 456 
Q 2244 -75 1606 -75 
Q 1172 -75 869 213 
Q 275 772 275 1663 
Q 275 2231 503 2743 
Q 731 3256 1154 3653 
Q 1578 4050 1965 4187 
Q 2353 4325 2688 4325 
L 2869 4325 
z
M 925 2138 
Q 869 1716 869 1456 
Q 869 1156 980 804 
Q 1091 453 1309 247 
Q 1469 100 1697 100 
Q 1969 100 2183 356 
Q 2397 613 2397 1088 
Q 2397 1622 2184 2012 
Q 1972 2403 1581 2403 
Q 1463 2403 1327 2353 
Q 1191 2303 925 2138 
z
" transform="scale(0.015625)"/>
       </defs>
       <use xlink:href="#TimesNewRomanPSMT-30"/>
       <use xlink:href="#TimesNewRomanPSMT-2e" transform="translate(50 0)"/>
       <use xlink:href="#TimesNewRomanPSMT-30" transform="translate(75 0)"/>
       <use xlink:href="#TimesNewRomanPSMT-30" transform="translate(125 0)"/>
       <use xlink:href="#TimesNewRomanPSMT-36" transform="translate(175 0)"/>
      </g>
     </g>
    </g>
    <g id="ytick_8">
     <g id="line2d_31">
      <path d="M 51.621875 21.440036 
L 632.765625 21.440036 
" clip-path="url(#pf8ee1b202f)" style="fill: none; stroke-dasharray: 2.96,1.28; stroke-dashoffset: 0; stroke: #b0b0b0; stroke-opacity: 0.6; stroke-width: 0.8"/>
     </g>
     <g id="line2d_32">
      <g>
       <use xlink:href="#m634c6c6f2f" x="51.621875" y="21.440036" style="stroke: #000000; stroke-width: 0.8"/>
      </g>
     </g>
     <g id="text_17">
      <!-- 0.007 -->
      <g transform="translate(22.121875 24.911911) scale(0.1 -0.1)">
       <use xlink:href="#TimesNewRomanPSMT-30"/>
       <use xlink:href="#TimesNewRomanPSMT-2e" transform="translate(50 0)"/>
       <use xlink:href="#TimesNewRomanPSMT-30" transform="translate(75 0)"/>
       <use xlink:href="#TimesNewRomanPSMT-30" transform="translate(125 0)"/>
       <use xlink:href="#TimesNewRomanPSMT-37" transform="translate(175 0)"/>
      </g>
     </g>
    </g>
    <g id="text_18">
     <!-- Probability Density f(t) -->
     <g transform="translate(15.5325 252.063125) rotate(-90) scale(0.12 -0.12)">
      <defs>
       <path id="TimesNewRomanPSMT-50" d="M 1313 1984 
L 1313 750 
Q 1313 350 1400 253 
Q 1519 116 1759 116 
L 1922 116 
L 1922 0 
L 106 0 
L 106 116 
L 266 116 
Q 534 116 650 291 
Q 713 388 713 750 
L 713 3488 
Q 713 3888 628 3984 
Q 506 4122 266 4122 
L 106 4122 
L 106 4238 
L 1659 4238 
Q 2228 4238 2556 4120 
Q 2884 4003 3109 3725 
Q 3334 3447 3334 3066 
Q 3334 2547 2992 2222 
Q 2650 1897 2025 1897 
Q 1872 1897 1694 1919 
Q 1516 1941 1313 1984 
z
M 1313 2163 
Q 1478 2131 1606 2115 
Q 1734 2100 1825 2100 
Q 2150 2100 2386 2351 
Q 2622 2603 2622 3003 
Q 2622 3278 2509 3514 
Q 2397 3750 2190 3867 
Q 1984 3984 1722 3984 
Q 1563 3984 1313 3925 
L 1313 2163 
z
" transform="scale(0.015625)"/>
       <path id="TimesNewRomanPSMT-6f" d="M 1600 2947 
Q 2250 2947 2644 2453 
Q 2978 2031 2978 1484 
Q 2978 1100 2793 706 
Q 2609 313 2286 112 
Q 1963 -88 1566 -88 
Q 919 -88 538 428 
Q 216 863 216 1403 
Q 216 1797 411 2186 
Q 606 2575 925 2761 
Q 1244 2947 1600 2947 
z
M 1503 2744 
Q 1338 2744 1170 2645 
Q 1003 2547 900 2300 
Q 797 2053 797 1666 
Q 797 1041 1045 587 
Q 1294 134 1700 134 
Q 2003 134 2200 384 
Q 2397 634 2397 1244 
Q 2397 2006 2069 2444 
Q 1847 2744 1503 2744 
z
" transform="scale(0.015625)"/>
       <path id="TimesNewRomanPSMT-62" d="M 984 2369 
Q 1400 2947 1881 2947 
Q 2322 2947 2650 2570 
Q 2978 2194 2978 1541 
Q 2978 778 2472 313 
Q 2038 -88 1503 -88 
Q 1253 -88 995 3 
Q 738 94 469 275 
L 469 3241 
Q 469 3728 445 3840 
Q 422 3953 372 3993 
Q 322 4034 247 4034 
Q 159 4034 28 3984 
L -16 4094 
L 844 4444 
L 984 4444 
L 984 2369 
z
M 984 2169 
L 984 456 
Q 1144 300 1314 220 
Q 1484 141 1663 141 
Q 1947 141 2192 453 
Q 2438 766 2438 1363 
Q 2438 1913 2192 2208 
Q 1947 2503 1634 2503 
Q 1469 2503 1303 2419 
Q 1178 2356 984 2169 
z
" transform="scale(0.015625)"/>
       <path id="TimesNewRomanPSMT-74" d="M 1031 3803 
L 1031 2863 
L 1700 2863 
L 1700 2644 
L 1031 2644 
L 1031 788 
Q 1031 509 1111 412 
Q 1191 316 1316 316 
Q 1419 316 1516 380 
Q 1613 444 1666 569 
L 1788 569 
Q 1678 263 1478 108 
Q 1278 -47 1066 -47 
Q 922 -47 784 33 
Q 647 113 581 261 
Q 516 409 516 719 
L 516 2644 
L 63 2644 
L 63 2747 
Q 234 2816 414 2980 
Q 594 3144 734 3369 
Q 806 3488 934 3803 
L 1031 3803 
z
" transform="scale(0.015625)"/>
       <path id="TimesNewRomanPSMT-6e" d="M 1034 2341 
Q 1538 2947 1994 2947 
Q 2228 2947 2397 2830 
Q 2566 2713 2666 2444 
Q 2734 2256 2734 1869 
L 2734 647 
Q 2734 375 2778 278 
Q 2813 200 2889 156 
Q 2966 113 3172 113 
L 3172 0 
L 1756 0 
L 1756 113 
L 1816 113 
Q 2016 113 2095 173 
Q 2175 234 2206 353 
Q 2219 400 2219 647 
L 2219 1819 
Q 2219 2209 2117 2386 
Q 2016 2563 1775 2563 
Q 1403 2563 1034 2156 
L 1034 647 
Q 1034 356 1069 288 
Q 1113 197 1189 155 
Q 1266 113 1500 113 
L 1500 0 
L 84 0 
L 84 113 
L 147 113 
Q 366 113 442 223 
Q 519 334 519 647 
L 519 1709 
Q 519 2225 495 2337 
Q 472 2450 423 2490 
Q 375 2531 294 2531 
Q 206 2531 84 2484 
L 38 2597 
L 900 2947 
L 1034 2947 
L 1034 2341 
z
" transform="scale(0.015625)"/>
       <path id="TimesNewRomanPSMT-66" d="M 1319 2638 
L 1319 756 
Q 1319 356 1406 250 
Q 1522 113 1716 113 
L 1975 113 
L 1975 0 
L 266 0 
L 266 113 
L 394 113 
Q 519 113 622 175 
Q 725 238 764 344 
Q 803 450 803 756 
L 803 2638 
L 247 2638 
L 247 2863 
L 803 2863 
L 803 3050 
Q 803 3478 940 3775 
Q 1078 4072 1361 4255 
Q 1644 4438 1997 4438 
Q 2325 4438 2600 4225 
Q 2781 4084 2781 3909 
Q 2781 3816 2700 3733 
Q 2619 3650 2525 3650 
Q 2453 3650 2373 3701 
Q 2294 3753 2178 3923 
Q 2063 4094 1966 4153 
Q 1869 4213 1750 4213 
Q 1606 4213 1506 4136 
Q 1406 4059 1362 3898 
Q 1319 3738 1319 3069 
L 1319 2863 
L 2056 2863 
L 2056 2638 
L 1319 2638 
z
" transform="scale(0.015625)"/>
      </defs>
      <use xlink:href="#TimesNewRomanPSMT-50"/>
      <use xlink:href="#TimesNewRomanPSMT-72" transform="translate(55.615234 0)"/>
      <use xlink:href="#TimesNewRomanPSMT-6f" transform="translate(88.916016 0)"/>
      <use xlink:href="#TimesNewRomanPSMT-62" transform="translate(138.916016 0)"/>
      <use xlink:href="#TimesNewRomanPSMT-61" transform="translate(188.916016 0)"/>
      <use xlink:href="#TimesNewRomanPSMT-62" transform="translate(233.300781 0)"/>
      <use xlink:href="#TimesNewRomanPSMT-69" transform="translate(283.300781 0)"/>
      <use xlink:href="#TimesNewRomanPSMT-6c" transform="translate(311.083984 0)"/>
      <use xlink:href="#TimesNewRomanPSMT-69" transform="translate(338.867188 0)"/>
      <use xlink:href="#TimesNewRomanPSMT-74" transform="translate(366.650391 0)"/>
      <use xlink:href="#TimesNewRomanPSMT-79" transform="translate(394.433594 0)"/>
      <use xlink:href="#TimesNewRomanPSMT-20" transform="translate(444.433594 0)"/>
      <use xlink:href="#TimesNewRomanPSMT-44" transform="translate(469.433594 0)"/>
      <use xlink:href="#TimesNewRomanPSMT-65" transform="translate(541.650391 0)"/>
      <use xlink:href="#TimesNewRomanPSMT-6e" transform="translate(586.035156 0)"/>
      <use xlink:href="#TimesNewRomanPSMT-73" transform="translate(636.035156 0)"/>
      <use xlink:href="#TimesNewRomanPSMT-69" transform="translate(674.951172 0)"/>
      <use xlink:href="#TimesNewRomanPSMT-74" transform="translate(702.734375 0)"/>
      <use xlink:href="#TimesNewRomanPSMT-79" transform="translate(730.517578 0)"/>
      <use xlink:href="#TimesNewRomanPSMT-20" transform="translate(780.517578 0)"/>
      <use xlink:href="#TimesNewRomanPSMT-66" transform="translate(805.517578 0)"/>
      <use xlink:href="#TimesNewRomanPSMT-28" transform="translate(838.818359 0)"/>
      <use xlink:href="#TimesNewRomanPSMT-74" transform="translate(872.119141 0)"/>
      <use xlink:href="#TimesNewRomanPSMT-29" transform="translate(899.902344 0)"/>
     </g>
    </g>
   </g>
   <g id="line2d_33">
    <path d="M 78.0375 28.866956 
L 81.213727 53.187008 
L 84.389955 75.761845 
L 87.566182 96.716704 
L 90.74241 116.167836 
L 93.918637 134.223148 
L 97.094865 150.982804 
L 100.271092 166.539782 
L 103.44732 180.980387 
L 106.623547 194.384728 
L 109.799775 206.82717 
L 112.976002 218.376738 
L 116.152229 229.097505 
L 119.328457 239.048946 
L 122.504684 248.286269 
L 125.680912 256.860718 
L 128.857139 264.819862 
L 132.033367 272.207855 
L 135.209594 279.065683 
L 138.385822 285.431391 
L 141.562049 291.340294 
L 144.738277 296.825172 
L 147.914504 301.916453 
L 151.090731 306.642382 
L 154.266959 311.029177 
L 157.443186 315.101175 
L 160.619414 318.880964 
L 163.795641 322.389514 
L 168.030611 326.679093 
L 172.265581 330.563232 
L 176.500551 334.080253 
L 180.735521 337.264855 
L 184.970491 340.148457 
L 189.205461 342.759508 
L 193.440431 345.12377 
L 197.675401 347.264569 
L 202.969113 349.658305 
L 208.262826 351.772653 
L 213.556538 353.640222 
L 218.850251 355.289816 
L 225.202705 357.017208 
L 231.55516 358.505579 
L 238.966358 359.983779 
L 246.377555 361.226214 
L 254.847495 362.405401 
L 264.376177 363.480121 
L 274.963602 364.423866 
L 286.60977 365.224237 
L 300.373422 365.927337 
L 316.254559 366.50128 
L 335.311924 366.959719 
L 359.663001 367.313735 
L 393.542761 367.565776 
L 447.538627 367.714983 
L 569.294013 367.770205 
L 606.35 367.772164 
L 606.35 367.772164 
" clip-path="url(#pf8ee1b202f)" style="fill: none; stroke: #1f77b4; stroke-width: 1.5; stroke-linecap: square"/>
   </g>
   <g id="line2d_34">
    <path d="M 78.0375 285.788005 
L 86.50744 269.03507 
L 90.74241 261.068575 
L 93.918637 255.432769 
L 97.094865 250.179166 
L 100.271092 245.387449 
L 103.44732 241.132651 
L 105.564805 238.628528 
L 107.68229 236.411889 
L 109.799775 234.499109 
L 111.91726 232.904473 
L 114.034744 231.639998 
L 116.152229 230.71528 
L 118.269714 230.137377 
L 120.387199 229.910714 
L 122.504684 230.03703 
L 124.622169 230.515357 
L 126.739654 231.342027 
L 128.857139 232.510726 
L 130.974624 234.012567 
L 133.092109 235.836208 
L 135.209594 237.967993 
L 137.327079 240.392121 
L 139.444564 243.090843 
L 142.620792 247.610754 
L 145.797019 252.632497 
L 148.973246 258.078572 
L 153.208216 265.859451 
L 158.501929 276.1442 
L 172.265581 303.301972 
L 176.500551 311.157979 
L 180.735521 318.563639 
L 184.970491 325.436717 
L 188.146718 330.20739 
L 191.322946 334.632092 
L 194.499173 338.703701 
L 197.675401 342.421662 
L 200.851628 345.791196 
L 204.027856 348.82245 
L 207.204083 351.529623 
L 210.380311 353.930112 
L 213.556538 356.043678 
L 216.732766 357.891686 
L 219.908993 359.4964 
L 223.08522 360.880379 
L 226.261448 362.065949 
L 230.496418 363.375383 
L 234.731388 364.418966 
L 238.966358 365.241022 
L 244.26007 366.016884 
L 249.553783 366.574414 
L 255.906237 367.031042 
L 264.376177 367.395492 
L 276.022345 367.63379 
L 295.079709 367.750365 
L 355.428031 367.773559 
L 606.35 367.77358 
L 606.35 367.77358 
" clip-path="url(#pf8ee1b202f)" style="fill: none; stroke: #ff7f0e; stroke-width: 1.5; stroke-linecap: square"/>
   </g>
   <g id="line2d_35">
    <path d="M 78.0375 41.102069 
L 81.213727 62.895 
L 84.389955 83.294243 
L 87.566182 102.384712 
L 90.74241 120.246432 
L 93.918637 136.954804 
L 97.094865 152.580851 
L 100.271092 167.191463 
L 103.44732 180.849612 
L 106.623547 193.614576 
L 109.799775 205.542136 
L 112.976002 216.684771 
L 116.152229 227.091843 
L 119.328457 236.809768 
L 122.504684 245.882183 
L 125.680912 254.350101 
L 128.857139 262.252062 
L 132.033367 269.624268 
L 135.209594 276.500721 
L 138.385822 282.91335 
L 141.562049 288.892124 
L 144.738277 294.465171 
L 147.914504 299.658883 
L 151.090731 304.498016 
L 154.266959 309.005787 
L 157.443186 313.203964 
L 160.619414 317.112951 
L 163.795641 320.75187 
L 168.030611 325.214456 
L 172.265581 329.268 
L 176.500551 332.948558 
L 180.735521 336.289149 
L 184.970491 339.319992 
L 189.205461 342.068738 
L 193.440431 344.56067 
L 197.675401 346.818903 
L 201.910371 348.864558 
L 207.204083 351.151912 
L 212.497796 353.171153 
L 217.791508 354.952625 
L 223.08522 356.523371 
L 229.437675 358.16383 
L 235.79013 359.572024 
L 243.201328 360.963585 
L 250.612525 362.125545 
L 259.082465 363.219207 
L 268.611147 364.204999 
L 279.198572 365.058249 
L 290.844739 365.768627 
L 304.608392 366.37771 
L 321.548272 366.884527 
L 342.723121 367.27198 
L 370.250426 367.538555 
L 412.600125 367.702603 
L 500.475752 367.768331 
L 606.35 367.773396 
L 606.35 367.773396 
" clip-path="url(#pf8ee1b202f)" style="fill: none; stroke: #2ca02c; stroke-width: 1.5; stroke-linecap: square"/>
   </g>
   <g id="line2d_36">
    <path d="M 78.0375 367.77358 
L 79.096242 333.287526 
L 81.213727 175.568356 
L 82.27247 117.97025 
L 83.331212 77.68435 
L 84.389955 51.235248 
L 85.448697 35.247418 
L 86.50744 26.988311 
L 87.566182 24.37017 
L 88.624925 25.831567 
L 89.683667 30.213431 
L 90.74241 36.656894 
L 91.801152 44.525237 
L 93.918637 62.768259 
L 101.329835 130.409278 
L 104.506062 156.102581 
L 106.623547 171.676638 
L 108.741032 186.023258 
L 110.858517 199.200222 
L 112.976002 211.283068 
L 115.093487 222.354357 
L 117.210972 232.497417 
L 119.328457 241.792802 
L 121.445942 250.316414 
L 123.563427 258.13861 
L 125.680912 265.323922 
L 127.798397 271.931122 
L 129.915882 278.013487 
L 132.033367 283.619168 
L 134.150852 288.791598 
L 137.327079 295.822445 
L 140.503307 302.081743 
L 143.679534 307.668767 
L 146.855762 312.668499 
L 150.031989 317.153805 
L 153.208216 321.187301 
L 156.384444 324.822922 
L 159.560671 328.107245 
L 162.736899 331.0806 
L 165.913126 333.777998 
L 169.089354 336.229914 
L 173.324324 339.162759 
L 177.559294 341.760163 
L 181.794264 344.067574 
L 186.029233 346.123361 
L 190.264203 347.960048 
L 195.557916 349.989577 
L 200.851628 351.76512 
L 206.145341 353.324173 
L 212.497796 354.952748 
L 218.850251 356.358373 
L 226.261448 357.763932 
L 234.731388 359.1164 
L 243.201328 360.248975 
L 252.73001 361.31179 
L 264.376177 362.370251 
L 277.081087 363.291356 
L 291.903482 364.133823 
L 308.843362 364.870947 
L 328.959469 365.522924 
L 354.369289 366.10936 
L 386.131563 366.602057 
L 427.42252 367.003638 
L 484.594614 367.318417 
L 570.352756 367.546398 
L 606.35 367.599277 
L 606.35 367.599277 
" clip-path="url(#pf8ee1b202f)" style="fill: none; stroke: #d62728; stroke-width: 1.5; stroke-linecap: square"/>
   </g>
   <g id="line2d_37">
    <path d="M 78.0375 266.695086 
L 79.096242 148.805052 
L 80.154985 131.689227 
L 81.213727 123.10249 
L 82.27247 118.365923 
L 83.331212 115.882644 
L 84.389955 114.893298 
L 85.448697 114.969296 
L 86.50744 115.841415 
L 87.566182 117.327641 
L 88.624925 119.298139 
L 89.683667 121.656447 
L 91.801152 127.256359 
L 93.918637 133.70044 
L 97.094865 144.355496 
L 101.329835 159.510154 
L 110.858517 193.959529 
L 115.093487 208.5308 
L 119.328457 222.369165 
L 123.563427 235.385174 
L 127.798397 247.53675 
L 130.974624 256.076229 
L 134.150852 264.127567 
L 137.327079 271.700023 
L 140.503307 278.806609 
L 143.679534 285.463043 
L 146.855762 291.68694 
L 150.031989 297.497176 
L 153.208216 302.913386 
L 156.384444 307.95557 
L 159.560671 312.643786 
L 162.736899 316.997909 
L 165.913126 321.037448 
L 169.089354 324.781402 
L 172.265581 328.248159 
L 175.441809 331.455418 
L 178.618036 334.420136 
L 182.853006 338.023668 
L 187.087976 341.260863 
L 191.322946 344.16537 
L 195.557916 346.768352 
L 199.792886 349.098551 
L 204.027856 351.182389 
L 208.262826 353.044077 
L 213.556538 355.092304 
L 218.850251 356.86679 
L 224.143963 358.402102 
L 229.437675 359.728822 
L 235.79013 361.083305 
L 242.142585 362.216635 
L 249.553783 363.305285 
L 258.023722 364.297423 
L 267.552405 365.158821 
L 278.13983 365.87315 
L 290.844739 366.482303 
L 305.667134 366.954692 
L 324.724499 367.320702 
L 350.134319 367.570222 
L 390.366533 367.717637 
L 482.477129 367.770916 
L 606.35 367.773542 
L 606.35 367.773542 
" clip-path="url(#pf8ee1b202f)" style="fill: none; stroke: #9467bd; stroke-width: 1.5; stroke-linecap: square"/>
   </g>
   <g id="line2d_38">
    <path d="M 78.0375 367.77358 
L 79.096242 141.634596 
L 80.154985 122.503573 
L 81.213727 114.129069 
L 82.27247 109.989508 
L 83.331212 108.187454 
L 84.389955 107.880614 
L 85.448697 108.612494 
L 86.50744 110.10415 
L 87.566182 112.170808 
L 88.624925 114.682776 
L 90.74241 120.685312 
L 92.859895 127.587334 
L 96.036122 138.939599 
L 101.329835 159.01023 
L 108.741032 187.013112 
L 112.976002 202.247469 
L 117.210972 216.684955 
L 121.445942 230.236955 
L 125.680912 242.865769 
L 128.857139 251.728065 
L 132.033367 260.074962 
L 135.209594 267.91823 
L 138.385822 275.273256 
L 141.562049 282.157965 
L 144.738277 288.591996 
L 147.914504 294.596055 
L 151.090731 300.19142 
L 154.266959 305.399562 
L 157.443186 310.241847 
L 160.619414 314.739306 
L 163.795641 318.912473 
L 166.971869 322.78125 
L 170.148096 326.364823 
L 173.324324 329.681591 
L 176.500551 332.74913 
L 180.735521 336.480285 
L 184.970491 339.835296 
L 189.205461 342.848764 
L 193.440431 345.552662 
L 197.675401 347.976434 
L 201.910371 350.147106 
L 206.145341 352.089417 
L 210.380311 353.825956 
L 215.674023 355.738431 
L 220.967735 357.39753 
L 226.261448 358.835232 
L 232.613903 360.307754 
L 238.966358 361.54443 
L 246.377555 362.737362 
L 253.788753 363.707301 
L 262.258692 364.594239 
L 271.787375 365.367588 
L 283.433542 366.066596 
L 296.138452 366.603314 
L 312.019589 367.046592 
L 332.135696 367.378281 
L 360.721743 367.609087 
L 408.365155 367.736388 
L 536.472996 367.77298 
L 606.35 367.77352 
L 606.35 367.77352 
" clip-path="url(#pf8ee1b202f)" style="fill: none; stroke: #8c564b; stroke-width: 1.5; stroke-linecap: square"/>
   </g>
   <g id="line2d_39">
    <path d="M 78.0375 338.025113 
L 79.096242 198.225872 
L 80.154985 165.655128 
L 81.213727 146.732684 
L 82.27247 134.433956 
L 83.331212 126.178248 
L 84.389955 120.678663 
L 85.448697 117.183544 
L 86.50744 115.208478 
L 87.566182 114.419559 
L 88.624925 114.575121 
L 89.683667 115.493703 
L 90.74241 117.035092 
L 91.801152 119.088457 
L 92.859895 121.564567 
L 94.97738 127.505889 
L 97.094865 134.411113 
L 100.271092 145.905896 
L 104.506062 162.291448 
L 112.976002 195.247524 
L 117.210972 210.842645 
L 121.445942 225.531705 
L 124.622169 235.891881 
L 127.798397 245.668651 
L 130.974624 254.85932 
L 134.150852 263.471375 
L 137.327079 271.519497 
L 140.503307 279.023335 
L 143.679534 286.005852 
L 146.855762 292.492086 
L 150.031989 298.508222 
L 153.208216 304.080897 
L 156.384444 309.236687 
L 159.560671 314.001726 
L 162.736899 318.401435 
L 165.913126 322.460329 
L 169.089354 326.201883 
L 172.265581 329.648454 
L 175.441809 332.821231 
L 178.618036 335.740217 
L 181.794264 338.424235 
L 186.029233 341.667775 
L 190.264203 344.563599 
L 194.499173 347.147039 
L 198.734143 349.450215 
L 202.969113 351.502244 
L 207.204083 353.329461 
L 212.497796 355.333321 
L 217.791508 357.064178 
L 223.08522 358.558194 
L 228.378933 359.846965 
L 234.731388 361.161106 
L 241.083843 362.260104 
L 248.49504 363.316188 
L 256.96498 364.280225 
L 266.493662 365.120037 
L 277.081087 365.820364 
L 289.785997 366.422832 
L 304.608392 366.896355 
L 323.665757 367.270921 
L 349.075576 367.53501 
L 388.249048 367.698339 
L 469.772219 367.766861 
L 606.35 367.773465 
L 606.35 367.773465 
" clip-path="url(#pf8ee1b202f)" style="fill: none; stroke: #e377c2; stroke-width: 1.5; stroke-linecap: square"/>
   </g>
   <g id="line2d_40">
    <path d="M 78.0375 367.77358 
L 79.096242 191.734779 
L 80.154985 156.096088 
L 81.213727 137.295973 
L 82.27247 125.758742 
L 83.331212 118.420275 
L 84.389955 113.848003 
L 85.448697 111.238189 
L 86.50744 110.087446 
L 87.566182 110.056307 
L 88.624925 110.903382 
L 89.683667 112.450067 
L 90.74241 114.560099 
L 91.801152 117.126961 
L 93.918637 123.307698 
L 96.036122 130.484967 
L 99.21235 142.387742 
L 104.506062 163.53394 
L 110.858517 188.832048 
L 115.093487 204.886869 
L 119.328457 220.016306 
L 122.504684 230.689623 
L 125.680912 240.763646 
L 128.857139 250.235608 
L 132.033367 259.113413 
L 135.209594 267.41241 
L 138.385822 275.153033 
L 141.562049 282.359065 
L 144.738277 289.056346 
L 147.914504 295.271827 
L 151.090731 301.032862 
L 154.266959 306.366689 
L 157.443186 311.300051 
L 160.619414 315.85893 
L 163.795641 320.068354 
L 166.971869 323.952271 
L 170.148096 327.533474 
L 173.324324 330.833557 
L 176.500551 333.8729 
L 179.676779 336.670676 
L 183.911748 340.056199 
L 188.146718 343.08359 
L 192.381688 345.788862 
L 196.616658 348.204769 
L 200.851628 350.361022 
L 205.086598 352.284517 
L 209.321568 353.999548 
L 214.615281 355.883354 
L 219.908993 357.513566 
L 225.202705 358.923501 
L 231.55516 360.365384 
L 237.907615 361.575136 
L 245.318813 362.7418 
L 252.73001 363.690979 
L 261.19995 364.560415 
L 270.728632 365.320914 
L 282.3748 366.011998 
L 296.138452 366.583545 
L 313.078332 367.040268 
L 334.253181 367.373978 
L 363.897971 367.603278 
L 413.658868 367.73314 
L 543.884193 367.772663 
L 606.35 367.773432 
L 606.35 367.773432 
" clip-path="url(#pf8ee1b202f)" style="fill: none; stroke: #7f7f7f; stroke-width: 1.5; stroke-linecap: square"/>
   </g>
   <g id="patch_3">
    <path d="M 51.621875 384.94375 
L 51.621875 7.2 
" style="fill: none; stroke: #000000; stroke-width: 0.8; stroke-linejoin: miter; stroke-linecap: square"/>
   </g>
   <g id="patch_4">
    <path d="M 632.765625 384.94375 
L 632.765625 7.2 
" style="fill: none; stroke: #000000; stroke-width: 0.8; stroke-linejoin: miter; stroke-linecap: square"/>
   </g>
   <g id="patch_5">
    <path d="M 51.621875 384.94375 
L 632.765625 384.94375 
" style="fill: none; stroke: #000000; stroke-width: 0.8; stroke-linejoin: miter; stroke-linecap: square"/>
   </g>
   <g id="patch_6">
    <path d="M 51.621875 7.2 
L 632.765625 7.2 
" style="fill: none; stroke: #000000; stroke-width: 0.8; stroke-linejoin: miter; stroke-linecap: square"/>
   </g>
   <g id="legend_1">
    <g id="patch_7">
     <path d="M 463.304062 65.368125 
L 626.465625 65.368125 
Q 628.265625 65.368125 628.265625 63.568125 
L 628.265625 13.5 
Q 628.265625 11.7 626.465625 11.7 
L 463.304062 11.7 
Q 461.504062 11.7 461.504062 13.5 
L 461.504062 63.568125 
Q 461.504062 65.368125 463.304062 65.368125 
z
" style="fill: #ffffff; opacity: 0.8; stroke: #cccccc; stroke-linejoin: miter"/>
    </g>
    <g id="line2d_41">
     <path d="M 465.104062 18.45 
L 474.104062 18.45 
L 483.104062 18.45 
" style="fill: none; stroke: #1f77b4; stroke-width: 1.5; stroke-linecap: square"/>
    </g>
    <g id="text_19">
     <!-- Exponential -->
     <g transform="translate(490.304062 21.6) scale(0.09 -0.09)">
      <defs>
       <path id="TimesNewRomanPSMT-45" d="M 1338 4006 
L 1338 2331 
L 2269 2331 
Q 2631 2331 2753 2441 
Q 2916 2584 2934 2947 
L 3050 2947 
L 3050 1472 
L 2934 1472 
Q 2891 1781 2847 1869 
Q 2791 1978 2662 2040 
Q 2534 2103 2269 2103 
L 1338 2103 
L 1338 706 
Q 1338 425 1363 364 
Q 1388 303 1450 267 
Q 1513 231 1688 231 
L 2406 231 
Q 2766 231 2928 281 
Q 3091 331 3241 478 
Q 3434 672 3638 1063 
L 3763 1063 
L 3397 0 
L 131 0 
L 131 116 
L 281 116 
Q 431 116 566 188 
Q 666 238 702 338 
Q 738 438 738 747 
L 738 3500 
Q 738 3903 656 3997 
Q 544 4122 281 4122 
L 131 4122 
L 131 4238 
L 3397 4238 
L 3444 3309 
L 3322 3309 
Q 3256 3644 3176 3769 
Q 3097 3894 2941 3959 
Q 2816 4006 2500 4006 
L 1338 4006 
z
" transform="scale(0.015625)"/>
       <path id="TimesNewRomanPSMT-78" d="M 84 2863 
L 1431 2863 
L 1431 2747 
Q 1303 2747 1251 2703 
Q 1200 2659 1200 2588 
Q 1200 2513 1309 2356 
Q 1344 2306 1413 2200 
L 1616 1875 
L 1850 2200 
Q 2075 2509 2075 2591 
Q 2075 2656 2022 2701 
Q 1969 2747 1850 2747 
L 1850 2863 
L 2819 2863 
L 2819 2747 
Q 2666 2738 2553 2663 
Q 2400 2556 2134 2200 
L 1744 1678 
L 2456 653 
Q 2719 275 2831 198 
Q 2944 122 3122 113 
L 3122 0 
L 1772 0 
L 1772 113 
Q 1913 113 1991 175 
Q 2050 219 2050 291 
Q 2050 363 1850 653 
L 1431 1266 
L 972 653 
Q 759 369 759 316 
Q 759 241 829 180 
Q 900 119 1041 113 
L 1041 0 
L 106 0 
L 106 113 
Q 219 128 303 191 
Q 422 281 703 653 
L 1303 1450 
L 759 2238 
Q 528 2575 401 2661 
Q 275 2747 84 2747 
L 84 2863 
z
" transform="scale(0.015625)"/>
       <path id="TimesNewRomanPSMT-70" d="M -6 2578 
L 875 2934 
L 994 2934 
L 994 2266 
Q 1216 2644 1439 2795 
Q 1663 2947 1909 2947 
Q 2341 2947 2628 2609 
Q 2981 2197 2981 1534 
Q 2981 794 2556 309 
Q 2206 -88 1675 -88 
Q 1444 -88 1275 -22 
Q 1150 25 994 166 
L 994 -706 
Q 994 -1000 1030 -1079 
Q 1066 -1159 1155 -1206 
Q 1244 -1253 1478 -1253 
L 1478 -1369 
L -22 -1369 
L -22 -1253 
L 56 -1253 
Q 228 -1256 350 -1188 
Q 409 -1153 442 -1076 
Q 475 -1000 475 -688 
L 475 2019 
Q 475 2297 450 2372 
Q 425 2447 370 2484 
Q 316 2522 222 2522 
Q 147 2522 31 2478 
L -6 2578 
z
M 994 2081 
L 994 1013 
Q 994 666 1022 556 
Q 1066 375 1236 237 
Q 1406 100 1666 100 
Q 1978 100 2172 344 
Q 2425 663 2425 1241 
Q 2425 1897 2138 2250 
Q 1938 2494 1663 2494 
Q 1513 2494 1366 2419 
Q 1253 2363 994 2081 
z
" transform="scale(0.015625)"/>
      </defs>
      <use xlink:href="#TimesNewRomanPSMT-45"/>
      <use xlink:href="#TimesNewRomanPSMT-78" transform="translate(61.083984 0)"/>
      <use xlink:href="#TimesNewRomanPSMT-70" transform="translate(111.083984 0)"/>
      <use xlink:href="#TimesNewRomanPSMT-6f" transform="translate(161.083984 0)"/>
      <use xlink:href="#TimesNewRomanPSMT-6e" transform="translate(211.083984 0)"/>
      <use xlink:href="#TimesNewRomanPSMT-65" transform="translate(261.083984 0)"/>
      <use xlink:href="#TimesNewRomanPSMT-6e" transform="translate(305.46875 0)"/>
      <use xlink:href="#TimesNewRomanPSMT-74" transform="translate(355.46875 0)"/>
      <use xlink:href="#TimesNewRomanPSMT-69" transform="translate(383.251953 0)"/>
      <use xlink:href="#TimesNewRomanPSMT-61" transform="translate(411.035156 0)"/>
      <use xlink:href="#TimesNewRomanPSMT-6c" transform="translate(455.419922 0)"/>
     </g>
    </g>
    <g id="line2d_42">
     <path d="M 465.104062 31.175156 
L 474.104062 31.175156 
L 483.104062 31.175156 
" style="fill: none; stroke: #ff7f0e; stroke-width: 1.5; stroke-linecap: square"/>
    </g>
    <g id="text_20">
     <!-- Normal -->
     <g transform="translate(490.304062 34.325156) scale(0.09 -0.09)">
      <defs>
       <path id="TimesNewRomanPSMT-4e" d="M -84 4238 
L 1066 4238 
L 3656 1059 
L 3656 3503 
Q 3656 3894 3569 3991 
Q 3453 4122 3203 4122 
L 3056 4122 
L 3056 4238 
L 4531 4238 
L 4531 4122 
L 4381 4122 
Q 4113 4122 4000 3959 
Q 3931 3859 3931 3503 
L 3931 -69 
L 3819 -69 
L 1025 3344 
L 1025 734 
Q 1025 344 1109 247 
Q 1228 116 1475 116 
L 1625 116 
L 1625 0 
L 150 0 
L 150 116 
L 297 116 
Q 569 116 681 278 
Q 750 378 750 734 
L 750 3681 
Q 566 3897 470 3965 
Q 375 4034 191 4094 
Q 100 4122 -84 4122 
L -84 4238 
z
" transform="scale(0.015625)"/>
      </defs>
      <use xlink:href="#TimesNewRomanPSMT-4e"/>
      <use xlink:href="#TimesNewRomanPSMT-6f" transform="translate(72.216797 0)"/>
      <use xlink:href="#TimesNewRomanPSMT-72" transform="translate(122.216797 0)"/>
      <use xlink:href="#TimesNewRomanPSMT-6d" transform="translate(155.517578 0)"/>
      <use xlink:href="#TimesNewRomanPSMT-61" transform="translate(233.300781 0)"/>
      <use xlink:href="#TimesNewRomanPSMT-6c" transform="translate(277.685547 0)"/>
     </g>
    </g>
    <g id="line2d_43">
     <path d="M 465.104062 43.900313 
L 474.104062 43.900313 
L 483.104062 43.900313 
" style="fill: none; stroke: #2ca02c; stroke-width: 1.5; stroke-linecap: square"/>
    </g>
    <g id="text_21">
     <!-- TruncNormal -->
     <g transform="translate(490.304062 47.050313) scale(0.09 -0.09)">
      <defs>
       <path id="TimesNewRomanPSMT-63" d="M 2631 1088 
Q 2516 522 2178 217 
Q 1841 -88 1431 -88 
Q 944 -88 581 321 
Q 219 731 219 1428 
Q 219 2103 620 2525 
Q 1022 2947 1584 2947 
Q 2006 2947 2278 2723 
Q 2550 2500 2550 2259 
Q 2550 2141 2473 2067 
Q 2397 1994 2259 1994 
Q 2075 1994 1981 2113 
Q 1928 2178 1911 2362 
Q 1894 2547 1784 2644 
Q 1675 2738 1481 2738 
Q 1169 2738 978 2506 
Q 725 2200 725 1697 
Q 725 1184 976 792 
Q 1228 400 1656 400 
Q 1963 400 2206 609 
Q 2378 753 2541 1131 
L 2631 1088 
z
" transform="scale(0.015625)"/>
      </defs>
      <use xlink:href="#TimesNewRomanPSMT-54"/>
      <use xlink:href="#TimesNewRomanPSMT-72" transform="translate(57.583984 0)"/>
      <use xlink:href="#TimesNewRomanPSMT-75" transform="translate(90.884766 0)"/>
      <use xlink:href="#TimesNewRomanPSMT-6e" transform="translate(140.884766 0)"/>
      <use xlink:href="#TimesNewRomanPSMT-63" transform="translate(190.884766 0)"/>
      <use xlink:href="#TimesNewRomanPSMT-4e" transform="translate(235.269531 0)"/>
      <use xlink:href="#TimesNewRomanPSMT-6f" transform="translate(307.486328 0)"/>
      <use xlink:href="#TimesNewRomanPSMT-72" transform="translate(357.486328 0)"/>
      <use xlink:href="#TimesNewRomanPSMT-6d" transform="translate(390.787109 0)"/>
      <use xlink:href="#TimesNewRomanPSMT-61" transform="translate(468.570312 0)"/>
      <use xlink:href="#TimesNewRomanPSMT-6c" transform="translate(512.955078 0)"/>
     </g>
    </g>
    <g id="line2d_44">
     <path d="M 465.104062 56.625469 
L 474.104062 56.625469 
L 483.104062 56.625469 
" style="fill: none; stroke: #d62728; stroke-width: 1.5; stroke-linecap: square"/>
    </g>
    <g id="text_22">
     <!-- LogNormal -->
     <g transform="translate(490.304062 59.775469) scale(0.09 -0.09)">
      <defs>
       <path id="TimesNewRomanPSMT-4c" d="M 3669 1172 
L 3772 1150 
L 3409 0 
L 128 0 
L 128 116 
L 288 116 
Q 556 116 672 291 
Q 738 391 738 753 
L 738 3488 
Q 738 3884 650 3984 
Q 528 4122 288 4122 
L 128 4122 
L 128 4238 
L 2047 4238 
L 2047 4122 
Q 1709 4125 1573 4059 
Q 1438 3994 1388 3894 
Q 1338 3794 1338 3416 
L 1338 753 
Q 1338 494 1388 397 
Q 1425 331 1503 300 
Q 1581 269 1991 269 
L 2300 269 
Q 2788 269 2984 341 
Q 3181 413 3343 595 
Q 3506 778 3669 1172 
z
" transform="scale(0.015625)"/>
       <path id="TimesNewRomanPSMT-67" d="M 966 1044 
Q 703 1172 562 1401 
Q 422 1631 422 1909 
Q 422 2334 742 2640 
Q 1063 2947 1563 2947 
Q 1972 2947 2272 2747 
L 2878 2747 
Q 3013 2747 3034 2739 
Q 3056 2731 3066 2713 
Q 3084 2684 3084 2613 
Q 3084 2531 3069 2500 
Q 3059 2484 3036 2475 
Q 3013 2466 2878 2466 
L 2506 2466 
Q 2681 2241 2681 1891 
Q 2681 1491 2375 1206 
Q 2069 922 1553 922 
Q 1341 922 1119 984 
Q 981 866 932 777 
Q 884 688 884 625 
Q 884 572 936 522 
Q 988 472 1138 450 
Q 1225 438 1575 428 
Q 2219 413 2409 384 
Q 2700 344 2873 169 
Q 3047 -6 3047 -263 
Q 3047 -616 2716 -925 
Q 2228 -1381 1444 -1381 
Q 841 -1381 425 -1109 
Q 191 -953 191 -784 
Q 191 -709 225 -634 
Q 278 -519 444 -313 
Q 466 -284 763 25 
Q 600 122 533 198 
Q 466 275 466 372 
Q 466 481 555 628 
Q 644 775 966 1044 
z
M 1509 2797 
Q 1278 2797 1122 2612 
Q 966 2428 966 2047 
Q 966 1553 1178 1281 
Q 1341 1075 1591 1075 
Q 1828 1075 1981 1253 
Q 2134 1431 2134 1813 
Q 2134 2309 1919 2591 
Q 1759 2797 1509 2797 
z
M 934 0 
Q 788 -159 713 -296 
Q 638 -434 638 -550 
Q 638 -700 819 -813 
Q 1131 -1006 1722 -1006 
Q 2284 -1006 2551 -807 
Q 2819 -609 2819 -384 
Q 2819 -222 2659 -153 
Q 2497 -84 2016 -72 
Q 1313 -53 934 0 
z
" transform="scale(0.015625)"/>
      </defs>
      <use xlink:href="#TimesNewRomanPSMT-4c"/>
      <use xlink:href="#TimesNewRomanPSMT-6f" transform="translate(61.083984 0)"/>
      <use xlink:href="#TimesNewRomanPSMT-67" transform="translate(111.083984 0)"/>
      <use xlink:href="#TimesNewRomanPSMT-4e" transform="translate(161.083984 0)"/>
      <use xlink:href="#TimesNewRomanPSMT-6f" transform="translate(233.300781 0)"/>
      <use xlink:href="#TimesNewRomanPSMT-72" transform="translate(283.300781 0)"/>
      <use xlink:href="#TimesNewRomanPSMT-6d" transform="translate(316.601562 0)"/>
      <use xlink:href="#TimesNewRomanPSMT-61" transform="translate(394.384766 0)"/>
      <use xlink:href="#TimesNewRomanPSMT-6c" transform="translate(438.769531 0)"/>
     </g>
    </g>
    <g id="line2d_45">
     <path d="M 556.970156 18.45 
L 565.970156 18.45 
L 574.970156 18.45 
" style="fill: none; stroke: #9467bd; stroke-width: 1.5; stroke-linecap: square"/>
    </g>
    <g id="text_23">
     <!-- Weibull_2P -->
     <g transform="translate(582.170156 21.6) scale(0.09 -0.09)">
      <defs>
       <path id="TimesNewRomanPSMT-57" d="M 5991 4238 
L 5991 4122 
Q 5825 4122 5722 4062 
Q 5619 4003 5525 3841 
Q 5463 3731 5328 3319 
L 4147 -97 
L 4022 -97 
L 3056 2613 
L 2097 -97 
L 1984 -97 
L 725 3422 
Q 584 3816 547 3888 
Q 484 4006 376 4064 
Q 269 4122 84 4122 
L 84 4238 
L 1653 4238 
L 1653 4122 
L 1578 4122 
Q 1413 4122 1325 4047 
Q 1238 3972 1238 3866 
Q 1238 3756 1375 3363 
L 2209 984 
L 2913 3006 
L 2788 3363 
L 2688 3647 
Q 2622 3803 2541 3922 
Q 2500 3981 2441 4022 
Q 2363 4078 2284 4103 
Q 2225 4122 2097 4122 
L 2097 4238 
L 3747 4238 
L 3747 4122 
L 3634 4122 
Q 3459 4122 3378 4047 
Q 3297 3972 3297 3844 
Q 3297 3684 3438 3288 
L 4250 984 
L 5056 3319 
Q 5194 3706 5194 3856 
Q 5194 3928 5148 3990 
Q 5103 4053 5034 4078 
Q 4916 4122 4725 4122 
L 4725 4238 
L 5991 4238 
z
" transform="scale(0.015625)"/>
       <path id="TimesNewRomanPSMT-5f" d="M 3256 -1381 
L -53 -1381 
L -53 -1119 
L 3256 -1119 
L 3256 -1381 
z
" transform="scale(0.015625)"/>
      </defs>
      <use xlink:href="#TimesNewRomanPSMT-57"/>
      <use xlink:href="#TimesNewRomanPSMT-65" transform="translate(86.384766 0)"/>
      <use xlink:href="#TimesNewRomanPSMT-69" transform="translate(130.769531 0)"/>
      <use xlink:href="#TimesNewRomanPSMT-62" transform="translate(158.552734 0)"/>
      <use xlink:href="#TimesNewRomanPSMT-75" transform="translate(208.552734 0)"/>
      <use xlink:href="#TimesNewRomanPSMT-6c" transform="translate(258.552734 0)"/>
      <use xlink:href="#TimesNewRomanPSMT-6c" transform="translate(286.335938 0)"/>
      <use xlink:href="#TimesNewRomanPSMT-5f" transform="translate(314.119141 0)"/>
      <use xlink:href="#TimesNewRomanPSMT-32" transform="translate(364.119141 0)"/>
      <use xlink:href="#TimesNewRomanPSMT-50" transform="translate(414.119141 0)"/>
     </g>
    </g>
    <g id="line2d_46">
     <path d="M 556.970156 31.192031 
L 565.970156 31.192031 
L 574.970156 31.192031 
" style="fill: none; stroke: #8c564b; stroke-width: 1.5; stroke-linecap: square"/>
    </g>
    <g id="text_24">
     <!-- Weibull_3P -->
     <g transform="translate(582.170156 34.342031) scale(0.09 -0.09)">
      <use xlink:href="#TimesNewRomanPSMT-57"/>
      <use xlink:href="#TimesNewRomanPSMT-65" transform="translate(86.384766 0)"/>
      <use xlink:href="#TimesNewRomanPSMT-69" transform="translate(130.769531 0)"/>
      <use xlink:href="#TimesNewRomanPSMT-62" transform="translate(158.552734 0)"/>
      <use xlink:href="#TimesNewRomanPSMT-75" transform="translate(208.552734 0)"/>
      <use xlink:href="#TimesNewRomanPSMT-6c" transform="translate(258.552734 0)"/>
      <use xlink:href="#TimesNewRomanPSMT-6c" transform="translate(286.335938 0)"/>
      <use xlink:href="#TimesNewRomanPSMT-5f" transform="translate(314.119141 0)"/>
      <use xlink:href="#TimesNewRomanPSMT-33" transform="translate(364.119141 0)"/>
      <use xlink:href="#TimesNewRomanPSMT-50" transform="translate(414.119141 0)"/>
     </g>
    </g>
    <g id="line2d_47">
     <path d="M 556.970156 43.934063 
L 565.970156 43.934063 
L 574.970156 43.934063 
" style="fill: none; stroke: #e377c2; stroke-width: 1.5; stroke-linecap: square"/>
    </g>
    <g id="text_25">
     <!-- Gamma_2P -->
     <g transform="translate(582.170156 47.084063) scale(0.09 -0.09)">
      <defs>
       <path id="TimesNewRomanPSMT-47" d="M 3928 4334 
L 4038 2997 
L 3928 2997 
Q 3763 3497 3500 3750 
Q 3122 4116 2528 4116 
Q 1719 4116 1297 3475 
Q 944 2934 944 2188 
Q 944 1581 1178 1081 
Q 1413 581 1792 348 
Q 2172 116 2572 116 
Q 2806 116 3025 175 
Q 3244 234 3447 350 
L 3447 1575 
Q 3447 1894 3398 1992 
Q 3350 2091 3248 2142 
Q 3147 2194 2891 2194 
L 2891 2313 
L 4531 2313 
L 4531 2194 
L 4453 2194 
Q 4209 2194 4119 2031 
Q 4056 1916 4056 1575 
L 4056 278 
Q 3697 84 3347 -6 
Q 2997 -97 2569 -97 
Q 1341 -97 703 691 
Q 225 1281 225 2053 
Q 225 2613 494 3125 
Q 813 3734 1369 4063 
Q 1834 4334 2469 4334 
Q 2700 4334 2889 4296 
Q 3078 4259 3425 4131 
Q 3600 4066 3659 4066 
Q 3719 4066 3761 4120 
Q 3803 4175 3813 4334 
L 3928 4334 
z
" transform="scale(0.015625)"/>
      </defs>
      <use xlink:href="#TimesNewRomanPSMT-47"/>
      <use xlink:href="#TimesNewRomanPSMT-61" transform="translate(72.216797 0)"/>
      <use xlink:href="#TimesNewRomanPSMT-6d" transform="translate(116.601562 0)"/>
      <use xlink:href="#TimesNewRomanPSMT-6d" transform="translate(194.384766 0)"/>
      <use xlink:href="#TimesNewRomanPSMT-61" transform="translate(272.167969 0)"/>
      <use xlink:href="#TimesNewRomanPSMT-5f" transform="translate(316.552734 0)"/>
      <use xlink:href="#TimesNewRomanPSMT-32" transform="translate(366.552734 0)"/>
      <use xlink:href="#TimesNewRomanPSMT-50" transform="translate(416.552734 0)"/>
     </g>
    </g>
    <g id="line2d_48">
     <path d="M 556.970156 56.676094 
L 565.970156 56.676094 
L 574.970156 56.676094 
" style="fill: none; stroke: #7f7f7f; stroke-width: 1.5; stroke-linecap: square"/>
    </g>
    <g id="text_26">
     <!-- Gamma_3P -->
     <g transform="translate(582.170156 59.826094) scale(0.09 -0.09)">
      <use xlink:href="#TimesNewRomanPSMT-47"/>
      <use xlink:href="#TimesNewRomanPSMT-61" transform="translate(72.216797 0)"/>
      <use xlink:href="#TimesNewRomanPSMT-6d" transform="translate(116.601562 0)"/>
      <use xlink:href="#TimesNewRomanPSMT-6d" transform="translate(194.384766 0)"/>
      <use xlink:href="#TimesNewRomanPSMT-61" transform="translate(272.167969 0)"/>
      <use xlink:href="#TimesNewRomanPSMT-5f" transform="translate(316.552734 0)"/>
      <use xlink:href="#TimesNewRomanPSMT-33" transform="translate(366.552734 0)"/>
      <use xlink:href="#TimesNewRomanPSMT-50" transform="translate(416.552734 0)"/>
     </g>
    </g>
   </g>
  </g>
 </g>
 <defs>
  <clipPath id="pf8ee1b202f">
   <rect x="51.621875" y="7.2" width="581.14375" height="377.74375"/>
  </clipPath>
 </defs>
</svg>
