**ABCDEFGHIJKLMNOPQRSTUVWXYZabcdefghijklmnopqrstuvwxyz**************************
**PARASOLID !"#$%&'()*+,-./:;<=>?@[\]^_`{|}~0123456789**************************
**PART1;
MC=AMD64;
MC_MODEL=Intel64 Family 6 Model 186 Stepping 2, GenuineIntel;
MC_ID=unknown;
OS=Windows_NT;
OS_RELEASE=unknown;
FRU=Parasolid Version 35.1, build 210,  4-20-2023;
APPL=SOLIDWORKS 2024-2023282;
SITE=;
USER=unknown;
FORMAT=text;
GUISE=transmit;
KEY=arm;
FILE=arm.x_t;
DATE=Tue Apr  7 20:42:19 2026;
**PART2;
SCH=SCH_3501210_35102;
USFLD_SIZE=0;
**PART3;
**END_OF_HEADER*****************************************************************
T51 : TRANSMIT FILE created by modeller version 350121023 SCH_3501210_35102_1300
6231 0 12 36 CCCI7 lattice222 0 CCCI4 mesh1006 0 I8 polyline1008 0 CCCCCCCDI5 ow
ner1040 0 CCCI16 boundary_lattice222 0 CCCI13 boundary_mesh1006 0 I17 boundary_p
olyline1008 0 CCCA16 index_map_offset0 0 1 dA9 index_map82 0 A17 node_id_index_m
ap82 0 A20 schema_embedding_map82 0 A5 child12 0 A14 lowest_node_id0 0 1 dA16 me
sh_offset_data206 0 Z1 574 2 3 0 0 0 0 0 0 0 1e3 1e-8 0 4 0 1 0 1 1 5 0 6 7 8 0
 0 9 10 11 0 0 0 0 0 0 0 81 255 2 2 538 12 1 13 0 0 0 0 14 70 11 CI9 list_type0
 0 1 uI10 notransmit0 0 1 lCCCDCCDI12 finger_index0 0 1 dI12 finger_block1012 0
 CZ3 0 4 T1 0 0 12 20 1 15 15 13 255 5 133 0 1 0 16 0 0 17 0 50 255 6 153 0 16 1
8 0 19 +0 0 0 0 1 0 0 0 1 137 255 7 227 0 1 20 0 21 +6 22 0 ?29 255 8 285 0 11 2
3 0 -.002299999695382195 0 -.00229999969538218 19 9 CCCCCCI5 frame230 0 CA5 owne
r12 0 Z9 139 0 1 17 0 24 0 V0 16 255 10 141 0 2e-8 25 0 26 0 0 0 1 18 255 11 283
 0 27 0 28 8 ?1 17 255 27 0 29 30 31 11 32 33 0 34 -18 28 263 0 35 11 36 23 ?1 1
7 35 0 37 38 39 28 31 40 0 41 -18 36 149 0 42 28 43 44 2e-8 1 29 23 265 0 28 44
 8 -.002125466592963295 .1 .00212546659296333 29 44 158 0 36 45 23 .0025 0 -.002
5 29 45 159 0 43 46 44 -.0025 0 -.0025 18 43 150 0 47 36 48 45 2e-8 1 29 46 125
 0 48 49 45 .0025 0 .0025 18 48 73 0 50 43 51 46 2e-8 1 29 49 130 0 51 52 46 -.0
025 1387778780781446e-32 .0025 18 51 78 0 53 48 54 49 2e-8 1 29 52 18 0 54 55 49
 .00232546689758107 .1 -.002325466897581095 18 54 15 0 56 51 57 52 2e-8 1 29 55
 13 0 57 58 52 -.0023254668975811 .1 -.002325466897581105 18 57 10 0 59 54 60 55
 2e-8 1 29 58 8 0 60 61 55 .0023254668975811 .1 .00232546689758113 18 60 5 0 62
 57 63 58 2e-8 1 29 61 4 0 63 64 58 -.00232546689758112 .1 .002325466897581135 1
8 63 2 0 65 60 66 61 2e-8 1 29 64 366 0 67 68 61 -.002125466592963295 .1 -.00212
546659296329 18 67 311 0 69 70 71 64 ?1 29 68 367 0 70 72 64 .00212546659296329
 .1 -.00212546659296329 18 70 317 0 73 74 67 68 ?1 29 72 368 0 71 75 68 .0021254
6659296329 .1 .00212546659296333 18 71 313 0 38 67 0 72 ?1 29 75 370 0 74 76 72
 -.002299999695382195 0 .002299999695382215 18 74 315 0 31 77 70 75 ?1 29 76 371
 0 77 78 75 .0022999996953822 0 .002299999695382215 18 77 316 0 79 66 74 76 ?1 2
9 78 372 0 66 0 76 .0022999996953822 0 -.00229999969538218 18 66 310 0 80 63 77
 78 ?1 17 80 0 81 73 34 66 82 83 0 84 -15 255 81 340 0 73 85 0 17 73 0 81 69 80
 70 84 86 0 87 -17 34 0 81 80 69 11 30 88 0 82 +17 82 0 89 32 90 11 80 83 0 0 +1
6 83 307 0 ?82 91 33 92 0 0 1 17 84 0 93 94 87 66 73 86 0 90 +15 93 345 0 95 96
 0 17 94 0 93 95 84 77 90 97 0 98 -17 87 0 93 84 95 70 99 100 0 101 +16 86 306 0
 ?84 102 40 103 0 0 1 17 90 0 89 82 98 66 94 97 0 0 +15 89 281 0 98 16 104 17 98
 0 89 90 32 77 39 105 0 0 +16 97 309 0 ?90 105 102 106 0 0 1 16 105 305 0 ?98 33
 97 107 0 0 1 16 102 308 0 ?79 97 86 108 0 0 1 30 255 106 359 0 97 92 107 0 +.00
22999996953822 0 0 0 0 -1 30 92 360 0 83 109 106 0 +0 0 -.00229999969538218 -1 0
 0 30 107 358 0 105 106 110 0 +0 0 .002299999695382215 1 0 0 30 110 357 0 111 10
7 112 0 +-.002125466592963295 .1 0 0 0 1 16 111 300 0 ?41 113 114 110 0 0 1 30 1
12 356 0 114 110 115 0 +0 .1 .00212546659296333 1 0 0 16 114 301 0 ?38 111 100 1
12 0 0 1 30 115 355 0 100 112 116 0 +.00212546659296329 .1 0 0 0 -1 16 100 298 0
 ?87 114 0 115 0 0 1 30 116 354 0 113 115 117 0 +0 .1 -.00212546659296329 -1 0 0
 16 113 299 0 ?69 88 111 116 0 0 1 133 255 117 124 0 118 116 119 0 +119 -.002325
4668975811 .1 -.002325466897581095 .00232546689758107 .1 -.002325466897581095 0
 1 17 118 0 120 121 122 54 59 123 117 124 -137 119 123 0 1 117 125 126 +127 128
 0 ?133 125 122 0 129 119 130 0 +130 .00232546689758107 .1 -.002325466897581095
 .0025 1387778780781446e-32 -.0025 0 .1000003046175744 141 255 126 117 126 126 1
19 50 127 82 0 131 132 18 133 +0 4363314269029895e-21 -.002499992384572225 0 .00
174532836589841 -.999998476913288 0 .999998476913288 .00174532836589841 134 255
 128 0 0 0 0 0 0 +134 135 136 255 134 1 2 2 2 5 FFF1 136 137 138 135 255 135 2 0
 45 255 4 136 .0999957889879885 -.0023254668975811 .0999957889879885 .0023254668
9758107 127 255 2 137 2 2 128 255 2 138 0 1 14 255 131 45 139 ?140 141 120 5 127
 +0 0 140 141 24 50 132 83 0 141 142 127 143 +0 4363314269029785e-21 .0024999923
8457226 0 .001745328365898345 .999998476913288 0 -.999998476913288 .001745328365
898345 50 18 81 0 140 127 6 144 +.002499992384572245 4363314269030365e-21 0 .999
998476913288 .001745328365898585 0 -.001745328365898585 .999998476913288 0 141 1
33 119 145 145 127 141 145 146 133 133 127 137 146 99 0 1 147 148 149 +127 150 0
 ?133 147 100 0 25 151 146 0 +146 .0025 0 -.0025 -.0025 0 -.0025 0 1 133 148 96
 0 152 146 153 0 +153 .0025 0 .0025 .0025 0 -.0025 0 1 141 149 147 149 149 146 1
34 150 0 0 0 0 0 0 +154 155 136 154 1 2 2 2 5 FFF1 156 157 158 135 155 2 0 45 4
 156 -4363320914746005e-21 .0025 -4363320914746005e-21 -.0025 127 2 157 2 2 128
 2 158 0 1 17 152 0 159 56 160 36 161 162 148 121 +137 153 95 0 1 148 163 164 +1
8 165 0 ?133 163 92 0 50 153 166 0 +166 -.0025 0 .0025 .0025 0 .0025 0 1 141 164
 148 164 164 153 134 165 0 0 0 0 0 0 +167 168 136 167 1 2 2 2 5 FFF1 169 170 171
 135 168 2 0 45 4 169 -4363320914746475e-21 .0025 -4363320914746475e-21 -.0025 1
27 2 170 2 2 128 2 171 0 1 17 50 0 172 173 174 48 175 176 163 160 +137 166 91 0
 1 163 177 178 +132 179 0 ?133 177 88 0 53 166 180 0 +180 -.0025 0 -.0025 -.0025
 0 .0025 0 1 141 178 163 178 178 166 134 179 0 0 0 0 0 0 +181 182 136 181 1 2 2
 2 5 FFF1 183 184 185 135 182 2 0 45 4 183 436332091474589e-20 -.0025 4363320914
74589e-20 .0025 127 2 184 2 2 128 2 185 0 1 17 53 0 186 187 47 51 188 26 177 174
 +137 180 87 0 1 177 189 190 +142 191 0 ?133 189 170 0 59 180 192 0 +192 .002325
46689758107 .1 -.002325466897581095 -.0023254668975811 .1 -.002325466897581105 0
 1 141 190 177 190 190 180 50 142 84 0 193 194 132 195 +-.002499992384572235 436
3314269030095e-21 0 -.999998476913288 .00174532836589848 0 -.00174532836589848 -
.999998476913288 0 134 191 0 0 0 0 0 0 +196 197 136 196 1 2 2 2 5 FFF1 198 199 2
00 135 197 2 0 45 4 198 43633209147462e-19 -.0025 43633209147462e-19 .0025 127 2
 199 2 2 128 2 200 0 1 14 193 39 201 ?141 202 186 5 142 +0 0 141 202 24 50 194 2
5 0 202 203 142 204 +0 .1 0 0 1 0 0 0 1 141 195 151 205 205 142 137 151 103 0 1
 206 147 207 +142 208 0 ?141 205 180 195 195 142 133 206 104 0 209 210 151 0 +15
1 -.0023254668975811 .1 .002325466897581135 -.0023254668975811 .1 -.002325466897
581105 0 1 141 207 206 207 207 151 134 208 0 0 0 0 0 0 +211 212 136 211 1 2 2 2
 5 FFF1 213 214 215 135 212 2 0 45 4 213 -.0999957889879885 .002325466897581135
 -.0999957889879885 -.002325466897581105 127 2 214 2 2 128 2 215 0 1 17 209 0 18
6 47 187 57 65 216 206 122 -30 210 107 0 1 217 206 218 +-.00232546689758112 .1 .
002325466897581135 -.001745325707619965 -.999996953833535 .001745325707619995 13
3 217 108 0 219 220 210 0 +210 -.00232546689758112 .1 .002325466897581135 -.0025
 277555756156289e-31 .0025 0 .1000003046175744 141 218 217 218 218 210 16 219 69
 0 ?174 129 221 217 0 0 1 137 220 109 0 1 222 217 223 +132 224 0 ?133 222 110 0
 225 226 220 0 +220 .0023254668975811 .1 .002325466897581135 -.00232546689758112
 .1 .002325466897581135 0 1 141 223 222 223 223 220 134 224 0 0 0 0 0 0 +227 228
 136 227 1 2 2 2 5 FFF1 229 230 231 135 228 2 0 45 4 229 -.0999957889879885 .002
3254668975811 -.0999957889879885 -.00232546689758112 127 2 230 2 2 128 2 231 0 1
 17 225 0 172 174 173 63 62 232 222 187 -30 226 113 0 1 233 222 234 +.0023254668
975811 .1 .00232546689758113 .00174532570762024 -.999996953833535 .0017453257076
20065 133 233 114 0 235 236 226 0 +226 .0023254668975811 .1 .00232546689758113 .
0025 1387778780781446e-32 .0025 0 .1000003046175744 141 234 233 234 234 226 16 2
35 57 0 ?160 162 129 233 0 0 1 137 236 115 0 1 237 233 238 +18 239 0 ?133 237 11
6 0 240 241 236 0 +236 .0023254668975811 .1 -.002325466897581095 .00232546689758
11 .1 .00232546689758113 0 1 141 238 237 238 238 236 134 239 0 0 0 0 0 0 +242 24
3 136 242 1 2 2 2 5 FFF1 244 245 246 135 243 2 0 45 4 244 .0999957889879885 -.00
2325466897581095 .0999957889879885 .00232546689758113 127 2 245 2 2 128 2 246 0
 1 17 240 0 159 160 56 60 124 91 237 173 -30 241 119 0 1 247 237 248 +-.00232546
68975811 .1 -.002325466897581105 -.001745325707620135 -.999996953833535 -.001745
325707619965 133 247 120 0 221 130 241 0 +241 -.0023254668975811 .1 -.0023254668
97581105 -.0025 1387778780781446e-32 -.0025 0 .1000003046175744 141 248 247 248
 248 241 16 221 72 0 ?47 219 123 247 0 0 1 30 130 121 0 1 125 247 249 +.00232546
689758107 .1 -.002325466897581095 .00174532570762052 -.999996953833535 -.0017453
25707620065 141 249 125 249 249 130 17 47 0 186 53 209 43 122 221 0 25 +16 123 1
6 0 2e-8 59 221 216 0 0 0 1 17 59 0 250 65 124 57 118 123 189 209 +16 216 11 0 2
e-8 65 123 232 0 0 0 1 17 65 0 250 62 59 63 209 216 251 225 +16 232 6 0 2e-8 62
 216 91 0 0 0 1 17 62 0 250 124 65 60 225 232 252 240 +16 91 20 0 2e-8 124 232 8
3 0 0 0 1 17 124 0 250 59 62 54 240 91 253 0 +15 250 22 0 124 202 0 133 253 195
 0 124 254 255 0 +255 .0023254668975811 .1 .00232546689758113 .00232546689758107
 .1 -.002325466897581095 0 1 137 254 189 0 1 252 253 256 +194 257 0 ?137 255 196
 0 1 253 258 259 +194 260 0 ?133 258 205 0 42 255 261 0 +261 -.0025 0 -.0025 .00
25 0 -.0025 0 1 141 259 253 259 259 255 134 260 0 0 0 0 0 0 +262 263 136 262 1 2
 2 2 5 FFF1 264 265 266 135 263 2 0 45 4 264 .00232546689758113 .002325466897581
1 -.002325466897581095 .00232546689758107 127 2 265 2 2 128 2 266 0 1 17 42 0 10
4 161 188 36 25 10 258 152 -137 261 206 0 1 258 267 268 +6 269 0 ?133 267 214 0
 188 261 270 0 +270 -.0025 0 .0025 -.0025 0 -.0025 0 1 141 268 258 268 268 261 1
34 269 0 0 0 0 0 0 +271 272 136 271 1 2 2 2 5 FFF1 273 274 275 135 272 2 0 45 4
 273 -.0025 -.0025 -.0025 .0025 127 2 274 2 2 128 2 275 0 1 17 188 0 104 42 175
 43 53 26 267 0 -137 270 215 0 1 267 276 277 +6 278 0 ?133 276 221 0 175 270 279
 0 +279 .0025 0 .0025 -.0025 0 .0025 0 1 141 277 267 277 277 270 134 278 0 0 0 0
 0 0 +280 281 136 280 1 2 2 2 5 FFF1 282 283 284 135 281 2 0 45 4 282 .0025 -.00
25 -.0025 -.0025 127 2 283 2 2 128 2 284 0 1 17 175 0 104 188 161 51 50 176 276
 0 -137 279 222 0 1 276 20 285 +6 286 0 ?133 20 226 0 161 279 7 0 +7 .0025 0 -.0
025 .0025 0 .0025 0 1 141 285 276 285 285 279 134 286 0 0 0 0 0 0 +287 288 136 2
87 1 2 2 2 5 FFF1 289 290 291 135 288 2 0 45 4 289 .0025 .0025 .0025 -.0025 127
 2 290 2 2 128 2 291 0 1 17 161 0 104 175 42 48 152 162 20 0 -15 104 138 0 161 1
6 0 16 162 147 0 2e-8 152 176 235 0 0 0 1 16 176 145 0 2e-8 50 26 162 0 0 0 1 16
 26 143 0 2e-8 53 10 176 0 0 0 1 14 16 136 292 ?202 0 89 5 6 -0 0 202 0 24 81 1
 292 548 293 16 294 0 295 296 297 14 202 23 296 ?193 16 298 5 194 +0 0 193 16 24
 13 24 140 0 0 0 0 0 0 9 16 81 1 296 550 293 202 299 0 292 300 301 15 298 276 0
 99 202 250 17 99 0 298 302 101 71 87 100 0 0 -17 302 0 298 303 99 28 38 114 0 0
 -17 101 0 298 99 303 70 69 113 0 0 -17 303 0 298 101 302 67 41 111 0 0 -17 69 0
 81 34 73 67 101 113 0 30 +17 30 0 29 41 27 67 34 88 0 303 -15 29 330 0 30 304 0
 17 41 0 29 31 30 28 303 111 0 302 +16 88 302 0 ?34 40 113 305 0 0 1 16 40 304 0
 ?31 86 88 306 0 0 1 30 305 365 0 88 0 306 0 +-.00229998568303965 80284727355989
5e-20 -.002299985683039635 -.001745325707620135 -.999996953833535 -.001745325707
620065 30 306 364 0 40 305 108 0 +-.00229998568303965 802847273559885e-20 .00229
998568303967 -.001745325707620135 -.999996953833535 .00174532570762 30 108 363 0
 102 306 103 0 +.002299985683039655 80284727355991e-19 .00229998568303967 .00174
532570762024 -.999996953833535 .00174532570762 30 103 362 0 86 108 109 0 +.00229
9985683039655 80284727355992e-19 -.002299985683039635 .00174532570762024 -.99999
6953833535 -.001745325707620065 30 109 361 0 33 103 92 0 +-.00229999969538219 0
 0 0 0 1 16 33 303 0 ?32 83 105 109 0 0 1 17 32 0 89 98 82 74 27 33 0 0 +17 31 0
 29 27 41 74 35 40 0 39 +17 39 0 37 35 79 74 98 105 0 32 -15 37 335 0 35 307 0 1
7 79 0 37 39 38 77 95 102 0 94 +17 38 0 37 79 35 71 302 114 0 95 +17 95 0 93 87
 94 71 79 102 0 99 -14 307 331 300 ?85 304 37 5 308 -0 0 85 304 24 81 1 300 552
 293 307 309 0 296 310 311 14 85 336 310 ?96 307 81 5 312 -0 0 96 307 24 14 304
 326 295 ?307 140 29 5 313 -0 0 307 140 24 50 308 350 0 307 313 312 0 +0 4014248
595850115e-21 .0022999926891896 0 .001745328365898345 .999998476913288 0 -.99999
8476913288 .001745328365898345 50 313 351 0 304 0 308 0 +-.00229999268918958 401
42485958504e-19 0 -.999998476913288 .00174532836589848 0 -.00174532836589848 -.9
99998476913288 0 50 312 349 0 85 308 203 0 +0 4014248595850215e-21 -.00229999268
9189565 0 .00174532836589841 -.999998476913288 0 .999998476913288 .0017453283658
9841 50 203 348 0 96 312 194 0 +.002299992689189585 401424859585065e-20 0 .99999
8476913288 .001745328365898585 0 -.001745328365898585 .999998476913288 0 14 96 3
41 314 ?0 85 93 5 203 -0 0 0 85 24 81 1 314 556 293 96 315 0 310 316 317 80 7 CC
CCCDI12 legal_owners0 16 1 lCZ1 293 318 319 9000 1 1 1 1 1 1 1 1 0 FFFFTFTFFFFFF
FFF1 81 3 315 555 320 96 321 314 322 323 324 0 0 81 1 310 554 293 85 322 0 300 3
14 325 81 1 316 558 293 141 323 0 314 0 326 82 255 1 317 -1916468975 14 141 42 3
16 ?131 193 172 5 132 +0 0 131 193 24 81 3 323 557 320 141 327 316 315 0 328 0 0
 82 1 326 -2003500784 80 3 320 329 330 9000 0 0 0 0 3 5 0 0 0 FFFFTFFFFFFFFFFF1
 1 1 81 1 327 500 331 141 0 323 332 333 334 82 6 328 0 913013077 31245961 0 0 0
 80 1 331 0 335 8001 0 0 0 0 3 5 0 0 0 FFFFTFTFFFFFFFFF2 81 1 332 499 331 193 0
 336 337 327 338 81 1 333 501 331 131 0 339 327 340 341 83 255 3 334 1 1 1 81 3
 339 539 320 131 333 139 0 336 342 0 0 81 1 340 502 331 140 0 343 333 344 345 83
 3 341 1 1 1 14 140 48 346 ?304 131 159 5 18 +0 0 304 131 24 81 3 343 543 320 14
0 340 346 336 347 348 0 0 81 1 344 503 331 304 0 347 340 349 350 83 3 345 1 1 1
 81 3 347 545 320 304 344 295 343 294 351 0 0 81 1 349 504 331 307 0 309 344 352
 353 83 3 350 1 1 1 81 3 309 551 320 307 349 300 299 322 354 0 0 81 1 352 505 33
1 85 0 322 349 321 355 83 3 353 1 1 1 81 3 322 553 320 85 352 310 309 315 356 0
 0 81 1 321 506 331 96 0 315 352 0 357 83 3 355 1 1 1 83 3 357 1 1 1 82 6 356 0
 913073714 31245961 0 0 0 81 3 299 549 320 202 337 296 294 309 358 0 0 82 6 354
 0 913073714 31245961 0 0 0 81 1 337 498 331 202 0 299 359 332 360 81 3 294 547
 320 16 359 292 347 299 361 0 0 82 6 358 0 913073714 31245961 0 0 0 81 1 359 497
 331 16 0 294 0 337 362 82 6 361 0 913073714 31245961 0 0 0 83 3 362 1 1 1 83 3
 360 1 1 1 81 1 295 546 293 304 347 0 346 292 363 82 6 351 0 913073714 31245961
 0 0 0 81 1 346 544 293 140 343 0 201 295 364 82 1 363 -1920073455 81 1 201 542
 293 193 336 0 139 346 365 82 1 364 -2002910960 81 3 336 541 320 193 332 201 339
 343 366 0 0 81 1 139 540 293 131 339 0 0 201 367 82 1 365 -2003304176 82 1 367
 -2003369712 82 6 366 0 913013077 31245961 0 0 0 82 6 348 0 913013077 31245961 0
 0 0 15 159 50 0 160 140 0 17 160 0 159 152 240 48 173 235 0 161 +17 173 0 172 2
25 50 60 160 235 0 0 -15 172 44 0 174 141 0 17 174 0 172 50 225 51 187 219 0 175
 +17 187 0 186 209 53 63 174 219 0 0 -15 186 41 0 47 193 0 82 6 342 0 913013077
 31245961 0 0 0 83 3 338 1 1 1 79 255 15 335 SDL/TYSA_COLOUR79 18 330 DOWNSTREAM
_FACE_ID82 1 325 -1915748079 82 6 324 0 913073714 31245961 0 0 0 79 14 319 SWEnt
Unchanged82 1 311 -1914568431 82 1 301 -1994456815 82 1 297 -1992097519 17 25 0
 120 122 121 43 42 10 147 188 +15 120 47 0 121 131 0 17 122 0 120 118 25 57 47 2
21 0 0 -17 121 0 120 25 118 36 56 129 0 0 +17 56 0 159 240 152 54 121 129 0 118
 -16 129 62 0 ?121 235 219 125 0 0 1 133 252 188 0 62 368 254 0 +254 -.002325466
89758112 .1 .002325466897581135 .0023254668975811 .1 .00232546689758113 0 1 141
 256 252 256 256 254 134 257 0 0 0 0 0 0 +369 370 136 369 1 2 2 2 5 FFF1 371 372
 373 135 370 2 0 45 4 371 .002325466897581135 -.00232546689758112 .0023254668975
8113 .0023254668975811 127 2 372 2 2 128 2 373 0 1 137 368 180 0 1 251 252 374 +
194 375 0 ?133 251 179 0 65 192 368 0 +368 -.0023254668975811 .1 -.0023254668975
81105 -.00232546689758112 .1 .002325466897581135 0 1 141 374 251 374 374 368 134
 375 0 0 0 0 0 0 +376 377 136 376 1 2 2 2 5 FFF1 378 379 380 135 377 2 0 45 4 37
8 -.002325466897581105 -.0023254668975811 .002325466897581135 -.0023254668975811
2 127 2 379 2 2 128 2 380 0 1 137 192 171 0 1 189 251 381 +194 382 0 ?141 381 18
9 381 381 192 134 382 0 0 0 0 0 0 +383 384 136 383 1 2 2 2 5 FFF1 385 386 387 13
5 384 2 0 45 4 385 -.002325466897581095 .00232546689758107 -.002325466897581105
 -.0023254668975811 127 2 386 2 2 128 2 387 0 1 141 204 192 388 389 194 141 388
 255 390 204 194 141 389 368 204 390 194 141 390 254 389 388 194 141 144 236 391
 391 18 141 391 153 144 144 18 141 143 220 392 392 132 141 392 166 143 143 132 1
9 17 1 0 1 0 9 5 0 S0 141 21 20 21 21 7 134 22 0 0 0 0 0 0 +393 394 136 393 1 2
 2 2 5 FFF1 395 396 397 135 394 2 0 45 4 395 -.0025 .0025 .0025 .0025 127 2 396
 2 2 128 2 397 0 1 141 19 261 398 399 6 141 398 7 400 19 6 141 399 270 19 400 6
 141 400 279 399 398 6 74 4 CI16 index_map_offset0 0 1 dCCZ20 15 12 0 0 401 402
 403 404 323 316 405 406 407 13 321 2 0 0 0 0 0 0 0 0 81 5 401 28 408 1 0 402 0
 0 409 0 0 0 0 81 2 402 237 410 1 401 403 0 0 0 411 81 2 403 238 412 1 402 404 0
 0 413 0 81 2 404 239 414 1 403 405 0 0 0 415 81 1 405 387 416 1 404 406 0 0 417
 81 2 406 401 418 1 405 407 0 0 419 0 81 2 407 446 420 1 406 13 0 0 0 421 81 2 1
3 459 422 1 407 2 0 0 0 0 80 2 422 423 424 9000 0 0 0 0 3 5 0 0 0 FFTFFFFFFFFFFF
FF9 1 79 16 424 BODY_RECIPE_200180 2 420 425 426 9000 0 0 0 0 3 5 0 0 0 FFTFFFFF
FFFFFFFF9 1 82 1 421 1 79 24 426 BODY_IN_LIGHTWEIGHT_PERM80 2 418 427 428 8004 0
 0 0 0 3 5 0 0 0 FFTFFFFFFFFFFFFF2 3 83 1 419 1 79 16 428 SDL/TYSA_DENSITY80 1 4
16 429 430 9000 1 1 1 1 1 1 1 1 0 FFTFFFFFFFFFFFFF1 82 1 417 231676 79 10 430 BO
DY_MATCH80 2 414 431 432 9000 0 0 0 0 3 5 0 0 0 FFTFFFFFFFFFFFFF9 1 82 1 415 120
 79 19 432 ENT_TIME_STAMP_200180 2 412 433 434 9000 0 0 0 0 3 5 0 0 0 FFTFTTTFFT
FFFFFF10 10 98 255 3 413 25277 22771 49 79 23 434 SWIMPLICITBODYNAME_ID_U80 2 41
0 435 436 9000 0 0 0 0 3 5 0 0 0 FFTFFFFFFFFFFFFF9 1 82 1 411 109 79 30 436 LAST
_BODY_MODIFYING_FEATURE_ID80 5 408 437 438 9000 0 0 0 0 3 6 0 0 0 FFTTTTTTFTTFTT
FF2 2 2 2 2 83 1 409 1 79 19 438 BODY_SCALING_FACTOR80 2 12 439 440 9000 0 0 0 0
 3 5 0 0 0 FFTFFFFFFFFFFFFF9 1 82 1 14 106 79 12 440 ATOM_ID_20011 0 
