<?xml version="1.0" encoding="utf-8" standalone="no"?>
<!DOCTYPE svg PUBLIC "-//W3C//DTD SVG 1.1//EN"
  "http://www.w3.org/Graphics/SVG/1.1/DTD/svg11.dtd">
<svg xmlns:xlink="http://www.w3.org/1999/xlink" width="1008pt" height="720pt" viewBox="0 0 1008 720" xmlns="http://www.w3.org/2000/svg" version="1.1">
 <metadata>
  <rdf:RDF xmlns:dc="http://purl.org/dc/elements/1.1/" xmlns:cc="http://creativecommons.org/ns#" xmlns:rdf="http://www.w3.org/1999/02/22-rdf-syntax-ns#">
   <cc:Work>
    <dc:type rdf:resource="http://purl.org/dc/dcmitype/StillImage"/>
    <dc:date>2026-03-22T23:47:22.641228</dc:date>
    <dc:format>image/svg+xml</dc:format>
    <dc:creator>
     <cc:Agent>
      <dc:title>Matplotlib v3.10.8, https://matplotlib.org/</dc:title>
     </cc:Agent>
    </dc:creator>
   </cc:Work>
  </rdf:RDF>
 </metadata>
 <defs>
  <style type="text/css">*{stroke-linejoin: round; stroke-linecap: butt}</style>
 </defs>
 <g id="figure_1">
  <g id="patch_1">
   <path d="M 0 720 
L 1008 720 
L 1008 0 
L 0 0 
z
" style="fill: #ffffff"/>
  </g>
  <g id="patch_2">
   <path d="M 104.4 684 
L 752.4 684 
L 752.4 36 
L 104.4 36 
z
" style="fill: #ffffff"/>
  </g>
  <g id="pane3d_1">
   <g id="patch_3">
    <path d="M 149.559759 510.723814 
L 390.359962 342.316442 
L 388.369303 83.862375 
L 136.255206 237.441988 
" style="fill: #f2f2f2; opacity: 0.5; stroke: #f2f2f2; stroke-linejoin: miter"/>
   </g>
  </g>
  <g id="pane3d_2">
   <g id="patch_4">
    <path d="M 390.359962 342.316442 
L 717.718356 457.351909 
L 730.365628 188.650732 
L 388.369303 83.862375 
" style="fill: #e6e6e6; opacity: 0.5; stroke: #e6e6e6; stroke-linejoin: miter"/>
   </g>
  </g>
  <g id="pane3d_3">
   <g id="patch_5">
    <path d="M 149.559759 510.723814 
L 491.022734 646.457087 
L 717.718356 457.351909 
L 390.359962 342.316442 
" style="fill: #ececec; opacity: 0.5; stroke: #ececec; stroke-linejoin: miter"/>
   </g>
  </g>
  <g id="grid3d_1">
   <g id="Line3DCollection_1">
    <path d="M 170.093081 518.885914 
L 410.133948 349.265125 
L 408.980305 90.177627 
" style="fill: none; stroke: #cccccc"/>
    <path d="M 227.209833 541.590114 
L 465.078484 368.572925 
L 466.282386 107.735099 
" style="fill: none; stroke: #cccccc"/>
    <path d="M 285.523313 564.77002 
L 521.083346 388.253329 
L 524.73845 125.646154 
" style="fill: none; stroke: #cccccc"/>
    <path d="M 345.071532 588.44074 
L 578.17953 408.317229 
L 584.383713 143.921581 
" style="fill: none; stroke: #cccccc"/>
    <path d="M 405.894126 612.618031 
L 636.399245 428.775945 
L 645.254834 162.572614 
" style="fill: none; stroke: #cccccc"/>
    <path d="M 468.032445 637.31833 
L 695.775986 449.641245 
L 707.39 181.610953 
" style="fill: none; stroke: #cccccc"/>
   </g>
  </g>
  <g id="grid3d_2">
   <g id="Line3DCollection_2">
    <path d="M 153.606249 226.872303 
L 166.077234 499.172061 
L 506.642246 633.427588 
" style="fill: none; stroke: #cccccc"/>
    <path d="M 174.971391 213.857362 
L 186.427083 484.940077 
L 525.871648 617.386786 
" style="fill: none; stroke: #cccccc"/>
    <path d="M 196.045505 201.019705 
L 206.511767 470.89354 
L 544.835199 601.567752 
" style="fill: none; stroke: #cccccc"/>
    <path d="M 216.834498 188.355734 
L 226.336436 457.028849 
L 563.538375 585.965918 
" style="fill: none; stroke: #cccccc"/>
    <path d="M 237.344118 175.861948 
L 245.906107 443.342495 
L 581.986501 570.576842 
" style="fill: none; stroke: #cccccc"/>
    <path d="M 257.579959 163.53494 
L 265.225668 429.831059 
L 600.18476 555.396201 
" style="fill: none; stroke: #cccccc"/>
    <path d="M 277.547466 151.371391 
L 284.299884 416.49121 
L 618.138192 540.419789 
" style="fill: none; stroke: #cccccc"/>
    <path d="M 297.251941 139.368073 
L 303.133398 403.319698 
L 635.851707 525.643511 
" style="fill: none; stroke: #cccccc"/>
    <path d="M 316.698548 127.52184 
L 321.730738 390.313359 
L 653.330081 511.063384 
" style="fill: none; stroke: #cccccc"/>
    <path d="M 335.892316 115.829628 
L 340.096319 377.469104 
L 670.577966 496.675527 
" style="fill: none; stroke: #cccccc"/>
    <path d="M 354.838144 104.288453 
L 358.234447 364.783922 
L 687.59989 482.476161 
" style="fill: none; stroke: #cccccc"/>
    <path d="M 373.540805 92.895408 
L 376.14932 352.254876 
L 704.400266 468.461607 
" style="fill: none; stroke: #cccccc"/>
   </g>
  </g>
  <g id="grid3d_3">
   <g id="Line3DCollection_3">
    <path d="M 717.9606 452.205249 
L 390.321742 337.354224 
L 149.305208 505.495221 
" style="fill: none; stroke: #cccccc"/>
    <path d="M 719.319316 423.338256 
L 390.107438 309.530325 
L 147.87726 476.164476 
" style="fill: none; stroke: #cccccc"/>
    <path d="M 720.691245 394.190549 
L 389.891163 281.450626 
L 146.435073 446.541279 
" style="fill: none; stroke: #cccccc"/>
    <path d="M 722.076581 364.758014 
L 389.67289 253.111582 
L 144.978434 416.621232 
" style="fill: none; stroke: #cccccc"/>
    <path d="M 723.47552 335.036454 
L 389.452593 224.509586 
L 143.507125 386.399851 
" style="fill: none; stroke: #cccccc"/>
    <path d="M 724.888265 305.021593 
L 389.230241 195.640959 
L 142.020923 355.87256 
" style="fill: none; stroke: #cccccc"/>
    <path d="M 726.31502 274.709065 
L 389.005808 166.501955 
L 140.519601 325.034692 
" style="fill: none; stroke: #cccccc"/>
    <path d="M 727.755995 244.094423 
L 388.779262 137.088759 
L 139.002927 293.881483 
" style="fill: none; stroke: #cccccc"/>
    <path d="M 729.211404 213.173125 
L 388.550574 107.397482 
L 137.470664 262.40807 
" style="fill: none; stroke: #cccccc"/>
   </g>
  </g>
  <g id="axis3d_1">
   <g id="line2d_1">
    <path d="M 149.559759 510.723814 
L 491.022734 646.457087 
" style="fill: none; stroke: #cccccc; stroke-width: 1.25; stroke-linecap: round"/>
   </g>
   <g id="xtick_1">
    <g id="line2d_2">
     <path d="M 437.156757 351.243243 
" clip-path="url(#p6b16ead5a5)" style="fill: none; stroke: #cccccc; stroke-linecap: round"/>
    </g>
    <g id="line2d_3">
     <path d="M 172.173238 517.416007 
L 165.924374 521.83166 
" style="fill: none; stroke: #262626; stroke-width: 1.25; stroke-linecap: round"/>
    </g>
    <g id="text_1">
     <!-- 0 -->
     <g style="fill: #262626" transform="translate(158.119644 543.717391) scale(0.14 -0.14)">
      <defs>
       <path id="SimHei-30" d="M 225 2537 
Q 250 3200 412 3587 
Q 575 3975 875 4225 
Q 1175 4475 1612 4475 
Q 2050 4475 2375 4112 
Q 2700 3750 2800 3200 
Q 2900 2650 2862 1937 
Q 2825 1225 2612 775 
Q 2400 325 1975 150 
Q 1550 -25 1125 187 
Q 700 400 525 750 
Q 350 1100 275 1487 
Q 200 1875 225 2537 
z
M 750 2687 
Q 675 2000 800 1462 
Q 925 925 1212 700 
Q 1500 475 1800 612 
Q 2100 750 2237 1162 
Q 2375 1575 2375 2062 
Q 2375 2550 2337 2950 
Q 2300 3350 2112 3675 
Q 1925 4000 1612 4012 
Q 1300 4025 1062 3700 
Q 825 3375 750 2687 
z
" transform="scale(0.015625)"/>
      </defs>
      <use xlink:href="#SimHei-30"/>
     </g>
    </g>
   </g>
   <g id="xtick_2">
    <g id="line2d_4">
     <path d="M 437.156757 351.243243 
" clip-path="url(#p6b16ead5a5)" style="fill: none; stroke: #cccccc; stroke-linecap: round"/>
    </g>
    <g id="line2d_5">
     <path d="M 229.272806 540.089581 
L 223.075475 544.597299 
" style="fill: none; stroke: #262626; stroke-width: 1.25; stroke-linecap: round"/>
    </g>
    <g id="text_2">
     <!-- 1000 -->
     <g style="fill: #262626" transform="translate(204.726356 566.610437) scale(0.14 -0.14)">
      <defs>
       <path id="SimHei-31" d="M 1400 3600 
Q 1075 3275 575 2975 
L 575 3450 
Q 1200 3875 1600 4450 
L 1900 4450 
L 1900 150 
L 1400 150 
L 1400 3600 
z
" transform="scale(0.015625)"/>
      </defs>
      <use xlink:href="#SimHei-31"/>
      <use xlink:href="#SimHei-30" transform="translate(50 0)"/>
      <use xlink:href="#SimHei-30" transform="translate(100 0)"/>
      <use xlink:href="#SimHei-30" transform="translate(150 0)"/>
     </g>
    </g>
   </g>
   <g id="xtick_3">
    <g id="line2d_6">
     <path d="M 437.156757 351.243243 
" clip-path="url(#p6b16ead5a5)" style="fill: none; stroke: #cccccc; stroke-linecap: round"/>
    </g>
    <g id="line2d_7">
     <path d="M 287.567924 563.237893 
L 281.425669 567.840586 
" style="fill: none; stroke: #262626; stroke-width: 1.25; stroke-linecap: round"/>
    </g>
    <g id="text_3">
     <!-- 2000 -->
     <g style="fill: #262626" transform="translate(263.031236 589.983807) scale(0.14 -0.14)">
      <defs>
       <path id="SimHei-32" d="M 300 250 
Q 325 625 650 925 
Q 975 1225 1475 1862 
Q 1975 2500 2125 2850 
Q 2275 3200 2237 3450 
Q 2200 3700 2000 3862 
Q 1800 4025 1537 4000 
Q 1275 3975 1037 3800 
Q 800 3625 675 3275 
L 200 3350 
Q 400 3925 712 4187 
Q 1025 4450 1450 4475 
Q 1700 4500 1900 4462 
Q 2100 4425 2312 4287 
Q 2525 4150 2662 3875 
Q 2800 3600 2762 3212 
Q 2725 2825 2375 2287 
Q 2025 1750 1025 600 
L 2825 600 
L 2825 150 
L 300 150 
L 300 250 
z
" transform="scale(0.015625)"/>
      </defs>
      <use xlink:href="#SimHei-32"/>
      <use xlink:href="#SimHei-30" transform="translate(50 0)"/>
      <use xlink:href="#SimHei-30" transform="translate(100 0)"/>
      <use xlink:href="#SimHei-30" transform="translate(150 0)"/>
     </g>
    </g>
   </g>
   <g id="xtick_4">
    <g id="line2d_8">
     <path d="M 437.156757 351.243243 
" clip-path="url(#p6b16ead5a5)" style="fill: none; stroke: #cccccc; stroke-linecap: round"/>
    </g>
    <g id="line2d_9">
     <path d="M 347.096536 586.876012 
L 341.013093 591.576713 
" style="fill: none; stroke: #262626; stroke-width: 1.25; stroke-linecap: round"/>
    </g>
    <g id="text_4">
     <!-- 3000 -->
     <g style="fill: #262626" transform="translate(322.572393 613.852778) scale(0.14 -0.14)">
      <defs>
       <path id="SimHei-33" d="M 250 1225 
L 700 1300 
Q 800 975 1025 762 
Q 1250 550 1587 562 
Q 1925 575 2125 837 
Q 2325 1100 2300 1437 
Q 2275 1775 2037 1962 
Q 1800 2150 1275 2225 
L 1275 2550 
Q 1800 2600 2037 2825 
Q 2275 3050 2250 3412 
Q 2225 3775 1925 3937 
Q 1625 4100 1287 3975 
Q 950 3850 750 3275 
L 300 3350 
Q 450 3800 712 4100 
Q 975 4400 1425 4450 
Q 1875 4500 2212 4337 
Q 2550 4175 2687 3837 
Q 2825 3500 2725 3100 
Q 2625 2700 2150 2400 
Q 2500 2250 2687 1950 
Q 2875 1650 2812 1162 
Q 2750 675 2375 375 
Q 2000 75 1525 87 
Q 1050 100 700 387 
Q 350 675 250 1225 
z
" transform="scale(0.015625)"/>
      </defs>
      <use xlink:href="#SimHei-33"/>
      <use xlink:href="#SimHei-30" transform="translate(50 0)"/>
      <use xlink:href="#SimHei-30" transform="translate(100 0)"/>
      <use xlink:href="#SimHei-30" transform="translate(150 0)"/>
     </g>
    </g>
   </g>
   <g id="xtick_5">
    <g id="line2d_10">
     <path d="M 437.156757 351.243243 
" clip-path="url(#p6b16ead5a5)" style="fill: none; stroke: #cccccc; stroke-linecap: round"/>
    </g>
    <g id="line2d_11">
     <path d="M 407.898211 611.019649 
L 401.87752 615.821522 
" style="fill: none; stroke: #262626; stroke-width: 1.25; stroke-linecap: round"/>
    </g>
    <g id="text_5">
     <!-- 4000 -->
     <g style="fill: #262626" transform="translate(383.389567 638.233281) scale(0.14 -0.14)">
      <defs>
       <path id="SimHei-34" d="M 2000 1100 
L 75 1100 
L 75 1525 
L 2100 4450 
L 2475 4450 
L 2475 1525 
L 3075 1525 
L 3075 1100 
L 2475 1100 
L 2475 150 
L 2000 150 
L 2000 1100 
z
M 2000 1525 
L 2000 3500 
L 600 1525 
L 2000 1525 
z
" transform="scale(0.015625)"/>
      </defs>
      <use xlink:href="#SimHei-34"/>
      <use xlink:href="#SimHei-30" transform="translate(50 0)"/>
      <use xlink:href="#SimHei-30" transform="translate(100 0)"/>
      <use xlink:href="#SimHei-30" transform="translate(150 0)"/>
     </g>
    </g>
   </g>
   <g id="xtick_6">
    <g id="line2d_12">
     <path d="M 437.156757 351.243243 
" clip-path="url(#p6b16ead5a5)" style="fill: none; stroke: #cccccc; stroke-linecap: round"/>
    </g>
    <g id="line2d_13">
     <path d="M 470.01423 635.685197 
L 464.060445 640.591544 
" style="fill: none; stroke: #262626; stroke-width: 1.25; stroke-linecap: round"/>
    </g>
    <g id="text_6">
     <!-- 5000 -->
     <g style="fill: #262626" transform="translate(445.524223 663.141939) scale(0.14 -0.14)">
      <defs>
       <path id="SimHei-35" d="M 550 1325 
Q 725 650 1150 575 
Q 1575 500 1837 662 
Q 2100 825 2212 1087 
Q 2325 1350 2312 1675 
Q 2300 2000 2137 2225 
Q 1975 2450 1725 2525 
Q 1475 2600 1162 2525 
Q 850 2450 650 2175 
L 225 2225 
Q 275 2375 700 4375 
L 2675 4375 
L 2675 3925 
L 1075 3925 
Q 950 3250 825 2850 
Q 1200 3025 1525 3012 
Q 1850 3000 2150 2862 
Q 2450 2725 2587 2487 
Q 2725 2250 2787 2012 
Q 2850 1775 2837 1500 
Q 2825 1225 2725 937 
Q 2625 650 2425 462 
Q 2225 275 1937 162 
Q 1650 50 1275 75 
Q 900 100 562 350 
Q 225 600 100 1200 
L 550 1325 
z
" transform="scale(0.015625)"/>
      </defs>
      <use xlink:href="#SimHei-35"/>
      <use xlink:href="#SimHei-30" transform="translate(50 0)"/>
      <use xlink:href="#SimHei-30" transform="translate(100 0)"/>
      <use xlink:href="#SimHei-30" transform="translate(150 0)"/>
     </g>
    </g>
   </g>
   <g id="text_7">
    <!-- Future Time $\Delta t$ (h) -->
    <g style="fill: #262626" transform="translate(206.741697 607.669962) rotate(-338.321927) scale(0.18 -0.18)">
     <defs>
      <path id="SimHei-46" d="M 2925 3925 
L 875 3925 
L 875 2525 
L 2425 2525 
L 2425 2050 
L 875 2050 
L 875 125 
L 300 125 
L 300 4400 
L 2925 4400 
L 2925 3925 
z
" transform="scale(0.015625)"/>
      <path id="SimHei-75" d="M 2800 125 
L 2300 125 
L 2300 650 
Q 2100 375 1862 225 
Q 1625 75 1250 75 
Q 800 75 575 325 
Q 350 575 350 950 
L 350 2925 
L 850 2925 
L 850 1125 
Q 850 825 1000 650 
Q 1150 475 1400 475 
Q 1725 475 2012 812 
Q 2300 1150 2300 1650 
L 2300 2925 
L 2800 2925 
L 2800 125 
z
" transform="scale(0.015625)"/>
      <path id="SimHei-74" d="M 2750 200 
Q 2625 150 2462 112 
Q 2300 75 2025 75 
Q 1575 75 1300 325 
Q 1025 575 1025 1025 
L 1025 2525 
L 175 2525 
L 175 2925 
L 1025 2925 
L 1025 3900 
L 1525 3900 
L 1525 2925 
L 2550 2925 
L 2550 2525 
L 1525 2525 
L 1525 1000 
Q 1525 800 1625 662 
Q 1725 525 2000 525 
Q 2275 525 2450 575 
Q 2625 625 2750 700 
L 2750 200 
z
" transform="scale(0.015625)"/>
      <path id="SimHei-72" d="M 2500 2425 
Q 2025 2500 1700 2287 
Q 1375 2075 1150 1550 
L 1150 125 
L 650 125 
L 650 2925 
L 1150 2925 
L 1150 2200 
Q 1375 2600 1712 2787 
Q 2050 2975 2500 2975 
L 2500 2425 
z
" transform="scale(0.015625)"/>
      <path id="SimHei-65" d="M 2850 1075 
Q 2800 625 2450 350 
Q 2100 75 1625 75 
Q 1025 75 637 462 
Q 250 850 250 1525 
Q 250 2200 637 2587 
Q 1025 2975 1625 2975 
Q 2150 2975 2487 2637 
Q 2825 2300 2825 1525 
L 800 1525 
Q 800 975 1037 750 
Q 1275 525 1625 525 
Q 1900 525 2075 662 
Q 2250 800 2300 1075 
L 2850 1075 
z
M 2250 1925 
Q 2200 2275 2025 2412 
Q 1850 2550 1575 2550 
Q 1325 2550 1125 2412 
Q 925 2275 825 1925 
L 2250 1925 
z
" transform="scale(0.015625)"/>
      <path id="SimHei-20" transform="scale(0.015625)"/>
      <path id="SimHei-54" d="M 2850 3925 
L 1850 3925 
L 1850 125 
L 1275 125 
L 1275 3925 
L 275 3925 
L 275 4400 
L 2850 4400 
L 2850 3925 
z
" transform="scale(0.015625)"/>
      <path id="SimHei-69" d="M 1800 3725 
L 1300 3725 
L 1300 4375 
L 1800 4375 
L 1800 3725 
z
M 1800 125 
L 1300 125 
L 1300 2925 
L 1800 2925 
L 1800 125 
z
" transform="scale(0.015625)"/>
      <path id="SimHei-6d" d="M 3050 125 
L 2550 125 
L 2550 2150 
Q 2550 2300 2500 2400 
Q 2450 2500 2300 2500 
Q 2125 2500 1975 2312 
Q 1825 2125 1825 1825 
L 1825 125 
L 1325 125 
L 1325 2150 
Q 1325 2300 1275 2400 
Q 1225 2500 1075 2500 
Q 900 2500 750 2312 
Q 600 2125 600 1825 
L 600 125 
L 100 125 
L 100 2925 
L 600 2925 
L 600 2550 
Q 725 2750 900 2862 
Q 1075 2975 1275 2975 
Q 1475 2975 1612 2862 
Q 1750 2750 1800 2550 
Q 1925 2750 2087 2862 
Q 2250 2975 2450 2975 
Q 2750 2975 2900 2812 
Q 3050 2650 3050 2350 
L 3050 125 
z
" transform="scale(0.015625)"/>
      <path id="DejaVuSans-394" d="M 2188 4044 
L 906 525 
L 3472 525 
L 2188 4044 
z
M 50 0 
L 1831 4666 
L 2547 4666 
L 4325 0 
L 50 0 
z
" transform="scale(0.015625)"/>
      <path id="DejaVuSans-Oblique-74" d="M 2706 3500 
L 2619 3053 
L 1472 3053 
L 1100 1153 
Q 1081 1047 1072 975 
Q 1063 903 1063 863 
Q 1063 663 1183 572 
Q 1303 481 1569 481 
L 2150 481 
L 2053 0 
L 1503 0 
Q 991 0 739 200 
Q 488 400 488 806 
Q 488 878 497 964 
Q 506 1050 525 1153 
L 897 3053 
L 409 3053 
L 500 3500 
L 978 3500 
L 1172 4494 
L 1747 4494 
L 1556 3500 
L 2706 3500 
z
" transform="scale(0.015625)"/>
      <path id="SimHei-28" d="M 2975 -200 
L 2700 -475 
Q 2075 125 1762 775 
Q 1450 1425 1450 2250 
Q 1450 3075 1762 3725 
Q 2075 4375 2700 5000 
L 2975 4725 
Q 2400 4175 2112 3587 
Q 1825 3000 1825 2250 
Q 1825 1500 2112 912 
Q 2400 325 2975 -200 
z
" transform="scale(0.015625)"/>
      <path id="SimHei-68" d="M 2800 125 
L 2300 125 
L 2300 1925 
Q 2300 2225 2150 2400 
Q 2000 2575 1750 2575 
Q 1425 2575 1137 2237 
Q 850 1900 850 1400 
L 850 125 
L 350 125 
L 350 4400 
L 850 4400 
L 850 2400 
Q 1050 2675 1287 2825 
Q 1525 2975 1900 2975 
Q 2350 2975 2575 2725 
Q 2800 2475 2800 2100 
L 2800 125 
z
" transform="scale(0.015625)"/>
      <path id="SimHei-29" d="M 1675 2250 
Q 1675 1425 1362 775 
Q 1050 125 425 -475 
L 150 -200 
Q 725 325 1012 912 
Q 1300 1500 1300 2250 
Q 1300 3000 1012 3587 
Q 725 4175 150 4725 
L 425 5000 
Q 1050 4375 1362 3725 
Q 1675 3075 1675 2250 
z
" transform="scale(0.015625)"/>
     </defs>
     <use xlink:href="#SimHei-46" transform="translate(0 0.875)"/>
     <use xlink:href="#SimHei-75" transform="translate(50 0.875)"/>
     <use xlink:href="#SimHei-74" transform="translate(100 0.875)"/>
     <use xlink:href="#SimHei-75" transform="translate(150 0.875)"/>
     <use xlink:href="#SimHei-72" transform="translate(200 0.875)"/>
     <use xlink:href="#SimHei-65" transform="translate(250 0.875)"/>
     <use xlink:href="#SimHei-20" transform="translate(300 0.875)"/>
     <use xlink:href="#SimHei-54" transform="translate(350 0.875)"/>
     <use xlink:href="#SimHei-69" transform="translate(400 0.875)"/>
     <use xlink:href="#SimHei-6d" transform="translate(450 0.875)"/>
     <use xlink:href="#SimHei-65" transform="translate(500 0.875)"/>
     <use xlink:href="#SimHei-20" transform="translate(550 0.875)"/>
     <use xlink:href="#DejaVuSans-394" transform="translate(600 0.875)"/>
     <use xlink:href="#DejaVuSans-Oblique-74" transform="translate(668.408203 0.875)"/>
     <use xlink:href="#SimHei-20" transform="translate(707.617188 0.875)"/>
     <use xlink:href="#SimHei-28" transform="translate(757.617188 0.875)"/>
     <use xlink:href="#SimHei-68" transform="translate(807.617188 0.875)"/>
     <use xlink:href="#SimHei-29" transform="translate(857.617188 0.875)"/>
    </g>
   </g>
  </g>
  <g id="axis3d_2">
   <g id="line2d_14">
    <path d="M 717.718356 457.351909 
L 491.022734 646.457087 
" style="fill: none; stroke: #cccccc; stroke-width: 1.25; stroke-linecap: round"/>
   </g>
   <g id="xtick_7">
    <g id="line2d_15">
     <path d="M 437.156757 351.243243 
" clip-path="url(#p6b16ead5a5)" style="fill: none; stroke: #cccccc; stroke-linecap: round"/>
    </g>
    <g id="line2d_16">
     <path d="M 503.75061 632.287664 
L 512.434111 635.710823 
" style="fill: none; stroke: #262626; stroke-width: 1.25; stroke-linecap: round"/>
    </g>
    <g id="text_8">
     <!-- 102 -->
     <g style="fill: #262626" transform="translate(512.110302 653.685368) scale(0.09 -0.09)">
      <use xlink:href="#SimHei-31"/>
      <use xlink:href="#SimHei-30" transform="translate(50 0)"/>
      <use xlink:href="#SimHei-32" transform="translate(100 0)"/>
     </g>
    </g>
   </g>
   <g id="xtick_8">
    <g id="line2d_17">
     <path d="M 437.156757 351.243243 
" clip-path="url(#p6b16ead5a5)" style="fill: none; stroke: #cccccc; stroke-linecap: round"/>
    </g>
    <g id="line2d_18">
     <path d="M 522.990685 616.262673 
L 531.642078 619.63833 
" style="fill: none; stroke: #262626; stroke-width: 1.25; stroke-linecap: round"/>
    </g>
    <g id="text_9">
     <!-- 103 -->
     <g style="fill: #262626" transform="translate(531.264484 637.538344) scale(0.09 -0.09)">
      <use xlink:href="#SimHei-31"/>
      <use xlink:href="#SimHei-30" transform="translate(50 0)"/>
      <use xlink:href="#SimHei-33" transform="translate(100 0)"/>
     </g>
    </g>
   </g>
   <g id="xtick_9">
    <g id="line2d_19">
     <path d="M 437.156757 351.243243 
" clip-path="url(#p6b16ead5a5)" style="fill: none; stroke: #cccccc; stroke-linecap: round"/>
    </g>
    <g id="line2d_20">
     <path d="M 541.964891 600.459122 
L 550.58423 603.78826 
" style="fill: none; stroke: #262626; stroke-width: 1.25; stroke-linecap: round"/>
    </g>
    <g id="text_10">
     <!-- 104 -->
     <g style="fill: #262626" transform="translate(550.153719 621.61467) scale(0.09 -0.09)">
      <use xlink:href="#SimHei-31"/>
      <use xlink:href="#SimHei-30" transform="translate(50 0)"/>
      <use xlink:href="#SimHei-34" transform="translate(100 0)"/>
     </g>
    </g>
   </g>
   <g id="xtick_10">
    <g id="line2d_21">
     <path d="M 437.156757 351.243243 
" clip-path="url(#p6b16ead5a5)" style="fill: none; stroke: #cccccc; stroke-linecap: round"/>
    </g>
    <g id="line2d_22">
     <path d="M 560.678701 584.872455 
L 569.266048 588.156028 
" style="fill: none; stroke: #262626; stroke-width: 1.25; stroke-linecap: round"/>
    </g>
    <g id="text_11">
     <!-- 105 -->
     <g style="fill: #262626" transform="translate(568.783468 605.909743) scale(0.09 -0.09)">
      <use xlink:href="#SimHei-31"/>
      <use xlink:href="#SimHei-30" transform="translate(50 0)"/>
      <use xlink:href="#SimHei-35" transform="translate(100 0)"/>
     </g>
    </g>
   </g>
   <g id="xtick_11">
    <g id="line2d_23">
     <path d="M 437.156757 351.243243 
" clip-path="url(#p6b16ead5a5)" style="fill: none; stroke: #cccccc; stroke-linecap: round"/>
    </g>
    <g id="line2d_24">
     <path d="M 579.137439 569.498235 
L 587.692863 572.737174 
" style="fill: none; stroke: #262626; stroke-width: 1.25; stroke-linecap: round"/>
    </g>
    <g id="text_12">
     <!-- 107 -->
     <g style="fill: #262626" transform="translate(587.159041 590.419088) scale(0.09 -0.09)">
      <defs>
       <path id="SimHei-37" d="M 850 150 
Q 1300 2050 2425 3925 
L 275 3925 
L 275 4375 
L 2950 4375 
L 2950 3950 
Q 1775 2050 1400 150 
L 850 150 
z
" transform="scale(0.015625)"/>
      </defs>
      <use xlink:href="#SimHei-31"/>
      <use xlink:href="#SimHei-30" transform="translate(50 0)"/>
      <use xlink:href="#SimHei-37" transform="translate(100 0)"/>
     </g>
    </g>
   </g>
   <g id="xtick_12">
    <g id="line2d_25">
     <path d="M 437.156757 351.243243 
" clip-path="url(#p6b16ead5a5)" style="fill: none; stroke: #cccccc; stroke-linecap: round"/>
    </g>
    <g id="line2d_26">
     <path d="M 597.346285 554.33215 
L 605.869859 557.527358 
" style="fill: none; stroke: #262626; stroke-width: 1.25; stroke-linecap: round"/>
    </g>
    <g id="text_13">
     <!-- 108 -->
     <g style="fill: #262626" transform="translate(605.285605 575.138348) scale(0.09 -0.09)">
      <defs>
       <path id="SimHei-38" d="M 175 1375 
Q 175 1675 325 1962 
Q 475 2250 825 2425 
Q 525 2600 425 2812 
Q 325 3025 312 3300 
Q 300 3575 387 3775 
Q 475 3975 650 4150 
Q 825 4325 1037 4387 
Q 1250 4450 1500 4450 
Q 1750 4450 1950 4400 
Q 2150 4350 2375 4187 
Q 2600 4025 2700 3725 
Q 2800 3425 2687 3025 
Q 2575 2625 2100 2400 
Q 2525 2275 2700 2012 
Q 2875 1750 2875 1375 
Q 2875 1000 2762 775 
Q 2650 550 2512 400 
Q 2375 250 2137 162 
Q 1900 75 1537 75 
Q 1175 75 912 162 
Q 650 250 475 425 
Q 300 600 237 837 
Q 175 1075 175 1375 
z
M 687 1400 
Q 675 1100 787 875 
Q 900 650 1200 587 
Q 1500 525 1825 600 
Q 2150 675 2275 950 
Q 2400 1225 2362 1500 
Q 2325 1775 2050 1962 
Q 1775 2150 1450 2125 
Q 1125 2100 912 1900 
Q 700 1700 687 1400 
z
M 775 3350 
Q 775 3100 950 2875 
Q 1125 2650 1500 2650 
Q 1875 2650 2062 2875 
Q 2250 3100 2237 3412 
Q 2225 3725 2012 3875 
Q 1800 4025 1437 4000 
Q 1075 3975 925 3787 
Q 775 3600 775 3350 
z
" transform="scale(0.015625)"/>
      </defs>
      <use xlink:href="#SimHei-31"/>
      <use xlink:href="#SimHei-30" transform="translate(50 0)"/>
      <use xlink:href="#SimHei-38" transform="translate(100 0)"/>
     </g>
    </g>
   </g>
   <g id="xtick_13">
    <g id="line2d_27">
     <path d="M 437.156757 351.243243 
" clip-path="url(#p6b16ead5a5)" style="fill: none; stroke: #cccccc; stroke-linecap: round"/>
    </g>
    <g id="line2d_28">
     <path d="M 615.31028 539.370001 
L 623.802084 542.522357 
" style="fill: none; stroke: #262626; stroke-width: 1.25; stroke-linecap: round"/>
    </g>
    <g id="text_14">
     <!-- 109 -->
     <g style="fill: #262626" transform="translate(623.168186 560.063285) scale(0.09 -0.09)">
      <defs>
       <path id="SimHei-39" d="M 800 75 
Q 1350 1000 1700 1750 
Q 1075 1650 662 1912 
Q 250 2175 162 2625 
Q 75 3075 175 3437 
Q 275 3800 487 4037 
Q 700 4275 1000 4375 
Q 1300 4475 1537 4475 
Q 1775 4475 2025 4375 
Q 2275 4275 2475 4075 
Q 2675 3875 2750 3662 
Q 2825 3450 2825 3112 
Q 2825 2775 2575 2250 
Q 2325 1725 1350 75 
L 800 75 
z
M 662 2875 
Q 700 2550 937 2337 
Q 1175 2125 1450 2150 
Q 1725 2175 1887 2300 
Q 2050 2425 2200 2725 
Q 2300 3100 2250 3362 
Q 2200 3625 1987 3800 
Q 1775 3975 1525 3975 
Q 1375 4000 1137 3900 
Q 900 3800 762 3500 
Q 625 3200 662 2875 
z
" transform="scale(0.015625)"/>
      </defs>
      <use xlink:href="#SimHei-31"/>
      <use xlink:href="#SimHei-30" transform="translate(50 0)"/>
      <use xlink:href="#SimHei-39" transform="translate(100 0)"/>
     </g>
    </g>
   </g>
   <g id="xtick_14">
    <g id="line2d_29">
     <path d="M 437.156757 351.243243 
" clip-path="url(#p6b16ead5a5)" style="fill: none; stroke: #cccccc; stroke-linecap: round"/>
    </g>
    <g id="line2d_30">
     <path d="M 633.034328 524.607703 
L 641.494447 527.718063 
" style="fill: none; stroke: #262626; stroke-width: 1.25; stroke-linecap: round"/>
    </g>
    <g id="text_15">
     <!-- 111 -->
     <g style="fill: #262626" transform="translate(640.811679 545.189776) scale(0.09 -0.09)">
      <use xlink:href="#SimHei-31"/>
      <use xlink:href="#SimHei-31" transform="translate(50 0)"/>
      <use xlink:href="#SimHei-31" transform="translate(100 0)"/>
     </g>
    </g>
   </g>
   <g id="xtick_15">
    <g id="line2d_31">
     <path d="M 437.156757 351.243243 
" clip-path="url(#p6b16ead5a5)" style="fill: none; stroke: #cccccc; stroke-linecap: round"/>
    </g>
    <g id="line2d_32">
     <path d="M 650.523207 510.041277 
L 658.95173 513.110476 
" style="fill: none; stroke: #262626; stroke-width: 1.25; stroke-linecap: round"/>
    </g>
    <g id="text_16">
     <!-- 112 -->
     <g style="fill: #262626" transform="translate(658.220846 530.513803) scale(0.09 -0.09)">
      <use xlink:href="#SimHei-31"/>
      <use xlink:href="#SimHei-31" transform="translate(50 0)"/>
      <use xlink:href="#SimHei-32" transform="translate(100 0)"/>
     </g>
    </g>
   </g>
   <g id="xtick_16">
    <g id="line2d_33">
     <path d="M 437.156757 351.243243 
" clip-path="url(#p6b16ead5a5)" style="fill: none; stroke: #cccccc; stroke-linecap: round"/>
    </g>
    <g id="line2d_34">
     <path d="M 667.781564 495.66685 
L 676.178587 498.6957 
" style="fill: none; stroke: #262626; stroke-width: 1.25; stroke-linecap: round"/>
    </g>
    <g id="text_17">
     <!-- 113 -->
     <g style="fill: #262626" transform="translate(675.400324 516.031459) scale(0.09 -0.09)">
      <use xlink:href="#SimHei-31"/>
      <use xlink:href="#SimHei-31" transform="translate(50 0)"/>
      <use xlink:href="#SimHei-33" transform="translate(100 0)"/>
     </g>
    </g>
   </g>
   <g id="xtick_17">
    <g id="line2d_35">
     <path d="M 437.156757 351.243243 
" clip-path="url(#p6b16ead5a5)" style="fill: none; stroke: #cccccc; stroke-linecap: round"/>
    </g>
    <g id="line2d_36">
     <path d="M 684.813929 481.480653 
L 693.179551 484.469943 
" style="fill: none; stroke: #262626; stroke-width: 1.25; stroke-linecap: round"/>
    </g>
    <g id="text_18">
     <!-- 114 -->
     <g style="fill: #262626" transform="translate(692.354629 501.738935) scale(0.09 -0.09)">
      <use xlink:href="#SimHei-31"/>
      <use xlink:href="#SimHei-31" transform="translate(50 0)"/>
      <use xlink:href="#SimHei-34" transform="translate(100 0)"/>
     </g>
    </g>
   </g>
   <g id="xtick_18">
    <g id="line2d_37">
     <path d="M 437.156757 351.243243 
" clip-path="url(#p6b16ead5a5)" style="fill: none; stroke: #cccccc; stroke-linecap: round"/>
    </g>
    <g id="line2d_38">
     <path d="M 701.62471 467.479011 
L 709.959035 470.429511 
" style="fill: none; stroke: #262626; stroke-width: 1.25; stroke-linecap: round"/>
    </g>
    <g id="text_19">
     <!-- 115 -->
     <g style="fill: #262626" transform="translate(709.088161 487.632525) scale(0.09 -0.09)">
      <use xlink:href="#SimHei-31"/>
      <use xlink:href="#SimHei-31" transform="translate(50 0)"/>
      <use xlink:href="#SimHei-35" transform="translate(100 0)"/>
     </g>
    </g>
   </g>
   <g id="text_20">
    <!-- Unit Index (Censored) -->
    <g style="fill: #262626" transform="translate(587.447641 666.702247) rotate(-39.834222) scale(0.18 -0.18)">
     <defs>
      <path id="SimHei-55" d="M 2875 1375 
Q 2875 775 2562 425 
Q 2250 75 1575 75 
Q 900 75 587 425 
Q 275 775 275 1375 
L 275 4400 
L 850 4400 
L 850 1375 
Q 850 950 1050 750 
Q 1250 550 1575 550 
Q 1900 550 2100 750 
Q 2300 950 2300 1375 
L 2300 4400 
L 2875 4400 
L 2875 1375 
z
" transform="scale(0.015625)"/>
      <path id="SimHei-6e" d="M 2800 125 
L 2300 125 
L 2300 1925 
Q 2300 2225 2150 2400 
Q 2000 2575 1750 2575 
Q 1425 2575 1137 2237 
Q 850 1900 850 1400 
L 850 125 
L 350 125 
L 350 2925 
L 850 2925 
L 850 2400 
Q 1050 2675 1287 2825 
Q 1525 2975 1900 2975 
Q 2350 2975 2575 2725 
Q 2800 2475 2800 2100 
L 2800 125 
z
" transform="scale(0.015625)"/>
      <path id="SimHei-49" d="M 1850 125 
L 1275 125 
L 1275 4400 
L 1850 4400 
L 1850 125 
z
" transform="scale(0.015625)"/>
      <path id="SimHei-64" d="M 2750 125 
L 2250 125 
L 2250 500 
Q 2100 275 1900 175 
Q 1700 75 1425 75 
Q 925 75 575 437 
Q 225 800 225 1525 
Q 225 2250 575 2625 
Q 925 3000 1425 3000 
Q 1700 3000 1900 2887 
Q 2100 2775 2250 2550 
L 2250 4400 
L 2750 4400 
L 2750 125 
z
M 2250 1525 
Q 2250 2000 2037 2275 
Q 1825 2550 1525 2550 
Q 1150 2550 962 2275 
Q 775 2000 775 1525 
Q 775 1050 962 787 
Q 1150 525 1525 525 
Q 1825 525 2037 787 
Q 2250 1050 2250 1525 
z
" transform="scale(0.015625)"/>
      <path id="SimHei-78" d="M 2875 125 
L 2275 125 
L 1550 1200 
L 825 125 
L 225 125 
L 1250 1550 
L 300 2925 
L 900 2925 
L 1550 1875 
L 2200 2925 
L 2800 2925 
L 1850 1550 
L 2875 125 
z
" transform="scale(0.015625)"/>
      <path id="SimHei-43" d="M 2975 1825 
Q 2950 875 2575 475 
Q 2200 75 1675 75 
Q 1075 75 650 562 
Q 225 1050 225 2125 
Q 225 3300 637 3875 
Q 1050 4450 1700 4450 
Q 2250 4450 2612 4037 
Q 2975 3625 2950 2875 
L 2400 2875 
Q 2400 3425 2225 3700 
Q 2050 3975 1700 3975 
Q 1300 3975 1062 3562 
Q 825 3150 825 2175 
Q 825 1275 1062 912 
Q 1300 550 1675 550 
Q 1950 550 2175 812 
Q 2400 1075 2400 1825 
L 2975 1825 
z
" transform="scale(0.015625)"/>
      <path id="SimHei-73" d="M 2750 900 
Q 2750 500 2437 287 
Q 2125 75 1650 75 
Q 1050 75 725 312 
Q 400 550 400 1000 
L 900 1000 
Q 900 700 1112 600 
Q 1325 500 1625 500 
Q 1925 500 2075 612 
Q 2225 725 2225 900 
Q 2225 1025 2100 1150 
Q 1975 1275 1475 1350 
Q 900 1425 687 1637 
Q 475 1850 475 2200 
Q 475 2500 762 2737 
Q 1050 2975 1600 2975 
Q 2100 2975 2387 2750 
Q 2675 2525 2675 2150 
L 2175 2150 
Q 2175 2375 2012 2462 
Q 1850 2550 1600 2550 
Q 1275 2550 1137 2437 
Q 1000 2325 1000 2175 
Q 1000 2000 1125 1900 
Q 1250 1800 1650 1750 
Q 2300 1650 2525 1437 
Q 2750 1225 2750 900 
z
" transform="scale(0.015625)"/>
      <path id="SimHei-6f" d="M 2925 1525 
Q 2925 875 2525 475 
Q 2125 75 1575 75 
Q 1025 75 625 475 
Q 225 875 225 1525 
Q 225 2175 625 2575 
Q 1025 2975 1575 2975 
Q 2125 2975 2525 2575 
Q 2925 2175 2925 1525 
z
M 2375 1525 
Q 2375 2025 2125 2275 
Q 1875 2525 1575 2525 
Q 1275 2525 1025 2275 
Q 775 2025 775 1525 
Q 775 1025 1025 775 
Q 1275 525 1575 525 
Q 1875 525 2125 775 
Q 2375 1025 2375 1525 
z
" transform="scale(0.015625)"/>
     </defs>
     <use xlink:href="#SimHei-55"/>
     <use xlink:href="#SimHei-6e" transform="translate(50 0)"/>
     <use xlink:href="#SimHei-69" transform="translate(100 0)"/>
     <use xlink:href="#SimHei-74" transform="translate(150 0)"/>
     <use xlink:href="#SimHei-20" transform="translate(200 0)"/>
     <use xlink:href="#SimHei-49" transform="translate(250 0)"/>
     <use xlink:href="#SimHei-6e" transform="translate(300 0)"/>
     <use xlink:href="#SimHei-64" transform="translate(350 0)"/>
     <use xlink:href="#SimHei-65" transform="translate(400 0)"/>
     <use xlink:href="#SimHei-78" transform="translate(450 0)"/>
     <use xlink:href="#SimHei-20" transform="translate(500 0)"/>
     <use xlink:href="#SimHei-28" transform="translate(550 0)"/>
     <use xlink:href="#SimHei-43" transform="translate(600 0)"/>
     <use xlink:href="#SimHei-65" transform="translate(650 0)"/>
     <use xlink:href="#SimHei-6e" transform="translate(700 0)"/>
     <use xlink:href="#SimHei-73" transform="translate(750 0)"/>
     <use xlink:href="#SimHei-6f" transform="translate(800 0)"/>
     <use xlink:href="#SimHei-72" transform="translate(850 0)"/>
     <use xlink:href="#SimHei-65" transform="translate(900 0)"/>
     <use xlink:href="#SimHei-64" transform="translate(950 0)"/>
     <use xlink:href="#SimHei-29" transform="translate(1000 0)"/>
    </g>
   </g>
  </g>
  <g id="axis3d_3">
   <g id="line2d_39">
    <path d="M 717.718356 457.351909 
L 730.365628 188.650732 
" style="fill: none; stroke: #cccccc; stroke-width: 1.25; stroke-linecap: round"/>
   </g>
   <g id="xtick_19">
    <g id="line2d_40">
     <path d="M 437.156757 351.243243 
" style="fill: none; stroke: #cccccc; stroke-linecap: round"/>
    </g>
    <g id="line2d_41">
     <path d="M 715.190867 451.234343 
L 723.507676 454.14973 
" style="fill: none; stroke: #262626; stroke-width: 1.25; stroke-linecap: round"/>
    </g>
    <g id="text_21">
     <!-- 0.0000 -->
     <g style="fill: #262626" transform="translate(715.846841 460.060377) scale(0.14 -0.14)">
      <defs>
       <path id="SimHei-2e" d="M 1075 125 
L 500 125 
L 500 675 
L 1075 675 
L 1075 125 
z
" transform="scale(0.015625)"/>
      </defs>
      <use xlink:href="#SimHei-30"/>
      <use xlink:href="#SimHei-2e" transform="translate(50 0)"/>
      <use xlink:href="#SimHei-30" transform="translate(100 0)"/>
      <use xlink:href="#SimHei-30" transform="translate(150 0)"/>
      <use xlink:href="#SimHei-30" transform="translate(200 0)"/>
      <use xlink:href="#SimHei-30" transform="translate(250 0)"/>
     </g>
    </g>
   </g>
   <g id="xtick_20">
    <g id="line2d_42">
     <path d="M 437.156757 351.243243 
" style="fill: none; stroke: #cccccc; stroke-linecap: round"/>
    </g>
    <g id="line2d_43">
     <path d="M 716.535563 422.375918 
L 724.894508 425.265589 
" style="fill: none; stroke: #262626; stroke-width: 1.25; stroke-linecap: round"/>
    </g>
    <g id="text_22">
     <!-- 0.0005 -->
     <g style="fill: #262626" transform="translate(717.295727 431.209006) scale(0.14 -0.14)">
      <use xlink:href="#SimHei-30"/>
      <use xlink:href="#SimHei-2e" transform="translate(50 0)"/>
      <use xlink:href="#SimHei-30" transform="translate(100 0)"/>
      <use xlink:href="#SimHei-30" transform="translate(150 0)"/>
      <use xlink:href="#SimHei-30" transform="translate(200 0)"/>
      <use xlink:href="#SimHei-35" transform="translate(250 0)"/>
     </g>
    </g>
   </g>
   <g id="xtick_21">
    <g id="line2d_44">
     <path d="M 437.156757 351.243243 
" style="fill: none; stroke: #cccccc; stroke-linecap: round"/>
    </g>
    <g id="line2d_45">
     <path d="M 717.89333 393.236992 
L 726.294838 396.100309 
" style="fill: none; stroke: #262626; stroke-width: 1.25; stroke-linecap: round"/>
    </g>
    <g id="text_23">
     <!-- 0.0010 -->
     <g style="fill: #262626" transform="translate(718.758691 402.07731) scale(0.14 -0.14)">
      <use xlink:href="#SimHei-30"/>
      <use xlink:href="#SimHei-2e" transform="translate(50 0)"/>
      <use xlink:href="#SimHei-30" transform="translate(100 0)"/>
      <use xlink:href="#SimHei-30" transform="translate(150 0)"/>
      <use xlink:href="#SimHei-31" transform="translate(200 0)"/>
      <use xlink:href="#SimHei-30" transform="translate(250 0)"/>
     </g>
    </g>
   </g>
   <g id="xtick_22">
    <g id="line2d_46">
     <path d="M 437.156757 351.243243 
" style="fill: none; stroke: #cccccc; stroke-linecap: round"/>
    </g>
    <g id="line2d_47">
     <path d="M 719.264359 363.813456 
L 727.708865 366.649763 
" style="fill: none; stroke: #262626; stroke-width: 1.25; stroke-linecap: round"/>
    </g>
    <g id="text_24">
     <!-- 0.0015 -->
     <g style="fill: #262626" transform="translate(720.235939 372.661182) scale(0.14 -0.14)">
      <use xlink:href="#SimHei-30"/>
      <use xlink:href="#SimHei-2e" transform="translate(50 0)"/>
      <use xlink:href="#SimHei-30" transform="translate(100 0)"/>
      <use xlink:href="#SimHei-30" transform="translate(150 0)"/>
      <use xlink:href="#SimHei-31" transform="translate(200 0)"/>
      <use xlink:href="#SimHei-35" transform="translate(250 0)"/>
     </g>
    </g>
   </g>
   <g id="xtick_23">
    <g id="line2d_48">
     <path d="M 437.156757 351.243243 
" style="fill: none; stroke: #cccccc; stroke-linecap: round"/>
    </g>
    <g id="line2d_49">
     <path d="M 720.648844 334.101118 
L 729.136791 336.909746 
" style="fill: none; stroke: #262626; stroke-width: 1.25; stroke-linecap: round"/>
    </g>
    <g id="text_25">
     <!-- 0.0020 -->
     <g style="fill: #262626" transform="translate(721.72768 342.956437) scale(0.14 -0.14)">
      <use xlink:href="#SimHei-30"/>
      <use xlink:href="#SimHei-2e" transform="translate(50 0)"/>
      <use xlink:href="#SimHei-30" transform="translate(100 0)"/>
      <use xlink:href="#SimHei-30" transform="translate(150 0)"/>
      <use xlink:href="#SimHei-32" transform="translate(200 0)"/>
      <use xlink:href="#SimHei-30" transform="translate(250 0)"/>
     </g>
    </g>
   </g>
   <g id="xtick_24">
    <g id="line2d_50">
     <path d="M 437.156757 351.243243 
" style="fill: none; stroke: #cccccc; stroke-linecap: round"/>
    </g>
    <g id="line2d_51">
     <path d="M 722.046986 304.095707 
L 730.578821 306.87597 
" style="fill: none; stroke: #262626; stroke-width: 1.25; stroke-linecap: round"/>
    </g>
    <g id="text_26">
     <!-- 0.0025 -->
     <g style="fill: #262626" transform="translate(723.234131 312.958805) scale(0.14 -0.14)">
      <use xlink:href="#SimHei-30"/>
      <use xlink:href="#SimHei-2e" transform="translate(50 0)"/>
      <use xlink:href="#SimHei-30" transform="translate(100 0)"/>
      <use xlink:href="#SimHei-30" transform="translate(150 0)"/>
      <use xlink:href="#SimHei-32" transform="translate(200 0)"/>
      <use xlink:href="#SimHei-35" transform="translate(250 0)"/>
     </g>
    </g>
   </g>
   <g id="xtick_25">
    <g id="line2d_52">
     <path d="M 437.156757 351.243243 
" style="fill: none; stroke: #cccccc; stroke-linecap: round"/>
    </g>
    <g id="line2d_53">
     <path d="M 723.458987 273.792864 
L 732.035166 276.54406 
" style="fill: none; stroke: #262626; stroke-width: 1.25; stroke-linecap: round"/>
    </g>
    <g id="text_27">
     <!-- 0.0030 -->
     <g style="fill: #262626" transform="translate(724.755508 282.663935) scale(0.14 -0.14)">
      <use xlink:href="#SimHei-30"/>
      <use xlink:href="#SimHei-2e" transform="translate(50 0)"/>
      <use xlink:href="#SimHei-30" transform="translate(100 0)"/>
      <use xlink:href="#SimHei-30" transform="translate(150 0)"/>
      <use xlink:href="#SimHei-33" transform="translate(200 0)"/>
      <use xlink:href="#SimHei-30" transform="translate(250 0)"/>
     </g>
    </g>
   </g>
   <g id="xtick_26">
    <g id="line2d_54">
     <path d="M 437.156757 351.243243 
" style="fill: none; stroke: #cccccc; stroke-linecap: round"/>
    </g>
    <g id="line2d_55">
     <path d="M 724.885055 243.188146 
L 733.506039 245.909554 
" style="fill: none; stroke: #262626; stroke-width: 1.25; stroke-linecap: round"/>
    </g>
    <g id="text_28">
     <!-- 0.0035 -->
     <g style="fill: #262626" transform="translate(726.292035 252.067386) scale(0.14 -0.14)">
      <use xlink:href="#SimHei-30"/>
      <use xlink:href="#SimHei-2e" transform="translate(50 0)"/>
      <use xlink:href="#SimHei-30" transform="translate(100 0)"/>
      <use xlink:href="#SimHei-30" transform="translate(150 0)"/>
      <use xlink:href="#SimHei-33" transform="translate(200 0)"/>
      <use xlink:href="#SimHei-35" transform="translate(250 0)"/>
     </g>
    </g>
   </g>
   <g id="xtick_27">
    <g id="line2d_56">
     <path d="M 437.156757 351.243243 
" style="fill: none; stroke: #cccccc; stroke-linecap: round"/>
    </g>
    <g id="line2d_57">
     <path d="M 726.3254 212.277017 
L 734.99166 214.967903 
" style="fill: none; stroke: #262626; stroke-width: 1.25; stroke-linecap: round"/>
    </g>
    <g id="text_29">
     <!-- 0.0040 -->
     <g style="fill: #262626" transform="translate(727.84394 221.164628) scale(0.14 -0.14)">
      <use xlink:href="#SimHei-30"/>
      <use xlink:href="#SimHei-2e" transform="translate(50 0)"/>
      <use xlink:href="#SimHei-30" transform="translate(100 0)"/>
      <use xlink:href="#SimHei-30" transform="translate(150 0)"/>
      <use xlink:href="#SimHei-34" transform="translate(200 0)"/>
      <use xlink:href="#SimHei-30" transform="translate(250 0)"/>
     </g>
    </g>
   </g>
   <g id="text_30">
    <!-- Cond. PDF $f(t)$ -->
    <g style="fill: #262626" transform="translate(786.960358 379.618495) rotate(-87.305182) scale(0.18 -0.18)">
     <defs>
      <path id="SimHei-50" d="M 2950 3100 
Q 2950 2500 2600 2150 
Q 2250 1800 1625 1800 
L 900 1800 
L 900 125 
L 325 125 
L 325 4400 
L 1625 4400 
Q 2250 4400 2600 4050 
Q 2950 3700 2950 3100 
z
M 2375 3100 
Q 2375 3575 2150 3750 
Q 1925 3925 1475 3925 
L 900 3925 
L 900 2275 
L 1475 2275 
Q 1925 2275 2150 2450 
Q 2375 2625 2375 3100 
z
" transform="scale(0.015625)"/>
      <path id="SimHei-44" d="M 2925 2250 
Q 2925 1100 2437 612 
Q 1950 125 1125 125 
L 275 125 
L 275 4400 
L 1125 4400 
Q 2050 4400 2487 3900 
Q 2925 3400 2925 2250 
z
M 2325 2250 
Q 2325 3175 2025 3550 
Q 1725 3925 1125 3925 
L 850 3925 
L 850 600 
L 1125 600 
Q 1725 600 2025 962 
Q 2325 1325 2325 2250 
z
" transform="scale(0.015625)"/>
      <path id="DejaVuSans-Oblique-66" d="M 3059 4863 
L 2969 4384 
L 2419 4384 
Q 2106 4384 1964 4261 
Q 1822 4138 1753 3809 
L 1691 3500 
L 2638 3500 
L 2553 3053 
L 1606 3053 
L 1013 0 
L 434 0 
L 1031 3053 
L 481 3053 
L 563 3500 
L 1113 3500 
L 1159 3744 
Q 1278 4363 1576 4613 
Q 1875 4863 2516 4863 
L 3059 4863 
z
" transform="scale(0.015625)"/>
      <path id="DejaVuSans-28" d="M 1984 4856 
Q 1566 4138 1362 3434 
Q 1159 2731 1159 2009 
Q 1159 1288 1364 580 
Q 1569 -128 1984 -844 
L 1484 -844 
Q 1016 -109 783 600 
Q 550 1309 550 2009 
Q 550 2706 781 3412 
Q 1013 4119 1484 4856 
L 1984 4856 
z
" transform="scale(0.015625)"/>
      <path id="DejaVuSans-29" d="M 513 4856 
L 1013 4856 
Q 1481 4119 1714 3412 
Q 1947 2706 1947 2009 
Q 1947 1309 1714 600 
Q 1481 -109 1013 -844 
L 513 -844 
Q 928 -128 1133 580 
Q 1338 1288 1338 2009 
Q 1338 2731 1133 3434 
Q 928 4138 513 4856 
z
" transform="scale(0.015625)"/>
     </defs>
     <use xlink:href="#SimHei-43" transform="translate(0 0.015625)"/>
     <use xlink:href="#SimHei-6f" transform="translate(50 0.015625)"/>
     <use xlink:href="#SimHei-6e" transform="translate(100 0.015625)"/>
     <use xlink:href="#SimHei-64" transform="translate(150 0.015625)"/>
     <use xlink:href="#SimHei-2e" transform="translate(200 0.015625)"/>
     <use xlink:href="#SimHei-20" transform="translate(250 0.015625)"/>
     <use xlink:href="#SimHei-50" transform="translate(300 0.015625)"/>
     <use xlink:href="#SimHei-44" transform="translate(350 0.015625)"/>
     <use xlink:href="#SimHei-46" transform="translate(400 0.015625)"/>
     <use xlink:href="#SimHei-20" transform="translate(450 0.015625)"/>
     <use xlink:href="#DejaVuSans-Oblique-66" transform="translate(500 0.015625)"/>
     <use xlink:href="#DejaVuSans-28" transform="translate(535.205078 0.015625)"/>
     <use xlink:href="#DejaVuSans-Oblique-74" transform="translate(574.21875 0.015625)"/>
     <use xlink:href="#DejaVuSans-29" transform="translate(613.427734 0.015625)"/>
    </g>
   </g>
  </g>
  <g id="axes_1">
   <g id="line2d_58">
    <path d="M 186.341168 502.017745 
L 188.224654 502.641976 
L 189.156459 502.705034 
L 190.06842 502.283067 
L 190.941119 500.903876 
L 191.746015 497.868073 
L 192.446801 492.277482 
L 193.00394 483.141665 
L 193.382199 469.559973 
L 193.55991 450.950071 
L 193.53787 427.272986 
L 193.042539 368.147096 
L 192.462122 305.918638 
L 192.388818 279.857126 
L 192.583345 260.320072 
L 193.107208 248.940311 
L 193.986057 246.467056 
L 195.208074 252.706832 
L 196.728972 266.632496 
L 198.481774 286.617289 
L 202.371732 336.998898 
L 206.305597 389.314834 
L 209.911116 433.81191 
L 211.540801 451.746285 
L 213.052839 466.696043 
L 214.455451 478.842475 
L 215.76125 488.487631 
L 216.984857 495.992691 
L 218.141117 501.731109 
L 219.243909 506.056472 
L 220.305448 509.283274 
L 221.335996 511.677955 
L 222.343839 513.457353 
L 223.335447 514.791948 
L 224.315722 515.811738 
L 225.288276 516.613165 
L 227.219844 517.819544 
L 230.103109 519.173802 
L 236.825819 521.87803 
L 454.558643 607.510152 
L 483.762819 618.995704 
L 483.762819 618.995704 
" clip-path="url(#p6b16ead5a5)" style="fill: none; stroke: #0d0887; stroke-opacity: 0.8; stroke-width: 2.5; stroke-linecap: round"/>
   </g>
   <g id="line2d_59">
    <path d="M 206.650961 487.708545 
L 259.857797 508.331868 
L 263.691406 509.614488 
L 266.563824 510.355278 
L 268.475142 510.657817 
L 270.381522 510.728945 
L 272.280787 510.482609 
L 273.226984 510.209228 
L 274.170453 509.817487 
L 275.110859 509.293043 
L 276.047869 508.621318 
L 276.981161 507.787804 
L 277.910436 506.778429 
L 278.835425 505.579955 
L 279.755902 504.180416 
L 280.671695 502.56958 
L 282.488872 498.684587 
L 284.287053 493.89553 
L 286.06781 488.229213 
L 287.834353 481.778957 
L 290.468573 471.013381 
L 294.875788 452.411767 
L 296.667914 445.715664 
L 298.488323 439.970362 
L 299.41114 437.553922 
L 300.343225 435.487883 
L 301.285068 433.801334 
L 302.23702 432.51815 
L 303.199291 431.656531 
L 304.171947 431.228678 
L 305.154905 431.240619 
L 306.147947 431.692185 
L 307.15072 432.577136 
L 308.162752 433.883421 
L 309.18346 435.593569 
L 310.212171 437.685188 
L 311.248132 440.131563 
L 313.338525 445.964104 
L 315.447767 452.817143 
L 318.631765 464.357857 
L 326.051926 492.297319 
L 329.195511 502.974294 
L 331.274227 509.342145 
L 333.339044 515.053732 
L 335.390499 520.102387 
L 337.429622 524.510123 
L 339.457768 528.319932 
L 341.476454 531.588566 
L 343.487245 534.380217 
L 345.491655 536.76135 
L 347.491083 538.796761 
L 349.486778 540.546815 
L 351.479819 542.065724 
L 354.46634 544.011992 
L 357.451277 545.672028 
L 361.431573 547.601948 
L 367.407576 550.173915 
L 377.391138 554.158265 
L 426.814068 573.409866 
L 503.093838 603.102748 
L 503.093838 603.102748 
" clip-path="url(#p6b16ead5a5)" style="fill: none; stroke: #3e049c; stroke-opacity: 0.8; stroke-width: 2.5; stroke-linecap: round"/>
   </g>
   <g id="line2d_60">
    <path d="M 226.694626 473.580008 
L 306.646723 504.278568 
L 311.473272 505.894009 
L 314.369823 506.694237 
L 317.265111 507.270935 
L 319.193675 507.476473 
L 321.120179 507.49189 
L 323.043922 507.271069 
L 324.964193 506.764241 
L 326.880321 505.920233 
L 328.791731 504.689478 
L 330.69801 503.027714 
L 332.598972 500.900178 
L 334.494716 498.286008 
L 336.385681 495.182511 
L 338.272675 491.608872 
L 340.156884 487.60889 
L 342.981441 480.969257 
L 350.551995 462.295284 
L 352.465159 458.201101 
L 354.390393 454.646666 
L 356.329049 451.770849 
L 357.303703 450.625008 
L 358.282001 449.69058 
L 359.26397 448.9777 
L 360.249604 448.494419 
L 361.238863 448.246616 
L 362.231676 448.237934 
L 363.227942 448.469756 
L 364.22753 448.941219 
L 365.230283 449.64926 
L 366.236023 450.588696 
L 367.244549 451.752338 
L 368.255644 453.13113 
L 370.284613 456.489598 
L 372.320989 460.560988 
L 374.362783 465.224513 
L 377.431426 473.041215 
L 381.525154 484.294421 
L 386.631573 498.341729 
L 389.685173 506.196122 
L 392.729966 513.366471 
L 395.766238 519.746726 
L 397.786154 523.543097 
L 399.803123 526.978786 
L 401.817598 530.068636 
L 403.830053 532.83431 
L 405.840959 535.302128 
L 407.850764 537.501157 
L 409.859883 539.461591 
L 412.873078 542.020214 
L 415.886629 544.204724 
L 418.901375 546.099869 
L 422.923972 548.29845 
L 426.950849 550.241172 
L 433.000512 552.873969 
L 442.097924 556.534872 
L 464.456755 565.194455 
L 522.158391 587.428867 
L 522.158391 587.428867 
" clip-path="url(#p6b16ead5a5)" style="fill: none; stroke: #6300a7; stroke-opacity: 0.8; stroke-width: 2.5; stroke-linecap: round"/>
   </g>
   <g id="line2d_61">
    <path d="M 246.477635 459.635205 
L 279.413386 472.110838 
L 282.249515 472.992637 
L 284.137634 473.41263 
L 286.020903 473.584487 
L 286.959675 473.533134 
L 287.895849 473.360466 
L 288.828829 473.040225 
L 289.75796 472.543252 
L 290.68255 471.837906 
L 291.601877 470.890716 
L 292.51522 469.667253 
L 293.421883 468.133247 
L 294.321228 466.255915 
L 295.212708 464.005462 
L 296.095908 461.356727 
L 296.970573 458.290884 
L 297.836653 454.797133 
L 299.544019 446.532186 
L 301.222576 436.690848 
L 302.88126 425.60427 
L 307.033319 396.345167 
L 308.740339 386.050655 
L 309.611936 381.610883 
L 310.497826 377.763683 
L 311.399334 374.586261 
L 312.317446 372.142036 
L 313.252789 370.478709 
L 314.205611 369.626934 
L 315.175783 369.599634 
L 316.162811 370.391985 
L 317.165865 371.982042 
L 318.183816 374.33195 
L 319.215281 377.389674 
L 320.258677 381.091124 
L 322.374268 390.123227 
L 324.516054 400.769369 
L 328.822758 424.182749 
L 332.029475 441.27772 
L 334.14261 451.648812 
L 336.232088 460.913916 
L 338.29722 468.967311 
L 340.33909 475.803443 
L 342.359974 481.49093 
L 344.362819 486.146726 
L 346.350812 489.913296 
L 348.327064 492.940383 
L 350.294408 495.371849 
L 352.255286 497.337324 
L 354.211711 498.947904 
L 356.165282 500.294911 
L 359.092884 501.97498 
L 362.99536 503.835099 
L 367.87686 505.872135 
L 378.641443 510.047033 
L 511.047039 560.558183 
L 540.961948 571.969562 
L 540.961948 571.969562 
" clip-path="url(#p6b16ead5a5)" style="fill: none; stroke: #8606a6; stroke-opacity: 0.8; stroke-width: 2.5; stroke-linecap: round"/>
   </g>
   <g id="line2d_62">
    <path d="M 266.005039 445.870574 
L 310.189275 462.469026 
L 313.976856 463.650635 
L 315.869512 464.086829 
L 317.759899 464.337941 
L 319.64641 464.31346 
L 320.587604 464.162612 
L 321.527058 463.89746 
L 322.464476 463.499879 
L 323.399557 462.950674 
L 324.331995 462.229926 
L 325.261492 461.317434 
L 326.18777 460.193245 
L 327.110577 458.838269 
L 328.029703 457.234959 
L 328.94499 455.368048 
L 329.856344 453.225317 
L 331.667274 448.083358 
L 333.463436 441.800681 
L 335.247364 434.461504 
L 337.023243 426.255015 
L 343.266186 395.74385 
L 345.087234 388.387704 
L 346.00809 385.232024 
L 346.936636 382.493142 
L 347.87332 380.214919 
L 348.818455 378.433867 
L 349.772212 377.178301 
L 350.734616 376.46772 
L 351.705551 376.312454 
L 352.684763 376.713565 
L 353.671873 377.66302 
L 354.666387 379.144109 
L 355.667714 381.132083 
L 356.675183 383.594989 
L 357.68806 386.494658 
L 359.726915 393.427212 
L 361.777911 401.543386 
L 364.863829 415.03844 
L 369.991204 437.918982 
L 373.040764 450.305337 
L 375.059729 457.640849 
L 377.067404 464.153183 
L 379.064484 469.83134 
L 381.052079 474.706655 
L 383.031531 478.840492 
L 385.004269 482.312854 
L 386.971693 485.212655 
L 388.9351 487.630041 
L 390.895631 489.650824 
L 392.854261 491.352863 
L 394.81179 492.804107 
L 397.747379 494.633393 
L 400.683478 496.176089 
L 404.600797 497.965728 
L 410.484747 500.369351 
L 423.272728 505.264019 
L 559.509834 556.720457 
L 559.509834 556.720457 
" clip-path="url(#p6b16ead5a5)" style="fill: none; stroke: #a62098; stroke-opacity: 0.8; stroke-width: 2.5; stroke-linecap: round"/>
   </g>
   <g id="line2d_63">
    <path d="M 285.28176 432.282647 
L 360.675863 460.367069 
L 365.452204 461.89356 
L 368.3199 462.624104 
L 371.188061 463.106907 
L 373.099944 463.229426 
L 375.011276 463.13957 
L 376.921743 462.785659 
L 378.831059 462.11237 
L 380.739004 461.063554 
L 382.645457 459.585955 
L 384.550431 457.633691 
L 386.454105 455.173234 
L 388.356844 452.188507 
L 390.25921 448.68565 
L 392.161953 444.696916 
L 395.018819 437.944117 
L 398.838739 428.050725 
L 402.678879 418.193691 
L 404.608807 413.69959 
L 406.54611 409.724816 
L 408.491043 406.428205 
L 409.466366 405.078061 
L 410.443554 403.946594 
L 411.422553 403.046161 
L 412.403291 402.386852 
L 413.385681 401.976359 
L 414.369622 401.81988 
L 415.354997 401.920076 
L 416.341682 402.277063 
L 417.329544 402.888451 
L 418.318441 403.749422 
L 419.308231 404.852847 
L 420.298767 406.189436 
L 421.289906 407.747919 
L 423.27343 411.476848 
L 425.257739 415.918199 
L 427.241899 420.933732 
L 430.216244 429.211745 
L 440.100718 457.822033 
L 443.057543 465.371117 
L 445.027478 469.94998 
L 446.996847 474.141539 
L 448.966041 477.942194 
L 450.93543 481.360707 
L 452.905345 484.415475 
L 454.876075 487.131886 
L 456.847858 489.539909 
L 458.820884 491.671979 
L 460.795299 493.561249 
L 463.759743 496.010519 
L 466.727746 498.087907 
L 469.699387 499.882026 
L 473.667209 501.958464 
L 478.635824 504.226661 
L 484.61062 506.686707 
L 495.598091 510.914053 
L 535.907614 526.00825 
L 577.807227 541.677294 
L 577.807227 541.677294 
" clip-path="url(#p6b16ead5a5)" style="fill: none; stroke: #c03a83; stroke-opacity: 0.8; stroke-width: 2.5; stroke-linecap: round"/>
   </g>
   <g id="line2d_64">
    <path d="M 304.312595 418.868042 
L 330.39153 428.420622 
L 333.195313 429.175914 
L 335.06164 429.412724 
L 335.993016 429.391701 
L 336.922634 429.240408 
L 337.849985 428.924421 
L 338.774498 428.404245 
L 339.695549 427.63578 
L 340.612487 426.571209 
L 341.524648 425.160333 
L 342.431393 423.352383 
L 343.33214 421.098262 
L 344.226406 418.35318 
L 345.113845 415.079554 
L 345.994291 411.250058 
L 346.867794 406.850627 
L 348.595438 396.368345 
L 350.302451 383.879259 
L 352.84722 362.731376 
L 355.416159 341.614815 
L 357.167935 329.512323 
L 358.060648 324.487654 
L 358.966264 320.312354 
L 359.885635 317.085213 
L 360.819241 314.880457 
L 361.767183 313.745199 
L 362.729183 313.698143 
L 363.70461 314.72959 
L 364.692516 316.802682 
L 365.691685 319.855779 
L 366.700692 323.80576 
L 367.717963 328.552028 
L 369.770655 339.970449 
L 371.83658 353.127798 
L 378.007085 393.861827 
L 380.032773 405.612427 
L 382.038733 415.840476 
L 384.025696 424.465075 
L 385.995665 431.542337 
L 387.951332 437.219897 
L 389.895595 441.695389 
L 391.831229 445.182983 
L 393.760683 447.889462 
L 395.685989 449.999441 
L 397.60875 451.668203 
L 399.530175 453.020139 
L 402.411656 454.656149 
L 405.293968 456.01143 
L 410.102303 457.979696 
L 420.706977 461.969838 
L 595.859169 526.835929 
L 595.859169 526.835929 
" clip-path="url(#p6b16ead5a5)" style="fill: none; stroke: #d5546e; stroke-opacity: 0.8; stroke-width: 2.5; stroke-linecap: round"/>
   </g>
   <g id="line2d_65">
    <path d="M 323.102218 405.623464 
L 360.318553 419.17316 
L 363.127181 420.003717 
L 364.999428 420.407049 
L 366.870581 420.596983 
L 368.7395 420.455952 
L 369.672692 420.214434 
L 370.604782 419.829383 
L 371.535569 419.276193 
L 372.464852 418.528767 
L 373.392433 417.560098 
L 374.318134 416.343005 
L 375.241797 414.851014 
L 376.163302 413.059381 
L 377.082571 410.946207 
L 377.999579 408.493634 
L 378.914365 405.68905 
L 380.737776 399.006644 
L 382.55457 390.945246 
L 384.367731 381.696286 
L 387.089728 366.393756 
L 389.829053 350.969773 
L 391.672903 341.675341 
L 393.535369 333.920529 
L 394.474381 330.798984 
L 395.418804 328.260135 
L 396.368666 326.349782 
L 397.323893 325.101548 
L 398.2843 324.536079 
L 399.249611 324.660672 
L 400.219461 325.469359 
L 401.193415 326.94341 
L 402.170981 329.052235 
L 403.151627 331.754617 
L 404.134797 335.000222 
L 406.106463 342.88452 
L 408.081648 352.18723 
L 411.042892 367.604946 
L 414.974853 388.297098 
L 416.93082 397.83704 
L 418.879788 406.510396 
L 420.822245 414.193485 
L 422.759042 420.846589 
L 424.691219 426.496223 
L 426.619868 431.21617 
L 428.546028 435.109579 
L 430.470625 438.293663 
L 432.394438 440.887715 
L 434.318088 443.004611 
L 436.242053 444.745501 
L 438.166681 446.197147 
L 440.092218 447.43128 
L 442.982573 448.9967 
L 446.84065 450.756914 
L 452.637449 453.070848 
L 465.237501 457.751045 
L 613.670565 512.192328 
L 613.670565 512.192328 
" clip-path="url(#p6b16ead5a5)" style="fill: none; stroke: #e76f5a; stroke-opacity: 0.8; stroke-width: 2.5; stroke-linecap: round"/>
   </g>
   <g id="line2d_66">
    <path d="M 341.655187 392.545701 
L 367.575213 401.85768 
L 370.363458 402.591165 
L 372.221107 402.817251 
L 373.149026 402.792793 
L 374.076012 402.63982 
L 375.001775 402.324324 
L 375.925991 401.807269 
L 376.848318 401.04505 
L 377.768403 399.990357 
L 378.6859 398.593496 
L 379.600487 396.804168 
L 380.511888 394.573689 
L 381.4199 391.857585 
L 382.324407 388.618468 
L 383.225411 384.829045 
L 384.123042 380.475109 
L 385.909456 370.09845 
L 387.687708 357.729588 
L 390.354094 336.769343 
L 393.043837 315.813448 
L 394.863398 303.782782 
L 395.783467 298.779697 
L 396.711059 294.615321 
L 397.646415 291.387991 
L 398.589565 289.171811 
L 399.540326 288.014103 
L 400.498316 287.934092 
L 401.462979 288.922885 
L 402.43361 290.94467 
L 403.409392 293.939038 
L 404.389429 297.824229 
L 405.372787 302.501072 
L 407.345741 313.772442 
L 409.321254 326.780607 
L 415.213699 367.129067 
L 417.158355 378.783817 
L 419.092842 388.932861 
L 421.018355 397.493478 
L 422.936521 404.519362 
L 424.849088 410.155576 
L 426.757708 414.597337 
L 428.663815 418.05673 
L 430.568566 420.738854 
L 432.472844 422.82704 
L 434.377286 424.47564 
L 436.282329 425.808402 
L 439.141617 427.416619 
L 442.003421 428.744599 
L 446.779255 430.66757 
L 457.314041 434.557623 
L 631.24619 497.742565 
L 631.24619 497.742565 
" clip-path="url(#p6b16ead5a5)" style="fill: none; stroke: #f68d45; stroke-opacity: 0.8; stroke-width: 2.5; stroke-linecap: round"/>
   </g>
   <g id="line2d_67">
    <path d="M 359.975944 379.631621 
L 381.184724 387.169674 
L 383.035123 387.678899 
L 384.885066 387.986413 
L 385.809459 388.009827 
L 386.733171 387.904677 
L 387.655932 387.63073 
L 388.577435 387.140269 
L 389.497347 386.378412 
L 390.415319 385.284064 
L 391.331008 383.791596 
L 392.244093 381.833306 
L 393.154305 379.342632 
L 394.061451 376.258048 
L 394.965443 372.527459 
L 395.866321 368.112882 
L 396.764274 362.995093 
L 398.552976 350.691769 
L 400.336326 335.980965 
L 405.729624 287.725856 
L 406.645179 280.994859 
L 407.567493 275.148056 
L 408.496896 270.344117 
L 409.433485 266.711941 
L 410.377124 264.345143 
L 411.327453 263.298431 
L 412.283918 263.586063 
L 413.245798 265.182432 
L 414.212247 268.024627 
L 415.182343 272.016728 
L 416.155126 277.035428 
L 417.129647 282.936575 
L 419.080363 296.747156 
L 421.999836 320.03818 
L 424.90056 342.977454 
L 426.821833 356.694514 
L 428.733697 368.61838 
L 430.637659 378.59423 
L 432.53558 386.670769 
L 434.429324 393.032027 
L 435.375155 395.648233 
L 436.320535 397.934528 
L 437.265619 399.926077 
L 439.155404 403.160369 
L 441.045333 405.602706 
L 442.935946 407.466023 
L 444.827576 408.920281 
L 446.720403 410.09465 
L 449.562062 411.529298 
L 453.355544 413.123405 
L 460.00658 415.612851 
L 495.418608 428.367461 
L 648.590697 483.482816 
L 648.590697 483.482816 
" clip-path="url(#p6b16ead5a5)" style="fill: none; stroke: #fdae32; stroke-opacity: 0.8; stroke-width: 2.5; stroke-linecap: round"/>
   </g>
   <g id="line2d_68">
    <path d="M 378.068822 366.878171 
L 430.757528 385.544538 
L 434.491436 386.615453 
L 437.295258 387.160149 
L 439.166294 387.305488 
L 441.039032 387.192797 
L 442.9138 386.732475 
L 443.852083 386.340237 
L 444.791056 385.821807 
L 445.730798 385.163203 
L 446.671396 384.350486 
L 447.612947 383.370098 
L 448.555553 382.209246 
L 449.499324 380.856321 
L 451.390808 377.536371 
L 453.2883 373.35792 
L 455.192623 368.315729 
L 457.104418 362.463481 
L 459.024018 355.921509 
L 462.885786 341.58716 
L 465.798199 330.855561 
L 467.744359 324.329882 
L 469.691526 318.699109 
L 470.664697 316.315533 
L 471.637159 314.26471 
L 472.608591 312.575024 
L 473.578684 311.269926 
L 474.547144 310.367481 
L 475.513704 309.880048 
L 476.478128 309.814091 
L 477.440211 310.170149 
L 478.399791 310.94293 
L 479.356744 312.121553 
L 480.310993 313.689901 
L 481.262504 315.62709 
L 482.211286 317.908022 
L 484.100918 323.383463 
L 485.98078 329.855989 
L 488.785468 340.810872 
L 496.222403 371.031085 
L 498.082559 377.722853 
L 499.946223 383.830347 
L 501.814423 389.309595 
L 503.687855 394.151828 
L 505.56691 398.376328 
L 507.451711 402.023052 
L 509.34217 405.145656 
L 511.238034 407.805365 
L 513.138943 410.065932 
L 515.044472 411.989764 
L 516.954172 413.635189 
L 518.867597 415.054734 
L 521.74381 416.858935 
L 524.626228 418.382346 
L 528.477411 420.134768 
L 533.301889 422.075535 
L 542.010007 425.295482 
L 574.168342 436.779192 
L 665.708614 469.409357 
L 665.708614 469.409357 
" clip-path="url(#p6b16ead5a5)" style="fill: none; stroke: #fcd225; stroke-opacity: 0.8; stroke-width: 2.5; stroke-linecap: round"/>
   </g>
   <g id="line2d_69">
    <path d="M 395.938047 354.282371 
L 455.911023 375.372939 
L 460.577394 376.756728 
L 463.382 377.362573 
L 465.254227 377.598043 
L 467.128895 377.638364 
L 469.006525 377.419303 
L 470.887774 376.86688 
L 472.773433 375.900338 
L 474.664404 374.436954 
L 476.561663 372.398678 
L 478.466197 369.72028 
L 480.37892 366.35841 
L 482.300568 362.30071 
L 484.231592 357.573889 
L 486.172047 352.249657 
L 489.099309 343.417207 
L 494.996067 325.107938 
L 496.965908 319.692248 
L 498.933134 315.036644 
L 499.914817 313.064475 
L 500.894722 311.362352 
L 501.872499 309.951256 
L 502.847822 308.848732 
L 503.820396 308.068586 
L 504.789958 307.620676 
L 505.756288 307.510774 
L 506.719206 307.740523 
L 507.67858 308.307478 
L 508.634325 309.205223 
L 509.586405 310.423574 
L 510.534833 311.948845 
L 511.479668 313.764175 
L 513.359019 318.183996 
L 515.225778 323.499859 
L 517.081805 329.504867 
L 519.850706 339.332305 
L 526.283984 362.656738 
L 529.047396 371.607484 
L 530.895969 376.998014 
L 532.750794 381.883029 
L 534.612502 386.253311 
L 536.481402 390.120096 
L 538.357525 393.510232 
L 540.240683 396.461507 
L 542.130521 399.018437 
L 544.026573 401.228667 
L 545.928308 403.140087 
L 547.835169 404.798659 
L 550.703874 406.904297 
L 553.581153 408.660452 
L 556.465524 410.167617 
L 560.320344 411.920192 
L 565.150499 413.868723 
L 573.870497 417.088844 
L 599.214794 426.069461 
L 682.604351 455.518562 
L 682.604351 455.518562 
" clip-path="url(#p6b16ead5a5)" style="fill: none; stroke: #f0f921; stroke-opacity: 0.8; stroke-width: 2.5; stroke-linecap: round"/>
   </g>
  </g>
 </g>
 <defs>
  <clipPath id="p6b16ead5a5">
   <rect x="104.4" y="36" width="648" height="648"/>
  </clipPath>
 </defs>
</svg>
