<?xml version="1.0" encoding="utf-8" standalone="no"?>
<!DOCTYPE svg PUBLIC "-//W3C//DTD SVG 1.1//EN"
  "http://www.w3.org/Graphics/SVG/1.1/DTD/svg11.dtd">
<svg xmlns:xlink="http://www.w3.org/1999/xlink" width="586.525716pt" height="568.8pt" viewBox="0 0 586.525716 568.8" xmlns="http://www.w3.org/2000/svg" version="1.1">
 <metadata>
  <rdf:RDF xmlns:dc="http://purl.org/dc/elements/1.1/" xmlns:cc="http://creativecommons.org/ns#" xmlns:rdf="http://www.w3.org/1999/02/22-rdf-syntax-ns#">
   <cc:Work>
    <dc:type rdf:resource="http://purl.org/dc/dcmitype/StillImage"/>
    <dc:date>2026-03-23T11:35:08.387520</dc:date>
    <dc:format>image/svg+xml</dc:format>
    <dc:creator>
     <cc:Agent>
      <dc:title>Matplotlib v3.10.8, https://matplotlib.org/</dc:title>
     </cc:Agent>
    </dc:creator>
   </cc:Work>
  </rdf:RDF>
 </metadata>
 <defs>
  <style type="text/css">*{stroke-linejoin: round; stroke-linecap: butt}</style>
 </defs>
 <g id="figure_1">
  <g id="patch_1">
   <path d="M 0 568.8 
L 586.525716 568.8 
L 586.525716 0 
L 0 0 
z
" style="fill: #ffffff"/>
  </g>
  <g id="patch_2">
   <path d="M 7.2 561.6 
L 561.6 561.6 
L 561.6 7.2 
L 7.2 7.2 
z
" style="fill: #ffffff"/>
  </g>
  <g id="pane3d_1">
   <g id="patch_3">
    <path d="M 46.800345 409.811357 
L 251.832624 246.81627 
L 249.864363 35.054627 
L 33.758561 189.146488 
" style="fill: #f2f2f2; opacity: 0.5; stroke: #f2f2f2; stroke-linejoin: miter"/>
   </g>
  </g>
  <g id="pane3d_2">
   <g id="patch_4">
    <path d="M 251.832624 246.81627 
L 531.326556 358.31245 
L 543.757994 140.331292 
L 249.864363 35.054627 
" style="fill: #e6e6e6; opacity: 0.5; stroke: #e6e6e6; stroke-linejoin: miter"/>
   </g>
  </g>
  <g id="pane3d_3">
   <g id="patch_5">
    <path d="M 46.800345 409.811357 
L 337.632178 540.127182 
L 531.326556 358.31245 
L 251.832624 246.81627 
" style="fill: #ececec; opacity: 0.5; stroke: #ececec; stroke-linejoin: miter"/>
   </g>
  </g>
  <g id="grid3d_1">
   <g id="Line3DCollection_1">
    <path d="M 64.348169 417.674179 
L 268.763947 253.570541 
L 267.623691 41.416258 
" style="fill: none; stroke: #cccccc"/>
    <path d="M 113.120371 439.528011 
L 315.776916 272.325032 
L 316.965671 59.091221 
" style="fill: none; stroke: #cccccc"/>
    <path d="M 162.853992 461.812634 
L 363.647466 291.421631 
L 367.252941 77.1048 
" style="fill: none; stroke: #cccccc"/>
    <path d="M 213.577742 484.540914 
L 412.399278 310.869784 
L 418.512929 95.466819 
" style="fill: none; stroke: #cccccc"/>
    <path d="M 265.321488 507.726233 
L 462.056913 330.67929 
L 470.774133 114.187488 
" style="fill: none; stroke: #cccccc"/>
    <path d="M 318.116307 531.382518 
L 512.645853 350.860313 
L 524.066177 133.277417 
" style="fill: none; stroke: #cccccc"/>
   </g>
  </g>
  <g id="grid3d_2">
   <g id="Line3DCollection_2">
    <path d="M 48.573945 178.582542 
L 60.805862 398.677352 
L 350.915794 527.658275 
" style="fill: none; stroke: #cccccc"/>
    <path d="M 66.828444 165.566372 
L 78.072729 384.950662 
L 367.282009 512.295832 
" style="fill: none; stroke: #cccccc"/>
    <path d="M 84.84688 152.718525 
L 95.127391 371.392669 
L 383.435553 497.133015 
" style="fill: none; stroke: #cccccc"/>
    <path d="M 102.633801 140.035757 
L 111.973736 358.000283 
L 399.380547 482.165958 
" style="fill: none; stroke: #cccccc"/>
    <path d="M 120.19364 127.514907 
L 128.615558 344.770487 
L 415.121002 467.390896 
" style="fill: none; stroke: #cccccc"/>
    <path d="M 137.53072 115.152893 
L 145.056558 331.700339 
L 430.660829 452.804156 
" style="fill: none; stroke: #cccccc"/>
    <path d="M 154.649252 102.946713 
L 161.30035 318.786966 
L 446.00384 438.402161 
" style="fill: none; stroke: #cccccc"/>
    <path d="M 171.553343 90.893437 
L 177.350461 306.027564 
L 461.15375 424.181424 
" style="fill: none; stroke: #cccccc"/>
    <path d="M 188.246996 78.990211 
L 193.210335 293.419396 
L 476.114182 410.138544 
" style="fill: none; stroke: #cccccc"/>
    <path d="M 204.734118 67.234251 
L 208.883333 280.959788 
L 490.888669 396.270204 
" style="fill: none; stroke: #cccccc"/>
    <path d="M 221.018518 55.622839 
L 224.37274 268.646131 
L 505.480655 382.573172 
" style="fill: none; stroke: #cccccc"/>
    <path d="M 237.103911 44.153327 
L 239.681761 256.475875 
L 519.893502 369.044293 
" style="fill: none; stroke: #cccccc"/>
   </g>
  </g>
  <g id="grid3d_3">
   <g id="Line3DCollection_3">
    <path d="M 531.563147 354.163911 
L 251.795067 242.775599 
L 46.552438 405.616796 
" style="fill: none; stroke: #cccccc"/>
    <path d="M 532.910272 330.542503 
L 251.581294 219.776168 
L 45.140652 381.729611 
" style="fill: none; stroke: #cccccc"/>
    <path d="M 534.272628 306.654056 
L 251.36523 196.530183 
L 43.712524 357.565922 
" style="fill: none; stroke: #cccccc"/>
    <path d="M 535.650472 282.494015 
L 251.146837 173.033658 
L 42.267769 333.120899 
" style="fill: none; stroke: #cccccc"/>
    <path d="M 537.04407 258.057722 
L 250.926077 149.282522 
L 40.806094 308.3896 
" style="fill: none; stroke: #cccccc"/>
    <path d="M 538.453695 233.340411 
L 250.702912 125.272613 
L 39.327201 283.366966 
" style="fill: none; stroke: #cccccc"/>
    <path d="M 539.879625 208.337207 
L 250.477302 100.999679 
L 37.830783 258.04782 
" style="fill: none; stroke: #cccccc"/>
    <path d="M 541.322143 183.043122 
L 250.249207 76.459374 
L 36.316527 232.42686 
" style="fill: none; stroke: #cccccc"/>
    <path d="M 542.781542 157.453049 
L 250.018586 51.647255 
L 34.784112 206.498656 
" style="fill: none; stroke: #cccccc"/>
   </g>
  </g>
  <g id="axis3d_1">
   <g id="line2d_1">
    <path d="M 46.800345 409.811357 
L 337.632178 540.127182 
" style="fill: none; stroke: #cccccc; stroke-width: 1.25; stroke-linecap: round"/>
   </g>
   <g id="xtick_1">
    <g id="line2d_2">
     <path d="M 291.891892 276.908108 
" clip-path="url(#p607bc13143)" style="fill: none; stroke: #cccccc; stroke-linecap: round"/>
    </g>
    <g id="line2d_3">
     <path d="M 66.11171 416.25842 
L 60.814384 420.511079 
" style="fill: none; stroke: #262626; stroke-width: 1.25; stroke-linecap: round"/>
    </g>
    <g id="text_1">
     <!-- 0 -->
     <g style="fill: #262626" transform="translate(52.954617 440.975718) scale(0.11 -0.11)">
      <defs>
       <path id="ArialMT-30" d="M 266 2259 
Q 266 3072 433 3567 
Q 600 4063 929 4331 
Q 1259 4600 1759 4600 
Q 2128 4600 2406 4451 
Q 2684 4303 2865 4023 
Q 3047 3744 3150 3342 
Q 3253 2941 3253 2259 
Q 3253 1453 3087 958 
Q 2922 463 2592 192 
Q 2263 -78 1759 -78 
Q 1097 -78 719 397 
Q 266 969 266 2259 
z
M 844 2259 
Q 844 1131 1108 757 
Q 1372 384 1759 384 
Q 2147 384 2411 759 
Q 2675 1134 2675 2259 
Q 2675 3391 2411 3762 
Q 2147 4134 1753 4134 
Q 1366 4134 1134 3806 
Q 844 3388 844 2259 
z
" transform="scale(0.015625)"/>
      </defs>
      <use xlink:href="#ArialMT-30"/>
     </g>
    </g>
   </g>
   <g id="xtick_2">
    <g id="line2d_4">
     <path d="M 291.891892 276.908108 
" clip-path="url(#p607bc13143)" style="fill: none; stroke: #cccccc; stroke-linecap: round"/>
    </g>
    <g id="line2d_5">
     <path d="M 114.869975 438.08449 
L 109.614449 442.420593 
" style="fill: none; stroke: #262626; stroke-width: 1.25; stroke-linecap: round"/>
    </g>
    <g id="text_2">
     <!-- 1000 -->
     <g style="fill: #262626" transform="translate(92.525566 463.005272) scale(0.11 -0.11)">
      <defs>
       <path id="ArialMT-31" d="M 2384 0 
L 1822 0 
L 1822 3584 
Q 1619 3391 1289 3197 
Q 959 3003 697 2906 
L 697 3450 
Q 1169 3672 1522 3987 
Q 1875 4303 2022 4600 
L 2384 4600 
L 2384 0 
z
" transform="scale(0.015625)"/>
      </defs>
      <use xlink:href="#ArialMT-31"/>
      <use xlink:href="#ArialMT-30" transform="translate(55.615234 0)"/>
      <use xlink:href="#ArialMT-30" transform="translate(111.230469 0)"/>
      <use xlink:href="#ArialMT-30" transform="translate(166.845703 0)"/>
     </g>
    </g>
   </g>
   <g id="xtick_3">
    <g id="line2d_6">
     <path d="M 291.891892 276.908108 
" clip-path="url(#p607bc13143)" style="fill: none; stroke: #cccccc; stroke-linecap: round"/>
    </g>
    <g id="line2d_7">
     <path d="M 164.588764 460.340527 
L 159.377725 464.762554 
" style="fill: none; stroke: #262626; stroke-width: 1.25; stroke-linecap: round"/>
    </g>
    <g id="text_3">
     <!-- 2000 -->
     <g style="fill: #262626" transform="translate(142.234082 485.469584) scale(0.11 -0.11)">
      <defs>
       <path id="ArialMT-32" d="M 3222 541 
L 3222 0 
L 194 0 
Q 188 203 259 391 
Q 375 700 629 1000 
Q 884 1300 1366 1694 
Q 2113 2306 2375 2664 
Q 2638 3022 2638 3341 
Q 2638 3675 2398 3904 
Q 2159 4134 1775 4134 
Q 1369 4134 1125 3890 
Q 881 3647 878 3216 
L 300 3275 
Q 359 3922 746 4261 
Q 1134 4600 1788 4600 
Q 2447 4600 2831 4234 
Q 3216 3869 3216 3328 
Q 3216 3053 3103 2787 
Q 2991 2522 2730 2228 
Q 2469 1934 1863 1422 
Q 1356 997 1212 845 
Q 1069 694 975 541 
L 3222 541 
z
" transform="scale(0.015625)"/>
      </defs>
      <use xlink:href="#ArialMT-32"/>
      <use xlink:href="#ArialMT-30" transform="translate(55.615234 0)"/>
      <use xlink:href="#ArialMT-30" transform="translate(111.230469 0)"/>
      <use xlink:href="#ArialMT-30" transform="translate(166.845703 0)"/>
     </g>
    </g>
   </g>
   <g id="xtick_4">
    <g id="line2d_8">
     <path d="M 291.891892 276.908108 
" clip-path="url(#p607bc13143)" style="fill: none; stroke: #cccccc; stroke-linecap: round"/>
    </g>
    <g id="line2d_9">
     <path d="M 215.296742 483.039363 
L 210.133013 487.549894 
" style="fill: none; stroke: #262626; stroke-width: 1.25; stroke-linecap: round"/>
    </g>
    <g id="text_4">
     <!-- 3000 -->
     <g style="fill: #262626" transform="translate(192.933381 508.381651) scale(0.11 -0.11)">
      <defs>
       <path id="ArialMT-33" d="M 269 1209 
L 831 1284 
Q 928 806 1161 595 
Q 1394 384 1728 384 
Q 2125 384 2398 659 
Q 2672 934 2672 1341 
Q 2672 1728 2419 1979 
Q 2166 2231 1775 2231 
Q 1616 2231 1378 2169 
L 1441 2663 
Q 1497 2656 1531 2656 
Q 1891 2656 2178 2843 
Q 2466 3031 2466 3422 
Q 2466 3731 2256 3934 
Q 2047 4138 1716 4138 
Q 1388 4138 1169 3931 
Q 950 3725 888 3313 
L 325 3413 
Q 428 3978 793 4289 
Q 1159 4600 1703 4600 
Q 2078 4600 2393 4439 
Q 2709 4278 2876 4000 
Q 3044 3722 3044 3409 
Q 3044 3113 2884 2869 
Q 2725 2625 2413 2481 
Q 2819 2388 3044 2092 
Q 3269 1797 3269 1353 
Q 3269 753 2831 336 
Q 2394 -81 1725 -81 
Q 1122 -81 723 278 
Q 325 638 269 1209 
z
" transform="scale(0.015625)"/>
      </defs>
      <use xlink:href="#ArialMT-33"/>
      <use xlink:href="#ArialMT-30" transform="translate(55.615234 0)"/>
      <use xlink:href="#ArialMT-30" transform="translate(111.230469 0)"/>
      <use xlink:href="#ArialMT-30" transform="translate(166.845703 0)"/>
     </g>
    </g>
   </g>
   <g id="xtick_5">
    <g id="line2d_10">
     <path d="M 291.891892 276.908108 
" clip-path="url(#p607bc13143)" style="fill: none; stroke: #cccccc; stroke-linecap: round"/>
    </g>
    <g id="line2d_11">
     <path d="M 267.023728 506.194346 
L 261.910276 510.796065 
" style="fill: none; stroke: #262626; stroke-width: 1.25; stroke-linecap: round"/>
    </g>
    <g id="text_5">
     <!-- 4000 -->
     <g style="fill: #262626" transform="translate(244.653384 531.754996) scale(0.11 -0.11)">
      <defs>
       <path id="ArialMT-34" d="M 2069 0 
L 2069 1097 
L 81 1097 
L 81 1613 
L 2172 4581 
L 2631 4581 
L 2631 1613 
L 3250 1613 
L 3250 1097 
L 2631 1097 
L 2631 0 
L 2069 0 
z
M 2069 1613 
L 2069 3678 
L 634 1613 
L 2069 1613 
z
" transform="scale(0.015625)"/>
      </defs>
      <use xlink:href="#ArialMT-34"/>
      <use xlink:href="#ArialMT-30" transform="translate(55.615234 0)"/>
      <use xlink:href="#ArialMT-30" transform="translate(111.230469 0)"/>
      <use xlink:href="#ArialMT-30" transform="translate(166.845703 0)"/>
     </g>
    </g>
   </g>
   <g id="xtick_6">
    <g id="line2d_12">
     <path d="M 291.891892 276.908108 
" clip-path="url(#p607bc13143)" style="fill: none; stroke: #cccccc; stroke-linecap: round"/>
    </g>
    <g id="line2d_13">
     <path d="M 319.800749 529.819365 
L 314.740694 534.515065 
" style="fill: none; stroke: #262626; stroke-width: 1.25; stroke-linecap: round"/>
    </g>
    <g id="text_6">
     <!-- 5000 -->
     <g style="fill: #262626" transform="translate(297.425228 555.603689) scale(0.11 -0.11)">
      <defs>
       <path id="ArialMT-35" d="M 266 1200 
L 856 1250 
Q 922 819 1161 601 
Q 1400 384 1738 384 
Q 2144 384 2425 690 
Q 2706 997 2706 1503 
Q 2706 1984 2436 2262 
Q 2166 2541 1728 2541 
Q 1456 2541 1237 2417 
Q 1019 2294 894 2097 
L 366 2166 
L 809 4519 
L 3088 4519 
L 3088 3981 
L 1259 3981 
L 1013 2750 
Q 1425 3038 1878 3038 
Q 2478 3038 2890 2622 
Q 3303 2206 3303 1553 
Q 3303 931 2941 478 
Q 2500 -78 1738 -78 
Q 1113 -78 717 272 
Q 322 622 266 1200 
z
" transform="scale(0.015625)"/>
      </defs>
      <use xlink:href="#ArialMT-35"/>
      <use xlink:href="#ArialMT-30" transform="translate(55.615234 0)"/>
      <use xlink:href="#ArialMT-30" transform="translate(111.230469 0)"/>
      <use xlink:href="#ArialMT-30" transform="translate(166.845703 0)"/>
     </g>
    </g>
   </g>
   <g id="text_7">
    <!-- Future Time $\Delta t$ (h) -->
    <g style="fill: #262626" transform="translate(115.311481 505.489985) rotate(-335.86382) scale(0.12 -0.12)">
     <defs>
      <path id="ArialMT-46" d="M 525 0 
L 525 4581 
L 3616 4581 
L 3616 4041 
L 1131 4041 
L 1131 2622 
L 3281 2622 
L 3281 2081 
L 1131 2081 
L 1131 0 
L 525 0 
z
" transform="scale(0.015625)"/>
      <path id="ArialMT-75" d="M 2597 0 
L 2597 488 
Q 2209 -75 1544 -75 
Q 1250 -75 995 37 
Q 741 150 617 320 
Q 494 491 444 738 
Q 409 903 409 1263 
L 409 3319 
L 972 3319 
L 972 1478 
Q 972 1038 1006 884 
Q 1059 663 1231 536 
Q 1403 409 1656 409 
Q 1909 409 2131 539 
Q 2353 669 2445 892 
Q 2538 1116 2538 1541 
L 2538 3319 
L 3100 3319 
L 3100 0 
L 2597 0 
z
" transform="scale(0.015625)"/>
      <path id="ArialMT-74" d="M 1650 503 
L 1731 6 
Q 1494 -44 1306 -44 
Q 1000 -44 831 53 
Q 663 150 594 308 
Q 525 466 525 972 
L 525 2881 
L 113 2881 
L 113 3319 
L 525 3319 
L 525 4141 
L 1084 4478 
L 1084 3319 
L 1650 3319 
L 1650 2881 
L 1084 2881 
L 1084 941 
Q 1084 700 1114 631 
Q 1144 563 1211 522 
Q 1278 481 1403 481 
Q 1497 481 1650 503 
z
" transform="scale(0.015625)"/>
      <path id="ArialMT-72" d="M 416 0 
L 416 3319 
L 922 3319 
L 922 2816 
Q 1116 3169 1280 3281 
Q 1444 3394 1641 3394 
Q 1925 3394 2219 3213 
L 2025 2691 
Q 1819 2813 1613 2813 
Q 1428 2813 1281 2702 
Q 1134 2591 1072 2394 
Q 978 2094 978 1738 
L 978 0 
L 416 0 
z
" transform="scale(0.015625)"/>
      <path id="ArialMT-65" d="M 2694 1069 
L 3275 997 
Q 3138 488 2766 206 
Q 2394 -75 1816 -75 
Q 1088 -75 661 373 
Q 234 822 234 1631 
Q 234 2469 665 2931 
Q 1097 3394 1784 3394 
Q 2450 3394 2872 2941 
Q 3294 2488 3294 1666 
Q 3294 1616 3291 1516 
L 816 1516 
Q 847 969 1125 678 
Q 1403 388 1819 388 
Q 2128 388 2347 550 
Q 2566 713 2694 1069 
z
M 847 1978 
L 2700 1978 
Q 2663 2397 2488 2606 
Q 2219 2931 1791 2931 
Q 1403 2931 1139 2672 
Q 875 2413 847 1978 
z
" transform="scale(0.015625)"/>
      <path id="ArialMT-20" transform="scale(0.015625)"/>
      <path id="ArialMT-54" d="M 1659 0 
L 1659 4041 
L 150 4041 
L 150 4581 
L 3781 4581 
L 3781 4041 
L 2266 4041 
L 2266 0 
L 1659 0 
z
" transform="scale(0.015625)"/>
      <path id="ArialMT-69" d="M 425 3934 
L 425 4581 
L 988 4581 
L 988 3934 
L 425 3934 
z
M 425 0 
L 425 3319 
L 988 3319 
L 988 0 
L 425 0 
z
" transform="scale(0.015625)"/>
      <path id="ArialMT-6d" d="M 422 0 
L 422 3319 
L 925 3319 
L 925 2853 
Q 1081 3097 1340 3245 
Q 1600 3394 1931 3394 
Q 2300 3394 2536 3241 
Q 2772 3088 2869 2813 
Q 3263 3394 3894 3394 
Q 4388 3394 4653 3120 
Q 4919 2847 4919 2278 
L 4919 0 
L 4359 0 
L 4359 2091 
Q 4359 2428 4304 2576 
Q 4250 2725 4106 2815 
Q 3963 2906 3769 2906 
Q 3419 2906 3187 2673 
Q 2956 2441 2956 1928 
L 2956 0 
L 2394 0 
L 2394 2156 
Q 2394 2531 2256 2718 
Q 2119 2906 1806 2906 
Q 1569 2906 1367 2781 
Q 1166 2656 1075 2415 
Q 984 2175 984 1722 
L 984 0 
L 422 0 
z
" transform="scale(0.015625)"/>
      <path id="DejaVuSans-394" d="M 2188 4044 
L 906 525 
L 3472 525 
L 2188 4044 
z
M 50 0 
L 1831 4666 
L 2547 4666 
L 4325 0 
L 50 0 
z
" transform="scale(0.015625)"/>
      <path id="DejaVuSans-Oblique-74" d="M 2706 3500 
L 2619 3053 
L 1472 3053 
L 1100 1153 
Q 1081 1047 1072 975 
Q 1063 903 1063 863 
Q 1063 663 1183 572 
Q 1303 481 1569 481 
L 2150 481 
L 2053 0 
L 1503 0 
Q 991 0 739 200 
Q 488 400 488 806 
Q 488 878 497 964 
Q 506 1050 525 1153 
L 897 3053 
L 409 3053 
L 500 3500 
L 978 3500 
L 1172 4494 
L 1747 4494 
L 1556 3500 
L 2706 3500 
z
" transform="scale(0.015625)"/>
      <path id="ArialMT-28" d="M 1497 -1347 
Q 1031 -759 709 28 
Q 388 816 388 1659 
Q 388 2403 628 3084 
Q 909 3875 1497 4659 
L 1900 4659 
Q 1522 4009 1400 3731 
Q 1209 3300 1100 2831 
Q 966 2247 966 1656 
Q 966 153 1900 -1347 
L 1497 -1347 
z
" transform="scale(0.015625)"/>
      <path id="ArialMT-68" d="M 422 0 
L 422 4581 
L 984 4581 
L 984 2938 
Q 1378 3394 1978 3394 
Q 2347 3394 2619 3248 
Q 2891 3103 3008 2847 
Q 3125 2591 3125 2103 
L 3125 0 
L 2563 0 
L 2563 2103 
Q 2563 2525 2380 2717 
Q 2197 2909 1863 2909 
Q 1613 2909 1392 2779 
Q 1172 2650 1078 2428 
Q 984 2206 984 1816 
L 984 0 
L 422 0 
z
" transform="scale(0.015625)"/>
      <path id="ArialMT-29" d="M 791 -1347 
L 388 -1347 
Q 1322 153 1322 1656 
Q 1322 2244 1188 2822 
Q 1081 3291 891 3722 
Q 769 4003 388 4659 
L 791 4659 
Q 1378 3875 1659 3084 
Q 1900 2403 1900 1659 
Q 1900 816 1576 28 
Q 1253 -759 791 -1347 
z
" transform="scale(0.015625)"/>
     </defs>
     <use xlink:href="#ArialMT-46" transform="translate(0 0.09375)"/>
     <use xlink:href="#ArialMT-75" transform="translate(61.083984 0.09375)"/>
     <use xlink:href="#ArialMT-74" transform="translate(116.699219 0.09375)"/>
     <use xlink:href="#ArialMT-75" transform="translate(144.482422 0.09375)"/>
     <use xlink:href="#ArialMT-72" transform="translate(200.097656 0.09375)"/>
     <use xlink:href="#ArialMT-65" transform="translate(233.398438 0.09375)"/>
     <use xlink:href="#ArialMT-20" transform="translate(289.013672 0.09375)"/>
     <use xlink:href="#ArialMT-54" transform="translate(316.796875 0.09375)"/>
     <use xlink:href="#ArialMT-69" transform="translate(377.880859 0.09375)"/>
     <use xlink:href="#ArialMT-6d" transform="translate(400.097656 0.09375)"/>
     <use xlink:href="#ArialMT-65" transform="translate(483.398438 0.09375)"/>
     <use xlink:href="#ArialMT-20" transform="translate(539.013672 0.09375)"/>
     <use xlink:href="#DejaVuSans-394" transform="translate(566.796875 0.09375)"/>
     <use xlink:href="#DejaVuSans-Oblique-74" transform="translate(635.205078 0.09375)"/>
     <use xlink:href="#ArialMT-20" transform="translate(674.414062 0.09375)"/>
     <use xlink:href="#ArialMT-28" transform="translate(702.197266 0.09375)"/>
     <use xlink:href="#ArialMT-68" transform="translate(735.498047 0.09375)"/>
     <use xlink:href="#ArialMT-29" transform="translate(791.113281 0.09375)"/>
    </g>
   </g>
  </g>
  <g id="axis3d_2">
   <g id="line2d_14">
    <path d="M 531.326556 358.31245 
L 337.632178 540.127182 
" style="fill: none; stroke: #cccccc; stroke-width: 1.25; stroke-linecap: round"/>
   </g>
   <g id="xtick_7">
    <g id="line2d_15">
     <path d="M 291.891892 276.908108 
" clip-path="url(#p607bc13143)" style="fill: none; stroke: #cccccc; stroke-linecap: round"/>
    </g>
    <g id="line2d_16">
     <path d="M 348.461221 526.566988 
L 355.831792 529.843894 
" style="fill: none; stroke: #262626; stroke-width: 1.25; stroke-linecap: round"/>
    </g>
    <g id="text_8">
     <!-- 102 -->
     <g style="fill: #262626" transform="translate(355.511269 548.073803) scale(0.09 -0.09)">
      <use xlink:href="#ArialMT-31"/>
      <use xlink:href="#ArialMT-30" transform="translate(55.615234 0)"/>
      <use xlink:href="#ArialMT-32" transform="translate(111.230469 0)"/>
     </g>
    </g>
   </g>
   <g id="xtick_8">
    <g id="line2d_17">
     <path d="M 291.891892 276.908108 
" clip-path="url(#p607bc13143)" style="fill: none; stroke: #cccccc; stroke-linecap: round"/>
    </g>
    <g id="line2d_18">
     <path d="M 364.835927 511.218768 
L 372.180955 514.452945 
" style="fill: none; stroke: #262626; stroke-width: 1.25; stroke-linecap: round"/>
    </g>
    <g id="text_9">
     <!-- 103 -->
     <g style="fill: #262626" transform="translate(371.801496 532.616978) scale(0.09 -0.09)">
      <use xlink:href="#ArialMT-31"/>
      <use xlink:href="#ArialMT-30" transform="translate(55.615234 0)"/>
      <use xlink:href="#ArialMT-33" transform="translate(111.230469 0)"/>
     </g>
    </g>
   </g>
   <g id="xtick_9">
    <g id="line2d_19">
     <path d="M 291.891892 276.908108 
" clip-path="url(#p607bc13143)" style="fill: none; stroke: #cccccc; stroke-linecap: round"/>
    </g>
    <g id="line2d_20">
     <path d="M 380.99795 496.069899 
L 388.317475 499.262176 
" style="fill: none; stroke: #262626; stroke-width: 1.25; stroke-linecap: round"/>
    </g>
    <g id="text_10">
     <!-- 104 -->
     <g style="fill: #262626" transform="translate(387.88 517.361044) scale(0.09 -0.09)">
      <use xlink:href="#ArialMT-31"/>
      <use xlink:href="#ArialMT-30" transform="translate(55.615234 0)"/>
      <use xlink:href="#ArialMT-34" transform="translate(111.230469 0)"/>
     </g>
    </g>
   </g>
   <g id="xtick_10">
    <g id="line2d_21">
     <path d="M 291.891892 276.908108 
" clip-path="url(#p607bc13143)" style="fill: none; stroke: #cccccc; stroke-linecap: round"/>
    </g>
    <g id="line2d_22">
     <path d="M 396.951408 481.11652 
L 404.245473 484.267707 
" style="fill: none; stroke: #262626; stroke-width: 1.25; stroke-linecap: round"/>
    </g>
    <g id="text_11">
     <!-- 105 -->
     <g style="fill: #262626" transform="translate(403.750882 502.302111) scale(0.09 -0.09)">
      <use xlink:href="#ArialMT-31"/>
      <use xlink:href="#ArialMT-30" transform="translate(55.615234 0)"/>
      <use xlink:href="#ArialMT-35" transform="translate(111.230469 0)"/>
     </g>
    </g>
   </g>
   <g id="xtick_11">
    <g id="line2d_23">
     <path d="M 291.891892 276.908108 
" clip-path="url(#p607bc13143)" style="fill: none; stroke: #cccccc; stroke-linecap: round"/>
    </g>
    <g id="line2d_24">
     <path d="M 412.700311 466.354873 
L 419.968966 469.465758 
" style="fill: none; stroke: #262626; stroke-width: 1.25; stroke-linecap: round"/>
    </g>
    <g id="text_12">
     <!-- 107 -->
     <g style="fill: #262626" transform="translate(419.418137 487.436387) scale(0.09 -0.09)">
      <defs>
       <path id="ArialMT-37" d="M 303 3981 
L 303 4522 
L 3269 4522 
L 3269 4084 
Q 2831 3619 2401 2847 
Q 1972 2075 1738 1259 
Q 1569 684 1522 0 
L 944 0 
Q 953 541 1156 1306 
Q 1359 2072 1739 2783 
Q 2119 3494 2547 3981 
L 303 3981 
z
" transform="scale(0.015625)"/>
      </defs>
      <use xlink:href="#ArialMT-31"/>
      <use xlink:href="#ArialMT-30" transform="translate(55.615234 0)"/>
      <use xlink:href="#ArialMT-37" transform="translate(111.230469 0)"/>
     </g>
    </g>
   </g>
   <g id="xtick_12">
    <g id="line2d_25">
     <path d="M 291.891892 276.908108 
" clip-path="url(#p607bc13143)" style="fill: none; stroke: #cccccc; stroke-linecap: round"/>
    </g>
    <g id="line2d_26">
     <path d="M 428.248569 451.781293 
L 435.491866 454.852644 
" style="fill: none; stroke: #262626; stroke-width: 1.25; stroke-linecap: round"/>
    </g>
    <g id="text_13">
     <!-- 108 -->
     <g style="fill: #262626" transform="translate(434.88566 472.760176) scale(0.09 -0.09)">
      <defs>
       <path id="ArialMT-38" d="M 1131 2484 
Q 781 2613 612 2850 
Q 444 3088 444 3419 
Q 444 3919 803 4259 
Q 1163 4600 1759 4600 
Q 2359 4600 2725 4251 
Q 3091 3903 3091 3403 
Q 3091 3084 2923 2848 
Q 2756 2613 2416 2484 
Q 2838 2347 3058 2040 
Q 3278 1734 3278 1309 
Q 3278 722 2862 322 
Q 2447 -78 1769 -78 
Q 1091 -78 675 323 
Q 259 725 259 1325 
Q 259 1772 486 2073 
Q 713 2375 1131 2484 
z
M 1019 3438 
Q 1019 3113 1228 2906 
Q 1438 2700 1772 2700 
Q 2097 2700 2305 2904 
Q 2513 3109 2513 3406 
Q 2513 3716 2298 3927 
Q 2084 4138 1766 4138 
Q 1444 4138 1231 3931 
Q 1019 3725 1019 3438 
z
M 838 1322 
Q 838 1081 952 856 
Q 1066 631 1291 507 
Q 1516 384 1775 384 
Q 2178 384 2440 643 
Q 2703 903 2703 1303 
Q 2703 1709 2433 1975 
Q 2163 2241 1756 2241 
Q 1359 2241 1098 1978 
Q 838 1716 838 1322 
z
" transform="scale(0.015625)"/>
      </defs>
      <use xlink:href="#ArialMT-31"/>
      <use xlink:href="#ArialMT-30" transform="translate(55.615234 0)"/>
      <use xlink:href="#ArialMT-38" transform="translate(111.230469 0)"/>
     </g>
    </g>
   </g>
   <g id="xtick_13">
    <g id="line2d_27">
     <path d="M 291.891892 276.908108 
" clip-path="url(#p607bc13143)" style="fill: none; stroke: #cccccc; stroke-linecap: round"/>
    </g>
    <g id="line2d_28">
     <path d="M 443.599992 437.39221 
L 450.817989 440.424775 
" style="fill: none; stroke: #262626; stroke-width: 1.25; stroke-linecap: round"/>
    </g>
    <g id="text_14">
     <!-- 109 -->
     <g style="fill: #262626" transform="translate(450.157245 458.26988) scale(0.09 -0.09)">
      <defs>
       <path id="ArialMT-39" d="M 350 1059 
L 891 1109 
Q 959 728 1153 556 
Q 1347 384 1650 384 
Q 1909 384 2104 503 
Q 2300 622 2425 820 
Q 2550 1019 2634 1356 
Q 2719 1694 2719 2044 
Q 2719 2081 2716 2156 
Q 2547 1888 2255 1720 
Q 1963 1553 1622 1553 
Q 1053 1553 659 1965 
Q 266 2378 266 3053 
Q 266 3750 677 4175 
Q 1088 4600 1706 4600 
Q 2153 4600 2523 4359 
Q 2894 4119 3086 3673 
Q 3278 3228 3278 2384 
Q 3278 1506 3087 986 
Q 2897 466 2520 194 
Q 2144 -78 1638 -78 
Q 1100 -78 759 220 
Q 419 519 350 1059 
z
M 2653 3081 
Q 2653 3566 2395 3850 
Q 2138 4134 1775 4134 
Q 1400 4134 1122 3828 
Q 844 3522 844 3034 
Q 844 2597 1108 2323 
Q 1372 2050 1759 2050 
Q 2150 2050 2401 2323 
Q 2653 2597 2653 3081 
z
" transform="scale(0.015625)"/>
      </defs>
      <use xlink:href="#ArialMT-31"/>
      <use xlink:href="#ArialMT-30" transform="translate(55.615234 0)"/>
      <use xlink:href="#ArialMT-39" transform="translate(111.230469 0)"/>
     </g>
    </g>
   </g>
   <g id="xtick_14">
    <g id="line2d_29">
     <path d="M 291.891892 276.908108 
" clip-path="url(#p607bc13143)" style="fill: none; stroke: #cccccc; stroke-linecap: round"/>
    </g>
    <g id="line2d_30">
     <path d="M 458.758295 423.18414 
L 465.951052 426.178651 
" style="fill: none; stroke: #262626; stroke-width: 1.25; stroke-linecap: round"/>
    </g>
    <g id="text_15">
     <!-- 111 -->
     <g style="fill: #262626" transform="translate(465.900343 443.961986) scale(0.09 -0.09)">
      <use xlink:href="#ArialMT-31"/>
      <use xlink:href="#ArialMT-31" transform="translate(48.240234 0)"/>
      <use xlink:href="#ArialMT-31" transform="translate(96.480469 0)"/>
     </g>
    </g>
   </g>
   <g id="xtick_15">
    <g id="line2d_31">
     <path d="M 291.891892 276.908108 
" clip-path="url(#p607bc13143)" style="fill: none; stroke: #cccccc; stroke-linecap: round"/>
    </g>
    <g id="line2d_32">
     <path d="M 473.727098 409.153691 
L 480.89468 412.110859 
" style="fill: none; stroke: #262626; stroke-width: 1.25; stroke-linecap: round"/>
    </g>
    <g id="text_16">
     <!-- 112 -->
     <g style="fill: #262626" transform="translate(480.459185 429.833072) scale(0.09 -0.09)">
      <use xlink:href="#ArialMT-31"/>
      <use xlink:href="#ArialMT-31" transform="translate(48.240234 0)"/>
      <use xlink:href="#ArialMT-32" transform="translate(103.855469 0)"/>
     </g>
    </g>
   </g>
   <g id="xtick_16">
    <g id="line2d_33">
     <path d="M 291.891892 276.908108 
" clip-path="url(#p607bc13143)" style="fill: none; stroke: #cccccc; stroke-linecap: round"/>
    </g>
    <g id="line2d_34">
     <path d="M 488.509933 395.297552 
L 495.652408 398.218071 
" style="fill: none; stroke: #262626; stroke-width: 1.25; stroke-linecap: round"/>
    </g>
    <g id="text_17">
     <!-- 113 -->
     <g style="fill: #262626" transform="translate(495.164789 415.879801) scale(0.09 -0.09)">
      <use xlink:href="#ArialMT-31"/>
      <use xlink:href="#ArialMT-31" transform="translate(48.240234 0)"/>
      <use xlink:href="#ArialMT-33" transform="translate(103.855469 0)"/>
     </g>
    </g>
   </g>
   <g id="xtick_17">
    <g id="line2d_35">
     <path d="M 291.891892 276.908108 
" clip-path="url(#p607bc13143)" style="fill: none; stroke: #cccccc; stroke-linecap: round"/>
    </g>
    <g id="line2d_36">
     <path d="M 503.110244 381.612495 
L 510.227685 384.497042 
" style="fill: none; stroke: #262626; stroke-width: 1.25; stroke-linecap: round"/>
    </g>
    <g id="text_18">
     <!-- 114 -->
     <g style="fill: #262626" transform="translate(509.68871 402.098918) scale(0.09 -0.09)">
      <use xlink:href="#ArialMT-31"/>
      <use xlink:href="#ArialMT-31" transform="translate(48.240234 0)"/>
      <use xlink:href="#ArialMT-34" transform="translate(103.855469 0)"/>
     </g>
    </g>
   </g>
   <g id="xtick_18">
    <g id="line2d_37">
     <path d="M 291.891892 276.908108 
" clip-path="url(#p607bc13143)" style="fill: none; stroke: #cccccc; stroke-linecap: round"/>
    </g>
    <g id="line2d_38">
     <path d="M 517.531391 368.095371 
L 524.623871 370.944607 
" style="fill: none; stroke: #262626; stroke-width: 1.25; stroke-linecap: round"/>
    </g>
    <g id="text_19">
     <!-- 115 -->
     <g style="fill: #262626" transform="translate(524.034295 388.487248) scale(0.09 -0.09)">
      <use xlink:href="#ArialMT-31"/>
      <use xlink:href="#ArialMT-31" transform="translate(48.240234 0)"/>
      <use xlink:href="#ArialMT-35" transform="translate(103.855469 0)"/>
     </g>
    </g>
   </g>
   <g id="text_20">
    <!-- Unit Index (Censored) -->
    <g style="fill: #262626" transform="translate(434.319751 530.193793) rotate(-43.187989) scale(0.12 -0.12)">
     <defs>
      <path id="ArialMT-55" d="M 3500 4581 
L 4106 4581 
L 4106 1934 
Q 4106 1244 3950 837 
Q 3794 431 3386 176 
Q 2978 -78 2316 -78 
Q 1672 -78 1262 144 
Q 853 366 678 786 
Q 503 1206 503 1934 
L 503 4581 
L 1109 4581 
L 1109 1938 
Q 1109 1341 1220 1058 
Q 1331 775 1601 622 
Q 1872 469 2263 469 
Q 2931 469 3215 772 
Q 3500 1075 3500 1938 
L 3500 4581 
z
" transform="scale(0.015625)"/>
      <path id="ArialMT-6e" d="M 422 0 
L 422 3319 
L 928 3319 
L 928 2847 
Q 1294 3394 1984 3394 
Q 2284 3394 2536 3286 
Q 2788 3178 2913 3003 
Q 3038 2828 3088 2588 
Q 3119 2431 3119 2041 
L 3119 0 
L 2556 0 
L 2556 2019 
Q 2556 2363 2490 2533 
Q 2425 2703 2258 2804 
Q 2091 2906 1866 2906 
Q 1506 2906 1245 2678 
Q 984 2450 984 1813 
L 984 0 
L 422 0 
z
" transform="scale(0.015625)"/>
      <path id="ArialMT-49" d="M 597 0 
L 597 4581 
L 1203 4581 
L 1203 0 
L 597 0 
z
" transform="scale(0.015625)"/>
      <path id="ArialMT-64" d="M 2575 0 
L 2575 419 
Q 2259 -75 1647 -75 
Q 1250 -75 917 144 
Q 584 363 401 755 
Q 219 1147 219 1656 
Q 219 2153 384 2558 
Q 550 2963 881 3178 
Q 1213 3394 1622 3394 
Q 1922 3394 2156 3267 
Q 2391 3141 2538 2938 
L 2538 4581 
L 3097 4581 
L 3097 0 
L 2575 0 
z
M 797 1656 
Q 797 1019 1065 703 
Q 1334 388 1700 388 
Q 2069 388 2326 689 
Q 2584 991 2584 1609 
Q 2584 2291 2321 2609 
Q 2059 2928 1675 2928 
Q 1300 2928 1048 2622 
Q 797 2316 797 1656 
z
" transform="scale(0.015625)"/>
      <path id="ArialMT-78" d="M 47 0 
L 1259 1725 
L 138 3319 
L 841 3319 
L 1350 2541 
Q 1494 2319 1581 2169 
Q 1719 2375 1834 2534 
L 2394 3319 
L 3066 3319 
L 1919 1756 
L 3153 0 
L 2463 0 
L 1781 1031 
L 1600 1309 
L 728 0 
L 47 0 
z
" transform="scale(0.015625)"/>
      <path id="ArialMT-43" d="M 3763 1606 
L 4369 1453 
Q 4178 706 3683 314 
Q 3188 -78 2472 -78 
Q 1731 -78 1267 223 
Q 803 525 561 1097 
Q 319 1669 319 2325 
Q 319 3041 592 3573 
Q 866 4106 1370 4382 
Q 1875 4659 2481 4659 
Q 3169 4659 3637 4309 
Q 4106 3959 4291 3325 
L 3694 3184 
Q 3534 3684 3231 3912 
Q 2928 4141 2469 4141 
Q 1941 4141 1586 3887 
Q 1231 3634 1087 3207 
Q 944 2781 944 2328 
Q 944 1744 1114 1308 
Q 1284 872 1643 656 
Q 2003 441 2422 441 
Q 2931 441 3284 734 
Q 3638 1028 3763 1606 
z
" transform="scale(0.015625)"/>
      <path id="ArialMT-73" d="M 197 991 
L 753 1078 
Q 800 744 1014 566 
Q 1228 388 1613 388 
Q 2000 388 2187 545 
Q 2375 703 2375 916 
Q 2375 1106 2209 1216 
Q 2094 1291 1634 1406 
Q 1016 1563 777 1677 
Q 538 1791 414 1992 
Q 291 2194 291 2438 
Q 291 2659 392 2848 
Q 494 3038 669 3163 
Q 800 3259 1026 3326 
Q 1253 3394 1513 3394 
Q 1903 3394 2198 3281 
Q 2494 3169 2634 2976 
Q 2775 2784 2828 2463 
L 2278 2388 
Q 2241 2644 2061 2787 
Q 1881 2931 1553 2931 
Q 1166 2931 1000 2803 
Q 834 2675 834 2503 
Q 834 2394 903 2306 
Q 972 2216 1119 2156 
Q 1203 2125 1616 2013 
Q 2213 1853 2448 1751 
Q 2684 1650 2818 1456 
Q 2953 1263 2953 975 
Q 2953 694 2789 445 
Q 2625 197 2315 61 
Q 2006 -75 1616 -75 
Q 969 -75 630 194 
Q 291 463 197 991 
z
" transform="scale(0.015625)"/>
      <path id="ArialMT-6f" d="M 213 1659 
Q 213 2581 725 3025 
Q 1153 3394 1769 3394 
Q 2453 3394 2887 2945 
Q 3322 2497 3322 1706 
Q 3322 1066 3130 698 
Q 2938 331 2570 128 
Q 2203 -75 1769 -75 
Q 1072 -75 642 372 
Q 213 819 213 1659 
z
M 791 1659 
Q 791 1022 1069 705 
Q 1347 388 1769 388 
Q 2188 388 2466 706 
Q 2744 1025 2744 1678 
Q 2744 2294 2464 2611 
Q 2184 2928 1769 2928 
Q 1347 2928 1069 2612 
Q 791 2297 791 1659 
z
" transform="scale(0.015625)"/>
     </defs>
     <use xlink:href="#ArialMT-55"/>
     <use xlink:href="#ArialMT-6e" transform="translate(72.216797 0)"/>
     <use xlink:href="#ArialMT-69" transform="translate(127.832031 0)"/>
     <use xlink:href="#ArialMT-74" transform="translate(150.048828 0)"/>
     <use xlink:href="#ArialMT-20" transform="translate(177.832031 0)"/>
     <use xlink:href="#ArialMT-49" transform="translate(205.615234 0)"/>
     <use xlink:href="#ArialMT-6e" transform="translate(233.398438 0)"/>
     <use xlink:href="#ArialMT-64" transform="translate(289.013672 0)"/>
     <use xlink:href="#ArialMT-65" transform="translate(344.628906 0)"/>
     <use xlink:href="#ArialMT-78" transform="translate(400.244141 0)"/>
     <use xlink:href="#ArialMT-20" transform="translate(450.244141 0)"/>
     <use xlink:href="#ArialMT-28" transform="translate(478.027344 0)"/>
     <use xlink:href="#ArialMT-43" transform="translate(511.328125 0)"/>
     <use xlink:href="#ArialMT-65" transform="translate(583.544922 0)"/>
     <use xlink:href="#ArialMT-6e" transform="translate(639.160156 0)"/>
     <use xlink:href="#ArialMT-73" transform="translate(694.775391 0)"/>
     <use xlink:href="#ArialMT-6f" transform="translate(744.775391 0)"/>
     <use xlink:href="#ArialMT-72" transform="translate(800.390625 0)"/>
     <use xlink:href="#ArialMT-65" transform="translate(833.691406 0)"/>
     <use xlink:href="#ArialMT-64" transform="translate(889.306641 0)"/>
     <use xlink:href="#ArialMT-29" transform="translate(944.921875 0)"/>
    </g>
   </g>
  </g>
  <g id="axis3d_3">
   <g id="line2d_39">
    <path d="M 531.326556 358.31245 
L 543.757994 140.331292 
" style="fill: none; stroke: #cccccc; stroke-width: 1.25; stroke-linecap: round"/>
   </g>
   <g id="xtick_19">
    <g id="line2d_40">
     <path d="M 291.891892 276.908108 
" style="fill: none; stroke: #cccccc; stroke-linecap: round"/>
    </g>
    <g id="line2d_41">
     <path d="M 529.205246 353.225124 
L 536.28506 356.043918 
" style="fill: none; stroke: #262626; stroke-width: 1.25; stroke-linecap: round"/>
    </g>
    <g id="text_21">
     <!-- 0.0000 -->
     <g style="fill: #262626" transform="translate(533.595419 360.037483) scale(0.11 -0.11)">
      <defs>
       <path id="ArialMT-2e" d="M 581 0 
L 581 641 
L 1222 641 
L 1222 0 
L 581 0 
z
" transform="scale(0.015625)"/>
      </defs>
      <use xlink:href="#ArialMT-30"/>
      <use xlink:href="#ArialMT-2e" transform="translate(55.615234 0)"/>
      <use xlink:href="#ArialMT-30" transform="translate(83.398438 0)"/>
      <use xlink:href="#ArialMT-30" transform="translate(139.013672 0)"/>
      <use xlink:href="#ArialMT-30" transform="translate(194.628906 0)"/>
      <use xlink:href="#ArialMT-30" transform="translate(250.244141 0)"/>
     </g>
    </g>
   </g>
   <g id="xtick_20">
    <g id="line2d_42">
     <path d="M 291.891892 276.908108 
" style="fill: none; stroke: #cccccc; stroke-linecap: round"/>
    </g>
    <g id="line2d_43">
     <path d="M 530.53854 329.608692 
L 537.65992 332.41256 
" style="fill: none; stroke: #262626; stroke-width: 1.25; stroke-linecap: round"/>
    </g>
    <g id="text_22">
     <!-- 0.0005 -->
     <g style="fill: #262626" transform="translate(535.047168 336.426681) scale(0.11 -0.11)">
      <use xlink:href="#ArialMT-30"/>
      <use xlink:href="#ArialMT-2e" transform="translate(55.615234 0)"/>
      <use xlink:href="#ArialMT-30" transform="translate(83.398438 0)"/>
      <use xlink:href="#ArialMT-30" transform="translate(139.013672 0)"/>
      <use xlink:href="#ArialMT-30" transform="translate(194.628906 0)"/>
      <use xlink:href="#ArialMT-35" transform="translate(250.244141 0)"/>
     </g>
    </g>
   </g>
   <g id="xtick_21">
    <g id="line2d_44">
     <path d="M 291.891892 276.908108 
" style="fill: none; stroke: #cccccc; stroke-linecap: round"/>
    </g>
    <g id="line2d_45">
     <path d="M 531.8869 305.725393 
L 539.050336 308.513816 
" style="fill: none; stroke: #262626; stroke-width: 1.25; stroke-linecap: round"/>
    </g>
    <g id="text_23">
     <!-- 0.0010 -->
     <g style="fill: #262626" transform="translate(536.515314 312.549208) scale(0.11 -0.11)">
      <use xlink:href="#ArialMT-30"/>
      <use xlink:href="#ArialMT-2e" transform="translate(55.615234 0)"/>
      <use xlink:href="#ArialMT-30" transform="translate(83.398438 0)"/>
      <use xlink:href="#ArialMT-30" transform="translate(139.013672 0)"/>
      <use xlink:href="#ArialMT-31" transform="translate(194.628906 0)"/>
      <use xlink:href="#ArialMT-30" transform="translate(250.244141 0)"/>
     </g>
    </g>
   </g>
   <g id="xtick_22">
    <g id="line2d_46">
     <path d="M 291.891892 276.908108 
" style="fill: none; stroke: #cccccc; stroke-linecap: round"/>
    </g>
    <g id="line2d_47">
     <path d="M 533.250584 281.570678 
L 540.456575 284.343122 
" style="fill: none; stroke: #262626; stroke-width: 1.25; stroke-linecap: round"/>
    </g>
    <g id="text_24">
     <!-- 0.0015 -->
     <g style="fill: #262626" transform="translate(538.000136 288.400519) scale(0.11 -0.11)">
      <use xlink:href="#ArialMT-30"/>
      <use xlink:href="#ArialMT-2e" transform="translate(55.615234 0)"/>
      <use xlink:href="#ArialMT-30" transform="translate(83.398438 0)"/>
      <use xlink:href="#ArialMT-30" transform="translate(139.013672 0)"/>
      <use xlink:href="#ArialMT-31" transform="translate(194.628906 0)"/>
      <use xlink:href="#ArialMT-35" transform="translate(250.244141 0)"/>
     </g>
    </g>
   </g>
   <g id="xtick_23">
    <g id="line2d_48">
     <path d="M 291.891892 276.908108 
" style="fill: none; stroke: #cccccc; stroke-linecap: round"/>
    </g>
    <g id="line2d_49">
     <path d="M 534.629853 257.139894 
L 541.878907 259.89581 
" style="fill: none; stroke: #262626; stroke-width: 1.25; stroke-linecap: round"/>
    </g>
    <g id="text_25">
     <!-- 0.0020 -->
     <g style="fill: #262626" transform="translate(539.501919 263.975968) scale(0.11 -0.11)">
      <use xlink:href="#ArialMT-30"/>
      <use xlink:href="#ArialMT-2e" transform="translate(55.615234 0)"/>
      <use xlink:href="#ArialMT-30" transform="translate(83.398438 0)"/>
      <use xlink:href="#ArialMT-30" transform="translate(139.013672 0)"/>
      <use xlink:href="#ArialMT-32" transform="translate(194.628906 0)"/>
      <use xlink:href="#ArialMT-30" transform="translate(250.244141 0)"/>
     </g>
    </g>
   </g>
   <g id="xtick_24">
    <g id="line2d_50">
     <path d="M 291.891892 276.908108 
" style="fill: none; stroke: #cccccc; stroke-linecap: round"/>
    </g>
    <g id="line2d_51">
     <path d="M 536.024977 232.428281 
L 543.31761 235.167105 
" style="fill: none; stroke: #262626; stroke-width: 1.25; stroke-linecap: round"/>
    </g>
    <g id="text_26">
     <!-- 0.0025 -->
     <g style="fill: #262626" transform="translate(541.020957 239.270799) scale(0.11 -0.11)">
      <use xlink:href="#ArialMT-30"/>
      <use xlink:href="#ArialMT-2e" transform="translate(55.615234 0)"/>
      <use xlink:href="#ArialMT-30" transform="translate(83.398438 0)"/>
      <use xlink:href="#ArialMT-30" transform="translate(139.013672 0)"/>
      <use xlink:href="#ArialMT-32" transform="translate(194.628906 0)"/>
      <use xlink:href="#ArialMT-35" transform="translate(250.244141 0)"/>
     </g>
    </g>
   </g>
   <g id="xtick_25">
    <g id="line2d_52">
     <path d="M 291.891892 276.908108 
" style="fill: none; stroke: #cccccc; stroke-linecap: round"/>
    </g>
    <g id="line2d_53">
     <path d="M 537.43623 207.430967 
L 544.772969 210.152118 
" style="fill: none; stroke: #262626; stroke-width: 1.25; stroke-linecap: round"/>
    </g>
    <g id="text_27">
     <!-- 0.0030 -->
     <g style="fill: #262626" transform="translate(542.557548 214.280151) scale(0.11 -0.11)">
      <use xlink:href="#ArialMT-30"/>
      <use xlink:href="#ArialMT-2e" transform="translate(55.615234 0)"/>
      <use xlink:href="#ArialMT-30" transform="translate(83.398438 0)"/>
      <use xlink:href="#ArialMT-30" transform="translate(139.013672 0)"/>
      <use xlink:href="#ArialMT-33" transform="translate(194.628906 0)"/>
      <use xlink:href="#ArialMT-30" transform="translate(250.244141 0)"/>
     </g>
    </g>
   </g>
   <g id="xtick_26">
    <g id="line2d_54">
     <path d="M 291.891892 276.908108 
" style="fill: none; stroke: #cccccc; stroke-linecap: round"/>
    </g>
    <g id="line2d_55">
     <path d="M 538.863894 182.142972 
L 546.245274 184.845851 
" style="fill: none; stroke: #262626; stroke-width: 1.25; stroke-linecap: round"/>
    </g>
    <g id="text_28">
     <!-- 0.0035 -->
     <g style="fill: #262626" transform="translate(544.111999 188.999044) scale(0.11 -0.11)">
      <use xlink:href="#ArialMT-30"/>
      <use xlink:href="#ArialMT-2e" transform="translate(55.615234 0)"/>
      <use xlink:href="#ArialMT-30" transform="translate(83.398438 0)"/>
      <use xlink:href="#ArialMT-30" transform="translate(139.013672 0)"/>
      <use xlink:href="#ArialMT-33" transform="translate(194.628906 0)"/>
      <use xlink:href="#ArialMT-35" transform="translate(250.244141 0)"/>
     </g>
    </g>
   </g>
   <g id="xtick_27">
    <g id="line2d_56">
     <path d="M 291.891892 276.908108 
" style="fill: none; stroke: #cccccc; stroke-linecap: round"/>
    </g>
    <g id="line2d_57">
     <path d="M 540.308257 156.559193 
L 547.734824 159.243186 
" style="fill: none; stroke: #262626; stroke-width: 1.25; stroke-linecap: round"/>
    </g>
    <g id="text_29">
     <!-- 0.0040 -->
     <g style="fill: #262626" transform="translate(545.684622 163.422386) scale(0.11 -0.11)">
      <use xlink:href="#ArialMT-30"/>
      <use xlink:href="#ArialMT-2e" transform="translate(55.615234 0)"/>
      <use xlink:href="#ArialMT-30" transform="translate(83.398438 0)"/>
      <use xlink:href="#ArialMT-30" transform="translate(139.013672 0)"/>
      <use xlink:href="#ArialMT-34" transform="translate(194.628906 0)"/>
      <use xlink:href="#ArialMT-30" transform="translate(250.244141 0)"/>
     </g>
    </g>
   </g>
   <g id="text_30">
    <!-- Cond. PDF $f(t)$ -->
    <g style="fill: #262626" transform="translate(590.132422 287.435903) rotate(-86.735965) scale(0.12 -0.12)">
     <defs>
      <path id="ArialMT-50" d="M 494 0 
L 494 4581 
L 2222 4581 
Q 2678 4581 2919 4538 
Q 3256 4481 3484 4323 
Q 3713 4166 3852 3881 
Q 3991 3597 3991 3256 
Q 3991 2672 3619 2267 
Q 3247 1863 2275 1863 
L 1100 1863 
L 1100 0 
L 494 0 
z
M 1100 2403 
L 2284 2403 
Q 2872 2403 3119 2622 
Q 3366 2841 3366 3238 
Q 3366 3525 3220 3729 
Q 3075 3934 2838 4000 
Q 2684 4041 2272 4041 
L 1100 4041 
L 1100 2403 
z
" transform="scale(0.015625)"/>
      <path id="ArialMT-44" d="M 494 0 
L 494 4581 
L 2072 4581 
Q 2606 4581 2888 4516 
Q 3281 4425 3559 4188 
Q 3922 3881 4101 3404 
Q 4281 2928 4281 2316 
Q 4281 1794 4159 1391 
Q 4038 988 3847 723 
Q 3656 459 3429 307 
Q 3203 156 2883 78 
Q 2563 0 2147 0 
L 494 0 
z
M 1100 541 
L 2078 541 
Q 2531 541 2789 625 
Q 3047 709 3200 863 
Q 3416 1078 3536 1442 
Q 3656 1806 3656 2325 
Q 3656 3044 3420 3430 
Q 3184 3816 2847 3947 
Q 2603 4041 2063 4041 
L 1100 4041 
L 1100 541 
z
" transform="scale(0.015625)"/>
      <path id="DejaVuSans-Oblique-66" d="M 3059 4863 
L 2969 4384 
L 2419 4384 
Q 2106 4384 1964 4261 
Q 1822 4138 1753 3809 
L 1691 3500 
L 2638 3500 
L 2553 3053 
L 1606 3053 
L 1013 0 
L 434 0 
L 1031 3053 
L 481 3053 
L 563 3500 
L 1113 3500 
L 1159 3744 
Q 1278 4363 1576 4613 
Q 1875 4863 2516 4863 
L 3059 4863 
z
" transform="scale(0.015625)"/>
      <path id="DejaVuSans-28" d="M 1984 4856 
Q 1566 4138 1362 3434 
Q 1159 2731 1159 2009 
Q 1159 1288 1364 580 
Q 1569 -128 1984 -844 
L 1484 -844 
Q 1016 -109 783 600 
Q 550 1309 550 2009 
Q 550 2706 781 3412 
Q 1013 4119 1484 4856 
L 1984 4856 
z
" transform="scale(0.015625)"/>
      <path id="DejaVuSans-29" d="M 513 4856 
L 1013 4856 
Q 1481 4119 1714 3412 
Q 1947 2706 1947 2009 
Q 1947 1309 1714 600 
Q 1481 -109 1013 -844 
L 513 -844 
Q 928 -128 1133 580 
Q 1338 1288 1338 2009 
Q 1338 2731 1133 3434 
Q 928 4138 513 4856 
z
" transform="scale(0.015625)"/>
     </defs>
     <use xlink:href="#ArialMT-43" transform="translate(0 0.015625)"/>
     <use xlink:href="#ArialMT-6f" transform="translate(72.216797 0.015625)"/>
     <use xlink:href="#ArialMT-6e" transform="translate(127.832031 0.015625)"/>
     <use xlink:href="#ArialMT-64" transform="translate(183.447266 0.015625)"/>
     <use xlink:href="#ArialMT-2e" transform="translate(239.0625 0.015625)"/>
     <use xlink:href="#ArialMT-20" transform="translate(266.845703 0.015625)"/>
     <use xlink:href="#ArialMT-50" transform="translate(294.628906 0.015625)"/>
     <use xlink:href="#ArialMT-44" transform="translate(361.328125 0.015625)"/>
     <use xlink:href="#ArialMT-46" transform="translate(433.544922 0.015625)"/>
     <use xlink:href="#ArialMT-20" transform="translate(494.628906 0.015625)"/>
     <use xlink:href="#DejaVuSans-Oblique-66" transform="translate(522.412109 0.015625)"/>
     <use xlink:href="#DejaVuSans-28" transform="translate(557.617188 0.015625)"/>
     <use xlink:href="#DejaVuSans-Oblique-74" transform="translate(596.630859 0.015625)"/>
     <use xlink:href="#DejaVuSans-29" transform="translate(635.839844 0.015625)"/>
    </g>
   </g>
  </g>
  <g id="axes_1">
   <g id="line2d_58">
    <path d="M 80.502361 402.91135 
L 81.646486 402.076052 
L 82.666822 398.753645 
L 83.451501 390.66556 
L 83.878551 375.277608 
L 83.871738 350.9215 
L 83.461929 318.067902 
L 82.240192 242.867021 
L 82.054297 213.363945 
L 82.531279 197.291152 
L 83.785099 197.278315 
L 85.749823 212.228082 
L 88.223306 238.128386 
L 96.284104 331.477522 
L 98.63778 356.091583 
L 100.729451 375.266109 
L 102.579972 389.356465 
L 104.232345 399.21774 
L 105.735284 405.854333 
L 107.133222 410.200528 
L 108.461788 413.016224 
L 109.747019 414.863191 
L 111.006579 416.126445 
L 112.251721 417.053562 
L 114.722995 418.438198 
L 119.650717 420.706537 
L 202.309285 457.391557 
L 331.495634 514.721346 
L 331.495634 514.721346 
" clip-path="url(#p607bc13143)" style="fill: none; stroke: #0d0887; stroke-opacity: 0.8; stroke-width: 2.5; stroke-linecap: round"/>
   </g>
   <g id="line2d_59">
    <path d="M 97.754745 389.522415 
L 141.685399 408.727287 
L 145.371336 410.067967 
L 147.822652 410.697037 
L 149.044659 410.874102 
L 150.263124 410.923879 
L 151.477073 410.814315 
L 152.685447 410.509639 
L 153.887137 409.971316 
L 155.081035 409.159457 
L 156.266098 408.03471 
L 157.441421 406.560578 
L 158.606321 404.706078 
L 159.760417 402.448606 
L 160.903712 399.776822 
L 162.036658 396.693341 
L 163.160206 393.217009 
L 165.385531 385.251191 
L 172.081323 359.276449 
L 173.234189 355.818342 
L 174.40566 352.918405 
L 175.597836 350.670594 
L 176.812174 349.14935 
L 178.049418 348.406236 
L 179.309585 348.467832 
L 180.591976 349.335032 
L 181.895239 350.983718 
L 183.217451 353.366744 
L 184.556238 356.416996 
L 185.908897 360.05129 
L 187.272533 364.174784 
L 190.020984 373.479316 
L 198.256865 402.942127 
L 200.955674 411.378163 
L 203.623015 418.639123 
L 206.260313 424.691352 
L 207.568835 427.28635 
L 208.871395 429.615953 
L 210.168642 431.700627 
L 212.749805 435.224657 
L 215.317322 438.039799 
L 217.875561 440.316702 
L 220.428058 442.202061 
L 222.977508 443.813575 
L 226.800064 445.90568 
L 231.899679 448.375285 
L 240.84307 452.399658 
L 292.540227 475.132174 
L 347.945817 499.483369 
L 347.945817 499.483369 
" clip-path="url(#p607bc13143)" style="fill: none; stroke: #3e049c; stroke-opacity: 0.8; stroke-width: 2.5; stroke-linecap: round"/>
   </g>
   <g id="line2d_60">
    <path d="M 114.772188 375.869157 
L 180.76881 404.506403 
L 185.719258 406.382632 
L 188.193808 407.140998 
L 190.665864 407.68377 
L 193.133384 407.908819 
L 194.364725 407.864039 
L 195.594057 407.691858 
L 196.821091 407.374671 
L 198.045561 406.894931 
L 199.267237 406.235805 
L 200.485944 405.381915 
L 201.701571 404.320151 
L 202.914093 403.04053 
L 204.123581 401.537045 
L 205.330211 399.808489 
L 206.534277 397.859185 
L 208.936482 393.346701 
L 211.334872 388.162891 
L 218.573992 371.694758 
L 219.796438 369.34637 
L 221.025577 367.2535 
L 222.261979 365.464361 
L 223.506069 364.02172 
L 224.758111 362.961557 
L 226.018201 362.31195 
L 227.286264 362.092264 
L 228.562065 362.312646 
L 229.845215 362.973877 
L 231.135192 364.067546 
L 232.431359 365.576555 
L 233.732991 367.475902 
L 235.039298 369.733702 
L 236.349453 372.31239 
L 238.977971 378.261744 
L 241.612123 384.960939 
L 250.80668 409.333415 
L 253.415638 415.486584 
L 256.015428 421.009377 
L 258.606897 425.863167 
L 261.191369 430.060067 
L 263.770389 433.64848 
L 266.345525 436.699195 
L 268.91823 439.29344 
L 271.489765 441.513617 
L 274.061165 443.436876 
L 276.63324 445.131277 
L 280.493905 447.365944 
L 285.648187 449.988798 
L 292.104059 452.985063 
L 306.362459 459.26833 
L 364.182794 484.442887 
L 364.182794 484.442887 
" clip-path="url(#p607bc13143)" style="fill: none; stroke: #6300a7; stroke-opacity: 0.8; stroke-width: 2.5; stroke-linecap: round"/>
   </g>
   <g id="line2d_61">
    <path d="M 131.580746 362.383489 
L 158.182529 373.740497 
L 160.60753 374.546931 
L 161.817266 374.830239 
L 163.023658 374.981904 
L 164.225178 374.948117 
L 165.419968 374.662132 
L 166.605882 374.04497 
L 167.780573 373.007875 
L 168.941645 371.456815 
L 170.086848 369.299118 
L 171.214326 366.452018 
L 172.322885 362.852574 
L 173.412258 358.468104 
L 174.483337 353.306016 
L 175.538336 347.421789 
L 177.615814 333.974436 
L 180.739778 312.723991 
L 181.811313 306.419269 
L 182.909403 300.972726 
L 184.039583 296.632428 
L 185.205897 293.598498 
L 186.41062 292.008973 
L 187.654129 291.930909 
L 188.934936 293.357548 
L 190.24988 296.211619 
L 191.594431 300.354098 
L 192.963085 305.597143 
L 194.349791 311.719597 
L 197.152892 325.648735 
L 201.352239 347.403148 
L 204.105159 360.47778 
L 205.46193 366.274252 
L 206.804917 371.516015 
L 208.134396 376.192454 
L 209.451093 380.31505 
L 210.756049 383.912184 
L 212.0505 387.024153 
L 213.335775 389.698672 
L 214.613214 391.987043 
L 215.884106 393.941068 
L 217.149645 395.610705 
L 218.410906 397.04243 
L 219.668829 398.278205 
L 222.177754 400.304473 
L 224.681366 401.924326 
L 228.433586 403.930073 
L 233.43898 406.25667 
L 245.989072 411.7172 
L 380.210682 469.596086 
L 380.210682 469.596086 
" clip-path="url(#p607bc13143)" style="fill: none; stroke: #8606a6; stroke-opacity: 0.8; stroke-width: 2.5; stroke-linecap: round"/>
   </g>
   <g id="line2d_62">
    <path d="M 148.184243 349.062343 
L 184.42621 364.436202 
L 186.856439 365.294886 
L 189.283572 365.924851 
L 190.494647 366.09394 
L 191.703109 366.121234 
L 192.9081 365.965114 
L 194.108667 365.57791 
L 195.303802 364.907169 
L 196.492498 363.897738 
L 197.673816 362.494694 
L 198.846969 360.647061 
L 200.011411 358.312147 
L 201.166927 355.46024 
L 202.313712 352.079302 
L 203.452438 348.179256 
L 205.710986 338.990561 
L 209.084085 323.087031 
L 211.356289 312.670552 
L 212.508604 308.013488 
L 213.675356 303.944229 
L 214.858705 300.61035 
L 216.060206 298.135237 
L 217.280726 296.611303 
L 218.520407 296.0952 
L 219.778677 296.60537 
L 221.054304 298.122098 
L 222.345498 300.589939 
L 223.650027 303.922218 
L 224.965368 308.00712 
L 226.288847 312.714776 
L 228.949612 323.433441 
L 235.581209 351.650843 
L 238.197576 361.429389 
L 240.788057 369.737385 
L 242.074106 373.31497 
L 243.354609 376.519134 
L 244.630112 379.368909 
L 245.901206 381.88926 
L 247.168492 384.108996 
L 248.432562 386.058959 
L 249.693972 387.770522 
L 250.953239 389.274403 
L 253.467141 391.773628 
L 255.977324 393.76192 
L 258.486018 395.402167 
L 262.249455 397.46429 
L 267.272352 399.842832 
L 277.344295 404.231862 
L 369.773763 443.721547 
L 396.033494 454.939249 
L 396.033494 454.939249 
" clip-path="url(#p607bc13143)" style="fill: none; stroke: #a62098; stroke-opacity: 0.8; stroke-width: 2.5; stroke-linecap: round"/>
   </g>
   <g id="line2d_63">
    <path d="M 164.586408 335.902728 
L 226.329107 361.950912 
L 231.231275 363.756557 
L 233.683543 364.477021 
L 236.135532 364.973701 
L 238.586231 365.135715 
L 239.810762 365.049418 
L 241.034578 364.826775 
L 242.257571 364.448354 
L 243.479654 363.894794 
L 244.700775 363.147566 
L 245.92092 362.189841 
L 247.140126 361.007446 
L 248.358483 359.589857 
L 249.576141 357.931193 
L 250.793312 356.031161 
L 253.227344 351.538525 
L 255.663421 346.248102 
L 259.32908 337.408828 
L 263.019374 328.678634 
L 265.498018 323.699655 
L 266.74347 321.637022 
L 267.99306 319.927393 
L 269.246703 318.613676 
L 270.504223 317.730303 
L 271.765354 317.302141 
L 273.029756 317.343784 
L 274.297026 317.859236 
L 275.566715 318.842007 
L 276.838347 320.275596 
L 278.111434 322.134323 
L 279.385494 324.384465 
L 280.660069 326.98561 
L 283.209114 333.055014 
L 285.755791 339.944507 
L 294.632578 365.03699 
L 297.158853 371.314047 
L 299.682541 376.907961 
L 302.204963 381.783634 
L 304.727357 385.961137 
L 307.250779 389.498932 
L 309.776046 392.478071 
L 312.303735 394.988925 
L 314.83421 397.121204 
L 317.367663 398.957293 
L 319.90416 400.56855 
L 323.714564 402.689413 
L 328.805288 405.181526 
L 336.461917 408.595668 
L 354.417233 416.243307 
L 411.655142 440.468753 
L 411.655142 440.468753 
" clip-path="url(#p607bc13143)" style="fill: none; stroke: #c03a83; stroke-opacity: 0.8; stroke-width: 2.5; stroke-linecap: round"/>
   </g>
   <g id="line2d_64">
    <path d="M 180.790882 322.901723 
L 201.145842 331.322522 
L 203.545393 332.036261 
L 204.742674 332.225525 
L 205.936777 332.222322 
L 207.126145 331.940915 
L 208.308906 331.274579 
L 209.482947 330.098232 
L 210.646073 328.274912 
L 211.796221 325.666458 
L 212.931735 322.148142 
L 214.051671 317.626198 
L 215.15609 312.056446 
L 216.246293 305.461588 
L 217.324962 297.944485 
L 219.465155 280.986944 
L 221.621752 263.637779 
L 222.722513 255.816592 
L 223.846289 249.113952 
L 224.997741 243.891956 
L 226.179917 240.433946 
L 227.394002 238.92046 
L 228.639267 239.415801 
L 229.91322 241.866619 
L 231.211913 246.112095 
L 232.53037 251.903665 
L 233.863067 258.931071 
L 236.549087 275.315152 
L 240.561215 300.877502 
L 243.191396 315.796407 
L 244.48982 322.227219 
L 245.777315 327.916495 
L 247.054601 332.87178 
L 248.322689 337.129412 
L 249.582749 340.745746 
L 250.836006 343.789267 
L 252.083657 346.333946 
L 253.326816 348.454009 
L 254.56648 350.220126 
L 255.803512 351.69688 
L 257.038637 352.941333 
L 259.505431 354.921311 
L 261.970294 356.459569 
L 265.668183 358.340878 
L 271.839737 361.063773 
L 296.669747 371.494696 
L 427.079437 426.181067 
L 427.079437 426.181067 
" clip-path="url(#p607bc13143)" style="fill: none; stroke: #d5546e; stroke-opacity: 0.8; stroke-width: 2.5; stroke-linecap: round"/>
   </g>
   <g id="line2d_65">
    <path d="M 196.801217 310.056477 
L 226.705844 322.378477 
L 229.110488 323.177532 
L 231.513493 323.689006 
L 232.713374 323.7539 
L 233.911462 323.628899 
L 235.107129 323.255085 
L 236.299704 322.565235 
L 237.48852 321.486332 
L 238.672971 319.943505 
L 239.852576 317.865377 
L 241.027059 315.190582 
L 242.196417 311.87504 
L 243.360977 307.899373 
L 244.521444 303.275716 
L 245.678907 298.053117 
L 247.990972 286.208155 
L 251.481216 267.406287 
L 252.658715 261.70473 
L 253.846187 256.66211 
L 255.044834 252.484696 
L 256.255356 249.346836 
L 257.477909 247.379751 
L 258.712101 246.663535 
L 259.957039 247.223074 
L 261.211407 249.028147 
L 262.473572 251.997527 
L 263.74171 256.006465 
L 265.01393 260.896652 
L 266.288389 266.487574 
L 268.837465 279.007823 
L 273.904832 304.557037 
L 276.415154 315.577324 
L 277.66456 320.411838 
L 278.91057 324.769607 
L 280.153609 328.654342 
L 281.394133 332.084069 
L 282.632601 335.087428 
L 283.869454 337.700254 
L 285.105097 339.962544 
L 286.339892 341.91593 
L 287.574152 343.601663 
L 288.808139 345.059099 
L 291.27612 347.431197 
L 293.745084 349.279096 
L 296.215766 350.788306 
L 299.925806 352.688914 
L 304.880706 354.912834 
L 317.309579 360.130312 
L 442.310095 412.072748 
L 442.310095 412.072748 
" clip-path="url(#p607bc13143)" style="fill: none; stroke: #e76f5a; stroke-opacity: 0.8; stroke-width: 2.5; stroke-linecap: round"/>
   </g>
   <g id="line2d_66">
    <path d="M 212.620881 297.364209 
L 232.85855 305.584077 
L 235.246293 306.277608 
L 236.438953 306.458754 
L 237.629909 306.449616 
L 238.818263 306.165316 
L 240.002957 305.500123 
L 241.182834 304.330035 
L 242.356739 302.519153 
L 243.523654 299.930231 
L 244.682862 296.43916 
L 245.834118 291.952342 
L 246.977797 286.42517 
L 248.115003 279.879233 
L 249.24761 272.415552 
L 251.50997 255.567699 
L 253.79116 238.310003 
L 254.947519 230.519256 
L 256.118268 223.833117 
L 257.305346 218.611883 
L 258.509683 215.138155 
L 259.731135 213.592862 
L 260.968528 214.041774 
L 262.219816 216.433907 
L 263.482304 220.611428 
L 264.752932 226.329068 
L 266.028543 233.279847 
L 268.583089 249.514084 
L 272.391271 274.888775 
L 274.901852 289.715884 
L 276.148295 296.110226 
L 277.389422 301.768435 
L 278.625885 306.697261 
L 279.858409 310.932234 
L 281.087733 314.528946 
L 282.314559 317.555193 
L 283.539523 320.084354 
L 284.763177 322.190169 
L 285.985986 323.942917 
L 287.208324 325.406883 
L 288.430489 326.638909 
L 290.875147 328.594529 
L 293.321146 330.108561 
L 296.993857 331.953247 
L 303.126354 334.61427 
L 327.801342 344.793863 
L 457.350741 398.14044 
L 457.350741 398.14044 
" clip-path="url(#p607bc13143)" style="fill: none; stroke: #f68d45; stroke-opacity: 0.8; stroke-width: 2.5; stroke-linecap: round"/>
   </g>
   <g id="line2d_67">
    <path d="M 228.25326 284.8222 
L 243.670203 291.050542 
L 246.048094 291.810524 
L 247.236408 292.043719 
L 248.423534 292.093008 
L 249.608652 291.860161 
L 250.790759 291.216484 
L 251.968726 290.004467 
L 253.141406 288.045304 
L 254.307792 285.153301 
L 255.46721 281.157094 
L 256.619511 275.926093 
L 257.765249 269.399142 
L 258.905783 261.611154 
L 261.180682 242.979614 
L 264.626633 213.141216 
L 265.797502 204.75569 
L 266.983421 198.030458 
L 268.185249 193.380361 
L 269.402667 191.082904 
L 270.634248 191.253277 
L 271.877666 193.838839 
L 273.129985 198.632893 
L 274.388001 205.304368 
L 275.648567 213.437793 
L 278.166582 232.266882 
L 281.910554 260.759173 
L 283.147151 269.12229 
L 284.378365 276.642367 
L 285.604824 283.261446 
L 286.827294 288.978122 
L 288.046578 293.834039 
L 289.263455 297.900561 
L 290.478626 301.266762 
L 291.692695 304.029405 
L 292.906153 306.285193 
L 294.119387 308.125272 
L 295.332686 309.63176 
L 296.546258 310.875957 
L 297.760245 311.91785 
L 300.189798 313.58116 
L 302.621705 314.903368 
L 306.274115 316.588647 
L 314.817022 320.14701 
L 457.976928 378.574314 
L 472.204908 384.38087 
L 472.204908 384.38087 
" clip-path="url(#p607bc13143)" style="fill: none; stroke: #fdae32; stroke-opacity: 0.8; stroke-width: 2.5; stroke-linecap: round"/>
   </g>
   <g id="line2d_68">
    <path d="M 243.701661 272.4278 
L 286.496506 289.638982 
L 290.094685 290.824638 
L 292.496518 291.362258 
L 293.698502 291.499552 
L 294.901322 291.514911 
L 296.105113 291.377458 
L 297.310047 291.052675 
L 298.516344 290.503295 
L 299.724266 289.690642 
L 300.934118 288.576444 
L 302.146244 287.125051 
L 303.361013 285.306002 
L 304.578807 283.096789 
L 305.799998 280.485663 
L 307.024925 277.47426 
L 308.253865 274.079831 
L 310.724421 266.297822 
L 318.222851 240.781962 
L 319.478853 237.346195 
L 320.734111 234.444527 
L 321.98753 232.16917 
L 323.238039 230.593736 
L 324.48465 229.769917 
L 325.726502 229.725364 
L 326.962901 230.462899 
L 328.193355 231.961078 
L 329.417589 234.175994 
L 330.635553 237.044163 
L 331.847418 240.486218 
L 333.053556 244.411134 
L 335.450979 253.313766 
L 342.582198 281.714891 
L 344.960485 289.877059 
L 347.347532 296.903986 
L 349.745846 302.756157 
L 350.949589 305.261672 
L 352.156419 307.507629 
L 353.36628 309.513646 
L 354.579064 311.30112 
L 357.012806 314.309167 
L 359.456256 316.705268 
L 361.90791 318.645658 
L 364.366346 320.26033 
L 366.830344 321.650876 
L 370.534695 323.475071 
L 376.725769 326.177389 
L 390.403928 331.76688 
L 486.876043 370.790844 
L 486.876043 370.790844 
" clip-path="url(#p607bc13143)" style="fill: none; stroke: #fcd225; stroke-opacity: 0.8; stroke-width: 2.5; stroke-linecap: round"/>
   </g>
   <g id="line2d_69">
    <path d="M 258.969312 260.178417 
L 308.817368 280.062133 
L 312.41581 281.263417 
L 314.818832 281.862152 
L 317.22622 282.165436 
L 318.432019 282.15628 
L 319.639554 282.007693 
L 320.849125 281.692652 
L 322.061076 281.182685 
L 323.275786 280.448892 
L 324.493659 279.463226 
L 325.715114 278.200022 
L 326.940565 276.637697 
L 328.170401 274.760558 
L 329.404961 272.560609 
L 330.64451 270.03924 
L 333.139098 264.093009 
L 335.653795 257.165398 
L 342.001796 238.817417 
L 343.274507 235.628812 
L 344.54547 232.8035 
L 345.813401 230.419535 
L 347.077063 228.544569 
L 348.335308 227.233108 
L 349.587132 226.524383 
L 350.831708 226.440944 
L 352.068427 226.988059 
L 353.296912 228.153919 
L 354.517035 229.910623 
L 355.72891 232.215837 
L 356.932883 235.015014 
L 358.129511 238.243997 
L 360.503816 245.703796 
L 364.032387 258.274829 
L 367.546469 270.869206 
L 369.893663 278.588807 
L 372.250986 285.476547 
L 374.62195 291.425745 
L 377.008276 296.431864 
L 379.410204 300.563233 
L 381.826894 303.931922 
L 384.256835 306.668875 
L 386.69821 308.905286 
L 389.149165 310.760533 
L 391.607998 312.335856 
L 395.307904 314.346234 
L 400.257407 316.651491 
L 407.706701 319.7823 
L 430.189999 328.828767 
L 501.367508 357.367248 
L 501.367508 357.367248 
" clip-path="url(#p607bc13143)" style="fill: none; stroke: #f0f921; stroke-opacity: 0.8; stroke-width: 2.5; stroke-linecap: round"/>
   </g>
  </g>
 </g>
 <defs>
  <clipPath id="p607bc13143">
   <rect x="7.2" y="7.2" width="554.4" height="554.4"/>
  </clipPath>
 </defs>
</svg>
