<?xml version="1.0" encoding="utf-8" standalone="no"?>
<!DOCTYPE svg PUBLIC "-//W3C//DTD SVG 1.1//EN"
  "http://www.w3.org/Graphics/SVG/1.1/DTD/svg11.dtd">
<svg xmlns:xlink="http://www.w3.org/1999/xlink" width="568.039375pt" height="351.148437pt" viewBox="0 0 568.039375 351.148437" xmlns="http://www.w3.org/2000/svg" version="1.1">
 <metadata>
  <rdf:RDF xmlns:dc="http://purl.org/dc/elements/1.1/" xmlns:cc="http://creativecommons.org/ns#" xmlns:rdf="http://www.w3.org/1999/02/22-rdf-syntax-ns#">
   <cc:Work>
    <dc:type rdf:resource="http://purl.org/dc/dcmitype/StillImage"/>
    <dc:date>2026-03-25T11:10:43.850774</dc:date>
    <dc:format>image/svg+xml</dc:format>
    <dc:creator>
     <cc:Agent>
      <dc:title>Matplotlib v3.10.8, https://matplotlib.org/</dc:title>
     </cc:Agent>
    </dc:creator>
   </cc:Work>
  </rdf:RDF>
 </metadata>
 <defs>
  <style type="text/css">*{stroke-linejoin: round; stroke-linecap: butt}</style>
 </defs>
 <g id="figure_1">
  <g id="patch_1">
   <path d="M 0 351.148437 
L 568.039375 351.148437 
L 568.039375 0 
L 0 0 
z
" style="fill: #ffffff"/>
  </g>
  <g id="axes_1">
   <g id="patch_2">
    <path d="M 46.599375 312.94375 
L 560.839375 312.94375 
L 560.839375 7.2 
L 46.599375 7.2 
z
" style="fill: #ffffff"/>
   </g>
   <g id="matplotlib.axis_1">
    <g id="xtick_1">
     <g id="line2d_1">
      <path d="M 69.97392 312.94375 
L 69.97392 7.2 
" clip-path="url(#pfe230be16b)" style="fill: none; stroke-dasharray: 2.96,1.28; stroke-dashoffset: 0; stroke: #b0b0b0; stroke-opacity: 0.6; stroke-width: 0.8"/>
     </g>
     <g id="line2d_2">
      <defs>
       <path id="mfc9aa9dd88" d="M 0 0 
L 0 3.5 
" style="stroke: #000000; stroke-width: 0.8"/>
      </defs>
      <g>
       <use xlink:href="#mfc9aa9dd88" x="69.97392" y="312.94375" style="stroke: #000000; stroke-width: 0.8"/>
      </g>
     </g>
     <g id="text_1">
      <!-- 0 -->
      <g transform="translate(67.47392 326.8875) scale(0.1 -0.1)">
       <defs>
        <path id="TimesNewRomanPSMT-30" d="M 231 2094 
Q 231 2819 450 3342 
Q 669 3866 1031 4122 
Q 1313 4325 1613 4325 
Q 2100 4325 2488 3828 
Q 2972 3213 2972 2159 
Q 2972 1422 2759 906 
Q 2547 391 2217 158 
Q 1888 -75 1581 -75 
Q 975 -75 572 641 
Q 231 1244 231 2094 
z
M 844 2016 
Q 844 1141 1059 588 
Q 1238 122 1591 122 
Q 1759 122 1940 273 
Q 2122 425 2216 781 
Q 2359 1319 2359 2297 
Q 2359 3022 2209 3506 
Q 2097 3866 1919 4016 
Q 1791 4119 1609 4119 
Q 1397 4119 1231 3928 
Q 1006 3669 925 3112 
Q 844 2556 844 2016 
z
" transform="scale(0.015625)"/>
       </defs>
       <use xlink:href="#TimesNewRomanPSMT-30"/>
      </g>
     </g>
    </g>
    <g id="xtick_2">
     <g id="line2d_3">
      <path d="M 137.844261 312.94375 
L 137.844261 7.2 
" clip-path="url(#pfe230be16b)" style="fill: none; stroke-dasharray: 2.96,1.28; stroke-dashoffset: 0; stroke: #b0b0b0; stroke-opacity: 0.6; stroke-width: 0.8"/>
     </g>
     <g id="line2d_4">
      <g>
       <use xlink:href="#mfc9aa9dd88" x="137.844261" y="312.94375" style="stroke: #000000; stroke-width: 0.8"/>
      </g>
     </g>
     <g id="text_2">
      <!-- 250 -->
      <g transform="translate(130.344261 326.8875) scale(0.1 -0.1)">
       <defs>
        <path id="TimesNewRomanPSMT-32" d="M 2934 816 
L 2638 0 
L 138 0 
L 138 116 
Q 1241 1122 1691 1759 
Q 2141 2397 2141 2925 
Q 2141 3328 1894 3587 
Q 1647 3847 1303 3847 
Q 991 3847 742 3664 
Q 494 3481 375 3128 
L 259 3128 
Q 338 3706 661 4015 
Q 984 4325 1469 4325 
Q 1984 4325 2329 3994 
Q 2675 3663 2675 3213 
Q 2675 2891 2525 2569 
Q 2294 2063 1775 1497 
Q 997 647 803 472 
L 1909 472 
Q 2247 472 2383 497 
Q 2519 522 2628 598 
Q 2738 675 2819 816 
L 2934 816 
z
" transform="scale(0.015625)"/>
        <path id="TimesNewRomanPSMT-35" d="M 2778 4238 
L 2534 3706 
L 1259 3706 
L 981 3138 
Q 1809 3016 2294 2522 
Q 2709 2097 2709 1522 
Q 2709 1188 2573 903 
Q 2438 619 2231 419 
Q 2025 219 1772 97 
Q 1413 -75 1034 -75 
Q 653 -75 479 54 
Q 306 184 306 341 
Q 306 428 378 495 
Q 450 563 559 563 
Q 641 563 702 538 
Q 763 513 909 409 
Q 1144 247 1384 247 
Q 1750 247 2026 523 
Q 2303 800 2303 1197 
Q 2303 1581 2056 1914 
Q 1809 2247 1375 2428 
Q 1034 2569 447 2591 
L 1259 4238 
L 2778 4238 
z
" transform="scale(0.015625)"/>
       </defs>
       <use xlink:href="#TimesNewRomanPSMT-32"/>
       <use xlink:href="#TimesNewRomanPSMT-35" transform="translate(50 0)"/>
       <use xlink:href="#TimesNewRomanPSMT-30" transform="translate(100 0)"/>
      </g>
     </g>
    </g>
    <g id="xtick_3">
     <g id="line2d_5">
      <path d="M 205.714603 312.94375 
L 205.714603 7.2 
" clip-path="url(#pfe230be16b)" style="fill: none; stroke-dasharray: 2.96,1.28; stroke-dashoffset: 0; stroke: #b0b0b0; stroke-opacity: 0.6; stroke-width: 0.8"/>
     </g>
     <g id="line2d_6">
      <g>
       <use xlink:href="#mfc9aa9dd88" x="205.714603" y="312.94375" style="stroke: #000000; stroke-width: 0.8"/>
      </g>
     </g>
     <g id="text_3">
      <!-- 500 -->
      <g transform="translate(198.214603 326.8875) scale(0.1 -0.1)">
       <use xlink:href="#TimesNewRomanPSMT-35"/>
       <use xlink:href="#TimesNewRomanPSMT-30" transform="translate(50 0)"/>
       <use xlink:href="#TimesNewRomanPSMT-30" transform="translate(100 0)"/>
      </g>
     </g>
    </g>
    <g id="xtick_4">
     <g id="line2d_7">
      <path d="M 273.584944 312.94375 
L 273.584944 7.2 
" clip-path="url(#pfe230be16b)" style="fill: none; stroke-dasharray: 2.96,1.28; stroke-dashoffset: 0; stroke: #b0b0b0; stroke-opacity: 0.6; stroke-width: 0.8"/>
     </g>
     <g id="line2d_8">
      <g>
       <use xlink:href="#mfc9aa9dd88" x="273.584944" y="312.94375" style="stroke: #000000; stroke-width: 0.8"/>
      </g>
     </g>
     <g id="text_4">
      <!-- 750 -->
      <g transform="translate(266.084944 326.8875) scale(0.1 -0.1)">
       <defs>
        <path id="TimesNewRomanPSMT-37" d="M 644 4238 
L 2916 4238 
L 2916 4119 
L 1503 -88 
L 1153 -88 
L 2419 3728 
L 1253 3728 
Q 900 3728 750 3644 
Q 488 3500 328 3200 
L 238 3234 
L 644 4238 
z
" transform="scale(0.015625)"/>
       </defs>
       <use xlink:href="#TimesNewRomanPSMT-37"/>
       <use xlink:href="#TimesNewRomanPSMT-35" transform="translate(50 0)"/>
       <use xlink:href="#TimesNewRomanPSMT-30" transform="translate(100 0)"/>
      </g>
     </g>
    </g>
    <g id="xtick_5">
     <g id="line2d_9">
      <path d="M 341.455285 312.94375 
L 341.455285 7.2 
" clip-path="url(#pfe230be16b)" style="fill: none; stroke-dasharray: 2.96,1.28; stroke-dashoffset: 0; stroke: #b0b0b0; stroke-opacity: 0.6; stroke-width: 0.8"/>
     </g>
     <g id="line2d_10">
      <g>
       <use xlink:href="#mfc9aa9dd88" x="341.455285" y="312.94375" style="stroke: #000000; stroke-width: 0.8"/>
      </g>
     </g>
     <g id="text_5">
      <!-- 1000 -->
      <g transform="translate(331.455285 326.8875) scale(0.1 -0.1)">
       <defs>
        <path id="TimesNewRomanPSMT-31" d="M 750 3822 
L 1781 4325 
L 1884 4325 
L 1884 747 
Q 1884 391 1914 303 
Q 1944 216 2037 169 
Q 2131 122 2419 116 
L 2419 0 
L 825 0 
L 825 116 
Q 1125 122 1212 167 
Q 1300 213 1334 289 
Q 1369 366 1369 747 
L 1369 3034 
Q 1369 3497 1338 3628 
Q 1316 3728 1258 3775 
Q 1200 3822 1119 3822 
Q 1003 3822 797 3725 
L 750 3822 
z
" transform="scale(0.015625)"/>
       </defs>
       <use xlink:href="#TimesNewRomanPSMT-31"/>
       <use xlink:href="#TimesNewRomanPSMT-30" transform="translate(50 0)"/>
       <use xlink:href="#TimesNewRomanPSMT-30" transform="translate(100 0)"/>
       <use xlink:href="#TimesNewRomanPSMT-30" transform="translate(150 0)"/>
      </g>
     </g>
    </g>
    <g id="xtick_6">
     <g id="line2d_11">
      <path d="M 409.325626 312.94375 
L 409.325626 7.2 
" clip-path="url(#pfe230be16b)" style="fill: none; stroke-dasharray: 2.96,1.28; stroke-dashoffset: 0; stroke: #b0b0b0; stroke-opacity: 0.6; stroke-width: 0.8"/>
     </g>
     <g id="line2d_12">
      <g>
       <use xlink:href="#mfc9aa9dd88" x="409.325626" y="312.94375" style="stroke: #000000; stroke-width: 0.8"/>
      </g>
     </g>
     <g id="text_6">
      <!-- 1250 -->
      <g transform="translate(399.325626 326.8875) scale(0.1 -0.1)">
       <use xlink:href="#TimesNewRomanPSMT-31"/>
       <use xlink:href="#TimesNewRomanPSMT-32" transform="translate(50 0)"/>
       <use xlink:href="#TimesNewRomanPSMT-35" transform="translate(100 0)"/>
       <use xlink:href="#TimesNewRomanPSMT-30" transform="translate(150 0)"/>
      </g>
     </g>
    </g>
    <g id="xtick_7">
     <g id="line2d_13">
      <path d="M 477.195967 312.94375 
L 477.195967 7.2 
" clip-path="url(#pfe230be16b)" style="fill: none; stroke-dasharray: 2.96,1.28; stroke-dashoffset: 0; stroke: #b0b0b0; stroke-opacity: 0.6; stroke-width: 0.8"/>
     </g>
     <g id="line2d_14">
      <g>
       <use xlink:href="#mfc9aa9dd88" x="477.195967" y="312.94375" style="stroke: #000000; stroke-width: 0.8"/>
      </g>
     </g>
     <g id="text_7">
      <!-- 1500 -->
      <g transform="translate(467.195967 326.8875) scale(0.1 -0.1)">
       <use xlink:href="#TimesNewRomanPSMT-31"/>
       <use xlink:href="#TimesNewRomanPSMT-35" transform="translate(50 0)"/>
       <use xlink:href="#TimesNewRomanPSMT-30" transform="translate(100 0)"/>
       <use xlink:href="#TimesNewRomanPSMT-30" transform="translate(150 0)"/>
      </g>
     </g>
    </g>
    <g id="xtick_8">
     <g id="line2d_15">
      <path d="M 545.066308 312.94375 
L 545.066308 7.2 
" clip-path="url(#pfe230be16b)" style="fill: none; stroke-dasharray: 2.96,1.28; stroke-dashoffset: 0; stroke: #b0b0b0; stroke-opacity: 0.6; stroke-width: 0.8"/>
     </g>
     <g id="line2d_16">
      <g>
       <use xlink:href="#mfc9aa9dd88" x="545.066308" y="312.94375" style="stroke: #000000; stroke-width: 0.8"/>
      </g>
     </g>
     <g id="text_8">
      <!-- 1750 -->
      <g transform="translate(535.066308 326.8875) scale(0.1 -0.1)">
       <use xlink:href="#TimesNewRomanPSMT-31"/>
       <use xlink:href="#TimesNewRomanPSMT-37" transform="translate(50 0)"/>
       <use xlink:href="#TimesNewRomanPSMT-35" transform="translate(100 0)"/>
       <use xlink:href="#TimesNewRomanPSMT-30" transform="translate(150 0)"/>
      </g>
     </g>
    </g>
    <g id="text_9">
     <!-- Failure Time (Days) -->
     <g transform="translate(255.05 341.359062) scale(0.12 -0.12)">
      <defs>
       <path id="TimesNewRomanPSMT-46" d="M 1309 4006 
L 1309 2341 
L 2081 2341 
Q 2347 2341 2470 2458 
Q 2594 2575 2634 2922 
L 2750 2922 
L 2750 1488 
L 2634 1488 
Q 2631 1734 2570 1850 
Q 2509 1966 2401 2023 
Q 2294 2081 2081 2081 
L 1309 2081 
L 1309 750 
Q 1309 428 1350 325 
Q 1381 247 1481 191 
Q 1619 116 1769 116 
L 1922 116 
L 1922 0 
L 103 0 
L 103 116 
L 253 116 
Q 516 116 634 269 
Q 709 369 709 750 
L 709 3488 
Q 709 3809 669 3913 
Q 638 3991 541 4047 
Q 406 4122 253 4122 
L 103 4122 
L 103 4238 
L 3256 4238 
L 3297 3306 
L 3188 3306 
Q 3106 3603 2998 3742 
Q 2891 3881 2733 3943 
Q 2575 4006 2244 4006 
L 1309 4006 
z
" transform="scale(0.015625)"/>
       <path id="TimesNewRomanPSMT-61" d="M 1822 413 
Q 1381 72 1269 19 
Q 1100 -59 909 -59 
Q 613 -59 420 144 
Q 228 347 228 678 
Q 228 888 322 1041 
Q 450 1253 767 1440 
Q 1084 1628 1822 1897 
L 1822 2009 
Q 1822 2438 1686 2597 
Q 1550 2756 1291 2756 
Q 1094 2756 978 2650 
Q 859 2544 859 2406 
L 866 2225 
Q 866 2081 792 2003 
Q 719 1925 600 1925 
Q 484 1925 411 2006 
Q 338 2088 338 2228 
Q 338 2497 613 2722 
Q 888 2947 1384 2947 
Q 1766 2947 2009 2819 
Q 2194 2722 2281 2516 
Q 2338 2381 2338 1966 
L 2338 994 
Q 2338 584 2353 492 
Q 2369 400 2405 369 
Q 2441 338 2488 338 
Q 2538 338 2575 359 
Q 2641 400 2828 588 
L 2828 413 
Q 2478 -56 2159 -56 
Q 2006 -56 1915 50 
Q 1825 156 1822 413 
z
M 1822 616 
L 1822 1706 
Q 1350 1519 1213 1441 
Q 966 1303 859 1153 
Q 753 1003 753 825 
Q 753 600 887 451 
Q 1022 303 1197 303 
Q 1434 303 1822 616 
z
" transform="scale(0.015625)"/>
       <path id="TimesNewRomanPSMT-69" d="M 928 4444 
Q 1059 4444 1151 4351 
Q 1244 4259 1244 4128 
Q 1244 3997 1151 3903 
Q 1059 3809 928 3809 
Q 797 3809 703 3903 
Q 609 3997 609 4128 
Q 609 4259 701 4351 
Q 794 4444 928 4444 
z
M 1188 2947 
L 1188 647 
Q 1188 378 1227 289 
Q 1266 200 1342 156 
Q 1419 113 1622 113 
L 1622 0 
L 231 0 
L 231 113 
Q 441 113 512 153 
Q 584 194 626 287 
Q 669 381 669 647 
L 669 1750 
Q 669 2216 641 2353 
Q 619 2453 572 2492 
Q 525 2531 444 2531 
Q 356 2531 231 2484 
L 188 2597 
L 1050 2947 
L 1188 2947 
z
" transform="scale(0.015625)"/>
       <path id="TimesNewRomanPSMT-6c" d="M 1184 4444 
L 1184 647 
Q 1184 378 1223 290 
Q 1263 203 1344 158 
Q 1425 113 1647 113 
L 1647 0 
L 244 0 
L 244 113 
Q 441 113 512 153 
Q 584 194 625 287 
Q 666 381 666 647 
L 666 3247 
Q 666 3731 644 3842 
Q 622 3953 573 3993 
Q 525 4034 450 4034 
Q 369 4034 244 3984 
L 191 4094 
L 1044 4444 
L 1184 4444 
z
" transform="scale(0.015625)"/>
       <path id="TimesNewRomanPSMT-75" d="M 2709 2863 
L 2709 1128 
Q 2709 631 2732 520 
Q 2756 409 2807 365 
Q 2859 322 2928 322 
Q 3025 322 3147 375 
L 3191 266 
L 2334 -88 
L 2194 -88 
L 2194 519 
Q 1825 119 1631 15 
Q 1438 -88 1222 -88 
Q 981 -88 804 51 
Q 628 191 559 409 
Q 491 628 491 1028 
L 491 2306 
Q 491 2509 447 2587 
Q 403 2666 317 2708 
Q 231 2750 6 2747 
L 6 2863 
L 1009 2863 
L 1009 947 
Q 1009 547 1148 422 
Q 1288 297 1484 297 
Q 1619 297 1789 381 
Q 1959 466 2194 703 
L 2194 2325 
Q 2194 2569 2105 2655 
Q 2016 2741 1734 2747 
L 1734 2863 
L 2709 2863 
z
" transform="scale(0.015625)"/>
       <path id="TimesNewRomanPSMT-72" d="M 1038 2947 
L 1038 2303 
Q 1397 2947 1775 2947 
Q 1947 2947 2059 2842 
Q 2172 2738 2172 2600 
Q 2172 2478 2090 2393 
Q 2009 2309 1897 2309 
Q 1788 2309 1652 2417 
Q 1516 2525 1450 2525 
Q 1394 2525 1328 2463 
Q 1188 2334 1038 2041 
L 1038 669 
Q 1038 431 1097 309 
Q 1138 225 1241 169 
Q 1344 113 1538 113 
L 1538 0 
L 72 0 
L 72 113 
Q 291 113 397 181 
Q 475 231 506 341 
Q 522 394 522 644 
L 522 1753 
Q 522 2253 501 2348 
Q 481 2444 426 2487 
Q 372 2531 291 2531 
Q 194 2531 72 2484 
L 41 2597 
L 906 2947 
L 1038 2947 
z
" transform="scale(0.015625)"/>
       <path id="TimesNewRomanPSMT-65" d="M 681 1784 
Q 678 1147 991 784 
Q 1303 422 1725 422 
Q 2006 422 2214 576 
Q 2422 731 2563 1106 
L 2659 1044 
Q 2594 616 2278 264 
Q 1963 -88 1488 -88 
Q 972 -88 605 314 
Q 238 716 238 1394 
Q 238 2128 614 2539 
Q 991 2950 1559 2950 
Q 2041 2950 2350 2633 
Q 2659 2316 2659 1784 
L 681 1784 
z
M 681 1966 
L 2006 1966 
Q 1991 2241 1941 2353 
Q 1863 2528 1708 2628 
Q 1553 2728 1384 2728 
Q 1125 2728 920 2526 
Q 716 2325 681 1966 
z
" transform="scale(0.015625)"/>
       <path id="TimesNewRomanPSMT-20" transform="scale(0.015625)"/>
       <path id="TimesNewRomanPSMT-54" d="M 3703 4238 
L 3750 3244 
L 3631 3244 
Q 3597 3506 3538 3619 
Q 3441 3800 3280 3886 
Q 3119 3972 2856 3972 
L 2259 3972 
L 2259 734 
Q 2259 344 2344 247 
Q 2463 116 2709 116 
L 2856 116 
L 2856 0 
L 1059 0 
L 1059 116 
L 1209 116 
Q 1478 116 1591 278 
Q 1659 378 1659 734 
L 1659 3972 
L 1150 3972 
Q 853 3972 728 3928 
Q 566 3869 450 3700 
Q 334 3531 313 3244 
L 194 3244 
L 244 4238 
L 3703 4238 
z
" transform="scale(0.015625)"/>
       <path id="TimesNewRomanPSMT-6d" d="M 1050 2338 
Q 1363 2650 1419 2697 
Q 1559 2816 1721 2881 
Q 1884 2947 2044 2947 
Q 2313 2947 2506 2790 
Q 2700 2634 2766 2338 
Q 3088 2713 3309 2830 
Q 3531 2947 3766 2947 
Q 3994 2947 4170 2830 
Q 4347 2713 4450 2447 
Q 4519 2266 4519 1878 
L 4519 647 
Q 4519 378 4559 278 
Q 4591 209 4675 161 
Q 4759 113 4950 113 
L 4950 0 
L 3538 0 
L 3538 113 
L 3597 113 
Q 3781 113 3884 184 
Q 3956 234 3988 344 
Q 4000 397 4000 647 
L 4000 1878 
Q 4000 2228 3916 2372 
Q 3794 2572 3525 2572 
Q 3359 2572 3192 2489 
Q 3025 2406 2788 2181 
L 2781 2147 
L 2788 2013 
L 2788 647 
Q 2788 353 2820 281 
Q 2853 209 2943 161 
Q 3034 113 3253 113 
L 3253 0 
L 1806 0 
L 1806 113 
Q 2044 113 2133 169 
Q 2222 225 2256 338 
Q 2272 391 2272 647 
L 2272 1878 
Q 2272 2228 2169 2381 
Q 2031 2581 1784 2581 
Q 1616 2581 1450 2491 
Q 1191 2353 1050 2181 
L 1050 647 
Q 1050 366 1089 281 
Q 1128 197 1204 155 
Q 1281 113 1516 113 
L 1516 0 
L 100 0 
L 100 113 
Q 297 113 375 155 
Q 453 197 493 289 
Q 534 381 534 647 
L 534 1741 
Q 534 2213 506 2350 
Q 484 2453 437 2492 
Q 391 2531 309 2531 
Q 222 2531 100 2484 
L 53 2597 
L 916 2947 
L 1050 2947 
L 1050 2338 
z
" transform="scale(0.015625)"/>
       <path id="TimesNewRomanPSMT-28" d="M 1988 -1253 
L 1988 -1369 
Q 1516 -1131 1200 -813 
Q 750 -359 506 256 
Q 263 872 263 1534 
Q 263 2503 741 3301 
Q 1219 4100 1988 4444 
L 1988 4313 
Q 1603 4100 1356 3731 
Q 1109 3363 987 2797 
Q 866 2231 866 1616 
Q 866 947 969 400 
Q 1050 -31 1165 -292 
Q 1281 -553 1476 -793 
Q 1672 -1034 1988 -1253 
z
" transform="scale(0.015625)"/>
       <path id="TimesNewRomanPSMT-44" d="M 109 0 
L 109 116 
L 269 116 
Q 538 116 650 288 
Q 719 391 719 750 
L 719 3488 
Q 719 3884 631 3984 
Q 509 4122 269 4122 
L 109 4122 
L 109 4238 
L 1834 4238 
Q 2784 4238 3279 4022 
Q 3775 3806 4076 3303 
Q 4378 2800 4378 2141 
Q 4378 1256 3841 663 
Q 3238 0 2003 0 
L 109 0 
z
M 1319 306 
Q 1716 219 1984 219 
Q 2709 219 3187 728 
Q 3666 1238 3666 2109 
Q 3666 2988 3187 3494 
Q 2709 4000 1959 4000 
Q 1678 4000 1319 3909 
L 1319 306 
z
" transform="scale(0.015625)"/>
       <path id="TimesNewRomanPSMT-79" d="M 38 2863 
L 1372 2863 
L 1372 2747 
L 1306 2747 
Q 1166 2747 1095 2686 
Q 1025 2625 1025 2534 
Q 1025 2413 1128 2197 
L 1825 753 
L 2466 2334 
Q 2519 2463 2519 2588 
Q 2519 2644 2497 2672 
Q 2472 2706 2419 2726 
Q 2366 2747 2231 2747 
L 2231 2863 
L 3163 2863 
L 3163 2747 
Q 3047 2734 2984 2696 
Q 2922 2659 2847 2556 
Q 2819 2513 2741 2316 
L 1575 -541 
Q 1406 -956 1132 -1168 
Q 859 -1381 606 -1381 
Q 422 -1381 303 -1275 
Q 184 -1169 184 -1031 
Q 184 -900 270 -820 
Q 356 -741 506 -741 
Q 609 -741 788 -809 
Q 913 -856 944 -856 
Q 1038 -856 1148 -759 
Q 1259 -663 1372 -384 
L 1575 113 
L 547 2272 
Q 500 2369 397 2513 
Q 319 2622 269 2659 
Q 197 2709 38 2747 
L 38 2863 
z
" transform="scale(0.015625)"/>
       <path id="TimesNewRomanPSMT-73" d="M 2050 2947 
L 2050 1972 
L 1947 1972 
Q 1828 2431 1642 2597 
Q 1456 2763 1169 2763 
Q 950 2763 815 2647 
Q 681 2531 681 2391 
Q 681 2216 781 2091 
Q 878 1963 1175 1819 
L 1631 1597 
Q 2266 1288 2266 781 
Q 2266 391 1970 151 
Q 1675 -88 1309 -88 
Q 1047 -88 709 6 
Q 606 38 541 38 
Q 469 38 428 -44 
L 325 -44 
L 325 978 
L 428 978 
Q 516 541 762 319 
Q 1009 97 1316 97 
Q 1531 97 1667 223 
Q 1803 350 1803 528 
Q 1803 744 1651 891 
Q 1500 1038 1047 1263 
Q 594 1488 453 1669 
Q 313 1847 313 2119 
Q 313 2472 555 2709 
Q 797 2947 1181 2947 
Q 1350 2947 1591 2875 
Q 1750 2828 1803 2828 
Q 1853 2828 1881 2850 
Q 1909 2872 1947 2947 
L 2050 2947 
z
" transform="scale(0.015625)"/>
       <path id="TimesNewRomanPSMT-29" d="M 144 4313 
L 144 4444 
Q 619 4209 934 3891 
Q 1381 3434 1625 2820 
Q 1869 2206 1869 1541 
Q 1869 572 1392 -226 
Q 916 -1025 144 -1369 
L 144 -1253 
Q 528 -1038 776 -670 
Q 1025 -303 1145 264 
Q 1266 831 1266 1447 
Q 1266 2113 1163 2663 
Q 1084 3094 967 3353 
Q 850 3613 656 3853 
Q 463 4094 144 4313 
z
" transform="scale(0.015625)"/>
      </defs>
      <use xlink:href="#TimesNewRomanPSMT-46"/>
      <use xlink:href="#TimesNewRomanPSMT-61" transform="translate(55.615234 0)"/>
      <use xlink:href="#TimesNewRomanPSMT-69" transform="translate(100 0)"/>
      <use xlink:href="#TimesNewRomanPSMT-6c" transform="translate(127.783203 0)"/>
      <use xlink:href="#TimesNewRomanPSMT-75" transform="translate(155.566406 0)"/>
      <use xlink:href="#TimesNewRomanPSMT-72" transform="translate(205.566406 0)"/>
      <use xlink:href="#TimesNewRomanPSMT-65" transform="translate(238.867188 0)"/>
      <use xlink:href="#TimesNewRomanPSMT-20" transform="translate(283.251953 0)"/>
      <use xlink:href="#TimesNewRomanPSMT-54" transform="translate(306.501953 0)"/>
      <use xlink:href="#TimesNewRomanPSMT-69" transform="translate(364.085938 0)"/>
      <use xlink:href="#TimesNewRomanPSMT-6d" transform="translate(391.869141 0)"/>
      <use xlink:href="#TimesNewRomanPSMT-65" transform="translate(469.652344 0)"/>
      <use xlink:href="#TimesNewRomanPSMT-20" transform="translate(514.037109 0)"/>
      <use xlink:href="#TimesNewRomanPSMT-28" transform="translate(539.037109 0)"/>
      <use xlink:href="#TimesNewRomanPSMT-44" transform="translate(572.337891 0)"/>
      <use xlink:href="#TimesNewRomanPSMT-61" transform="translate(644.554688 0)"/>
      <use xlink:href="#TimesNewRomanPSMT-79" transform="translate(688.939453 0)"/>
      <use xlink:href="#TimesNewRomanPSMT-73" transform="translate(738.939453 0)"/>
      <use xlink:href="#TimesNewRomanPSMT-29" transform="translate(777.855469 0)"/>
     </g>
    </g>
   </g>
   <g id="matplotlib.axis_2">
    <g id="ytick_1">
     <g id="line2d_17">
      <path d="M 46.599375 299.046307 
L 560.839375 299.046307 
" clip-path="url(#pfe230be16b)" style="fill: none; stroke-dasharray: 2.96,1.28; stroke-dashoffset: 0; stroke: #b0b0b0; stroke-opacity: 0.6; stroke-width: 0.8"/>
     </g>
     <g id="line2d_18">
      <defs>
       <path id="mb7ce867888" d="M 0 0 
L -3.5 0 
" style="stroke: #000000; stroke-width: 0.8"/>
      </defs>
      <g>
       <use xlink:href="#mb7ce867888" x="46.599375" y="299.046307" style="stroke: #000000; stroke-width: 0.8"/>
      </g>
     </g>
     <g id="text_10">
      <!-- 0.00 -->
      <g transform="translate(22.099375 302.518182) scale(0.1 -0.1)">
       <defs>
        <path id="TimesNewRomanPSMT-2e" d="M 800 606 
Q 947 606 1047 504 
Q 1147 403 1147 259 
Q 1147 116 1045 14 
Q 944 -88 800 -88 
Q 656 -88 554 14 
Q 453 116 453 259 
Q 453 406 554 506 
Q 656 606 800 606 
z
" transform="scale(0.015625)"/>
       </defs>
       <use xlink:href="#TimesNewRomanPSMT-30"/>
       <use xlink:href="#TimesNewRomanPSMT-2e" transform="translate(50 0)"/>
       <use xlink:href="#TimesNewRomanPSMT-30" transform="translate(75 0)"/>
       <use xlink:href="#TimesNewRomanPSMT-30" transform="translate(125 0)"/>
      </g>
     </g>
    </g>
    <g id="ytick_2">
     <g id="line2d_19">
      <path d="M 46.599375 243.456534 
L 560.839375 243.456534 
" clip-path="url(#pfe230be16b)" style="fill: none; stroke-dasharray: 2.96,1.28; stroke-dashoffset: 0; stroke: #b0b0b0; stroke-opacity: 0.6; stroke-width: 0.8"/>
     </g>
     <g id="line2d_20">
      <g>
       <use xlink:href="#mb7ce867888" x="46.599375" y="243.456534" style="stroke: #000000; stroke-width: 0.8"/>
      </g>
     </g>
     <g id="text_11">
      <!-- 0.05 -->
      <g transform="translate(22.099375 246.928409) scale(0.1 -0.1)">
       <use xlink:href="#TimesNewRomanPSMT-30"/>
       <use xlink:href="#TimesNewRomanPSMT-2e" transform="translate(50 0)"/>
       <use xlink:href="#TimesNewRomanPSMT-30" transform="translate(75 0)"/>
       <use xlink:href="#TimesNewRomanPSMT-35" transform="translate(125 0)"/>
      </g>
     </g>
    </g>
    <g id="ytick_3">
     <g id="line2d_21">
      <path d="M 46.599375 187.866761 
L 560.839375 187.866761 
" clip-path="url(#pfe230be16b)" style="fill: none; stroke-dasharray: 2.96,1.28; stroke-dashoffset: 0; stroke: #b0b0b0; stroke-opacity: 0.6; stroke-width: 0.8"/>
     </g>
     <g id="line2d_22">
      <g>
       <use xlink:href="#mb7ce867888" x="46.599375" y="187.866761" style="stroke: #000000; stroke-width: 0.8"/>
      </g>
     </g>
     <g id="text_12">
      <!-- 0.10 -->
      <g transform="translate(22.099375 191.338636) scale(0.1 -0.1)">
       <use xlink:href="#TimesNewRomanPSMT-30"/>
       <use xlink:href="#TimesNewRomanPSMT-2e" transform="translate(50 0)"/>
       <use xlink:href="#TimesNewRomanPSMT-31" transform="translate(75 0)"/>
       <use xlink:href="#TimesNewRomanPSMT-30" transform="translate(125 0)"/>
      </g>
     </g>
    </g>
    <g id="ytick_4">
     <g id="line2d_23">
      <path d="M 46.599375 132.276989 
L 560.839375 132.276989 
" clip-path="url(#pfe230be16b)" style="fill: none; stroke-dasharray: 2.96,1.28; stroke-dashoffset: 0; stroke: #b0b0b0; stroke-opacity: 0.6; stroke-width: 0.8"/>
     </g>
     <g id="line2d_24">
      <g>
       <use xlink:href="#mb7ce867888" x="46.599375" y="132.276989" style="stroke: #000000; stroke-width: 0.8"/>
      </g>
     </g>
     <g id="text_13">
      <!-- 0.15 -->
      <g transform="translate(22.099375 135.748864) scale(0.1 -0.1)">
       <use xlink:href="#TimesNewRomanPSMT-30"/>
       <use xlink:href="#TimesNewRomanPSMT-2e" transform="translate(50 0)"/>
       <use xlink:href="#TimesNewRomanPSMT-31" transform="translate(75 0)"/>
       <use xlink:href="#TimesNewRomanPSMT-35" transform="translate(125 0)"/>
      </g>
     </g>
    </g>
    <g id="ytick_5">
     <g id="line2d_25">
      <path d="M 46.599375 76.687216 
L 560.839375 76.687216 
" clip-path="url(#pfe230be16b)" style="fill: none; stroke-dasharray: 2.96,1.28; stroke-dashoffset: 0; stroke: #b0b0b0; stroke-opacity: 0.6; stroke-width: 0.8"/>
     </g>
     <g id="line2d_26">
      <g>
       <use xlink:href="#mb7ce867888" x="46.599375" y="76.687216" style="stroke: #000000; stroke-width: 0.8"/>
      </g>
     </g>
     <g id="text_14">
      <!-- 0.20 -->
      <g transform="translate(22.099375 80.159091) scale(0.1 -0.1)">
       <use xlink:href="#TimesNewRomanPSMT-30"/>
       <use xlink:href="#TimesNewRomanPSMT-2e" transform="translate(50 0)"/>
       <use xlink:href="#TimesNewRomanPSMT-32" transform="translate(75 0)"/>
       <use xlink:href="#TimesNewRomanPSMT-30" transform="translate(125 0)"/>
      </g>
     </g>
    </g>
    <g id="ytick_6">
     <g id="line2d_27">
      <path d="M 46.599375 21.097443 
L 560.839375 21.097443 
" clip-path="url(#pfe230be16b)" style="fill: none; stroke-dasharray: 2.96,1.28; stroke-dashoffset: 0; stroke: #b0b0b0; stroke-opacity: 0.6; stroke-width: 0.8"/>
     </g>
     <g id="line2d_28">
      <g>
       <use xlink:href="#mb7ce867888" x="46.599375" y="21.097443" style="stroke: #000000; stroke-width: 0.8"/>
      </g>
     </g>
     <g id="text_15">
      <!-- 0.25 -->
      <g transform="translate(22.099375 24.569318) scale(0.1 -0.1)">
       <use xlink:href="#TimesNewRomanPSMT-30"/>
       <use xlink:href="#TimesNewRomanPSMT-2e" transform="translate(50 0)"/>
       <use xlink:href="#TimesNewRomanPSMT-32" transform="translate(75 0)"/>
       <use xlink:href="#TimesNewRomanPSMT-35" transform="translate(125 0)"/>
      </g>
     </g>
    </g>
    <g id="text_16">
     <!-- Failure Rate h(t) -->
     <g transform="translate(15.5325 199.725312) rotate(-90) scale(0.12 -0.12)">
      <defs>
       <path id="TimesNewRomanPSMT-52" d="M 4325 0 
L 3194 0 
L 1759 1981 
Q 1600 1975 1500 1975 
Q 1459 1975 1412 1976 
Q 1366 1978 1316 1981 
L 1316 750 
Q 1316 350 1403 253 
Q 1522 116 1759 116 
L 1925 116 
L 1925 0 
L 109 0 
L 109 116 
L 269 116 
Q 538 116 653 291 
Q 719 388 719 750 
L 719 3488 
Q 719 3888 631 3984 
Q 509 4122 269 4122 
L 109 4122 
L 109 4238 
L 1653 4238 
Q 2328 4238 2648 4139 
Q 2969 4041 3192 3777 
Q 3416 3513 3416 3147 
Q 3416 2756 3161 2468 
Q 2906 2181 2372 2063 
L 3247 847 
Q 3547 428 3762 290 
Q 3978 153 4325 116 
L 4325 0 
z
M 1316 2178 
Q 1375 2178 1419 2176 
Q 1463 2175 1491 2175 
Q 2097 2175 2405 2437 
Q 2713 2700 2713 3106 
Q 2713 3503 2464 3751 
Q 2216 4000 1806 4000 
Q 1625 4000 1316 3941 
L 1316 2178 
z
" transform="scale(0.015625)"/>
       <path id="TimesNewRomanPSMT-74" d="M 1031 3803 
L 1031 2863 
L 1700 2863 
L 1700 2644 
L 1031 2644 
L 1031 788 
Q 1031 509 1111 412 
Q 1191 316 1316 316 
Q 1419 316 1516 380 
Q 1613 444 1666 569 
L 1788 569 
Q 1678 263 1478 108 
Q 1278 -47 1066 -47 
Q 922 -47 784 33 
Q 647 113 581 261 
Q 516 409 516 719 
L 516 2644 
L 63 2644 
L 63 2747 
Q 234 2816 414 2980 
Q 594 3144 734 3369 
Q 806 3488 934 3803 
L 1031 3803 
z
" transform="scale(0.015625)"/>
       <path id="TimesNewRomanPSMT-68" d="M 1041 4444 
L 1041 2350 
Q 1388 2731 1591 2839 
Q 1794 2947 1997 2947 
Q 2241 2947 2416 2812 
Q 2591 2678 2675 2391 
Q 2734 2191 2734 1659 
L 2734 647 
Q 2734 375 2778 275 
Q 2809 200 2884 156 
Q 2959 113 3159 113 
L 3159 0 
L 1753 0 
L 1753 113 
L 1819 113 
Q 2019 113 2097 173 
Q 2175 234 2206 353 
Q 2216 403 2216 647 
L 2216 1659 
Q 2216 2128 2167 2275 
Q 2119 2422 2012 2495 
Q 1906 2569 1756 2569 
Q 1603 2569 1437 2487 
Q 1272 2406 1041 2159 
L 1041 647 
Q 1041 353 1073 281 
Q 1106 209 1195 161 
Q 1284 113 1503 113 
L 1503 0 
L 84 0 
L 84 113 
Q 275 113 384 172 
Q 447 203 484 290 
Q 522 378 522 647 
L 522 3238 
Q 522 3728 498 3840 
Q 475 3953 426 3993 
Q 378 4034 297 4034 
Q 231 4034 84 3984 
L 41 4094 
L 897 4444 
L 1041 4444 
z
" transform="scale(0.015625)"/>
      </defs>
      <use xlink:href="#TimesNewRomanPSMT-46"/>
      <use xlink:href="#TimesNewRomanPSMT-61" transform="translate(55.615234 0)"/>
      <use xlink:href="#TimesNewRomanPSMT-69" transform="translate(100 0)"/>
      <use xlink:href="#TimesNewRomanPSMT-6c" transform="translate(127.783203 0)"/>
      <use xlink:href="#TimesNewRomanPSMT-75" transform="translate(155.566406 0)"/>
      <use xlink:href="#TimesNewRomanPSMT-72" transform="translate(205.566406 0)"/>
      <use xlink:href="#TimesNewRomanPSMT-65" transform="translate(238.867188 0)"/>
      <use xlink:href="#TimesNewRomanPSMT-20" transform="translate(283.251953 0)"/>
      <use xlink:href="#TimesNewRomanPSMT-52" transform="translate(308.251953 0)"/>
      <use xlink:href="#TimesNewRomanPSMT-61" transform="translate(374.951172 0)"/>
      <use xlink:href="#TimesNewRomanPSMT-74" transform="translate(419.335938 0)"/>
      <use xlink:href="#TimesNewRomanPSMT-65" transform="translate(447.119141 0)"/>
      <use xlink:href="#TimesNewRomanPSMT-20" transform="translate(491.503906 0)"/>
      <use xlink:href="#TimesNewRomanPSMT-68" transform="translate(516.503906 0)"/>
      <use xlink:href="#TimesNewRomanPSMT-28" transform="translate(566.503906 0)"/>
      <use xlink:href="#TimesNewRomanPSMT-74" transform="translate(599.804688 0)"/>
      <use xlink:href="#TimesNewRomanPSMT-29" transform="translate(627.587891 0)"/>
     </g>
    </g>
   </g>
   <g id="line2d_29">
    <path d="M 69.97392 299.046307 
L 70.245402 296.681699 
L 70.516883 296.461237 
L 70.788365 294.511891 
L 71.059846 296.227793 
L 71.331327 297.090068 
L 71.602809 295.344677 
L 71.87429 295.332311 
L 72.417253 295.747863 
L 72.688734 295.076396 
L 72.960215 293.291443 
L 73.231697 293.706485 
L 73.503178 292.339316 
L 73.77466 293.873073 
L 74.046141 293.622914 
L 74.317622 294.504659 
L 74.589104 292.205892 
L 74.860585 294.91665 
L 75.132066 293.059007 
L 75.403548 294.415755 
L 75.675029 290.676454 
L 75.94651 293.892598 
L 76.217992 291.985794 
L 76.489473 293.124942 
L 76.760955 291.664499 
L 77.032436 293.053446 
L 77.303917 293.261982 
L 77.575399 292.989456 
L 77.84688 293.930684 
L 78.118361 289.991402 
L 78.389843 291.39747 
L 78.661324 292.089821 
L 78.932805 291.546 
L 79.204287 290.739934 
L 79.475768 291.69182 
L 79.74725 291.387555 
L 80.018731 289.020868 
L 80.290212 291.004856 
L 80.561694 290.684978 
L 80.833175 289.568534 
L 81.104656 293.204535 
L 81.376138 290.237363 
L 81.647619 293.395846 
L 81.9191 291.20343 
L 82.190582 290.875346 
L 82.462063 289.991704 
L 82.733545 292.96034 
L 83.005026 294.039472 
L 83.276507 292.619743 
L 83.547989 293.14446 
L 83.81947 292.265343 
L 84.090951 287.675348 
L 84.362433 291.291598 
L 84.633914 293.261731 
L 84.905395 290.033321 
L 85.176877 289.959658 
L 85.448358 293.135645 
L 85.71984 291.024266 
L 86.262802 290.906806 
L 86.534284 293.579954 
L 86.805765 290.19589 
L 87.077246 291.970685 
L 87.348728 291.615761 
L 87.620209 291.565765 
L 87.89169 291.201292 
L 88.706135 291.99949 
L 88.977616 289.69807 
L 89.249097 290.919147 
L 89.520579 293.151662 
L 89.79206 288.840308 
L 90.063541 290.739407 
L 90.335023 289.002987 
L 90.606504 291.614067 
L 90.877985 287.482818 
L 91.149467 292.860119 
L 91.420948 293.516706 
L 91.69243 290.363118 
L 91.963911 288.894522 
L 92.235392 288.447685 
L 92.506874 290.842491 
L 92.778355 292.218862 
L 93.049836 291.453557 
L 93.321318 291.401348 
L 93.592799 290.615283 
L 93.864281 288.704024 
L 94.135762 288.979748 
L 94.407243 288.135285 
L 94.678725 291.446885 
L 94.950206 292.542342 
L 95.221687 291.349557 
L 95.493169 288.195741 
L 95.76465 292.393536 
L 96.036131 289.203925 
L 96.307613 291.102073 
L 96.579094 291.845041 
L 96.850576 288.979343 
L 97.122057 290.919147 
L 97.393538 290.0406 
L 97.66502 287.078204 
L 97.936501 289.03389 
L 98.207982 292.731679 
L 98.479464 291.42547 
L 98.750945 292.225476 
L 99.022426 293.470172 
L 99.293908 293.442065 
L 99.565389 289.947435 
L 99.836871 290.309211 
L 100.108352 291.560951 
L 100.379833 287.520517 
L 100.651315 289.191553 
L 100.922796 287.747573 
L 101.194277 290.827696 
L 101.465759 291.226479 
L 101.73724 293.024081 
L 102.280203 288.725843 
L 102.551684 290.523173 
L 102.823166 294.751818 
L 103.094647 292.340087 
L 103.366128 286.998242 
L 103.63761 292.712678 
L 103.909091 288.266448 
L 104.180572 289.150486 
L 104.452054 293.554726 
L 104.723535 291.018903 
L 104.995016 290.45516 
L 105.266498 288.351069 
L 105.537979 292.875379 
L 105.809461 291.806709 
L 106.080942 291.759258 
L 106.352423 293.806931 
L 106.623905 290.097196 
L 107.166867 288.875814 
L 107.438349 292.023303 
L 107.70983 292.522324 
L 107.981311 289.749444 
L 108.252793 290.774019 
L 108.524274 291.267628 
L 108.795756 291.212821 
L 109.067237 291.720741 
L 109.338718 291.104911 
L 109.6102 291.047778 
L 109.881681 289.838891 
L 110.153162 289.762002 
L 110.424644 293.194752 
L 110.696125 290.222533 
L 111.239088 291.279869 
L 111.510569 292.428477 
L 111.782051 292.994072 
L 112.053532 291.135338 
L 112.325013 292.917335 
L 112.596495 288.569299 
L 112.867976 289.713944 
L 113.139457 286.497825 
L 113.410939 291.431269 
L 113.68242 288.183937 
L 113.953901 289.367298 
L 114.225383 287.980427 
L 114.496864 285.896745 
L 114.768346 291.062138 
L 115.039827 293.685027 
L 115.311308 290.965419 
L 115.58279 292.941268 
L 115.854271 291.543393 
L 116.397234 290.052317 
L 116.668715 295.558868 
L 116.940196 290.650117 
L 117.211678 290.586227 
L 117.483159 289.810945 
L 117.754641 290.44995 
L 118.026122 287.495185 
L 118.297603 292.480586 
L 118.569085 287.304573 
L 118.840566 290.14601 
L 119.112047 288.578831 
L 119.383529 287.724561 
L 119.65501 290.658275 
L 119.926491 295.204581 
L 120.197973 289.023186 
L 120.469454 292.82212 
L 120.740936 292.004675 
L 121.012417 288.022839 
L 121.283898 295.069928 
L 121.55538 287.872483 
L 121.826861 289.37151 
L 122.098342 291.726512 
L 122.369824 290.859301 
L 122.641305 293.272888 
L 122.912786 293.242751 
L 123.184268 284.877999 
L 123.455749 284.695113 
L 123.998712 295.601549 
L 124.270193 290.407647 
L 124.541675 292.081261 
L 124.813156 294.66571 
L 125.084637 288.491287 
L 125.356119 293.718214 
L 125.6276 291.907973 
L 126.170563 289.999965 
L 126.442044 286.277532 
L 126.713526 292.587744 
L 126.985007 286.981748 
L 127.256488 287.787619 
L 127.52797 292.411551 
L 127.799451 285.697133 
L 128.070932 294.220806 
L 128.342414 292.261156 
L 128.885376 284.274888 
L 129.156858 292.060159 
L 129.428339 291.011651 
L 129.699821 296.011378 
L 129.971302 288.902188 
L 130.242783 292.90379 
L 130.514265 285.663584 
L 130.785746 287.584498 
L 131.057227 295.887797 
L 131.328709 290.599618 
L 131.60019 289.471035 
L 131.871671 291.534175 
L 132.414634 293.612311 
L 132.686116 293.585622 
L 132.957597 292.461141 
L 133.229078 290.213771 
L 133.50056 284.578498 
L 134.043522 293.356463 
L 134.315004 289.895727 
L 134.586485 290.973103 
L 134.857966 285.105298 
L 135.129448 293.163791 
L 135.400929 284.853173 
L 135.672411 289.461863 
L 135.943892 291.795467 
L 136.215373 288.098649 
L 136.486855 292.90379 
L 136.758336 292.869665 
L 137.029817 291.592929 
L 137.301299 287.790785 
L 137.57278 292.729287 
L 137.844261 285.06945 
L 138.115743 284.891504 
L 138.387224 289.922546 
L 138.658706 281.96198 
L 138.930187 283.030046 
L 139.201668 278.733357 
L 140.016112 294.813583 
L 140.287594 274.969208 
L 140.559075 283.122153 
L 140.830557 282.890759 
L 141.102038 275.200828 
L 141.645001 294.420251 
L 141.916482 283.56169 
L 142.187963 284.913314 
L 142.459445 287.912447 
L 142.730926 294.226384 
L 143.002407 287.750852 
L 143.273889 289.265115 
L 143.54537 287.533632 
L 143.816852 284.089417 
L 144.088333 292.308153 
L 144.359814 287.182636 
L 144.902777 293.867135 
L 145.174258 281.701604 
L 145.44574 293.760433 
L 145.717221 281.342558 
L 145.988702 293.649242 
L 146.260184 295.430712 
L 146.531665 291.791524 
L 146.803147 289.918265 
L 147.074628 282.479818 
L 147.346109 287.834924 
L 147.617591 285.833118 
L 147.889072 293.315402 
L 148.160553 291.365509 
L 148.432035 285.511406 
L 148.974997 289.154888 
L 149.246479 295.054223 
L 149.51796 293.036602 
L 149.789442 286.961574 
L 150.060923 290.901285 
L 150.332404 290.841174 
L 150.603886 292.846704 
L 150.875367 286.577573 
L 151.146848 290.639536 
L 151.41833 290.575484 
L 151.689811 286.24252 
L 151.961292 283.934524 
L 152.232774 294.669159 
L 152.504255 294.651858 
L 152.775737 292.428477 
L 153.047218 287.950544 
L 153.318699 294.563261 
L 153.590181 296.795709 
L 153.861662 294.53598 
L 154.676106 294.480412 
L 154.947587 276.122689 
L 155.219069 280.321331 
L 155.49055 291.904152 
L 155.762032 296.650196 
L 156.033513 289.441163 
L 156.304994 272.401971 
L 156.576476 291.601248 
L 156.847957 294.049473 
L 157.119438 281.478433 
L 157.39092 278.64639 
L 157.662401 291.253348 
L 157.933882 291.198339 
L 158.205364 288.507961 
L 158.476845 296.386509 
L 158.748327 296.380131 
L 159.019808 293.701136 
L 159.291289 285.618825 
L 159.562771 290.891328 
L 159.834252 290.831069 
L 160.105733 282.493521 
L 160.377215 290.64483 
L 160.648696 279.293596 
L 160.920177 278.936312 
L 161.191659 293.194752 
L 161.46314 284.340018 
L 161.734622 290.104252 
L 162.006103 284.022044 
L 162.277584 286.862247 
L 162.549066 274.40818 
L 162.820547 292.747182 
L 163.092028 276.873748 
L 163.36351 282.886489 
L 163.634991 282.648144 
L 163.906472 275.745204 
L 164.177954 282.046376 
L 164.449435 292.140745 
L 164.992398 288.623224 
L 165.263879 274.261058 
L 165.535361 284.560373 
L 165.806842 284.369139 
L 166.078323 273.017651 
L 166.349805 276.201195 
L 166.621286 291.271513 
L 166.892767 283.387216 
L 167.164249 279.192817 
L 167.43573 290.960522 
L 167.707212 270.538731 
L 167.978693 265.60885 
L 168.521656 272.469523 
L 168.793137 271.818663 
L 169.064618 275.786988 
L 169.607581 294.233339 
L 169.879062 294.212414 
L 170.150544 284.481301 
L 170.693507 296.586582 
L 170.964988 269.398428 
L 171.236469 288.892924 
L 172.050913 297.33848 
L 172.322395 283.604703 
L 172.593876 293.82661 
L 172.865357 293.801989 
L 173.136839 288.507961 
L 173.679802 288.304322 
L 175.037208 296.87695 
L 175.30869 266.185357 
L 175.851652 296.224491 
L 176.123134 293.373881 
L 176.666097 293.315402 
L 177.209059 296.166008 
L 177.480541 287.465104 
L 177.752022 287.343197 
L 178.023503 281.30489 
L 178.294985 293.036602 
L 178.566466 293.00394 
L 179.38091 297.021178 
L 179.652392 292.937541 
L 180.195354 289.832532 
L 182.367205 297.484796 
L 183.724612 297.782903 
L 185.082019 297.775683 
L 185.3535 292.656678 
L 186.167944 296.904119 
L 187.25387 297.430325 
L 188.068314 296.879064 
L 189.154239 297.411314 
L 189.968683 296.853416 
L 190.240165 285.810647 
L 190.783128 295.697525 
L 191.869053 293.992691 
L 192.683497 292.183372 
L 192.954978 292.053883 
L 194.312385 297.638971 
L 194.855348 295.505557 
L 195.126829 284.792519 
L 195.398311 291.826856 
L 195.941273 291.731863 
L 196.484236 288.001981 
L 196.755718 291.534175 
L 197.027199 268.793369 
L 197.29868 291.271513 
L 198.113124 291.104911 
L 198.927568 296.380131 
L 199.19905 290.989818 
L 199.742013 286.873364 
L 200.013494 274.155364 
L 200.827938 294.737022 
L 201.099419 281.674503 
L 201.642382 294.63442 
L 201.913863 290.151943 
L 202.456826 271.707074 
L 202.728308 280.360669 
L 204.085714 297.145802 
L 204.357196 279.87742 
L 205.714603 297.095788 
L 205.986084 289.207409 
L 206.800528 295.737392 
L 207.614972 295.707582 
L 208.157935 293.992691 
L 208.972379 295.646321 
L 210.601267 297.330573 
L 210.872748 288.655695 
L 213.316081 296.715499 
L 214.130525 295.48286 
L 215.487932 296.887481 
L 215.759413 288.146351 
L 216.030894 288.038431 
L 219.831633 298.252167 
L 222.274966 297.7985 
L 226.890149 298.378963 
L 227.16163 287.584498 
L 227.976074 295.185906 
L 229.333481 296.705685 
L 232.048295 297.863546 
L 232.591258 281.114122 
L 233.405702 286.693024 
L 233.677183 286.267049 
L 233.948664 260.262744 
L 234.220146 258.860929 
L 234.491627 285.148864 
L 235.577553 292.009627 
L 235.849034 284.607405 
L 236.391997 291.731863 
L 237.206441 284.222367 
L 237.477922 268.1631 
L 237.749404 283.163515 
L 238.020885 266.820352 
L 238.292366 265.858383 
L 239.378292 294.77017 
L 239.649773 264.302699 
L 241.00718 295.45987 
L 241.278661 280.820152 
L 243.450512 296.730066 
L 243.721994 280.202316 
L 244.536438 292.656678 
L 247.522733 297.273108 
L 251.323472 297.6282 
L 251.594953 278.831844 
L 252.137916 278.457502 
L 256.210136 297.620928 
L 258.92495 296.866316 
L 260.010875 287.928352 
L 279.014571 298.715415 
L 282.543829 297.226674 
L 286.616049 297.435009 
L 295.031971 297.452335 
L 295.303453 273.190599 
L 297.746785 296.105049 
L 298.018266 271.929345 
L 298.83271 289.781345 
L 300.461599 294.295044 
L 300.73308 269.788532 
L 301.004561 268.997781 
L 301.819005 288.751904 
L 302.361968 267.280722 
L 305.619745 296.238743 
L 306.162707 281.674503 
L 309.149002 295.78591 
L 310.77789 286.693024 
L 324.894921 298.282711 
L 325.709365 285.320437 
L 335.482695 297.858491 
L 353.128983 298.362125 
L 359.644536 297.116106 
L 366.160089 297.032185 
L 366.974533 282.200921 
L 369.689346 293.752043 
L 369.960828 243.456534 
L 370.775272 279.541123 
L 371.318235 268.1631 
L 372.675641 285.96636 
L 376.476381 294.082934 
L 378.648232 289.781345 
L 379.462676 246.103666 
L 391.679337 296.987426 
L 392.493781 265.355535 
L 396.023039 290.494034 
L 396.29452 175.513479 
L 396.837483 229.559091 
L 397.923408 259.339326 
L 403.353036 289.781345 
L 403.624517 76.687216 
L 407.425256 279.192817 
L 421.813768 292.053883 
L 422.356731 21.097443 
L 537.46483 296.424148 
L 537.46483 296.424148 
" clip-path="url(#pfe230be16b)" style="fill: none; stroke: #1f77b4; stroke-opacity: 0.8; stroke-width: 1.2; stroke-linecap: square"/>
   </g>
   <g id="line2d_30">
    <path d="M 69.97392 299.046307 
L 70.245402 296.682156 
L 70.516883 296.461738 
L 70.788365 294.512772 
L 71.059846 296.228342 
L 71.331327 297.090451 
L 71.602809 295.345402 
L 71.87429 295.333041 
L 72.417253 295.748515 
L 72.688734 295.077184 
L 72.960215 293.292588 
L 73.231697 293.707553 
L 73.503178 292.340665 
L 73.77466 293.874119 
L 74.046141 293.624016 
L 74.317622 294.505586 
L 74.589104 292.207294 
L 74.860585 294.917502 
L 75.132066 293.060247 
L 75.403548 294.416719 
L 75.675029 290.678204 
L 75.94651 293.893684 
L 76.217992 291.987288 
L 76.489473 293.126203 
L 76.760955 291.66608 
L 77.032436 293.054738 
L 77.303917 293.263236 
L 77.575399 292.990776 
L 77.84688 293.931804 
L 78.118361 289.993395 
L 78.389843 291.399167 
L 78.661324 292.091375 
L 78.932805 291.547686 
L 79.204287 290.741814 
L 79.475768 291.693498 
L 79.74725 291.389313 
L 80.018731 289.023186 
L 80.290212 291.006732 
L 80.561694 290.686942 
L 80.833175 289.570777 
L 81.104656 293.20593 
L 81.376138 290.239478 
L 81.647619 293.397213 
L 81.9191 291.205337 
L 82.190582 290.877347 
L 82.462063 289.993938 
L 82.733545 292.961854 
L 83.005026 294.040724 
L 83.276507 292.621358 
L 83.547989 293.145952 
L 83.81947 292.267066 
L 84.090951 287.678255 
L 84.362433 291.293601 
L 84.633914 293.263236 
L 84.905395 290.035677 
L 85.176877 289.962053 
L 85.448358 293.137216 
L 85.71984 291.026409 
L 86.262802 290.909013 
L 86.534284 293.581447 
L 86.805765 290.198319 
L 87.077246 291.972643 
L 87.348728 291.617829 
L 87.620209 291.567862 
L 87.89169 291.203506 
L 88.706135 292.00152 
L 88.977616 289.70078 
L 89.249097 290.921523 
L 89.520579 293.153398 
L 89.79206 288.843329 
L 90.063541 290.741889 
L 90.335023 289.006011 
L 90.606504 291.616325 
L 90.877985 287.486354 
L 91.149467 292.86203 
L 91.420948 293.518424 
L 91.69243 290.36583 
L 91.963911 288.897718 
L 92.235392 288.451052 
L 92.506874 290.845122 
L 92.778355 292.221068 
L 93.049836 291.456026 
L 93.321318 291.40385 
L 93.592799 290.618062 
L 93.864281 288.707458 
L 94.135762 288.983123 
L 94.407243 288.138977 
L 94.678725 291.449481 
L 94.950206 292.544579 
L 95.221687 291.352221 
L 95.493169 288.199522 
L 95.76465 292.395877 
L 96.036131 289.207409 
L 96.307613 291.104911 
L 96.579094 291.847631 
L 96.850576 288.982988 
L 97.122057 290.922116 
L 97.393538 290.043914 
L 97.66502 287.082645 
L 97.936501 289.037646 
L 98.207982 292.734069 
L 98.479464 291.428371 
L 98.750945 292.22809 
L 99.022426 293.472323 
L 99.293908 293.444237 
L 99.565389 289.95098 
L 99.836871 290.312643 
L 100.108352 291.563915 
L 100.379833 287.52511 
L 100.651315 289.195521 
L 100.922796 287.752164 
L 101.194277 290.831069 
L 101.465759 291.229713 
L 101.73724 293.02659 
L 102.280203 288.730195 
L 102.551684 290.526801 
L 102.823166 294.75366 
L 103.094647 292.342975 
L 103.366128 287.003462 
L 103.63761 292.715452 
L 103.909091 288.271197 
L 104.180572 289.154888 
L 104.452054 293.557191 
L 104.723535 291.022524 
L 104.995016 290.459063 
L 105.266498 288.355966 
L 105.537979 292.878232 
L 105.809461 291.810074 
L 106.080942 291.762668 
L 106.352423 293.809399 
L 106.623905 290.101431 
L 107.166867 288.880708 
L 107.438349 292.026714 
L 107.70983 292.525512 
L 107.981311 289.754014 
L 108.252793 290.77812 
L 108.524274 291.271513 
L 108.795756 291.216761 
L 109.067237 291.724452 
L 109.338718 291.10896 
L 109.6102 291.051886 
L 109.881681 289.843654 
L 110.153162 289.766846 
L 110.424644 293.19783 
L 110.696125 290.2272 
L 111.239088 291.28404 
L 111.510569 292.432056 
L 111.782051 292.997365 
L 112.053532 291.139665 
L 112.325013 292.920712 
L 112.596495 288.575103 
L 112.867976 289.719164 
L 113.139457 286.504903 
L 113.410939 291.435613 
L 113.68242 288.190177 
L 113.953901 289.372912 
L 114.225383 287.986902 
L 114.496864 285.904517 
L 114.768346 291.066914 
L 115.039827 293.688256 
L 115.311308 290.970311 
L 115.58279 292.94499 
L 115.854271 291.547993 
L 116.397234 290.057911 
L 116.668715 295.561055 
L 116.940196 290.655398 
L 117.211678 290.591589 
L 117.483159 289.816843 
L 117.754641 290.455486 
L 118.026122 287.502681 
L 118.297603 292.484891 
L 118.569085 287.312318 
L 118.840566 290.151943 
L 119.112047 288.585866 
L 119.383529 287.732242 
L 119.65501 290.664024 
L 119.926491 295.207234 
L 120.197973 289.030132 
L 120.469454 292.826472 
L 120.740936 292.009627 
L 121.012417 288.030641 
L 121.283898 295.072771 
L 121.55538 287.880499 
L 121.826861 289.37852 
L 122.098342 291.731863 
L 122.369824 290.865325 
L 122.641305 293.277168 
L 122.912786 293.247076 
L 123.184268 284.888612 
L 123.455749 284.706001 
L 123.998712 295.604216 
L 124.270193 290.414355 
L 124.541675 292.086711 
L 124.813156 294.669159 
L 125.084637 288.499631 
L 125.356119 293.722466 
L 125.6276 291.913698 
L 126.170563 290.007319 
L 126.442044 286.287998 
L 126.713526 292.593099 
L 126.985007 286.991811 
L 127.256488 287.797112 
L 127.52797 292.417203 
L 127.799451 285.708572 
L 128.070932 294.224991 
L 128.342414 292.267066 
L 128.885376 284.28796 
L 129.156858 292.066425 
L 129.428339 291.018903 
L 129.699821 296.014137 
L 129.971302 288.911435 
L 130.242783 292.909441 
L 130.514265 285.675964 
L 130.785746 287.59523 
L 131.057227 295.890785 
L 131.328709 290.607632 
L 131.60019 289.480189 
L 131.871671 291.541419 
L 132.414634 293.617618 
L 132.686116 293.590981 
L 132.957597 292.467635 
L 133.229078 290.222533 
L 133.50056 284.592966 
L 134.043522 293.362281 
L 134.315004 289.905131 
L 134.586485 290.981469 
L 134.857966 285.11985 
L 135.129448 293.170009 
L 135.400929 284.868256 
L 135.672411 289.47218 
L 135.943892 291.80334 
L 136.215373 288.110614 
L 136.486855 292.91057 
L 136.758336 292.876521 
L 137.029817 291.601248 
L 137.301299 287.803431 
L 137.57278 292.736457 
L 137.844261 285.085405 
L 138.115743 284.907868 
L 138.387224 289.933229 
L 138.658706 281.98215 
L 138.930187 283.04925 
L 139.201668 278.758069 
L 140.016112 294.818948 
L 140.287594 274.99984 
L 140.559075 283.142861 
L 140.830557 282.912072 
L 141.102038 275.23275 
L 141.645001 294.426658 
L 141.916482 283.583227 
L 142.187963 284.933247 
L 142.459445 287.928352 
L 142.730926 294.233339 
L 143.002407 287.767222 
L 143.273889 289.279436 
L 143.54537 287.550637 
L 143.816852 284.111741 
L 144.088333 292.318346 
L 144.359814 287.200693 
L 144.902777 293.875165 
L 145.174258 281.728621 
L 145.44574 293.768797 
L 145.717221 281.370703 
L 145.988702 293.657961 
L 146.260184 295.436581 
L 146.531665 291.80334 
L 146.803147 289.933229 
L 147.074628 282.507201 
L 147.346109 287.853735 
L 147.617591 285.855513 
L 147.889072 293.325232 
L 148.160553 291.378752 
L 148.432035 285.534904 
L 148.974997 289.172457 
L 149.246479 295.061377 
L 149.51796 293.04741 
L 149.789442 286.983427 
L 150.060923 290.916176 
L 150.332404 290.856285 
L 150.603886 292.858206 
L 150.875367 286.600835 
L 151.146848 290.655398 
L 151.41833 290.591589 
L 151.689811 286.267049 
L 151.961292 283.96381 
L 152.232774 294.677759 
L 152.504255 294.660526 
L 152.775737 292.441581 
L 153.047218 287.972647 
L 153.318699 294.572281 
L 153.590181 296.800255 
L 153.861662 294.545111 
L 154.676106 294.489768 
L 154.947587 276.169857 
L 155.219069 280.360669 
L 155.49055 291.919413 
L 155.762032 296.655349 
L 156.033513 289.461863 
L 156.304994 272.459894 
L 156.576476 291.617829 
L 156.847957 294.060677 
L 157.119438 281.518 
L 157.39092 278.693072 
L 157.662401 291.271513 
L 157.933882 291.216761 
L 158.205364 288.532875 
L 158.476845 296.392857 
L 158.748327 296.386509 
L 159.019808 293.713955 
L 159.291289 285.651181 
L 159.562771 290.911218 
L 159.834252 290.851254 
L 160.105733 282.534493 
L 160.377215 290.665939 
L 160.648696 279.343603 
L 160.920177 278.988141 
L 161.191659 293.21011 
L 161.46314 284.378821 
L 161.734622 290.128161 
L 162.006103 284.062541 
L 162.277584 286.895537 
L 162.549066 274.476242 
L 162.820547 292.764977 
L 163.092028 276.936738 
L 163.36351 282.933329 
L 163.634991 282.696374 
L 163.906472 275.81476 
L 164.177954 282.098205 
L 164.449435 292.162124 
L 164.992398 288.655695 
L 165.263879 274.339741 
L 165.535361 284.607405 
L 165.806842 284.417419 
L 166.078323 273.104413 
L 166.349805 276.279164 
L 166.621286 291.298603 
L 166.892767 283.44216 
L 167.164249 279.26347 
L 167.43573 290.989818 
L 167.707212 270.642773 
L 167.978693 265.734083 
L 168.521656 272.574986 
L 168.793137 271.929345 
L 169.064618 275.883902 
L 169.607581 294.254085 
L 169.879062 294.233339 
L 170.150544 284.544627 
L 170.693507 296.597418 
L 170.964988 269.529613 
L 171.236469 288.939075 
L 172.050913 297.346314 
L 172.322395 283.675863 
L 172.593876 293.851001 
L 172.865357 293.82661 
L 173.136839 288.55767 
L 173.679802 288.355966 
L 175.037208 296.887481 
L 175.30869 266.346441 
L 175.851652 296.238743 
L 176.123134 293.402675 
L 176.666097 293.344792 
L 177.209059 296.180855 
L 177.480541 287.52511 
L 177.752022 287.40447 
L 178.023503 281.39876 
L 178.294985 293.068912 
L 178.566466 293.036602 
L 179.38091 297.032185 
L 179.652392 292.970922 
L 180.195354 289.883157 
L 182.367205 297.49352 
L 183.724612 297.790041 
L 185.082019 297.782903 
L 185.3535 292.69319 
L 186.167944 296.91643 
L 187.25387 297.439666 
L 188.068314 296.891664 
L 189.154239 297.420875 
L 189.968683 296.866316 
L 190.240165 285.888964 
L 190.783128 295.717578 
L 191.869053 294.023135 
L 192.683497 292.225476 
L 192.954978 292.097585 
L 194.312385 297.647822 
L 194.855348 295.527967 
L 195.126829 284.883307 
L 195.398311 291.873433 
L 195.941273 291.77967 
L 196.484236 288.074641 
L 196.755718 291.584592 
L 197.027199 268.997781 
L 197.29868 291.325505 
L 198.113124 291.161233 
L 198.927568 296.399175 
L 199.19905 291.047778 
L 199.742013 286.961574 
L 200.013494 274.339741 
L 200.827938 294.77017 
L 201.099419 281.809168 
L 201.642382 294.669159 
L 201.913863 290.222533 
L 202.456826 271.929345 
L 202.728308 280.516383 
L 204.085714 297.161908 
L 204.357196 280.041256 
L 205.714603 297.11275 
L 205.986084 289.293715 
L 206.800528 295.766674 
L 207.614972 295.737392 
L 208.157935 294.038219 
L 208.972379 295.67723 
L 210.601267 297.346314 
L 210.872748 288.751904 
L 213.316081 296.737282 
L 214.130525 295.516797 
L 215.487932 296.908239 
L 215.759413 288.252176 
L 216.030894 288.146351 
L 219.831633 298.26003 
L 222.274966 297.810979 
L 226.890149 298.385703 
L 227.16163 287.701455 
L 227.976074 295.225704 
L 229.333481 296.730066 
L 232.048295 297.875996 
L 232.591258 281.30489 
L 233.405702 286.828774 
L 233.677183 286.412268 
L 233.948664 260.708533 
L 234.220146 259.339326 
L 234.491627 285.320437 
L 235.577553 292.097585 
L 235.849034 284.792519 
L 236.391997 291.826856 
L 237.206441 284.417419 
L 237.477922 268.586157 
L 237.749404 283.387216 
L 238.020885 267.280722 
L 238.292366 266.346441 
L 239.378292 294.83496 
L 239.649773 264.837216 
L 241.00718 295.516797 
L 241.278661 281.114122 
L 243.450512 296.768037 
L 243.721994 280.516383 
L 244.536438 292.764977 
L 247.522733 297.303681 
L 251.323472 297.653079 
L 251.594953 279.192817 
L 252.137916 278.831844 
L 256.210136 297.647822 
L 258.92495 296.908239 
L 260.010875 288.146351 
L 279.014571 298.722168 
L 282.543829 297.264583 
L 286.616049 297.469292 
L 295.031971 297.486986 
L 295.303453 273.778228 
L 297.746785 296.17345 
L 298.018266 272.574986 
L 298.83271 290.007319 
L 300.461599 294.413826 
L 300.73308 270.538731 
L 301.004561 269.788532 
L 301.819005 289.030132 
L 302.361968 268.1631 
L 305.619745 296.321318 
L 306.162707 282.200921 
L 309.149002 295.887797 
L 310.77789 287.091517 
L 324.894921 298.309042 
L 325.709365 285.810647 
L 335.482695 297.902484 
L 353.128983 298.38844 
L 359.644536 297.193314 
L 366.160089 297.116106 
L 366.974533 282.933329 
L 369.689346 293.992691 
L 369.960828 246.103666 
L 370.775272 280.516383 
L 371.318235 269.788532 
L 372.675641 286.693024 
L 376.476381 294.374897 
L 378.648232 290.360405 
L 379.462676 249.633176 
L 391.679337 297.145802 
L 392.493781 268.1631 
L 396.023039 291.271513 
L 396.29452 187.866761 
L 396.837483 237.279893 
L 397.923408 264.302699 
L 403.353036 291.104911 
L 403.624517 113.747064 
L 407.425256 283.163515 
L 421.813768 293.801989 
L 422.356731 113.747064 
L 537.46483 297.735227 
L 537.46483 297.735227 
" clip-path="url(#pfe230be16b)" style="fill: none; stroke: #d62728; stroke-opacity: 0.8; stroke-width: 1.2; stroke-linecap: square"/>
   </g>
   <g id="line2d_31">
    <path d="M 69.97392 299.046307 
L 70.245402 296.746366 
L 70.516883 296.461588 
L 70.788365 294.512508 
L 71.059846 296.228177 
L 71.331327 297.090336 
L 71.602809 295.345184 
L 71.87429 295.332822 
L 72.417253 295.74832 
L 72.688734 295.076948 
L 72.960215 293.292245 
L 73.231697 293.707233 
L 73.503178 292.34026 
L 73.77466 293.873805 
L 74.046141 293.623686 
L 74.317622 294.505308 
L 74.589104 292.206874 
L 74.860585 294.917246 
L 75.132066 293.059875 
L 75.403548 294.41643 
L 75.675029 290.677679 
L 75.94651 293.893358 
L 76.217992 291.98684 
L 76.489473 293.125825 
L 76.760955 291.665606 
L 77.032436 293.054351 
L 77.303917 293.262859 
L 77.575399 292.99038 
L 77.84688 293.931468 
L 78.118361 289.992797 
L 78.389843 291.398658 
L 78.661324 292.090909 
L 78.932805 291.547181 
L 79.204287 290.74125 
L 79.475768 291.692995 
L 79.74725 291.388786 
L 80.018731 289.02249 
L 80.290212 291.006169 
L 80.561694 290.686353 
L 80.833175 289.570104 
L 81.104656 293.205511 
L 81.376138 290.238843 
L 81.647619 293.396803 
L 81.9191 291.204765 
L 82.190582 290.876747 
L 82.462063 289.993268 
L 82.733545 292.9614 
L 83.005026 294.040349 
L 83.276507 292.620874 
L 83.547989 293.145504 
L 83.81947 292.266549 
L 84.090951 287.677383 
L 84.362433 291.293 
L 84.633914 293.262784 
L 84.905395 290.03497 
L 85.176877 289.961335 
L 85.448358 293.136745 
L 85.71984 291.025766 
L 86.262802 290.908351 
L 86.534284 293.580999 
L 86.805765 290.19759 
L 87.077246 291.972056 
L 87.348728 291.617209 
L 87.620209 291.567233 
L 87.89169 291.202842 
L 88.706135 292.000911 
L 88.977616 289.699967 
L 89.249097 290.92081 
L 89.520579 293.152877 
L 89.79206 288.842423 
L 90.063541 290.741145 
L 90.335023 289.005104 
L 90.606504 291.615648 
L 90.877985 287.485293 
L 91.149467 292.861457 
L 91.420948 293.517908 
L 91.69243 290.365017 
L 91.963911 288.896759 
L 92.235392 288.450042 
L 92.506874 290.844332 
L 92.778355 292.220407 
L 93.049836 291.455285 
L 93.321318 291.4031 
L 93.592799 290.617228 
L 93.864281 288.706428 
L 94.135762 288.982111 
L 94.407243 288.137869 
L 94.678725 291.448702 
L 94.950206 292.543908 
L 95.221687 291.351422 
L 95.493169 288.198388 
L 95.76465 292.395174 
L 96.036131 289.206364 
L 96.307613 291.10406 
L 96.579094 291.846854 
L 96.850576 288.981895 
L 97.122057 290.921226 
L 97.393538 290.04292 
L 97.66502 287.081313 
L 97.936501 289.036519 
L 98.207982 292.733352 
L 98.479464 291.427501 
L 98.750945 292.227306 
L 99.022426 293.471678 
L 99.293908 293.443585 
L 99.565389 289.949917 
L 99.836871 290.311613 
L 100.108352 291.563026 
L 100.379833 287.523733 
L 100.651315 289.194331 
L 100.922796 287.750787 
L 101.194277 290.830058 
L 101.465759 291.228744 
L 101.73724 293.025837 
L 102.280203 288.72889 
L 102.551684 290.525713 
L 102.823166 294.753108 
L 103.094647 292.342109 
L 103.366128 287.001896 
L 103.63761 292.71462 
L 103.909091 288.269772 
L 104.180572 289.153568 
L 104.452054 293.556452 
L 104.723535 291.021438 
L 104.995016 290.457893 
L 105.266498 288.354497 
L 105.537979 292.877377 
L 105.809461 291.809065 
L 106.080942 291.761645 
L 106.352423 293.808659 
L 106.623905 290.100161 
L 107.166867 288.879241 
L 107.438349 292.025691 
L 107.70983 292.524556 
L 107.981311 289.752644 
L 108.252793 290.776891 
L 108.524274 291.270348 
L 108.795756 291.21558 
L 109.067237 291.723339 
L 109.338718 291.107746 
L 109.6102 291.050655 
L 109.881681 289.842226 
L 110.153162 289.765393 
L 110.424644 293.196907 
L 110.696125 290.2258 
L 111.239088 291.282789 
L 111.510569 292.430983 
L 111.782051 292.996378 
L 112.053532 291.138367 
L 112.325013 292.919699 
L 112.596495 288.573362 
L 112.867976 289.717599 
L 113.139457 286.502781 
L 113.410939 291.434311 
L 113.68242 288.188306 
L 113.953901 289.371229 
L 114.225383 287.98496 
L 114.496864 285.902186 
L 114.768346 291.065482 
L 115.039827 293.687288 
L 115.311308 290.968844 
L 115.58279 292.943874 
L 115.854271 291.546613 
L 116.397234 290.056233 
L 116.668715 295.560399 
L 116.940196 290.653814 
L 117.211678 290.589981 
L 117.483159 289.815074 
L 117.754641 290.453826 
L 118.026122 287.500433 
L 118.297603 292.4836 
L 118.569085 287.309995 
L 118.840566 290.150164 
L 119.112047 288.583756 
L 119.383529 287.729939 
L 119.65501 290.662301 
L 119.926491 295.206439 
L 120.197973 289.028049 
L 120.469454 292.825167 
L 120.740936 292.008142 
L 121.012417 288.028301 
L 121.283898 295.071918 
L 121.55538 287.878095 
L 121.826861 289.376418 
L 122.098342 291.730259 
L 122.369824 290.863518 
L 122.641305 293.275885 
L 122.912786 293.245779 
L 123.184268 284.88543 
L 123.455749 284.702736 
L 123.998712 295.603416 
L 124.270193 290.412344 
L 124.541675 292.085077 
L 124.813156 294.668125 
L 125.084637 288.497129 
L 125.356119 293.721191 
L 125.6276 291.911981 
L 126.170563 290.005114 
L 126.442044 286.28486 
L 126.713526 292.591494 
L 126.985007 286.988794 
L 127.256488 287.794265 
L 127.52797 292.415508 
L 127.799451 285.705143 
L 128.070932 294.223736 
L 128.342414 292.265294 
L 128.885376 284.284041 
L 129.156858 292.064547 
L 129.428339 291.016729 
L 129.699821 296.01331 
L 129.971302 288.908662 
L 130.242783 292.907747 
L 130.514265 285.672252 
L 130.785746 287.592013 
L 131.057227 295.889889 
L 131.328709 290.605229 
L 131.60019 289.477445 
L 131.871671 291.539248 
L 132.414634 293.616027 
L 132.686116 293.589374 
L 132.957597 292.465689 
L 133.229078 290.219906 
L 133.50056 284.588629 
L 134.043522 293.360537 
L 134.315004 289.902312 
L 134.586485 290.978961 
L 134.857966 285.115488 
L 135.129448 293.168145 
L 135.400929 284.863735 
L 135.672411 289.469087 
L 135.943892 291.80098 
L 136.215373 288.107027 
L 136.486855 292.908538 
L 136.758336 292.874466 
L 137.029817 291.598754 
L 137.301299 287.79964 
L 137.57278 292.734308 
L 137.844261 285.080622 
L 138.115743 284.902962 
L 138.387224 289.930027 
L 138.658706 281.976104 
L 138.930187 283.043494 
L 139.201668 278.750661 
L 140.016112 294.81734 
L 140.287594 274.990659 
L 140.559075 283.136654 
L 140.830557 282.905684 
L 141.102038 275.223182 
L 141.645001 294.424738 
L 141.916482 283.576772 
L 142.187963 284.927273 
L 142.459445 287.923585 
L 142.730926 294.231255 
L 143.002407 287.762316 
L 143.273889 289.275144 
L 143.54537 287.545541 
L 143.816852 284.105051 
L 144.088333 292.315292 
L 144.359814 287.195282 
L 144.902777 293.872759 
L 145.174258 281.720524 
L 145.44574 293.76629 
L 145.717221 281.362269 
L 145.988702 293.655348 
L 146.260184 295.434822 
L 146.531665 291.799799 
L 146.803147 289.928745 
L 147.074628 282.498996 
L 147.346109 287.848098 
L 147.617591 285.848803 
L 147.889072 293.322287 
L 148.160553 291.374784 
L 148.432035 285.527863 
L 148.974997 289.167193 
L 149.246479 295.059233 
L 149.51796 293.044172 
L 149.789442 286.976879 
L 150.060923 290.911714 
L 150.332404 290.851758 
L 150.603886 292.85476 
L 150.875367 286.593866 
L 151.146848 290.650645 
L 151.41833 290.586764 
L 151.689811 286.2597 
L 151.961292 283.955036 
L 152.232774 294.675183 
L 152.504255 294.657929 
L 152.775737 292.437655 
L 153.047218 287.966025 
L 153.318699 294.569579 
L 153.590181 296.798893 
L 153.861662 294.542375 
L 154.676106 294.486965 
L 154.947587 276.155727 
L 155.219069 280.348885 
L 155.49055 291.914841 
L 155.762032 296.653805 
L 156.033513 289.455662 
L 156.304994 272.442543 
L 156.576476 291.612863 
L 156.847957 294.057321 
L 157.119438 281.506149 
L 157.39092 278.67909 
L 157.662401 291.266073 
L 157.933882 291.211244 
L 158.205364 288.525413 
L 158.476845 296.390956 
L 158.748327 296.384599 
L 159.019808 293.710116 
L 159.291289 285.641491 
L 159.562771 290.905261 
L 159.834252 290.845209 
L 160.105733 282.522223 
L 160.377215 290.659617 
L 160.648696 279.328627 
L 160.920177 278.972621 
L 161.191659 293.205511 
L 161.46314 284.367201 
L 161.734622 290.121002 
L 162.006103 284.050415 
L 162.277584 286.885569 
L 162.549066 274.455863 
L 162.820547 292.759649 
L 163.092028 276.917879 
L 163.36351 282.919306 
L 163.634991 282.681935 
L 163.906472 275.793937 
L 164.177954 282.08269 
L 164.449435 292.155725 
L 164.992398 288.645975 
L 165.263879 274.316189 
L 165.535361 284.593327 
L 165.806842 284.402969 
L 166.078323 273.078445 
L 166.349805 276.255829 
L 166.621286 291.290496 
L 166.892767 283.425717 
L 167.164249 279.242327 
L 167.43573 290.981051 
L 167.707212 270.61164 
L 167.978693 265.696612 
L 168.521656 272.543435 
L 168.793137 271.896235 
L 169.064618 275.854912 
L 169.607581 294.24788 
L 169.879062 294.227081 
L 170.150544 284.525687 
L 170.693507 296.594177 
L 170.964988 269.49038 
L 171.236469 288.925274 
L 172.050913 297.343971 
L 172.322395 283.654584 
L 172.593876 293.843708 
L 172.865357 293.819248 
L 173.136839 288.542807 
L 173.679802 288.340525 
L 175.037208 296.884332 
L 175.30869 266.298282 
L 175.851652 296.234482 
L 176.123134 293.394068 
L 176.666097 293.336007 
L 177.209059 296.176417 
L 177.480541 287.507174 
L 177.752022 287.386155 
L 178.023503 281.370703 
L 178.294985 293.059255 
L 178.566466 293.02684 
L 179.38091 297.028895 
L 179.652392 292.960946 
L 180.195354 289.868028 
L 182.367205 297.490913 
L 183.724612 297.787908 
L 185.082019 297.780746 
L 185.3535 292.68228 
L 186.167944 296.912752 
L 187.25387 297.436875 
L 188.068314 296.8879 
L 189.154239 297.418018 
L 189.968683 296.862462 
L 190.240165 285.865566 
L 190.783128 295.711587 
L 191.869053 294.01404 
L 192.683497 292.212899 
L 192.954978 292.084532 
L 194.312385 297.645178 
L 194.855348 295.521274 
L 195.126829 284.856193 
L 195.398311 291.859523 
L 195.941273 291.765394 
L 196.484236 288.052944 
L 196.755718 291.569538 
L 197.027199 268.936748 
L 197.29868 291.309386 
L 198.113124 291.14442 
L 198.927568 296.39349 
L 199.19905 291.030478 
L 199.742013 286.935245 
L 200.013494 274.284715 
L 200.827938 294.76028 
L 201.099419 281.768988 
L 201.642382 294.658795 
L 201.913863 290.201474 
L 202.456826 271.863044 
L 202.728308 280.469942 
L 204.085714 297.157105 
L 204.357196 279.9924 
L 205.714603 297.107692 
L 205.986084 289.267983 
L 206.800528 295.757944 
L 207.614972 295.728505 
L 208.157935 294.024647 
L 208.972379 295.668016 
L 210.601267 297.341622 
L 210.872748 288.723229 
L 213.316081 296.73079 
L 214.130525 295.506684 
L 215.487932 296.902053 
L 215.759413 288.220645 
L 216.030894 288.114198 
L 219.831633 298.257688 
L 222.274966 297.807261 
L 226.890149 298.383696 
L 227.16163 287.666619 
L 227.976074 295.213851 
L 229.333481 296.722805 
L 232.048295 297.872288 
L 232.591258 281.248087 
L 233.405702 286.788364 
L 233.677183 286.36905 
L 233.948664 260.575876 
L 234.220146 259.197007 
L 234.491627 285.269411 
L 235.577553 292.071429 
L 235.849034 284.737485 
L 236.391997 291.798618 
L 237.206441 284.359445 
L 237.477922 268.460462 
L 237.749404 283.32077 
L 238.020885 267.143998 
L 238.292366 266.201537 
L 239.378292 294.815731 
L 239.649773 264.678596 
L 241.00718 295.49991 
L 241.278661 281.026932 
L 243.450512 296.756777 
L 243.721994 280.423267 
L 244.536438 292.732874 
L 247.522733 297.29462 
L 251.323472 297.645708 
L 251.594953 279.085886 
L 252.137916 278.720979 
L 256.210136 297.639861 
L 258.92495 296.895832 
L 260.010875 288.081855 
L 279.014571 298.720171 
L 282.543829 297.253378 
L 286.616049 297.459161 
L 295.031971 297.47675 
L 295.303453 273.604763 
L 297.746785 296.153266 
L 298.018266 272.384545 
L 298.83271 289.940693 
L 300.461599 294.37882 
L 300.73308 270.317742 
L 301.004561 269.555711 
L 301.819005 288.948255 
L 302.361968 267.903577 
L 305.619745 296.29706 
L 306.162707 282.046376 
L 309.149002 295.857906 
L 310.77789 286.974695 
L 324.894921 298.301335 
L 325.709365 285.6673 
L 335.482695 297.889632 
L 353.128983 298.38076 
L 359.644536 297.170808 
L 366.160089 297.091673 
L 366.974533 282.720382 
L 369.689346 293.922825 
L 369.960828 245.336381 
L 370.775272 280.234201 
L 371.318235 269.319156 
L 372.675641 286.483646 
L 376.476381 294.29098 
L 378.648232 290.194432 
L 379.462676 248.624744 
L 391.679337 297.100908 
L 392.493781 267.371223 
L 396.023039 291.053529 
L 396.29452 184.428219 
L 396.837483 235.150016 
L 397.923408 262.949052 
L 403.353036 290.749326 
L 403.624517 103.994473 
L 407.425256 282.149719 
L 421.813768 293.376774 
L 422.356731 93.15826 
L 537.46483 297.50386 
L 537.46483 297.50386 
" clip-path="url(#pfe230be16b)" style="fill: none; stroke: #2ca02c; stroke-opacity: 0.8; stroke-width: 1.2; stroke-linecap: square"/>
   </g>
   <g id="patch_3">
    <path d="M 46.599375 312.94375 
L 46.599375 7.2 
" style="fill: none; stroke: #000000; stroke-width: 0.8; stroke-linejoin: miter; stroke-linecap: square"/>
   </g>
   <g id="patch_4">
    <path d="M 560.839375 312.94375 
L 560.839375 7.2 
" style="fill: none; stroke: #000000; stroke-width: 0.8; stroke-linejoin: miter; stroke-linecap: square"/>
   </g>
   <g id="patch_5">
    <path d="M 46.599375 312.94375 
L 560.839375 312.94375 
" style="fill: none; stroke: #000000; stroke-width: 0.8; stroke-linejoin: miter; stroke-linecap: square"/>
   </g>
   <g id="patch_6">
    <path d="M 46.599375 7.2 
L 560.839375 7.2 
" style="fill: none; stroke: #000000; stroke-width: 0.8; stroke-linejoin: miter; stroke-linecap: square"/>
   </g>
   <g id="legend_1">
    <g id="patch_7">
     <path d="M 467.681562 57.617187 
L 553.839375 57.617187 
Q 555.839375 57.617187 555.839375 55.617187 
L 555.839375 14.2 
Q 555.839375 12.2 553.839375 12.2 
L 467.681562 12.2 
Q 465.681562 12.2 465.681562 14.2 
L 465.681562 55.617187 
Q 465.681562 57.617187 467.681562 57.617187 
z
" style="fill: #ffffff; opacity: 0.8; stroke: #cccccc; stroke-linejoin: miter"/>
    </g>
    <g id="line2d_32">
     <path d="M 469.681562 19.7 
L 479.681562 19.7 
L 489.681562 19.7 
" style="fill: none; stroke: #1f77b4; stroke-opacity: 0.8; stroke-width: 1.2; stroke-linecap: square"/>
    </g>
    <g id="text_17">
     <!-- Simple Rank -->
     <g transform="translate(497.681562 23.2) scale(0.1 -0.1)">
      <defs>
       <path id="TimesNewRomanPSMT-53" d="M 2934 4334 
L 2934 2869 
L 2819 2869 
Q 2763 3291 2617 3541 
Q 2472 3791 2203 3937 
Q 1934 4084 1647 4084 
Q 1322 4084 1109 3886 
Q 897 3688 897 3434 
Q 897 3241 1031 3081 
Q 1225 2847 1953 2456 
Q 2547 2138 2764 1967 
Q 2981 1797 3098 1565 
Q 3216 1334 3216 1081 
Q 3216 600 2842 251 
Q 2469 -97 1881 -97 
Q 1697 -97 1534 -69 
Q 1438 -53 1133 45 
Q 828 144 747 144 
Q 669 144 623 97 
Q 578 50 556 -97 
L 441 -97 
L 441 1356 
L 556 1356 
Q 638 900 775 673 
Q 913 447 1195 297 
Q 1478 147 1816 147 
Q 2206 147 2432 353 
Q 2659 559 2659 841 
Q 2659 997 2573 1156 
Q 2488 1316 2306 1453 
Q 2184 1547 1640 1851 
Q 1097 2156 867 2337 
Q 638 2519 519 2737 
Q 400 2956 400 3219 
Q 400 3675 750 4004 
Q 1100 4334 1641 4334 
Q 1978 4334 2356 4169 
Q 2531 4091 2603 4091 
Q 2684 4091 2736 4139 
Q 2788 4188 2819 4334 
L 2934 4334 
z
" transform="scale(0.015625)"/>
       <path id="TimesNewRomanPSMT-70" d="M -6 2578 
L 875 2934 
L 994 2934 
L 994 2266 
Q 1216 2644 1439 2795 
Q 1663 2947 1909 2947 
Q 2341 2947 2628 2609 
Q 2981 2197 2981 1534 
Q 2981 794 2556 309 
Q 2206 -88 1675 -88 
Q 1444 -88 1275 -22 
Q 1150 25 994 166 
L 994 -706 
Q 994 -1000 1030 -1079 
Q 1066 -1159 1155 -1206 
Q 1244 -1253 1478 -1253 
L 1478 -1369 
L -22 -1369 
L -22 -1253 
L 56 -1253 
Q 228 -1256 350 -1188 
Q 409 -1153 442 -1076 
Q 475 -1000 475 -688 
L 475 2019 
Q 475 2297 450 2372 
Q 425 2447 370 2484 
Q 316 2522 222 2522 
Q 147 2522 31 2478 
L -6 2578 
z
M 994 2081 
L 994 1013 
Q 994 666 1022 556 
Q 1066 375 1236 237 
Q 1406 100 1666 100 
Q 1978 100 2172 344 
Q 2425 663 2425 1241 
Q 2425 1897 2138 2250 
Q 1938 2494 1663 2494 
Q 1513 2494 1366 2419 
Q 1253 2363 994 2081 
z
" transform="scale(0.015625)"/>
       <path id="TimesNewRomanPSMT-6e" d="M 1034 2341 
Q 1538 2947 1994 2947 
Q 2228 2947 2397 2830 
Q 2566 2713 2666 2444 
Q 2734 2256 2734 1869 
L 2734 647 
Q 2734 375 2778 278 
Q 2813 200 2889 156 
Q 2966 113 3172 113 
L 3172 0 
L 1756 0 
L 1756 113 
L 1816 113 
Q 2016 113 2095 173 
Q 2175 234 2206 353 
Q 2219 400 2219 647 
L 2219 1819 
Q 2219 2209 2117 2386 
Q 2016 2563 1775 2563 
Q 1403 2563 1034 2156 
L 1034 647 
Q 1034 356 1069 288 
Q 1113 197 1189 155 
Q 1266 113 1500 113 
L 1500 0 
L 84 0 
L 84 113 
L 147 113 
Q 366 113 442 223 
Q 519 334 519 647 
L 519 1709 
Q 519 2225 495 2337 
Q 472 2450 423 2490 
Q 375 2531 294 2531 
Q 206 2531 84 2484 
L 38 2597 
L 900 2947 
L 1034 2947 
L 1034 2341 
z
" transform="scale(0.015625)"/>
       <path id="TimesNewRomanPSMT-6b" d="M 1047 4444 
L 1047 1597 
L 1775 2259 
Q 2006 2472 2044 2528 
Q 2069 2566 2069 2603 
Q 2069 2666 2017 2711 
Q 1966 2756 1847 2763 
L 1847 2863 
L 3091 2863 
L 3091 2763 
Q 2834 2756 2664 2684 
Q 2494 2613 2291 2428 
L 1556 1750 
L 2291 822 
Q 2597 438 2703 334 
Q 2853 188 2966 144 
Q 3044 113 3238 113 
L 3238 0 
L 1847 0 
L 1847 113 
Q 1966 116 2008 148 
Q 2050 181 2050 241 
Q 2050 313 1925 472 
L 1047 1594 
L 1047 644 
Q 1047 366 1086 278 
Q 1125 191 1197 153 
Q 1269 116 1509 113 
L 1509 0 
L 53 0 
L 53 113 
Q 272 113 381 166 
Q 447 200 481 272 
Q 528 375 528 628 
L 528 3234 
Q 528 3731 506 3842 
Q 484 3953 434 3995 
Q 384 4038 303 4038 
Q 238 4038 106 3984 
L 53 4094 
L 903 4444 
L 1047 4444 
z
" transform="scale(0.015625)"/>
      </defs>
      <use xlink:href="#TimesNewRomanPSMT-53"/>
      <use xlink:href="#TimesNewRomanPSMT-69" transform="translate(55.615234 0)"/>
      <use xlink:href="#TimesNewRomanPSMT-6d" transform="translate(83.398438 0)"/>
      <use xlink:href="#TimesNewRomanPSMT-70" transform="translate(161.181641 0)"/>
      <use xlink:href="#TimesNewRomanPSMT-6c" transform="translate(211.181641 0)"/>
      <use xlink:href="#TimesNewRomanPSMT-65" transform="translate(238.964844 0)"/>
      <use xlink:href="#TimesNewRomanPSMT-20" transform="translate(283.349609 0)"/>
      <use xlink:href="#TimesNewRomanPSMT-52" transform="translate(308.349609 0)"/>
      <use xlink:href="#TimesNewRomanPSMT-61" transform="translate(375.048828 0)"/>
      <use xlink:href="#TimesNewRomanPSMT-6e" transform="translate(419.433594 0)"/>
      <use xlink:href="#TimesNewRomanPSMT-6b" transform="translate(469.433594 0)"/>
     </g>
    </g>
    <g id="line2d_33">
     <path d="M 469.681562 33.839062 
L 479.681562 33.839062 
L 489.681562 33.839062 
" style="fill: none; stroke: #d62728; stroke-opacity: 0.8; stroke-width: 1.2; stroke-linecap: square"/>
    </g>
    <g id="text_18">
     <!-- Mean Rank -->
     <g transform="translate(497.681562 37.339062) scale(0.1 -0.1)">
      <defs>
       <path id="TimesNewRomanPSMT-4d" d="M 2619 0 
L 981 3566 
L 981 734 
Q 981 344 1066 247 
Q 1181 116 1431 116 
L 1581 116 
L 1581 0 
L 106 0 
L 106 116 
L 256 116 
Q 525 116 638 278 
Q 706 378 706 734 
L 706 3503 
Q 706 3784 644 3909 
Q 600 4000 483 4061 
Q 366 4122 106 4122 
L 106 4238 
L 1306 4238 
L 2844 922 
L 4356 4238 
L 5556 4238 
L 5556 4122 
L 5409 4122 
Q 5138 4122 5025 3959 
Q 4956 3859 4956 3503 
L 4956 734 
Q 4956 344 5044 247 
Q 5159 116 5409 116 
L 5556 116 
L 5556 0 
L 3756 0 
L 3756 116 
L 3906 116 
Q 4178 116 4288 278 
Q 4356 378 4356 734 
L 4356 3566 
L 2722 0 
L 2619 0 
z
" transform="scale(0.015625)"/>
      </defs>
      <use xlink:href="#TimesNewRomanPSMT-4d"/>
      <use xlink:href="#TimesNewRomanPSMT-65" transform="translate(88.916016 0)"/>
      <use xlink:href="#TimesNewRomanPSMT-61" transform="translate(133.300781 0)"/>
      <use xlink:href="#TimesNewRomanPSMT-6e" transform="translate(177.685547 0)"/>
      <use xlink:href="#TimesNewRomanPSMT-20" transform="translate(227.685547 0)"/>
      <use xlink:href="#TimesNewRomanPSMT-52" transform="translate(252.685547 0)"/>
      <use xlink:href="#TimesNewRomanPSMT-61" transform="translate(319.384766 0)"/>
      <use xlink:href="#TimesNewRomanPSMT-6e" transform="translate(363.769531 0)"/>
      <use xlink:href="#TimesNewRomanPSMT-6b" transform="translate(413.769531 0)"/>
     </g>
    </g>
    <g id="line2d_34">
     <path d="M 469.681562 47.978125 
L 479.681562 47.978125 
L 489.681562 47.978125 
" style="fill: none; stroke: #2ca02c; stroke-opacity: 0.8; stroke-width: 1.2; stroke-linecap: square"/>
    </g>
    <g id="text_19">
     <!-- Median Rank -->
     <g transform="translate(497.681562 51.478125) scale(0.1 -0.1)">
      <defs>
       <path id="TimesNewRomanPSMT-64" d="M 2222 322 
Q 2013 103 1813 7 
Q 1613 -88 1381 -88 
Q 913 -88 563 304 
Q 213 697 213 1313 
Q 213 1928 600 2439 
Q 988 2950 1597 2950 
Q 1975 2950 2222 2709 
L 2222 3238 
Q 2222 3728 2198 3840 
Q 2175 3953 2125 3993 
Q 2075 4034 2000 4034 
Q 1919 4034 1784 3984 
L 1744 4094 
L 2597 4444 
L 2738 4444 
L 2738 1134 
Q 2738 631 2761 520 
Q 2784 409 2836 365 
Q 2888 322 2956 322 
Q 3041 322 3181 375 
L 3216 266 
L 2366 -88 
L 2222 -88 
L 2222 322 
z
M 2222 541 
L 2222 2016 
Q 2203 2228 2109 2403 
Q 2016 2578 1861 2667 
Q 1706 2756 1559 2756 
Q 1284 2756 1069 2509 
Q 784 2184 784 1559 
Q 784 928 1059 592 
Q 1334 256 1672 256 
Q 1956 256 2222 541 
z
" transform="scale(0.015625)"/>
      </defs>
      <use xlink:href="#TimesNewRomanPSMT-4d"/>
      <use xlink:href="#TimesNewRomanPSMT-65" transform="translate(88.916016 0)"/>
      <use xlink:href="#TimesNewRomanPSMT-64" transform="translate(133.300781 0)"/>
      <use xlink:href="#TimesNewRomanPSMT-69" transform="translate(183.300781 0)"/>
      <use xlink:href="#TimesNewRomanPSMT-61" transform="translate(211.083984 0)"/>
      <use xlink:href="#TimesNewRomanPSMT-6e" transform="translate(255.46875 0)"/>
      <use xlink:href="#TimesNewRomanPSMT-20" transform="translate(305.46875 0)"/>
      <use xlink:href="#TimesNewRomanPSMT-52" transform="translate(330.46875 0)"/>
      <use xlink:href="#TimesNewRomanPSMT-61" transform="translate(397.167969 0)"/>
      <use xlink:href="#TimesNewRomanPSMT-6e" transform="translate(441.552734 0)"/>
      <use xlink:href="#TimesNewRomanPSMT-6b" transform="translate(491.552734 0)"/>
     </g>
    </g>
   </g>
  </g>
 </g>
 <defs>
  <clipPath id="pfe230be16b">
   <rect x="46.599375" y="7.2" width="514.24" height="305.74375"/>
  </clipPath>
 </defs>
</svg>
