<?xml version="1.0" encoding="utf-8" standalone="no"?>
<!DOCTYPE svg PUBLIC "-//W3C//DTD SVG 1.1//EN"
  "http://www.w3.org/Graphics/SVG/1.1/DTD/svg11.dtd">
<svg xmlns:xlink="http://www.w3.org/1999/xlink" width="568.219375pt" height="351.639687pt" viewBox="0 0 568.219375 351.639687" xmlns="http://www.w3.org/2000/svg" version="1.1">
 <metadata>
  <rdf:RDF xmlns:dc="http://purl.org/dc/elements/1.1/" xmlns:cc="http://creativecommons.org/ns#" xmlns:rdf="http://www.w3.org/1999/02/22-rdf-syntax-ns#">
   <cc:Work>
    <dc:type rdf:resource="http://purl.org/dc/dcmitype/StillImage"/>
    <dc:date>2026-03-23T22:35:09.366768</dc:date>
    <dc:format>image/svg+xml</dc:format>
    <dc:creator>
     <cc:Agent>
      <dc:title>Matplotlib v3.10.8, https://matplotlib.org/</dc:title>
     </cc:Agent>
    </dc:creator>
   </cc:Work>
  </rdf:RDF>
 </metadata>
 <defs>
  <style type="text/css">*{stroke-linejoin: round; stroke-linecap: butt}</style>
 </defs>
 <g id="figure_1">
  <g id="patch_1">
   <path d="M 0 351.639687 
L 568.219375 351.639687 
L 568.219375 0 
L 0 0 
z
" style="fill: #ffffff"/>
  </g>
  <g id="axes_1">
   <g id="patch_2">
    <path d="M 46.599375 313.435 
L 561.019375 313.435 
L 561.019375 7.2 
L 46.599375 7.2 
z
" style="fill: #ffffff"/>
   </g>
   <g id="matplotlib.axis_1">
    <g id="xtick_1">
     <g id="line2d_1">
      <path d="M 69.982102 313.435 
L 69.982102 7.2 
" clip-path="url(#p5ce0413673)" style="fill: none; stroke-dasharray: 2.96,1.28; stroke-dashoffset: 0; stroke: #b0b0b0; stroke-opacity: 0.6; stroke-width: 0.8"/>
     </g>
     <g id="line2d_2">
      <defs>
       <path id="mfe71ee5d7a" d="M 0 0 
L 0 3.5 
" style="stroke: #000000; stroke-width: 0.8"/>
      </defs>
      <g>
       <use xlink:href="#mfe71ee5d7a" x="69.982102" y="313.435" style="stroke: #000000; stroke-width: 0.8"/>
      </g>
     </g>
     <g id="text_1">
      <!-- 0 -->
      <g transform="translate(67.482102 327.37875) scale(0.1 -0.1)">
       <defs>
        <path id="TimesNewRomanPSMT-30" d="M 231 2094 
Q 231 2819 450 3342 
Q 669 3866 1031 4122 
Q 1313 4325 1613 4325 
Q 2100 4325 2488 3828 
Q 2972 3213 2972 2159 
Q 2972 1422 2759 906 
Q 2547 391 2217 158 
Q 1888 -75 1581 -75 
Q 975 -75 572 641 
Q 231 1244 231 2094 
z
M 844 2016 
Q 844 1141 1059 588 
Q 1238 122 1591 122 
Q 1759 122 1940 273 
Q 2122 425 2216 781 
Q 2359 1319 2359 2297 
Q 2359 3022 2209 3506 
Q 2097 3866 1919 4016 
Q 1791 4119 1609 4119 
Q 1397 4119 1231 3928 
Q 1006 3669 925 3112 
Q 844 2556 844 2016 
z
" transform="scale(0.015625)"/>
       </defs>
       <use xlink:href="#TimesNewRomanPSMT-30"/>
      </g>
     </g>
    </g>
    <g id="xtick_2">
     <g id="line2d_3">
      <path d="M 137.8762 313.435 
L 137.8762 7.2 
" clip-path="url(#p5ce0413673)" style="fill: none; stroke-dasharray: 2.96,1.28; stroke-dashoffset: 0; stroke: #b0b0b0; stroke-opacity: 0.6; stroke-width: 0.8"/>
     </g>
     <g id="line2d_4">
      <g>
       <use xlink:href="#mfe71ee5d7a" x="137.8762" y="313.435" style="stroke: #000000; stroke-width: 0.8"/>
      </g>
     </g>
     <g id="text_2">
      <!-- 250 -->
      <g transform="translate(130.3762 327.37875) scale(0.1 -0.1)">
       <defs>
        <path id="TimesNewRomanPSMT-32" d="M 2934 816 
L 2638 0 
L 138 0 
L 138 116 
Q 1241 1122 1691 1759 
Q 2141 2397 2141 2925 
Q 2141 3328 1894 3587 
Q 1647 3847 1303 3847 
Q 991 3847 742 3664 
Q 494 3481 375 3128 
L 259 3128 
Q 338 3706 661 4015 
Q 984 4325 1469 4325 
Q 1984 4325 2329 3994 
Q 2675 3663 2675 3213 
Q 2675 2891 2525 2569 
Q 2294 2063 1775 1497 
Q 997 647 803 472 
L 1909 472 
Q 2247 472 2383 497 
Q 2519 522 2628 598 
Q 2738 675 2819 816 
L 2934 816 
z
" transform="scale(0.015625)"/>
        <path id="TimesNewRomanPSMT-35" d="M 2778 4238 
L 2534 3706 
L 1259 3706 
L 981 3138 
Q 1809 3016 2294 2522 
Q 2709 2097 2709 1522 
Q 2709 1188 2573 903 
Q 2438 619 2231 419 
Q 2025 219 1772 97 
Q 1413 -75 1034 -75 
Q 653 -75 479 54 
Q 306 184 306 341 
Q 306 428 378 495 
Q 450 563 559 563 
Q 641 563 702 538 
Q 763 513 909 409 
Q 1144 247 1384 247 
Q 1750 247 2026 523 
Q 2303 800 2303 1197 
Q 2303 1581 2056 1914 
Q 1809 2247 1375 2428 
Q 1034 2569 447 2591 
L 1259 4238 
L 2778 4238 
z
" transform="scale(0.015625)"/>
       </defs>
       <use xlink:href="#TimesNewRomanPSMT-32"/>
       <use xlink:href="#TimesNewRomanPSMT-35" transform="translate(50 0)"/>
       <use xlink:href="#TimesNewRomanPSMT-30" transform="translate(100 0)"/>
      </g>
     </g>
    </g>
    <g id="xtick_3">
     <g id="line2d_5">
      <path d="M 205.770298 313.435 
L 205.770298 7.2 
" clip-path="url(#p5ce0413673)" style="fill: none; stroke-dasharray: 2.96,1.28; stroke-dashoffset: 0; stroke: #b0b0b0; stroke-opacity: 0.6; stroke-width: 0.8"/>
     </g>
     <g id="line2d_6">
      <g>
       <use xlink:href="#mfe71ee5d7a" x="205.770298" y="313.435" style="stroke: #000000; stroke-width: 0.8"/>
      </g>
     </g>
     <g id="text_3">
      <!-- 500 -->
      <g transform="translate(198.270298 327.37875) scale(0.1 -0.1)">
       <use xlink:href="#TimesNewRomanPSMT-35"/>
       <use xlink:href="#TimesNewRomanPSMT-30" transform="translate(50 0)"/>
       <use xlink:href="#TimesNewRomanPSMT-30" transform="translate(100 0)"/>
      </g>
     </g>
    </g>
    <g id="xtick_4">
     <g id="line2d_7">
      <path d="M 273.664396 313.435 
L 273.664396 7.2 
" clip-path="url(#p5ce0413673)" style="fill: none; stroke-dasharray: 2.96,1.28; stroke-dashoffset: 0; stroke: #b0b0b0; stroke-opacity: 0.6; stroke-width: 0.8"/>
     </g>
     <g id="line2d_8">
      <g>
       <use xlink:href="#mfe71ee5d7a" x="273.664396" y="313.435" style="stroke: #000000; stroke-width: 0.8"/>
      </g>
     </g>
     <g id="text_4">
      <!-- 750 -->
      <g transform="translate(266.164396 327.37875) scale(0.1 -0.1)">
       <defs>
        <path id="TimesNewRomanPSMT-37" d="M 644 4238 
L 2916 4238 
L 2916 4119 
L 1503 -88 
L 1153 -88 
L 2419 3728 
L 1253 3728 
Q 900 3728 750 3644 
Q 488 3500 328 3200 
L 238 3234 
L 644 4238 
z
" transform="scale(0.015625)"/>
       </defs>
       <use xlink:href="#TimesNewRomanPSMT-37"/>
       <use xlink:href="#TimesNewRomanPSMT-35" transform="translate(50 0)"/>
       <use xlink:href="#TimesNewRomanPSMT-30" transform="translate(100 0)"/>
      </g>
     </g>
    </g>
    <g id="xtick_5">
     <g id="line2d_9">
      <path d="M 341.558493 313.435 
L 341.558493 7.2 
" clip-path="url(#p5ce0413673)" style="fill: none; stroke-dasharray: 2.96,1.28; stroke-dashoffset: 0; stroke: #b0b0b0; stroke-opacity: 0.6; stroke-width: 0.8"/>
     </g>
     <g id="line2d_10">
      <g>
       <use xlink:href="#mfe71ee5d7a" x="341.558493" y="313.435" style="stroke: #000000; stroke-width: 0.8"/>
      </g>
     </g>
     <g id="text_5">
      <!-- 1000 -->
      <g transform="translate(331.558493 327.37875) scale(0.1 -0.1)">
       <defs>
        <path id="TimesNewRomanPSMT-31" d="M 750 3822 
L 1781 4325 
L 1884 4325 
L 1884 747 
Q 1884 391 1914 303 
Q 1944 216 2037 169 
Q 2131 122 2419 116 
L 2419 0 
L 825 0 
L 825 116 
Q 1125 122 1212 167 
Q 1300 213 1334 289 
Q 1369 366 1369 747 
L 1369 3034 
Q 1369 3497 1338 3628 
Q 1316 3728 1258 3775 
Q 1200 3822 1119 3822 
Q 1003 3822 797 3725 
L 750 3822 
z
" transform="scale(0.015625)"/>
       </defs>
       <use xlink:href="#TimesNewRomanPSMT-31"/>
       <use xlink:href="#TimesNewRomanPSMT-30" transform="translate(50 0)"/>
       <use xlink:href="#TimesNewRomanPSMT-30" transform="translate(100 0)"/>
       <use xlink:href="#TimesNewRomanPSMT-30" transform="translate(150 0)"/>
      </g>
     </g>
    </g>
    <g id="xtick_6">
     <g id="line2d_11">
      <path d="M 409.452591 313.435 
L 409.452591 7.2 
" clip-path="url(#p5ce0413673)" style="fill: none; stroke-dasharray: 2.96,1.28; stroke-dashoffset: 0; stroke: #b0b0b0; stroke-opacity: 0.6; stroke-width: 0.8"/>
     </g>
     <g id="line2d_12">
      <g>
       <use xlink:href="#mfe71ee5d7a" x="409.452591" y="313.435" style="stroke: #000000; stroke-width: 0.8"/>
      </g>
     </g>
     <g id="text_6">
      <!-- 1250 -->
      <g transform="translate(399.452591 327.37875) scale(0.1 -0.1)">
       <use xlink:href="#TimesNewRomanPSMT-31"/>
       <use xlink:href="#TimesNewRomanPSMT-32" transform="translate(50 0)"/>
       <use xlink:href="#TimesNewRomanPSMT-35" transform="translate(100 0)"/>
       <use xlink:href="#TimesNewRomanPSMT-30" transform="translate(150 0)"/>
      </g>
     </g>
    </g>
    <g id="xtick_7">
     <g id="line2d_13">
      <path d="M 477.346689 313.435 
L 477.346689 7.2 
" clip-path="url(#p5ce0413673)" style="fill: none; stroke-dasharray: 2.96,1.28; stroke-dashoffset: 0; stroke: #b0b0b0; stroke-opacity: 0.6; stroke-width: 0.8"/>
     </g>
     <g id="line2d_14">
      <g>
       <use xlink:href="#mfe71ee5d7a" x="477.346689" y="313.435" style="stroke: #000000; stroke-width: 0.8"/>
      </g>
     </g>
     <g id="text_7">
      <!-- 1500 -->
      <g transform="translate(467.346689 327.37875) scale(0.1 -0.1)">
       <use xlink:href="#TimesNewRomanPSMT-31"/>
       <use xlink:href="#TimesNewRomanPSMT-35" transform="translate(50 0)"/>
       <use xlink:href="#TimesNewRomanPSMT-30" transform="translate(100 0)"/>
       <use xlink:href="#TimesNewRomanPSMT-30" transform="translate(150 0)"/>
      </g>
     </g>
    </g>
    <g id="xtick_8">
     <g id="line2d_15">
      <path d="M 545.240787 313.435 
L 545.240787 7.2 
" clip-path="url(#p5ce0413673)" style="fill: none; stroke-dasharray: 2.96,1.28; stroke-dashoffset: 0; stroke: #b0b0b0; stroke-opacity: 0.6; stroke-width: 0.8"/>
     </g>
     <g id="line2d_16">
      <g>
       <use xlink:href="#mfe71ee5d7a" x="545.240787" y="313.435" style="stroke: #000000; stroke-width: 0.8"/>
      </g>
     </g>
     <g id="text_8">
      <!-- 1750 -->
      <g transform="translate(535.240787 327.37875) scale(0.1 -0.1)">
       <use xlink:href="#TimesNewRomanPSMT-31"/>
       <use xlink:href="#TimesNewRomanPSMT-37" transform="translate(50 0)"/>
       <use xlink:href="#TimesNewRomanPSMT-35" transform="translate(100 0)"/>
       <use xlink:href="#TimesNewRomanPSMT-30" transform="translate(150 0)"/>
      </g>
     </g>
    </g>
    <g id="text_9">
     <!-- Failure Time (Days) -->
     <g transform="translate(255.14 341.850312) scale(0.12 -0.12)">
      <defs>
       <path id="TimesNewRomanPSMT-46" d="M 1309 4006 
L 1309 2341 
L 2081 2341 
Q 2347 2341 2470 2458 
Q 2594 2575 2634 2922 
L 2750 2922 
L 2750 1488 
L 2634 1488 
Q 2631 1734 2570 1850 
Q 2509 1966 2401 2023 
Q 2294 2081 2081 2081 
L 1309 2081 
L 1309 750 
Q 1309 428 1350 325 
Q 1381 247 1481 191 
Q 1619 116 1769 116 
L 1922 116 
L 1922 0 
L 103 0 
L 103 116 
L 253 116 
Q 516 116 634 269 
Q 709 369 709 750 
L 709 3488 
Q 709 3809 669 3913 
Q 638 3991 541 4047 
Q 406 4122 253 4122 
L 103 4122 
L 103 4238 
L 3256 4238 
L 3297 3306 
L 3188 3306 
Q 3106 3603 2998 3742 
Q 2891 3881 2733 3943 
Q 2575 4006 2244 4006 
L 1309 4006 
z
" transform="scale(0.015625)"/>
       <path id="TimesNewRomanPSMT-61" d="M 1822 413 
Q 1381 72 1269 19 
Q 1100 -59 909 -59 
Q 613 -59 420 144 
Q 228 347 228 678 
Q 228 888 322 1041 
Q 450 1253 767 1440 
Q 1084 1628 1822 1897 
L 1822 2009 
Q 1822 2438 1686 2597 
Q 1550 2756 1291 2756 
Q 1094 2756 978 2650 
Q 859 2544 859 2406 
L 866 2225 
Q 866 2081 792 2003 
Q 719 1925 600 1925 
Q 484 1925 411 2006 
Q 338 2088 338 2228 
Q 338 2497 613 2722 
Q 888 2947 1384 2947 
Q 1766 2947 2009 2819 
Q 2194 2722 2281 2516 
Q 2338 2381 2338 1966 
L 2338 994 
Q 2338 584 2353 492 
Q 2369 400 2405 369 
Q 2441 338 2488 338 
Q 2538 338 2575 359 
Q 2641 400 2828 588 
L 2828 413 
Q 2478 -56 2159 -56 
Q 2006 -56 1915 50 
Q 1825 156 1822 413 
z
M 1822 616 
L 1822 1706 
Q 1350 1519 1213 1441 
Q 966 1303 859 1153 
Q 753 1003 753 825 
Q 753 600 887 451 
Q 1022 303 1197 303 
Q 1434 303 1822 616 
z
" transform="scale(0.015625)"/>
       <path id="TimesNewRomanPSMT-69" d="M 928 4444 
Q 1059 4444 1151 4351 
Q 1244 4259 1244 4128 
Q 1244 3997 1151 3903 
Q 1059 3809 928 3809 
Q 797 3809 703 3903 
Q 609 3997 609 4128 
Q 609 4259 701 4351 
Q 794 4444 928 4444 
z
M 1188 2947 
L 1188 647 
Q 1188 378 1227 289 
Q 1266 200 1342 156 
Q 1419 113 1622 113 
L 1622 0 
L 231 0 
L 231 113 
Q 441 113 512 153 
Q 584 194 626 287 
Q 669 381 669 647 
L 669 1750 
Q 669 2216 641 2353 
Q 619 2453 572 2492 
Q 525 2531 444 2531 
Q 356 2531 231 2484 
L 188 2597 
L 1050 2947 
L 1188 2947 
z
" transform="scale(0.015625)"/>
       <path id="TimesNewRomanPSMT-6c" d="M 1184 4444 
L 1184 647 
Q 1184 378 1223 290 
Q 1263 203 1344 158 
Q 1425 113 1647 113 
L 1647 0 
L 244 0 
L 244 113 
Q 441 113 512 153 
Q 584 194 625 287 
Q 666 381 666 647 
L 666 3247 
Q 666 3731 644 3842 
Q 622 3953 573 3993 
Q 525 4034 450 4034 
Q 369 4034 244 3984 
L 191 4094 
L 1044 4444 
L 1184 4444 
z
" transform="scale(0.015625)"/>
       <path id="TimesNewRomanPSMT-75" d="M 2709 2863 
L 2709 1128 
Q 2709 631 2732 520 
Q 2756 409 2807 365 
Q 2859 322 2928 322 
Q 3025 322 3147 375 
L 3191 266 
L 2334 -88 
L 2194 -88 
L 2194 519 
Q 1825 119 1631 15 
Q 1438 -88 1222 -88 
Q 981 -88 804 51 
Q 628 191 559 409 
Q 491 628 491 1028 
L 491 2306 
Q 491 2509 447 2587 
Q 403 2666 317 2708 
Q 231 2750 6 2747 
L 6 2863 
L 1009 2863 
L 1009 947 
Q 1009 547 1148 422 
Q 1288 297 1484 297 
Q 1619 297 1789 381 
Q 1959 466 2194 703 
L 2194 2325 
Q 2194 2569 2105 2655 
Q 2016 2741 1734 2747 
L 1734 2863 
L 2709 2863 
z
" transform="scale(0.015625)"/>
       <path id="TimesNewRomanPSMT-72" d="M 1038 2947 
L 1038 2303 
Q 1397 2947 1775 2947 
Q 1947 2947 2059 2842 
Q 2172 2738 2172 2600 
Q 2172 2478 2090 2393 
Q 2009 2309 1897 2309 
Q 1788 2309 1652 2417 
Q 1516 2525 1450 2525 
Q 1394 2525 1328 2463 
Q 1188 2334 1038 2041 
L 1038 669 
Q 1038 431 1097 309 
Q 1138 225 1241 169 
Q 1344 113 1538 113 
L 1538 0 
L 72 0 
L 72 113 
Q 291 113 397 181 
Q 475 231 506 341 
Q 522 394 522 644 
L 522 1753 
Q 522 2253 501 2348 
Q 481 2444 426 2487 
Q 372 2531 291 2531 
Q 194 2531 72 2484 
L 41 2597 
L 906 2947 
L 1038 2947 
z
" transform="scale(0.015625)"/>
       <path id="TimesNewRomanPSMT-65" d="M 681 1784 
Q 678 1147 991 784 
Q 1303 422 1725 422 
Q 2006 422 2214 576 
Q 2422 731 2563 1106 
L 2659 1044 
Q 2594 616 2278 264 
Q 1963 -88 1488 -88 
Q 972 -88 605 314 
Q 238 716 238 1394 
Q 238 2128 614 2539 
Q 991 2950 1559 2950 
Q 2041 2950 2350 2633 
Q 2659 2316 2659 1784 
L 681 1784 
z
M 681 1966 
L 2006 1966 
Q 1991 2241 1941 2353 
Q 1863 2528 1708 2628 
Q 1553 2728 1384 2728 
Q 1125 2728 920 2526 
Q 716 2325 681 1966 
z
" transform="scale(0.015625)"/>
       <path id="TimesNewRomanPSMT-20" transform="scale(0.015625)"/>
       <path id="TimesNewRomanPSMT-54" d="M 3703 4238 
L 3750 3244 
L 3631 3244 
Q 3597 3506 3538 3619 
Q 3441 3800 3280 3886 
Q 3119 3972 2856 3972 
L 2259 3972 
L 2259 734 
Q 2259 344 2344 247 
Q 2463 116 2709 116 
L 2856 116 
L 2856 0 
L 1059 0 
L 1059 116 
L 1209 116 
Q 1478 116 1591 278 
Q 1659 378 1659 734 
L 1659 3972 
L 1150 3972 
Q 853 3972 728 3928 
Q 566 3869 450 3700 
Q 334 3531 313 3244 
L 194 3244 
L 244 4238 
L 3703 4238 
z
" transform="scale(0.015625)"/>
       <path id="TimesNewRomanPSMT-6d" d="M 1050 2338 
Q 1363 2650 1419 2697 
Q 1559 2816 1721 2881 
Q 1884 2947 2044 2947 
Q 2313 2947 2506 2790 
Q 2700 2634 2766 2338 
Q 3088 2713 3309 2830 
Q 3531 2947 3766 2947 
Q 3994 2947 4170 2830 
Q 4347 2713 4450 2447 
Q 4519 2266 4519 1878 
L 4519 647 
Q 4519 378 4559 278 
Q 4591 209 4675 161 
Q 4759 113 4950 113 
L 4950 0 
L 3538 0 
L 3538 113 
L 3597 113 
Q 3781 113 3884 184 
Q 3956 234 3988 344 
Q 4000 397 4000 647 
L 4000 1878 
Q 4000 2228 3916 2372 
Q 3794 2572 3525 2572 
Q 3359 2572 3192 2489 
Q 3025 2406 2788 2181 
L 2781 2147 
L 2788 2013 
L 2788 647 
Q 2788 353 2820 281 
Q 2853 209 2943 161 
Q 3034 113 3253 113 
L 3253 0 
L 1806 0 
L 1806 113 
Q 2044 113 2133 169 
Q 2222 225 2256 338 
Q 2272 391 2272 647 
L 2272 1878 
Q 2272 2228 2169 2381 
Q 2031 2581 1784 2581 
Q 1616 2581 1450 2491 
Q 1191 2353 1050 2181 
L 1050 647 
Q 1050 366 1089 281 
Q 1128 197 1204 155 
Q 1281 113 1516 113 
L 1516 0 
L 100 0 
L 100 113 
Q 297 113 375 155 
Q 453 197 493 289 
Q 534 381 534 647 
L 534 1741 
Q 534 2213 506 2350 
Q 484 2453 437 2492 
Q 391 2531 309 2531 
Q 222 2531 100 2484 
L 53 2597 
L 916 2947 
L 1050 2947 
L 1050 2338 
z
" transform="scale(0.015625)"/>
       <path id="TimesNewRomanPSMT-28" d="M 1988 -1253 
L 1988 -1369 
Q 1516 -1131 1200 -813 
Q 750 -359 506 256 
Q 263 872 263 1534 
Q 263 2503 741 3301 
Q 1219 4100 1988 4444 
L 1988 4313 
Q 1603 4100 1356 3731 
Q 1109 3363 987 2797 
Q 866 2231 866 1616 
Q 866 947 969 400 
Q 1050 -31 1165 -292 
Q 1281 -553 1476 -793 
Q 1672 -1034 1988 -1253 
z
" transform="scale(0.015625)"/>
       <path id="TimesNewRomanPSMT-44" d="M 109 0 
L 109 116 
L 269 116 
Q 538 116 650 288 
Q 719 391 719 750 
L 719 3488 
Q 719 3884 631 3984 
Q 509 4122 269 4122 
L 109 4122 
L 109 4238 
L 1834 4238 
Q 2784 4238 3279 4022 
Q 3775 3806 4076 3303 
Q 4378 2800 4378 2141 
Q 4378 1256 3841 663 
Q 3238 0 2003 0 
L 109 0 
z
M 1319 306 
Q 1716 219 1984 219 
Q 2709 219 3187 728 
Q 3666 1238 3666 2109 
Q 3666 2988 3187 3494 
Q 2709 4000 1959 4000 
Q 1678 4000 1319 3909 
L 1319 306 
z
" transform="scale(0.015625)"/>
       <path id="TimesNewRomanPSMT-79" d="M 38 2863 
L 1372 2863 
L 1372 2747 
L 1306 2747 
Q 1166 2747 1095 2686 
Q 1025 2625 1025 2534 
Q 1025 2413 1128 2197 
L 1825 753 
L 2466 2334 
Q 2519 2463 2519 2588 
Q 2519 2644 2497 2672 
Q 2472 2706 2419 2726 
Q 2366 2747 2231 2747 
L 2231 2863 
L 3163 2863 
L 3163 2747 
Q 3047 2734 2984 2696 
Q 2922 2659 2847 2556 
Q 2819 2513 2741 2316 
L 1575 -541 
Q 1406 -956 1132 -1168 
Q 859 -1381 606 -1381 
Q 422 -1381 303 -1275 
Q 184 -1169 184 -1031 
Q 184 -900 270 -820 
Q 356 -741 506 -741 
Q 609 -741 788 -809 
Q 913 -856 944 -856 
Q 1038 -856 1148 -759 
Q 1259 -663 1372 -384 
L 1575 113 
L 547 2272 
Q 500 2369 397 2513 
Q 319 2622 269 2659 
Q 197 2709 38 2747 
L 38 2863 
z
" transform="scale(0.015625)"/>
       <path id="TimesNewRomanPSMT-73" d="M 2050 2947 
L 2050 1972 
L 1947 1972 
Q 1828 2431 1642 2597 
Q 1456 2763 1169 2763 
Q 950 2763 815 2647 
Q 681 2531 681 2391 
Q 681 2216 781 2091 
Q 878 1963 1175 1819 
L 1631 1597 
Q 2266 1288 2266 781 
Q 2266 391 1970 151 
Q 1675 -88 1309 -88 
Q 1047 -88 709 6 
Q 606 38 541 38 
Q 469 38 428 -44 
L 325 -44 
L 325 978 
L 428 978 
Q 516 541 762 319 
Q 1009 97 1316 97 
Q 1531 97 1667 223 
Q 1803 350 1803 528 
Q 1803 744 1651 891 
Q 1500 1038 1047 1263 
Q 594 1488 453 1669 
Q 313 1847 313 2119 
Q 313 2472 555 2709 
Q 797 2947 1181 2947 
Q 1350 2947 1591 2875 
Q 1750 2828 1803 2828 
Q 1853 2828 1881 2850 
Q 1909 2872 1947 2947 
L 2050 2947 
z
" transform="scale(0.015625)"/>
       <path id="TimesNewRomanPSMT-29" d="M 144 4313 
L 144 4444 
Q 619 4209 934 3891 
Q 1381 3434 1625 2820 
Q 1869 2206 1869 1541 
Q 1869 572 1392 -226 
Q 916 -1025 144 -1369 
L 144 -1253 
Q 528 -1038 776 -670 
Q 1025 -303 1145 264 
Q 1266 831 1266 1447 
Q 1266 2113 1163 2663 
Q 1084 3094 967 3353 
Q 850 3613 656 3853 
Q 463 4094 144 4313 
z
" transform="scale(0.015625)"/>
      </defs>
      <use xlink:href="#TimesNewRomanPSMT-46"/>
      <use xlink:href="#TimesNewRomanPSMT-61" transform="translate(55.615234 0)"/>
      <use xlink:href="#TimesNewRomanPSMT-69" transform="translate(100 0)"/>
      <use xlink:href="#TimesNewRomanPSMT-6c" transform="translate(127.783203 0)"/>
      <use xlink:href="#TimesNewRomanPSMT-75" transform="translate(155.566406 0)"/>
      <use xlink:href="#TimesNewRomanPSMT-72" transform="translate(205.566406 0)"/>
      <use xlink:href="#TimesNewRomanPSMT-65" transform="translate(238.867188 0)"/>
      <use xlink:href="#TimesNewRomanPSMT-20" transform="translate(283.251953 0)"/>
      <use xlink:href="#TimesNewRomanPSMT-54" transform="translate(306.501953 0)"/>
      <use xlink:href="#TimesNewRomanPSMT-69" transform="translate(364.085938 0)"/>
      <use xlink:href="#TimesNewRomanPSMT-6d" transform="translate(391.869141 0)"/>
      <use xlink:href="#TimesNewRomanPSMT-65" transform="translate(469.652344 0)"/>
      <use xlink:href="#TimesNewRomanPSMT-20" transform="translate(514.037109 0)"/>
      <use xlink:href="#TimesNewRomanPSMT-28" transform="translate(539.037109 0)"/>
      <use xlink:href="#TimesNewRomanPSMT-44" transform="translate(572.337891 0)"/>
      <use xlink:href="#TimesNewRomanPSMT-61" transform="translate(644.554688 0)"/>
      <use xlink:href="#TimesNewRomanPSMT-79" transform="translate(688.939453 0)"/>
      <use xlink:href="#TimesNewRomanPSMT-73" transform="translate(738.939453 0)"/>
      <use xlink:href="#TimesNewRomanPSMT-29" transform="translate(777.855469 0)"/>
     </g>
    </g>
   </g>
   <g id="matplotlib.axis_2">
    <g id="ytick_1">
     <g id="line2d_17">
      <path d="M 46.599375 299.515227 
L 561.019375 299.515227 
" clip-path="url(#p5ce0413673)" style="fill: none; stroke-dasharray: 2.96,1.28; stroke-dashoffset: 0; stroke: #b0b0b0; stroke-opacity: 0.6; stroke-width: 0.8"/>
     </g>
     <g id="line2d_18">
      <defs>
       <path id="ma799a8d32b" d="M 0 0 
L -3.5 0 
" style="stroke: #000000; stroke-width: 0.8"/>
      </defs>
      <g>
       <use xlink:href="#ma799a8d32b" x="46.599375" y="299.515227" style="stroke: #000000; stroke-width: 0.8"/>
      </g>
     </g>
     <g id="text_10">
      <!-- 0.00 -->
      <g transform="translate(22.099375 302.987102) scale(0.1 -0.1)">
       <defs>
        <path id="TimesNewRomanPSMT-2e" d="M 800 606 
Q 947 606 1047 504 
Q 1147 403 1147 259 
Q 1147 116 1045 14 
Q 944 -88 800 -88 
Q 656 -88 554 14 
Q 453 116 453 259 
Q 453 406 554 506 
Q 656 606 800 606 
z
" transform="scale(0.015625)"/>
       </defs>
       <use xlink:href="#TimesNewRomanPSMT-30"/>
       <use xlink:href="#TimesNewRomanPSMT-2e" transform="translate(50 0)"/>
       <use xlink:href="#TimesNewRomanPSMT-30" transform="translate(75 0)"/>
       <use xlink:href="#TimesNewRomanPSMT-30" transform="translate(125 0)"/>
      </g>
     </g>
    </g>
    <g id="ytick_2">
     <g id="line2d_19">
      <path d="M 46.599375 243.836136 
L 561.019375 243.836136 
" clip-path="url(#p5ce0413673)" style="fill: none; stroke-dasharray: 2.96,1.28; stroke-dashoffset: 0; stroke: #b0b0b0; stroke-opacity: 0.6; stroke-width: 0.8"/>
     </g>
     <g id="line2d_20">
      <g>
       <use xlink:href="#ma799a8d32b" x="46.599375" y="243.836136" style="stroke: #000000; stroke-width: 0.8"/>
      </g>
     </g>
     <g id="text_11">
      <!-- 0.05 -->
      <g transform="translate(22.099375 247.308011) scale(0.1 -0.1)">
       <use xlink:href="#TimesNewRomanPSMT-30"/>
       <use xlink:href="#TimesNewRomanPSMT-2e" transform="translate(50 0)"/>
       <use xlink:href="#TimesNewRomanPSMT-30" transform="translate(75 0)"/>
       <use xlink:href="#TimesNewRomanPSMT-35" transform="translate(125 0)"/>
      </g>
     </g>
    </g>
    <g id="ytick_3">
     <g id="line2d_21">
      <path d="M 46.599375 188.157045 
L 561.019375 188.157045 
" clip-path="url(#p5ce0413673)" style="fill: none; stroke-dasharray: 2.96,1.28; stroke-dashoffset: 0; stroke: #b0b0b0; stroke-opacity: 0.6; stroke-width: 0.8"/>
     </g>
     <g id="line2d_22">
      <g>
       <use xlink:href="#ma799a8d32b" x="46.599375" y="188.157045" style="stroke: #000000; stroke-width: 0.8"/>
      </g>
     </g>
     <g id="text_12">
      <!-- 0.10 -->
      <g transform="translate(22.099375 191.62892) scale(0.1 -0.1)">
       <use xlink:href="#TimesNewRomanPSMT-30"/>
       <use xlink:href="#TimesNewRomanPSMT-2e" transform="translate(50 0)"/>
       <use xlink:href="#TimesNewRomanPSMT-31" transform="translate(75 0)"/>
       <use xlink:href="#TimesNewRomanPSMT-30" transform="translate(125 0)"/>
      </g>
     </g>
    </g>
    <g id="ytick_4">
     <g id="line2d_23">
      <path d="M 46.599375 132.477955 
L 561.019375 132.477955 
" clip-path="url(#p5ce0413673)" style="fill: none; stroke-dasharray: 2.96,1.28; stroke-dashoffset: 0; stroke: #b0b0b0; stroke-opacity: 0.6; stroke-width: 0.8"/>
     </g>
     <g id="line2d_24">
      <g>
       <use xlink:href="#ma799a8d32b" x="46.599375" y="132.477955" style="stroke: #000000; stroke-width: 0.8"/>
      </g>
     </g>
     <g id="text_13">
      <!-- 0.15 -->
      <g transform="translate(22.099375 135.94983) scale(0.1 -0.1)">
       <use xlink:href="#TimesNewRomanPSMT-30"/>
       <use xlink:href="#TimesNewRomanPSMT-2e" transform="translate(50 0)"/>
       <use xlink:href="#TimesNewRomanPSMT-31" transform="translate(75 0)"/>
       <use xlink:href="#TimesNewRomanPSMT-35" transform="translate(125 0)"/>
      </g>
     </g>
    </g>
    <g id="ytick_5">
     <g id="line2d_25">
      <path d="M 46.599375 76.798864 
L 561.019375 76.798864 
" clip-path="url(#p5ce0413673)" style="fill: none; stroke-dasharray: 2.96,1.28; stroke-dashoffset: 0; stroke: #b0b0b0; stroke-opacity: 0.6; stroke-width: 0.8"/>
     </g>
     <g id="line2d_26">
      <g>
       <use xlink:href="#ma799a8d32b" x="46.599375" y="76.798864" style="stroke: #000000; stroke-width: 0.8"/>
      </g>
     </g>
     <g id="text_14">
      <!-- 0.20 -->
      <g transform="translate(22.099375 80.270739) scale(0.1 -0.1)">
       <use xlink:href="#TimesNewRomanPSMT-30"/>
       <use xlink:href="#TimesNewRomanPSMT-2e" transform="translate(50 0)"/>
       <use xlink:href="#TimesNewRomanPSMT-32" transform="translate(75 0)"/>
       <use xlink:href="#TimesNewRomanPSMT-30" transform="translate(125 0)"/>
      </g>
     </g>
    </g>
    <g id="ytick_6">
     <g id="line2d_27">
      <path d="M 46.599375 21.119773 
L 561.019375 21.119773 
" clip-path="url(#p5ce0413673)" style="fill: none; stroke-dasharray: 2.96,1.28; stroke-dashoffset: 0; stroke: #b0b0b0; stroke-opacity: 0.6; stroke-width: 0.8"/>
     </g>
     <g id="line2d_28">
      <g>
       <use xlink:href="#ma799a8d32b" x="46.599375" y="21.119773" style="stroke: #000000; stroke-width: 0.8"/>
      </g>
     </g>
     <g id="text_15">
      <!-- 0.25 -->
      <g transform="translate(22.099375 24.591648) scale(0.1 -0.1)">
       <use xlink:href="#TimesNewRomanPSMT-30"/>
       <use xlink:href="#TimesNewRomanPSMT-2e" transform="translate(50 0)"/>
       <use xlink:href="#TimesNewRomanPSMT-32" transform="translate(75 0)"/>
       <use xlink:href="#TimesNewRomanPSMT-35" transform="translate(125 0)"/>
      </g>
     </g>
    </g>
    <g id="text_16">
     <!-- Failure Rate h(t) -->
     <g transform="translate(15.5325 199.970937) rotate(-90) scale(0.12 -0.12)">
      <defs>
       <path id="TimesNewRomanPSMT-52" d="M 4325 0 
L 3194 0 
L 1759 1981 
Q 1600 1975 1500 1975 
Q 1459 1975 1412 1976 
Q 1366 1978 1316 1981 
L 1316 750 
Q 1316 350 1403 253 
Q 1522 116 1759 116 
L 1925 116 
L 1925 0 
L 109 0 
L 109 116 
L 269 116 
Q 538 116 653 291 
Q 719 388 719 750 
L 719 3488 
Q 719 3888 631 3984 
Q 509 4122 269 4122 
L 109 4122 
L 109 4238 
L 1653 4238 
Q 2328 4238 2648 4139 
Q 2969 4041 3192 3777 
Q 3416 3513 3416 3147 
Q 3416 2756 3161 2468 
Q 2906 2181 2372 2063 
L 3247 847 
Q 3547 428 3762 290 
Q 3978 153 4325 116 
L 4325 0 
z
M 1316 2178 
Q 1375 2178 1419 2176 
Q 1463 2175 1491 2175 
Q 2097 2175 2405 2437 
Q 2713 2700 2713 3106 
Q 2713 3503 2464 3751 
Q 2216 4000 1806 4000 
Q 1625 4000 1316 3941 
L 1316 2178 
z
" transform="scale(0.015625)"/>
       <path id="TimesNewRomanPSMT-74" d="M 1031 3803 
L 1031 2863 
L 1700 2863 
L 1700 2644 
L 1031 2644 
L 1031 788 
Q 1031 509 1111 412 
Q 1191 316 1316 316 
Q 1419 316 1516 380 
Q 1613 444 1666 569 
L 1788 569 
Q 1678 263 1478 108 
Q 1278 -47 1066 -47 
Q 922 -47 784 33 
Q 647 113 581 261 
Q 516 409 516 719 
L 516 2644 
L 63 2644 
L 63 2747 
Q 234 2816 414 2980 
Q 594 3144 734 3369 
Q 806 3488 934 3803 
L 1031 3803 
z
" transform="scale(0.015625)"/>
       <path id="TimesNewRomanPSMT-68" d="M 1041 4444 
L 1041 2350 
Q 1388 2731 1591 2839 
Q 1794 2947 1997 2947 
Q 2241 2947 2416 2812 
Q 2591 2678 2675 2391 
Q 2734 2191 2734 1659 
L 2734 647 
Q 2734 375 2778 275 
Q 2809 200 2884 156 
Q 2959 113 3159 113 
L 3159 0 
L 1753 0 
L 1753 113 
L 1819 113 
Q 2019 113 2097 173 
Q 2175 234 2206 353 
Q 2216 403 2216 647 
L 2216 1659 
Q 2216 2128 2167 2275 
Q 2119 2422 2012 2495 
Q 1906 2569 1756 2569 
Q 1603 2569 1437 2487 
Q 1272 2406 1041 2159 
L 1041 647 
Q 1041 353 1073 281 
Q 1106 209 1195 161 
Q 1284 113 1503 113 
L 1503 0 
L 84 0 
L 84 113 
Q 275 113 384 172 
Q 447 203 484 290 
Q 522 378 522 647 
L 522 3238 
Q 522 3728 498 3840 
Q 475 3953 426 3993 
Q 378 4034 297 4034 
Q 231 4034 84 3984 
L 41 4094 
L 897 4444 
L 1041 4444 
z
" transform="scale(0.015625)"/>
      </defs>
      <use xlink:href="#TimesNewRomanPSMT-46"/>
      <use xlink:href="#TimesNewRomanPSMT-61" transform="translate(55.615234 0)"/>
      <use xlink:href="#TimesNewRomanPSMT-69" transform="translate(100 0)"/>
      <use xlink:href="#TimesNewRomanPSMT-6c" transform="translate(127.783203 0)"/>
      <use xlink:href="#TimesNewRomanPSMT-75" transform="translate(155.566406 0)"/>
      <use xlink:href="#TimesNewRomanPSMT-72" transform="translate(205.566406 0)"/>
      <use xlink:href="#TimesNewRomanPSMT-65" transform="translate(238.867188 0)"/>
      <use xlink:href="#TimesNewRomanPSMT-20" transform="translate(283.251953 0)"/>
      <use xlink:href="#TimesNewRomanPSMT-52" transform="translate(308.251953 0)"/>
      <use xlink:href="#TimesNewRomanPSMT-61" transform="translate(374.951172 0)"/>
      <use xlink:href="#TimesNewRomanPSMT-74" transform="translate(419.335938 0)"/>
      <use xlink:href="#TimesNewRomanPSMT-65" transform="translate(447.119141 0)"/>
      <use xlink:href="#TimesNewRomanPSMT-20" transform="translate(491.503906 0)"/>
      <use xlink:href="#TimesNewRomanPSMT-68" transform="translate(516.503906 0)"/>
      <use xlink:href="#TimesNewRomanPSMT-28" transform="translate(566.503906 0)"/>
      <use xlink:href="#TimesNewRomanPSMT-74" transform="translate(599.804688 0)"/>
      <use xlink:href="#TimesNewRomanPSMT-29" transform="translate(627.587891 0)"/>
     </g>
    </g>
   </g>
   <g id="line2d_29">
    <path d="M 69.982102 299.515227 
L 70.253679 297.14682 
L 70.525255 296.926004 
L 70.796831 294.973526 
L 71.068408 296.692184 
L 71.339984 297.555846 
L 71.611561 295.80765 
L 71.883137 295.795264 
L 72.42629 296.211484 
L 72.697866 295.538938 
L 72.969443 293.751117 
L 73.241019 294.166826 
L 73.512595 292.79746 
L 73.784172 294.333681 
L 74.055748 294.083121 
L 74.327325 294.966282 
L 74.598901 292.663822 
L 74.870477 295.378935 
L 75.142054 293.518308 
L 75.41363 294.877236 
L 75.685206 291.131926 
L 75.956783 294.353238 
L 76.228359 292.44337 
L 76.499936 293.584348 
L 76.771512 292.121559 
L 77.043088 293.512738 
L 77.314665 293.721608 
L 77.586241 293.448645 
L 77.857818 294.391385 
L 78.129394 290.445774 
L 78.40097 291.854101 
L 78.672547 292.547564 
L 78.944123 292.00287 
L 79.2157 291.195508 
L 79.487276 292.148924 
L 79.758852 291.84417 
L 80.030429 289.47368 
L 80.302005 291.460856 
L 80.573582 291.140464 
L 80.845158 290.022226 
L 81.116734 293.664069 
L 81.388311 290.69213 
L 81.659887 293.855688 
L 81.931463 291.659749 
L 82.20304 291.331137 
L 82.474616 290.446076 
L 82.746193 293.419482 
L 83.017769 294.500348 
L 83.289345 293.078338 
L 83.560922 293.603898 
L 83.832498 292.723369 
L 84.104075 288.125999 
L 84.375651 291.748059 
L 84.647227 293.721357 
L 84.918804 290.48776 
L 85.19038 290.413979 
L 85.461957 293.595069 
L 85.733533 291.480297 
L 86.276686 291.362649 
L 86.548262 294.040091 
L 86.819839 290.65059 
L 87.091415 292.428237 
L 87.362991 292.072742 
L 87.634568 292.022667 
L 87.906144 291.657608 
L 88.720873 292.457088 
L 88.99245 290.15197 
L 89.264026 291.375009 
L 89.535602 293.611112 
L 89.807179 289.29283 
L 90.078755 291.194981 
L 90.350332 289.455771 
L 90.621908 292.071046 
L 90.893484 287.933159 
L 91.165061 293.3191 
L 91.436637 293.976741 
L 91.708214 290.818087 
L 91.97979 289.347131 
L 92.251366 288.899576 
L 92.522943 291.29823 
L 92.794519 292.676813 
L 93.066096 291.910278 
L 93.337672 291.857985 
L 93.609248 291.070657 
L 93.880825 289.156327 
L 94.152401 289.432495 
L 94.423977 288.586675 
L 94.695554 291.903595 
L 94.96713 293.000812 
L 95.238707 291.806111 
L 95.510283 288.647228 
L 95.781859 292.851767 
L 96.053436 289.657031 
L 96.325012 291.55823 
L 96.596589 292.302391 
L 96.868165 289.432089 
L 97.139741 291.375009 
L 97.411318 290.495051 
L 97.682894 287.527895 
L 97.954471 289.486723 
L 98.226047 293.190454 
L 98.497623 291.882146 
L 98.7692 292.683437 
L 99.040776 293.930133 
L 99.312353 293.90198 
L 99.583929 290.401736 
L 99.855505 290.764093 
L 100.127082 292.017845 
L 100.398658 287.970918 
L 100.670234 289.644639 
L 100.941811 288.198339 
L 101.213387 291.283411 
L 101.484964 291.682836 
L 101.75654 293.483326 
L 102.299693 289.178181 
L 102.571269 290.978399 
L 102.842846 295.213838 
L 103.114422 292.798232 
L 103.385998 287.447804 
L 103.657575 293.171422 
L 103.929151 288.718048 
L 104.200728 289.603507 
L 104.472304 294.014823 
L 104.74388 291.474925 
L 105.015457 290.910277 
L 105.287033 288.802805 
L 105.55861 293.334385 
L 105.830186 292.263997 
L 106.101762 292.21647 
L 106.373339 294.267434 
L 106.644915 290.551737 
L 107.188068 289.328393 
L 107.459644 292.48094 
L 107.731221 292.980762 
L 108.002797 290.203427 
L 108.274373 291.229648 
L 108.54595 291.72405 
L 108.817526 291.669155 
L 109.089103 292.177891 
L 109.360679 291.561071 
L 109.632255 291.503847 
L 109.903832 290.293018 
L 110.175408 290.216005 
L 110.446985 293.65427 
L 110.718561 290.677276 
L 111.261714 291.736311 
L 111.53329 292.886764 
L 111.804867 293.453269 
L 112.076443 291.591547 
L 112.348019 293.376408 
L 112.619596 289.021385 
L 112.891172 290.16787 
L 113.162748 286.946584 
L 113.434325 291.887955 
L 113.705901 288.635405 
L 113.977478 289.820667 
L 114.249054 288.431567 
L 114.52063 286.344538 
L 114.792207 291.51823 
L 115.063783 294.145333 
L 115.33536 291.421356 
L 115.606936 293.400379 
L 115.878512 292.000258 
L 116.421665 290.506787 
L 116.693242 296.022185 
L 116.964818 291.105547 
L 117.236394 291.041555 
L 117.507971 290.265027 
L 117.779547 290.905059 
L 118.051123 287.945546 
L 118.3227 292.938957 
L 118.594276 287.754627 
L 118.865853 290.60063 
L 119.137429 289.030933 
L 119.409005 288.17529 
L 119.680582 291.113718 
L 119.952158 295.667329 
L 120.223735 289.476001 
L 120.495311 293.281039 
L 120.766887 292.462281 
L 121.038464 288.474048 
L 121.31004 295.53246 
L 121.581617 288.32345 
L 121.853193 289.824885 
L 122.124769 292.183672 
L 122.396346 291.315067 
L 122.667922 293.732532 
L 122.939499 293.702347 
L 123.211075 285.324155 
L 123.482651 285.140974 
L 124.025804 296.064935 
L 124.29738 290.862688 
L 124.568957 292.53899 
L 124.840533 295.127592 
L 125.11211 288.943248 
L 125.383686 294.178573 
L 125.655262 292.365424 
L 126.198415 290.45435 
L 126.469992 286.725936 
L 126.741568 293.046287 
L 127.013144 287.431284 
L 127.284721 288.238449 
L 127.556297 292.869811 
L 127.827874 286.144605 
L 128.09945 294.681973 
L 128.371026 292.719174 
L 128.914179 284.720075 
L 129.185756 292.517855 
L 129.457332 291.467662 
L 129.728908 296.475422 
L 130.000485 289.354809 
L 130.272061 293.362842 
L 130.543637 286.111002 
L 130.815214 288.035002 
L 131.08679 296.351643 
L 131.358367 291.054967 
L 131.629943 289.92457 
L 131.901519 291.991026 
L 132.444672 294.072501 
L 132.716249 294.045768 
L 132.987825 292.919481 
L 133.259401 290.6685 
L 133.530978 285.024173 
L 134.074131 293.816242 
L 134.345707 290.349945 
L 134.617283 291.429052 
L 134.88886 285.551819 
L 135.160436 293.62326 
L 135.432013 285.299289 
L 135.703589 289.915384 
L 135.975165 292.252737 
L 136.246742 288.54998 
L 136.518318 293.362842 
L 136.789894 293.328662 
L 137.061471 292.049874 
L 137.333047 288.241621 
L 137.604624 293.188058 
L 137.8762 285.515913 
L 138.147776 285.337681 
L 138.419353 290.376807 
L 138.690929 282.40345 
L 138.962506 283.473232 
L 139.234082 279.16964 
L 140.048811 295.275703 
L 140.320388 275.399443 
L 140.591964 283.565488 
L 140.86354 283.333721 
L 141.135117 275.631435 
L 141.67827 294.881738 
L 141.949846 284.005731 
L 142.221422 285.359526 
L 142.492999 288.363478 
L 142.764575 294.68756 
L 143.036151 288.201624 
L 143.307728 289.71832 
L 143.579304 287.984055 
L 143.850881 284.534306 
L 144.122457 292.766247 
L 144.394033 287.632494 
L 144.937186 294.327734 
L 145.208763 282.142656 
L 145.480339 294.22086 
L 145.751915 281.783033 
L 146.023492 294.10949 
L 146.295068 295.893823 
L 146.566645 292.248788 
L 146.838221 290.372519 
L 147.109797 282.922121 
L 147.381374 288.285831 
L 147.65295 286.280808 
L 147.924527 293.775115 
L 148.196103 291.822089 
L 148.467679 285.958579 
L 149.010832 289.607916 
L 149.282408 295.516729 
L 149.553985 293.495866 
L 149.825561 287.411077 
L 150.097138 291.357119 
L 150.368714 291.296911 
L 150.64029 293.305663 
L 150.911867 287.026459 
L 151.183443 291.094949 
L 151.45502 291.030794 
L 151.726596 286.690869 
L 151.998172 284.379164 
L 152.269749 295.131047 
L 152.541325 295.113718 
L 152.812902 292.886764 
L 153.084478 288.401636 
L 153.356054 295.024978 
L 153.627631 297.261013 
L 153.899207 294.997654 
L 154.713936 294.941996 
L 154.985513 276.554777 
L 155.257089 280.760165 
L 155.528665 292.361597 
L 155.800242 297.115266 
L 156.071818 289.89465 
L 156.343395 272.828081 
L 156.614971 292.058206 
L 156.886547 294.510365 
L 157.158124 281.919126 
L 157.4297 279.082533 
L 157.701277 291.709747 
L 157.972853 291.65465 
L 158.244429 288.959949 
L 158.516006 296.851156 
L 158.787582 296.844767 
L 159.059159 294.161469 
L 159.330735 286.066171 
L 159.602311 291.347145 
L 159.873888 291.28679 
L 160.145464 282.935845 
L 160.417041 291.100251 
L 160.688617 279.730779 
L 160.960193 279.37292 
L 161.23177 293.65427 
L 161.503346 284.785309 
L 161.774922 290.558805 
L 162.046499 284.466824 
L 162.318075 287.311591 
L 162.589652 274.837514 
L 162.861228 293.205982 
L 163.132804 277.307043 
L 163.404381 283.329445 
L 163.675957 283.090717 
L 163.947534 276.176686 
L 164.21911 282.487982 
L 164.490686 292.59857 
L 165.033839 289.075398 
L 165.305416 274.690155 
L 165.576992 285.006018 
L 165.848568 284.814477 
L 166.120145 273.44475 
L 166.391721 276.633409 
L 166.663298 291.727942 
L 166.934874 283.830976 
L 167.20645 279.629838 
L 167.478027 291.41645 
L 167.749603 270.961847 
L 168.021179 266.024045 
L 168.564332 272.895742 
L 168.835909 272.243836 
L 169.107485 276.218537 
L 169.650638 294.694527 
L 169.922214 294.673567 
L 170.193791 284.926819 
L 170.736943 297.051551 
L 171.00852 269.819712 
L 171.280096 289.34553 
L 172.094825 297.804656 
L 172.366402 284.048813 
L 172.637978 294.287144 
L 172.909554 294.262483 
L 173.181131 288.959949 
L 173.724284 288.755983 
L 175.082166 297.342385 
L 175.353742 266.601479 
L 175.896895 296.688877 
L 176.168471 293.833687 
L 176.711624 293.775115 
L 177.254777 296.6303 
L 177.526353 287.915417 
L 177.79793 287.793313 
L 178.069506 281.745305 
L 178.341082 293.495866 
L 178.612659 293.463152 
L 179.427388 297.486845 
L 179.698964 293.396646 
L 180.242117 290.286649 
L 182.414728 297.951208 
L 183.77261 298.249793 
L 185.130492 298.242562 
L 185.402068 293.115332 
L 186.216798 297.369598 
L 187.303103 297.896649 
L 188.117832 297.344502 
L 189.204138 297.877607 
L 190.018867 297.318813 
L 190.290444 286.258301 
L 190.833596 296.161065 
L 191.919902 294.453492 
L 192.734631 292.641265 
L 193.006207 292.511568 
L 194.364089 298.10563 
L 194.907242 295.968788 
L 195.178819 285.238537 
L 195.450395 292.284177 
L 195.993548 292.189031 
L 196.536701 288.453156 
L 196.808277 291.991026 
L 197.079853 269.213681 
L 197.35143 291.727942 
L 198.166159 291.561071 
L 198.980888 296.844767 
L 199.252464 291.445794 
L 199.795617 287.322726 
L 200.067194 274.584291 
L 200.881923 295.199019 
L 201.153499 282.115511 
L 201.696652 295.096252 
L 201.968228 290.606573 
L 202.511381 272.132068 
L 202.782958 280.799566 
L 204.140839 297.611669 
L 204.412416 280.315541 
L 205.770298 297.561575 
L 206.041874 289.660521 
L 206.856603 296.200996 
L 207.671333 296.171138 
L 208.214485 294.453492 
L 209.029215 296.109778 
L 210.658673 297.796737 
L 210.930249 289.107921 
L 213.374437 297.180674 
L 214.189166 295.946055 
L 215.547048 297.352932 
L 215.818624 288.597758 
L 216.090201 288.489665 
L 219.89227 298.719812 
L 222.336458 298.265416 
L 226.953256 298.846811 
L 227.224833 288.035002 
L 228.039562 295.648624 
L 229.397444 297.170844 
L 232.113208 298.330566 
L 232.656361 281.55423 
L 233.47109 287.142096 
L 233.742666 286.715436 
L 234.014242 260.66935 
L 234.285819 259.265282 
L 234.557395 285.595455 
L 235.643701 292.467241 
L 235.915277 285.053126 
L 236.45843 292.189031 
L 237.273159 284.66747 
L 237.544736 268.582399 
L 237.816312 283.606916 
L 238.087888 267.237493 
L 238.359465 266.273979 
L 239.44577 295.23222 
L 239.717347 264.715795 
L 241.075229 295.923028 
L 241.346805 281.259788 
L 243.519416 297.195265 
L 243.790993 280.640959 
L 244.605722 293.115332 
L 247.593062 297.73918 
L 251.395132 298.094842 
L 251.666708 279.268285 
L 252.209861 278.893342 
L 256.283507 298.087558 
L 258.99927 297.331734 
L 260.085576 288.379409 
L 279.095923 299.183804 
L 282.626416 297.692671 
L 286.700062 297.901341 
L 295.11893 297.918694 
L 295.390507 273.617976 
L 297.834694 296.569244 
L 298.106271 272.354695 
L 298.921 290.235379 
L 300.550458 294.756331 
L 300.822035 270.210443 
L 301.093611 269.418421 
L 301.90834 289.204285 
L 302.451493 267.698604 
L 305.71041 296.703152 
L 306.253563 282.115511 
L 309.240903 296.249591 
L 310.870361 287.142096 
L 324.992334 298.750405 
L 325.807063 285.767304 
L 335.583813 298.325503 
L 353.236278 298.829946 
L 359.754112 297.581926 
L 366.271945 297.497869 
L 367.086674 282.642775 
L 369.802438 294.212457 
L 370.074014 243.836136 
L 370.888744 279.978704 
L 371.431896 268.582399 
L 372.789778 286.414265 
L 376.591848 294.54388 
L 378.764459 290.235379 
L 379.579188 246.487522 
L 391.800126 297.453039 
L 392.614855 265.770324 
L 396.145348 290.949213 
L 396.416924 175.783914 
L 396.960077 229.916364 
L 398.046383 259.744448 
L 403.477911 290.235379 
L 403.749487 76.798864 
L 407.551556 279.629838 
L 421.945105 292.511568 
L 422.488258 21.119773 
L 537.636648 296.888855 
L 537.636648 296.888855 
" clip-path="url(#p5ce0413673)" style="fill: none; stroke: #1f77b4; stroke-opacity: 0.8; stroke-width: 1.2; stroke-linecap: square"/>
   </g>
   <g id="line2d_30">
    <path d="M 69.982102 299.515227 
L 70.253679 297.147278 
L 70.525255 296.926505 
L 70.796831 294.974408 
L 71.068408 296.692735 
L 71.339984 297.556229 
L 71.611561 295.808376 
L 71.883137 295.795995 
L 72.42629 296.212137 
L 72.697866 295.539727 
L 72.969443 293.752264 
L 73.241019 294.167896 
L 73.512595 292.798811 
L 73.784172 294.334729 
L 74.055748 294.084225 
L 74.327325 294.967211 
L 74.598901 292.665226 
L 74.870477 295.379788 
L 75.142054 293.51955 
L 75.41363 294.878201 
L 75.685206 291.133679 
L 75.956783 294.354326 
L 76.228359 292.444867 
L 76.499936 293.585612 
L 76.771512 292.123142 
L 77.043088 293.514032 
L 77.314665 293.722864 
L 77.586241 293.449967 
L 77.857818 294.392507 
L 78.129394 290.44777 
L 78.40097 291.855801 
L 78.672547 292.549121 
L 78.944123 292.004559 
L 79.2157 291.197391 
L 79.487276 292.150604 
L 79.758852 291.845931 
L 80.030429 289.476001 
L 80.302005 291.462735 
L 80.573582 291.142432 
L 80.845158 290.024473 
L 81.116734 293.665466 
L 81.388311 290.694248 
L 81.659887 293.857057 
L 81.931463 291.661659 
L 82.20304 291.333142 
L 82.474616 290.448314 
L 82.746193 293.420998 
L 83.017769 294.501602 
L 83.289345 293.079955 
L 83.560922 293.605392 
L 83.832498 292.725094 
L 84.104075 288.12891 
L 84.375651 291.750065 
L 84.647227 293.722864 
L 84.918804 290.49012 
L 85.19038 290.416377 
L 85.461957 293.596642 
L 85.733533 291.482444 
L 86.276686 291.364859 
L 86.548262 294.041586 
L 86.819839 290.653023 
L 87.091415 292.430198 
L 87.362991 292.074814 
L 87.634568 292.024767 
L 87.906144 291.659825 
L 88.720873 292.459121 
L 88.99245 290.154684 
L 89.264026 291.377389 
L 89.535602 293.61285 
L 89.807179 289.295856 
L 90.078755 291.197466 
L 90.350332 289.458799 
L 90.621908 292.073307 
L 90.893484 287.936701 
L 91.165061 293.321014 
L 91.436637 293.978462 
L 91.708214 290.820803 
L 91.97979 289.350332 
L 92.251366 288.902948 
L 92.522943 291.300865 
L 92.794519 292.679022 
L 93.066096 291.912751 
L 93.337672 291.860491 
L 93.609248 291.07344 
L 93.880825 289.159767 
L 94.152401 289.435875 
L 94.423977 288.590372 
L 94.695554 291.906195 
L 94.96713 293.003053 
L 95.238707 291.808779 
L 95.510283 288.651014 
L 95.781859 292.854112 
L 96.053436 289.660521 
L 96.325012 291.561071 
L 96.596589 292.304985 
L 96.868165 289.435739 
L 97.139741 291.377983 
L 97.411318 290.49837 
L 97.682894 287.532343 
L 97.954471 289.490485 
L 98.226047 293.192848 
L 98.497623 291.885051 
L 98.7692 292.686056 
L 99.040776 293.932287 
L 99.312353 293.904156 
L 99.583929 290.405286 
L 99.855505 290.76753 
L 100.127082 292.020813 
L 100.398658 287.975519 
L 100.670234 289.648614 
L 100.941811 288.202937 
L 101.213387 291.28679 
L 101.484964 291.686075 
L 101.75654 293.485838 
L 102.299693 289.182541 
L 102.571269 290.982033 
L 102.842846 295.215684 
L 103.114422 292.801125 
L 103.385998 287.453033 
L 103.657575 293.174201 
L 103.929151 288.722804 
L 104.200728 289.607916 
L 104.472304 294.017292 
L 104.74388 291.478552 
L 105.015457 290.914186 
L 105.287033 288.80771 
L 105.55861 293.337242 
L 105.830186 292.267368 
L 106.101762 292.219885 
L 106.373339 294.269905 
L 106.644915 290.555979 
L 107.188068 289.333295 
L 107.459644 292.484356 
L 107.731221 292.983956 
L 108.002797 290.208005 
L 108.274373 291.233756 
L 108.54595 291.727942 
L 108.817526 291.673102 
L 109.089103 292.181608 
L 109.360679 291.565128 
L 109.632255 291.507962 
L 109.903832 290.297789 
L 110.175408 290.220856 
L 110.446985 293.657353 
L 110.718561 290.68195 
L 111.261714 291.740488 
L 111.53329 292.890349 
L 111.804867 293.456567 
L 112.076443 291.595882 
L 112.348019 293.37979 
L 112.619596 289.027199 
L 112.891172 290.173098 
L 113.162748 286.953673 
L 113.434325 291.892306 
L 113.705901 288.641654 
L 113.977478 289.82629 
L 114.249054 288.438053 
L 114.52063 286.352322 
L 114.792207 291.523013 
L 115.063783 294.148568 
L 115.33536 291.426255 
L 115.606936 293.404108 
L 115.878512 292.004866 
L 116.421665 290.512389 
L 116.693242 296.024375 
L 116.964818 291.110836 
L 117.236394 291.046924 
L 117.507971 290.270934 
L 117.779547 290.910603 
L 118.051123 287.953054 
L 118.3227 292.943269 
L 118.594276 287.762385 
L 118.865853 290.606573 
L 119.137429 289.037979 
L 119.409005 288.182984 
L 119.680582 291.119477 
L 119.952158 295.669986 
L 120.223735 289.482959 
L 120.495311 293.285399 
L 120.766887 292.467241 
L 121.038464 288.481862 
L 121.31004 295.535307 
L 121.581617 288.331479 
L 121.853193 289.831907 
L 122.124769 292.189031 
L 122.396346 291.321101 
L 122.667922 293.736819 
L 122.939499 293.706678 
L 123.211075 285.334785 
L 123.482651 285.151881 
L 124.025804 296.067606 
L 124.29738 290.869406 
L 124.568957 292.544449 
L 124.840533 295.131047 
L 125.11211 288.951605 
L 125.383686 294.182832 
L 125.655262 292.371158 
L 126.198415 290.461717 
L 126.469992 286.73642 
L 126.741568 293.051651 
L 127.013144 287.441363 
L 127.284721 288.247958 
L 127.556297 292.875472 
L 127.827874 286.156062 
L 128.09945 294.686165 
L 128.371026 292.725094 
L 128.914179 284.733168 
L 129.185756 292.524131 
L 129.457332 291.474925 
L 129.728908 296.478186 
L 130.000485 289.364071 
L 130.272061 293.368502 
L 130.543637 286.123402 
L 130.815214 288.045752 
L 131.08679 296.354636 
L 131.358367 291.062993 
L 131.629943 289.933739 
L 131.901519 291.998282 
L 132.444672 294.077816 
L 132.716249 294.051136 
L 132.987825 292.925986 
L 133.259401 290.677276 
L 133.530978 285.038664 
L 134.074131 293.822069 
L 134.345707 290.359364 
L 134.617283 291.437432 
L 134.88886 285.566394 
L 135.160436 293.629488 
L 135.432013 285.314396 
L 135.703589 289.925718 
L 135.975165 292.260623 
L 136.246742 288.561963 
L 136.518318 293.369632 
L 136.789894 293.335528 
L 137.061471 292.058206 
L 137.333047 288.254288 
L 137.604624 293.19524 
L 137.8762 285.531894 
L 138.147776 285.354071 
L 138.419353 290.387507 
L 138.690929 282.423653 
L 138.962506 283.492467 
L 139.234082 279.194391 
L 140.048811 295.281076 
L 140.320388 275.430124 
L 140.591964 283.586229 
L 140.86354 283.355069 
L 141.135117 275.663408 
L 141.67827 294.888156 
L 141.949846 284.027302 
L 142.221422 285.379492 
L 142.492999 288.379409 
L 142.764575 294.694527 
L 143.036151 288.21802 
L 143.307728 289.732664 
L 143.579304 288.001087 
L 143.850881 284.556666 
L 144.122457 292.776457 
L 144.394033 287.650581 
L 144.937186 294.335777 
L 145.208763 282.169716 
L 145.480339 294.229238 
L 145.751915 281.811224 
L 146.023492 294.118223 
L 146.295068 295.899702 
L 146.566645 292.260623 
L 146.838221 290.387507 
L 147.109797 282.949547 
L 147.381374 288.304672 
L 147.65295 286.30324 
L 147.924527 293.784961 
L 148.196103 291.835353 
L 148.467679 285.982115 
L 149.010832 289.625513 
L 149.282408 295.523895 
L 149.553985 293.506692 
L 149.825561 287.432965 
L 150.097138 291.372033 
L 150.368714 291.312046 
L 150.64029 293.317184 
L 150.911867 287.049759 
L 151.183443 291.110836 
L 151.45502 291.046924 
L 151.726596 286.715436 
L 151.998172 284.408497 
L 152.269749 295.13966 
L 152.541325 295.1224 
L 152.812902 292.89989 
L 153.084478 288.423775 
L 153.356054 295.034013 
L 153.627631 297.265567 
L 153.899207 295.006799 
L 154.713936 294.951367 
L 154.985513 276.602021 
L 155.257089 280.799566 
L 155.528665 292.376882 
L 155.800242 297.120428 
L 156.071818 289.915384 
L 156.343395 272.886097 
L 156.614971 292.074814 
L 156.886547 294.521587 
L 157.158124 281.958757 
L 157.4297 279.12929 
L 157.701277 291.727942 
L 157.972853 291.673102 
L 158.244429 288.984903 
L 158.516006 296.857514 
L 158.787582 296.851156 
L 159.059159 294.174307 
L 159.330735 286.098579 
L 159.602311 291.367068 
L 159.873888 291.307007 
L 160.145464 282.976883 
L 160.417041 291.121394 
L 160.688617 279.780866 
L 160.960193 279.424834 
L 161.23177 293.669653 
L 161.503346 284.824174 
L 161.774922 290.582753 
L 162.046499 284.507386 
L 162.318075 287.344934 
L 162.589652 274.905684 
L 162.861228 293.223805 
L 163.132804 277.370134 
L 163.404381 283.37636 
L 163.675957 283.139024 
L 163.947534 276.246353 
L 164.21911 282.539895 
L 164.490686 292.619984 
L 165.033839 289.107921 
L 165.305416 274.768965 
L 165.576992 285.053126 
L 165.848568 284.862835 
L 166.120145 273.531652 
L 166.391721 276.711504 
L 166.663298 291.755075 
L 166.934874 283.886009 
L 167.20645 279.700604 
L 167.478027 291.445794 
L 167.749603 271.066057 
L 168.021179 266.14948 
L 168.564332 273.001374 
L 168.835909 272.354695 
L 169.107485 276.315606 
L 169.650638 294.715306 
L 169.922214 294.694527 
L 170.193791 284.990247 
L 170.736943 297.062404 
L 171.00852 269.951108 
L 171.280096 289.391756 
L 172.094825 297.812503 
L 172.366402 284.120087 
L 172.637978 294.311574 
L 172.909554 294.287144 
L 173.181131 289.009738 
L 173.724284 288.80771 
L 175.082166 297.352932 
L 175.353742 266.762821 
L 175.896895 296.703152 
L 176.168471 293.862528 
L 176.711624 293.804551 
L 177.254777 296.645171 
L 177.526353 287.975519 
L 177.79793 287.854685 
L 178.069506 281.839325 
L 178.341082 293.528228 
L 178.612659 293.495866 
L 179.427388 297.497869 
L 179.698964 293.430081 
L 180.242117 290.337355 
L 182.414728 297.959945 
L 183.77261 298.256943 
L 185.130492 298.249793 
L 185.402068 293.151903 
L 186.216798 297.381929 
L 187.303103 297.906005 
L 188.117832 297.357123 
L 189.204138 297.887184 
L 190.018867 297.331734 
L 190.290444 286.336744 
L 190.833596 296.18115 
L 191.919902 294.483984 
L 192.734631 292.683437 
L 193.006207 292.555341 
L 194.364089 298.114495 
L 194.907242 295.991234 
L 195.178819 285.329472 
L 195.450395 292.330828 
L 195.993548 292.236915 
L 196.536701 288.525933 
L 196.808277 292.041524 
L 197.079853 269.418421 
L 197.35143 291.78202 
L 198.166159 291.617484 
L 198.980888 296.863842 
L 199.252464 291.503847 
L 199.795617 287.411077 
L 200.067194 274.768965 
L 200.881923 295.23222 
L 201.153499 282.250393 
L 201.696652 295.131047 
L 201.968228 290.677276 
L 202.511381 272.354695 
L 202.782958 280.95553 
L 204.140839 297.6278 
L 204.412416 280.479641 
L 205.770298 297.578563 
L 206.041874 289.746966 
L 206.856603 296.230325 
L 207.671333 296.200996 
L 208.214485 294.499093 
L 209.029215 296.140737 
L 210.658673 297.812503 
L 210.930249 289.204285 
L 213.374437 297.202492 
L 214.189166 295.980047 
L 215.547048 297.373724 
L 215.818624 288.703753 
L 216.090201 288.597758 
L 219.89227 298.727687 
L 222.336458 298.277914 
L 226.953256 298.853562 
L 227.224833 288.152147 
L 228.039562 295.688486 
L 229.397444 297.195265 
L 232.113208 298.343036 
L 232.656361 281.745305 
L 233.47109 287.278064 
L 233.742666 286.860888 
L 234.014242 261.115854 
L 234.285819 259.744448 
L 234.557395 285.767304 
L 235.643701 292.555341 
L 235.915277 285.238537 
L 236.45843 292.284177 
L 237.273159 284.862835 
L 237.544736 269.006136 
L 237.816312 283.830976 
L 238.087888 267.698604 
L 238.359465 266.762821 
L 239.44577 295.297114 
L 239.717347 265.251171 
L 241.075229 295.980047 
L 241.346805 281.55423 
L 243.519416 297.233297 
L 243.790993 280.95553 
L 244.605722 293.223805 
L 247.593062 297.769801 
L 251.395132 298.119761 
L 251.666708 279.629838 
L 252.209861 279.268285 
L 256.283507 298.114495 
L 258.99927 297.373724 
L 260.085576 288.597758 
L 279.095923 299.190568 
L 282.626416 297.730641 
L 286.700062 297.935679 
L 295.11893 297.953401 
L 295.390507 274.20655 
L 297.834694 296.637755 
L 298.106271 273.001374 
L 298.921 290.461717 
L 300.550458 294.875303 
L 300.822035 270.961847 
L 301.093611 270.210443 
L 301.90834 289.482959 
L 302.451493 268.582399 
L 305.71041 296.78586 
L 306.253563 282.642775 
L 309.240903 296.351643 
L 310.870361 287.541229 
L 324.992334 298.776778 
L 325.807063 286.258301 
L 335.583813 298.369567 
L 353.236278 298.856303 
L 359.754112 297.659258 
L 366.271945 297.581926 
L 367.086674 283.37636 
L 369.802438 294.453492 
L 370.074014 246.487522 
L 370.888744 280.95553 
L 371.431896 270.210443 
L 372.789778 287.142096 
L 376.591848 294.836312 
L 378.764459 290.815369 
L 379.579188 250.022702 
L 391.800126 297.611669 
L 392.614855 268.582399 
L 396.145348 291.727942 
L 396.416924 188.157045 
L 396.960077 237.649571 
L 398.046383 264.715795 
L 403.477911 291.561071 
L 403.749487 113.918258 
L 407.551556 283.606916 
L 421.945105 294.262483 
L 422.488258 113.918258 
L 537.636648 298.202041 
L 537.636648 298.202041 
" clip-path="url(#p5ce0413673)" style="fill: none; stroke: #d62728; stroke-opacity: 0.8; stroke-width: 1.2; stroke-linecap: square"/>
   </g>
   <g id="line2d_31">
    <path d="M 69.982102 299.515227 
L 70.253679 297.211592 
L 70.525255 296.926355 
L 70.796831 294.974144 
L 71.068408 296.69257 
L 71.339984 297.556114 
L 71.611561 295.808158 
L 71.883137 295.795776 
L 72.42629 296.211941 
L 72.697866 295.53949 
L 72.969443 293.75192 
L 73.241019 294.167575 
L 73.512595 292.798406 
L 73.784172 294.334415 
L 74.055748 294.083894 
L 74.327325 294.966932 
L 74.598901 292.664805 
L 74.870477 295.379532 
L 75.142054 293.519177 
L 75.41363 294.877912 
L 75.685206 291.133153 
L 75.956783 294.353999 
L 76.228359 292.444418 
L 76.499936 293.585233 
L 76.771512 292.122668 
L 77.043088 293.513644 
L 77.314665 293.722487 
L 77.586241 293.44957 
L 77.857818 294.39217 
L 78.129394 290.447171 
L 78.40097 291.855291 
L 78.672547 292.548654 
L 78.944123 292.004052 
L 79.2157 291.196826 
L 79.487276 292.1501 
L 79.758852 291.845403 
L 80.030429 289.475305 
L 80.302005 291.462171 
L 80.573582 291.141841 
L 80.845158 290.023799 
L 81.116734 293.665047 
L 81.388311 290.693613 
L 81.659887 293.856646 
L 81.931463 291.661086 
L 82.20304 291.332541 
L 82.474616 290.447643 
L 82.746193 293.420544 
L 83.017769 294.501226 
L 83.289345 293.07947 
L 83.560922 293.604944 
L 83.832498 292.724577 
L 84.104075 288.128037 
L 84.375651 291.749463 
L 84.647227 293.722412 
L 84.918804 290.489412 
L 85.19038 290.415658 
L 85.461957 293.59617 
L 85.733533 291.4818 
L 86.276686 291.364196 
L 86.548262 294.041138 
L 86.819839 290.652293 
L 87.091415 292.42961 
L 87.362991 292.074193 
L 87.634568 292.024137 
L 87.906144 291.65916 
L 88.720873 292.458512 
L 88.99245 290.15387 
L 89.264026 291.376675 
L 89.535602 293.612329 
L 89.807179 289.294948 
L 90.078755 291.196721 
L 90.350332 289.457891 
L 90.621908 292.072629 
L 90.893484 287.935638 
L 91.165061 293.32044 
L 91.436637 293.977946 
L 91.708214 290.819989 
L 91.97979 289.349372 
L 92.251366 288.901937 
L 92.522943 291.300074 
L 92.794519 292.67836 
L 93.066096 291.912009 
L 93.337672 291.85974 
L 93.609248 291.072605 
L 93.880825 289.158735 
L 94.152401 289.434861 
L 94.423977 288.589263 
L 94.695554 291.905415 
L 94.96713 293.002381 
L 95.238707 291.807979 
L 95.510283 288.649879 
L 95.781859 292.853408 
L 96.053436 289.659474 
L 96.325012 291.560219 
L 96.596589 292.304207 
L 96.868165 289.434644 
L 97.139741 291.377091 
L 97.411318 290.497375 
L 97.682894 287.531009 
L 97.954471 289.489357 
L 98.226047 293.19213 
L 98.497623 291.88418 
L 98.7692 292.68527 
L 99.040776 293.931641 
L 99.312353 293.903504 
L 99.583929 290.404222 
L 99.855505 290.766499 
L 100.127082 292.019923 
L 100.398658 287.974139 
L 100.670234 289.647422 
L 100.941811 288.201558 
L 101.213387 291.285777 
L 101.484964 291.685103 
L 101.75654 293.485085 
L 102.299693 289.181233 
L 102.571269 290.980943 
L 102.842846 295.21513 
L 103.114422 292.800257 
L 103.385998 287.451464 
L 103.657575 293.173367 
L 103.929151 288.721378 
L 104.200728 289.606593 
L 104.472304 294.016552 
L 104.74388 291.477464 
L 105.015457 290.913014 
L 105.287033 288.806239 
L 105.55861 293.336385 
L 105.830186 292.266357 
L 106.101762 292.218861 
L 106.373339 294.269164 
L 106.644915 290.554707 
L 107.188068 289.331825 
L 107.459644 292.483332 
L 107.731221 292.982998 
L 108.002797 290.206632 
L 108.274373 291.232524 
L 108.54595 291.726775 
L 108.817526 291.671918 
L 109.089103 292.180494 
L 109.360679 291.563911 
L 109.632255 291.506728 
L 109.903832 290.296358 
L 110.175408 290.219402 
L 110.446985 293.656429 
L 110.718561 290.680548 
L 111.261714 291.739236 
L 111.53329 292.889274 
L 111.804867 293.455578 
L 112.076443 291.594582 
L 112.348019 293.378776 
L 112.619596 289.025456 
L 112.891172 290.17153 
L 113.162748 286.951547 
L 113.434325 291.891001 
L 113.705901 288.63978 
L 113.977478 289.824604 
L 114.249054 288.436108 
L 114.52063 286.349987 
L 114.792207 291.521579 
L 115.063783 294.147598 
L 115.33536 291.424786 
L 115.606936 293.402989 
L 115.878512 292.003484 
L 116.421665 290.510709 
L 116.693242 296.023718 
L 116.964818 291.10925 
L 117.236394 291.045314 
L 117.507971 290.269162 
L 117.779547 290.90894 
L 118.051123 287.950803 
L 118.3227 292.941976 
L 118.594276 287.760059 
L 118.865853 290.604791 
L 119.137429 289.035866 
L 119.409005 288.180677 
L 119.680582 291.11775 
L 119.952158 295.669189 
L 120.223735 289.480872 
L 120.495311 293.284092 
L 120.766887 292.465754 
L 121.038464 288.479519 
L 121.31004 295.534453 
L 121.581617 288.329071 
L 121.853193 289.829802 
L 122.124769 292.187424 
L 122.396346 291.319291 
L 122.667922 293.735534 
L 122.939499 293.70538 
L 123.211075 285.331597 
L 123.482651 285.148611 
L 124.025804 296.066805 
L 124.29738 290.867391 
L 124.568957 292.542812 
L 124.840533 295.130011 
L 125.11211 288.949099 
L 125.383686 294.181555 
L 125.655262 292.369439 
L 126.198415 290.459508 
L 126.469992 286.733276 
L 126.741568 293.050043 
L 127.013144 287.438341 
L 127.284721 288.245107 
L 127.556297 292.873775 
L 127.827874 286.152627 
L 128.09945 294.684908 
L 128.371026 292.723319 
L 128.914179 284.729242 
L 129.185756 292.522249 
L 129.457332 291.472748 
L 129.728908 296.477357 
L 130.000485 289.361294 
L 130.272061 293.366805 
L 130.543637 286.119684 
L 130.815214 288.042529 
L 131.08679 296.353738 
L 131.358367 291.060587 
L 131.629943 289.930991 
L 131.901519 291.996106 
L 132.444672 294.076223 
L 132.716249 294.049527 
L 132.987825 292.924036 
L 133.259401 290.674645 
L 133.530978 285.034319 
L 134.074131 293.820322 
L 134.345707 290.356541 
L 134.617283 291.43492 
L 134.88886 285.562025 
L 135.160436 293.627621 
L 135.432013 285.309868 
L 135.703589 289.92262 
L 135.975165 292.258259 
L 136.246742 288.558371 
L 136.518318 293.367597 
L 136.789894 293.33347 
L 137.061471 292.055709 
L 137.333047 288.25049 
L 137.604624 293.193087 
L 137.8762 285.527103 
L 138.147776 285.349158 
L 138.419353 290.3843 
L 138.690929 282.417597 
L 138.962506 283.486702 
L 139.234082 279.186972 
L 140.048811 295.279465 
L 140.320388 275.420928 
L 140.591964 283.580012 
L 140.86354 283.348671 
L 141.135117 275.653825 
L 141.67827 294.886233 
L 141.949846 284.020837 
L 142.221422 285.373508 
L 142.492999 288.374635 
L 142.764575 294.692439 
L 143.036151 288.213106 
L 143.307728 289.728365 
L 143.579304 287.995983 
L 143.850881 284.549965 
L 144.122457 292.773397 
L 144.394033 287.645161 
L 144.937186 294.333367 
L 145.208763 282.161607 
L 145.480339 294.226727 
L 145.751915 281.802776 
L 146.023492 294.115606 
L 146.295068 295.89794 
L 146.566645 292.257076 
L 146.838221 290.383016 
L 147.109797 282.941329 
L 147.381374 288.299026 
L 147.65295 286.296518 
L 147.924527 293.78201 
L 148.196103 291.831378 
L 148.467679 285.975063 
L 149.010832 289.62024 
L 149.282408 295.521748 
L 149.553985 293.503449 
L 149.825561 287.426407 
L 150.097138 291.367564 
L 150.368714 291.307512 
L 150.64029 293.313732 
L 150.911867 287.042778 
L 151.183443 291.106076 
L 151.45502 291.042092 
L 151.726596 286.708076 
L 151.998172 284.399709 
L 152.269749 295.13708 
L 152.541325 295.119799 
L 152.812902 292.895957 
L 153.084478 288.417143 
L 153.356054 295.031306 
L 153.627631 297.264203 
L 153.899207 295.004059 
L 154.713936 294.94856 
L 154.985513 276.587868 
L 155.257089 280.787763 
L 155.528665 292.372303 
L 155.800242 297.118882 
L 156.071818 289.909173 
L 156.343395 272.868719 
L 156.614971 292.06984 
L 156.886547 294.518226 
L 157.158124 281.946887 
L 157.4297 279.115286 
L 157.701277 291.722492 
L 157.972853 291.667575 
L 158.244429 288.977429 
L 158.516006 296.85561 
L 158.787582 296.849243 
L 159.059159 294.170462 
L 159.330735 286.088873 
L 159.602311 291.361101 
L 159.873888 291.300953 
L 160.145464 282.964593 
L 160.417041 291.115063 
L 160.688617 279.765866 
L 160.960193 279.409288 
L 161.23177 293.665047 
L 161.503346 284.812536 
L 161.774922 290.575582 
L 162.046499 284.495241 
L 162.318075 287.33495 
L 162.589652 274.885273 
L 162.861228 293.218468 
L 163.132804 277.351245 
L 163.404381 283.362314 
L 163.675957 283.124562 
L 163.947534 276.225497 
L 164.21911 282.524354 
L 164.490686 292.613574 
L 165.033839 289.098185 
L 165.305416 274.745374 
L 165.576992 285.039026 
L 165.848568 284.848361 
L 166.120145 273.505642 
L 166.391721 276.688132 
L 166.663298 291.746955 
L 166.934874 283.86954 
L 167.20645 279.679427 
L 167.478027 291.437013 
L 167.749603 271.034874 
L 168.021179 266.111948 
L 168.564332 272.969773 
L 168.835909 272.321532 
L 169.107485 276.28657 
L 169.650638 294.709091 
L 169.922214 294.688258 
L 170.193791 284.971277 
L 170.736943 297.059158 
L 171.00852 269.911812 
L 171.280096 289.377933 
L 172.094825 297.810156 
L 172.366402 284.098774 
L 172.637978 294.304269 
L 172.909554 294.27977 
L 173.181131 288.994851 
L 173.724284 288.792244 
L 175.082166 297.349779 
L 175.353742 266.714585 
L 175.896895 296.698885 
L 176.168471 293.853906 
L 176.711624 293.795752 
L 177.254777 296.640726 
L 177.526353 287.957554 
L 177.79793 287.836341 
L 178.069506 281.811224 
L 178.341082 293.518556 
L 178.612659 293.486089 
L 179.427388 297.494574 
L 179.698964 293.420089 
L 180.242117 290.322202 
L 182.414728 297.957334 
L 183.77261 298.254806 
L 185.130492 298.247633 
L 185.402068 293.140975 
L 186.216798 297.378244 
L 187.303103 297.90321 
L 188.117832 297.353352 
L 189.204138 297.884322 
L 190.018867 297.327873 
L 190.290444 286.313309 
L 190.833596 296.17515 
L 191.919902 294.474875 
L 192.734631 292.67084 
L 193.006207 292.542267 
L 194.364089 298.111848 
L 194.907242 295.98453 
L 195.178819 285.302313 
L 195.450395 292.316896 
L 195.993548 292.222615 
L 196.536701 288.504201 
L 196.808277 292.026446 
L 197.079853 269.35729 
L 197.35143 291.765876 
L 198.166159 291.600644 
L 198.980888 296.858148 
L 199.252464 291.486519 
L 199.795617 287.384706 
L 200.067194 274.71385 
L 200.881923 295.222314 
L 201.153499 282.210149 
L 201.696652 295.120666 
L 201.968228 290.656183 
L 202.511381 272.288288 
L 202.782958 280.909015 
L 204.140839 297.62299 
L 204.412416 280.430706 
L 205.770298 297.573498 
L 206.041874 289.721192 
L 206.856603 296.221581 
L 207.671333 296.192094 
L 208.214485 294.485499 
L 209.029215 296.131509 
L 210.658673 297.807803 
L 210.930249 289.175563 
L 213.374437 297.19599 
L 214.189166 295.969917 
L 215.547048 297.367528 
L 215.818624 288.672172 
L 216.090201 288.565554 
L 219.89227 298.725341 
L 222.336458 298.274191 
L 226.953256 298.851551 
L 227.224833 288.117256 
L 228.039562 295.676614 
L 229.397444 297.187993 
L 232.113208 298.339323 
L 232.656361 281.688411 
L 233.47109 287.237589 
L 233.742666 286.817601 
L 234.014242 260.982984 
L 234.285819 259.6019 
L 234.557395 285.716196 
L 235.643701 292.529143 
L 235.915277 285.183415 
L 236.45843 292.255893 
L 237.273159 284.804767 
L 237.544736 268.880239 
L 237.816312 283.764424 
L 238.087888 267.56166 
L 238.359465 266.617685 
L 239.44577 295.277854 
L 239.717347 265.092296 
L 241.075229 295.963132 
L 241.346805 281.4669 
L 243.519416 297.222019 
L 243.790993 280.862265 
L 244.605722 293.191651 
L 247.593062 297.760726 
L 251.395132 298.112378 
L 251.666708 279.522735 
L 252.209861 279.157242 
L 256.283507 298.106522 
L 258.99927 297.361297 
L 260.085576 288.533158 
L 279.095923 299.188568 
L 282.626416 297.719417 
L 286.700062 297.925532 
L 295.11893 297.943149 
L 295.390507 274.032806 
L 297.834694 296.617538 
L 298.106271 272.810627 
L 298.921 290.394983 
L 300.550458 294.840241 
L 300.822035 270.740503 
L 301.093611 269.977248 
L 301.90834 289.400951 
L 302.451493 268.322459 
L 305.71041 296.761563 
L 306.253563 282.487982 
L 309.240903 296.321703 
L 310.870361 287.424219 
L 324.992334 298.769059 
L 325.807063 286.114724 
L 335.583813 298.356694 
L 353.236278 298.848611 
L 359.754112 297.636715 
L 366.271945 297.557453 
L 367.086674 283.163071 
L 369.802438 294.383514 
L 370.074014 245.719004 
L 370.888744 280.672895 
L 371.431896 269.740312 
L 372.789778 286.932382 
L 376.591848 294.75226 
L 378.764459 290.64913 
L 379.579188 249.01265 
L 391.800126 297.566703 
L 392.614855 267.78925 
L 396.145348 291.509607 
L 396.416924 184.712978 
L 396.960077 235.516272 
L 398.046383 263.359973 
L 403.477911 291.204915 
L 403.749487 104.149996 
L 407.551556 282.591491 
L 421.945105 293.836585 
L 422.488258 93.296372 
L 537.636648 297.970302 
L 537.636648 297.970302 
" clip-path="url(#p5ce0413673)" style="fill: none; stroke: #2ca02c; stroke-opacity: 0.8; stroke-width: 1.2; stroke-linecap: square"/>
   </g>
   <g id="patch_3">
    <path d="M 46.599375 313.435 
L 46.599375 7.2 
" style="fill: none; stroke: #000000; stroke-width: 0.8; stroke-linejoin: miter; stroke-linecap: square"/>
   </g>
   <g id="patch_4">
    <path d="M 561.019375 313.435 
L 561.019375 7.2 
" style="fill: none; stroke: #000000; stroke-width: 0.8; stroke-linejoin: miter; stroke-linecap: square"/>
   </g>
   <g id="patch_5">
    <path d="M 46.599375 313.435 
L 561.019375 313.435 
" style="fill: none; stroke: #000000; stroke-width: 0.8; stroke-linejoin: miter; stroke-linecap: square"/>
   </g>
   <g id="patch_6">
    <path d="M 46.599375 7.2 
L 561.019375 7.2 
" style="fill: none; stroke: #000000; stroke-width: 0.8; stroke-linejoin: miter; stroke-linecap: square"/>
   </g>
   <g id="legend_1">
    <g id="patch_7">
     <path d="M 467.861562 57.617187 
L 554.019375 57.617187 
Q 556.019375 57.617187 556.019375 55.617187 
L 556.019375 14.2 
Q 556.019375 12.2 554.019375 12.2 
L 467.861562 12.2 
Q 465.861562 12.2 465.861562 14.2 
L 465.861562 55.617187 
Q 465.861562 57.617187 467.861562 57.617187 
z
" style="fill: #ffffff; opacity: 0.8; stroke: #cccccc; stroke-linejoin: miter"/>
    </g>
    <g id="line2d_32">
     <path d="M 469.861562 19.7 
L 479.861562 19.7 
L 489.861562 19.7 
" style="fill: none; stroke: #1f77b4; stroke-opacity: 0.8; stroke-width: 1.2; stroke-linecap: square"/>
    </g>
    <g id="text_17">
     <!-- Simple Rank -->
     <g transform="translate(497.861562 23.2) scale(0.1 -0.1)">
      <defs>
       <path id="TimesNewRomanPSMT-53" d="M 2934 4334 
L 2934 2869 
L 2819 2869 
Q 2763 3291 2617 3541 
Q 2472 3791 2203 3937 
Q 1934 4084 1647 4084 
Q 1322 4084 1109 3886 
Q 897 3688 897 3434 
Q 897 3241 1031 3081 
Q 1225 2847 1953 2456 
Q 2547 2138 2764 1967 
Q 2981 1797 3098 1565 
Q 3216 1334 3216 1081 
Q 3216 600 2842 251 
Q 2469 -97 1881 -97 
Q 1697 -97 1534 -69 
Q 1438 -53 1133 45 
Q 828 144 747 144 
Q 669 144 623 97 
Q 578 50 556 -97 
L 441 -97 
L 441 1356 
L 556 1356 
Q 638 900 775 673 
Q 913 447 1195 297 
Q 1478 147 1816 147 
Q 2206 147 2432 353 
Q 2659 559 2659 841 
Q 2659 997 2573 1156 
Q 2488 1316 2306 1453 
Q 2184 1547 1640 1851 
Q 1097 2156 867 2337 
Q 638 2519 519 2737 
Q 400 2956 400 3219 
Q 400 3675 750 4004 
Q 1100 4334 1641 4334 
Q 1978 4334 2356 4169 
Q 2531 4091 2603 4091 
Q 2684 4091 2736 4139 
Q 2788 4188 2819 4334 
L 2934 4334 
z
" transform="scale(0.015625)"/>
       <path id="TimesNewRomanPSMT-70" d="M -6 2578 
L 875 2934 
L 994 2934 
L 994 2266 
Q 1216 2644 1439 2795 
Q 1663 2947 1909 2947 
Q 2341 2947 2628 2609 
Q 2981 2197 2981 1534 
Q 2981 794 2556 309 
Q 2206 -88 1675 -88 
Q 1444 -88 1275 -22 
Q 1150 25 994 166 
L 994 -706 
Q 994 -1000 1030 -1079 
Q 1066 -1159 1155 -1206 
Q 1244 -1253 1478 -1253 
L 1478 -1369 
L -22 -1369 
L -22 -1253 
L 56 -1253 
Q 228 -1256 350 -1188 
Q 409 -1153 442 -1076 
Q 475 -1000 475 -688 
L 475 2019 
Q 475 2297 450 2372 
Q 425 2447 370 2484 
Q 316 2522 222 2522 
Q 147 2522 31 2478 
L -6 2578 
z
M 994 2081 
L 994 1013 
Q 994 666 1022 556 
Q 1066 375 1236 237 
Q 1406 100 1666 100 
Q 1978 100 2172 344 
Q 2425 663 2425 1241 
Q 2425 1897 2138 2250 
Q 1938 2494 1663 2494 
Q 1513 2494 1366 2419 
Q 1253 2363 994 2081 
z
" transform="scale(0.015625)"/>
       <path id="TimesNewRomanPSMT-6e" d="M 1034 2341 
Q 1538 2947 1994 2947 
Q 2228 2947 2397 2830 
Q 2566 2713 2666 2444 
Q 2734 2256 2734 1869 
L 2734 647 
Q 2734 375 2778 278 
Q 2813 200 2889 156 
Q 2966 113 3172 113 
L 3172 0 
L 1756 0 
L 1756 113 
L 1816 113 
Q 2016 113 2095 173 
Q 2175 234 2206 353 
Q 2219 400 2219 647 
L 2219 1819 
Q 2219 2209 2117 2386 
Q 2016 2563 1775 2563 
Q 1403 2563 1034 2156 
L 1034 647 
Q 1034 356 1069 288 
Q 1113 197 1189 155 
Q 1266 113 1500 113 
L 1500 0 
L 84 0 
L 84 113 
L 147 113 
Q 366 113 442 223 
Q 519 334 519 647 
L 519 1709 
Q 519 2225 495 2337 
Q 472 2450 423 2490 
Q 375 2531 294 2531 
Q 206 2531 84 2484 
L 38 2597 
L 900 2947 
L 1034 2947 
L 1034 2341 
z
" transform="scale(0.015625)"/>
       <path id="TimesNewRomanPSMT-6b" d="M 1047 4444 
L 1047 1597 
L 1775 2259 
Q 2006 2472 2044 2528 
Q 2069 2566 2069 2603 
Q 2069 2666 2017 2711 
Q 1966 2756 1847 2763 
L 1847 2863 
L 3091 2863 
L 3091 2763 
Q 2834 2756 2664 2684 
Q 2494 2613 2291 2428 
L 1556 1750 
L 2291 822 
Q 2597 438 2703 334 
Q 2853 188 2966 144 
Q 3044 113 3238 113 
L 3238 0 
L 1847 0 
L 1847 113 
Q 1966 116 2008 148 
Q 2050 181 2050 241 
Q 2050 313 1925 472 
L 1047 1594 
L 1047 644 
Q 1047 366 1086 278 
Q 1125 191 1197 153 
Q 1269 116 1509 113 
L 1509 0 
L 53 0 
L 53 113 
Q 272 113 381 166 
Q 447 200 481 272 
Q 528 375 528 628 
L 528 3234 
Q 528 3731 506 3842 
Q 484 3953 434 3995 
Q 384 4038 303 4038 
Q 238 4038 106 3984 
L 53 4094 
L 903 4444 
L 1047 4444 
z
" transform="scale(0.015625)"/>
      </defs>
      <use xlink:href="#TimesNewRomanPSMT-53"/>
      <use xlink:href="#TimesNewRomanPSMT-69" transform="translate(55.615234 0)"/>
      <use xlink:href="#TimesNewRomanPSMT-6d" transform="translate(83.398438 0)"/>
      <use xlink:href="#TimesNewRomanPSMT-70" transform="translate(161.181641 0)"/>
      <use xlink:href="#TimesNewRomanPSMT-6c" transform="translate(211.181641 0)"/>
      <use xlink:href="#TimesNewRomanPSMT-65" transform="translate(238.964844 0)"/>
      <use xlink:href="#TimesNewRomanPSMT-20" transform="translate(283.349609 0)"/>
      <use xlink:href="#TimesNewRomanPSMT-52" transform="translate(308.349609 0)"/>
      <use xlink:href="#TimesNewRomanPSMT-61" transform="translate(375.048828 0)"/>
      <use xlink:href="#TimesNewRomanPSMT-6e" transform="translate(419.433594 0)"/>
      <use xlink:href="#TimesNewRomanPSMT-6b" transform="translate(469.433594 0)"/>
     </g>
    </g>
    <g id="line2d_33">
     <path d="M 469.861562 33.839062 
L 479.861562 33.839062 
L 489.861562 33.839062 
" style="fill: none; stroke: #d62728; stroke-opacity: 0.8; stroke-width: 1.2; stroke-linecap: square"/>
    </g>
    <g id="text_18">
     <!-- Mean Rank -->
     <g transform="translate(497.861562 37.339062) scale(0.1 -0.1)">
      <defs>
       <path id="TimesNewRomanPSMT-4d" d="M 2619 0 
L 981 3566 
L 981 734 
Q 981 344 1066 247 
Q 1181 116 1431 116 
L 1581 116 
L 1581 0 
L 106 0 
L 106 116 
L 256 116 
Q 525 116 638 278 
Q 706 378 706 734 
L 706 3503 
Q 706 3784 644 3909 
Q 600 4000 483 4061 
Q 366 4122 106 4122 
L 106 4238 
L 1306 4238 
L 2844 922 
L 4356 4238 
L 5556 4238 
L 5556 4122 
L 5409 4122 
Q 5138 4122 5025 3959 
Q 4956 3859 4956 3503 
L 4956 734 
Q 4956 344 5044 247 
Q 5159 116 5409 116 
L 5556 116 
L 5556 0 
L 3756 0 
L 3756 116 
L 3906 116 
Q 4178 116 4288 278 
Q 4356 378 4356 734 
L 4356 3566 
L 2722 0 
L 2619 0 
z
" transform="scale(0.015625)"/>
      </defs>
      <use xlink:href="#TimesNewRomanPSMT-4d"/>
      <use xlink:href="#TimesNewRomanPSMT-65" transform="translate(88.916016 0)"/>
      <use xlink:href="#TimesNewRomanPSMT-61" transform="translate(133.300781 0)"/>
      <use xlink:href="#TimesNewRomanPSMT-6e" transform="translate(177.685547 0)"/>
      <use xlink:href="#TimesNewRomanPSMT-20" transform="translate(227.685547 0)"/>
      <use xlink:href="#TimesNewRomanPSMT-52" transform="translate(252.685547 0)"/>
      <use xlink:href="#TimesNewRomanPSMT-61" transform="translate(319.384766 0)"/>
      <use xlink:href="#TimesNewRomanPSMT-6e" transform="translate(363.769531 0)"/>
      <use xlink:href="#TimesNewRomanPSMT-6b" transform="translate(413.769531 0)"/>
     </g>
    </g>
    <g id="line2d_34">
     <path d="M 469.861562 47.978125 
L 479.861562 47.978125 
L 489.861562 47.978125 
" style="fill: none; stroke: #2ca02c; stroke-opacity: 0.8; stroke-width: 1.2; stroke-linecap: square"/>
    </g>
    <g id="text_19">
     <!-- Median Rank -->
     <g transform="translate(497.861562 51.478125) scale(0.1 -0.1)">
      <defs>
       <path id="TimesNewRomanPSMT-64" d="M 2222 322 
Q 2013 103 1813 7 
Q 1613 -88 1381 -88 
Q 913 -88 563 304 
Q 213 697 213 1313 
Q 213 1928 600 2439 
Q 988 2950 1597 2950 
Q 1975 2950 2222 2709 
L 2222 3238 
Q 2222 3728 2198 3840 
Q 2175 3953 2125 3993 
Q 2075 4034 2000 4034 
Q 1919 4034 1784 3984 
L 1744 4094 
L 2597 4444 
L 2738 4444 
L 2738 1134 
Q 2738 631 2761 520 
Q 2784 409 2836 365 
Q 2888 322 2956 322 
Q 3041 322 3181 375 
L 3216 266 
L 2366 -88 
L 2222 -88 
L 2222 322 
z
M 2222 541 
L 2222 2016 
Q 2203 2228 2109 2403 
Q 2016 2578 1861 2667 
Q 1706 2756 1559 2756 
Q 1284 2756 1069 2509 
Q 784 2184 784 1559 
Q 784 928 1059 592 
Q 1334 256 1672 256 
Q 1956 256 2222 541 
z
" transform="scale(0.015625)"/>
      </defs>
      <use xlink:href="#TimesNewRomanPSMT-4d"/>
      <use xlink:href="#TimesNewRomanPSMT-65" transform="translate(88.916016 0)"/>
      <use xlink:href="#TimesNewRomanPSMT-64" transform="translate(133.300781 0)"/>
      <use xlink:href="#TimesNewRomanPSMT-69" transform="translate(183.300781 0)"/>
      <use xlink:href="#TimesNewRomanPSMT-61" transform="translate(211.083984 0)"/>
      <use xlink:href="#TimesNewRomanPSMT-6e" transform="translate(255.46875 0)"/>
      <use xlink:href="#TimesNewRomanPSMT-20" transform="translate(305.46875 0)"/>
      <use xlink:href="#TimesNewRomanPSMT-52" transform="translate(330.46875 0)"/>
      <use xlink:href="#TimesNewRomanPSMT-61" transform="translate(397.167969 0)"/>
      <use xlink:href="#TimesNewRomanPSMT-6e" transform="translate(441.552734 0)"/>
      <use xlink:href="#TimesNewRomanPSMT-6b" transform="translate(491.552734 0)"/>
     </g>
    </g>
   </g>
  </g>
 </g>
 <defs>
  <clipPath id="p5ce0413673">
   <rect x="46.599375" y="7.2" width="514.42" height="306.235"/>
  </clipPath>
 </defs>
</svg>
