<?xml version="1.0" encoding="utf-8" standalone="no"?>
<!DOCTYPE svg PUBLIC "-//W3C//DTD SVG 1.1//EN"
  "http://www.w3.org/Graphics/SVG/1.1/DTD/svg11.dtd">
<svg xmlns:xlink="http://www.w3.org/1999/xlink" width="567.965625pt" height="351.119638pt" viewBox="0 0 567.965625 351.119638" xmlns="http://www.w3.org/2000/svg" version="1.1">
 <metadata>
  <rdf:RDF xmlns:dc="http://purl.org/dc/elements/1.1/" xmlns:cc="http://creativecommons.org/ns#" xmlns:rdf="http://www.w3.org/1999/02/22-rdf-syntax-ns#">
   <cc:Work>
    <dc:type rdf:resource="http://purl.org/dc/dcmitype/StillImage"/>
    <dc:date>2026-03-25T11:10:43.616884</dc:date>
    <dc:format>image/svg+xml</dc:format>
    <dc:creator>
     <cc:Agent>
      <dc:title>Matplotlib v3.10.8, https://matplotlib.org/</dc:title>
     </cc:Agent>
    </dc:creator>
   </cc:Work>
  </rdf:RDF>
 </metadata>
 <defs>
  <style type="text/css">*{stroke-linejoin: round; stroke-linecap: butt}</style>
 </defs>
 <g id="figure_1">
  <g id="patch_1">
   <path d="M 0 351.119638 
L 567.965625 351.119638 
L 567.965625 0 
L 0 0 
z
" style="fill: #ffffff"/>
  </g>
  <g id="axes_1">
   <g id="patch_2">
    <path d="M 51.621875 312.91495 
L 560.765625 312.91495 
L 560.765625 7.2 
L 51.621875 7.2 
z
" style="fill: #ffffff"/>
   </g>
   <g id="matplotlib.axis_1">
    <g id="xtick_1">
     <g id="line2d_1">
      <path d="M 74.764773 312.91495 
L 74.764773 7.2 
" clip-path="url(#p6711d3b12f)" style="fill: none; stroke-dasharray: 2.96,1.28; stroke-dashoffset: 0; stroke: #b0b0b0; stroke-opacity: 0.6; stroke-width: 0.8"/>
     </g>
     <g id="line2d_2">
      <defs>
       <path id="m55d215f5e0" d="M 0 0 
L 0 3.5 
" style="stroke: #000000; stroke-width: 0.8"/>
      </defs>
      <g>
       <use xlink:href="#m55d215f5e0" x="74.764773" y="312.91495" style="stroke: #000000; stroke-width: 0.8"/>
      </g>
     </g>
     <g id="text_1">
      <!-- 0 -->
      <g transform="translate(72.264773 326.8587) scale(0.1 -0.1)">
       <defs>
        <path id="TimesNewRomanPSMT-30" d="M 231 2094 
Q 231 2819 450 3342 
Q 669 3866 1031 4122 
Q 1313 4325 1613 4325 
Q 2100 4325 2488 3828 
Q 2972 3213 2972 2159 
Q 2972 1422 2759 906 
Q 2547 391 2217 158 
Q 1888 -75 1581 -75 
Q 975 -75 572 641 
Q 231 1244 231 2094 
z
M 844 2016 
Q 844 1141 1059 588 
Q 1238 122 1591 122 
Q 1759 122 1940 273 
Q 2122 425 2216 781 
Q 2359 1319 2359 2297 
Q 2359 3022 2209 3506 
Q 2097 3866 1919 4016 
Q 1791 4119 1609 4119 
Q 1397 4119 1231 3928 
Q 1006 3669 925 3112 
Q 844 2556 844 2016 
z
" transform="scale(0.015625)"/>
       </defs>
       <use xlink:href="#TimesNewRomanPSMT-30"/>
      </g>
     </g>
    </g>
    <g id="xtick_2">
     <g id="line2d_3">
      <path d="M 141.962501 312.91495 
L 141.962501 7.2 
" clip-path="url(#p6711d3b12f)" style="fill: none; stroke-dasharray: 2.96,1.28; stroke-dashoffset: 0; stroke: #b0b0b0; stroke-opacity: 0.6; stroke-width: 0.8"/>
     </g>
     <g id="line2d_4">
      <g>
       <use xlink:href="#m55d215f5e0" x="141.962501" y="312.91495" style="stroke: #000000; stroke-width: 0.8"/>
      </g>
     </g>
     <g id="text_2">
      <!-- 250 -->
      <g transform="translate(134.462501 326.8587) scale(0.1 -0.1)">
       <defs>
        <path id="TimesNewRomanPSMT-32" d="M 2934 816 
L 2638 0 
L 138 0 
L 138 116 
Q 1241 1122 1691 1759 
Q 2141 2397 2141 2925 
Q 2141 3328 1894 3587 
Q 1647 3847 1303 3847 
Q 991 3847 742 3664 
Q 494 3481 375 3128 
L 259 3128 
Q 338 3706 661 4015 
Q 984 4325 1469 4325 
Q 1984 4325 2329 3994 
Q 2675 3663 2675 3213 
Q 2675 2891 2525 2569 
Q 2294 2063 1775 1497 
Q 997 647 803 472 
L 1909 472 
Q 2247 472 2383 497 
Q 2519 522 2628 598 
Q 2738 675 2819 816 
L 2934 816 
z
" transform="scale(0.015625)"/>
        <path id="TimesNewRomanPSMT-35" d="M 2778 4238 
L 2534 3706 
L 1259 3706 
L 981 3138 
Q 1809 3016 2294 2522 
Q 2709 2097 2709 1522 
Q 2709 1188 2573 903 
Q 2438 619 2231 419 
Q 2025 219 1772 97 
Q 1413 -75 1034 -75 
Q 653 -75 479 54 
Q 306 184 306 341 
Q 306 428 378 495 
Q 450 563 559 563 
Q 641 563 702 538 
Q 763 513 909 409 
Q 1144 247 1384 247 
Q 1750 247 2026 523 
Q 2303 800 2303 1197 
Q 2303 1581 2056 1914 
Q 1809 2247 1375 2428 
Q 1034 2569 447 2591 
L 1259 4238 
L 2778 4238 
z
" transform="scale(0.015625)"/>
       </defs>
       <use xlink:href="#TimesNewRomanPSMT-32"/>
       <use xlink:href="#TimesNewRomanPSMT-35" transform="translate(50 0)"/>
       <use xlink:href="#TimesNewRomanPSMT-30" transform="translate(100 0)"/>
      </g>
     </g>
    </g>
    <g id="xtick_3">
     <g id="line2d_5">
      <path d="M 209.16023 312.91495 
L 209.16023 7.2 
" clip-path="url(#p6711d3b12f)" style="fill: none; stroke-dasharray: 2.96,1.28; stroke-dashoffset: 0; stroke: #b0b0b0; stroke-opacity: 0.6; stroke-width: 0.8"/>
     </g>
     <g id="line2d_6">
      <g>
       <use xlink:href="#m55d215f5e0" x="209.16023" y="312.91495" style="stroke: #000000; stroke-width: 0.8"/>
      </g>
     </g>
     <g id="text_3">
      <!-- 500 -->
      <g transform="translate(201.66023 326.8587) scale(0.1 -0.1)">
       <use xlink:href="#TimesNewRomanPSMT-35"/>
       <use xlink:href="#TimesNewRomanPSMT-30" transform="translate(50 0)"/>
       <use xlink:href="#TimesNewRomanPSMT-30" transform="translate(100 0)"/>
      </g>
     </g>
    </g>
    <g id="xtick_4">
     <g id="line2d_7">
      <path d="M 276.357959 312.91495 
L 276.357959 7.2 
" clip-path="url(#p6711d3b12f)" style="fill: none; stroke-dasharray: 2.96,1.28; stroke-dashoffset: 0; stroke: #b0b0b0; stroke-opacity: 0.6; stroke-width: 0.8"/>
     </g>
     <g id="line2d_8">
      <g>
       <use xlink:href="#m55d215f5e0" x="276.357959" y="312.91495" style="stroke: #000000; stroke-width: 0.8"/>
      </g>
     </g>
     <g id="text_4">
      <!-- 750 -->
      <g transform="translate(268.857959 326.8587) scale(0.1 -0.1)">
       <defs>
        <path id="TimesNewRomanPSMT-37" d="M 644 4238 
L 2916 4238 
L 2916 4119 
L 1503 -88 
L 1153 -88 
L 2419 3728 
L 1253 3728 
Q 900 3728 750 3644 
Q 488 3500 328 3200 
L 238 3234 
L 644 4238 
z
" transform="scale(0.015625)"/>
       </defs>
       <use xlink:href="#TimesNewRomanPSMT-37"/>
       <use xlink:href="#TimesNewRomanPSMT-35" transform="translate(50 0)"/>
       <use xlink:href="#TimesNewRomanPSMT-30" transform="translate(100 0)"/>
      </g>
     </g>
    </g>
    <g id="xtick_5">
     <g id="line2d_9">
      <path d="M 343.555687 312.91495 
L 343.555687 7.2 
" clip-path="url(#p6711d3b12f)" style="fill: none; stroke-dasharray: 2.96,1.28; stroke-dashoffset: 0; stroke: #b0b0b0; stroke-opacity: 0.6; stroke-width: 0.8"/>
     </g>
     <g id="line2d_10">
      <g>
       <use xlink:href="#m55d215f5e0" x="343.555687" y="312.91495" style="stroke: #000000; stroke-width: 0.8"/>
      </g>
     </g>
     <g id="text_5">
      <!-- 1000 -->
      <g transform="translate(333.555687 326.8587) scale(0.1 -0.1)">
       <defs>
        <path id="TimesNewRomanPSMT-31" d="M 750 3822 
L 1781 4325 
L 1884 4325 
L 1884 747 
Q 1884 391 1914 303 
Q 1944 216 2037 169 
Q 2131 122 2419 116 
L 2419 0 
L 825 0 
L 825 116 
Q 1125 122 1212 167 
Q 1300 213 1334 289 
Q 1369 366 1369 747 
L 1369 3034 
Q 1369 3497 1338 3628 
Q 1316 3728 1258 3775 
Q 1200 3822 1119 3822 
Q 1003 3822 797 3725 
L 750 3822 
z
" transform="scale(0.015625)"/>
       </defs>
       <use xlink:href="#TimesNewRomanPSMT-31"/>
       <use xlink:href="#TimesNewRomanPSMT-30" transform="translate(50 0)"/>
       <use xlink:href="#TimesNewRomanPSMT-30" transform="translate(100 0)"/>
       <use xlink:href="#TimesNewRomanPSMT-30" transform="translate(150 0)"/>
      </g>
     </g>
    </g>
    <g id="xtick_6">
     <g id="line2d_11">
      <path d="M 410.753416 312.91495 
L 410.753416 7.2 
" clip-path="url(#p6711d3b12f)" style="fill: none; stroke-dasharray: 2.96,1.28; stroke-dashoffset: 0; stroke: #b0b0b0; stroke-opacity: 0.6; stroke-width: 0.8"/>
     </g>
     <g id="line2d_12">
      <g>
       <use xlink:href="#m55d215f5e0" x="410.753416" y="312.91495" style="stroke: #000000; stroke-width: 0.8"/>
      </g>
     </g>
     <g id="text_6">
      <!-- 1250 -->
      <g transform="translate(400.753416 326.8587) scale(0.1 -0.1)">
       <use xlink:href="#TimesNewRomanPSMT-31"/>
       <use xlink:href="#TimesNewRomanPSMT-32" transform="translate(50 0)"/>
       <use xlink:href="#TimesNewRomanPSMT-35" transform="translate(100 0)"/>
       <use xlink:href="#TimesNewRomanPSMT-30" transform="translate(150 0)"/>
      </g>
     </g>
    </g>
    <g id="xtick_7">
     <g id="line2d_13">
      <path d="M 477.951144 312.91495 
L 477.951144 7.2 
" clip-path="url(#p6711d3b12f)" style="fill: none; stroke-dasharray: 2.96,1.28; stroke-dashoffset: 0; stroke: #b0b0b0; stroke-opacity: 0.6; stroke-width: 0.8"/>
     </g>
     <g id="line2d_14">
      <g>
       <use xlink:href="#m55d215f5e0" x="477.951144" y="312.91495" style="stroke: #000000; stroke-width: 0.8"/>
      </g>
     </g>
     <g id="text_7">
      <!-- 1500 -->
      <g transform="translate(467.951144 326.8587) scale(0.1 -0.1)">
       <use xlink:href="#TimesNewRomanPSMT-31"/>
       <use xlink:href="#TimesNewRomanPSMT-35" transform="translate(50 0)"/>
       <use xlink:href="#TimesNewRomanPSMT-30" transform="translate(100 0)"/>
       <use xlink:href="#TimesNewRomanPSMT-30" transform="translate(150 0)"/>
      </g>
     </g>
    </g>
    <g id="xtick_8">
     <g id="line2d_15">
      <path d="M 545.148873 312.91495 
L 545.148873 7.2 
" clip-path="url(#p6711d3b12f)" style="fill: none; stroke-dasharray: 2.96,1.28; stroke-dashoffset: 0; stroke: #b0b0b0; stroke-opacity: 0.6; stroke-width: 0.8"/>
     </g>
     <g id="line2d_16">
      <g>
       <use xlink:href="#m55d215f5e0" x="545.148873" y="312.91495" style="stroke: #000000; stroke-width: 0.8"/>
      </g>
     </g>
     <g id="text_8">
      <!-- 1750 -->
      <g transform="translate(535.148873 326.8587) scale(0.1 -0.1)">
       <use xlink:href="#TimesNewRomanPSMT-31"/>
       <use xlink:href="#TimesNewRomanPSMT-37" transform="translate(50 0)"/>
       <use xlink:href="#TimesNewRomanPSMT-35" transform="translate(100 0)"/>
       <use xlink:href="#TimesNewRomanPSMT-30" transform="translate(150 0)"/>
      </g>
     </g>
    </g>
    <g id="text_9">
     <!-- Failure Time (Days) -->
     <g transform="translate(257.524375 341.330263) scale(0.12 -0.12)">
      <defs>
       <path id="TimesNewRomanPSMT-46" d="M 1309 4006 
L 1309 2341 
L 2081 2341 
Q 2347 2341 2470 2458 
Q 2594 2575 2634 2922 
L 2750 2922 
L 2750 1488 
L 2634 1488 
Q 2631 1734 2570 1850 
Q 2509 1966 2401 2023 
Q 2294 2081 2081 2081 
L 1309 2081 
L 1309 750 
Q 1309 428 1350 325 
Q 1381 247 1481 191 
Q 1619 116 1769 116 
L 1922 116 
L 1922 0 
L 103 0 
L 103 116 
L 253 116 
Q 516 116 634 269 
Q 709 369 709 750 
L 709 3488 
Q 709 3809 669 3913 
Q 638 3991 541 4047 
Q 406 4122 253 4122 
L 103 4122 
L 103 4238 
L 3256 4238 
L 3297 3306 
L 3188 3306 
Q 3106 3603 2998 3742 
Q 2891 3881 2733 3943 
Q 2575 4006 2244 4006 
L 1309 4006 
z
" transform="scale(0.015625)"/>
       <path id="TimesNewRomanPSMT-61" d="M 1822 413 
Q 1381 72 1269 19 
Q 1100 -59 909 -59 
Q 613 -59 420 144 
Q 228 347 228 678 
Q 228 888 322 1041 
Q 450 1253 767 1440 
Q 1084 1628 1822 1897 
L 1822 2009 
Q 1822 2438 1686 2597 
Q 1550 2756 1291 2756 
Q 1094 2756 978 2650 
Q 859 2544 859 2406 
L 866 2225 
Q 866 2081 792 2003 
Q 719 1925 600 1925 
Q 484 1925 411 2006 
Q 338 2088 338 2228 
Q 338 2497 613 2722 
Q 888 2947 1384 2947 
Q 1766 2947 2009 2819 
Q 2194 2722 2281 2516 
Q 2338 2381 2338 1966 
L 2338 994 
Q 2338 584 2353 492 
Q 2369 400 2405 369 
Q 2441 338 2488 338 
Q 2538 338 2575 359 
Q 2641 400 2828 588 
L 2828 413 
Q 2478 -56 2159 -56 
Q 2006 -56 1915 50 
Q 1825 156 1822 413 
z
M 1822 616 
L 1822 1706 
Q 1350 1519 1213 1441 
Q 966 1303 859 1153 
Q 753 1003 753 825 
Q 753 600 887 451 
Q 1022 303 1197 303 
Q 1434 303 1822 616 
z
" transform="scale(0.015625)"/>
       <path id="TimesNewRomanPSMT-69" d="M 928 4444 
Q 1059 4444 1151 4351 
Q 1244 4259 1244 4128 
Q 1244 3997 1151 3903 
Q 1059 3809 928 3809 
Q 797 3809 703 3903 
Q 609 3997 609 4128 
Q 609 4259 701 4351 
Q 794 4444 928 4444 
z
M 1188 2947 
L 1188 647 
Q 1188 378 1227 289 
Q 1266 200 1342 156 
Q 1419 113 1622 113 
L 1622 0 
L 231 0 
L 231 113 
Q 441 113 512 153 
Q 584 194 626 287 
Q 669 381 669 647 
L 669 1750 
Q 669 2216 641 2353 
Q 619 2453 572 2492 
Q 525 2531 444 2531 
Q 356 2531 231 2484 
L 188 2597 
L 1050 2947 
L 1188 2947 
z
" transform="scale(0.015625)"/>
       <path id="TimesNewRomanPSMT-6c" d="M 1184 4444 
L 1184 647 
Q 1184 378 1223 290 
Q 1263 203 1344 158 
Q 1425 113 1647 113 
L 1647 0 
L 244 0 
L 244 113 
Q 441 113 512 153 
Q 584 194 625 287 
Q 666 381 666 647 
L 666 3247 
Q 666 3731 644 3842 
Q 622 3953 573 3993 
Q 525 4034 450 4034 
Q 369 4034 244 3984 
L 191 4094 
L 1044 4444 
L 1184 4444 
z
" transform="scale(0.015625)"/>
       <path id="TimesNewRomanPSMT-75" d="M 2709 2863 
L 2709 1128 
Q 2709 631 2732 520 
Q 2756 409 2807 365 
Q 2859 322 2928 322 
Q 3025 322 3147 375 
L 3191 266 
L 2334 -88 
L 2194 -88 
L 2194 519 
Q 1825 119 1631 15 
Q 1438 -88 1222 -88 
Q 981 -88 804 51 
Q 628 191 559 409 
Q 491 628 491 1028 
L 491 2306 
Q 491 2509 447 2587 
Q 403 2666 317 2708 
Q 231 2750 6 2747 
L 6 2863 
L 1009 2863 
L 1009 947 
Q 1009 547 1148 422 
Q 1288 297 1484 297 
Q 1619 297 1789 381 
Q 1959 466 2194 703 
L 2194 2325 
Q 2194 2569 2105 2655 
Q 2016 2741 1734 2747 
L 1734 2863 
L 2709 2863 
z
" transform="scale(0.015625)"/>
       <path id="TimesNewRomanPSMT-72" d="M 1038 2947 
L 1038 2303 
Q 1397 2947 1775 2947 
Q 1947 2947 2059 2842 
Q 2172 2738 2172 2600 
Q 2172 2478 2090 2393 
Q 2009 2309 1897 2309 
Q 1788 2309 1652 2417 
Q 1516 2525 1450 2525 
Q 1394 2525 1328 2463 
Q 1188 2334 1038 2041 
L 1038 669 
Q 1038 431 1097 309 
Q 1138 225 1241 169 
Q 1344 113 1538 113 
L 1538 0 
L 72 0 
L 72 113 
Q 291 113 397 181 
Q 475 231 506 341 
Q 522 394 522 644 
L 522 1753 
Q 522 2253 501 2348 
Q 481 2444 426 2487 
Q 372 2531 291 2531 
Q 194 2531 72 2484 
L 41 2597 
L 906 2947 
L 1038 2947 
z
" transform="scale(0.015625)"/>
       <path id="TimesNewRomanPSMT-65" d="M 681 1784 
Q 678 1147 991 784 
Q 1303 422 1725 422 
Q 2006 422 2214 576 
Q 2422 731 2563 1106 
L 2659 1044 
Q 2594 616 2278 264 
Q 1963 -88 1488 -88 
Q 972 -88 605 314 
Q 238 716 238 1394 
Q 238 2128 614 2539 
Q 991 2950 1559 2950 
Q 2041 2950 2350 2633 
Q 2659 2316 2659 1784 
L 681 1784 
z
M 681 1966 
L 2006 1966 
Q 1991 2241 1941 2353 
Q 1863 2528 1708 2628 
Q 1553 2728 1384 2728 
Q 1125 2728 920 2526 
Q 716 2325 681 1966 
z
" transform="scale(0.015625)"/>
       <path id="TimesNewRomanPSMT-20" transform="scale(0.015625)"/>
       <path id="TimesNewRomanPSMT-54" d="M 3703 4238 
L 3750 3244 
L 3631 3244 
Q 3597 3506 3538 3619 
Q 3441 3800 3280 3886 
Q 3119 3972 2856 3972 
L 2259 3972 
L 2259 734 
Q 2259 344 2344 247 
Q 2463 116 2709 116 
L 2856 116 
L 2856 0 
L 1059 0 
L 1059 116 
L 1209 116 
Q 1478 116 1591 278 
Q 1659 378 1659 734 
L 1659 3972 
L 1150 3972 
Q 853 3972 728 3928 
Q 566 3869 450 3700 
Q 334 3531 313 3244 
L 194 3244 
L 244 4238 
L 3703 4238 
z
" transform="scale(0.015625)"/>
       <path id="TimesNewRomanPSMT-6d" d="M 1050 2338 
Q 1363 2650 1419 2697 
Q 1559 2816 1721 2881 
Q 1884 2947 2044 2947 
Q 2313 2947 2506 2790 
Q 2700 2634 2766 2338 
Q 3088 2713 3309 2830 
Q 3531 2947 3766 2947 
Q 3994 2947 4170 2830 
Q 4347 2713 4450 2447 
Q 4519 2266 4519 1878 
L 4519 647 
Q 4519 378 4559 278 
Q 4591 209 4675 161 
Q 4759 113 4950 113 
L 4950 0 
L 3538 0 
L 3538 113 
L 3597 113 
Q 3781 113 3884 184 
Q 3956 234 3988 344 
Q 4000 397 4000 647 
L 4000 1878 
Q 4000 2228 3916 2372 
Q 3794 2572 3525 2572 
Q 3359 2572 3192 2489 
Q 3025 2406 2788 2181 
L 2781 2147 
L 2788 2013 
L 2788 647 
Q 2788 353 2820 281 
Q 2853 209 2943 161 
Q 3034 113 3253 113 
L 3253 0 
L 1806 0 
L 1806 113 
Q 2044 113 2133 169 
Q 2222 225 2256 338 
Q 2272 391 2272 647 
L 2272 1878 
Q 2272 2228 2169 2381 
Q 2031 2581 1784 2581 
Q 1616 2581 1450 2491 
Q 1191 2353 1050 2181 
L 1050 647 
Q 1050 366 1089 281 
Q 1128 197 1204 155 
Q 1281 113 1516 113 
L 1516 0 
L 100 0 
L 100 113 
Q 297 113 375 155 
Q 453 197 493 289 
Q 534 381 534 647 
L 534 1741 
Q 534 2213 506 2350 
Q 484 2453 437 2492 
Q 391 2531 309 2531 
Q 222 2531 100 2484 
L 53 2597 
L 916 2947 
L 1050 2947 
L 1050 2338 
z
" transform="scale(0.015625)"/>
       <path id="TimesNewRomanPSMT-28" d="M 1988 -1253 
L 1988 -1369 
Q 1516 -1131 1200 -813 
Q 750 -359 506 256 
Q 263 872 263 1534 
Q 263 2503 741 3301 
Q 1219 4100 1988 4444 
L 1988 4313 
Q 1603 4100 1356 3731 
Q 1109 3363 987 2797 
Q 866 2231 866 1616 
Q 866 947 969 400 
Q 1050 -31 1165 -292 
Q 1281 -553 1476 -793 
Q 1672 -1034 1988 -1253 
z
" transform="scale(0.015625)"/>
       <path id="TimesNewRomanPSMT-44" d="M 109 0 
L 109 116 
L 269 116 
Q 538 116 650 288 
Q 719 391 719 750 
L 719 3488 
Q 719 3884 631 3984 
Q 509 4122 269 4122 
L 109 4122 
L 109 4238 
L 1834 4238 
Q 2784 4238 3279 4022 
Q 3775 3806 4076 3303 
Q 4378 2800 4378 2141 
Q 4378 1256 3841 663 
Q 3238 0 2003 0 
L 109 0 
z
M 1319 306 
Q 1716 219 1984 219 
Q 2709 219 3187 728 
Q 3666 1238 3666 2109 
Q 3666 2988 3187 3494 
Q 2709 4000 1959 4000 
Q 1678 4000 1319 3909 
L 1319 306 
z
" transform="scale(0.015625)"/>
       <path id="TimesNewRomanPSMT-79" d="M 38 2863 
L 1372 2863 
L 1372 2747 
L 1306 2747 
Q 1166 2747 1095 2686 
Q 1025 2625 1025 2534 
Q 1025 2413 1128 2197 
L 1825 753 
L 2466 2334 
Q 2519 2463 2519 2588 
Q 2519 2644 2497 2672 
Q 2472 2706 2419 2726 
Q 2366 2747 2231 2747 
L 2231 2863 
L 3163 2863 
L 3163 2747 
Q 3047 2734 2984 2696 
Q 2922 2659 2847 2556 
Q 2819 2513 2741 2316 
L 1575 -541 
Q 1406 -956 1132 -1168 
Q 859 -1381 606 -1381 
Q 422 -1381 303 -1275 
Q 184 -1169 184 -1031 
Q 184 -900 270 -820 
Q 356 -741 506 -741 
Q 609 -741 788 -809 
Q 913 -856 944 -856 
Q 1038 -856 1148 -759 
Q 1259 -663 1372 -384 
L 1575 113 
L 547 2272 
Q 500 2369 397 2513 
Q 319 2622 269 2659 
Q 197 2709 38 2747 
L 38 2863 
z
" transform="scale(0.015625)"/>
       <path id="TimesNewRomanPSMT-73" d="M 2050 2947 
L 2050 1972 
L 1947 1972 
Q 1828 2431 1642 2597 
Q 1456 2763 1169 2763 
Q 950 2763 815 2647 
Q 681 2531 681 2391 
Q 681 2216 781 2091 
Q 878 1963 1175 1819 
L 1631 1597 
Q 2266 1288 2266 781 
Q 2266 391 1970 151 
Q 1675 -88 1309 -88 
Q 1047 -88 709 6 
Q 606 38 541 38 
Q 469 38 428 -44 
L 325 -44 
L 325 978 
L 428 978 
Q 516 541 762 319 
Q 1009 97 1316 97 
Q 1531 97 1667 223 
Q 1803 350 1803 528 
Q 1803 744 1651 891 
Q 1500 1038 1047 1263 
Q 594 1488 453 1669 
Q 313 1847 313 2119 
Q 313 2472 555 2709 
Q 797 2947 1181 2947 
Q 1350 2947 1591 2875 
Q 1750 2828 1803 2828 
Q 1853 2828 1881 2850 
Q 1909 2872 1947 2947 
L 2050 2947 
z
" transform="scale(0.015625)"/>
       <path id="TimesNewRomanPSMT-29" d="M 144 4313 
L 144 4444 
Q 619 4209 934 3891 
Q 1381 3434 1625 2820 
Q 1869 2206 1869 1541 
Q 1869 572 1392 -226 
Q 916 -1025 144 -1369 
L 144 -1253 
Q 528 -1038 776 -670 
Q 1025 -303 1145 264 
Q 1266 831 1266 1447 
Q 1266 2113 1163 2663 
Q 1084 3094 967 3353 
Q 850 3613 656 3853 
Q 463 4094 144 4313 
z
" transform="scale(0.015625)"/>
      </defs>
      <use xlink:href="#TimesNewRomanPSMT-46"/>
      <use xlink:href="#TimesNewRomanPSMT-61" transform="translate(55.615234 0)"/>
      <use xlink:href="#TimesNewRomanPSMT-69" transform="translate(100 0)"/>
      <use xlink:href="#TimesNewRomanPSMT-6c" transform="translate(127.783203 0)"/>
      <use xlink:href="#TimesNewRomanPSMT-75" transform="translate(155.566406 0)"/>
      <use xlink:href="#TimesNewRomanPSMT-72" transform="translate(205.566406 0)"/>
      <use xlink:href="#TimesNewRomanPSMT-65" transform="translate(238.867188 0)"/>
      <use xlink:href="#TimesNewRomanPSMT-20" transform="translate(283.251953 0)"/>
      <use xlink:href="#TimesNewRomanPSMT-54" transform="translate(306.501953 0)"/>
      <use xlink:href="#TimesNewRomanPSMT-69" transform="translate(364.085938 0)"/>
      <use xlink:href="#TimesNewRomanPSMT-6d" transform="translate(391.869141 0)"/>
      <use xlink:href="#TimesNewRomanPSMT-65" transform="translate(469.652344 0)"/>
      <use xlink:href="#TimesNewRomanPSMT-20" transform="translate(514.037109 0)"/>
      <use xlink:href="#TimesNewRomanPSMT-28" transform="translate(539.037109 0)"/>
      <use xlink:href="#TimesNewRomanPSMT-44" transform="translate(572.337891 0)"/>
      <use xlink:href="#TimesNewRomanPSMT-61" transform="translate(644.554688 0)"/>
      <use xlink:href="#TimesNewRomanPSMT-79" transform="translate(688.939453 0)"/>
      <use xlink:href="#TimesNewRomanPSMT-73" transform="translate(738.939453 0)"/>
      <use xlink:href="#TimesNewRomanPSMT-29" transform="translate(777.855469 0)"/>
     </g>
    </g>
   </g>
   <g id="matplotlib.axis_2">
    <g id="ytick_1">
     <g id="line2d_17">
      <path d="M 51.621875 299.018816 
L 560.765625 299.018816 
" clip-path="url(#p6711d3b12f)" style="fill: none; stroke-dasharray: 2.96,1.28; stroke-dashoffset: 0; stroke: #b0b0b0; stroke-opacity: 0.6; stroke-width: 0.8"/>
     </g>
     <g id="line2d_18">
      <defs>
       <path id="me489440c20" d="M 0 0 
L -3.5 0 
" style="stroke: #000000; stroke-width: 0.8"/>
      </defs>
      <g>
       <use xlink:href="#me489440c20" x="51.621875" y="299.018816" style="stroke: #000000; stroke-width: 0.8"/>
      </g>
     </g>
     <g id="text_10">
      <!-- 0.000 -->
      <g transform="translate(22.121875 302.490691) scale(0.1 -0.1)">
       <defs>
        <path id="TimesNewRomanPSMT-2e" d="M 800 606 
Q 947 606 1047 504 
Q 1147 403 1147 259 
Q 1147 116 1045 14 
Q 944 -88 800 -88 
Q 656 -88 554 14 
Q 453 116 453 259 
Q 453 406 554 506 
Q 656 606 800 606 
z
" transform="scale(0.015625)"/>
       </defs>
       <use xlink:href="#TimesNewRomanPSMT-30"/>
       <use xlink:href="#TimesNewRomanPSMT-2e" transform="translate(50 0)"/>
       <use xlink:href="#TimesNewRomanPSMT-30" transform="translate(75 0)"/>
       <use xlink:href="#TimesNewRomanPSMT-30" transform="translate(125 0)"/>
       <use xlink:href="#TimesNewRomanPSMT-30" transform="translate(175 0)"/>
      </g>
     </g>
    </g>
    <g id="ytick_2">
     <g id="line2d_19">
      <path d="M 51.621875 263.083413 
L 560.765625 263.083413 
" clip-path="url(#p6711d3b12f)" style="fill: none; stroke-dasharray: 2.96,1.28; stroke-dashoffset: 0; stroke: #b0b0b0; stroke-opacity: 0.6; stroke-width: 0.8"/>
     </g>
     <g id="line2d_20">
      <g>
       <use xlink:href="#me489440c20" x="51.621875" y="263.083413" style="stroke: #000000; stroke-width: 0.8"/>
      </g>
     </g>
     <g id="text_11">
      <!-- 0.001 -->
      <g transform="translate(22.121875 266.555288) scale(0.1 -0.1)">
       <use xlink:href="#TimesNewRomanPSMT-30"/>
       <use xlink:href="#TimesNewRomanPSMT-2e" transform="translate(50 0)"/>
       <use xlink:href="#TimesNewRomanPSMT-30" transform="translate(75 0)"/>
       <use xlink:href="#TimesNewRomanPSMT-30" transform="translate(125 0)"/>
       <use xlink:href="#TimesNewRomanPSMT-31" transform="translate(175 0)"/>
      </g>
     </g>
    </g>
    <g id="ytick_3">
     <g id="line2d_21">
      <path d="M 51.621875 227.14801 
L 560.765625 227.14801 
" clip-path="url(#p6711d3b12f)" style="fill: none; stroke-dasharray: 2.96,1.28; stroke-dashoffset: 0; stroke: #b0b0b0; stroke-opacity: 0.6; stroke-width: 0.8"/>
     </g>
     <g id="line2d_22">
      <g>
       <use xlink:href="#me489440c20" x="51.621875" y="227.14801" style="stroke: #000000; stroke-width: 0.8"/>
      </g>
     </g>
     <g id="text_12">
      <!-- 0.002 -->
      <g transform="translate(22.121875 230.619885) scale(0.1 -0.1)">
       <use xlink:href="#TimesNewRomanPSMT-30"/>
       <use xlink:href="#TimesNewRomanPSMT-2e" transform="translate(50 0)"/>
       <use xlink:href="#TimesNewRomanPSMT-30" transform="translate(75 0)"/>
       <use xlink:href="#TimesNewRomanPSMT-30" transform="translate(125 0)"/>
       <use xlink:href="#TimesNewRomanPSMT-32" transform="translate(175 0)"/>
      </g>
     </g>
    </g>
    <g id="ytick_4">
     <g id="line2d_23">
      <path d="M 51.621875 191.212608 
L 560.765625 191.212608 
" clip-path="url(#p6711d3b12f)" style="fill: none; stroke-dasharray: 2.96,1.28; stroke-dashoffset: 0; stroke: #b0b0b0; stroke-opacity: 0.6; stroke-width: 0.8"/>
     </g>
     <g id="line2d_24">
      <g>
       <use xlink:href="#me489440c20" x="51.621875" y="191.212608" style="stroke: #000000; stroke-width: 0.8"/>
      </g>
     </g>
     <g id="text_13">
      <!-- 0.003 -->
      <g transform="translate(22.121875 194.684483) scale(0.1 -0.1)">
       <defs>
        <path id="TimesNewRomanPSMT-33" d="M 325 3431 
Q 506 3859 782 4092 
Q 1059 4325 1472 4325 
Q 1981 4325 2253 3994 
Q 2459 3747 2459 3466 
Q 2459 3003 1878 2509 
Q 2269 2356 2469 2072 
Q 2669 1788 2669 1403 
Q 2669 853 2319 450 
Q 1863 -75 997 -75 
Q 569 -75 414 31 
Q 259 138 259 259 
Q 259 350 332 419 
Q 406 488 509 488 
Q 588 488 669 463 
Q 722 447 909 348 
Q 1097 250 1169 231 
Q 1284 197 1416 197 
Q 1734 197 1970 444 
Q 2206 691 2206 1028 
Q 2206 1275 2097 1509 
Q 2016 1684 1919 1775 
Q 1784 1900 1550 2001 
Q 1316 2103 1072 2103 
L 972 2103 
L 972 2197 
Q 1219 2228 1467 2375 
Q 1716 2522 1828 2728 
Q 1941 2934 1941 3181 
Q 1941 3503 1739 3701 
Q 1538 3900 1238 3900 
Q 753 3900 428 3381 
L 325 3431 
z
" transform="scale(0.015625)"/>
       </defs>
       <use xlink:href="#TimesNewRomanPSMT-30"/>
       <use xlink:href="#TimesNewRomanPSMT-2e" transform="translate(50 0)"/>
       <use xlink:href="#TimesNewRomanPSMT-30" transform="translate(75 0)"/>
       <use xlink:href="#TimesNewRomanPSMT-30" transform="translate(125 0)"/>
       <use xlink:href="#TimesNewRomanPSMT-33" transform="translate(175 0)"/>
      </g>
     </g>
    </g>
    <g id="ytick_5">
     <g id="line2d_25">
      <path d="M 51.621875 155.277205 
L 560.765625 155.277205 
" clip-path="url(#p6711d3b12f)" style="fill: none; stroke-dasharray: 2.96,1.28; stroke-dashoffset: 0; stroke: #b0b0b0; stroke-opacity: 0.6; stroke-width: 0.8"/>
     </g>
     <g id="line2d_26">
      <g>
       <use xlink:href="#me489440c20" x="51.621875" y="155.277205" style="stroke: #000000; stroke-width: 0.8"/>
      </g>
     </g>
     <g id="text_14">
      <!-- 0.004 -->
      <g transform="translate(22.121875 158.74908) scale(0.1 -0.1)">
       <defs>
        <path id="TimesNewRomanPSMT-34" d="M 2978 1563 
L 2978 1119 
L 2409 1119 
L 2409 0 
L 1894 0 
L 1894 1119 
L 100 1119 
L 100 1519 
L 2066 4325 
L 2409 4325 
L 2409 1563 
L 2978 1563 
z
M 1894 1563 
L 1894 3666 
L 406 1563 
L 1894 1563 
z
" transform="scale(0.015625)"/>
       </defs>
       <use xlink:href="#TimesNewRomanPSMT-30"/>
       <use xlink:href="#TimesNewRomanPSMT-2e" transform="translate(50 0)"/>
       <use xlink:href="#TimesNewRomanPSMT-30" transform="translate(75 0)"/>
       <use xlink:href="#TimesNewRomanPSMT-30" transform="translate(125 0)"/>
       <use xlink:href="#TimesNewRomanPSMT-34" transform="translate(175 0)"/>
      </g>
     </g>
    </g>
    <g id="ytick_6">
     <g id="line2d_27">
      <path d="M 51.621875 119.341802 
L 560.765625 119.341802 
" clip-path="url(#p6711d3b12f)" style="fill: none; stroke-dasharray: 2.96,1.28; stroke-dashoffset: 0; stroke: #b0b0b0; stroke-opacity: 0.6; stroke-width: 0.8"/>
     </g>
     <g id="line2d_28">
      <g>
       <use xlink:href="#me489440c20" x="51.621875" y="119.341802" style="stroke: #000000; stroke-width: 0.8"/>
      </g>
     </g>
     <g id="text_15">
      <!-- 0.005 -->
      <g transform="translate(22.121875 122.813677) scale(0.1 -0.1)">
       <use xlink:href="#TimesNewRomanPSMT-30"/>
       <use xlink:href="#TimesNewRomanPSMT-2e" transform="translate(50 0)"/>
       <use xlink:href="#TimesNewRomanPSMT-30" transform="translate(75 0)"/>
       <use xlink:href="#TimesNewRomanPSMT-30" transform="translate(125 0)"/>
       <use xlink:href="#TimesNewRomanPSMT-35" transform="translate(175 0)"/>
      </g>
     </g>
    </g>
    <g id="ytick_7">
     <g id="line2d_29">
      <path d="M 51.621875 83.406399 
L 560.765625 83.406399 
" clip-path="url(#p6711d3b12f)" style="fill: none; stroke-dasharray: 2.96,1.28; stroke-dashoffset: 0; stroke: #b0b0b0; stroke-opacity: 0.6; stroke-width: 0.8"/>
     </g>
     <g id="line2d_30">
      <g>
       <use xlink:href="#me489440c20" x="51.621875" y="83.406399" style="stroke: #000000; stroke-width: 0.8"/>
      </g>
     </g>
     <g id="text_16">
      <!-- 0.006 -->
      <g transform="translate(22.121875 86.878274) scale(0.1 -0.1)">
       <defs>
        <path id="TimesNewRomanPSMT-36" d="M 2869 4325 
L 2869 4209 
Q 2456 4169 2195 4045 
Q 1934 3922 1679 3669 
Q 1425 3416 1258 3105 
Q 1091 2794 978 2366 
Q 1428 2675 1881 2675 
Q 2316 2675 2634 2325 
Q 2953 1975 2953 1425 
Q 2953 894 2631 456 
Q 2244 -75 1606 -75 
Q 1172 -75 869 213 
Q 275 772 275 1663 
Q 275 2231 503 2743 
Q 731 3256 1154 3653 
Q 1578 4050 1965 4187 
Q 2353 4325 2688 4325 
L 2869 4325 
z
M 925 2138 
Q 869 1716 869 1456 
Q 869 1156 980 804 
Q 1091 453 1309 247 
Q 1469 100 1697 100 
Q 1969 100 2183 356 
Q 2397 613 2397 1088 
Q 2397 1622 2184 2012 
Q 1972 2403 1581 2403 
Q 1463 2403 1327 2353 
Q 1191 2303 925 2138 
z
" transform="scale(0.015625)"/>
       </defs>
       <use xlink:href="#TimesNewRomanPSMT-30"/>
       <use xlink:href="#TimesNewRomanPSMT-2e" transform="translate(50 0)"/>
       <use xlink:href="#TimesNewRomanPSMT-30" transform="translate(75 0)"/>
       <use xlink:href="#TimesNewRomanPSMT-30" transform="translate(125 0)"/>
       <use xlink:href="#TimesNewRomanPSMT-36" transform="translate(175 0)"/>
      </g>
     </g>
    </g>
    <g id="ytick_8">
     <g id="line2d_31">
      <path d="M 51.621875 47.470997 
L 560.765625 47.470997 
" clip-path="url(#p6711d3b12f)" style="fill: none; stroke-dasharray: 2.96,1.28; stroke-dashoffset: 0; stroke: #b0b0b0; stroke-opacity: 0.6; stroke-width: 0.8"/>
     </g>
     <g id="line2d_32">
      <g>
       <use xlink:href="#me489440c20" x="51.621875" y="47.470997" style="stroke: #000000; stroke-width: 0.8"/>
      </g>
     </g>
     <g id="text_17">
      <!-- 0.007 -->
      <g transform="translate(22.121875 50.942872) scale(0.1 -0.1)">
       <use xlink:href="#TimesNewRomanPSMT-30"/>
       <use xlink:href="#TimesNewRomanPSMT-2e" transform="translate(50 0)"/>
       <use xlink:href="#TimesNewRomanPSMT-30" transform="translate(75 0)"/>
       <use xlink:href="#TimesNewRomanPSMT-30" transform="translate(125 0)"/>
       <use xlink:href="#TimesNewRomanPSMT-37" transform="translate(175 0)"/>
      </g>
     </g>
    </g>
    <g id="ytick_9">
     <g id="line2d_33">
      <path d="M 51.621875 11.535594 
L 560.765625 11.535594 
" clip-path="url(#p6711d3b12f)" style="fill: none; stroke-dasharray: 2.96,1.28; stroke-dashoffset: 0; stroke: #b0b0b0; stroke-opacity: 0.6; stroke-width: 0.8"/>
     </g>
     <g id="line2d_34">
      <g>
       <use xlink:href="#me489440c20" x="51.621875" y="11.535594" style="stroke: #000000; stroke-width: 0.8"/>
      </g>
     </g>
     <g id="text_18">
      <!-- 0.008 -->
      <g transform="translate(22.121875 15.007469) scale(0.1 -0.1)">
       <defs>
        <path id="TimesNewRomanPSMT-38" d="M 1228 2134 
Q 725 2547 579 2797 
Q 434 3047 434 3316 
Q 434 3728 753 4026 
Q 1072 4325 1600 4325 
Q 2113 4325 2425 4047 
Q 2738 3769 2738 3413 
Q 2738 3175 2569 2928 
Q 2400 2681 1866 2347 
Q 2416 1922 2594 1678 
Q 2831 1359 2831 1006 
Q 2831 559 2490 242 
Q 2150 -75 1597 -75 
Q 994 -75 656 303 
Q 388 606 388 966 
Q 388 1247 577 1523 
Q 766 1800 1228 2134 
z
M 1719 2469 
Q 2094 2806 2194 3001 
Q 2294 3197 2294 3444 
Q 2294 3772 2109 3958 
Q 1925 4144 1606 4144 
Q 1288 4144 1088 3959 
Q 888 3775 888 3528 
Q 888 3366 970 3203 
Q 1053 3041 1206 2894 
L 1719 2469 
z
M 1375 2016 
Q 1116 1797 991 1539 
Q 866 1281 866 981 
Q 866 578 1086 336 
Q 1306 94 1647 94 
Q 1984 94 2187 284 
Q 2391 475 2391 747 
Q 2391 972 2272 1150 
Q 2050 1481 1375 2016 
z
" transform="scale(0.015625)"/>
       </defs>
       <use xlink:href="#TimesNewRomanPSMT-30"/>
       <use xlink:href="#TimesNewRomanPSMT-2e" transform="translate(50 0)"/>
       <use xlink:href="#TimesNewRomanPSMT-30" transform="translate(75 0)"/>
       <use xlink:href="#TimesNewRomanPSMT-30" transform="translate(125 0)"/>
       <use xlink:href="#TimesNewRomanPSMT-38" transform="translate(175 0)"/>
      </g>
     </g>
    </g>
    <g id="text_19">
     <!-- Probability Density f(t) -->
     <g transform="translate(15.5325 216.048725) rotate(-90) scale(0.12 -0.12)">
      <defs>
       <path id="TimesNewRomanPSMT-50" d="M 1313 1984 
L 1313 750 
Q 1313 350 1400 253 
Q 1519 116 1759 116 
L 1922 116 
L 1922 0 
L 106 0 
L 106 116 
L 266 116 
Q 534 116 650 291 
Q 713 388 713 750 
L 713 3488 
Q 713 3888 628 3984 
Q 506 4122 266 4122 
L 106 4122 
L 106 4238 
L 1659 4238 
Q 2228 4238 2556 4120 
Q 2884 4003 3109 3725 
Q 3334 3447 3334 3066 
Q 3334 2547 2992 2222 
Q 2650 1897 2025 1897 
Q 1872 1897 1694 1919 
Q 1516 1941 1313 1984 
z
M 1313 2163 
Q 1478 2131 1606 2115 
Q 1734 2100 1825 2100 
Q 2150 2100 2386 2351 
Q 2622 2603 2622 3003 
Q 2622 3278 2509 3514 
Q 2397 3750 2190 3867 
Q 1984 3984 1722 3984 
Q 1563 3984 1313 3925 
L 1313 2163 
z
" transform="scale(0.015625)"/>
       <path id="TimesNewRomanPSMT-6f" d="M 1600 2947 
Q 2250 2947 2644 2453 
Q 2978 2031 2978 1484 
Q 2978 1100 2793 706 
Q 2609 313 2286 112 
Q 1963 -88 1566 -88 
Q 919 -88 538 428 
Q 216 863 216 1403 
Q 216 1797 411 2186 
Q 606 2575 925 2761 
Q 1244 2947 1600 2947 
z
M 1503 2744 
Q 1338 2744 1170 2645 
Q 1003 2547 900 2300 
Q 797 2053 797 1666 
Q 797 1041 1045 587 
Q 1294 134 1700 134 
Q 2003 134 2200 384 
Q 2397 634 2397 1244 
Q 2397 2006 2069 2444 
Q 1847 2744 1503 2744 
z
" transform="scale(0.015625)"/>
       <path id="TimesNewRomanPSMT-62" d="M 984 2369 
Q 1400 2947 1881 2947 
Q 2322 2947 2650 2570 
Q 2978 2194 2978 1541 
Q 2978 778 2472 313 
Q 2038 -88 1503 -88 
Q 1253 -88 995 3 
Q 738 94 469 275 
L 469 3241 
Q 469 3728 445 3840 
Q 422 3953 372 3993 
Q 322 4034 247 4034 
Q 159 4034 28 3984 
L -16 4094 
L 844 4444 
L 984 4444 
L 984 2369 
z
M 984 2169 
L 984 456 
Q 1144 300 1314 220 
Q 1484 141 1663 141 
Q 1947 141 2192 453 
Q 2438 766 2438 1363 
Q 2438 1913 2192 2208 
Q 1947 2503 1634 2503 
Q 1469 2503 1303 2419 
Q 1178 2356 984 2169 
z
" transform="scale(0.015625)"/>
       <path id="TimesNewRomanPSMT-74" d="M 1031 3803 
L 1031 2863 
L 1700 2863 
L 1700 2644 
L 1031 2644 
L 1031 788 
Q 1031 509 1111 412 
Q 1191 316 1316 316 
Q 1419 316 1516 380 
Q 1613 444 1666 569 
L 1788 569 
Q 1678 263 1478 108 
Q 1278 -47 1066 -47 
Q 922 -47 784 33 
Q 647 113 581 261 
Q 516 409 516 719 
L 516 2644 
L 63 2644 
L 63 2747 
Q 234 2816 414 2980 
Q 594 3144 734 3369 
Q 806 3488 934 3803 
L 1031 3803 
z
" transform="scale(0.015625)"/>
       <path id="TimesNewRomanPSMT-6e" d="M 1034 2341 
Q 1538 2947 1994 2947 
Q 2228 2947 2397 2830 
Q 2566 2713 2666 2444 
Q 2734 2256 2734 1869 
L 2734 647 
Q 2734 375 2778 278 
Q 2813 200 2889 156 
Q 2966 113 3172 113 
L 3172 0 
L 1756 0 
L 1756 113 
L 1816 113 
Q 2016 113 2095 173 
Q 2175 234 2206 353 
Q 2219 400 2219 647 
L 2219 1819 
Q 2219 2209 2117 2386 
Q 2016 2563 1775 2563 
Q 1403 2563 1034 2156 
L 1034 647 
Q 1034 356 1069 288 
Q 1113 197 1189 155 
Q 1266 113 1500 113 
L 1500 0 
L 84 0 
L 84 113 
L 147 113 
Q 366 113 442 223 
Q 519 334 519 647 
L 519 1709 
Q 519 2225 495 2337 
Q 472 2450 423 2490 
Q 375 2531 294 2531 
Q 206 2531 84 2484 
L 38 2597 
L 900 2947 
L 1034 2947 
L 1034 2341 
z
" transform="scale(0.015625)"/>
       <path id="TimesNewRomanPSMT-66" d="M 1319 2638 
L 1319 756 
Q 1319 356 1406 250 
Q 1522 113 1716 113 
L 1975 113 
L 1975 0 
L 266 0 
L 266 113 
L 394 113 
Q 519 113 622 175 
Q 725 238 764 344 
Q 803 450 803 756 
L 803 2638 
L 247 2638 
L 247 2863 
L 803 2863 
L 803 3050 
Q 803 3478 940 3775 
Q 1078 4072 1361 4255 
Q 1644 4438 1997 4438 
Q 2325 4438 2600 4225 
Q 2781 4084 2781 3909 
Q 2781 3816 2700 3733 
Q 2619 3650 2525 3650 
Q 2453 3650 2373 3701 
Q 2294 3753 2178 3923 
Q 2063 4094 1966 4153 
Q 1869 4213 1750 4213 
Q 1606 4213 1506 4136 
Q 1406 4059 1362 3898 
Q 1319 3738 1319 3069 
L 1319 2863 
L 2056 2863 
L 2056 2638 
L 1319 2638 
z
" transform="scale(0.015625)"/>
      </defs>
      <use xlink:href="#TimesNewRomanPSMT-50"/>
      <use xlink:href="#TimesNewRomanPSMT-72" transform="translate(55.615234 0)"/>
      <use xlink:href="#TimesNewRomanPSMT-6f" transform="translate(88.916016 0)"/>
      <use xlink:href="#TimesNewRomanPSMT-62" transform="translate(138.916016 0)"/>
      <use xlink:href="#TimesNewRomanPSMT-61" transform="translate(188.916016 0)"/>
      <use xlink:href="#TimesNewRomanPSMT-62" transform="translate(233.300781 0)"/>
      <use xlink:href="#TimesNewRomanPSMT-69" transform="translate(283.300781 0)"/>
      <use xlink:href="#TimesNewRomanPSMT-6c" transform="translate(311.083984 0)"/>
      <use xlink:href="#TimesNewRomanPSMT-69" transform="translate(338.867188 0)"/>
      <use xlink:href="#TimesNewRomanPSMT-74" transform="translate(366.650391 0)"/>
      <use xlink:href="#TimesNewRomanPSMT-79" transform="translate(394.433594 0)"/>
      <use xlink:href="#TimesNewRomanPSMT-20" transform="translate(444.433594 0)"/>
      <use xlink:href="#TimesNewRomanPSMT-44" transform="translate(469.433594 0)"/>
      <use xlink:href="#TimesNewRomanPSMT-65" transform="translate(541.650391 0)"/>
      <use xlink:href="#TimesNewRomanPSMT-6e" transform="translate(586.035156 0)"/>
      <use xlink:href="#TimesNewRomanPSMT-73" transform="translate(636.035156 0)"/>
      <use xlink:href="#TimesNewRomanPSMT-69" transform="translate(674.951172 0)"/>
      <use xlink:href="#TimesNewRomanPSMT-74" transform="translate(702.734375 0)"/>
      <use xlink:href="#TimesNewRomanPSMT-79" transform="translate(730.517578 0)"/>
      <use xlink:href="#TimesNewRomanPSMT-20" transform="translate(780.517578 0)"/>
      <use xlink:href="#TimesNewRomanPSMT-66" transform="translate(805.517578 0)"/>
      <use xlink:href="#TimesNewRomanPSMT-28" transform="translate(838.818359 0)"/>
      <use xlink:href="#TimesNewRomanPSMT-74" transform="translate(872.119141 0)"/>
      <use xlink:href="#TimesNewRomanPSMT-29" transform="translate(899.902344 0)"/>
     </g>
    </g>
   </g>
   <g id="line2d_35">
    <path d="M 74.764773 299.018816 
L 75.033564 222.590078 
L 75.302355 215.642011 
L 75.571145 153.109408 
L 75.839936 208.693944 
L 76.108727 236.486213 
L 76.377518 180.901676 
L 76.646309 180.901676 
L 77.183891 194.79781 
L 77.452682 173.953609 
L 77.721473 118.369073 
L 77.990264 132.265207 
L 78.259055 90.576805 
L 78.527846 139.213274 
L 78.796636 132.265207 
L 79.065427 160.057475 
L 79.334218 90.576805 
L 79.603009 173.953609 
L 79.8718 118.369073 
L 80.140591 160.057475 
L 80.409382 48.888402 
L 80.678173 146.161341 
L 80.946964 90.576805 
L 81.215755 125.31714 
L 81.484546 83.628738 
L 81.753337 125.31714 
L 82.022127 132.265207 
L 82.290918 125.31714 
L 82.559709 153.109408 
L 82.8285 41.940335 
L 83.097291 83.628737 
L 83.366082 104.472939 
L 83.634873 90.576805 
L 83.903664 69.732603 
L 84.172455 97.524872 
L 84.441246 90.576805 
L 84.710037 28.044201 
L 84.978827 83.628737 
L 85.247618 76.68067 
L 85.516409 48.888402 
L 85.7852 146.161341 
L 86.053991 69.732603 
L 86.322782 153.109408 
L 86.591573 97.524872 
L 86.860364 90.576805 
L 87.129155 69.732603 
L 87.397946 146.161341 
L 87.666737 173.953609 
L 87.935528 139.213274 
L 88.204318 153.109408 
L 88.473109 132.265207 
L 88.7419 21.096134 
L 89.010691 111.421006 
L 89.279482 160.057475 
L 89.548273 83.628737 
L 89.817064 83.628738 
L 90.085855 160.057475 
L 90.354646 111.421006 
L 90.892228 111.421006 
L 91.161019 173.953609 
L 91.429809 97.524872 
L 91.6986 139.213274 
L 91.967391 132.265207 
L 92.236182 132.265207 
L 92.504973 125.31714 
L 93.311346 146.161341 
L 93.580137 97.524872 
L 93.848928 125.31714 
L 94.117719 173.953609 
L 94.386509 83.628737 
L 94.6553 125.31714 
L 94.924091 90.576805 
L 95.192882 146.161341 
L 95.461673 62.784536 
L 95.730464 173.953609 
L 95.999255 187.849743 
L 96.268046 125.31714 
L 96.536837 97.524872 
L 96.805628 90.576805 
L 97.074419 139.213274 
L 97.34321 167.005542 
L 97.612 153.109408 
L 97.880791 153.109408 
L 98.149582 139.213274 
L 98.418373 104.472939 
L 98.687164 111.421006 
L 98.955955 97.524872 
L 99.224746 160.057475 
L 99.493537 180.901676 
L 99.762328 160.057475 
L 100.031119 104.472939 
L 100.29991 180.901676 
L 100.568701 125.31714 
L 100.837491 160.057475 
L 101.106282 173.953609 
L 101.375073 125.31714 
L 101.643864 160.057475 
L 101.912655 146.161341 
L 102.181446 97.524872 
L 102.450237 132.265207 
L 102.719028 194.79781 
L 102.987819 173.953609 
L 103.25661 187.849743 
L 103.525401 208.693944 
L 103.794191 208.693944 
L 104.062982 153.109408 
L 104.331773 160.057475 
L 104.600564 180.901676 
L 104.869355 118.369073 
L 105.138146 146.161341 
L 105.406937 125.31714 
L 105.675728 173.953609 
L 105.944519 180.901676 
L 106.21331 208.693944 
L 106.750892 146.161341 
L 107.019682 173.953609 
L 107.288473 236.486212 
L 107.557264 201.745877 
L 107.826055 125.31714 
L 108.094846 208.693944 
L 108.363637 146.161341 
L 108.632428 160.057475 
L 108.901219 222.590078 
L 109.17001 187.849743 
L 109.438801 180.901676 
L 109.707592 153.109408 
L 109.976383 215.642011 
L 110.245173 201.745877 
L 110.513964 201.745877 
L 110.782755 229.538145 
L 111.051546 180.901676 
L 111.589128 167.005542 
L 111.857919 208.693944 
L 112.12671 215.642011 
L 112.395501 180.901676 
L 112.664292 194.79781 
L 112.933083 201.745877 
L 113.201873 201.745877 
L 113.470664 208.693944 
L 113.739455 201.745877 
L 114.008246 201.745877 
L 114.277037 187.849743 
L 114.545828 187.849743 
L 114.814619 229.538145 
L 115.08341 194.79781 
L 115.620992 208.693944 
L 115.889783 222.590078 
L 116.158574 229.538145 
L 116.427364 208.693944 
L 116.696155 229.538145 
L 116.964946 180.901676 
L 117.233737 194.79781 
L 117.502528 160.057475 
L 117.771319 215.642011 
L 118.04011 180.901676 
L 118.308901 194.79781 
L 118.577692 180.901676 
L 118.846483 160.057475 
L 119.115274 215.642011 
L 119.384065 243.43428 
L 119.652855 215.642011 
L 119.921646 236.486212 
L 120.190437 222.590078 
L 120.728019 208.693944 
L 120.99681 264.278481 
L 121.265601 215.642011 
L 121.534392 215.642011 
L 121.803183 208.693944 
L 122.071974 215.642011 
L 122.340765 187.849743 
L 122.609555 236.486212 
L 122.878346 187.849743 
L 123.147137 215.642011 
L 123.415928 201.745877 
L 123.684719 194.79781 
L 123.95351 222.590078 
L 124.222301 264.278481 
L 124.491092 208.693944 
L 124.759883 243.43428 
L 125.028674 236.486212 
L 125.297465 201.745877 
L 125.566256 264.278481 
L 125.835046 201.745877 
L 126.103837 215.642011 
L 126.372628 236.486212 
L 126.641419 229.538145 
L 126.91021 250.382347 
L 127.179001 250.382347 
L 127.447792 180.901676 
L 127.716583 180.901676 
L 128.254165 271.226548 
L 128.522956 229.538145 
L 128.791747 243.43428 
L 129.060537 264.278481 
L 129.329328 215.642011 
L 129.598119 257.330414 
L 129.86691 243.43428 
L 130.404492 229.538145 
L 130.673283 201.745877 
L 130.942074 250.382347 
L 131.210865 208.693944 
L 131.479656 215.642011 
L 131.748447 250.382347 
L 132.017237 201.745877 
L 132.286028 264.278481 
L 132.554819 250.382347 
L 133.092401 194.79781 
L 133.361192 250.382347 
L 133.629983 243.43428 
L 133.898774 278.174615 
L 134.167565 229.538145 
L 134.436356 257.330414 
L 134.705147 208.693944 
L 134.973938 222.590078 
L 135.242728 278.174615 
L 135.511519 243.43428 
L 135.78031 236.486212 
L 136.049101 250.382347 
L 136.586683 264.278481 
L 136.855474 264.278481 
L 137.124265 257.330414 
L 137.393056 243.43428 
L 137.661847 208.693944 
L 138.199429 264.278481 
L 138.468219 243.43428 
L 138.73701 250.382347 
L 139.005801 215.642011 
L 139.274592 264.278481 
L 139.543383 215.642011 
L 139.812174 243.43428 
L 140.080965 257.330414 
L 140.349756 236.486213 
L 140.618547 264.278481 
L 140.887338 264.278481 
L 141.156129 257.330414 
L 141.424919 236.486212 
L 141.69371 264.278481 
L 141.962501 222.590078 
L 142.231292 222.590078 
L 142.500083 250.382347 
L 142.768874 208.693944 
L 143.037665 215.642011 
L 143.306456 194.79781 
L 144.112829 278.174615 
L 144.38162 180.901676 
L 144.65041 222.590078 
L 144.919201 222.590078 
L 145.187992 187.849743 
L 145.725574 278.174615 
L 145.994365 229.538145 
L 146.263156 236.486212 
L 146.531947 250.382347 
L 146.800738 278.174615 
L 147.069529 250.382347 
L 147.33832 257.330414 
L 147.607111 250.382347 
L 147.875901 236.486213 
L 148.144692 271.226548 
L 148.413483 250.382347 
L 148.951065 278.174615 
L 149.219856 229.538145 
L 149.488647 278.174615 
L 149.757438 229.538145 
L 150.026229 278.174615 
L 150.29502 285.122682 
L 150.563811 271.226548 
L 150.832601 264.278481 
L 151.101392 236.486212 
L 151.370183 257.330414 
L 151.638974 250.382347 
L 151.907765 278.174615 
L 152.176556 271.226548 
L 152.445347 250.382347 
L 152.982929 264.278481 
L 153.25172 285.122682 
L 153.520511 278.174615 
L 153.789302 257.330414 
L 154.058092 271.226548 
L 154.326883 271.226548 
L 154.595674 278.174615 
L 154.864465 257.330414 
L 155.133256 271.226548 
L 155.402047 271.226548 
L 155.670838 257.330414 
L 155.939629 250.382347 
L 156.20842 285.122682 
L 156.477211 285.122682 
L 156.746002 278.174615 
L 157.014793 264.278481 
L 157.283583 285.122682 
L 157.552374 292.070749 
L 157.821165 285.122682 
L 158.627538 285.122682 
L 158.896329 229.538145 
L 159.16512 243.43428 
L 159.433911 278.174615 
L 159.702702 292.070749 
L 159.971493 271.226548 
L 160.240283 222.590078 
L 160.509074 278.174615 
L 160.777865 285.122682 
L 161.046656 250.382347 
L 161.315447 243.43428 
L 161.584238 278.174615 
L 161.853029 278.174615 
L 162.12182 271.226548 
L 162.390611 292.070749 
L 162.659402 292.070749 
L 162.928193 285.122682 
L 163.196984 264.278481 
L 163.465774 278.174615 
L 163.734565 278.174615 
L 164.003356 257.330414 
L 164.272147 278.174615 
L 164.540938 250.382347 
L 164.809729 250.382347 
L 165.07852 285.122682 
L 165.347311 264.278481 
L 165.616102 278.174615 
L 165.884893 264.278481 
L 166.153684 271.226548 
L 166.422475 243.43428 
L 166.691265 285.122682 
L 166.960056 250.382347 
L 167.228847 264.278481 
L 167.497638 264.278481 
L 167.766429 250.382347 
L 168.03522 264.278481 
L 168.304011 285.122682 
L 168.841593 278.174615 
L 169.110384 250.382347 
L 169.379175 271.226548 
L 169.647965 271.226548 
L 169.916756 250.382347 
L 170.185547 257.330414 
L 170.454338 285.122682 
L 170.723129 271.226548 
L 170.99192 264.278481 
L 171.260711 285.122682 
L 171.529502 250.382347 
L 171.798293 243.43428 
L 172.335875 257.330414 
L 172.604666 257.330414 
L 172.873456 264.278481 
L 173.411038 292.070749 
L 173.679829 292.070749 
L 173.94862 278.174615 
L 174.486202 295.544782 
L 174.754993 257.330414 
L 175.023784 285.122682 
L 175.830157 296.702794 
L 176.098947 278.174615 
L 176.367738 292.070749 
L 176.636529 292.070749 
L 176.90532 285.122682 
L 177.442902 285.122682 
L 178.786857 296.239589 
L 179.055648 257.330414 
L 179.593229 295.544782 
L 179.86202 292.070749 
L 180.399602 292.070749 
L 180.937184 295.544782 
L 181.205975 285.122682 
L 181.474766 285.122682 
L 181.743557 278.174615 
L 182.012348 292.070749 
L 182.281138 292.070749 
L 183.087511 296.702794 
L 183.356302 292.070749 
L 183.893884 288.596715 
L 186.044211 297.281799 
L 187.388166 297.629203 
L 188.73212 297.629203 
L 189.000911 292.070749 
L 189.807284 296.702794 
L 190.882448 297.281799 
L 191.68882 296.702794 
L 192.763984 297.281799 
L 193.570357 296.702794 
L 193.839148 285.122682 
L 194.37673 295.544782 
L 195.451893 293.807766 
L 196.258266 292.070749 
L 196.527057 292.070749 
L 197.871012 297.629203 
L 198.408593 295.544782 
L 198.677384 285.122682 
L 198.946175 292.070749 
L 199.483757 292.070749 
L 200.021339 288.596715 
L 200.29013 292.070749 
L 200.558921 271.226548 
L 200.827712 292.070749 
L 201.634084 292.070749 
L 202.440457 296.702794 
L 202.709248 292.070749 
L 203.24683 288.596715 
L 203.515621 278.174615 
L 203.784412 285.122682 
L 204.321993 295.544782 
L 204.590784 285.122682 
L 205.128366 295.544782 
L 205.397157 292.070749 
L 205.934739 278.174615 
L 206.20353 285.122682 
L 207.547484 297.629203 
L 207.816275 285.122682 
L 209.16023 297.629203 
L 209.429021 292.070749 
L 210.235394 296.702794 
L 211.041766 296.702794 
L 211.579348 295.544782 
L 212.385721 296.702794 
L 213.998466 297.860805 
L 214.267257 292.070749 
L 216.686376 297.474801 
L 217.492748 296.702794 
L 218.836703 297.629203 
L 219.105494 292.070749 
L 219.374285 292.070749 
L 223.137357 298.522525 
L 225.556476 298.246808 
L 230.125921 298.610106 
L 230.394712 292.070749 
L 231.201085 296.702794 
L 232.545039 297.629203 
L 235.232949 298.324009 
L 235.77053 288.596715 
L 236.576903 292.070749 
L 236.845694 292.070749 
L 237.114485 278.174615 
L 237.383276 278.174615 
L 237.652067 292.070749 
L 238.72723 295.544782 
L 238.996021 292.070749 
L 239.533603 295.544782 
L 240.339976 292.070749 
L 240.608767 285.122682 
L 240.877558 292.070749 
L 241.146349 285.122682 
L 241.41514 285.122682 
L 242.490303 297.281799 
L 242.759094 285.122682 
L 244.103049 297.629203 
L 244.37184 292.070749 
L 246.522167 298.150308 
L 246.790958 292.070749 
L 247.597331 296.702794 
L 250.554031 298.387173 
L 254.317104 298.522525 
L 254.585894 292.070749 
L 255.123476 292.070749 
L 259.15534 298.555611 
L 261.843249 298.324009 
L 262.918413 295.544782 
L 281.733777 298.919558 
L 285.228059 298.484349 
L 289.259922 298.555611 
L 297.592441 298.570554 
L 297.861232 292.070749 
L 300.28035 298.246808 
L 300.549141 292.070749 
L 301.355514 296.702794 
L 302.968259 297.860805 
L 303.23705 292.070749 
L 303.505841 292.070749 
L 304.312214 296.702794 
L 304.849795 292.070749 
L 308.075286 298.43981 
L 308.612868 295.544782 
L 311.569568 298.387173 
L 313.182314 296.702794 
L 327.159441 298.885199 
L 327.965814 296.702794 
L 337.642287 298.825814 
L 355.113696 298.911923 
L 361.564678 298.729313 
L 368.01566 298.729313 
L 368.822033 296.702794 
L 371.509942 298.324009 
L 371.778733 292.070749 
L 372.585106 296.702794 
L 373.122688 295.544782 
L 374.466642 297.629203 
L 378.229715 298.522525 
L 380.380042 298.150308 
L 381.186415 294.386771 
L 393.282006 298.864414 
L 394.088379 296.702794 
L 397.582661 298.484349 
L 397.851452 292.070749 
L 398.389034 295.544782 
L 399.464197 297.281799 
L 404.840016 298.671413 
L 405.108806 292.070749 
L 408.871879 298.522525 
L 423.117798 298.88772 
L 423.65538 295.544782 
L 537.622727 299.002429 
L 537.622727 299.002429 
" clip-path="url(#p6711d3b12f)" style="fill: none; stroke: #1f77b4; stroke-opacity: 0.8; stroke-width: 1.2; stroke-linecap: square"/>
   </g>
   <g id="line2d_36">
    <path d="M 74.764773 299.018816 
L 75.033564 222.604853 
L 75.302355 215.658129 
L 75.571145 153.137614 
L 75.839936 208.711405 
L 76.108727 236.498301 
L 76.377518 180.92451 
L 76.646309 180.92451 
L 77.183891 194.817957 
L 77.452682 173.977786 
L 77.721473 118.403994 
L 77.990264 132.297442 
L 78.259055 90.617099 
L 78.527846 139.244166 
L 78.796636 132.297442 
L 79.065427 160.084338 
L 79.334218 90.617099 
L 79.603009 173.977786 
L 79.8718 118.403994 
L 80.140591 160.084338 
L 80.409382 48.936755 
L 80.678173 146.19089 
L 80.946964 90.617099 
L 81.215755 125.350718 
L 81.484546 83.670375 
L 81.753337 125.350718 
L 82.022127 132.297442 
L 82.290918 125.350718 
L 82.559709 153.137614 
L 82.8285 41.990031 
L 83.097291 83.670375 
L 83.366082 104.510547 
L 83.634873 90.617099 
L 83.903664 69.776927 
L 84.172455 97.563823 
L 84.441246 90.617099 
L 84.710037 28.096584 
L 84.978827 83.670375 
L 85.247618 76.723651 
L 85.516409 48.936755 
L 85.7852 146.19089 
L 86.053991 69.776927 
L 86.322782 153.137614 
L 86.591573 97.563823 
L 86.860364 90.617099 
L 87.129155 69.776927 
L 87.397946 146.19089 
L 87.666737 173.977786 
L 87.935528 139.244166 
L 88.204318 153.137614 
L 88.473109 132.297442 
L 88.7419 21.14986 
L 89.010691 111.45727 
L 89.279482 160.084338 
L 89.548273 83.670375 
L 89.817064 83.670375 
L 90.085855 160.084338 
L 90.354646 111.45727 
L 90.892228 111.45727 
L 91.161019 173.977786 
L 91.429809 97.563823 
L 91.6986 139.244166 
L 91.967391 132.297442 
L 92.236182 132.297442 
L 92.504973 125.350718 
L 93.311346 146.19089 
L 93.580137 97.563823 
L 93.848928 125.350718 
L 94.117719 173.977786 
L 94.386509 83.670375 
L 94.6553 125.350718 
L 94.924091 90.617099 
L 95.192882 146.19089 
L 95.461673 62.830203 
L 95.730464 173.977786 
L 95.999255 187.871233 
L 96.268046 125.350718 
L 96.536837 97.563823 
L 96.805628 90.617099 
L 97.074419 139.244166 
L 97.34321 167.031062 
L 97.612 153.137614 
L 97.880791 153.137614 
L 98.149582 139.244166 
L 98.418373 104.510547 
L 98.687164 111.45727 
L 98.955955 97.563823 
L 99.224746 160.084338 
L 99.493537 180.92451 
L 99.762328 160.084338 
L 100.031119 104.510547 
L 100.29991 180.92451 
L 100.568701 125.350718 
L 100.837491 160.084338 
L 101.106282 173.977786 
L 101.375073 125.350718 
L 101.643864 160.084338 
L 101.912655 146.19089 
L 102.181446 97.563823 
L 102.450237 132.297442 
L 102.719028 194.817957 
L 102.987819 173.977786 
L 103.25661 187.871233 
L 103.525401 208.711405 
L 103.794191 208.711405 
L 104.062982 153.137614 
L 104.331773 160.084338 
L 104.600564 180.92451 
L 104.869355 118.403994 
L 105.138146 146.19089 
L 105.406937 125.350718 
L 105.675728 173.977786 
L 105.944519 180.92451 
L 106.21331 208.711405 
L 106.750892 146.19089 
L 107.019682 173.977786 
L 107.288473 236.498301 
L 107.557264 201.764681 
L 107.826055 125.350718 
L 108.094846 208.711405 
L 108.363637 146.19089 
L 108.632428 160.084338 
L 108.901219 222.604853 
L 109.17001 187.871233 
L 109.438801 180.92451 
L 109.707592 153.137614 
L 109.976383 215.658129 
L 110.245173 201.764681 
L 110.513964 201.764681 
L 110.782755 229.551577 
L 111.051546 180.92451 
L 111.589128 167.031062 
L 111.857919 208.711405 
L 112.12671 215.658129 
L 112.395501 180.92451 
L 112.664292 194.817957 
L 112.933083 201.764681 
L 113.201873 201.764681 
L 113.470664 208.711405 
L 113.739455 201.764681 
L 114.008246 201.764681 
L 114.277037 187.871233 
L 114.545828 187.871233 
L 114.814619 229.551577 
L 115.08341 194.817957 
L 115.620992 208.711405 
L 115.889783 222.604853 
L 116.158574 229.551577 
L 116.427364 208.711405 
L 116.696155 229.551577 
L 116.964946 180.92451 
L 117.233737 194.817957 
L 117.502528 160.084338 
L 117.771319 215.658129 
L 118.04011 180.92451 
L 118.308901 194.817957 
L 118.577692 180.92451 
L 118.846483 160.084338 
L 119.115274 215.658129 
L 119.384065 243.445025 
L 119.652855 215.658129 
L 119.921646 236.498301 
L 120.190437 222.604853 
L 120.728019 208.711405 
L 120.99681 264.285196 
L 121.265601 215.658129 
L 121.534392 215.658129 
L 121.803183 208.711405 
L 122.071974 215.658129 
L 122.340765 187.871233 
L 122.609555 236.498301 
L 122.878346 187.871233 
L 123.147137 215.658129 
L 123.415928 201.764681 
L 123.684719 194.817957 
L 123.95351 222.604853 
L 124.222301 264.285196 
L 124.491092 208.711405 
L 124.759883 243.445025 
L 125.028674 236.498301 
L 125.297465 201.764681 
L 125.566256 264.285196 
L 125.835046 201.764681 
L 126.103837 215.658129 
L 126.372628 236.498301 
L 126.641419 229.551577 
L 126.91021 250.391749 
L 127.179001 250.391749 
L 127.447792 180.92451 
L 127.716583 180.92451 
L 128.254165 271.23192 
L 128.522956 229.551577 
L 128.791747 243.445025 
L 129.060537 264.285196 
L 129.329328 215.658129 
L 129.598119 257.338472 
L 129.86691 243.445025 
L 130.404492 229.551577 
L 130.673283 201.764681 
L 130.942074 250.391749 
L 131.210865 208.711405 
L 131.479656 215.658129 
L 131.748447 250.391749 
L 132.017237 201.764681 
L 132.286028 264.285196 
L 132.554819 250.391749 
L 133.092401 194.817957 
L 133.361192 250.391749 
L 133.629983 243.445025 
L 133.898774 278.178644 
L 134.167565 229.551577 
L 134.436356 257.338472 
L 134.705147 208.711405 
L 134.973938 222.604853 
L 135.242728 278.178644 
L 135.511519 243.445025 
L 135.78031 236.498301 
L 136.049101 250.391749 
L 136.586683 264.285196 
L 136.855474 264.285196 
L 137.124265 257.338472 
L 137.393056 243.445025 
L 137.661847 208.711405 
L 138.199429 264.285196 
L 138.468219 243.445025 
L 138.73701 250.391749 
L 139.005801 215.658129 
L 139.274592 264.285196 
L 139.543383 215.658129 
L 139.812174 243.445025 
L 140.080965 257.338472 
L 140.349756 236.498301 
L 140.618547 264.285196 
L 140.887338 264.285196 
L 141.156129 257.338472 
L 141.424919 236.498301 
L 141.69371 264.285196 
L 141.962501 222.604853 
L 142.231292 222.604853 
L 142.500083 250.391749 
L 142.768874 208.711405 
L 143.037665 215.658129 
L 143.306456 194.817957 
L 144.112829 278.178644 
L 144.38162 180.92451 
L 144.65041 222.604853 
L 144.919201 222.604853 
L 145.187992 187.871233 
L 145.725574 278.178644 
L 145.994365 229.551577 
L 146.263156 236.498301 
L 146.531947 250.391749 
L 146.800738 278.178644 
L 147.069529 250.391749 
L 147.33832 257.338472 
L 147.607111 250.391749 
L 147.875901 236.498301 
L 148.144692 271.23192 
L 148.413483 250.391749 
L 148.951065 278.178644 
L 149.219856 229.551577 
L 149.488647 278.178644 
L 149.757438 229.551577 
L 150.026229 278.178644 
L 150.29502 285.125368 
L 150.563811 271.23192 
L 150.832601 264.285196 
L 151.101392 236.498301 
L 151.370183 257.338472 
L 151.638974 250.391749 
L 151.907765 278.178644 
L 152.176556 271.23192 
L 152.445347 250.391749 
L 152.982929 264.285196 
L 153.25172 285.125368 
L 153.520511 278.178644 
L 153.789302 257.338472 
L 154.058092 271.23192 
L 154.326883 271.23192 
L 154.595674 278.178644 
L 154.864465 257.338472 
L 155.133256 271.23192 
L 155.402047 271.23192 
L 155.670838 257.338472 
L 155.939629 250.391749 
L 156.20842 285.125368 
L 156.477211 285.125368 
L 156.746002 278.178644 
L 157.014793 264.285196 
L 157.283583 285.125368 
L 157.552374 292.072092 
L 157.821165 285.125368 
L 158.627538 285.125368 
L 158.896329 229.551577 
L 159.16512 243.445025 
L 159.433911 278.178644 
L 159.702702 292.072092 
L 159.971493 271.23192 
L 160.240283 222.604853 
L 160.509074 278.178644 
L 160.777865 285.125368 
L 161.046656 250.391749 
L 161.315447 243.445025 
L 161.584238 278.178644 
L 161.853029 278.178644 
L 162.12182 271.23192 
L 162.390611 292.072092 
L 162.659402 292.072092 
L 162.928193 285.125368 
L 163.196984 264.285196 
L 163.465774 278.178644 
L 163.734565 278.178644 
L 164.003356 257.338472 
L 164.272147 278.178644 
L 164.540938 250.391749 
L 164.809729 250.391749 
L 165.07852 285.125368 
L 165.347311 264.285196 
L 165.616102 278.178644 
L 165.884893 264.285196 
L 166.153684 271.23192 
L 166.422475 243.445025 
L 166.691265 285.125368 
L 166.960056 250.391749 
L 167.228847 264.285196 
L 167.497638 264.285196 
L 167.766429 250.391749 
L 168.03522 264.285196 
L 168.304011 285.125368 
L 168.841593 278.178644 
L 169.110384 250.391749 
L 169.379175 271.23192 
L 169.647965 271.23192 
L 169.916756 250.391749 
L 170.185547 257.338472 
L 170.454338 285.125368 
L 170.723129 271.23192 
L 170.99192 264.285196 
L 171.260711 285.125368 
L 171.529502 250.391749 
L 171.798293 243.445025 
L 172.335875 257.338472 
L 172.604666 257.338472 
L 172.873456 264.285196 
L 173.411038 292.072092 
L 173.679829 292.072092 
L 173.94862 278.178644 
L 174.486202 295.545454 
L 174.754993 257.338472 
L 175.023784 285.125368 
L 175.830157 296.703241 
L 176.098947 278.178644 
L 176.367738 292.072092 
L 176.636529 292.072092 
L 176.90532 285.125368 
L 177.442902 285.125368 
L 178.786857 296.240126 
L 179.055648 257.338472 
L 179.593229 295.545454 
L 179.86202 292.072092 
L 180.399602 292.072092 
L 180.937184 295.545454 
L 181.205975 285.125368 
L 181.474766 285.125368 
L 181.743557 278.178644 
L 182.012348 292.072092 
L 182.281138 292.072092 
L 183.087511 296.703241 
L 183.356302 292.072092 
L 183.893884 288.59873 
L 186.044211 297.282135 
L 187.388166 297.629471 
L 188.73212 297.629471 
L 189.000911 292.072092 
L 189.807284 296.703241 
L 190.882448 297.282135 
L 191.68882 296.703241 
L 192.763984 297.282135 
L 193.570357 296.703241 
L 193.839148 285.125368 
L 194.37673 295.545454 
L 195.451893 293.808773 
L 196.258266 292.072092 
L 196.527057 292.072092 
L 197.871012 297.629471 
L 198.408593 295.545454 
L 198.677384 285.125368 
L 198.946175 292.072092 
L 199.483757 292.072092 
L 200.021339 288.59873 
L 200.29013 292.072092 
L 200.558921 271.23192 
L 200.827712 292.072092 
L 201.634084 292.072092 
L 202.440457 296.703241 
L 202.709248 292.072092 
L 203.24683 288.59873 
L 203.515621 278.178644 
L 203.784412 285.125368 
L 204.321993 295.545454 
L 204.590784 285.125368 
L 205.128366 295.545454 
L 205.397157 292.072092 
L 205.934739 278.178644 
L 206.20353 285.125368 
L 207.547484 297.629471 
L 207.816275 285.125368 
L 209.16023 297.629471 
L 209.429021 292.072092 
L 210.235394 296.703241 
L 211.041766 296.703241 
L 211.579348 295.545454 
L 212.385721 296.703241 
L 213.998466 297.861029 
L 214.267257 292.072092 
L 216.686376 297.475099 
L 217.492748 296.703241 
L 218.836703 297.629471 
L 219.105494 292.072092 
L 219.374285 292.072092 
L 223.137357 298.522621 
L 225.556476 298.246958 
L 230.125921 298.610185 
L 230.394712 292.072092 
L 231.201085 296.703241 
L 232.545039 297.629471 
L 235.232949 298.324144 
L 235.77053 288.59873 
L 236.576903 292.072092 
L 236.845694 292.072092 
L 237.114485 278.178644 
L 237.383276 278.178644 
L 237.652067 292.072092 
L 238.72723 295.545454 
L 238.996021 292.072092 
L 239.533603 295.545454 
L 240.339976 292.072092 
L 240.608767 285.125368 
L 240.877558 292.072092 
L 241.146349 285.125368 
L 241.41514 285.125368 
L 242.490303 297.282135 
L 242.759094 285.125368 
L 244.103049 297.629471 
L 244.37184 292.072092 
L 246.522167 298.150475 
L 246.790958 292.072092 
L 247.597331 296.703241 
L 250.554031 298.387296 
L 254.317104 298.522621 
L 254.585894 292.072092 
L 255.123476 292.072092 
L 259.15534 298.555701 
L 261.843249 298.324144 
L 262.918413 295.545454 
L 281.733777 298.919577 
L 285.228059 298.484453 
L 289.259922 298.555701 
L 297.592441 298.57064 
L 297.861232 292.072092 
L 300.28035 298.246958 
L 300.549141 292.072092 
L 301.355514 296.703241 
L 302.968259 297.861029 
L 303.23705 292.072092 
L 303.505841 292.072092 
L 304.312214 296.703241 
L 304.849795 292.072092 
L 308.075286 298.439922 
L 308.612868 295.545454 
L 311.569568 298.387296 
L 313.182314 296.703241 
L 327.159441 298.885225 
L 327.965814 296.703241 
L 337.642287 298.825851 
L 355.113696 298.911943 
L 361.564678 298.729369 
L 368.01566 298.729369 
L 368.822033 296.703241 
L 371.509942 298.324144 
L 371.778733 292.072092 
L 372.585106 296.703241 
L 373.122688 295.545454 
L 374.466642 297.629471 
L 378.229715 298.522621 
L 380.380042 298.150475 
L 381.186415 294.387667 
L 393.282006 298.864444 
L 394.088379 296.703241 
L 397.582661 298.484453 
L 397.851452 292.072092 
L 398.389034 295.545454 
L 399.464197 297.282135 
L 404.840016 298.67148 
L 405.108806 292.072092 
L 408.871879 298.522621 
L 423.117798 298.887746 
L 423.65538 295.545454 
L 537.622727 299.002432 
L 537.622727 299.002432 
" clip-path="url(#p6711d3b12f)" style="fill: none; stroke: #d62728; stroke-opacity: 0.8; stroke-width: 1.2; stroke-linecap: square"/>
   </g>
   <g id="line2d_37">
    <path d="M 74.764773 299.018816 
L 75.033564 224.680248 
L 75.302355 215.648459 
L 75.571145 153.120692 
L 75.839936 208.700929 
L 76.108727 236.491048 
L 76.377518 180.910811 
L 76.646309 180.910811 
L 77.183891 194.80587 
L 77.452682 173.963281 
L 77.721473 118.383043 
L 77.990264 132.278102 
L 78.259055 90.592924 
L 78.527846 139.225632 
L 78.796636 132.278102 
L 79.065427 160.068221 
L 79.334218 90.592924 
L 79.603009 173.963281 
L 79.8718 118.383043 
L 80.140591 160.068221 
L 80.409382 48.907746 
L 80.678173 146.173162 
L 80.946964 90.592924 
L 81.215755 125.330573 
L 81.484546 83.645394 
L 81.753337 125.330573 
L 82.022127 132.278102 
L 82.290918 125.330573 
L 82.559709 153.120692 
L 82.8285 41.960216 
L 83.097291 83.645394 
L 83.366082 104.487984 
L 83.634873 90.592924 
L 83.903664 69.750335 
L 84.172455 97.540454 
L 84.441246 90.592924 
L 84.710037 28.065157 
L 84.978827 83.645394 
L 85.247618 76.697865 
L 85.516409 48.907746 
L 85.7852 146.173162 
L 86.053991 69.750335 
L 86.322782 153.120692 
L 86.591573 97.540454 
L 86.860364 90.592924 
L 87.129155 69.750335 
L 87.397946 146.173162 
L 87.666737 173.963281 
L 87.935528 139.225632 
L 88.204318 153.120692 
L 88.473109 132.278102 
L 88.7419 21.117627 
L 89.010691 111.435513 
L 89.279482 160.068221 
L 89.548273 83.645394 
L 89.817064 83.645394 
L 90.085855 160.068221 
L 90.354646 111.435513 
L 90.892228 111.435513 
L 91.161019 173.963281 
L 91.429809 97.540454 
L 91.6986 139.225632 
L 91.967391 132.278102 
L 92.236182 132.278102 
L 92.504973 125.330573 
L 93.311346 146.173162 
L 93.580137 97.540454 
L 93.848928 125.330573 
L 94.117719 173.963281 
L 94.386509 83.645394 
L 94.6553 125.330573 
L 94.924091 90.592924 
L 95.192882 146.173162 
L 95.461673 62.802805 
L 95.730464 173.963281 
L 95.999255 187.85834 
L 96.268046 125.330573 
L 96.536837 97.540454 
L 96.805628 90.592924 
L 97.074419 139.225632 
L 97.34321 167.015751 
L 97.612 153.120692 
L 97.880791 153.120692 
L 98.149582 139.225632 
L 98.418373 104.487984 
L 98.687164 111.435513 
L 98.955955 97.540454 
L 99.224746 160.068221 
L 99.493537 180.910811 
L 99.762328 160.068221 
L 100.031119 104.487984 
L 100.29991 180.910811 
L 100.568701 125.330573 
L 100.837491 160.068221 
L 101.106282 173.963281 
L 101.375073 125.330573 
L 101.643864 160.068221 
L 101.912655 146.173162 
L 102.181446 97.540454 
L 102.450237 132.278102 
L 102.719028 194.80587 
L 102.987819 173.963281 
L 103.25661 187.85834 
L 103.525401 208.700929 
L 103.794191 208.700929 
L 104.062982 153.120692 
L 104.331773 160.068221 
L 104.600564 180.910811 
L 104.869355 118.383043 
L 105.138146 146.173162 
L 105.406937 125.330573 
L 105.675728 173.963281 
L 105.944519 180.910811 
L 106.21331 208.700929 
L 106.750892 146.173162 
L 107.019682 173.963281 
L 107.288473 236.491048 
L 107.557264 201.7534 
L 107.826055 125.330573 
L 108.094846 208.700929 
L 108.363637 146.173162 
L 108.632428 160.068221 
L 108.901219 222.595989 
L 109.17001 187.85834 
L 109.438801 180.910811 
L 109.707592 153.120692 
L 109.976383 215.648459 
L 110.245173 201.7534 
L 110.513964 201.7534 
L 110.782755 229.543519 
L 111.051546 180.910811 
L 111.589128 167.015751 
L 111.857919 208.700929 
L 112.12671 215.648459 
L 112.395501 180.910811 
L 112.664292 194.80587 
L 112.933083 201.7534 
L 113.201873 201.7534 
L 113.470664 208.700929 
L 113.739455 201.7534 
L 114.008246 201.7534 
L 114.277037 187.85834 
L 114.545828 187.85834 
L 114.814619 229.543519 
L 115.08341 194.80587 
L 115.620992 208.700929 
L 115.889783 222.595989 
L 116.158574 229.543519 
L 116.427364 208.700929 
L 116.696155 229.543519 
L 116.964946 180.910811 
L 117.233737 194.80587 
L 117.502528 160.068221 
L 117.771319 215.648459 
L 118.04011 180.910811 
L 118.308901 194.80587 
L 118.577692 180.910811 
L 118.846483 160.068221 
L 119.115274 215.648459 
L 119.384065 243.438578 
L 119.652855 215.648459 
L 119.921646 236.491048 
L 120.190437 222.595989 
L 120.728019 208.700929 
L 120.99681 264.281167 
L 121.265601 215.648459 
L 121.534392 215.648459 
L 121.803183 208.700929 
L 122.071974 215.648459 
L 122.340765 187.85834 
L 122.609555 236.491048 
L 122.878346 187.85834 
L 123.147137 215.648459 
L 123.415928 201.7534 
L 123.684719 194.80587 
L 123.95351 222.595989 
L 124.222301 264.281167 
L 124.491092 208.700929 
L 124.759883 243.438578 
L 125.028674 236.491048 
L 125.297465 201.7534 
L 125.566256 264.281167 
L 125.835046 201.7534 
L 126.103837 215.648459 
L 126.372628 236.491048 
L 126.641419 229.543519 
L 126.91021 250.386108 
L 127.179001 250.386108 
L 127.447792 180.910811 
L 127.716583 180.910811 
L 128.254165 271.228697 
L 128.522956 229.543519 
L 128.791747 243.438578 
L 129.060537 264.281167 
L 129.329328 215.648459 
L 129.598119 257.333638 
L 129.86691 243.438578 
L 130.404492 229.543519 
L 130.673283 201.7534 
L 130.942074 250.386108 
L 131.210865 208.700929 
L 131.479656 215.648459 
L 131.748447 250.386108 
L 132.017237 201.7534 
L 132.286028 264.281167 
L 132.554819 250.386108 
L 133.092401 194.80587 
L 133.361192 250.386108 
L 133.629983 243.438578 
L 133.898774 278.176227 
L 134.167565 229.543519 
L 134.436356 257.333638 
L 134.705147 208.700929 
L 134.973938 222.595989 
L 135.242728 278.176227 
L 135.511519 243.438578 
L 135.78031 236.491048 
L 136.049101 250.386108 
L 136.586683 264.281167 
L 136.855474 264.281167 
L 137.124265 257.333638 
L 137.393056 243.438578 
L 137.661847 208.700929 
L 138.199429 264.281167 
L 138.468219 243.438578 
L 138.73701 250.386108 
L 139.005801 215.648459 
L 139.274592 264.281167 
L 139.543383 215.648459 
L 139.812174 243.438578 
L 140.080965 257.333638 
L 140.349756 236.491048 
L 140.618547 264.281167 
L 140.887338 264.281167 
L 141.156129 257.333638 
L 141.424919 236.491048 
L 141.69371 264.281167 
L 141.962501 222.595989 
L 142.231292 222.595989 
L 142.500083 250.386108 
L 142.768874 208.700929 
L 143.037665 215.648459 
L 143.306456 194.80587 
L 144.112829 278.176227 
L 144.38162 180.910811 
L 144.65041 222.595989 
L 144.919201 222.595989 
L 145.187992 187.85834 
L 145.725574 278.176227 
L 145.994365 229.543519 
L 146.263156 236.491048 
L 146.531947 250.386108 
L 146.800738 278.176227 
L 147.069529 250.386108 
L 147.33832 257.333638 
L 147.607111 250.386108 
L 147.875901 236.491048 
L 148.144692 271.228697 
L 148.413483 250.386108 
L 148.951065 278.176227 
L 149.219856 229.543519 
L 149.488647 278.176227 
L 149.757438 229.543519 
L 150.026229 278.176227 
L 150.29502 285.123756 
L 150.563811 271.228697 
L 150.832601 264.281167 
L 151.101392 236.491048 
L 151.370183 257.333638 
L 151.638974 250.386108 
L 151.907765 278.176227 
L 152.176556 271.228697 
L 152.445347 250.386108 
L 152.982929 264.281167 
L 153.25172 285.123756 
L 153.520511 278.176227 
L 153.789302 257.333638 
L 154.058092 271.228697 
L 154.326883 271.228697 
L 154.595674 278.176227 
L 154.864465 257.333638 
L 155.133256 271.228697 
L 155.402047 271.228697 
L 155.670838 257.333638 
L 155.939629 250.386108 
L 156.20842 285.123756 
L 156.477211 285.123756 
L 156.746002 278.176227 
L 157.014793 264.281167 
L 157.283583 285.123756 
L 157.552374 292.071286 
L 157.821165 285.123756 
L 158.627538 285.123756 
L 158.896329 229.543519 
L 159.16512 243.438578 
L 159.433911 278.176227 
L 159.702702 292.071286 
L 159.971493 271.228697 
L 160.240283 222.595989 
L 160.509074 278.176227 
L 160.777865 285.123756 
L 161.046656 250.386108 
L 161.315447 243.438578 
L 161.584238 278.176227 
L 161.853029 278.176227 
L 162.12182 271.228697 
L 162.390611 292.071286 
L 162.659402 292.071286 
L 162.928193 285.123756 
L 163.196984 264.281167 
L 163.465774 278.176227 
L 163.734565 278.176227 
L 164.003356 257.333638 
L 164.272147 278.176227 
L 164.540938 250.386108 
L 164.809729 250.386108 
L 165.07852 285.123756 
L 165.347311 264.281167 
L 165.616102 278.176227 
L 165.884893 264.281167 
L 166.153684 271.228697 
L 166.422475 243.438578 
L 166.691265 285.123756 
L 166.960056 250.386108 
L 167.228847 264.281167 
L 167.497638 264.281167 
L 167.766429 250.386108 
L 168.03522 264.281167 
L 168.304011 285.123756 
L 168.841593 278.176227 
L 169.110384 250.386108 
L 169.379175 271.228697 
L 169.647965 271.228697 
L 169.916756 250.386108 
L 170.185547 257.333638 
L 170.454338 285.123756 
L 170.723129 271.228697 
L 170.99192 264.281167 
L 171.260711 285.123756 
L 171.529502 250.386108 
L 171.798293 243.438578 
L 172.335875 257.333638 
L 172.604666 257.333638 
L 172.873456 264.281167 
L 173.411038 292.071286 
L 173.679829 292.071286 
L 173.94862 278.176227 
L 174.486202 295.545051 
L 174.754993 257.333638 
L 175.023784 285.123756 
L 175.830157 296.702973 
L 176.098947 278.176227 
L 176.367738 292.071286 
L 176.636529 292.071286 
L 176.90532 285.123756 
L 177.442902 285.123756 
L 178.786857 296.239804 
L 179.055648 257.333638 
L 179.593229 295.545051 
L 179.86202 292.071286 
L 180.399602 292.071286 
L 180.937184 295.545051 
L 181.205975 285.123756 
L 181.474766 285.123756 
L 181.743557 278.176227 
L 182.012348 292.071286 
L 182.281138 292.071286 
L 183.087511 296.702973 
L 183.356302 292.071286 
L 183.893884 288.597521 
L 186.044211 297.281933 
L 187.388166 297.62931 
L 188.73212 297.62931 
L 189.000911 292.071286 
L 189.807284 296.702973 
L 190.882448 297.281933 
L 191.68882 296.702973 
L 192.763984 297.281933 
L 193.570357 296.702973 
L 193.839148 285.123756 
L 194.37673 295.545051 
L 195.451893 293.808169 
L 196.258266 292.071286 
L 196.527057 292.071286 
L 197.871012 297.62931 
L 198.408593 295.545051 
L 198.677384 285.123756 
L 198.946175 292.071286 
L 199.483757 292.071286 
L 200.021339 288.597521 
L 200.29013 292.071286 
L 200.558921 271.228697 
L 200.827712 292.071286 
L 201.634084 292.071286 
L 202.440457 296.702973 
L 202.709248 292.071286 
L 203.24683 288.597521 
L 203.515621 278.176227 
L 203.784412 285.123756 
L 204.321993 295.545051 
L 204.590784 285.123756 
L 205.128366 295.545051 
L 205.397157 292.071286 
L 205.934739 278.176227 
L 206.20353 285.123756 
L 207.547484 297.62931 
L 207.816275 285.123756 
L 209.16023 297.62931 
L 209.429021 292.071286 
L 210.235394 296.702973 
L 211.041766 296.702973 
L 211.579348 295.545051 
L 212.385721 296.702973 
L 213.998466 297.860894 
L 214.267257 292.071286 
L 216.686376 297.47492 
L 217.492748 296.702973 
L 218.836703 297.62931 
L 219.105494 292.071286 
L 219.374285 292.071286 
L 223.137357 298.522564 
L 225.556476 298.246868 
L 230.125921 298.610138 
L 230.394712 292.071286 
L 231.201085 296.702973 
L 232.545039 297.62931 
L 235.232949 298.324063 
L 235.77053 288.597521 
L 236.576903 292.071286 
L 236.845694 292.071286 
L 237.114485 278.176227 
L 237.383276 278.176227 
L 237.652067 292.071286 
L 238.72723 295.545051 
L 238.996021 292.071286 
L 239.533603 295.545051 
L 240.339976 292.071286 
L 240.608767 285.123756 
L 240.877558 292.071286 
L 241.146349 285.123756 
L 241.41514 285.123756 
L 242.490303 297.281933 
L 242.759094 285.123756 
L 244.103049 297.62931 
L 244.37184 292.071286 
L 246.522167 298.150375 
L 246.790958 292.071286 
L 247.597331 296.702973 
L 250.554031 298.387222 
L 254.317104 298.522564 
L 254.585894 292.071286 
L 255.123476 292.071286 
L 259.15534 298.555647 
L 261.843249 298.324063 
L 262.918413 295.545051 
L 281.733777 298.919565 
L 285.228059 298.484391 
L 289.259922 298.555647 
L 297.592441 298.570588 
L 297.861232 292.071286 
L 300.28035 298.246868 
L 300.549141 292.071286 
L 301.355514 296.702973 
L 302.968259 297.860894 
L 303.23705 292.071286 
L 303.505841 292.071286 
L 304.312214 296.702973 
L 304.849795 292.071286 
L 308.075286 298.439855 
L 308.612868 295.545051 
L 311.569568 298.387222 
L 313.182314 296.702973 
L 327.159441 298.88521 
L 327.965814 296.702973 
L 337.642287 298.825829 
L 355.113696 298.911931 
L 361.564678 298.729336 
L 368.01566 298.729336 
L 368.822033 296.702973 
L 371.509942 298.324063 
L 371.778733 292.071286 
L 372.585106 296.702973 
L 373.122688 295.545051 
L 374.466642 297.62931 
L 378.229715 298.522564 
L 380.380042 298.150375 
L 381.186415 294.387129 
L 393.282006 298.864426 
L 394.088379 296.702973 
L 397.582661 298.484391 
L 397.851452 292.071286 
L 398.389034 295.545051 
L 399.464197 297.281933 
L 404.840016 298.671439 
L 405.108806 292.071286 
L 408.871879 298.522564 
L 423.117798 298.88773 
L 423.65538 295.545051 
L 537.622727 299.00243 
L 537.622727 299.00243 
" clip-path="url(#p6711d3b12f)" style="fill: none; stroke: #2ca02c; stroke-opacity: 0.8; stroke-width: 1.2; stroke-linecap: square"/>
   </g>
   <g id="patch_3">
    <path d="M 51.621875 312.91495 
L 51.621875 7.2 
" style="fill: none; stroke: #000000; stroke-width: 0.8; stroke-linejoin: miter; stroke-linecap: square"/>
   </g>
   <g id="patch_4">
    <path d="M 560.765625 312.91495 
L 560.765625 7.2 
" style="fill: none; stroke: #000000; stroke-width: 0.8; stroke-linejoin: miter; stroke-linecap: square"/>
   </g>
   <g id="patch_5">
    <path d="M 51.621875 312.91495 
L 560.765625 312.91495 
" style="fill: none; stroke: #000000; stroke-width: 0.8; stroke-linejoin: miter; stroke-linecap: square"/>
   </g>
   <g id="patch_6">
    <path d="M 51.621875 7.2 
L 560.765625 7.2 
" style="fill: none; stroke: #000000; stroke-width: 0.8; stroke-linejoin: miter; stroke-linecap: square"/>
   </g>
   <g id="legend_1">
    <g id="patch_7">
     <path d="M 467.607812 57.617187 
L 553.765625 57.617187 
Q 555.765625 57.617187 555.765625 55.617187 
L 555.765625 14.2 
Q 555.765625 12.2 553.765625 12.2 
L 467.607812 12.2 
Q 465.607812 12.2 465.607812 14.2 
L 465.607812 55.617187 
Q 465.607812 57.617187 467.607812 57.617187 
z
" style="fill: #ffffff; opacity: 0.8; stroke: #cccccc; stroke-linejoin: miter"/>
    </g>
    <g id="line2d_38">
     <path d="M 469.607812 19.7 
L 479.607812 19.7 
L 489.607812 19.7 
" style="fill: none; stroke: #1f77b4; stroke-opacity: 0.8; stroke-width: 1.2; stroke-linecap: square"/>
    </g>
    <g id="text_20">
     <!-- Simple Rank -->
     <g transform="translate(497.607812 23.2) scale(0.1 -0.1)">
      <defs>
       <path id="TimesNewRomanPSMT-53" d="M 2934 4334 
L 2934 2869 
L 2819 2869 
Q 2763 3291 2617 3541 
Q 2472 3791 2203 3937 
Q 1934 4084 1647 4084 
Q 1322 4084 1109 3886 
Q 897 3688 897 3434 
Q 897 3241 1031 3081 
Q 1225 2847 1953 2456 
Q 2547 2138 2764 1967 
Q 2981 1797 3098 1565 
Q 3216 1334 3216 1081 
Q 3216 600 2842 251 
Q 2469 -97 1881 -97 
Q 1697 -97 1534 -69 
Q 1438 -53 1133 45 
Q 828 144 747 144 
Q 669 144 623 97 
Q 578 50 556 -97 
L 441 -97 
L 441 1356 
L 556 1356 
Q 638 900 775 673 
Q 913 447 1195 297 
Q 1478 147 1816 147 
Q 2206 147 2432 353 
Q 2659 559 2659 841 
Q 2659 997 2573 1156 
Q 2488 1316 2306 1453 
Q 2184 1547 1640 1851 
Q 1097 2156 867 2337 
Q 638 2519 519 2737 
Q 400 2956 400 3219 
Q 400 3675 750 4004 
Q 1100 4334 1641 4334 
Q 1978 4334 2356 4169 
Q 2531 4091 2603 4091 
Q 2684 4091 2736 4139 
Q 2788 4188 2819 4334 
L 2934 4334 
z
" transform="scale(0.015625)"/>
       <path id="TimesNewRomanPSMT-70" d="M -6 2578 
L 875 2934 
L 994 2934 
L 994 2266 
Q 1216 2644 1439 2795 
Q 1663 2947 1909 2947 
Q 2341 2947 2628 2609 
Q 2981 2197 2981 1534 
Q 2981 794 2556 309 
Q 2206 -88 1675 -88 
Q 1444 -88 1275 -22 
Q 1150 25 994 166 
L 994 -706 
Q 994 -1000 1030 -1079 
Q 1066 -1159 1155 -1206 
Q 1244 -1253 1478 -1253 
L 1478 -1369 
L -22 -1369 
L -22 -1253 
L 56 -1253 
Q 228 -1256 350 -1188 
Q 409 -1153 442 -1076 
Q 475 -1000 475 -688 
L 475 2019 
Q 475 2297 450 2372 
Q 425 2447 370 2484 
Q 316 2522 222 2522 
Q 147 2522 31 2478 
L -6 2578 
z
M 994 2081 
L 994 1013 
Q 994 666 1022 556 
Q 1066 375 1236 237 
Q 1406 100 1666 100 
Q 1978 100 2172 344 
Q 2425 663 2425 1241 
Q 2425 1897 2138 2250 
Q 1938 2494 1663 2494 
Q 1513 2494 1366 2419 
Q 1253 2363 994 2081 
z
" transform="scale(0.015625)"/>
       <path id="TimesNewRomanPSMT-52" d="M 4325 0 
L 3194 0 
L 1759 1981 
Q 1600 1975 1500 1975 
Q 1459 1975 1412 1976 
Q 1366 1978 1316 1981 
L 1316 750 
Q 1316 350 1403 253 
Q 1522 116 1759 116 
L 1925 116 
L 1925 0 
L 109 0 
L 109 116 
L 269 116 
Q 538 116 653 291 
Q 719 388 719 750 
L 719 3488 
Q 719 3888 631 3984 
Q 509 4122 269 4122 
L 109 4122 
L 109 4238 
L 1653 4238 
Q 2328 4238 2648 4139 
Q 2969 4041 3192 3777 
Q 3416 3513 3416 3147 
Q 3416 2756 3161 2468 
Q 2906 2181 2372 2063 
L 3247 847 
Q 3547 428 3762 290 
Q 3978 153 4325 116 
L 4325 0 
z
M 1316 2178 
Q 1375 2178 1419 2176 
Q 1463 2175 1491 2175 
Q 2097 2175 2405 2437 
Q 2713 2700 2713 3106 
Q 2713 3503 2464 3751 
Q 2216 4000 1806 4000 
Q 1625 4000 1316 3941 
L 1316 2178 
z
" transform="scale(0.015625)"/>
       <path id="TimesNewRomanPSMT-6b" d="M 1047 4444 
L 1047 1597 
L 1775 2259 
Q 2006 2472 2044 2528 
Q 2069 2566 2069 2603 
Q 2069 2666 2017 2711 
Q 1966 2756 1847 2763 
L 1847 2863 
L 3091 2863 
L 3091 2763 
Q 2834 2756 2664 2684 
Q 2494 2613 2291 2428 
L 1556 1750 
L 2291 822 
Q 2597 438 2703 334 
Q 2853 188 2966 144 
Q 3044 113 3238 113 
L 3238 0 
L 1847 0 
L 1847 113 
Q 1966 116 2008 148 
Q 2050 181 2050 241 
Q 2050 313 1925 472 
L 1047 1594 
L 1047 644 
Q 1047 366 1086 278 
Q 1125 191 1197 153 
Q 1269 116 1509 113 
L 1509 0 
L 53 0 
L 53 113 
Q 272 113 381 166 
Q 447 200 481 272 
Q 528 375 528 628 
L 528 3234 
Q 528 3731 506 3842 
Q 484 3953 434 3995 
Q 384 4038 303 4038 
Q 238 4038 106 3984 
L 53 4094 
L 903 4444 
L 1047 4444 
z
" transform="scale(0.015625)"/>
      </defs>
      <use xlink:href="#TimesNewRomanPSMT-53"/>
      <use xlink:href="#TimesNewRomanPSMT-69" transform="translate(55.615234 0)"/>
      <use xlink:href="#TimesNewRomanPSMT-6d" transform="translate(83.398438 0)"/>
      <use xlink:href="#TimesNewRomanPSMT-70" transform="translate(161.181641 0)"/>
      <use xlink:href="#TimesNewRomanPSMT-6c" transform="translate(211.181641 0)"/>
      <use xlink:href="#TimesNewRomanPSMT-65" transform="translate(238.964844 0)"/>
      <use xlink:href="#TimesNewRomanPSMT-20" transform="translate(283.349609 0)"/>
      <use xlink:href="#TimesNewRomanPSMT-52" transform="translate(308.349609 0)"/>
      <use xlink:href="#TimesNewRomanPSMT-61" transform="translate(375.048828 0)"/>
      <use xlink:href="#TimesNewRomanPSMT-6e" transform="translate(419.433594 0)"/>
      <use xlink:href="#TimesNewRomanPSMT-6b" transform="translate(469.433594 0)"/>
     </g>
    </g>
    <g id="line2d_39">
     <path d="M 469.607812 33.839062 
L 479.607812 33.839062 
L 489.607812 33.839062 
" style="fill: none; stroke: #d62728; stroke-opacity: 0.8; stroke-width: 1.2; stroke-linecap: square"/>
    </g>
    <g id="text_21">
     <!-- Mean Rank -->
     <g transform="translate(497.607812 37.339062) scale(0.1 -0.1)">
      <defs>
       <path id="TimesNewRomanPSMT-4d" d="M 2619 0 
L 981 3566 
L 981 734 
Q 981 344 1066 247 
Q 1181 116 1431 116 
L 1581 116 
L 1581 0 
L 106 0 
L 106 116 
L 256 116 
Q 525 116 638 278 
Q 706 378 706 734 
L 706 3503 
Q 706 3784 644 3909 
Q 600 4000 483 4061 
Q 366 4122 106 4122 
L 106 4238 
L 1306 4238 
L 2844 922 
L 4356 4238 
L 5556 4238 
L 5556 4122 
L 5409 4122 
Q 5138 4122 5025 3959 
Q 4956 3859 4956 3503 
L 4956 734 
Q 4956 344 5044 247 
Q 5159 116 5409 116 
L 5556 116 
L 5556 0 
L 3756 0 
L 3756 116 
L 3906 116 
Q 4178 116 4288 278 
Q 4356 378 4356 734 
L 4356 3566 
L 2722 0 
L 2619 0 
z
" transform="scale(0.015625)"/>
      </defs>
      <use xlink:href="#TimesNewRomanPSMT-4d"/>
      <use xlink:href="#TimesNewRomanPSMT-65" transform="translate(88.916016 0)"/>
      <use xlink:href="#TimesNewRomanPSMT-61" transform="translate(133.300781 0)"/>
      <use xlink:href="#TimesNewRomanPSMT-6e" transform="translate(177.685547 0)"/>
      <use xlink:href="#TimesNewRomanPSMT-20" transform="translate(227.685547 0)"/>
      <use xlink:href="#TimesNewRomanPSMT-52" transform="translate(252.685547 0)"/>
      <use xlink:href="#TimesNewRomanPSMT-61" transform="translate(319.384766 0)"/>
      <use xlink:href="#TimesNewRomanPSMT-6e" transform="translate(363.769531 0)"/>
      <use xlink:href="#TimesNewRomanPSMT-6b" transform="translate(413.769531 0)"/>
     </g>
    </g>
    <g id="line2d_40">
     <path d="M 469.607812 47.978125 
L 479.607812 47.978125 
L 489.607812 47.978125 
" style="fill: none; stroke: #2ca02c; stroke-opacity: 0.8; stroke-width: 1.2; stroke-linecap: square"/>
    </g>
    <g id="text_22">
     <!-- Median Rank -->
     <g transform="translate(497.607812 51.478125) scale(0.1 -0.1)">
      <defs>
       <path id="TimesNewRomanPSMT-64" d="M 2222 322 
Q 2013 103 1813 7 
Q 1613 -88 1381 -88 
Q 913 -88 563 304 
Q 213 697 213 1313 
Q 213 1928 600 2439 
Q 988 2950 1597 2950 
Q 1975 2950 2222 2709 
L 2222 3238 
Q 2222 3728 2198 3840 
Q 2175 3953 2125 3993 
Q 2075 4034 2000 4034 
Q 1919 4034 1784 3984 
L 1744 4094 
L 2597 4444 
L 2738 4444 
L 2738 1134 
Q 2738 631 2761 520 
Q 2784 409 2836 365 
Q 2888 322 2956 322 
Q 3041 322 3181 375 
L 3216 266 
L 2366 -88 
L 2222 -88 
L 2222 322 
z
M 2222 541 
L 2222 2016 
Q 2203 2228 2109 2403 
Q 2016 2578 1861 2667 
Q 1706 2756 1559 2756 
Q 1284 2756 1069 2509 
Q 784 2184 784 1559 
Q 784 928 1059 592 
Q 1334 256 1672 256 
Q 1956 256 2222 541 
z
" transform="scale(0.015625)"/>
      </defs>
      <use xlink:href="#TimesNewRomanPSMT-4d"/>
      <use xlink:href="#TimesNewRomanPSMT-65" transform="translate(88.916016 0)"/>
      <use xlink:href="#TimesNewRomanPSMT-64" transform="translate(133.300781 0)"/>
      <use xlink:href="#TimesNewRomanPSMT-69" transform="translate(183.300781 0)"/>
      <use xlink:href="#TimesNewRomanPSMT-61" transform="translate(211.083984 0)"/>
      <use xlink:href="#TimesNewRomanPSMT-6e" transform="translate(255.46875 0)"/>
      <use xlink:href="#TimesNewRomanPSMT-20" transform="translate(305.46875 0)"/>
      <use xlink:href="#TimesNewRomanPSMT-52" transform="translate(330.46875 0)"/>
      <use xlink:href="#TimesNewRomanPSMT-61" transform="translate(397.167969 0)"/>
      <use xlink:href="#TimesNewRomanPSMT-6e" transform="translate(441.552734 0)"/>
      <use xlink:href="#TimesNewRomanPSMT-6b" transform="translate(491.552734 0)"/>
     </g>
    </g>
   </g>
  </g>
 </g>
 <defs>
  <clipPath id="p6711d3b12f">
   <rect x="51.621875" y="7.2" width="509.14375" height="305.71495"/>
  </clipPath>
 </defs>
</svg>
