<?xml version="1.0" encoding="utf-8" standalone="no"?>
<!DOCTYPE svg PUBLIC "-//W3C//DTD SVG 1.1//EN"
  "http://www.w3.org/Graphics/SVG/1.1/DTD/svg11.dtd">
<svg xmlns:xlink="http://www.w3.org/1999/xlink" width="568.216875pt" height="351.639687pt" viewBox="0 0 568.216875 351.639687" xmlns="http://www.w3.org/2000/svg" version="1.1">
 <metadata>
  <rdf:RDF xmlns:dc="http://purl.org/dc/elements/1.1/" xmlns:cc="http://creativecommons.org/ns#" xmlns:rdf="http://www.w3.org/1999/02/22-rdf-syntax-ns#">
   <cc:Work>
    <dc:type rdf:resource="http://purl.org/dc/dcmitype/StillImage"/>
    <dc:date>2026-03-23T22:35:09.158813</dc:date>
    <dc:format>image/svg+xml</dc:format>
    <dc:creator>
     <cc:Agent>
      <dc:title>Matplotlib v3.10.8, https://matplotlib.org/</dc:title>
     </cc:Agent>
    </dc:creator>
   </cc:Work>
  </rdf:RDF>
 </metadata>
 <defs>
  <style type="text/css">*{stroke-linejoin: round; stroke-linecap: butt}</style>
 </defs>
 <g id="figure_1">
  <g id="patch_1">
   <path d="M 0 351.639687 
L 568.216875 351.639687 
L 568.216875 0 
L 0 0 
z
" style="fill: #ffffff"/>
  </g>
  <g id="axes_1">
   <g id="patch_2">
    <path d="M 51.621875 313.435 
L 561.016875 313.435 
L 561.016875 7.2 
L 51.621875 7.2 
z
" style="fill: #ffffff"/>
   </g>
   <g id="matplotlib.axis_1">
    <g id="xtick_1">
     <g id="line2d_1">
      <path d="M 74.776193 313.435 
L 74.776193 7.2 
" clip-path="url(#pe7e271c959)" style="fill: none; stroke-dasharray: 2.96,1.28; stroke-dashoffset: 0; stroke: #b0b0b0; stroke-opacity: 0.6; stroke-width: 0.8"/>
     </g>
     <g id="line2d_2">
      <defs>
       <path id="mbd9408994a" d="M 0 0 
L 0 3.5 
" style="stroke: #000000; stroke-width: 0.8"/>
      </defs>
      <g>
       <use xlink:href="#mbd9408994a" x="74.776193" y="313.435" style="stroke: #000000; stroke-width: 0.8"/>
      </g>
     </g>
     <g id="text_1">
      <!-- 0 -->
      <g transform="translate(72.276193 327.37875) scale(0.1 -0.1)">
       <defs>
        <path id="TimesNewRomanPSMT-30" d="M 231 2094 
Q 231 2819 450 3342 
Q 669 3866 1031 4122 
Q 1313 4325 1613 4325 
Q 2100 4325 2488 3828 
Q 2972 3213 2972 2159 
Q 2972 1422 2759 906 
Q 2547 391 2217 158 
Q 1888 -75 1581 -75 
Q 975 -75 572 641 
Q 231 1244 231 2094 
z
M 844 2016 
Q 844 1141 1059 588 
Q 1238 122 1591 122 
Q 1759 122 1940 273 
Q 2122 425 2216 781 
Q 2359 1319 2359 2297 
Q 2359 3022 2209 3506 
Q 2097 3866 1919 4016 
Q 1791 4119 1609 4119 
Q 1397 4119 1231 3928 
Q 1006 3669 925 3112 
Q 844 2556 844 2016 
z
" transform="scale(0.015625)"/>
       </defs>
       <use xlink:href="#TimesNewRomanPSMT-30"/>
      </g>
     </g>
    </g>
    <g id="xtick_2">
     <g id="line2d_3">
      <path d="M 142.007082 313.435 
L 142.007082 7.2 
" clip-path="url(#pe7e271c959)" style="fill: none; stroke-dasharray: 2.96,1.28; stroke-dashoffset: 0; stroke: #b0b0b0; stroke-opacity: 0.6; stroke-width: 0.8"/>
     </g>
     <g id="line2d_4">
      <g>
       <use xlink:href="#mbd9408994a" x="142.007082" y="313.435" style="stroke: #000000; stroke-width: 0.8"/>
      </g>
     </g>
     <g id="text_2">
      <!-- 250 -->
      <g transform="translate(134.507082 327.37875) scale(0.1 -0.1)">
       <defs>
        <path id="TimesNewRomanPSMT-32" d="M 2934 816 
L 2638 0 
L 138 0 
L 138 116 
Q 1241 1122 1691 1759 
Q 2141 2397 2141 2925 
Q 2141 3328 1894 3587 
Q 1647 3847 1303 3847 
Q 991 3847 742 3664 
Q 494 3481 375 3128 
L 259 3128 
Q 338 3706 661 4015 
Q 984 4325 1469 4325 
Q 1984 4325 2329 3994 
Q 2675 3663 2675 3213 
Q 2675 2891 2525 2569 
Q 2294 2063 1775 1497 
Q 997 647 803 472 
L 1909 472 
Q 2247 472 2383 497 
Q 2519 522 2628 598 
Q 2738 675 2819 816 
L 2934 816 
z
" transform="scale(0.015625)"/>
        <path id="TimesNewRomanPSMT-35" d="M 2778 4238 
L 2534 3706 
L 1259 3706 
L 981 3138 
Q 1809 3016 2294 2522 
Q 2709 2097 2709 1522 
Q 2709 1188 2573 903 
Q 2438 619 2231 419 
Q 2025 219 1772 97 
Q 1413 -75 1034 -75 
Q 653 -75 479 54 
Q 306 184 306 341 
Q 306 428 378 495 
Q 450 563 559 563 
Q 641 563 702 538 
Q 763 513 909 409 
Q 1144 247 1384 247 
Q 1750 247 2026 523 
Q 2303 800 2303 1197 
Q 2303 1581 2056 1914 
Q 1809 2247 1375 2428 
Q 1034 2569 447 2591 
L 1259 4238 
L 2778 4238 
z
" transform="scale(0.015625)"/>
       </defs>
       <use xlink:href="#TimesNewRomanPSMT-32"/>
       <use xlink:href="#TimesNewRomanPSMT-35" transform="translate(50 0)"/>
       <use xlink:href="#TimesNewRomanPSMT-30" transform="translate(100 0)"/>
      </g>
     </g>
    </g>
    <g id="xtick_3">
     <g id="line2d_5">
      <path d="M 209.237971 313.435 
L 209.237971 7.2 
" clip-path="url(#pe7e271c959)" style="fill: none; stroke-dasharray: 2.96,1.28; stroke-dashoffset: 0; stroke: #b0b0b0; stroke-opacity: 0.6; stroke-width: 0.8"/>
     </g>
     <g id="line2d_6">
      <g>
       <use xlink:href="#mbd9408994a" x="209.237971" y="313.435" style="stroke: #000000; stroke-width: 0.8"/>
      </g>
     </g>
     <g id="text_3">
      <!-- 500 -->
      <g transform="translate(201.737971 327.37875) scale(0.1 -0.1)">
       <use xlink:href="#TimesNewRomanPSMT-35"/>
       <use xlink:href="#TimesNewRomanPSMT-30" transform="translate(50 0)"/>
       <use xlink:href="#TimesNewRomanPSMT-30" transform="translate(100 0)"/>
      </g>
     </g>
    </g>
    <g id="xtick_4">
     <g id="line2d_7">
      <path d="M 276.46886 313.435 
L 276.46886 7.2 
" clip-path="url(#pe7e271c959)" style="fill: none; stroke-dasharray: 2.96,1.28; stroke-dashoffset: 0; stroke: #b0b0b0; stroke-opacity: 0.6; stroke-width: 0.8"/>
     </g>
     <g id="line2d_8">
      <g>
       <use xlink:href="#mbd9408994a" x="276.46886" y="313.435" style="stroke: #000000; stroke-width: 0.8"/>
      </g>
     </g>
     <g id="text_4">
      <!-- 750 -->
      <g transform="translate(268.96886 327.37875) scale(0.1 -0.1)">
       <defs>
        <path id="TimesNewRomanPSMT-37" d="M 644 4238 
L 2916 4238 
L 2916 4119 
L 1503 -88 
L 1153 -88 
L 2419 3728 
L 1253 3728 
Q 900 3728 750 3644 
Q 488 3500 328 3200 
L 238 3234 
L 644 4238 
z
" transform="scale(0.015625)"/>
       </defs>
       <use xlink:href="#TimesNewRomanPSMT-37"/>
       <use xlink:href="#TimesNewRomanPSMT-35" transform="translate(50 0)"/>
       <use xlink:href="#TimesNewRomanPSMT-30" transform="translate(100 0)"/>
      </g>
     </g>
    </g>
    <g id="xtick_5">
     <g id="line2d_9">
      <path d="M 343.699749 313.435 
L 343.699749 7.2 
" clip-path="url(#pe7e271c959)" style="fill: none; stroke-dasharray: 2.96,1.28; stroke-dashoffset: 0; stroke: #b0b0b0; stroke-opacity: 0.6; stroke-width: 0.8"/>
     </g>
     <g id="line2d_10">
      <g>
       <use xlink:href="#mbd9408994a" x="343.699749" y="313.435" style="stroke: #000000; stroke-width: 0.8"/>
      </g>
     </g>
     <g id="text_5">
      <!-- 1000 -->
      <g transform="translate(333.699749 327.37875) scale(0.1 -0.1)">
       <defs>
        <path id="TimesNewRomanPSMT-31" d="M 750 3822 
L 1781 4325 
L 1884 4325 
L 1884 747 
Q 1884 391 1914 303 
Q 1944 216 2037 169 
Q 2131 122 2419 116 
L 2419 0 
L 825 0 
L 825 116 
Q 1125 122 1212 167 
Q 1300 213 1334 289 
Q 1369 366 1369 747 
L 1369 3034 
Q 1369 3497 1338 3628 
Q 1316 3728 1258 3775 
Q 1200 3822 1119 3822 
Q 1003 3822 797 3725 
L 750 3822 
z
" transform="scale(0.015625)"/>
       </defs>
       <use xlink:href="#TimesNewRomanPSMT-31"/>
       <use xlink:href="#TimesNewRomanPSMT-30" transform="translate(50 0)"/>
       <use xlink:href="#TimesNewRomanPSMT-30" transform="translate(100 0)"/>
       <use xlink:href="#TimesNewRomanPSMT-30" transform="translate(150 0)"/>
      </g>
     </g>
    </g>
    <g id="xtick_6">
     <g id="line2d_11">
      <path d="M 410.930638 313.435 
L 410.930638 7.2 
" clip-path="url(#pe7e271c959)" style="fill: none; stroke-dasharray: 2.96,1.28; stroke-dashoffset: 0; stroke: #b0b0b0; stroke-opacity: 0.6; stroke-width: 0.8"/>
     </g>
     <g id="line2d_12">
      <g>
       <use xlink:href="#mbd9408994a" x="410.930638" y="313.435" style="stroke: #000000; stroke-width: 0.8"/>
      </g>
     </g>
     <g id="text_6">
      <!-- 1250 -->
      <g transform="translate(400.930638 327.37875) scale(0.1 -0.1)">
       <use xlink:href="#TimesNewRomanPSMT-31"/>
       <use xlink:href="#TimesNewRomanPSMT-32" transform="translate(50 0)"/>
       <use xlink:href="#TimesNewRomanPSMT-35" transform="translate(100 0)"/>
       <use xlink:href="#TimesNewRomanPSMT-30" transform="translate(150 0)"/>
      </g>
     </g>
    </g>
    <g id="xtick_7">
     <g id="line2d_13">
      <path d="M 478.161527 313.435 
L 478.161527 7.2 
" clip-path="url(#pe7e271c959)" style="fill: none; stroke-dasharray: 2.96,1.28; stroke-dashoffset: 0; stroke: #b0b0b0; stroke-opacity: 0.6; stroke-width: 0.8"/>
     </g>
     <g id="line2d_14">
      <g>
       <use xlink:href="#mbd9408994a" x="478.161527" y="313.435" style="stroke: #000000; stroke-width: 0.8"/>
      </g>
     </g>
     <g id="text_7">
      <!-- 1500 -->
      <g transform="translate(468.161527 327.37875) scale(0.1 -0.1)">
       <use xlink:href="#TimesNewRomanPSMT-31"/>
       <use xlink:href="#TimesNewRomanPSMT-35" transform="translate(50 0)"/>
       <use xlink:href="#TimesNewRomanPSMT-30" transform="translate(100 0)"/>
       <use xlink:href="#TimesNewRomanPSMT-30" transform="translate(150 0)"/>
      </g>
     </g>
    </g>
    <g id="xtick_8">
     <g id="line2d_15">
      <path d="M 545.392416 313.435 
L 545.392416 7.2 
" clip-path="url(#pe7e271c959)" style="fill: none; stroke-dasharray: 2.96,1.28; stroke-dashoffset: 0; stroke: #b0b0b0; stroke-opacity: 0.6; stroke-width: 0.8"/>
     </g>
     <g id="line2d_16">
      <g>
       <use xlink:href="#mbd9408994a" x="545.392416" y="313.435" style="stroke: #000000; stroke-width: 0.8"/>
      </g>
     </g>
     <g id="text_8">
      <!-- 1750 -->
      <g transform="translate(535.392416 327.37875) scale(0.1 -0.1)">
       <use xlink:href="#TimesNewRomanPSMT-31"/>
       <use xlink:href="#TimesNewRomanPSMT-37" transform="translate(50 0)"/>
       <use xlink:href="#TimesNewRomanPSMT-35" transform="translate(100 0)"/>
       <use xlink:href="#TimesNewRomanPSMT-30" transform="translate(150 0)"/>
      </g>
     </g>
    </g>
    <g id="text_9">
     <!-- Failure Time (Days) -->
     <g transform="translate(257.65 341.850312) scale(0.12 -0.12)">
      <defs>
       <path id="TimesNewRomanPSMT-46" d="M 1309 4006 
L 1309 2341 
L 2081 2341 
Q 2347 2341 2470 2458 
Q 2594 2575 2634 2922 
L 2750 2922 
L 2750 1488 
L 2634 1488 
Q 2631 1734 2570 1850 
Q 2509 1966 2401 2023 
Q 2294 2081 2081 2081 
L 1309 2081 
L 1309 750 
Q 1309 428 1350 325 
Q 1381 247 1481 191 
Q 1619 116 1769 116 
L 1922 116 
L 1922 0 
L 103 0 
L 103 116 
L 253 116 
Q 516 116 634 269 
Q 709 369 709 750 
L 709 3488 
Q 709 3809 669 3913 
Q 638 3991 541 4047 
Q 406 4122 253 4122 
L 103 4122 
L 103 4238 
L 3256 4238 
L 3297 3306 
L 3188 3306 
Q 3106 3603 2998 3742 
Q 2891 3881 2733 3943 
Q 2575 4006 2244 4006 
L 1309 4006 
z
" transform="scale(0.015625)"/>
       <path id="TimesNewRomanPSMT-61" d="M 1822 413 
Q 1381 72 1269 19 
Q 1100 -59 909 -59 
Q 613 -59 420 144 
Q 228 347 228 678 
Q 228 888 322 1041 
Q 450 1253 767 1440 
Q 1084 1628 1822 1897 
L 1822 2009 
Q 1822 2438 1686 2597 
Q 1550 2756 1291 2756 
Q 1094 2756 978 2650 
Q 859 2544 859 2406 
L 866 2225 
Q 866 2081 792 2003 
Q 719 1925 600 1925 
Q 484 1925 411 2006 
Q 338 2088 338 2228 
Q 338 2497 613 2722 
Q 888 2947 1384 2947 
Q 1766 2947 2009 2819 
Q 2194 2722 2281 2516 
Q 2338 2381 2338 1966 
L 2338 994 
Q 2338 584 2353 492 
Q 2369 400 2405 369 
Q 2441 338 2488 338 
Q 2538 338 2575 359 
Q 2641 400 2828 588 
L 2828 413 
Q 2478 -56 2159 -56 
Q 2006 -56 1915 50 
Q 1825 156 1822 413 
z
M 1822 616 
L 1822 1706 
Q 1350 1519 1213 1441 
Q 966 1303 859 1153 
Q 753 1003 753 825 
Q 753 600 887 451 
Q 1022 303 1197 303 
Q 1434 303 1822 616 
z
" transform="scale(0.015625)"/>
       <path id="TimesNewRomanPSMT-69" d="M 928 4444 
Q 1059 4444 1151 4351 
Q 1244 4259 1244 4128 
Q 1244 3997 1151 3903 
Q 1059 3809 928 3809 
Q 797 3809 703 3903 
Q 609 3997 609 4128 
Q 609 4259 701 4351 
Q 794 4444 928 4444 
z
M 1188 2947 
L 1188 647 
Q 1188 378 1227 289 
Q 1266 200 1342 156 
Q 1419 113 1622 113 
L 1622 0 
L 231 0 
L 231 113 
Q 441 113 512 153 
Q 584 194 626 287 
Q 669 381 669 647 
L 669 1750 
Q 669 2216 641 2353 
Q 619 2453 572 2492 
Q 525 2531 444 2531 
Q 356 2531 231 2484 
L 188 2597 
L 1050 2947 
L 1188 2947 
z
" transform="scale(0.015625)"/>
       <path id="TimesNewRomanPSMT-6c" d="M 1184 4444 
L 1184 647 
Q 1184 378 1223 290 
Q 1263 203 1344 158 
Q 1425 113 1647 113 
L 1647 0 
L 244 0 
L 244 113 
Q 441 113 512 153 
Q 584 194 625 287 
Q 666 381 666 647 
L 666 3247 
Q 666 3731 644 3842 
Q 622 3953 573 3993 
Q 525 4034 450 4034 
Q 369 4034 244 3984 
L 191 4094 
L 1044 4444 
L 1184 4444 
z
" transform="scale(0.015625)"/>
       <path id="TimesNewRomanPSMT-75" d="M 2709 2863 
L 2709 1128 
Q 2709 631 2732 520 
Q 2756 409 2807 365 
Q 2859 322 2928 322 
Q 3025 322 3147 375 
L 3191 266 
L 2334 -88 
L 2194 -88 
L 2194 519 
Q 1825 119 1631 15 
Q 1438 -88 1222 -88 
Q 981 -88 804 51 
Q 628 191 559 409 
Q 491 628 491 1028 
L 491 2306 
Q 491 2509 447 2587 
Q 403 2666 317 2708 
Q 231 2750 6 2747 
L 6 2863 
L 1009 2863 
L 1009 947 
Q 1009 547 1148 422 
Q 1288 297 1484 297 
Q 1619 297 1789 381 
Q 1959 466 2194 703 
L 2194 2325 
Q 2194 2569 2105 2655 
Q 2016 2741 1734 2747 
L 1734 2863 
L 2709 2863 
z
" transform="scale(0.015625)"/>
       <path id="TimesNewRomanPSMT-72" d="M 1038 2947 
L 1038 2303 
Q 1397 2947 1775 2947 
Q 1947 2947 2059 2842 
Q 2172 2738 2172 2600 
Q 2172 2478 2090 2393 
Q 2009 2309 1897 2309 
Q 1788 2309 1652 2417 
Q 1516 2525 1450 2525 
Q 1394 2525 1328 2463 
Q 1188 2334 1038 2041 
L 1038 669 
Q 1038 431 1097 309 
Q 1138 225 1241 169 
Q 1344 113 1538 113 
L 1538 0 
L 72 0 
L 72 113 
Q 291 113 397 181 
Q 475 231 506 341 
Q 522 394 522 644 
L 522 1753 
Q 522 2253 501 2348 
Q 481 2444 426 2487 
Q 372 2531 291 2531 
Q 194 2531 72 2484 
L 41 2597 
L 906 2947 
L 1038 2947 
z
" transform="scale(0.015625)"/>
       <path id="TimesNewRomanPSMT-65" d="M 681 1784 
Q 678 1147 991 784 
Q 1303 422 1725 422 
Q 2006 422 2214 576 
Q 2422 731 2563 1106 
L 2659 1044 
Q 2594 616 2278 264 
Q 1963 -88 1488 -88 
Q 972 -88 605 314 
Q 238 716 238 1394 
Q 238 2128 614 2539 
Q 991 2950 1559 2950 
Q 2041 2950 2350 2633 
Q 2659 2316 2659 1784 
L 681 1784 
z
M 681 1966 
L 2006 1966 
Q 1991 2241 1941 2353 
Q 1863 2528 1708 2628 
Q 1553 2728 1384 2728 
Q 1125 2728 920 2526 
Q 716 2325 681 1966 
z
" transform="scale(0.015625)"/>
       <path id="TimesNewRomanPSMT-20" transform="scale(0.015625)"/>
       <path id="TimesNewRomanPSMT-54" d="M 3703 4238 
L 3750 3244 
L 3631 3244 
Q 3597 3506 3538 3619 
Q 3441 3800 3280 3886 
Q 3119 3972 2856 3972 
L 2259 3972 
L 2259 734 
Q 2259 344 2344 247 
Q 2463 116 2709 116 
L 2856 116 
L 2856 0 
L 1059 0 
L 1059 116 
L 1209 116 
Q 1478 116 1591 278 
Q 1659 378 1659 734 
L 1659 3972 
L 1150 3972 
Q 853 3972 728 3928 
Q 566 3869 450 3700 
Q 334 3531 313 3244 
L 194 3244 
L 244 4238 
L 3703 4238 
z
" transform="scale(0.015625)"/>
       <path id="TimesNewRomanPSMT-6d" d="M 1050 2338 
Q 1363 2650 1419 2697 
Q 1559 2816 1721 2881 
Q 1884 2947 2044 2947 
Q 2313 2947 2506 2790 
Q 2700 2634 2766 2338 
Q 3088 2713 3309 2830 
Q 3531 2947 3766 2947 
Q 3994 2947 4170 2830 
Q 4347 2713 4450 2447 
Q 4519 2266 4519 1878 
L 4519 647 
Q 4519 378 4559 278 
Q 4591 209 4675 161 
Q 4759 113 4950 113 
L 4950 0 
L 3538 0 
L 3538 113 
L 3597 113 
Q 3781 113 3884 184 
Q 3956 234 3988 344 
Q 4000 397 4000 647 
L 4000 1878 
Q 4000 2228 3916 2372 
Q 3794 2572 3525 2572 
Q 3359 2572 3192 2489 
Q 3025 2406 2788 2181 
L 2781 2147 
L 2788 2013 
L 2788 647 
Q 2788 353 2820 281 
Q 2853 209 2943 161 
Q 3034 113 3253 113 
L 3253 0 
L 1806 0 
L 1806 113 
Q 2044 113 2133 169 
Q 2222 225 2256 338 
Q 2272 391 2272 647 
L 2272 1878 
Q 2272 2228 2169 2381 
Q 2031 2581 1784 2581 
Q 1616 2581 1450 2491 
Q 1191 2353 1050 2181 
L 1050 647 
Q 1050 366 1089 281 
Q 1128 197 1204 155 
Q 1281 113 1516 113 
L 1516 0 
L 100 0 
L 100 113 
Q 297 113 375 155 
Q 453 197 493 289 
Q 534 381 534 647 
L 534 1741 
Q 534 2213 506 2350 
Q 484 2453 437 2492 
Q 391 2531 309 2531 
Q 222 2531 100 2484 
L 53 2597 
L 916 2947 
L 1050 2947 
L 1050 2338 
z
" transform="scale(0.015625)"/>
       <path id="TimesNewRomanPSMT-28" d="M 1988 -1253 
L 1988 -1369 
Q 1516 -1131 1200 -813 
Q 750 -359 506 256 
Q 263 872 263 1534 
Q 263 2503 741 3301 
Q 1219 4100 1988 4444 
L 1988 4313 
Q 1603 4100 1356 3731 
Q 1109 3363 987 2797 
Q 866 2231 866 1616 
Q 866 947 969 400 
Q 1050 -31 1165 -292 
Q 1281 -553 1476 -793 
Q 1672 -1034 1988 -1253 
z
" transform="scale(0.015625)"/>
       <path id="TimesNewRomanPSMT-44" d="M 109 0 
L 109 116 
L 269 116 
Q 538 116 650 288 
Q 719 391 719 750 
L 719 3488 
Q 719 3884 631 3984 
Q 509 4122 269 4122 
L 109 4122 
L 109 4238 
L 1834 4238 
Q 2784 4238 3279 4022 
Q 3775 3806 4076 3303 
Q 4378 2800 4378 2141 
Q 4378 1256 3841 663 
Q 3238 0 2003 0 
L 109 0 
z
M 1319 306 
Q 1716 219 1984 219 
Q 2709 219 3187 728 
Q 3666 1238 3666 2109 
Q 3666 2988 3187 3494 
Q 2709 4000 1959 4000 
Q 1678 4000 1319 3909 
L 1319 306 
z
" transform="scale(0.015625)"/>
       <path id="TimesNewRomanPSMT-79" d="M 38 2863 
L 1372 2863 
L 1372 2747 
L 1306 2747 
Q 1166 2747 1095 2686 
Q 1025 2625 1025 2534 
Q 1025 2413 1128 2197 
L 1825 753 
L 2466 2334 
Q 2519 2463 2519 2588 
Q 2519 2644 2497 2672 
Q 2472 2706 2419 2726 
Q 2366 2747 2231 2747 
L 2231 2863 
L 3163 2863 
L 3163 2747 
Q 3047 2734 2984 2696 
Q 2922 2659 2847 2556 
Q 2819 2513 2741 2316 
L 1575 -541 
Q 1406 -956 1132 -1168 
Q 859 -1381 606 -1381 
Q 422 -1381 303 -1275 
Q 184 -1169 184 -1031 
Q 184 -900 270 -820 
Q 356 -741 506 -741 
Q 609 -741 788 -809 
Q 913 -856 944 -856 
Q 1038 -856 1148 -759 
Q 1259 -663 1372 -384 
L 1575 113 
L 547 2272 
Q 500 2369 397 2513 
Q 319 2622 269 2659 
Q 197 2709 38 2747 
L 38 2863 
z
" transform="scale(0.015625)"/>
       <path id="TimesNewRomanPSMT-73" d="M 2050 2947 
L 2050 1972 
L 1947 1972 
Q 1828 2431 1642 2597 
Q 1456 2763 1169 2763 
Q 950 2763 815 2647 
Q 681 2531 681 2391 
Q 681 2216 781 2091 
Q 878 1963 1175 1819 
L 1631 1597 
Q 2266 1288 2266 781 
Q 2266 391 1970 151 
Q 1675 -88 1309 -88 
Q 1047 -88 709 6 
Q 606 38 541 38 
Q 469 38 428 -44 
L 325 -44 
L 325 978 
L 428 978 
Q 516 541 762 319 
Q 1009 97 1316 97 
Q 1531 97 1667 223 
Q 1803 350 1803 528 
Q 1803 744 1651 891 
Q 1500 1038 1047 1263 
Q 594 1488 453 1669 
Q 313 1847 313 2119 
Q 313 2472 555 2709 
Q 797 2947 1181 2947 
Q 1350 2947 1591 2875 
Q 1750 2828 1803 2828 
Q 1853 2828 1881 2850 
Q 1909 2872 1947 2947 
L 2050 2947 
z
" transform="scale(0.015625)"/>
       <path id="TimesNewRomanPSMT-29" d="M 144 4313 
L 144 4444 
Q 619 4209 934 3891 
Q 1381 3434 1625 2820 
Q 1869 2206 1869 1541 
Q 1869 572 1392 -226 
Q 916 -1025 144 -1369 
L 144 -1253 
Q 528 -1038 776 -670 
Q 1025 -303 1145 264 
Q 1266 831 1266 1447 
Q 1266 2113 1163 2663 
Q 1084 3094 967 3353 
Q 850 3613 656 3853 
Q 463 4094 144 4313 
z
" transform="scale(0.015625)"/>
      </defs>
      <use xlink:href="#TimesNewRomanPSMT-46"/>
      <use xlink:href="#TimesNewRomanPSMT-61" transform="translate(55.615234 0)"/>
      <use xlink:href="#TimesNewRomanPSMT-69" transform="translate(100 0)"/>
      <use xlink:href="#TimesNewRomanPSMT-6c" transform="translate(127.783203 0)"/>
      <use xlink:href="#TimesNewRomanPSMT-75" transform="translate(155.566406 0)"/>
      <use xlink:href="#TimesNewRomanPSMT-72" transform="translate(205.566406 0)"/>
      <use xlink:href="#TimesNewRomanPSMT-65" transform="translate(238.867188 0)"/>
      <use xlink:href="#TimesNewRomanPSMT-20" transform="translate(283.251953 0)"/>
      <use xlink:href="#TimesNewRomanPSMT-54" transform="translate(306.501953 0)"/>
      <use xlink:href="#TimesNewRomanPSMT-69" transform="translate(364.085938 0)"/>
      <use xlink:href="#TimesNewRomanPSMT-6d" transform="translate(391.869141 0)"/>
      <use xlink:href="#TimesNewRomanPSMT-65" transform="translate(469.652344 0)"/>
      <use xlink:href="#TimesNewRomanPSMT-20" transform="translate(514.037109 0)"/>
      <use xlink:href="#TimesNewRomanPSMT-28" transform="translate(539.037109 0)"/>
      <use xlink:href="#TimesNewRomanPSMT-44" transform="translate(572.337891 0)"/>
      <use xlink:href="#TimesNewRomanPSMT-61" transform="translate(644.554688 0)"/>
      <use xlink:href="#TimesNewRomanPSMT-79" transform="translate(688.939453 0)"/>
      <use xlink:href="#TimesNewRomanPSMT-73" transform="translate(738.939453 0)"/>
      <use xlink:href="#TimesNewRomanPSMT-29" transform="translate(777.855469 0)"/>
     </g>
    </g>
   </g>
   <g id="matplotlib.axis_2">
    <g id="ytick_1">
     <g id="line2d_17">
      <path d="M 51.621875 299.515227 
L 561.016875 299.515227 
" clip-path="url(#pe7e271c959)" style="fill: none; stroke-dasharray: 2.96,1.28; stroke-dashoffset: 0; stroke: #b0b0b0; stroke-opacity: 0.6; stroke-width: 0.8"/>
     </g>
     <g id="line2d_18">
      <defs>
       <path id="meee099048b" d="M 0 0 
L -3.5 0 
" style="stroke: #000000; stroke-width: 0.8"/>
      </defs>
      <g>
       <use xlink:href="#meee099048b" x="51.621875" y="299.515227" style="stroke: #000000; stroke-width: 0.8"/>
      </g>
     </g>
     <g id="text_10">
      <!-- 0.000 -->
      <g transform="translate(22.121875 302.987102) scale(0.1 -0.1)">
       <defs>
        <path id="TimesNewRomanPSMT-2e" d="M 800 606 
Q 947 606 1047 504 
Q 1147 403 1147 259 
Q 1147 116 1045 14 
Q 944 -88 800 -88 
Q 656 -88 554 14 
Q 453 116 453 259 
Q 453 406 554 506 
Q 656 606 800 606 
z
" transform="scale(0.015625)"/>
       </defs>
       <use xlink:href="#TimesNewRomanPSMT-30"/>
       <use xlink:href="#TimesNewRomanPSMT-2e" transform="translate(50 0)"/>
       <use xlink:href="#TimesNewRomanPSMT-30" transform="translate(75 0)"/>
       <use xlink:href="#TimesNewRomanPSMT-30" transform="translate(125 0)"/>
       <use xlink:href="#TimesNewRomanPSMT-30" transform="translate(175 0)"/>
      </g>
     </g>
    </g>
    <g id="ytick_2">
     <g id="line2d_19">
      <path d="M 51.621875 263.518695 
L 561.016875 263.518695 
" clip-path="url(#pe7e271c959)" style="fill: none; stroke-dasharray: 2.96,1.28; stroke-dashoffset: 0; stroke: #b0b0b0; stroke-opacity: 0.6; stroke-width: 0.8"/>
     </g>
     <g id="line2d_20">
      <g>
       <use xlink:href="#meee099048b" x="51.621875" y="263.518695" style="stroke: #000000; stroke-width: 0.8"/>
      </g>
     </g>
     <g id="text_11">
      <!-- 0.001 -->
      <g transform="translate(22.121875 266.99057) scale(0.1 -0.1)">
       <use xlink:href="#TimesNewRomanPSMT-30"/>
       <use xlink:href="#TimesNewRomanPSMT-2e" transform="translate(50 0)"/>
       <use xlink:href="#TimesNewRomanPSMT-30" transform="translate(75 0)"/>
       <use xlink:href="#TimesNewRomanPSMT-30" transform="translate(125 0)"/>
       <use xlink:href="#TimesNewRomanPSMT-31" transform="translate(175 0)"/>
      </g>
     </g>
    </g>
    <g id="ytick_3">
     <g id="line2d_21">
      <path d="M 51.621875 227.522163 
L 561.016875 227.522163 
" clip-path="url(#pe7e271c959)" style="fill: none; stroke-dasharray: 2.96,1.28; stroke-dashoffset: 0; stroke: #b0b0b0; stroke-opacity: 0.6; stroke-width: 0.8"/>
     </g>
     <g id="line2d_22">
      <g>
       <use xlink:href="#meee099048b" x="51.621875" y="227.522163" style="stroke: #000000; stroke-width: 0.8"/>
      </g>
     </g>
     <g id="text_12">
      <!-- 0.002 -->
      <g transform="translate(22.121875 230.994038) scale(0.1 -0.1)">
       <use xlink:href="#TimesNewRomanPSMT-30"/>
       <use xlink:href="#TimesNewRomanPSMT-2e" transform="translate(50 0)"/>
       <use xlink:href="#TimesNewRomanPSMT-30" transform="translate(75 0)"/>
       <use xlink:href="#TimesNewRomanPSMT-30" transform="translate(125 0)"/>
       <use xlink:href="#TimesNewRomanPSMT-32" transform="translate(175 0)"/>
      </g>
     </g>
    </g>
    <g id="ytick_4">
     <g id="line2d_23">
      <path d="M 51.621875 191.52563 
L 561.016875 191.52563 
" clip-path="url(#pe7e271c959)" style="fill: none; stroke-dasharray: 2.96,1.28; stroke-dashoffset: 0; stroke: #b0b0b0; stroke-opacity: 0.6; stroke-width: 0.8"/>
     </g>
     <g id="line2d_24">
      <g>
       <use xlink:href="#meee099048b" x="51.621875" y="191.52563" style="stroke: #000000; stroke-width: 0.8"/>
      </g>
     </g>
     <g id="text_13">
      <!-- 0.003 -->
      <g transform="translate(22.121875 194.997505) scale(0.1 -0.1)">
       <defs>
        <path id="TimesNewRomanPSMT-33" d="M 325 3431 
Q 506 3859 782 4092 
Q 1059 4325 1472 4325 
Q 1981 4325 2253 3994 
Q 2459 3747 2459 3466 
Q 2459 3003 1878 2509 
Q 2269 2356 2469 2072 
Q 2669 1788 2669 1403 
Q 2669 853 2319 450 
Q 1863 -75 997 -75 
Q 569 -75 414 31 
Q 259 138 259 259 
Q 259 350 332 419 
Q 406 488 509 488 
Q 588 488 669 463 
Q 722 447 909 348 
Q 1097 250 1169 231 
Q 1284 197 1416 197 
Q 1734 197 1970 444 
Q 2206 691 2206 1028 
Q 2206 1275 2097 1509 
Q 2016 1684 1919 1775 
Q 1784 1900 1550 2001 
Q 1316 2103 1072 2103 
L 972 2103 
L 972 2197 
Q 1219 2228 1467 2375 
Q 1716 2522 1828 2728 
Q 1941 2934 1941 3181 
Q 1941 3503 1739 3701 
Q 1538 3900 1238 3900 
Q 753 3900 428 3381 
L 325 3431 
z
" transform="scale(0.015625)"/>
       </defs>
       <use xlink:href="#TimesNewRomanPSMT-30"/>
       <use xlink:href="#TimesNewRomanPSMT-2e" transform="translate(50 0)"/>
       <use xlink:href="#TimesNewRomanPSMT-30" transform="translate(75 0)"/>
       <use xlink:href="#TimesNewRomanPSMT-30" transform="translate(125 0)"/>
       <use xlink:href="#TimesNewRomanPSMT-33" transform="translate(175 0)"/>
      </g>
     </g>
    </g>
    <g id="ytick_5">
     <g id="line2d_25">
      <path d="M 51.621875 155.529098 
L 561.016875 155.529098 
" clip-path="url(#pe7e271c959)" style="fill: none; stroke-dasharray: 2.96,1.28; stroke-dashoffset: 0; stroke: #b0b0b0; stroke-opacity: 0.6; stroke-width: 0.8"/>
     </g>
     <g id="line2d_26">
      <g>
       <use xlink:href="#meee099048b" x="51.621875" y="155.529098" style="stroke: #000000; stroke-width: 0.8"/>
      </g>
     </g>
     <g id="text_14">
      <!-- 0.004 -->
      <g transform="translate(22.121875 159.000973) scale(0.1 -0.1)">
       <defs>
        <path id="TimesNewRomanPSMT-34" d="M 2978 1563 
L 2978 1119 
L 2409 1119 
L 2409 0 
L 1894 0 
L 1894 1119 
L 100 1119 
L 100 1519 
L 2066 4325 
L 2409 4325 
L 2409 1563 
L 2978 1563 
z
M 1894 1563 
L 1894 3666 
L 406 1563 
L 1894 1563 
z
" transform="scale(0.015625)"/>
       </defs>
       <use xlink:href="#TimesNewRomanPSMT-30"/>
       <use xlink:href="#TimesNewRomanPSMT-2e" transform="translate(50 0)"/>
       <use xlink:href="#TimesNewRomanPSMT-30" transform="translate(75 0)"/>
       <use xlink:href="#TimesNewRomanPSMT-30" transform="translate(125 0)"/>
       <use xlink:href="#TimesNewRomanPSMT-34" transform="translate(175 0)"/>
      </g>
     </g>
    </g>
    <g id="ytick_6">
     <g id="line2d_27">
      <path d="M 51.621875 119.532566 
L 561.016875 119.532566 
" clip-path="url(#pe7e271c959)" style="fill: none; stroke-dasharray: 2.96,1.28; stroke-dashoffset: 0; stroke: #b0b0b0; stroke-opacity: 0.6; stroke-width: 0.8"/>
     </g>
     <g id="line2d_28">
      <g>
       <use xlink:href="#meee099048b" x="51.621875" y="119.532566" style="stroke: #000000; stroke-width: 0.8"/>
      </g>
     </g>
     <g id="text_15">
      <!-- 0.005 -->
      <g transform="translate(22.121875 123.004441) scale(0.1 -0.1)">
       <use xlink:href="#TimesNewRomanPSMT-30"/>
       <use xlink:href="#TimesNewRomanPSMT-2e" transform="translate(50 0)"/>
       <use xlink:href="#TimesNewRomanPSMT-30" transform="translate(75 0)"/>
       <use xlink:href="#TimesNewRomanPSMT-30" transform="translate(125 0)"/>
       <use xlink:href="#TimesNewRomanPSMT-35" transform="translate(175 0)"/>
      </g>
     </g>
    </g>
    <g id="ytick_7">
     <g id="line2d_29">
      <path d="M 51.621875 83.536034 
L 561.016875 83.536034 
" clip-path="url(#pe7e271c959)" style="fill: none; stroke-dasharray: 2.96,1.28; stroke-dashoffset: 0; stroke: #b0b0b0; stroke-opacity: 0.6; stroke-width: 0.8"/>
     </g>
     <g id="line2d_30">
      <g>
       <use xlink:href="#meee099048b" x="51.621875" y="83.536034" style="stroke: #000000; stroke-width: 0.8"/>
      </g>
     </g>
     <g id="text_16">
      <!-- 0.006 -->
      <g transform="translate(22.121875 87.007909) scale(0.1 -0.1)">
       <defs>
        <path id="TimesNewRomanPSMT-36" d="M 2869 4325 
L 2869 4209 
Q 2456 4169 2195 4045 
Q 1934 3922 1679 3669 
Q 1425 3416 1258 3105 
Q 1091 2794 978 2366 
Q 1428 2675 1881 2675 
Q 2316 2675 2634 2325 
Q 2953 1975 2953 1425 
Q 2953 894 2631 456 
Q 2244 -75 1606 -75 
Q 1172 -75 869 213 
Q 275 772 275 1663 
Q 275 2231 503 2743 
Q 731 3256 1154 3653 
Q 1578 4050 1965 4187 
Q 2353 4325 2688 4325 
L 2869 4325 
z
M 925 2138 
Q 869 1716 869 1456 
Q 869 1156 980 804 
Q 1091 453 1309 247 
Q 1469 100 1697 100 
Q 1969 100 2183 356 
Q 2397 613 2397 1088 
Q 2397 1622 2184 2012 
Q 1972 2403 1581 2403 
Q 1463 2403 1327 2353 
Q 1191 2303 925 2138 
z
" transform="scale(0.015625)"/>
       </defs>
       <use xlink:href="#TimesNewRomanPSMT-30"/>
       <use xlink:href="#TimesNewRomanPSMT-2e" transform="translate(50 0)"/>
       <use xlink:href="#TimesNewRomanPSMT-30" transform="translate(75 0)"/>
       <use xlink:href="#TimesNewRomanPSMT-30" transform="translate(125 0)"/>
       <use xlink:href="#TimesNewRomanPSMT-36" transform="translate(175 0)"/>
      </g>
     </g>
    </g>
    <g id="ytick_8">
     <g id="line2d_31">
      <path d="M 51.621875 47.539501 
L 561.016875 47.539501 
" clip-path="url(#pe7e271c959)" style="fill: none; stroke-dasharray: 2.96,1.28; stroke-dashoffset: 0; stroke: #b0b0b0; stroke-opacity: 0.6; stroke-width: 0.8"/>
     </g>
     <g id="line2d_32">
      <g>
       <use xlink:href="#meee099048b" x="51.621875" y="47.539501" style="stroke: #000000; stroke-width: 0.8"/>
      </g>
     </g>
     <g id="text_17">
      <!-- 0.007 -->
      <g transform="translate(22.121875 51.011376) scale(0.1 -0.1)">
       <use xlink:href="#TimesNewRomanPSMT-30"/>
       <use xlink:href="#TimesNewRomanPSMT-2e" transform="translate(50 0)"/>
       <use xlink:href="#TimesNewRomanPSMT-30" transform="translate(75 0)"/>
       <use xlink:href="#TimesNewRomanPSMT-30" transform="translate(125 0)"/>
       <use xlink:href="#TimesNewRomanPSMT-37" transform="translate(175 0)"/>
      </g>
     </g>
    </g>
    <g id="ytick_9">
     <g id="line2d_33">
      <path d="M 51.621875 11.542969 
L 561.016875 11.542969 
" clip-path="url(#pe7e271c959)" style="fill: none; stroke-dasharray: 2.96,1.28; stroke-dashoffset: 0; stroke: #b0b0b0; stroke-opacity: 0.6; stroke-width: 0.8"/>
     </g>
     <g id="line2d_34">
      <g>
       <use xlink:href="#meee099048b" x="51.621875" y="11.542969" style="stroke: #000000; stroke-width: 0.8"/>
      </g>
     </g>
     <g id="text_18">
      <!-- 0.008 -->
      <g transform="translate(22.121875 15.014844) scale(0.1 -0.1)">
       <defs>
        <path id="TimesNewRomanPSMT-38" d="M 1228 2134 
Q 725 2547 579 2797 
Q 434 3047 434 3316 
Q 434 3728 753 4026 
Q 1072 4325 1600 4325 
Q 2113 4325 2425 4047 
Q 2738 3769 2738 3413 
Q 2738 3175 2569 2928 
Q 2400 2681 1866 2347 
Q 2416 1922 2594 1678 
Q 2831 1359 2831 1006 
Q 2831 559 2490 242 
Q 2150 -75 1597 -75 
Q 994 -75 656 303 
Q 388 606 388 966 
Q 388 1247 577 1523 
Q 766 1800 1228 2134 
z
M 1719 2469 
Q 2094 2806 2194 3001 
Q 2294 3197 2294 3444 
Q 2294 3772 2109 3958 
Q 1925 4144 1606 4144 
Q 1288 4144 1088 3959 
Q 888 3775 888 3528 
Q 888 3366 970 3203 
Q 1053 3041 1206 2894 
L 1719 2469 
z
M 1375 2016 
Q 1116 1797 991 1539 
Q 866 1281 866 981 
Q 866 578 1086 336 
Q 1306 94 1647 94 
Q 1984 94 2187 284 
Q 2391 475 2391 747 
Q 2391 972 2272 1150 
Q 2050 1481 1375 2016 
z
" transform="scale(0.015625)"/>
       </defs>
       <use xlink:href="#TimesNewRomanPSMT-30"/>
       <use xlink:href="#TimesNewRomanPSMT-2e" transform="translate(50 0)"/>
       <use xlink:href="#TimesNewRomanPSMT-30" transform="translate(75 0)"/>
       <use xlink:href="#TimesNewRomanPSMT-30" transform="translate(125 0)"/>
       <use xlink:href="#TimesNewRomanPSMT-38" transform="translate(175 0)"/>
      </g>
     </g>
    </g>
    <g id="text_19">
     <!-- Probability Density f(t) -->
     <g transform="translate(15.5325 216.30875) rotate(-90) scale(0.12 -0.12)">
      <defs>
       <path id="TimesNewRomanPSMT-50" d="M 1313 1984 
L 1313 750 
Q 1313 350 1400 253 
Q 1519 116 1759 116 
L 1922 116 
L 1922 0 
L 106 0 
L 106 116 
L 266 116 
Q 534 116 650 291 
Q 713 388 713 750 
L 713 3488 
Q 713 3888 628 3984 
Q 506 4122 266 4122 
L 106 4122 
L 106 4238 
L 1659 4238 
Q 2228 4238 2556 4120 
Q 2884 4003 3109 3725 
Q 3334 3447 3334 3066 
Q 3334 2547 2992 2222 
Q 2650 1897 2025 1897 
Q 1872 1897 1694 1919 
Q 1516 1941 1313 1984 
z
M 1313 2163 
Q 1478 2131 1606 2115 
Q 1734 2100 1825 2100 
Q 2150 2100 2386 2351 
Q 2622 2603 2622 3003 
Q 2622 3278 2509 3514 
Q 2397 3750 2190 3867 
Q 1984 3984 1722 3984 
Q 1563 3984 1313 3925 
L 1313 2163 
z
" transform="scale(0.015625)"/>
       <path id="TimesNewRomanPSMT-6f" d="M 1600 2947 
Q 2250 2947 2644 2453 
Q 2978 2031 2978 1484 
Q 2978 1100 2793 706 
Q 2609 313 2286 112 
Q 1963 -88 1566 -88 
Q 919 -88 538 428 
Q 216 863 216 1403 
Q 216 1797 411 2186 
Q 606 2575 925 2761 
Q 1244 2947 1600 2947 
z
M 1503 2744 
Q 1338 2744 1170 2645 
Q 1003 2547 900 2300 
Q 797 2053 797 1666 
Q 797 1041 1045 587 
Q 1294 134 1700 134 
Q 2003 134 2200 384 
Q 2397 634 2397 1244 
Q 2397 2006 2069 2444 
Q 1847 2744 1503 2744 
z
" transform="scale(0.015625)"/>
       <path id="TimesNewRomanPSMT-62" d="M 984 2369 
Q 1400 2947 1881 2947 
Q 2322 2947 2650 2570 
Q 2978 2194 2978 1541 
Q 2978 778 2472 313 
Q 2038 -88 1503 -88 
Q 1253 -88 995 3 
Q 738 94 469 275 
L 469 3241 
Q 469 3728 445 3840 
Q 422 3953 372 3993 
Q 322 4034 247 4034 
Q 159 4034 28 3984 
L -16 4094 
L 844 4444 
L 984 4444 
L 984 2369 
z
M 984 2169 
L 984 456 
Q 1144 300 1314 220 
Q 1484 141 1663 141 
Q 1947 141 2192 453 
Q 2438 766 2438 1363 
Q 2438 1913 2192 2208 
Q 1947 2503 1634 2503 
Q 1469 2503 1303 2419 
Q 1178 2356 984 2169 
z
" transform="scale(0.015625)"/>
       <path id="TimesNewRomanPSMT-74" d="M 1031 3803 
L 1031 2863 
L 1700 2863 
L 1700 2644 
L 1031 2644 
L 1031 788 
Q 1031 509 1111 412 
Q 1191 316 1316 316 
Q 1419 316 1516 380 
Q 1613 444 1666 569 
L 1788 569 
Q 1678 263 1478 108 
Q 1278 -47 1066 -47 
Q 922 -47 784 33 
Q 647 113 581 261 
Q 516 409 516 719 
L 516 2644 
L 63 2644 
L 63 2747 
Q 234 2816 414 2980 
Q 594 3144 734 3369 
Q 806 3488 934 3803 
L 1031 3803 
z
" transform="scale(0.015625)"/>
       <path id="TimesNewRomanPSMT-6e" d="M 1034 2341 
Q 1538 2947 1994 2947 
Q 2228 2947 2397 2830 
Q 2566 2713 2666 2444 
Q 2734 2256 2734 1869 
L 2734 647 
Q 2734 375 2778 278 
Q 2813 200 2889 156 
Q 2966 113 3172 113 
L 3172 0 
L 1756 0 
L 1756 113 
L 1816 113 
Q 2016 113 2095 173 
Q 2175 234 2206 353 
Q 2219 400 2219 647 
L 2219 1819 
Q 2219 2209 2117 2386 
Q 2016 2563 1775 2563 
Q 1403 2563 1034 2156 
L 1034 647 
Q 1034 356 1069 288 
Q 1113 197 1189 155 
Q 1266 113 1500 113 
L 1500 0 
L 84 0 
L 84 113 
L 147 113 
Q 366 113 442 223 
Q 519 334 519 647 
L 519 1709 
Q 519 2225 495 2337 
Q 472 2450 423 2490 
Q 375 2531 294 2531 
Q 206 2531 84 2484 
L 38 2597 
L 900 2947 
L 1034 2947 
L 1034 2341 
z
" transform="scale(0.015625)"/>
       <path id="TimesNewRomanPSMT-66" d="M 1319 2638 
L 1319 756 
Q 1319 356 1406 250 
Q 1522 113 1716 113 
L 1975 113 
L 1975 0 
L 266 0 
L 266 113 
L 394 113 
Q 519 113 622 175 
Q 725 238 764 344 
Q 803 450 803 756 
L 803 2638 
L 247 2638 
L 247 2863 
L 803 2863 
L 803 3050 
Q 803 3478 940 3775 
Q 1078 4072 1361 4255 
Q 1644 4438 1997 4438 
Q 2325 4438 2600 4225 
Q 2781 4084 2781 3909 
Q 2781 3816 2700 3733 
Q 2619 3650 2525 3650 
Q 2453 3650 2373 3701 
Q 2294 3753 2178 3923 
Q 2063 4094 1966 4153 
Q 1869 4213 1750 4213 
Q 1606 4213 1506 4136 
Q 1406 4059 1362 3898 
Q 1319 3738 1319 3069 
L 1319 2863 
L 2056 2863 
L 2056 2638 
L 1319 2638 
z
" transform="scale(0.015625)"/>
      </defs>
      <use xlink:href="#TimesNewRomanPSMT-50"/>
      <use xlink:href="#TimesNewRomanPSMT-72" transform="translate(55.615234 0)"/>
      <use xlink:href="#TimesNewRomanPSMT-6f" transform="translate(88.916016 0)"/>
      <use xlink:href="#TimesNewRomanPSMT-62" transform="translate(138.916016 0)"/>
      <use xlink:href="#TimesNewRomanPSMT-61" transform="translate(188.916016 0)"/>
      <use xlink:href="#TimesNewRomanPSMT-62" transform="translate(233.300781 0)"/>
      <use xlink:href="#TimesNewRomanPSMT-69" transform="translate(283.300781 0)"/>
      <use xlink:href="#TimesNewRomanPSMT-6c" transform="translate(311.083984 0)"/>
      <use xlink:href="#TimesNewRomanPSMT-69" transform="translate(338.867188 0)"/>
      <use xlink:href="#TimesNewRomanPSMT-74" transform="translate(366.650391 0)"/>
      <use xlink:href="#TimesNewRomanPSMT-79" transform="translate(394.433594 0)"/>
      <use xlink:href="#TimesNewRomanPSMT-20" transform="translate(444.433594 0)"/>
      <use xlink:href="#TimesNewRomanPSMT-44" transform="translate(469.433594 0)"/>
      <use xlink:href="#TimesNewRomanPSMT-65" transform="translate(541.650391 0)"/>
      <use xlink:href="#TimesNewRomanPSMT-6e" transform="translate(586.035156 0)"/>
      <use xlink:href="#TimesNewRomanPSMT-73" transform="translate(636.035156 0)"/>
      <use xlink:href="#TimesNewRomanPSMT-69" transform="translate(674.951172 0)"/>
      <use xlink:href="#TimesNewRomanPSMT-74" transform="translate(702.734375 0)"/>
      <use xlink:href="#TimesNewRomanPSMT-79" transform="translate(730.517578 0)"/>
      <use xlink:href="#TimesNewRomanPSMT-20" transform="translate(780.517578 0)"/>
      <use xlink:href="#TimesNewRomanPSMT-66" transform="translate(805.517578 0)"/>
      <use xlink:href="#TimesNewRomanPSMT-28" transform="translate(838.818359 0)"/>
      <use xlink:href="#TimesNewRomanPSMT-74" transform="translate(872.119141 0)"/>
      <use xlink:href="#TimesNewRomanPSMT-29" transform="translate(899.902344 0)"/>
     </g>
    </g>
   </g>
   <g id="line2d_35">
    <path d="M 74.776193 299.515227 
L 75.045117 222.956477 
L 75.31404 215.996591 
L 75.582964 153.357614 
L 75.851887 209.036705 
L 76.120811 236.87625 
L 76.389735 181.197159 
L 76.658658 181.197159 
L 77.196505 195.116932 
L 77.465429 174.237273 
L 77.734352 118.558182 
L 78.003276 132.477955 
L 78.272199 90.718636 
L 78.541123 139.437841 
L 78.810047 132.477955 
L 79.07897 160.3175 
L 79.347894 90.718636 
L 79.616817 174.237273 
L 79.885741 118.558182 
L 80.154664 160.3175 
L 80.423588 48.959318 
L 80.692511 146.397727 
L 80.961435 90.718636 
L 81.230359 125.518068 
L 81.499282 83.75875 
L 81.768206 125.518068 
L 82.037129 132.477955 
L 82.306053 125.518068 
L 82.574976 153.357614 
L 82.8439 41.999432 
L 83.112823 83.75875 
L 83.381747 104.638409 
L 83.650671 90.718636 
L 83.919594 69.838977 
L 84.188518 97.678523 
L 84.457441 90.718636 
L 84.726365 28.079659 
L 84.995288 83.75875 
L 85.264212 76.798864 
L 85.533135 48.959318 
L 85.802059 146.397727 
L 86.070983 69.838977 
L 86.339906 153.357614 
L 86.60883 97.678523 
L 86.877753 90.718636 
L 87.146677 69.838977 
L 87.4156 146.397727 
L 87.684524 174.237273 
L 87.953447 139.437841 
L 88.222371 153.357614 
L 88.491295 132.477955 
L 88.760218 21.119773 
L 89.029142 111.598295 
L 89.298065 160.3175 
L 89.566989 83.75875 
L 89.835912 83.75875 
L 90.104836 160.3175 
L 90.373759 111.598295 
L 90.911607 111.598295 
L 91.18053 174.237273 
L 91.449454 97.678523 
L 91.718377 139.437841 
L 91.987301 132.477955 
L 92.256224 132.477955 
L 92.525148 125.518068 
L 93.331919 146.397727 
L 93.600842 97.678523 
L 93.869766 125.518068 
L 94.138689 174.237273 
L 94.407613 83.75875 
L 94.676536 125.518068 
L 94.94546 90.718636 
L 95.214383 146.397727 
L 95.483307 62.879091 
L 95.752231 174.237273 
L 96.021154 188.157045 
L 96.290078 125.518068 
L 96.559001 97.678523 
L 96.827925 90.718636 
L 97.096848 139.437841 
L 97.365772 167.277386 
L 97.634695 153.357614 
L 97.903619 153.357614 
L 98.172543 139.437841 
L 98.441466 104.638409 
L 98.71039 111.598295 
L 98.979313 97.678523 
L 99.248237 160.3175 
L 99.51716 181.197159 
L 99.786084 160.3175 
L 100.055007 104.638409 
L 100.323931 181.197159 
L 100.592855 125.518068 
L 100.861778 160.3175 
L 101.130702 174.237273 
L 101.399625 125.518068 
L 101.668549 160.3175 
L 101.937472 146.397727 
L 102.206396 97.678523 
L 102.475319 132.477955 
L 102.744243 195.116932 
L 103.013167 174.237273 
L 103.28209 188.157045 
L 103.551014 209.036705 
L 103.819937 209.036705 
L 104.088861 153.357614 
L 104.357784 160.3175 
L 104.626708 181.197159 
L 104.895631 118.558182 
L 105.164555 146.397727 
L 105.433479 125.518068 
L 105.702402 174.237273 
L 105.971326 181.197159 
L 106.240249 209.036705 
L 106.778096 146.397727 
L 107.04702 174.237273 
L 107.315943 236.87625 
L 107.584867 202.076818 
L 107.853791 125.518068 
L 108.122714 209.036705 
L 108.391638 146.397727 
L 108.660561 160.3175 
L 108.929485 222.956477 
L 109.198408 188.157045 
L 109.467332 181.197159 
L 109.736255 153.357614 
L 110.005179 215.996591 
L 110.274103 202.076818 
L 110.543026 202.076818 
L 110.81195 229.916364 
L 111.080873 181.197159 
L 111.61872 167.277386 
L 111.887644 209.036705 
L 112.156567 215.996591 
L 112.425491 181.197159 
L 112.694415 195.116932 
L 112.963338 202.076818 
L 113.232262 202.076818 
L 113.501185 209.036705 
L 113.770109 202.076818 
L 114.039032 202.076818 
L 114.307956 188.157045 
L 114.576879 188.157045 
L 114.845803 229.916364 
L 115.114727 195.116932 
L 115.652574 209.036705 
L 115.921497 222.956477 
L 116.190421 229.916364 
L 116.459344 209.036705 
L 116.728268 229.916364 
L 116.997191 181.197159 
L 117.266115 195.116932 
L 117.535039 160.3175 
L 117.803962 215.996591 
L 118.072886 181.197159 
L 118.341809 195.116932 
L 118.610733 181.197159 
L 118.879656 160.3175 
L 119.14858 215.996591 
L 119.417503 243.836136 
L 119.686427 215.996591 
L 119.955351 236.87625 
L 120.224274 222.956477 
L 120.762121 209.036705 
L 121.031045 264.715795 
L 121.299968 215.996591 
L 121.568892 215.996591 
L 121.837816 209.036705 
L 122.106739 215.996591 
L 122.375663 188.157045 
L 122.644586 236.87625 
L 122.91351 188.157045 
L 123.182433 215.996591 
L 123.451357 202.076818 
L 123.72028 195.116932 
L 123.989204 222.956477 
L 124.258128 264.715795 
L 124.527051 209.036705 
L 124.795975 243.836136 
L 125.064898 236.87625 
L 125.333822 202.076818 
L 125.602745 264.715795 
L 125.871669 202.076818 
L 126.140592 215.996591 
L 126.409516 236.87625 
L 126.67844 229.916364 
L 126.947363 250.796023 
L 127.216287 250.796023 
L 127.48521 181.197159 
L 127.754134 181.197159 
L 128.291981 271.675682 
L 128.560904 229.916364 
L 128.829828 243.836136 
L 129.098752 264.715795 
L 129.367675 215.996591 
L 129.636599 257.755909 
L 129.905522 243.836136 
L 130.443369 229.916364 
L 130.712293 202.076818 
L 130.981216 250.796023 
L 131.25014 209.036705 
L 131.519064 215.996591 
L 131.787987 250.796023 
L 132.056911 202.076818 
L 132.325834 264.715795 
L 132.594758 250.796023 
L 133.132605 195.116932 
L 133.401528 250.796023 
L 133.670452 243.836136 
L 133.939376 278.635568 
L 134.208299 229.916364 
L 134.477223 257.755909 
L 134.746146 209.036705 
L 135.01507 222.956477 
L 135.283993 278.635568 
L 135.552917 243.836136 
L 135.82184 236.87625 
L 136.090764 250.796023 
L 136.628611 264.715795 
L 136.897535 264.715795 
L 137.166458 257.755909 
L 137.435382 243.836136 
L 137.704305 209.036705 
L 138.242152 264.715795 
L 138.511076 243.836136 
L 138.78 250.796023 
L 139.048923 215.996591 
L 139.317847 264.715795 
L 139.58677 215.996591 
L 139.855694 243.836136 
L 140.124617 257.755909 
L 140.393541 236.87625 
L 140.662464 264.715795 
L 140.931388 264.715795 
L 141.200312 257.755909 
L 141.469235 236.87625 
L 141.738159 264.715795 
L 142.007082 222.956477 
L 142.276006 222.956477 
L 142.544929 250.796023 
L 142.813853 209.036705 
L 143.082776 215.996591 
L 143.3517 195.116932 
L 144.158471 278.635568 
L 144.427394 181.197159 
L 144.696318 222.956477 
L 144.965241 222.956477 
L 145.234165 188.157045 
L 145.772012 278.635568 
L 146.040936 229.916364 
L 146.309859 236.87625 
L 146.578783 250.796023 
L 146.847706 278.635568 
L 147.11663 250.796023 
L 147.385553 257.755909 
L 147.654477 250.796023 
L 147.9234 236.87625 
L 148.192324 271.675682 
L 148.461248 250.796023 
L 148.999095 278.635568 
L 149.268018 229.916364 
L 149.536942 278.635568 
L 149.805865 229.916364 
L 150.074789 278.635568 
L 150.343712 285.595455 
L 150.612636 271.675682 
L 150.88156 264.715795 
L 151.150483 236.87625 
L 151.419407 257.755909 
L 151.68833 250.796023 
L 151.957254 278.635568 
L 152.226177 271.675682 
L 152.495101 250.796023 
L 153.032948 264.715795 
L 153.301872 285.595455 
L 153.570795 278.635568 
L 153.839719 257.755909 
L 154.108642 271.675682 
L 154.377566 271.675682 
L 154.646489 278.635568 
L 154.915413 257.755909 
L 155.184336 271.675682 
L 155.45326 271.675682 
L 155.722184 257.755909 
L 155.991107 250.796023 
L 156.260031 285.595455 
L 156.528954 285.595455 
L 156.797878 278.635568 
L 157.066801 264.715795 
L 157.335725 285.595455 
L 157.604648 292.555341 
L 157.873572 285.595455 
L 158.680343 285.595455 
L 158.949266 229.916364 
L 159.21819 243.836136 
L 159.487113 278.635568 
L 159.756037 292.555341 
L 160.02496 271.675682 
L 160.293884 222.956477 
L 160.562808 278.635568 
L 160.831731 285.595455 
L 161.100655 250.796023 
L 161.369578 243.836136 
L 161.638502 278.635568 
L 161.907425 278.635568 
L 162.176349 271.675682 
L 162.445272 292.555341 
L 162.714196 292.555341 
L 162.98312 285.595455 
L 163.252043 264.715795 
L 163.520967 278.635568 
L 163.78989 278.635568 
L 164.058814 257.755909 
L 164.327737 278.635568 
L 164.596661 250.796023 
L 164.865584 250.796023 
L 165.134508 285.595455 
L 165.403432 264.715795 
L 165.672355 278.635568 
L 165.941279 264.715795 
L 166.210202 271.675682 
L 166.479126 243.836136 
L 166.748049 285.595455 
L 167.016973 250.796023 
L 167.285896 264.715795 
L 167.55482 264.715795 
L 167.823744 250.796023 
L 168.092667 264.715795 
L 168.361591 285.595455 
L 168.899438 278.635568 
L 169.168361 250.796023 
L 169.437285 271.675682 
L 169.706208 271.675682 
L 169.975132 250.796023 
L 170.244056 257.755909 
L 170.512979 285.595455 
L 170.781903 271.675682 
L 171.050826 264.715795 
L 171.31975 285.595455 
L 171.588673 250.796023 
L 171.857597 243.836136 
L 172.395444 257.755909 
L 172.664368 257.755909 
L 172.933291 264.715795 
L 173.471138 292.555341 
L 173.740062 292.555341 
L 174.008985 278.635568 
L 174.546833 296.035284 
L 174.815756 257.755909 
L 175.08468 285.595455 
L 175.89145 297.195265 
L 176.160374 278.635568 
L 176.429297 292.555341 
L 176.698221 292.555341 
L 176.967145 285.595455 
L 177.504992 285.595455 
L 178.849609 296.731273 
L 179.118533 257.755909 
L 179.65638 296.035284 
L 179.925304 292.555341 
L 180.463151 292.555341 
L 181.000998 296.035284 
L 181.269921 285.595455 
L 181.538845 285.595455 
L 181.807769 278.635568 
L 182.076692 292.555341 
L 182.345616 292.555341 
L 183.152386 297.195265 
L 183.42131 292.555341 
L 183.959157 289.075398 
L 186.110545 297.775256 
L 187.455163 298.12325 
L 188.799781 298.12325 
L 189.068705 292.555341 
L 189.875475 297.195265 
L 190.951169 297.775256 
L 191.75794 297.195265 
L 192.833634 297.775256 
L 193.640405 297.195265 
L 193.909329 285.595455 
L 194.447176 296.035284 
L 195.52287 294.295312 
L 196.329641 292.555341 
L 196.598564 292.555341 
L 197.943182 298.12325 
L 198.481029 296.035284 
L 198.749953 285.595455 
L 199.018876 292.555341 
L 199.556723 292.555341 
L 200.09457 289.075398 
L 200.363494 292.555341 
L 200.632417 271.675682 
L 200.901341 292.555341 
L 201.708112 292.555341 
L 202.514882 297.195265 
L 202.783806 292.555341 
L 203.321653 289.075398 
L 203.590577 278.635568 
L 203.8595 285.595455 
L 204.397347 296.035284 
L 204.666271 285.595455 
L 205.204118 296.035284 
L 205.473041 292.555341 
L 206.010889 278.635568 
L 206.279812 285.595455 
L 207.62443 298.12325 
L 207.893353 285.595455 
L 209.237971 298.12325 
L 209.506895 292.555341 
L 210.313665 297.195265 
L 211.120436 297.195265 
L 211.658283 296.035284 
L 212.465054 297.195265 
L 214.078595 298.355246 
L 214.347519 292.555341 
L 216.767831 297.968586 
L 217.574601 297.195265 
L 218.919219 298.12325 
L 219.188143 292.555341 
L 219.457066 292.555341 
L 223.221996 299.018093 
L 225.642308 298.741907 
L 230.214009 299.105822 
L 230.482932 292.555341 
L 231.289703 297.195265 
L 232.634321 298.12325 
L 235.323556 298.819239 
L 235.861403 289.075398 
L 236.668174 292.555341 
L 236.937098 292.555341 
L 237.206021 278.635568 
L 237.474945 278.635568 
L 237.743868 292.555341 
L 238.819562 296.035284 
L 239.088486 292.555341 
L 239.626333 296.035284 
L 240.433104 292.555341 
L 240.702027 285.595455 
L 240.970951 292.555341 
L 241.239874 285.595455 
L 241.508798 285.595455 
L 242.584492 297.775256 
L 242.853416 285.595455 
L 244.198034 298.12325 
L 244.466957 292.555341 
L 246.618346 298.645241 
L 246.887269 292.555341 
L 247.69404 297.195265 
L 250.652199 298.88251 
L 254.417129 299.018093 
L 254.686052 292.555341 
L 255.223899 292.555341 
L 259.257753 299.051235 
L 261.946988 298.819239 
L 263.022682 296.035284 
L 281.847331 299.4158 
L 285.343338 298.979851 
L 289.377191 299.051235 
L 297.713821 299.066202 
L 297.982745 292.555341 
L 300.403057 298.741907 
L 300.67198 292.555341 
L 301.478751 297.195265 
L 303.092292 298.355246 
L 303.361216 292.555341 
L 303.630139 292.555341 
L 304.43691 297.195265 
L 304.974757 292.555341 
L 308.20184 298.935237 
L 308.739687 296.035284 
L 311.697846 298.88251 
L 313.311387 297.195265 
L 327.295412 299.381383 
L 328.102183 297.195265 
L 337.783431 299.321897 
L 355.263462 299.408152 
L 361.717628 299.225232 
L 368.171793 299.225232 
L 368.978564 297.195265 
L 371.667799 298.819239 
L 371.936723 292.555341 
L 372.743493 297.195265 
L 373.28134 296.035284 
L 374.625958 298.12325 
L 378.390888 299.018093 
L 380.542276 298.645241 
L 381.349047 294.875303 
L 393.450607 299.360563 
L 394.257378 297.195265 
L 397.753384 298.979851 
L 398.022308 292.555341 
L 398.560155 296.035284 
L 399.635849 297.775256 
L 405.01432 299.167233 
L 405.283244 292.555341 
L 409.048173 299.018093 
L 423.301122 299.383909 
L 423.838969 296.035284 
L 537.862557 299.498812 
L 537.862557 299.498812 
" clip-path="url(#pe7e271c959)" style="fill: none; stroke: #1f77b4; stroke-opacity: 0.8; stroke-width: 1.2; stroke-linecap: square"/>
   </g>
   <g id="line2d_36">
    <path d="M 74.776193 299.515227 
L 75.045117 222.971277 
L 75.31404 216.012736 
L 75.582964 153.385868 
L 75.851887 209.054195 
L 76.120811 236.888359 
L 76.389735 181.220031 
L 76.658658 181.220031 
L 77.196505 195.137113 
L 77.465429 174.26149 
L 77.734352 118.593163 
L 78.003276 132.510245 
L 78.272199 90.758999 
L 78.541123 139.468786 
L 78.810047 132.510245 
L 79.07897 160.344409 
L 79.347894 90.758999 
L 79.616817 174.26149 
L 79.885741 118.593163 
L 80.154664 160.344409 
L 80.423588 49.007754 
L 80.692511 146.427327 
L 80.961435 90.758999 
L 81.230359 125.551704 
L 81.499282 83.800458 
L 81.768206 125.551704 
L 82.037129 132.510245 
L 82.306053 125.551704 
L 82.574976 153.385868 
L 82.8439 42.049213 
L 83.112823 83.800458 
L 83.381747 104.676081 
L 83.650671 90.758999 
L 83.919594 69.883376 
L 84.188518 97.71754 
L 84.457441 90.758999 
L 84.726365 28.132131 
L 84.995288 83.800458 
L 85.264212 76.841917 
L 85.533135 49.007754 
L 85.802059 146.427327 
L 86.070983 69.883376 
L 86.339906 153.385868 
L 86.60883 97.71754 
L 86.877753 90.758999 
L 87.146677 69.883376 
L 87.4156 146.427327 
L 87.684524 174.26149 
L 87.953447 139.468786 
L 88.222371 153.385868 
L 88.491295 132.510245 
L 88.760218 21.17359 
L 89.029142 111.634622 
L 89.298065 160.344409 
L 89.566989 83.800458 
L 89.835912 83.800458 
L 90.104836 160.344409 
L 90.373759 111.634622 
L 90.911607 111.634622 
L 91.18053 174.26149 
L 91.449454 97.71754 
L 91.718377 139.468786 
L 91.987301 132.510245 
L 92.256224 132.510245 
L 92.525148 125.551704 
L 93.331919 146.427327 
L 93.600842 97.71754 
L 93.869766 125.551704 
L 94.138689 174.26149 
L 94.407613 83.800458 
L 94.676536 125.551704 
L 94.94546 90.758999 
L 95.214383 146.427327 
L 95.483307 62.924835 
L 95.752231 174.26149 
L 96.021154 188.178572 
L 96.290078 125.551704 
L 96.559001 97.71754 
L 96.827925 90.758999 
L 97.096848 139.468786 
L 97.365772 167.302949 
L 97.634695 153.385868 
L 97.903619 153.385868 
L 98.172543 139.468786 
L 98.441466 104.676081 
L 98.71039 111.634622 
L 98.979313 97.71754 
L 99.248237 160.344409 
L 99.51716 181.220031 
L 99.786084 160.344409 
L 100.055007 104.676081 
L 100.323931 181.220031 
L 100.592855 125.551704 
L 100.861778 160.344409 
L 101.130702 174.26149 
L 101.399625 125.551704 
L 101.668549 160.344409 
L 101.937472 146.427327 
L 102.206396 97.71754 
L 102.475319 132.510245 
L 102.744243 195.137113 
L 103.013167 174.26149 
L 103.28209 188.178572 
L 103.551014 209.054195 
L 103.819937 209.054195 
L 104.088861 153.385868 
L 104.357784 160.344409 
L 104.626708 181.220031 
L 104.895631 118.593163 
L 105.164555 146.427327 
L 105.433479 125.551704 
L 105.702402 174.26149 
L 105.971326 181.220031 
L 106.240249 209.054195 
L 106.778096 146.427327 
L 107.04702 174.26149 
L 107.315943 236.888359 
L 107.584867 202.095654 
L 107.853791 125.551704 
L 108.122714 209.054195 
L 108.391638 146.427327 
L 108.660561 160.344409 
L 108.929485 222.971277 
L 109.198408 188.178572 
L 109.467332 181.220031 
L 109.736255 153.385868 
L 110.005179 216.012736 
L 110.274103 202.095654 
L 110.543026 202.095654 
L 110.81195 229.929818 
L 111.080873 181.220031 
L 111.61872 167.302949 
L 111.887644 209.054195 
L 112.156567 216.012736 
L 112.425491 181.220031 
L 112.694415 195.137113 
L 112.963338 202.095654 
L 113.232262 202.095654 
L 113.501185 209.054195 
L 113.770109 202.095654 
L 114.039032 202.095654 
L 114.307956 188.178572 
L 114.576879 188.178572 
L 114.845803 229.929818 
L 115.114727 195.137113 
L 115.652574 209.054195 
L 115.921497 222.971277 
L 116.190421 229.929818 
L 116.459344 209.054195 
L 116.728268 229.929818 
L 116.997191 181.220031 
L 117.266115 195.137113 
L 117.535039 160.344409 
L 117.803962 216.012736 
L 118.072886 181.220031 
L 118.341809 195.137113 
L 118.610733 181.220031 
L 118.879656 160.344409 
L 119.14858 216.012736 
L 119.417503 243.8469 
L 119.686427 216.012736 
L 119.955351 236.888359 
L 120.224274 222.971277 
L 120.762121 209.054195 
L 121.031045 264.722523 
L 121.299968 216.012736 
L 121.568892 216.012736 
L 121.837816 209.054195 
L 122.106739 216.012736 
L 122.375663 188.178572 
L 122.644586 236.888359 
L 122.91351 188.178572 
L 123.182433 216.012736 
L 123.451357 202.095654 
L 123.72028 195.137113 
L 123.989204 222.971277 
L 124.258128 264.722523 
L 124.527051 209.054195 
L 124.795975 243.8469 
L 125.064898 236.888359 
L 125.333822 202.095654 
L 125.602745 264.722523 
L 125.871669 202.095654 
L 126.140592 216.012736 
L 126.409516 236.888359 
L 126.67844 229.929818 
L 126.947363 250.805441 
L 127.216287 250.805441 
L 127.48521 181.220031 
L 127.754134 181.220031 
L 128.291981 271.681064 
L 128.560904 229.929818 
L 128.829828 243.8469 
L 129.098752 264.722523 
L 129.367675 216.012736 
L 129.636599 257.763982 
L 129.905522 243.8469 
L 130.443369 229.929818 
L 130.712293 202.095654 
L 130.981216 250.805441 
L 131.25014 209.054195 
L 131.519064 216.012736 
L 131.787987 250.805441 
L 132.056911 202.095654 
L 132.325834 264.722523 
L 132.594758 250.805441 
L 133.132605 195.137113 
L 133.401528 250.805441 
L 133.670452 243.8469 
L 133.939376 278.639604 
L 134.208299 229.929818 
L 134.477223 257.763982 
L 134.746146 209.054195 
L 135.01507 222.971277 
L 135.283993 278.639604 
L 135.552917 243.8469 
L 135.82184 236.888359 
L 136.090764 250.805441 
L 136.628611 264.722523 
L 136.897535 264.722523 
L 137.166458 257.763982 
L 137.435382 243.8469 
L 137.704305 209.054195 
L 138.242152 264.722523 
L 138.511076 243.8469 
L 138.78 250.805441 
L 139.048923 216.012736 
L 139.317847 264.722523 
L 139.58677 216.012736 
L 139.855694 243.8469 
L 140.124617 257.763982 
L 140.393541 236.888359 
L 140.662464 264.722523 
L 140.931388 264.722523 
L 141.200312 257.763982 
L 141.469235 236.888359 
L 141.738159 264.722523 
L 142.007082 222.971277 
L 142.276006 222.971277 
L 142.544929 250.805441 
L 142.813853 209.054195 
L 143.082776 216.012736 
L 143.3517 195.137113 
L 144.158471 278.639604 
L 144.427394 181.220031 
L 144.696318 222.971277 
L 144.965241 222.971277 
L 145.234165 188.178572 
L 145.772012 278.639604 
L 146.040936 229.929818 
L 146.309859 236.888359 
L 146.578783 250.805441 
L 146.847706 278.639604 
L 147.11663 250.805441 
L 147.385553 257.763982 
L 147.654477 250.805441 
L 147.9234 236.888359 
L 148.192324 271.681064 
L 148.461248 250.805441 
L 148.999095 278.639604 
L 149.268018 229.929818 
L 149.536942 278.639604 
L 149.805865 229.929818 
L 150.074789 278.639604 
L 150.343712 285.598145 
L 150.612636 271.681064 
L 150.88156 264.722523 
L 151.150483 236.888359 
L 151.419407 257.763982 
L 151.68833 250.805441 
L 151.957254 278.639604 
L 152.226177 271.681064 
L 152.495101 250.805441 
L 153.032948 264.722523 
L 153.301872 285.598145 
L 153.570795 278.639604 
L 153.839719 257.763982 
L 154.108642 271.681064 
L 154.377566 271.681064 
L 154.646489 278.639604 
L 154.915413 257.763982 
L 155.184336 271.681064 
L 155.45326 271.681064 
L 155.722184 257.763982 
L 155.991107 250.805441 
L 156.260031 285.598145 
L 156.528954 285.598145 
L 156.797878 278.639604 
L 157.066801 264.722523 
L 157.335725 285.598145 
L 157.604648 292.556686 
L 157.873572 285.598145 
L 158.680343 285.598145 
L 158.949266 229.929818 
L 159.21819 243.8469 
L 159.487113 278.639604 
L 159.756037 292.556686 
L 160.02496 271.681064 
L 160.293884 222.971277 
L 160.562808 278.639604 
L 160.831731 285.598145 
L 161.100655 250.805441 
L 161.369578 243.8469 
L 161.638502 278.639604 
L 161.907425 278.639604 
L 162.176349 271.681064 
L 162.445272 292.556686 
L 162.714196 292.556686 
L 162.98312 285.598145 
L 163.252043 264.722523 
L 163.520967 278.639604 
L 163.78989 278.639604 
L 164.058814 257.763982 
L 164.327737 278.639604 
L 164.596661 250.805441 
L 164.865584 250.805441 
L 165.134508 285.598145 
L 165.403432 264.722523 
L 165.672355 278.639604 
L 165.941279 264.722523 
L 166.210202 271.681064 
L 166.479126 243.8469 
L 166.748049 285.598145 
L 167.016973 250.805441 
L 167.285896 264.722523 
L 167.55482 264.722523 
L 167.823744 250.805441 
L 168.092667 264.722523 
L 168.361591 285.598145 
L 168.899438 278.639604 
L 169.168361 250.805441 
L 169.437285 271.681064 
L 169.706208 271.681064 
L 169.975132 250.805441 
L 170.244056 257.763982 
L 170.512979 285.598145 
L 170.781903 271.681064 
L 171.050826 264.722523 
L 171.31975 285.598145 
L 171.588673 250.805441 
L 171.857597 243.8469 
L 172.395444 257.763982 
L 172.664368 257.763982 
L 172.933291 264.722523 
L 173.471138 292.556686 
L 173.740062 292.556686 
L 174.008985 278.639604 
L 174.546833 296.035957 
L 174.815756 257.763982 
L 175.08468 285.598145 
L 175.89145 297.195714 
L 176.160374 278.639604 
L 176.429297 292.556686 
L 176.698221 292.556686 
L 176.967145 285.598145 
L 177.504992 285.598145 
L 178.849609 296.731811 
L 179.118533 257.763982 
L 179.65638 296.035957 
L 179.925304 292.556686 
L 180.463151 292.556686 
L 181.000998 296.035957 
L 181.269921 285.598145 
L 181.538845 285.598145 
L 181.807769 278.639604 
L 182.076692 292.556686 
L 182.345616 292.556686 
L 183.152386 297.195714 
L 183.42131 292.556686 
L 183.959157 289.077416 
L 186.110545 297.775592 
L 187.455163 298.123519 
L 188.799781 298.123519 
L 189.068705 292.556686 
L 189.875475 297.195714 
L 190.951169 297.775592 
L 191.75794 297.195714 
L 192.833634 297.775592 
L 193.640405 297.195714 
L 193.909329 285.598145 
L 194.447176 296.035957 
L 195.52287 294.296322 
L 196.329641 292.556686 
L 196.598564 292.556686 
L 197.943182 298.123519 
L 198.481029 296.035957 
L 198.749953 285.598145 
L 199.018876 292.556686 
L 199.556723 292.556686 
L 200.09457 289.077416 
L 200.363494 292.556686 
L 200.632417 271.681064 
L 200.901341 292.556686 
L 201.708112 292.556686 
L 202.514882 297.195714 
L 202.783806 292.556686 
L 203.321653 289.077416 
L 203.590577 278.639604 
L 203.8595 285.598145 
L 204.397347 296.035957 
L 204.666271 285.598145 
L 205.204118 296.035957 
L 205.473041 292.556686 
L 206.010889 278.639604 
L 206.279812 285.598145 
L 207.62443 298.123519 
L 207.893353 285.598145 
L 209.237971 298.123519 
L 209.506895 292.556686 
L 210.313665 297.195714 
L 211.120436 297.195714 
L 211.658283 296.035957 
L 212.465054 297.195714 
L 214.078595 298.35547 
L 214.347519 292.556686 
L 216.767831 297.968885 
L 217.574601 297.195714 
L 218.919219 298.123519 
L 219.188143 292.556686 
L 219.457066 292.556686 
L 223.221996 299.018189 
L 225.642308 298.742056 
L 230.214009 299.105901 
L 230.482932 292.556686 
L 231.289703 297.195714 
L 232.634321 298.123519 
L 235.323556 298.819373 
L 235.861403 289.077416 
L 236.668174 292.556686 
L 236.937098 292.556686 
L 237.206021 278.639604 
L 237.474945 278.639604 
L 237.743868 292.556686 
L 238.819562 296.035957 
L 239.088486 292.556686 
L 239.626333 296.035957 
L 240.433104 292.556686 
L 240.702027 285.598145 
L 240.970951 292.556686 
L 241.239874 285.598145 
L 241.508798 285.598145 
L 242.584492 297.775592 
L 242.853416 285.598145 
L 244.198034 298.123519 
L 244.466957 292.556686 
L 246.618346 298.64541 
L 246.887269 292.556686 
L 247.69404 297.195714 
L 250.652199 298.882633 
L 254.417129 299.018189 
L 254.686052 292.556686 
L 255.223899 292.556686 
L 259.257753 299.051325 
L 261.946988 298.819373 
L 263.022682 296.035957 
L 281.847331 299.41582 
L 285.343338 298.979955 
L 289.377191 299.051325 
L 297.713821 299.066289 
L 297.982745 292.556686 
L 300.403057 298.742056 
L 300.67198 292.556686 
L 301.478751 297.195714 
L 303.092292 298.35547 
L 303.361216 292.556686 
L 303.630139 292.556686 
L 304.43691 297.195714 
L 304.974757 292.556686 
L 308.20184 298.935349 
L 308.739687 296.035957 
L 311.697846 298.882633 
L 313.311387 297.195714 
L 327.295412 299.381409 
L 328.102183 297.195714 
L 337.783431 299.321934 
L 355.263462 299.408173 
L 361.717628 299.225288 
L 368.171793 299.225288 
L 368.978564 297.195714 
L 371.667799 298.819373 
L 371.936723 292.556686 
L 372.743493 297.195714 
L 373.28134 296.035957 
L 374.625958 298.123519 
L 378.390888 299.018189 
L 380.542276 298.64541 
L 381.349047 294.8762 
L 393.450607 299.360593 
L 394.257378 297.195714 
L 397.753384 298.979955 
L 398.022308 292.556686 
L 398.560155 296.035957 
L 399.635849 297.775592 
L 405.01432 299.1673 
L 405.283244 292.556686 
L 409.048173 299.018189 
L 423.301122 299.383934 
L 423.838969 296.035957 
L 537.862557 299.498816 
L 537.862557 299.498816 
" clip-path="url(#pe7e271c959)" style="fill: none; stroke: #d62728; stroke-opacity: 0.8; stroke-width: 1.2; stroke-linecap: square"/>
   </g>
   <g id="line2d_37">
    <path d="M 74.776193 299.515227 
L 75.045117 225.050202 
L 75.31404 216.00305 
L 75.582964 153.368917 
L 75.851887 209.043702 
L 76.120811 236.881094 
L 76.389735 181.206309 
L 76.658658 181.206309 
L 77.196505 195.125005 
L 77.465429 174.246961 
L 77.734352 118.572176 
L 78.003276 132.490872 
L 78.272199 90.734783 
L 78.541123 139.45022 
L 78.810047 132.490872 
L 79.07897 160.328265 
L 79.347894 90.734783 
L 79.616817 174.246961 
L 79.885741 118.572176 
L 80.154664 160.328265 
L 80.423588 48.978695 
L 80.692511 146.409568 
L 80.961435 90.734783 
L 81.230359 125.531524 
L 81.499282 83.775435 
L 81.768206 125.531524 
L 82.037129 132.490872 
L 82.306053 125.531524 
L 82.574976 153.368917 
L 82.8439 42.019346 
L 83.112823 83.775435 
L 83.381747 104.65348 
L 83.650671 90.734783 
L 83.919594 69.856739 
L 84.188518 97.694131 
L 84.457441 90.734783 
L 84.726365 28.10065 
L 84.995288 83.775435 
L 85.264212 76.816087 
L 85.533135 48.978695 
L 85.802059 146.409568 
L 86.070983 69.856739 
L 86.339906 153.368917 
L 86.60883 97.694131 
L 86.877753 90.734783 
L 87.146677 69.856739 
L 87.4156 146.409568 
L 87.684524 174.246961 
L 87.953447 139.45022 
L 88.222371 153.368917 
L 88.491295 132.490872 
L 88.760218 21.141302 
L 89.029142 111.612828 
L 89.298065 160.328265 
L 89.566989 83.775435 
L 89.835912 83.775435 
L 90.104836 160.328265 
L 90.373759 111.612828 
L 90.911607 111.612828 
L 91.18053 174.246961 
L 91.449454 97.694131 
L 91.718377 139.45022 
L 91.987301 132.490872 
L 92.256224 132.490872 
L 92.525148 125.531524 
L 93.331919 146.409568 
L 93.600842 97.694131 
L 93.869766 125.531524 
L 94.138689 174.246961 
L 94.407613 83.775435 
L 94.676536 125.531524 
L 94.94546 90.734783 
L 95.214383 146.409568 
L 95.483307 62.897391 
L 95.752231 174.246961 
L 96.021154 188.165657 
L 96.290078 125.531524 
L 96.559001 97.694131 
L 96.827925 90.734783 
L 97.096848 139.45022 
L 97.365772 167.287613 
L 97.634695 153.368917 
L 97.903619 153.368917 
L 98.172543 139.45022 
L 98.441466 104.65348 
L 98.71039 111.612828 
L 98.979313 97.694131 
L 99.248237 160.328265 
L 99.51716 181.206309 
L 99.786084 160.328265 
L 100.055007 104.65348 
L 100.323931 181.206309 
L 100.592855 125.531524 
L 100.861778 160.328265 
L 101.130702 174.246961 
L 101.399625 125.531524 
L 101.668549 160.328265 
L 101.937472 146.409568 
L 102.206396 97.694131 
L 102.475319 132.490872 
L 102.744243 195.125005 
L 103.013167 174.246961 
L 103.28209 188.165657 
L 103.551014 209.043702 
L 103.819937 209.043702 
L 104.088861 153.368917 
L 104.357784 160.328265 
L 104.626708 181.206309 
L 104.895631 118.572176 
L 105.164555 146.409568 
L 105.433479 125.531524 
L 105.702402 174.246961 
L 105.971326 181.206309 
L 106.240249 209.043702 
L 106.778096 146.409568 
L 107.04702 174.246961 
L 107.315943 236.881094 
L 107.584867 202.084353 
L 107.853791 125.531524 
L 108.122714 209.043702 
L 108.391638 146.409568 
L 108.660561 160.328265 
L 108.929485 222.962398 
L 109.198408 188.165657 
L 109.467332 181.206309 
L 109.736255 153.368917 
L 110.005179 216.00305 
L 110.274103 202.084353 
L 110.543026 202.084353 
L 110.81195 229.921746 
L 111.080873 181.206309 
L 111.61872 167.287613 
L 111.887644 209.043702 
L 112.156567 216.00305 
L 112.425491 181.206309 
L 112.694415 195.125005 
L 112.963338 202.084353 
L 113.232262 202.084353 
L 113.501185 209.043702 
L 113.770109 202.084353 
L 114.039032 202.084353 
L 114.307956 188.165657 
L 114.576879 188.165657 
L 114.845803 229.921746 
L 115.114727 195.125005 
L 115.652574 209.043702 
L 115.921497 222.962398 
L 116.190421 229.921746 
L 116.459344 209.043702 
L 116.728268 229.921746 
L 116.997191 181.206309 
L 117.266115 195.125005 
L 117.535039 160.328265 
L 117.803962 216.00305 
L 118.072886 181.206309 
L 118.341809 195.125005 
L 118.610733 181.206309 
L 118.879656 160.328265 
L 119.14858 216.00305 
L 119.417503 243.840442 
L 119.686427 216.00305 
L 119.955351 236.881094 
L 120.224274 222.962398 
L 120.762121 209.043702 
L 121.031045 264.718487 
L 121.299968 216.00305 
L 121.568892 216.00305 
L 121.837816 209.043702 
L 122.106739 216.00305 
L 122.375663 188.165657 
L 122.644586 236.881094 
L 122.91351 188.165657 
L 123.182433 216.00305 
L 123.451357 202.084353 
L 123.72028 195.125005 
L 123.989204 222.962398 
L 124.258128 264.718487 
L 124.527051 209.043702 
L 124.795975 243.840442 
L 125.064898 236.881094 
L 125.333822 202.084353 
L 125.602745 264.718487 
L 125.871669 202.084353 
L 126.140592 216.00305 
L 126.409516 236.881094 
L 126.67844 229.921746 
L 126.947363 250.79979 
L 127.216287 250.79979 
L 127.48521 181.206309 
L 127.754134 181.206309 
L 128.291981 271.677835 
L 128.560904 229.921746 
L 128.829828 243.840442 
L 129.098752 264.718487 
L 129.367675 216.00305 
L 129.636599 257.759138 
L 129.905522 243.840442 
L 130.443369 229.921746 
L 130.712293 202.084353 
L 130.981216 250.79979 
L 131.25014 209.043702 
L 131.519064 216.00305 
L 131.787987 250.79979 
L 132.056911 202.084353 
L 132.325834 264.718487 
L 132.594758 250.79979 
L 133.132605 195.125005 
L 133.401528 250.79979 
L 133.670452 243.840442 
L 133.939376 278.637183 
L 134.208299 229.921746 
L 134.477223 257.759138 
L 134.746146 209.043702 
L 135.01507 222.962398 
L 135.283993 278.637183 
L 135.552917 243.840442 
L 135.82184 236.881094 
L 136.090764 250.79979 
L 136.628611 264.718487 
L 136.897535 264.718487 
L 137.166458 257.759138 
L 137.435382 243.840442 
L 137.704305 209.043702 
L 138.242152 264.718487 
L 138.511076 243.840442 
L 138.78 250.79979 
L 139.048923 216.00305 
L 139.317847 264.718487 
L 139.58677 216.00305 
L 139.855694 243.840442 
L 140.124617 257.759138 
L 140.393541 236.881094 
L 140.662464 264.718487 
L 140.931388 264.718487 
L 141.200312 257.759138 
L 141.469235 236.881094 
L 141.738159 264.718487 
L 142.007082 222.962398 
L 142.276006 222.962398 
L 142.544929 250.79979 
L 142.813853 209.043702 
L 143.082776 216.00305 
L 143.3517 195.125005 
L 144.158471 278.637183 
L 144.427394 181.206309 
L 144.696318 222.962398 
L 144.965241 222.962398 
L 145.234165 188.165657 
L 145.772012 278.637183 
L 146.040936 229.921746 
L 146.309859 236.881094 
L 146.578783 250.79979 
L 146.847706 278.637183 
L 147.11663 250.79979 
L 147.385553 257.759138 
L 147.654477 250.79979 
L 147.9234 236.881094 
L 148.192324 271.677835 
L 148.461248 250.79979 
L 148.999095 278.637183 
L 149.268018 229.921746 
L 149.536942 278.637183 
L 149.805865 229.921746 
L 150.074789 278.637183 
L 150.343712 285.596531 
L 150.612636 271.677835 
L 150.88156 264.718487 
L 151.150483 236.881094 
L 151.419407 257.759138 
L 151.68833 250.79979 
L 151.957254 278.637183 
L 152.226177 271.677835 
L 152.495101 250.79979 
L 153.032948 264.718487 
L 153.301872 285.596531 
L 153.570795 278.637183 
L 153.839719 257.759138 
L 154.108642 271.677835 
L 154.377566 271.677835 
L 154.646489 278.637183 
L 154.915413 257.759138 
L 155.184336 271.677835 
L 155.45326 271.677835 
L 155.722184 257.759138 
L 155.991107 250.79979 
L 156.260031 285.596531 
L 156.528954 285.596531 
L 156.797878 278.637183 
L 157.066801 264.718487 
L 157.335725 285.596531 
L 157.604648 292.555879 
L 157.873572 285.596531 
L 158.680343 285.596531 
L 158.949266 229.921746 
L 159.21819 243.840442 
L 159.487113 278.637183 
L 159.756037 292.555879 
L 160.02496 271.677835 
L 160.293884 222.962398 
L 160.562808 278.637183 
L 160.831731 285.596531 
L 161.100655 250.79979 
L 161.369578 243.840442 
L 161.638502 278.637183 
L 161.907425 278.637183 
L 162.176349 271.677835 
L 162.445272 292.555879 
L 162.714196 292.555879 
L 162.98312 285.596531 
L 163.252043 264.718487 
L 163.520967 278.637183 
L 163.78989 278.637183 
L 164.058814 257.759138 
L 164.327737 278.637183 
L 164.596661 250.79979 
L 164.865584 250.79979 
L 165.134508 285.596531 
L 165.403432 264.718487 
L 165.672355 278.637183 
L 165.941279 264.718487 
L 166.210202 271.677835 
L 166.479126 243.840442 
L 166.748049 285.596531 
L 167.016973 250.79979 
L 167.285896 264.718487 
L 167.55482 264.718487 
L 167.823744 250.79979 
L 168.092667 264.718487 
L 168.361591 285.596531 
L 168.899438 278.637183 
L 169.168361 250.79979 
L 169.437285 271.677835 
L 169.706208 271.677835 
L 169.975132 250.79979 
L 170.244056 257.759138 
L 170.512979 285.596531 
L 170.781903 271.677835 
L 171.050826 264.718487 
L 171.31975 285.596531 
L 171.588673 250.79979 
L 171.857597 243.840442 
L 172.395444 257.759138 
L 172.664368 257.759138 
L 172.933291 264.718487 
L 173.471138 292.555879 
L 173.740062 292.555879 
L 174.008985 278.637183 
L 174.546833 296.035553 
L 174.815756 257.759138 
L 175.08468 285.596531 
L 175.89145 297.195445 
L 176.160374 278.637183 
L 176.429297 292.555879 
L 176.698221 292.555879 
L 176.967145 285.596531 
L 177.504992 285.596531 
L 178.849609 296.731488 
L 179.118533 257.759138 
L 179.65638 296.035553 
L 179.925304 292.555879 
L 180.463151 292.555879 
L 181.000998 296.035553 
L 181.269921 285.596531 
L 181.538845 285.596531 
L 181.807769 278.637183 
L 182.076692 292.555879 
L 182.345616 292.555879 
L 183.152386 297.195445 
L 183.42131 292.555879 
L 183.959157 289.076205 
L 186.110545 297.77539 
L 187.455163 298.123358 
L 188.799781 298.123358 
L 189.068705 292.555879 
L 189.875475 297.195445 
L 190.951169 297.77539 
L 191.75794 297.195445 
L 192.833634 297.77539 
L 193.640405 297.195445 
L 193.909329 285.596531 
L 194.447176 296.035553 
L 195.52287 294.295716 
L 196.329641 292.555879 
L 196.598564 292.555879 
L 197.943182 298.123358 
L 198.481029 296.035553 
L 198.749953 285.596531 
L 199.018876 292.555879 
L 199.556723 292.555879 
L 200.09457 289.076205 
L 200.363494 292.555879 
L 200.632417 271.677835 
L 200.901341 292.555879 
L 201.708112 292.555879 
L 202.514882 297.195445 
L 202.783806 292.555879 
L 203.321653 289.076205 
L 203.590577 278.637183 
L 203.8595 285.596531 
L 204.397347 296.035553 
L 204.666271 285.596531 
L 205.204118 296.035553 
L 205.473041 292.555879 
L 206.010889 278.637183 
L 206.279812 285.596531 
L 207.62443 298.123358 
L 207.893353 285.596531 
L 209.237971 298.123358 
L 209.506895 292.555879 
L 210.313665 297.195445 
L 211.120436 297.195445 
L 211.658283 296.035553 
L 212.465054 297.195445 
L 214.078595 298.355336 
L 214.347519 292.555879 
L 216.767831 297.968705 
L 217.574601 297.195445 
L 218.919219 298.123358 
L 219.188143 292.555879 
L 219.457066 292.555879 
L 223.221996 299.018131 
L 225.642308 298.741966 
L 230.214009 299.105854 
L 230.482932 292.555879 
L 231.289703 297.195445 
L 232.634321 298.123358 
L 235.323556 298.819292 
L 235.861403 289.076205 
L 236.668174 292.555879 
L 236.937098 292.555879 
L 237.206021 278.637183 
L 237.474945 278.637183 
L 237.743868 292.555879 
L 238.819562 296.035553 
L 239.088486 292.555879 
L 239.626333 296.035553 
L 240.433104 292.555879 
L 240.702027 285.596531 
L 240.970951 292.555879 
L 241.239874 285.596531 
L 241.508798 285.596531 
L 242.584492 297.77539 
L 242.853416 285.596531 
L 244.198034 298.123358 
L 244.466957 292.555879 
L 246.618346 298.645309 
L 246.887269 292.555879 
L 247.69404 297.195445 
L 250.652199 298.882559 
L 254.417129 299.018131 
L 254.686052 292.555879 
L 255.223899 292.555879 
L 259.257753 299.051271 
L 261.946988 298.819292 
L 263.022682 296.035553 
L 281.847331 299.415808 
L 285.343338 298.979893 
L 289.377191 299.051271 
L 297.713821 299.066237 
L 297.982745 292.555879 
L 300.403057 298.741966 
L 300.67198 292.555879 
L 301.478751 297.195445 
L 303.092292 298.355336 
L 303.361216 292.555879 
L 303.630139 292.555879 
L 304.43691 297.195445 
L 304.974757 292.555879 
L 308.20184 298.935282 
L 308.739687 296.035553 
L 311.697846 298.882559 
L 313.311387 297.195445 
L 327.295412 299.381394 
L 328.102183 297.195445 
L 337.783431 299.321912 
L 355.263462 299.40816 
L 361.717628 299.225254 
L 368.171793 299.225254 
L 368.978564 297.195445 
L 371.667799 298.819292 
L 371.936723 292.555879 
L 372.743493 297.195445 
L 373.28134 296.035553 
L 374.625958 298.123358 
L 378.390888 299.018131 
L 380.542276 298.645309 
L 381.349047 294.875662 
L 393.450607 299.360575 
L 394.257378 297.195445 
L 397.753384 298.979893 
L 398.022308 292.555879 
L 398.560155 296.035553 
L 399.635849 297.77539 
L 405.01432 299.16726 
L 405.283244 292.555879 
L 409.048173 299.018131 
L 423.301122 299.383919 
L 423.838969 296.035553 
L 537.862557 299.498814 
L 537.862557 299.498814 
" clip-path="url(#pe7e271c959)" style="fill: none; stroke: #2ca02c; stroke-opacity: 0.8; stroke-width: 1.2; stroke-linecap: square"/>
   </g>
   <g id="patch_3">
    <path d="M 51.621875 313.435 
L 51.621875 7.2 
" style="fill: none; stroke: #000000; stroke-width: 0.8; stroke-linejoin: miter; stroke-linecap: square"/>
   </g>
   <g id="patch_4">
    <path d="M 561.016875 313.435 
L 561.016875 7.2 
" style="fill: none; stroke: #000000; stroke-width: 0.8; stroke-linejoin: miter; stroke-linecap: square"/>
   </g>
   <g id="patch_5">
    <path d="M 51.621875 313.435 
L 561.016875 313.435 
" style="fill: none; stroke: #000000; stroke-width: 0.8; stroke-linejoin: miter; stroke-linecap: square"/>
   </g>
   <g id="patch_6">
    <path d="M 51.621875 7.2 
L 561.016875 7.2 
" style="fill: none; stroke: #000000; stroke-width: 0.8; stroke-linejoin: miter; stroke-linecap: square"/>
   </g>
   <g id="legend_1">
    <g id="patch_7">
     <path d="M 467.859062 57.617187 
L 554.016875 57.617187 
Q 556.016875 57.617187 556.016875 55.617187 
L 556.016875 14.2 
Q 556.016875 12.2 554.016875 12.2 
L 467.859062 12.2 
Q 465.859062 12.2 465.859062 14.2 
L 465.859062 55.617187 
Q 465.859062 57.617187 467.859062 57.617187 
z
" style="fill: #ffffff; opacity: 0.8; stroke: #cccccc; stroke-linejoin: miter"/>
    </g>
    <g id="line2d_38">
     <path d="M 469.859062 19.7 
L 479.859062 19.7 
L 489.859062 19.7 
" style="fill: none; stroke: #1f77b4; stroke-opacity: 0.8; stroke-width: 1.2; stroke-linecap: square"/>
    </g>
    <g id="text_20">
     <!-- Simple Rank -->
     <g transform="translate(497.859062 23.2) scale(0.1 -0.1)">
      <defs>
       <path id="TimesNewRomanPSMT-53" d="M 2934 4334 
L 2934 2869 
L 2819 2869 
Q 2763 3291 2617 3541 
Q 2472 3791 2203 3937 
Q 1934 4084 1647 4084 
Q 1322 4084 1109 3886 
Q 897 3688 897 3434 
Q 897 3241 1031 3081 
Q 1225 2847 1953 2456 
Q 2547 2138 2764 1967 
Q 2981 1797 3098 1565 
Q 3216 1334 3216 1081 
Q 3216 600 2842 251 
Q 2469 -97 1881 -97 
Q 1697 -97 1534 -69 
Q 1438 -53 1133 45 
Q 828 144 747 144 
Q 669 144 623 97 
Q 578 50 556 -97 
L 441 -97 
L 441 1356 
L 556 1356 
Q 638 900 775 673 
Q 913 447 1195 297 
Q 1478 147 1816 147 
Q 2206 147 2432 353 
Q 2659 559 2659 841 
Q 2659 997 2573 1156 
Q 2488 1316 2306 1453 
Q 2184 1547 1640 1851 
Q 1097 2156 867 2337 
Q 638 2519 519 2737 
Q 400 2956 400 3219 
Q 400 3675 750 4004 
Q 1100 4334 1641 4334 
Q 1978 4334 2356 4169 
Q 2531 4091 2603 4091 
Q 2684 4091 2736 4139 
Q 2788 4188 2819 4334 
L 2934 4334 
z
" transform="scale(0.015625)"/>
       <path id="TimesNewRomanPSMT-70" d="M -6 2578 
L 875 2934 
L 994 2934 
L 994 2266 
Q 1216 2644 1439 2795 
Q 1663 2947 1909 2947 
Q 2341 2947 2628 2609 
Q 2981 2197 2981 1534 
Q 2981 794 2556 309 
Q 2206 -88 1675 -88 
Q 1444 -88 1275 -22 
Q 1150 25 994 166 
L 994 -706 
Q 994 -1000 1030 -1079 
Q 1066 -1159 1155 -1206 
Q 1244 -1253 1478 -1253 
L 1478 -1369 
L -22 -1369 
L -22 -1253 
L 56 -1253 
Q 228 -1256 350 -1188 
Q 409 -1153 442 -1076 
Q 475 -1000 475 -688 
L 475 2019 
Q 475 2297 450 2372 
Q 425 2447 370 2484 
Q 316 2522 222 2522 
Q 147 2522 31 2478 
L -6 2578 
z
M 994 2081 
L 994 1013 
Q 994 666 1022 556 
Q 1066 375 1236 237 
Q 1406 100 1666 100 
Q 1978 100 2172 344 
Q 2425 663 2425 1241 
Q 2425 1897 2138 2250 
Q 1938 2494 1663 2494 
Q 1513 2494 1366 2419 
Q 1253 2363 994 2081 
z
" transform="scale(0.015625)"/>
       <path id="TimesNewRomanPSMT-52" d="M 4325 0 
L 3194 0 
L 1759 1981 
Q 1600 1975 1500 1975 
Q 1459 1975 1412 1976 
Q 1366 1978 1316 1981 
L 1316 750 
Q 1316 350 1403 253 
Q 1522 116 1759 116 
L 1925 116 
L 1925 0 
L 109 0 
L 109 116 
L 269 116 
Q 538 116 653 291 
Q 719 388 719 750 
L 719 3488 
Q 719 3888 631 3984 
Q 509 4122 269 4122 
L 109 4122 
L 109 4238 
L 1653 4238 
Q 2328 4238 2648 4139 
Q 2969 4041 3192 3777 
Q 3416 3513 3416 3147 
Q 3416 2756 3161 2468 
Q 2906 2181 2372 2063 
L 3247 847 
Q 3547 428 3762 290 
Q 3978 153 4325 116 
L 4325 0 
z
M 1316 2178 
Q 1375 2178 1419 2176 
Q 1463 2175 1491 2175 
Q 2097 2175 2405 2437 
Q 2713 2700 2713 3106 
Q 2713 3503 2464 3751 
Q 2216 4000 1806 4000 
Q 1625 4000 1316 3941 
L 1316 2178 
z
" transform="scale(0.015625)"/>
       <path id="TimesNewRomanPSMT-6b" d="M 1047 4444 
L 1047 1597 
L 1775 2259 
Q 2006 2472 2044 2528 
Q 2069 2566 2069 2603 
Q 2069 2666 2017 2711 
Q 1966 2756 1847 2763 
L 1847 2863 
L 3091 2863 
L 3091 2763 
Q 2834 2756 2664 2684 
Q 2494 2613 2291 2428 
L 1556 1750 
L 2291 822 
Q 2597 438 2703 334 
Q 2853 188 2966 144 
Q 3044 113 3238 113 
L 3238 0 
L 1847 0 
L 1847 113 
Q 1966 116 2008 148 
Q 2050 181 2050 241 
Q 2050 313 1925 472 
L 1047 1594 
L 1047 644 
Q 1047 366 1086 278 
Q 1125 191 1197 153 
Q 1269 116 1509 113 
L 1509 0 
L 53 0 
L 53 113 
Q 272 113 381 166 
Q 447 200 481 272 
Q 528 375 528 628 
L 528 3234 
Q 528 3731 506 3842 
Q 484 3953 434 3995 
Q 384 4038 303 4038 
Q 238 4038 106 3984 
L 53 4094 
L 903 4444 
L 1047 4444 
z
" transform="scale(0.015625)"/>
      </defs>
      <use xlink:href="#TimesNewRomanPSMT-53"/>
      <use xlink:href="#TimesNewRomanPSMT-69" transform="translate(55.615234 0)"/>
      <use xlink:href="#TimesNewRomanPSMT-6d" transform="translate(83.398438 0)"/>
      <use xlink:href="#TimesNewRomanPSMT-70" transform="translate(161.181641 0)"/>
      <use xlink:href="#TimesNewRomanPSMT-6c" transform="translate(211.181641 0)"/>
      <use xlink:href="#TimesNewRomanPSMT-65" transform="translate(238.964844 0)"/>
      <use xlink:href="#TimesNewRomanPSMT-20" transform="translate(283.349609 0)"/>
      <use xlink:href="#TimesNewRomanPSMT-52" transform="translate(308.349609 0)"/>
      <use xlink:href="#TimesNewRomanPSMT-61" transform="translate(375.048828 0)"/>
      <use xlink:href="#TimesNewRomanPSMT-6e" transform="translate(419.433594 0)"/>
      <use xlink:href="#TimesNewRomanPSMT-6b" transform="translate(469.433594 0)"/>
     </g>
    </g>
    <g id="line2d_39">
     <path d="M 469.859062 33.839062 
L 479.859062 33.839062 
L 489.859062 33.839062 
" style="fill: none; stroke: #d62728; stroke-opacity: 0.8; stroke-width: 1.2; stroke-linecap: square"/>
    </g>
    <g id="text_21">
     <!-- Mean Rank -->
     <g transform="translate(497.859062 37.339062) scale(0.1 -0.1)">
      <defs>
       <path id="TimesNewRomanPSMT-4d" d="M 2619 0 
L 981 3566 
L 981 734 
Q 981 344 1066 247 
Q 1181 116 1431 116 
L 1581 116 
L 1581 0 
L 106 0 
L 106 116 
L 256 116 
Q 525 116 638 278 
Q 706 378 706 734 
L 706 3503 
Q 706 3784 644 3909 
Q 600 4000 483 4061 
Q 366 4122 106 4122 
L 106 4238 
L 1306 4238 
L 2844 922 
L 4356 4238 
L 5556 4238 
L 5556 4122 
L 5409 4122 
Q 5138 4122 5025 3959 
Q 4956 3859 4956 3503 
L 4956 734 
Q 4956 344 5044 247 
Q 5159 116 5409 116 
L 5556 116 
L 5556 0 
L 3756 0 
L 3756 116 
L 3906 116 
Q 4178 116 4288 278 
Q 4356 378 4356 734 
L 4356 3566 
L 2722 0 
L 2619 0 
z
" transform="scale(0.015625)"/>
      </defs>
      <use xlink:href="#TimesNewRomanPSMT-4d"/>
      <use xlink:href="#TimesNewRomanPSMT-65" transform="translate(88.916016 0)"/>
      <use xlink:href="#TimesNewRomanPSMT-61" transform="translate(133.300781 0)"/>
      <use xlink:href="#TimesNewRomanPSMT-6e" transform="translate(177.685547 0)"/>
      <use xlink:href="#TimesNewRomanPSMT-20" transform="translate(227.685547 0)"/>
      <use xlink:href="#TimesNewRomanPSMT-52" transform="translate(252.685547 0)"/>
      <use xlink:href="#TimesNewRomanPSMT-61" transform="translate(319.384766 0)"/>
      <use xlink:href="#TimesNewRomanPSMT-6e" transform="translate(363.769531 0)"/>
      <use xlink:href="#TimesNewRomanPSMT-6b" transform="translate(413.769531 0)"/>
     </g>
    </g>
    <g id="line2d_40">
     <path d="M 469.859062 47.978125 
L 479.859062 47.978125 
L 489.859062 47.978125 
" style="fill: none; stroke: #2ca02c; stroke-opacity: 0.8; stroke-width: 1.2; stroke-linecap: square"/>
    </g>
    <g id="text_22">
     <!-- Median Rank -->
     <g transform="translate(497.859062 51.478125) scale(0.1 -0.1)">
      <defs>
       <path id="TimesNewRomanPSMT-64" d="M 2222 322 
Q 2013 103 1813 7 
Q 1613 -88 1381 -88 
Q 913 -88 563 304 
Q 213 697 213 1313 
Q 213 1928 600 2439 
Q 988 2950 1597 2950 
Q 1975 2950 2222 2709 
L 2222 3238 
Q 2222 3728 2198 3840 
Q 2175 3953 2125 3993 
Q 2075 4034 2000 4034 
Q 1919 4034 1784 3984 
L 1744 4094 
L 2597 4444 
L 2738 4444 
L 2738 1134 
Q 2738 631 2761 520 
Q 2784 409 2836 365 
Q 2888 322 2956 322 
Q 3041 322 3181 375 
L 3216 266 
L 2366 -88 
L 2222 -88 
L 2222 322 
z
M 2222 541 
L 2222 2016 
Q 2203 2228 2109 2403 
Q 2016 2578 1861 2667 
Q 1706 2756 1559 2756 
Q 1284 2756 1069 2509 
Q 784 2184 784 1559 
Q 784 928 1059 592 
Q 1334 256 1672 256 
Q 1956 256 2222 541 
z
" transform="scale(0.015625)"/>
      </defs>
      <use xlink:href="#TimesNewRomanPSMT-4d"/>
      <use xlink:href="#TimesNewRomanPSMT-65" transform="translate(88.916016 0)"/>
      <use xlink:href="#TimesNewRomanPSMT-64" transform="translate(133.300781 0)"/>
      <use xlink:href="#TimesNewRomanPSMT-69" transform="translate(183.300781 0)"/>
      <use xlink:href="#TimesNewRomanPSMT-61" transform="translate(211.083984 0)"/>
      <use xlink:href="#TimesNewRomanPSMT-6e" transform="translate(255.46875 0)"/>
      <use xlink:href="#TimesNewRomanPSMT-20" transform="translate(305.46875 0)"/>
      <use xlink:href="#TimesNewRomanPSMT-52" transform="translate(330.46875 0)"/>
      <use xlink:href="#TimesNewRomanPSMT-61" transform="translate(397.167969 0)"/>
      <use xlink:href="#TimesNewRomanPSMT-6e" transform="translate(441.552734 0)"/>
      <use xlink:href="#TimesNewRomanPSMT-6b" transform="translate(491.552734 0)"/>
     </g>
    </g>
   </g>
  </g>
 </g>
 <defs>
  <clipPath id="pe7e271c959">
   <rect x="51.621875" y="7.2" width="509.395" height="306.235"/>
  </clipPath>
 </defs>
</svg>
