<?xml version="1.0" encoding="utf-8" standalone="no"?>
<!DOCTYPE svg PUBLIC "-//W3C//DTD SVG 1.1//EN"
  "http://www.w3.org/Graphics/SVG/1.1/DTD/svg11.dtd">
<svg xmlns:xlink="http://www.w3.org/1999/xlink" width="854.849421pt" height="495.094844pt" viewBox="0 0 854.849421 495.094844" xmlns="http://www.w3.org/2000/svg" version="1.1">
 <metadata>
  <rdf:RDF xmlns:dc="http://purl.org/dc/elements/1.1/" xmlns:cc="http://creativecommons.org/ns#" xmlns:rdf="http://www.w3.org/1999/02/22-rdf-syntax-ns#">
   <cc:Work>
    <dc:type rdf:resource="http://purl.org/dc/dcmitype/StillImage"/>
    <dc:date>2026-03-18T12:58:53.727463</dc:date>
    <dc:format>image/svg+xml</dc:format>
    <dc:creator>
     <cc:Agent>
      <dc:title>Matplotlib v3.10.8, https://matplotlib.org/</dc:title>
     </cc:Agent>
    </dc:creator>
   </cc:Work>
  </rdf:RDF>
 </metadata>
 <defs>
  <style type="text/css">*{stroke-linejoin: round; stroke-linecap: butt}</style>
 </defs>
 <g id="figure_1">
  <g id="patch_1">
   <path d="M 0 495.094844 
L 854.849421 495.094844 
L 854.849421 0 
L 0 0 
z
" style="fill: #ffffff"/>
  </g>
  <g id="axes_1">
   <g id="patch_2">
    <path d="M 59.321094 457.64875 
L 626.378844 457.64875 
L 626.378844 33.91875 
L 59.321094 33.91875 
z
" style="fill: #ffffff"/>
   </g>
   <g id="matplotlib.axis_1">
    <g id="xtick_1">
     <g id="line2d_1">
      <path d="M 85.046202 457.64875 
L 85.046202 33.91875 
" clip-path="url(#p0594ff06f0)" style="fill: none; stroke-dasharray: 2.96,1.28; stroke-dashoffset: 0; stroke: #b0b0b0; stroke-opacity: 0.4; stroke-width: 0.8"/>
     </g>
     <g id="line2d_2">
      <defs>
       <path id="m9a97ab243e" d="M 0 0 
L 0 3.5 
" style="stroke: #000000; stroke-width: 0.8"/>
      </defs>
      <g>
       <use xlink:href="#m9a97ab243e" x="85.046202" y="457.64875" style="stroke: #000000; stroke-width: 0.8"/>
      </g>
     </g>
     <g id="text_1">
      <!-- 0 -->
      <g transform="translate(82.546202 471.52375) scale(0.1 -0.1)">
       <defs>
        <path id="SimHei-30" d="M 225 2537 
Q 250 3200 412 3587 
Q 575 3975 875 4225 
Q 1175 4475 1612 4475 
Q 2050 4475 2375 4112 
Q 2700 3750 2800 3200 
Q 2900 2650 2862 1937 
Q 2825 1225 2612 775 
Q 2400 325 1975 150 
Q 1550 -25 1125 187 
Q 700 400 525 750 
Q 350 1100 275 1487 
Q 200 1875 225 2537 
z
M 750 2687 
Q 675 2000 800 1462 
Q 925 925 1212 700 
Q 1500 475 1800 612 
Q 2100 750 2237 1162 
Q 2375 1575 2375 2062 
Q 2375 2550 2337 2950 
Q 2300 3350 2112 3675 
Q 1925 4000 1612 4012 
Q 1300 4025 1062 3700 
Q 825 3375 750 2687 
z
" transform="scale(0.015625)"/>
       </defs>
       <use xlink:href="#SimHei-30"/>
      </g>
     </g>
    </g>
    <g id="xtick_2">
     <g id="line2d_3">
      <path d="M 185.533606 457.64875 
L 185.533606 33.91875 
" clip-path="url(#p0594ff06f0)" style="fill: none; stroke-dasharray: 2.96,1.28; stroke-dashoffset: 0; stroke: #b0b0b0; stroke-opacity: 0.4; stroke-width: 0.8"/>
     </g>
     <g id="line2d_4">
      <g>
       <use xlink:href="#m9a97ab243e" x="185.533606" y="457.64875" style="stroke: #000000; stroke-width: 0.8"/>
      </g>
     </g>
     <g id="text_2">
      <!-- 2000 -->
      <g transform="translate(175.533606 471.52375) scale(0.1 -0.1)">
       <defs>
        <path id="SimHei-32" d="M 300 250 
Q 325 625 650 925 
Q 975 1225 1475 1862 
Q 1975 2500 2125 2850 
Q 2275 3200 2237 3450 
Q 2200 3700 2000 3862 
Q 1800 4025 1537 4000 
Q 1275 3975 1037 3800 
Q 800 3625 675 3275 
L 200 3350 
Q 400 3925 712 4187 
Q 1025 4450 1450 4475 
Q 1700 4500 1900 4462 
Q 2100 4425 2312 4287 
Q 2525 4150 2662 3875 
Q 2800 3600 2762 3212 
Q 2725 2825 2375 2287 
Q 2025 1750 1025 600 
L 2825 600 
L 2825 150 
L 300 150 
L 300 250 
z
" transform="scale(0.015625)"/>
       </defs>
       <use xlink:href="#SimHei-32"/>
       <use xlink:href="#SimHei-30" transform="translate(50 0)"/>
       <use xlink:href="#SimHei-30" transform="translate(100 0)"/>
       <use xlink:href="#SimHei-30" transform="translate(150 0)"/>
      </g>
     </g>
    </g>
    <g id="xtick_3">
     <g id="line2d_5">
      <path d="M 286.02101 457.64875 
L 286.02101 33.91875 
" clip-path="url(#p0594ff06f0)" style="fill: none; stroke-dasharray: 2.96,1.28; stroke-dashoffset: 0; stroke: #b0b0b0; stroke-opacity: 0.4; stroke-width: 0.8"/>
     </g>
     <g id="line2d_6">
      <g>
       <use xlink:href="#m9a97ab243e" x="286.02101" y="457.64875" style="stroke: #000000; stroke-width: 0.8"/>
      </g>
     </g>
     <g id="text_3">
      <!-- 4000 -->
      <g transform="translate(276.02101 471.52375) scale(0.1 -0.1)">
       <defs>
        <path id="SimHei-34" d="M 2000 1100 
L 75 1100 
L 75 1525 
L 2100 4450 
L 2475 4450 
L 2475 1525 
L 3075 1525 
L 3075 1100 
L 2475 1100 
L 2475 150 
L 2000 150 
L 2000 1100 
z
M 2000 1525 
L 2000 3500 
L 600 1525 
L 2000 1525 
z
" transform="scale(0.015625)"/>
       </defs>
       <use xlink:href="#SimHei-34"/>
       <use xlink:href="#SimHei-30" transform="translate(50 0)"/>
       <use xlink:href="#SimHei-30" transform="translate(100 0)"/>
       <use xlink:href="#SimHei-30" transform="translate(150 0)"/>
      </g>
     </g>
    </g>
    <g id="xtick_4">
     <g id="line2d_7">
      <path d="M 386.508414 457.64875 
L 386.508414 33.91875 
" clip-path="url(#p0594ff06f0)" style="fill: none; stroke-dasharray: 2.96,1.28; stroke-dashoffset: 0; stroke: #b0b0b0; stroke-opacity: 0.4; stroke-width: 0.8"/>
     </g>
     <g id="line2d_8">
      <g>
       <use xlink:href="#m9a97ab243e" x="386.508414" y="457.64875" style="stroke: #000000; stroke-width: 0.8"/>
      </g>
     </g>
     <g id="text_4">
      <!-- 6000 -->
      <g transform="translate(376.508414 471.52375) scale(0.1 -0.1)">
       <defs>
        <path id="SimHei-36" d="M 250 1612 
Q 275 1975 387 2225 
Q 500 2475 725 2850 
L 1750 4450 
L 2325 4450 
L 1275 2800 
Q 1950 2975 2350 2750 
Q 2750 2525 2887 2237 
Q 3025 1950 3037 1612 
Q 3050 1275 2937 950 
Q 2825 625 2537 362 
Q 2250 100 1737 75 
Q 1225 50 862 262 
Q 500 475 362 862 
Q 225 1250 250 1612 
z
M 1025 787 
Q 1250 550 1625 525 
Q 2000 500 2250 775 
Q 2500 1050 2500 1575 
Q 2500 2100 2187 2300 
Q 1875 2500 1487 2450 
Q 1100 2400 925 2075 
Q 750 1750 775 1387 
Q 800 1025 1025 787 
z
" transform="scale(0.015625)"/>
       </defs>
       <use xlink:href="#SimHei-36"/>
       <use xlink:href="#SimHei-30" transform="translate(50 0)"/>
       <use xlink:href="#SimHei-30" transform="translate(100 0)"/>
       <use xlink:href="#SimHei-30" transform="translate(150 0)"/>
      </g>
     </g>
    </g>
    <g id="xtick_5">
     <g id="line2d_9">
      <path d="M 486.995818 457.64875 
L 486.995818 33.91875 
" clip-path="url(#p0594ff06f0)" style="fill: none; stroke-dasharray: 2.96,1.28; stroke-dashoffset: 0; stroke: #b0b0b0; stroke-opacity: 0.4; stroke-width: 0.8"/>
     </g>
     <g id="line2d_10">
      <g>
       <use xlink:href="#m9a97ab243e" x="486.995818" y="457.64875" style="stroke: #000000; stroke-width: 0.8"/>
      </g>
     </g>
     <g id="text_5">
      <!-- 8000 -->
      <g transform="translate(476.995818 471.52375) scale(0.1 -0.1)">
       <defs>
        <path id="SimHei-38" d="M 175 1375 
Q 175 1675 325 1962 
Q 475 2250 825 2425 
Q 525 2600 425 2812 
Q 325 3025 312 3300 
Q 300 3575 387 3775 
Q 475 3975 650 4150 
Q 825 4325 1037 4387 
Q 1250 4450 1500 4450 
Q 1750 4450 1950 4400 
Q 2150 4350 2375 4187 
Q 2600 4025 2700 3725 
Q 2800 3425 2687 3025 
Q 2575 2625 2100 2400 
Q 2525 2275 2700 2012 
Q 2875 1750 2875 1375 
Q 2875 1000 2762 775 
Q 2650 550 2512 400 
Q 2375 250 2137 162 
Q 1900 75 1537 75 
Q 1175 75 912 162 
Q 650 250 475 425 
Q 300 600 237 837 
Q 175 1075 175 1375 
z
M 687 1400 
Q 675 1100 787 875 
Q 900 650 1200 587 
Q 1500 525 1825 600 
Q 2150 675 2275 950 
Q 2400 1225 2362 1500 
Q 2325 1775 2050 1962 
Q 1775 2150 1450 2125 
Q 1125 2100 912 1900 
Q 700 1700 687 1400 
z
M 775 3350 
Q 775 3100 950 2875 
Q 1125 2650 1500 2650 
Q 1875 2650 2062 2875 
Q 2250 3100 2237 3412 
Q 2225 3725 2012 3875 
Q 1800 4025 1437 4000 
Q 1075 3975 925 3787 
Q 775 3600 775 3350 
z
" transform="scale(0.015625)"/>
       </defs>
       <use xlink:href="#SimHei-38"/>
       <use xlink:href="#SimHei-30" transform="translate(50 0)"/>
       <use xlink:href="#SimHei-30" transform="translate(100 0)"/>
       <use xlink:href="#SimHei-30" transform="translate(150 0)"/>
      </g>
     </g>
    </g>
    <g id="xtick_6">
     <g id="line2d_11">
      <path d="M 587.483222 457.64875 
L 587.483222 33.91875 
" clip-path="url(#p0594ff06f0)" style="fill: none; stroke-dasharray: 2.96,1.28; stroke-dashoffset: 0; stroke: #b0b0b0; stroke-opacity: 0.4; stroke-width: 0.8"/>
     </g>
     <g id="line2d_12">
      <g>
       <use xlink:href="#m9a97ab243e" x="587.483222" y="457.64875" style="stroke: #000000; stroke-width: 0.8"/>
      </g>
     </g>
     <g id="text_6">
      <!-- 10000 -->
      <g transform="translate(574.983222 471.52375) scale(0.1 -0.1)">
       <defs>
        <path id="SimHei-31" d="M 1400 3600 
Q 1075 3275 575 2975 
L 575 3450 
Q 1200 3875 1600 4450 
L 1900 4450 
L 1900 150 
L 1400 150 
L 1400 3600 
z
" transform="scale(0.015625)"/>
       </defs>
       <use xlink:href="#SimHei-31"/>
       <use xlink:href="#SimHei-30" transform="translate(50 0)"/>
       <use xlink:href="#SimHei-30" transform="translate(100 0)"/>
       <use xlink:href="#SimHei-30" transform="translate(150 0)"/>
       <use xlink:href="#SimHei-30" transform="translate(200 0)"/>
      </g>
     </g>
    </g>
    <g id="text_7">
     <!-- Time (h) -->
     <g transform="translate(316.849969 486.269844) scale(0.13 -0.13)">
      <defs>
       <path id="SimHei-54" d="M 2850 3925 
L 1850 3925 
L 1850 125 
L 1275 125 
L 1275 3925 
L 275 3925 
L 275 4400 
L 2850 4400 
L 2850 3925 
z
" transform="scale(0.015625)"/>
       <path id="SimHei-69" d="M 1800 3725 
L 1300 3725 
L 1300 4375 
L 1800 4375 
L 1800 3725 
z
M 1800 125 
L 1300 125 
L 1300 2925 
L 1800 2925 
L 1800 125 
z
" transform="scale(0.015625)"/>
       <path id="SimHei-6d" d="M 3050 125 
L 2550 125 
L 2550 2150 
Q 2550 2300 2500 2400 
Q 2450 2500 2300 2500 
Q 2125 2500 1975 2312 
Q 1825 2125 1825 1825 
L 1825 125 
L 1325 125 
L 1325 2150 
Q 1325 2300 1275 2400 
Q 1225 2500 1075 2500 
Q 900 2500 750 2312 
Q 600 2125 600 1825 
L 600 125 
L 100 125 
L 100 2925 
L 600 2925 
L 600 2550 
Q 725 2750 900 2862 
Q 1075 2975 1275 2975 
Q 1475 2975 1612 2862 
Q 1750 2750 1800 2550 
Q 1925 2750 2087 2862 
Q 2250 2975 2450 2975 
Q 2750 2975 2900 2812 
Q 3050 2650 3050 2350 
L 3050 125 
z
" transform="scale(0.015625)"/>
       <path id="SimHei-65" d="M 2850 1075 
Q 2800 625 2450 350 
Q 2100 75 1625 75 
Q 1025 75 637 462 
Q 250 850 250 1525 
Q 250 2200 637 2587 
Q 1025 2975 1625 2975 
Q 2150 2975 2487 2637 
Q 2825 2300 2825 1525 
L 800 1525 
Q 800 975 1037 750 
Q 1275 525 1625 525 
Q 1900 525 2075 662 
Q 2250 800 2300 1075 
L 2850 1075 
z
M 2250 1925 
Q 2200 2275 2025 2412 
Q 1850 2550 1575 2550 
Q 1325 2550 1125 2412 
Q 925 2275 825 1925 
L 2250 1925 
z
" transform="scale(0.015625)"/>
       <path id="SimHei-20" transform="scale(0.015625)"/>
       <path id="SimHei-28" d="M 2975 -200 
L 2700 -475 
Q 2075 125 1762 775 
Q 1450 1425 1450 2250 
Q 1450 3075 1762 3725 
Q 2075 4375 2700 5000 
L 2975 4725 
Q 2400 4175 2112 3587 
Q 1825 3000 1825 2250 
Q 1825 1500 2112 912 
Q 2400 325 2975 -200 
z
" transform="scale(0.015625)"/>
       <path id="SimHei-68" d="M 2800 125 
L 2300 125 
L 2300 1925 
Q 2300 2225 2150 2400 
Q 2000 2575 1750 2575 
Q 1425 2575 1137 2237 
Q 850 1900 850 1400 
L 850 125 
L 350 125 
L 350 4400 
L 850 4400 
L 850 2400 
Q 1050 2675 1287 2825 
Q 1525 2975 1900 2975 
Q 2350 2975 2575 2725 
Q 2800 2475 2800 2100 
L 2800 125 
z
" transform="scale(0.015625)"/>
       <path id="SimHei-29" d="M 1675 2250 
Q 1675 1425 1362 775 
Q 1050 125 425 -475 
L 150 -200 
Q 725 325 1012 912 
Q 1300 1500 1300 2250 
Q 1300 3000 1012 3587 
Q 725 4175 150 4725 
L 425 5000 
Q 1050 4375 1362 3725 
Q 1675 3075 1675 2250 
z
" transform="scale(0.015625)"/>
      </defs>
      <use xlink:href="#SimHei-54"/>
      <use xlink:href="#SimHei-69" transform="translate(50 0)"/>
      <use xlink:href="#SimHei-6d" transform="translate(100 0)"/>
      <use xlink:href="#SimHei-65" transform="translate(150 0)"/>
      <use xlink:href="#SimHei-20" transform="translate(200 0)"/>
      <use xlink:href="#SimHei-28" transform="translate(250 0)"/>
      <use xlink:href="#SimHei-68" transform="translate(300 0)"/>
      <use xlink:href="#SimHei-29" transform="translate(350 0)"/>
     </g>
    </g>
   </g>
   <g id="matplotlib.axis_2">
    <g id="ytick_1">
     <g id="line2d_13">
      <path d="M 59.321094 421.224622 
L 626.378844 421.224622 
" clip-path="url(#p0594ff06f0)" style="fill: none; stroke-dasharray: 2.96,1.28; stroke-dashoffset: 0; stroke: #b0b0b0; stroke-opacity: 0.4; stroke-width: 0.8"/>
     </g>
     <g id="line2d_14">
      <defs>
       <path id="m5487e72fcb" d="M 0 0 
L -3.5 0 
" style="stroke: #000000; stroke-width: 0.8"/>
      </defs>
      <g>
       <use xlink:href="#m5487e72fcb" x="59.321094" y="421.224622" style="stroke: #000000; stroke-width: 0.8"/>
      </g>
     </g>
     <g id="text_8">
      <!-- 0.0000 -->
      <g transform="translate(22.321094 424.662122) scale(0.1 -0.1)">
       <defs>
        <path id="SimHei-2e" d="M 1075 125 
L 500 125 
L 500 675 
L 1075 675 
L 1075 125 
z
" transform="scale(0.015625)"/>
       </defs>
       <use xlink:href="#SimHei-30"/>
       <use xlink:href="#SimHei-2e" transform="translate(50 0)"/>
       <use xlink:href="#SimHei-30" transform="translate(100 0)"/>
       <use xlink:href="#SimHei-30" transform="translate(150 0)"/>
       <use xlink:href="#SimHei-30" transform="translate(200 0)"/>
       <use xlink:href="#SimHei-30" transform="translate(250 0)"/>
      </g>
     </g>
    </g>
    <g id="ytick_2">
     <g id="line2d_15">
      <path d="M 59.321094 348.376366 
L 626.378844 348.376366 
" clip-path="url(#p0594ff06f0)" style="fill: none; stroke-dasharray: 2.96,1.28; stroke-dashoffset: 0; stroke: #b0b0b0; stroke-opacity: 0.4; stroke-width: 0.8"/>
     </g>
     <g id="line2d_16">
      <g>
       <use xlink:href="#m5487e72fcb" x="59.321094" y="348.376366" style="stroke: #000000; stroke-width: 0.8"/>
      </g>
     </g>
     <g id="text_9">
      <!-- 0.0002 -->
      <g transform="translate(22.321094 351.813866) scale(0.1 -0.1)">
       <use xlink:href="#SimHei-30"/>
       <use xlink:href="#SimHei-2e" transform="translate(50 0)"/>
       <use xlink:href="#SimHei-30" transform="translate(100 0)"/>
       <use xlink:href="#SimHei-30" transform="translate(150 0)"/>
       <use xlink:href="#SimHei-30" transform="translate(200 0)"/>
       <use xlink:href="#SimHei-32" transform="translate(250 0)"/>
      </g>
     </g>
    </g>
    <g id="ytick_3">
     <g id="line2d_17">
      <path d="M 59.321094 275.52811 
L 626.378844 275.52811 
" clip-path="url(#p0594ff06f0)" style="fill: none; stroke-dasharray: 2.96,1.28; stroke-dashoffset: 0; stroke: #b0b0b0; stroke-opacity: 0.4; stroke-width: 0.8"/>
     </g>
     <g id="line2d_18">
      <g>
       <use xlink:href="#m5487e72fcb" x="59.321094" y="275.52811" style="stroke: #000000; stroke-width: 0.8"/>
      </g>
     </g>
     <g id="text_10">
      <!-- 0.0004 -->
      <g transform="translate(22.321094 278.96561) scale(0.1 -0.1)">
       <use xlink:href="#SimHei-30"/>
       <use xlink:href="#SimHei-2e" transform="translate(50 0)"/>
       <use xlink:href="#SimHei-30" transform="translate(100 0)"/>
       <use xlink:href="#SimHei-30" transform="translate(150 0)"/>
       <use xlink:href="#SimHei-30" transform="translate(200 0)"/>
       <use xlink:href="#SimHei-34" transform="translate(250 0)"/>
      </g>
     </g>
    </g>
    <g id="ytick_4">
     <g id="line2d_19">
      <path d="M 59.321094 202.679854 
L 626.378844 202.679854 
" clip-path="url(#p0594ff06f0)" style="fill: none; stroke-dasharray: 2.96,1.28; stroke-dashoffset: 0; stroke: #b0b0b0; stroke-opacity: 0.4; stroke-width: 0.8"/>
     </g>
     <g id="line2d_20">
      <g>
       <use xlink:href="#m5487e72fcb" x="59.321094" y="202.679854" style="stroke: #000000; stroke-width: 0.8"/>
      </g>
     </g>
     <g id="text_11">
      <!-- 0.0006 -->
      <g transform="translate(22.321094 206.117354) scale(0.1 -0.1)">
       <use xlink:href="#SimHei-30"/>
       <use xlink:href="#SimHei-2e" transform="translate(50 0)"/>
       <use xlink:href="#SimHei-30" transform="translate(100 0)"/>
       <use xlink:href="#SimHei-30" transform="translate(150 0)"/>
       <use xlink:href="#SimHei-30" transform="translate(200 0)"/>
       <use xlink:href="#SimHei-36" transform="translate(250 0)"/>
      </g>
     </g>
    </g>
    <g id="ytick_5">
     <g id="line2d_21">
      <path d="M 59.321094 129.831598 
L 626.378844 129.831598 
" clip-path="url(#p0594ff06f0)" style="fill: none; stroke-dasharray: 2.96,1.28; stroke-dashoffset: 0; stroke: #b0b0b0; stroke-opacity: 0.4; stroke-width: 0.8"/>
     </g>
     <g id="line2d_22">
      <g>
       <use xlink:href="#m5487e72fcb" x="59.321094" y="129.831598" style="stroke: #000000; stroke-width: 0.8"/>
      </g>
     </g>
     <g id="text_12">
      <!-- 0.0008 -->
      <g transform="translate(22.321094 133.269098) scale(0.1 -0.1)">
       <use xlink:href="#SimHei-30"/>
       <use xlink:href="#SimHei-2e" transform="translate(50 0)"/>
       <use xlink:href="#SimHei-30" transform="translate(100 0)"/>
       <use xlink:href="#SimHei-30" transform="translate(150 0)"/>
       <use xlink:href="#SimHei-30" transform="translate(200 0)"/>
       <use xlink:href="#SimHei-38" transform="translate(250 0)"/>
      </g>
     </g>
    </g>
    <g id="ytick_6">
     <g id="line2d_23">
      <path d="M 59.321094 56.983342 
L 626.378844 56.983342 
" clip-path="url(#p0594ff06f0)" style="fill: none; stroke-dasharray: 2.96,1.28; stroke-dashoffset: 0; stroke: #b0b0b0; stroke-opacity: 0.4; stroke-width: 0.8"/>
     </g>
     <g id="line2d_24">
      <g>
       <use xlink:href="#m5487e72fcb" x="59.321094" y="56.983342" style="stroke: #000000; stroke-width: 0.8"/>
      </g>
     </g>
     <g id="text_13">
      <!-- 0.0010 -->
      <g transform="translate(22.321094 60.420842) scale(0.1 -0.1)">
       <use xlink:href="#SimHei-30"/>
       <use xlink:href="#SimHei-2e" transform="translate(50 0)"/>
       <use xlink:href="#SimHei-30" transform="translate(100 0)"/>
       <use xlink:href="#SimHei-30" transform="translate(150 0)"/>
       <use xlink:href="#SimHei-31" transform="translate(200 0)"/>
       <use xlink:href="#SimHei-30" transform="translate(250 0)"/>
      </g>
     </g>
    </g>
    <g id="text_14">
     <!-- f(t) -->
     <g transform="translate(16.696094 258.78375) rotate(-90) scale(0.13 -0.13)">
      <defs>
       <path id="SimHei-66" d="M 2850 3825 
Q 2725 3900 2550 3950 
Q 2375 4000 2100 4000 
Q 1825 4000 1725 3862 
Q 1625 3725 1625 3525 
L 1625 2925 
L 2650 2925 
L 2650 2525 
L 1625 2525 
L 1625 125 
L 1125 125 
L 1125 2525 
L 275 2525 
L 275 2925 
L 1125 2925 
L 1125 3500 
Q 1125 3950 1400 4200 
Q 1675 4450 2125 4450 
Q 2400 4450 2562 4412 
Q 2725 4375 2850 4325 
L 2850 3825 
z
" transform="scale(0.015625)"/>
       <path id="SimHei-74" d="M 2750 200 
Q 2625 150 2462 112 
Q 2300 75 2025 75 
Q 1575 75 1300 325 
Q 1025 575 1025 1025 
L 1025 2525 
L 175 2525 
L 175 2925 
L 1025 2925 
L 1025 3900 
L 1525 3900 
L 1525 2925 
L 2550 2925 
L 2550 2525 
L 1525 2525 
L 1525 1000 
Q 1525 800 1625 662 
Q 1725 525 2000 525 
Q 2275 525 2450 575 
Q 2625 625 2750 700 
L 2750 200 
z
" transform="scale(0.015625)"/>
      </defs>
      <use xlink:href="#SimHei-66"/>
      <use xlink:href="#SimHei-28" transform="translate(50 0)"/>
      <use xlink:href="#SimHei-74" transform="translate(100 0)"/>
      <use xlink:href="#SimHei-29" transform="translate(150 0)"/>
     </g>
    </g>
   </g>
   <g id="line2d_25">
    <path d="M 85.096446 421.224622 
L 135.666707 421.116078 
L 150.631376 420.85338 
L 161.46786 420.457475 
L 170.756275 419.902688 
L 178.496621 419.232949 
L 185.720944 418.390781 
L 192.429244 417.379764 
L 198.621521 416.214462 
L 204.297775 414.919914 
L 209.458006 413.530367 
L 214.618236 411.915051 
L 219.778467 410.050823 
L 224.422675 408.140792 
L 229.066882 405.993026 
L 233.71109 403.590758 
L 238.355297 400.917895 
L 242.999505 397.959423 
L 247.12769 395.078969 
L 251.255874 391.954087 
L 255.384059 388.57832 
L 260.028266 384.475241 
L 264.672474 380.046401 
L 269.316681 375.293757 
L 273.960889 370.224708 
L 279.12112 364.238224 
L 284.28135 357.907366 
L 289.957604 350.595549 
L 296.665904 341.584894 
L 308.534435 325.168702 
L 316.790804 313.944464 
L 321.951034 307.276435 
L 326.595242 301.646394 
L 330.207404 297.584693 
L 333.819565 293.859502 
L 336.915703 290.975351 
L 340.011842 288.411895 
L 342.591957 286.54436 
L 345.172073 284.940582 
L 347.752188 283.6179 
L 350.332303 282.592508 
L 352.396396 281.996248 
L 354.460488 281.606612 
L 356.52458 281.429705 
L 358.588672 281.470817 
L 360.652765 281.734345 
L 362.716857 282.223726 
L 364.780949 282.941371 
L 366.845041 283.888605 
L 368.909134 285.065614 
L 370.973226 286.471398 
L 373.037318 288.103734 
L 375.617434 290.457338 
L 378.197549 293.149853 
L 380.777664 296.168614 
L 383.35778 299.497893 
L 386.453918 303.876361 
L 389.550056 308.637164 
L 393.162218 314.616836 
L 397.290402 321.917156 
L 402.450633 331.556673 
L 411.739048 349.546334 
L 418.447348 362.318187 
L 423.091556 370.728124 
L 427.21974 377.766009 
L 430.831902 383.516331 
L 434.444063 388.840157 
L 437.540202 393.040475 
L 440.63634 396.893093 
L 443.732479 400.393074 
L 446.828617 403.54187 
L 449.924755 406.346775 
L 453.020894 408.820242 
L 456.117032 410.979083 
L 459.213171 412.843612 
L 462.309309 414.436748 
L 465.405448 415.783127 
L 468.501586 416.908262 
L 472.113747 417.975433 
L 475.725909 418.815893 
L 479.854093 419.546571 
L 484.498301 420.135588 
L 490.174555 420.606906 
L 496.882855 420.926262 
L 506.17127 421.12703 
L 522.167985 421.214367 
L 600.603491 421.224622 
L 600.603491 421.224622 
" clip-path="url(#p0594ff06f0)" style="fill: none; stroke: #800080; stroke-width: 2; stroke-linecap: square"/>
   </g>
   <g id="line2d_26">
    <path d="M 85.096446 421.224622 
L 255.900082 421.122985 
L 260.544289 420.890538 
L 263.640428 420.535682 
L 266.220543 420.014827 
L 268.284635 419.373543 
L 270.348728 418.452635 
L 271.896797 417.523196 
L 273.444866 416.338216 
L 274.992935 414.845304 
L 276.541004 412.986261 
L 278.089074 410.697659 
L 279.637143 407.911763 
L 281.185212 404.557821 
L 282.733281 400.563722 
L 284.28135 395.85801 
L 285.82942 390.372217 
L 287.377489 384.043455 
L 288.925558 376.81719 
L 290.473627 368.650085 
L 292.021697 359.512819 
L 294.085789 345.801482 
L 296.149881 330.368627 
L 298.213973 313.305494 
L 300.794089 289.94016 
L 303.890227 259.570399 
L 313.694665 160.695679 
L 315.758758 142.482957 
L 317.82285 126.187915 
L 319.370919 115.457788 
L 320.918988 106.161889 
L 322.467058 98.415898 
L 323.499104 94.158655 
L 324.53115 90.651107 
L 325.563196 87.907958 
L 326.595242 85.938406 
L 327.111265 85.2451 
L 327.627288 84.746157 
L 328.143311 84.441193 
L 328.659334 84.329496 
L 329.175357 84.410025 
L 329.691381 84.681423 
L 330.207404 85.142021 
L 330.723427 85.789845 
L 331.755473 87.637815 
L 332.787519 90.203823 
L 333.819565 93.462124 
L 334.851611 97.383102 
L 336.39968 104.433846 
L 337.94775 112.776263 
L 339.495819 122.273943 
L 341.559911 136.48258 
L 344.140026 156.220708 
L 347.236165 181.87513 
L 357.556626 269.394103 
L 360.652765 293.026337 
L 363.23288 311.085255 
L 365.812995 327.501115 
L 367.877088 339.404736 
L 369.94118 350.211291 
L 372.005272 359.940721 
L 374.069364 368.63117 
L 376.133457 376.334844 
L 378.197549 383.114176 
L 380.261641 389.038381 
L 382.325733 394.180451 
L 384.389826 398.614628 
L 386.453918 402.41433 
L 388.51801 405.650534 
L 390.582103 408.390556 
L 392.646195 410.697205 
L 394.710287 412.628243 
L 396.774379 414.236111 
L 398.838472 415.567867 
L 400.902564 416.665295 
L 403.482679 417.763061 
L 406.062795 418.613189 
L 409.158933 419.377686 
L 412.771095 420.005097 
L 416.899279 420.476274 
L 422.05951 420.8263 
L 429.283833 421.065675 
L 441.152363 421.192333 
L 474.17784 421.224385 
L 600.603491 421.224622 
L 600.603491 421.224622 
" clip-path="url(#p0594ff06f0)" style="fill: none; stroke: #000000; stroke-width: 2; stroke-linecap: square"/>
   </g>
   <g id="line2d_27">
    <path d="M 85.096446 421.224622 
L 252.803943 421.121608 
L 258.480197 420.883195 
L 262.092359 420.532344 
L 265.188497 419.997778 
L 267.768612 419.293766 
L 269.832705 418.490731 
L 271.896797 417.404543 
L 273.444866 416.357055 
L 274.992935 415.067401 
L 276.541004 413.492182 
L 278.089074 411.583385 
L 279.637143 409.288632 
L 281.185212 406.551648 
L 282.733281 403.312951 
L 284.28135 399.510804 
L 285.82942 395.082437 
L 287.377489 389.965537 
L 288.925558 384.099995 
L 290.473627 377.429898 
L 292.021697 369.90571 
L 293.569766 361.48661 
L 295.633858 348.81962 
L 297.69795 334.478474 
L 299.762043 318.483435 
L 301.826135 300.915183 
L 304.40625 276.973433 
L 307.502389 245.941788 
L 317.82285 139.932649 
L 319.886942 121.716623 
L 321.951034 105.619612 
L 323.499104 95.195931 
L 325.047173 86.362337 
L 326.079219 81.423534 
L 327.111265 77.284038 
L 328.143311 73.970903 
L 329.175357 71.50511 
L 330.207404 69.901357 
L 330.723427 69.425583 
L 331.23945 69.167915 
L 331.755473 69.128375 
L 332.271496 69.306578 
L 332.787519 69.701741 
L 333.303542 70.312681 
L 333.819565 71.137823 
L 334.851611 73.422482 
L 335.883657 76.535525 
L 336.915703 80.45098 
L 337.94775 85.137454 
L 339.495819 93.531925 
L 341.043888 103.436645 
L 342.591957 114.690932 
L 344.656049 131.490897 
L 347.236165 154.747399 
L 350.848326 189.920605 
L 358.072649 260.995581 
L 361.168788 288.860354 
L 363.748903 310.045191 
L 365.812995 325.473318 
L 367.877088 339.47449 
L 369.94118 352.028252 
L 372.005272 363.154007 
L 374.069364 372.903768 
L 376.133457 381.354806 
L 377.681526 386.897718 
L 379.229595 391.808394 
L 380.777664 396.133966 
L 382.325733 399.922625 
L 383.873803 403.222553 
L 385.421872 406.081036 
L 386.969941 408.543738 
L 388.51801 410.654135 
L 390.06608 412.453095 
L 391.614149 413.978591 
L 393.678241 415.647087 
L 395.742333 416.965215 
L 397.806426 417.997291 
L 399.870518 418.798303 
L 402.450633 419.544484 
L 405.546772 420.160636 
L 409.158933 420.613601 
L 413.803141 420.935122 
L 420.511441 421.132514 
L 432.895994 421.215525 
L 503.075132 421.224622 
L 600.603491 421.224622 
L 600.603491 421.224622 
" clip-path="url(#p0594ff06f0)" style="fill: none; stroke: #ff0000; stroke-width: 2; stroke-linecap: square"/>
   </g>
   <g id="line2d_28">
    <path d="M 85.096446 421.224622 
L 246.611666 421.114921 
L 252.803943 420.888825 
L 256.932128 420.54899 
L 260.028266 420.110847 
L 262.608382 419.562197 
L 265.188497 418.77916 
L 267.252589 417.929263 
L 269.316681 416.82517 
L 271.380774 415.405606 
L 272.928843 414.091428 
L 274.476912 412.526123 
L 276.024981 410.672719 
L 277.573051 408.491235 
L 279.12112 405.938964 
L 280.669189 402.970884 
L 282.217258 399.540227 
L 283.765327 395.599199 
L 285.313397 391.099878 
L 286.861466 385.995273 
L 288.409535 380.240542 
L 289.957604 373.794374 
L 292.021697 364.062118 
L 294.085789 352.969968 
L 296.149881 340.478958 
L 298.213973 326.585042 
L 300.278066 311.325621 
L 302.858181 290.464582 
L 305.954319 263.19501 
L 310.082504 224.29198 
L 316.274781 165.677797 
L 318.854896 143.305091 
L 320.918988 127.088821 
L 322.983081 112.798923 
L 324.53115 103.565965 
L 326.079219 95.757887 
L 327.111265 91.402782 
L 328.143311 87.762863 
L 329.175357 84.862917 
L 330.207404 82.722815 
L 331.23945 81.357282 
L 331.755473 80.968132 
L 332.271496 80.775733 
L 332.787519 80.780412 
L 333.303542 80.982158 
L 333.819565 81.380613 
L 334.335588 81.975083 
L 335.367634 83.747585 
L 336.39968 86.28737 
L 337.431727 89.576921 
L 338.463773 93.593692 
L 339.495819 98.310369 
L 341.043888 106.627075 
L 342.591957 116.321998 
L 344.140026 127.253368 
L 346.204119 143.480712 
L 348.784234 165.857616 
L 352.396396 199.64003 
L 359.620718 267.989472 
L 362.716857 294.856277 
L 365.296972 315.307763 
L 367.361065 330.211008 
L 369.425157 343.737417 
L 371.489249 355.860972 
L 373.553341 366.595336 
L 375.617434 375.987189 
L 377.681526 384.109249 
L 379.229595 389.422211 
L 380.777664 394.116016 
L 382.325733 398.236929 
L 383.873803 401.832527 
L 385.421872 404.950584 
L 386.969941 407.638132 
L 388.51801 409.940685 
L 390.06608 411.901624 
L 391.614149 413.56174 
L 393.162218 414.95891 
L 395.22631 416.472414 
L 397.290402 417.653489 
L 399.354495 418.565719 
L 401.418587 419.263136 
L 403.998702 419.900908 
L 407.094841 420.414469 
L 410.707002 420.779592 
L 415.867233 421.044574 
L 423.607579 421.183044 
L 442.700433 421.22398 
L 600.603491 421.224622 
L 600.603491 421.224622 
" clip-path="url(#p0594ff06f0)" style="fill: none; stroke: #008000; stroke-width: 2; stroke-linecap: square"/>
   </g>
   <g id="line2d_29">
    <path d="M 85.096446 421.224622 
L 184.688898 421.116826 
L 194.493337 420.860543 
L 201.201636 420.466342 
L 206.361867 419.95488 
L 211.006075 419.271682 
L 215.134259 418.431539 
L 218.746421 417.473331 
L 222.358582 416.266736 
L 225.454721 415.004469 
L 228.550859 413.504787 
L 231.646997 411.742663 
L 234.743136 409.694294 
L 237.839274 407.3379 
L 240.935413 404.654548 
L 244.031551 401.62897 
L 247.12769 398.25034 
L 250.223828 394.512993 
L 253.319966 390.417033 
L 256.416105 385.968825 
L 260.028266 380.351733 
L 263.640428 374.305401 
L 267.768612 366.927719 
L 272.41282 358.1359 
L 278.605097 345.859218 
L 292.021697 319.052644 
L 296.665904 310.388574 
L 300.278066 304.083046 
L 303.890227 298.250719 
L 306.986365 293.687255 
L 309.566481 290.224967 
L 312.146596 287.095869 
L 314.726712 284.318859 
L 317.306827 281.909628 
L 319.370919 280.255478 
L 321.435011 278.849481 
L 323.499104 277.695035 
L 325.563196 276.794161 
L 327.627288 276.147515 
L 329.691381 275.754425 
L 331.755473 275.612929 
L 333.819565 275.719823 
L 335.883657 276.070725 
L 337.94775 276.660138 
L 340.011842 277.48152 
L 342.075934 278.527369 
L 344.140026 279.789304 
L 346.720142 281.656542 
L 349.300257 283.827578 
L 351.880372 286.281521 
L 354.976511 289.568576 
L 358.072649 293.191463 
L 361.684811 297.787975 
L 365.812995 303.448127 
L 370.457203 310.217971 
L 376.64948 319.682436 
L 395.742333 349.202033 
L 401.418587 357.402153 
L 406.578818 364.443436 
L 411.223025 370.396178 
L 415.35121 375.358525 
L 419.479394 379.998944 
L 423.607579 384.312008 
L 427.735764 388.297688 
L 431.863948 391.960567 
L 435.992133 395.309076 
L 440.120317 398.354756 
L 444.248502 401.111575 
L 448.376686 403.5953 
L 452.504871 405.822935 
L 456.633055 407.812228 
L 461.277263 409.787778 
L 465.921471 411.510158 
L 470.565678 413.004403 
L 475.725909 414.426306 
L 480.88614 415.627288 
L 486.562393 416.727465 
L 492.75467 417.703195 
L 499.46297 418.540836 
L 507.203316 419.279267 
L 515.975708 419.887781 
L 526.29617 420.376453 
L 539.196746 420.753767 
L 556.225508 421.014879 
L 582.026661 421.166836 
L 600.603491 421.202462 
L 600.603491 421.202462 
" clip-path="url(#p0594ff06f0)" style="fill: none; stroke: #ff00ff; stroke-width: 2; stroke-linecap: square"/>
   </g>
   <g id="line2d_30">
    <path d="M 251.434723 413.892053 
L 264.762061 329.679309 
L 271.521521 240.728642 
L 297.682407 374.588 
L 320.749394 368.332784 
L 342.288905 364.581955 
L 345.556962 47.897105 
L 345.746375 -1 
M 353.82178 -1 
L 359.981303 326.325617 
L 359.989537 -1 
M 373.966997 -1 
L 374.675859 337.201996 
L 386.865247 321.133022 
L 401.83043 339.698363 
L 420.208983 354.839891 
L 428.751062 278.395756 
" clip-path="url(#p0594ff06f0)" style="fill: none; stroke-dasharray: 5.55,2.4; stroke-dashoffset: 0; stroke: #1f77b4; stroke-opacity: 0.8; stroke-width: 1.5"/>
    <defs>
     <path id="m2c2435b315" d="M 0 3.5 
C 0.928211 3.5 1.81853 3.131218 2.474874 2.474874 
C 3.131218 1.81853 3.5 0.928211 3.5 0 
C 3.5 -0.928211 3.131218 -1.81853 2.474874 -2.474874 
C 1.81853 -3.131218 0.928211 -3.5 0 -3.5 
C -0.928211 -3.5 -1.81853 -3.131218 -2.474874 -2.474874 
C -3.131218 -1.81853 -3.5 -0.928211 -3.5 0 
C -3.5 0.928211 -3.131218 1.81853 -2.474874 2.474874 
C -1.81853 3.131218 -0.928211 3.5 0 3.5 
z
" style="stroke: #1f77b4; stroke-opacity: 0.8"/>
    </defs>
    <g clip-path="url(#p0594ff06f0)">
     <use xlink:href="#m2c2435b315" x="251.434723" y="413.892053" style="fill: #1f77b4; fill-opacity: 0.8; stroke: #1f77b4; stroke-opacity: 0.8"/>
     <use xlink:href="#m2c2435b315" x="264.762061" y="329.679309" style="fill: #1f77b4; fill-opacity: 0.8; stroke: #1f77b4; stroke-opacity: 0.8"/>
     <use xlink:href="#m2c2435b315" x="271.521521" y="240.728642" style="fill: #1f77b4; fill-opacity: 0.8; stroke: #1f77b4; stroke-opacity: 0.8"/>
     <use xlink:href="#m2c2435b315" x="297.682407" y="374.588" style="fill: #1f77b4; fill-opacity: 0.8; stroke: #1f77b4; stroke-opacity: 0.8"/>
     <use xlink:href="#m2c2435b315" x="320.749394" y="368.332784" style="fill: #1f77b4; fill-opacity: 0.8; stroke: #1f77b4; stroke-opacity: 0.8"/>
     <use xlink:href="#m2c2435b315" x="342.288905" y="364.581955" style="fill: #1f77b4; fill-opacity: 0.8; stroke: #1f77b4; stroke-opacity: 0.8"/>
     <use xlink:href="#m2c2435b315" x="345.556962" y="47.897105" style="fill: #1f77b4; fill-opacity: 0.8; stroke: #1f77b4; stroke-opacity: 0.8"/>
     <use xlink:href="#m2c2435b315" x="345.746375" y="-1" style="fill: #1f77b4; fill-opacity: 0.8; stroke: #1f77b4; stroke-opacity: 0.8"/>
     <use xlink:href="#m2c2435b315" x="353.82178" y="-1" style="fill: #1f77b4; fill-opacity: 0.8; stroke: #1f77b4; stroke-opacity: 0.8"/>
     <use xlink:href="#m2c2435b315" x="359.981303" y="326.325617" style="fill: #1f77b4; fill-opacity: 0.8; stroke: #1f77b4; stroke-opacity: 0.8"/>
     <use xlink:href="#m2c2435b315" x="359.989537" y="-1" style="fill: #1f77b4; fill-opacity: 0.8; stroke: #1f77b4; stroke-opacity: 0.8"/>
     <use xlink:href="#m2c2435b315" x="373.966997" y="-1" style="fill: #1f77b4; fill-opacity: 0.8; stroke: #1f77b4; stroke-opacity: 0.8"/>
     <use xlink:href="#m2c2435b315" x="374.675859" y="337.201996" style="fill: #1f77b4; fill-opacity: 0.8; stroke: #1f77b4; stroke-opacity: 0.8"/>
     <use xlink:href="#m2c2435b315" x="386.865247" y="321.133022" style="fill: #1f77b4; fill-opacity: 0.8; stroke: #1f77b4; stroke-opacity: 0.8"/>
     <use xlink:href="#m2c2435b315" x="401.83043" y="339.698363" style="fill: #1f77b4; fill-opacity: 0.8; stroke: #1f77b4; stroke-opacity: 0.8"/>
     <use xlink:href="#m2c2435b315" x="420.208983" y="354.839891" style="fill: #1f77b4; fill-opacity: 0.8; stroke: #1f77b4; stroke-opacity: 0.8"/>
     <use xlink:href="#m2c2435b315" x="428.751062" y="278.395756" style="fill: #1f77b4; fill-opacity: 0.8; stroke: #1f77b4; stroke-opacity: 0.8"/>
    </g>
   </g>
   <g id="line2d_31">
    <path d="M 251.434723 414.350338 
L 264.762061 335.400891 
L 271.521521 252.009641 
L 297.682407 377.502789 
L 320.749394 371.638524 
L 342.288905 368.122122 
L 345.556962 71.230074 
L 345.855413 -1 
M 353.292093 -1 
L 359.981303 332.256805 
L 359.990245 -1 
M 373.907998 -1 
L 374.675859 342.45341 
L 386.865247 327.388747 
L 401.83043 344.793754 
L 420.208983 358.988936 
L 428.751062 287.32256 
" clip-path="url(#p0594ff06f0)" style="fill: none; stroke-dasharray: 5.55,2.4; stroke-dashoffset: 0; stroke: #ff7f0e; stroke-opacity: 0.8; stroke-width: 1.5"/>
    <defs>
     <path id="md967249b30" d="M -3.5 3.5 
L 3.5 3.5 
L 3.5 -3.5 
L -3.5 -3.5 
z
" style="stroke: #ff7f0e; stroke-opacity: 0.8; stroke-linejoin: miter"/>
    </defs>
    <g clip-path="url(#p0594ff06f0)">
     <use xlink:href="#md967249b30" x="251.434723" y="414.350338" style="fill: #ff7f0e; fill-opacity: 0.8; stroke: #ff7f0e; stroke-opacity: 0.8; stroke-linejoin: miter"/>
     <use xlink:href="#md967249b30" x="264.762061" y="335.400891" style="fill: #ff7f0e; fill-opacity: 0.8; stroke: #ff7f0e; stroke-opacity: 0.8; stroke-linejoin: miter"/>
     <use xlink:href="#md967249b30" x="271.521521" y="252.009641" style="fill: #ff7f0e; fill-opacity: 0.8; stroke: #ff7f0e; stroke-opacity: 0.8; stroke-linejoin: miter"/>
     <use xlink:href="#md967249b30" x="297.682407" y="377.502789" style="fill: #ff7f0e; fill-opacity: 0.8; stroke: #ff7f0e; stroke-opacity: 0.8; stroke-linejoin: miter"/>
     <use xlink:href="#md967249b30" x="320.749394" y="371.638524" style="fill: #ff7f0e; fill-opacity: 0.8; stroke: #ff7f0e; stroke-opacity: 0.8; stroke-linejoin: miter"/>
     <use xlink:href="#md967249b30" x="342.288905" y="368.122122" style="fill: #ff7f0e; fill-opacity: 0.8; stroke: #ff7f0e; stroke-opacity: 0.8; stroke-linejoin: miter"/>
     <use xlink:href="#md967249b30" x="345.556962" y="71.230074" style="fill: #ff7f0e; fill-opacity: 0.8; stroke: #ff7f0e; stroke-opacity: 0.8; stroke-linejoin: miter"/>
     <use xlink:href="#md967249b30" x="345.855413" y="-1" style="fill: #ff7f0e; fill-opacity: 0.8; stroke: #ff7f0e; stroke-opacity: 0.8; stroke-linejoin: miter"/>
     <use xlink:href="#md967249b30" x="353.292093" y="-1" style="fill: #ff7f0e; fill-opacity: 0.8; stroke: #ff7f0e; stroke-opacity: 0.8; stroke-linejoin: miter"/>
     <use xlink:href="#md967249b30" x="359.981303" y="332.256805" style="fill: #ff7f0e; fill-opacity: 0.8; stroke: #ff7f0e; stroke-opacity: 0.8; stroke-linejoin: miter"/>
     <use xlink:href="#md967249b30" x="359.990245" y="-1" style="fill: #ff7f0e; fill-opacity: 0.8; stroke: #ff7f0e; stroke-opacity: 0.8; stroke-linejoin: miter"/>
     <use xlink:href="#md967249b30" x="373.907998" y="-1" style="fill: #ff7f0e; fill-opacity: 0.8; stroke: #ff7f0e; stroke-opacity: 0.8; stroke-linejoin: miter"/>
     <use xlink:href="#md967249b30" x="374.675859" y="342.45341" style="fill: #ff7f0e; fill-opacity: 0.8; stroke: #ff7f0e; stroke-opacity: 0.8; stroke-linejoin: miter"/>
     <use xlink:href="#md967249b30" x="386.865247" y="327.388747" style="fill: #ff7f0e; fill-opacity: 0.8; stroke: #ff7f0e; stroke-opacity: 0.8; stroke-linejoin: miter"/>
     <use xlink:href="#md967249b30" x="401.83043" y="344.793754" style="fill: #ff7f0e; fill-opacity: 0.8; stroke: #ff7f0e; stroke-opacity: 0.8; stroke-linejoin: miter"/>
     <use xlink:href="#md967249b30" x="420.208983" y="358.988936" style="fill: #ff7f0e; fill-opacity: 0.8; stroke: #ff7f0e; stroke-opacity: 0.8; stroke-linejoin: miter"/>
     <use xlink:href="#md967249b30" x="428.751062" y="287.32256" style="fill: #ff7f0e; fill-opacity: 0.8; stroke: #ff7f0e; stroke-opacity: 0.8; stroke-linejoin: miter"/>
    </g>
   </g>
   <g id="line2d_32">
    <path d="M 251.434723 416.225143 
L 264.762061 332.057109 
L 271.521521 245.416849 
L 297.682407 375.799341 
L 320.749394 369.706598 
L 342.288905 366.053194 
L 345.556962 57.593923 
L 345.78999 -1 
M 353.609905 -1 
L 359.981303 328.790527 
L 359.98982 -1 
M 373.943397 -1 
L 374.675859 339.384402 
L 386.865247 323.732804 
L 401.83043 341.815928 
L 420.208983 356.564169 
L 428.751062 282.105597 
" clip-path="url(#p0594ff06f0)" style="fill: none; stroke-dasharray: 5.55,2.4; stroke-dashoffset: 0; stroke: #2ca02c; stroke-opacity: 0.8; stroke-width: 1.5"/>
    <defs>
     <path id="mdb285cf174" d="M 0 -3.5 
L -3.5 3.5 
L 3.5 3.5 
z
" style="stroke: #2ca02c; stroke-opacity: 0.8; stroke-linejoin: miter"/>
    </defs>
    <g clip-path="url(#p0594ff06f0)">
     <use xlink:href="#mdb285cf174" x="251.434723" y="416.225143" style="fill: #2ca02c; fill-opacity: 0.8; stroke: #2ca02c; stroke-opacity: 0.8; stroke-linejoin: miter"/>
     <use xlink:href="#mdb285cf174" x="264.762061" y="332.057109" style="fill: #2ca02c; fill-opacity: 0.8; stroke: #2ca02c; stroke-opacity: 0.8; stroke-linejoin: miter"/>
     <use xlink:href="#mdb285cf174" x="271.521521" y="245.416849" style="fill: #2ca02c; fill-opacity: 0.8; stroke: #2ca02c; stroke-opacity: 0.8; stroke-linejoin: miter"/>
     <use xlink:href="#mdb285cf174" x="297.682407" y="375.799341" style="fill: #2ca02c; fill-opacity: 0.8; stroke: #2ca02c; stroke-opacity: 0.8; stroke-linejoin: miter"/>
     <use xlink:href="#mdb285cf174" x="320.749394" y="369.706598" style="fill: #2ca02c; fill-opacity: 0.8; stroke: #2ca02c; stroke-opacity: 0.8; stroke-linejoin: miter"/>
     <use xlink:href="#mdb285cf174" x="342.288905" y="366.053194" style="fill: #2ca02c; fill-opacity: 0.8; stroke: #2ca02c; stroke-opacity: 0.8; stroke-linejoin: miter"/>
     <use xlink:href="#mdb285cf174" x="345.556962" y="57.593923" style="fill: #2ca02c; fill-opacity: 0.8; stroke: #2ca02c; stroke-opacity: 0.8; stroke-linejoin: miter"/>
     <use xlink:href="#mdb285cf174" x="345.78999" y="-1" style="fill: #2ca02c; fill-opacity: 0.8; stroke: #2ca02c; stroke-opacity: 0.8; stroke-linejoin: miter"/>
     <use xlink:href="#mdb285cf174" x="353.609905" y="-1" style="fill: #2ca02c; fill-opacity: 0.8; stroke: #2ca02c; stroke-opacity: 0.8; stroke-linejoin: miter"/>
     <use xlink:href="#mdb285cf174" x="359.981303" y="328.790527" style="fill: #2ca02c; fill-opacity: 0.8; stroke: #2ca02c; stroke-opacity: 0.8; stroke-linejoin: miter"/>
     <use xlink:href="#mdb285cf174" x="359.98982" y="-1" style="fill: #2ca02c; fill-opacity: 0.8; stroke: #2ca02c; stroke-opacity: 0.8; stroke-linejoin: miter"/>
     <use xlink:href="#mdb285cf174" x="373.943397" y="-1" style="fill: #2ca02c; fill-opacity: 0.8; stroke: #2ca02c; stroke-opacity: 0.8; stroke-linejoin: miter"/>
     <use xlink:href="#mdb285cf174" x="374.675859" y="339.384402" style="fill: #2ca02c; fill-opacity: 0.8; stroke: #2ca02c; stroke-opacity: 0.8; stroke-linejoin: miter"/>
     <use xlink:href="#mdb285cf174" x="386.865247" y="323.732804" style="fill: #2ca02c; fill-opacity: 0.8; stroke: #2ca02c; stroke-opacity: 0.8; stroke-linejoin: miter"/>
     <use xlink:href="#mdb285cf174" x="401.83043" y="341.815928" style="fill: #2ca02c; fill-opacity: 0.8; stroke: #2ca02c; stroke-opacity: 0.8; stroke-linejoin: miter"/>
     <use xlink:href="#mdb285cf174" x="420.208983" y="356.564169" style="fill: #2ca02c; fill-opacity: 0.8; stroke: #2ca02c; stroke-opacity: 0.8; stroke-linejoin: miter"/>
     <use xlink:href="#mdb285cf174" x="428.751062" y="282.105597" style="fill: #2ca02c; fill-opacity: 0.8; stroke: #2ca02c; stroke-opacity: 0.8; stroke-linejoin: miter"/>
    </g>
   </g>
   <g id="patch_3">
    <path d="M 59.321094 457.64875 
L 59.321094 33.91875 
" style="fill: none; stroke: #000000; stroke-width: 0.8; stroke-linejoin: miter; stroke-linecap: square"/>
   </g>
   <g id="patch_4">
    <path d="M 626.378844 457.64875 
L 626.378844 33.91875 
" style="fill: none; stroke: #000000; stroke-width: 0.8; stroke-linejoin: miter; stroke-linecap: square"/>
   </g>
   <g id="patch_5">
    <path d="M 59.321094 457.64875 
L 626.378844 457.64875 
" style="fill: none; stroke: #000000; stroke-width: 0.8; stroke-linejoin: miter; stroke-linecap: square"/>
   </g>
   <g id="patch_6">
    <path d="M 59.321094 33.91875 
L 626.378844 33.91875 
" style="fill: none; stroke: #000000; stroke-width: 0.8; stroke-linejoin: miter; stroke-linecap: square"/>
   </g>
   <g id="text_15">
    <!-- Comprehensive Models Comparison: Probability Density Function (PDF) -->
    <g transform="translate(91.599969 18.91875) scale(0.15 -0.15)">
     <defs>
      <path id="SimHei-43" d="M 2975 1825 
Q 2950 875 2575 475 
Q 2200 75 1675 75 
Q 1075 75 650 562 
Q 225 1050 225 2125 
Q 225 3300 637 3875 
Q 1050 4450 1700 4450 
Q 2250 4450 2612 4037 
Q 2975 3625 2950 2875 
L 2400 2875 
Q 2400 3425 2225 3700 
Q 2050 3975 1700 3975 
Q 1300 3975 1062 3562 
Q 825 3150 825 2175 
Q 825 1275 1062 912 
Q 1300 550 1675 550 
Q 1950 550 2175 812 
Q 2400 1075 2400 1825 
L 2975 1825 
z
" transform="scale(0.015625)"/>
      <path id="SimHei-6f" d="M 2925 1525 
Q 2925 875 2525 475 
Q 2125 75 1575 75 
Q 1025 75 625 475 
Q 225 875 225 1525 
Q 225 2175 625 2575 
Q 1025 2975 1575 2975 
Q 2125 2975 2525 2575 
Q 2925 2175 2925 1525 
z
M 2375 1525 
Q 2375 2025 2125 2275 
Q 1875 2525 1575 2525 
Q 1275 2525 1025 2275 
Q 775 2025 775 1525 
Q 775 1025 1025 775 
Q 1275 525 1575 525 
Q 1875 525 2125 775 
Q 2375 1025 2375 1525 
z
" transform="scale(0.015625)"/>
      <path id="SimHei-70" d="M 2825 1525 
Q 2825 800 2475 425 
Q 2125 50 1625 50 
Q 1350 50 1150 162 
Q 950 275 800 500 
L 800 -800 
L 300 -800 
L 300 2925 
L 800 2925 
L 800 2550 
Q 950 2775 1150 2875 
Q 1350 2975 1625 2975 
Q 2125 2975 2475 2612 
Q 2825 2250 2825 1525 
z
M 2275 1525 
Q 2275 2000 2087 2262 
Q 1900 2525 1525 2525 
Q 1225 2525 1012 2262 
Q 800 2000 800 1525 
Q 800 1050 1012 775 
Q 1225 500 1525 500 
Q 1900 500 2087 775 
Q 2275 1050 2275 1525 
z
" transform="scale(0.015625)"/>
      <path id="SimHei-72" d="M 2500 2425 
Q 2025 2500 1700 2287 
Q 1375 2075 1150 1550 
L 1150 125 
L 650 125 
L 650 2925 
L 1150 2925 
L 1150 2200 
Q 1375 2600 1712 2787 
Q 2050 2975 2500 2975 
L 2500 2425 
z
" transform="scale(0.015625)"/>
      <path id="SimHei-6e" d="M 2800 125 
L 2300 125 
L 2300 1925 
Q 2300 2225 2150 2400 
Q 2000 2575 1750 2575 
Q 1425 2575 1137 2237 
Q 850 1900 850 1400 
L 850 125 
L 350 125 
L 350 2925 
L 850 2925 
L 850 2400 
Q 1050 2675 1287 2825 
Q 1525 2975 1900 2975 
Q 2350 2975 2575 2725 
Q 2800 2475 2800 2100 
L 2800 125 
z
" transform="scale(0.015625)"/>
      <path id="SimHei-73" d="M 2750 900 
Q 2750 500 2437 287 
Q 2125 75 1650 75 
Q 1050 75 725 312 
Q 400 550 400 1000 
L 900 1000 
Q 900 700 1112 600 
Q 1325 500 1625 500 
Q 1925 500 2075 612 
Q 2225 725 2225 900 
Q 2225 1025 2100 1150 
Q 1975 1275 1475 1350 
Q 900 1425 687 1637 
Q 475 1850 475 2200 
Q 475 2500 762 2737 
Q 1050 2975 1600 2975 
Q 2100 2975 2387 2750 
Q 2675 2525 2675 2150 
L 2175 2150 
Q 2175 2375 2012 2462 
Q 1850 2550 1600 2550 
Q 1275 2550 1137 2437 
Q 1000 2325 1000 2175 
Q 1000 2000 1125 1900 
Q 1250 1800 1650 1750 
Q 2300 1650 2525 1437 
Q 2750 1225 2750 900 
z
" transform="scale(0.015625)"/>
      <path id="SimHei-76" d="M 2875 2925 
L 1825 75 
L 1275 75 
L 225 2925 
L 750 2925 
L 1525 750 
L 1575 750 
L 2350 2925 
L 2875 2925 
z
" transform="scale(0.015625)"/>
      <path id="SimHei-4d" d="M 2925 125 
L 2425 125 
L 2425 3175 
L 2375 3175 
L 1775 125 
L 1375 125 
L 775 3175 
L 725 3175 
L 725 125 
L 225 125 
L 225 4400 
L 1000 4400 
L 1550 1575 
L 1600 1575 
L 2150 4400 
L 2925 4400 
L 2925 125 
z
" transform="scale(0.015625)"/>
      <path id="SimHei-64" d="M 2750 125 
L 2250 125 
L 2250 500 
Q 2100 275 1900 175 
Q 1700 75 1425 75 
Q 925 75 575 437 
Q 225 800 225 1525 
Q 225 2250 575 2625 
Q 925 3000 1425 3000 
Q 1700 3000 1900 2887 
Q 2100 2775 2250 2550 
L 2250 4400 
L 2750 4400 
L 2750 125 
z
M 2250 1525 
Q 2250 2000 2037 2275 
Q 1825 2550 1525 2550 
Q 1150 2550 962 2275 
Q 775 2000 775 1525 
Q 775 1050 962 787 
Q 1150 525 1525 525 
Q 1825 525 2037 787 
Q 2250 1050 2250 1525 
z
" transform="scale(0.015625)"/>
      <path id="SimHei-6c" d="M 1825 125 
L 1325 125 
L 1325 4400 
L 1825 4400 
L 1825 125 
z
" transform="scale(0.015625)"/>
      <path id="SimHei-61" d="M 2875 125 
L 2275 125 
Q 2225 175 2200 262 
Q 2175 350 2175 475 
Q 2000 275 1750 175 
Q 1500 75 1225 75 
Q 825 75 550 275 
Q 275 475 275 850 
Q 275 1225 525 1450 
Q 775 1675 1300 1750 
Q 1650 1800 1912 1875 
Q 2175 1950 2175 2075 
Q 2175 2225 2062 2375 
Q 1950 2525 1575 2525 
Q 1275 2525 1137 2412 
Q 1000 2300 950 2100 
L 400 2100 
Q 450 2500 762 2737 
Q 1075 2975 1575 2975 
Q 2125 2975 2400 2725 
Q 2675 2475 2675 2025 
L 2675 650 
Q 2675 500 2725 375 
Q 2775 250 2875 125 
z
M 2175 1050 
L 2175 1550 
Q 2025 1500 1887 1462 
Q 1750 1425 1425 1375 
Q 1050 1325 937 1200 
Q 825 1075 825 900 
Q 825 750 937 637 
Q 1050 525 1275 525 
Q 1500 525 1762 650 
Q 2025 775 2175 1050 
z
" transform="scale(0.015625)"/>
      <path id="SimHei-3a" d="M 1825 2425 
L 1250 2425 
L 1250 2975 
L 1825 2975 
L 1825 2425 
z
M 1825 125 
L 1250 125 
L 1250 675 
L 1825 675 
L 1825 125 
z
" transform="scale(0.015625)"/>
      <path id="SimHei-50" d="M 2950 3100 
Q 2950 2500 2600 2150 
Q 2250 1800 1625 1800 
L 900 1800 
L 900 125 
L 325 125 
L 325 4400 
L 1625 4400 
Q 2250 4400 2600 4050 
Q 2950 3700 2950 3100 
z
M 2375 3100 
Q 2375 3575 2150 3750 
Q 1925 3925 1475 3925 
L 900 3925 
L 900 2275 
L 1475 2275 
Q 1925 2275 2150 2450 
Q 2375 2625 2375 3100 
z
" transform="scale(0.015625)"/>
      <path id="SimHei-62" d="M 2825 1525 
Q 2825 800 2475 437 
Q 2125 75 1625 75 
Q 1350 75 1150 175 
Q 950 275 800 500 
L 800 125 
L 300 125 
L 300 4400 
L 800 4400 
L 800 2550 
Q 950 2775 1150 2887 
Q 1350 3000 1625 3000 
Q 2125 3000 2475 2625 
Q 2825 2250 2825 1525 
z
M 2275 1525 
Q 2275 2000 2087 2275 
Q 1900 2550 1525 2550 
Q 1225 2550 1012 2275 
Q 800 2000 800 1525 
Q 800 1050 1012 787 
Q 1225 525 1525 525 
Q 1900 525 2087 787 
Q 2275 1050 2275 1525 
z
" transform="scale(0.015625)"/>
      <path id="SimHei-79" d="M 2900 2925 
L 1750 -100 
Q 1650 -450 1450 -625 
Q 1250 -800 950 -800 
Q 825 -800 712 -787 
Q 600 -775 500 -725 
L 500 -225 
Q 600 -275 700 -300 
Q 800 -325 875 -325 
Q 1075 -325 1150 -262 
Q 1225 -200 1300 25 
L 200 2925 
L 750 2925 
L 1550 725 
L 1575 725 
L 2350 2925 
L 2900 2925 
z
" transform="scale(0.015625)"/>
      <path id="SimHei-44" d="M 2925 2250 
Q 2925 1100 2437 612 
Q 1950 125 1125 125 
L 275 125 
L 275 4400 
L 1125 4400 
Q 2050 4400 2487 3900 
Q 2925 3400 2925 2250 
z
M 2325 2250 
Q 2325 3175 2025 3550 
Q 1725 3925 1125 3925 
L 850 3925 
L 850 600 
L 1125 600 
Q 1725 600 2025 962 
Q 2325 1325 2325 2250 
z
" transform="scale(0.015625)"/>
      <path id="SimHei-46" d="M 2925 3925 
L 875 3925 
L 875 2525 
L 2425 2525 
L 2425 2050 
L 875 2050 
L 875 125 
L 300 125 
L 300 4400 
L 2925 4400 
L 2925 3925 
z
" transform="scale(0.015625)"/>
      <path id="SimHei-75" d="M 2800 125 
L 2300 125 
L 2300 650 
Q 2100 375 1862 225 
Q 1625 75 1250 75 
Q 800 75 575 325 
Q 350 575 350 950 
L 350 2925 
L 850 2925 
L 850 1125 
Q 850 825 1000 650 
Q 1150 475 1400 475 
Q 1725 475 2012 812 
Q 2300 1150 2300 1650 
L 2300 2925 
L 2800 2925 
L 2800 125 
z
" transform="scale(0.015625)"/>
      <path id="SimHei-63" d="M 2850 1250 
Q 2850 725 2487 400 
Q 2125 75 1575 75 
Q 1025 75 625 462 
Q 225 850 225 1525 
Q 225 2200 625 2587 
Q 1025 2975 1575 2975 
Q 2125 2975 2450 2687 
Q 2775 2400 2775 2000 
L 2225 2000 
Q 2200 2300 2012 2412 
Q 1825 2525 1575 2525 
Q 1275 2525 1025 2287 
Q 775 2050 775 1525 
Q 775 1000 1025 762 
Q 1275 525 1575 525 
Q 1900 525 2100 700 
Q 2300 875 2300 1250 
L 2850 1250 
z
" transform="scale(0.015625)"/>
     </defs>
     <use xlink:href="#SimHei-43"/>
     <use xlink:href="#SimHei-6f" transform="translate(50 0)"/>
     <use xlink:href="#SimHei-6d" transform="translate(100 0)"/>
     <use xlink:href="#SimHei-70" transform="translate(150 0)"/>
     <use xlink:href="#SimHei-72" transform="translate(200 0)"/>
     <use xlink:href="#SimHei-65" transform="translate(250 0)"/>
     <use xlink:href="#SimHei-68" transform="translate(300 0)"/>
     <use xlink:href="#SimHei-65" transform="translate(350 0)"/>
     <use xlink:href="#SimHei-6e" transform="translate(400 0)"/>
     <use xlink:href="#SimHei-73" transform="translate(450 0)"/>
     <use xlink:href="#SimHei-69" transform="translate(500 0)"/>
     <use xlink:href="#SimHei-76" transform="translate(550 0)"/>
     <use xlink:href="#SimHei-65" transform="translate(600 0)"/>
     <use xlink:href="#SimHei-20" transform="translate(650 0)"/>
     <use xlink:href="#SimHei-4d" transform="translate(700 0)"/>
     <use xlink:href="#SimHei-6f" transform="translate(750 0)"/>
     <use xlink:href="#SimHei-64" transform="translate(800 0)"/>
     <use xlink:href="#SimHei-65" transform="translate(850 0)"/>
     <use xlink:href="#SimHei-6c" transform="translate(900 0)"/>
     <use xlink:href="#SimHei-73" transform="translate(950 0)"/>
     <use xlink:href="#SimHei-20" transform="translate(1000 0)"/>
     <use xlink:href="#SimHei-43" transform="translate(1050 0)"/>
     <use xlink:href="#SimHei-6f" transform="translate(1100 0)"/>
     <use xlink:href="#SimHei-6d" transform="translate(1150 0)"/>
     <use xlink:href="#SimHei-70" transform="translate(1200 0)"/>
     <use xlink:href="#SimHei-61" transform="translate(1250 0)"/>
     <use xlink:href="#SimHei-72" transform="translate(1300 0)"/>
     <use xlink:href="#SimHei-69" transform="translate(1350 0)"/>
     <use xlink:href="#SimHei-73" transform="translate(1400 0)"/>
     <use xlink:href="#SimHei-6f" transform="translate(1450 0)"/>
     <use xlink:href="#SimHei-6e" transform="translate(1500 0)"/>
     <use xlink:href="#SimHei-3a" transform="translate(1550 0)"/>
     <use xlink:href="#SimHei-20" transform="translate(1600 0)"/>
     <use xlink:href="#SimHei-50" transform="translate(1650 0)"/>
     <use xlink:href="#SimHei-72" transform="translate(1700 0)"/>
     <use xlink:href="#SimHei-6f" transform="translate(1750 0)"/>
     <use xlink:href="#SimHei-62" transform="translate(1800 0)"/>
     <use xlink:href="#SimHei-61" transform="translate(1850 0)"/>
     <use xlink:href="#SimHei-62" transform="translate(1900 0)"/>
     <use xlink:href="#SimHei-69" transform="translate(1950 0)"/>
     <use xlink:href="#SimHei-6c" transform="translate(2000 0)"/>
     <use xlink:href="#SimHei-69" transform="translate(2050 0)"/>
     <use xlink:href="#SimHei-74" transform="translate(2100 0)"/>
     <use xlink:href="#SimHei-79" transform="translate(2150 0)"/>
     <use xlink:href="#SimHei-20" transform="translate(2200 0)"/>
     <use xlink:href="#SimHei-44" transform="translate(2250 0)"/>
     <use xlink:href="#SimHei-65" transform="translate(2300 0)"/>
     <use xlink:href="#SimHei-6e" transform="translate(2350 0)"/>
     <use xlink:href="#SimHei-73" transform="translate(2400 0)"/>
     <use xlink:href="#SimHei-69" transform="translate(2450 0)"/>
     <use xlink:href="#SimHei-74" transform="translate(2500 0)"/>
     <use xlink:href="#SimHei-79" transform="translate(2550 0)"/>
     <use xlink:href="#SimHei-20" transform="translate(2600 0)"/>
     <use xlink:href="#SimHei-46" transform="translate(2650 0)"/>
     <use xlink:href="#SimHei-75" transform="translate(2700 0)"/>
     <use xlink:href="#SimHei-6e" transform="translate(2750 0)"/>
     <use xlink:href="#SimHei-63" transform="translate(2800 0)"/>
     <use xlink:href="#SimHei-74" transform="translate(2850 0)"/>
     <use xlink:href="#SimHei-69" transform="translate(2900 0)"/>
     <use xlink:href="#SimHei-6f" transform="translate(2950 0)"/>
     <use xlink:href="#SimHei-6e" transform="translate(3000 0)"/>
     <use xlink:href="#SimHei-20" transform="translate(3050 0)"/>
     <use xlink:href="#SimHei-28" transform="translate(3100 0)"/>
     <use xlink:href="#SimHei-50" transform="translate(3150 0)"/>
     <use xlink:href="#SimHei-44" transform="translate(3200 0)"/>
     <use xlink:href="#SimHei-46" transform="translate(3250 0)"/>
     <use xlink:href="#SimHei-29" transform="translate(3300 0)"/>
    </g>
   </g>
   <g id="legend_1">
    <g id="patch_7">
     <path d="M 639.749421 160.2125 
L 845.449421 160.2125 
Q 847.649421 160.2125 847.649421 158.0125 
L 847.649421 41.61875 
Q 847.649421 39.41875 845.449421 39.41875 
L 639.749421 39.41875 
Q 637.549421 39.41875 637.549421 41.61875 
L 637.549421 158.0125 
Q 637.549421 160.2125 639.749421 160.2125 
z
" style="fill: #ffffff; opacity: 0.8; stroke: #cccccc; stroke-linejoin: miter"/>
    </g>
    <g id="line2d_33">
     <path d="M 641.949421 47.66875 
L 652.949421 47.66875 
L 663.949421 47.66875 
" style="fill: none; stroke: #800080; stroke-width: 2; stroke-linecap: square"/>
    </g>
    <g id="text_16">
     <!-- Parametric: Weibull -->
     <g transform="translate(672.749421 51.51875) scale(0.11 -0.11)">
      <defs>
       <path id="SimHei-57" d="M 3075 4400 
L 2525 75 
L 2025 75 
L 1575 3275 
L 1525 3275 
L 1075 75 
L 575 75 
L 25 4400 
L 575 4400 
L 850 1675 
L 900 1675 
L 1275 4400 
L 1825 4400 
L 2200 1675 
L 2250 1675 
L 2525 4400 
L 3075 4400 
z
" transform="scale(0.015625)"/>
      </defs>
      <use xlink:href="#SimHei-50"/>
      <use xlink:href="#SimHei-61" transform="translate(50 0)"/>
      <use xlink:href="#SimHei-72" transform="translate(100 0)"/>
      <use xlink:href="#SimHei-61" transform="translate(150 0)"/>
      <use xlink:href="#SimHei-6d" transform="translate(200 0)"/>
      <use xlink:href="#SimHei-65" transform="translate(250 0)"/>
      <use xlink:href="#SimHei-74" transform="translate(300 0)"/>
      <use xlink:href="#SimHei-72" transform="translate(350 0)"/>
      <use xlink:href="#SimHei-69" transform="translate(400 0)"/>
      <use xlink:href="#SimHei-63" transform="translate(450 0)"/>
      <use xlink:href="#SimHei-3a" transform="translate(500 0)"/>
      <use xlink:href="#SimHei-20" transform="translate(550 0)"/>
      <use xlink:href="#SimHei-57" transform="translate(600 0)"/>
      <use xlink:href="#SimHei-65" transform="translate(650 0)"/>
      <use xlink:href="#SimHei-69" transform="translate(700 0)"/>
      <use xlink:href="#SimHei-62" transform="translate(750 0)"/>
      <use xlink:href="#SimHei-75" transform="translate(800 0)"/>
      <use xlink:href="#SimHei-6c" transform="translate(850 0)"/>
      <use xlink:href="#SimHei-6c" transform="translate(900 0)"/>
     </g>
    </g>
    <g id="line2d_34">
     <path d="M 641.949421 62.24375 
L 652.949421 62.24375 
L 663.949421 62.24375 
" style="fill: none; stroke: #000000; stroke-width: 2; stroke-linecap: square"/>
    </g>
    <g id="text_17">
     <!-- Degradation: Wiener Process -->
     <g transform="translate(672.749421 66.09375) scale(0.11 -0.11)">
      <defs>
       <path id="SimHei-67" d="M 2975 2500 
Q 2800 2550 2637 2562 
Q 2475 2575 2300 2525 
Q 2375 2450 2425 2337 
Q 2475 2225 2475 2000 
Q 2475 1575 2187 1300 
Q 1900 1025 1475 1025 
Q 1375 1025 1212 1062 
Q 1050 1100 950 1150 
Q 875 1100 850 1050 
Q 825 1000 825 925 
Q 825 800 1000 737 
Q 1175 675 1625 675 
Q 2350 675 2612 475 
Q 2875 275 2875 -25 
Q 2875 -425 2487 -612 
Q 2100 -800 1575 -800 
Q 900 -800 575 -625 
Q 250 -450 250 -150 
Q 250 0 375 150 
Q 500 300 700 400 
Q 550 475 462 587 
Q 375 700 375 875 
Q 375 1025 487 1137 
Q 600 1250 750 1325 
Q 625 1450 550 1625 
Q 475 1800 475 2000 
Q 475 2425 762 2700 
Q 1050 2975 1475 2975 
Q 1700 2975 1862 2912 
Q 2025 2850 2150 2725 
Q 2350 2875 2550 2937 
Q 2750 3000 2975 2975 
L 2975 2500 
z
M 1975 2000 
Q 1975 2250 1850 2400 
Q 1725 2550 1475 2550 
Q 1225 2550 1100 2400 
Q 975 2250 975 2000 
Q 975 1750 1100 1600 
Q 1225 1450 1475 1450 
Q 1725 1450 1850 1600 
Q 1975 1750 1975 2000 
z
M 2400 -75 
Q 2400 25 2287 125 
Q 2175 225 1725 225 
Q 1625 225 1450 237 
Q 1275 250 1050 275 
Q 850 200 775 100 
Q 700 0 700 -100 
Q 700 -250 900 -350 
Q 1100 -450 1600 -450 
Q 2025 -450 2212 -337 
Q 2400 -225 2400 -75 
z
" transform="scale(0.015625)"/>
      </defs>
      <use xlink:href="#SimHei-44"/>
      <use xlink:href="#SimHei-65" transform="translate(50 0)"/>
      <use xlink:href="#SimHei-67" transform="translate(100 0)"/>
      <use xlink:href="#SimHei-72" transform="translate(150 0)"/>
      <use xlink:href="#SimHei-61" transform="translate(200 0)"/>
      <use xlink:href="#SimHei-64" transform="translate(250 0)"/>
      <use xlink:href="#SimHei-61" transform="translate(300 0)"/>
      <use xlink:href="#SimHei-74" transform="translate(350 0)"/>
      <use xlink:href="#SimHei-69" transform="translate(400 0)"/>
      <use xlink:href="#SimHei-6f" transform="translate(450 0)"/>
      <use xlink:href="#SimHei-6e" transform="translate(500 0)"/>
      <use xlink:href="#SimHei-3a" transform="translate(550 0)"/>
      <use xlink:href="#SimHei-20" transform="translate(600 0)"/>
      <use xlink:href="#SimHei-57" transform="translate(650 0)"/>
      <use xlink:href="#SimHei-69" transform="translate(700 0)"/>
      <use xlink:href="#SimHei-65" transform="translate(750 0)"/>
      <use xlink:href="#SimHei-6e" transform="translate(800 0)"/>
      <use xlink:href="#SimHei-65" transform="translate(850 0)"/>
      <use xlink:href="#SimHei-72" transform="translate(900 0)"/>
      <use xlink:href="#SimHei-20" transform="translate(950 0)"/>
      <use xlink:href="#SimHei-50" transform="translate(1000 0)"/>
      <use xlink:href="#SimHei-72" transform="translate(1050 0)"/>
      <use xlink:href="#SimHei-6f" transform="translate(1100 0)"/>
      <use xlink:href="#SimHei-63" transform="translate(1150 0)"/>
      <use xlink:href="#SimHei-65" transform="translate(1200 0)"/>
      <use xlink:href="#SimHei-73" transform="translate(1250 0)"/>
      <use xlink:href="#SimHei-73" transform="translate(1300 0)"/>
     </g>
    </g>
    <g id="line2d_35">
     <path d="M 641.949421 76.81875 
L 652.949421 76.81875 
L 663.949421 76.81875 
" style="fill: none; stroke: #ff0000; stroke-width: 2; stroke-linecap: square"/>
    </g>
    <g id="text_18">
     <!-- Degradation: Pure Gamma Process -->
     <g transform="translate(672.749421 80.66875) scale(0.11 -0.11)">
      <defs>
       <path id="SimHei-47" d="M 2850 75 
L 2425 75 
L 2350 425 
Q 2250 275 2037 175 
Q 1825 75 1575 75 
Q 1050 75 637 562 
Q 225 1050 225 2125 
Q 225 3300 600 3875 
Q 975 4450 1625 4450 
Q 2200 4450 2525 4025 
Q 2850 3600 2850 2925 
L 2300 2925 
Q 2300 3450 2125 3712 
Q 1950 3975 1625 3975 
Q 1225 3975 1025 3562 
Q 825 3150 825 2175 
Q 825 1250 1075 900 
Q 1325 550 1650 550 
Q 1975 550 2162 787 
Q 2350 1025 2350 1525 
L 2350 1800 
L 1575 1800 
L 1575 2275 
L 2850 2275 
L 2850 75 
z
" transform="scale(0.015625)"/>
      </defs>
      <use xlink:href="#SimHei-44"/>
      <use xlink:href="#SimHei-65" transform="translate(50 0)"/>
      <use xlink:href="#SimHei-67" transform="translate(100 0)"/>
      <use xlink:href="#SimHei-72" transform="translate(150 0)"/>
      <use xlink:href="#SimHei-61" transform="translate(200 0)"/>
      <use xlink:href="#SimHei-64" transform="translate(250 0)"/>
      <use xlink:href="#SimHei-61" transform="translate(300 0)"/>
      <use xlink:href="#SimHei-74" transform="translate(350 0)"/>
      <use xlink:href="#SimHei-69" transform="translate(400 0)"/>
      <use xlink:href="#SimHei-6f" transform="translate(450 0)"/>
      <use xlink:href="#SimHei-6e" transform="translate(500 0)"/>
      <use xlink:href="#SimHei-3a" transform="translate(550 0)"/>
      <use xlink:href="#SimHei-20" transform="translate(600 0)"/>
      <use xlink:href="#SimHei-50" transform="translate(650 0)"/>
      <use xlink:href="#SimHei-75" transform="translate(700 0)"/>
      <use xlink:href="#SimHei-72" transform="translate(750 0)"/>
      <use xlink:href="#SimHei-65" transform="translate(800 0)"/>
      <use xlink:href="#SimHei-20" transform="translate(850 0)"/>
      <use xlink:href="#SimHei-47" transform="translate(900 0)"/>
      <use xlink:href="#SimHei-61" transform="translate(950 0)"/>
      <use xlink:href="#SimHei-6d" transform="translate(1000 0)"/>
      <use xlink:href="#SimHei-6d" transform="translate(1050 0)"/>
      <use xlink:href="#SimHei-61" transform="translate(1100 0)"/>
      <use xlink:href="#SimHei-20" transform="translate(1150 0)"/>
      <use xlink:href="#SimHei-50" transform="translate(1200 0)"/>
      <use xlink:href="#SimHei-72" transform="translate(1250 0)"/>
      <use xlink:href="#SimHei-6f" transform="translate(1300 0)"/>
      <use xlink:href="#SimHei-63" transform="translate(1350 0)"/>
      <use xlink:href="#SimHei-65" transform="translate(1400 0)"/>
      <use xlink:href="#SimHei-73" transform="translate(1450 0)"/>
      <use xlink:href="#SimHei-73" transform="translate(1500 0)"/>
     </g>
    </g>
    <g id="line2d_36">
     <path d="M 641.949421 91.39375 
L 652.949421 91.39375 
L 663.949421 91.39375 
" style="fill: none; stroke: #008000; stroke-width: 2; stroke-linecap: square"/>
    </g>
    <g id="text_19">
     <!-- Degradation: Inverse Gaussian -->
     <g transform="translate(672.749421 95.24375) scale(0.11 -0.11)">
      <defs>
       <path id="SimHei-49" d="M 1850 125 
L 1275 125 
L 1275 4400 
L 1850 4400 
L 1850 125 
z
" transform="scale(0.015625)"/>
      </defs>
      <use xlink:href="#SimHei-44"/>
      <use xlink:href="#SimHei-65" transform="translate(50 0)"/>
      <use xlink:href="#SimHei-67" transform="translate(100 0)"/>
      <use xlink:href="#SimHei-72" transform="translate(150 0)"/>
      <use xlink:href="#SimHei-61" transform="translate(200 0)"/>
      <use xlink:href="#SimHei-64" transform="translate(250 0)"/>
      <use xlink:href="#SimHei-61" transform="translate(300 0)"/>
      <use xlink:href="#SimHei-74" transform="translate(350 0)"/>
      <use xlink:href="#SimHei-69" transform="translate(400 0)"/>
      <use xlink:href="#SimHei-6f" transform="translate(450 0)"/>
      <use xlink:href="#SimHei-6e" transform="translate(500 0)"/>
      <use xlink:href="#SimHei-3a" transform="translate(550 0)"/>
      <use xlink:href="#SimHei-20" transform="translate(600 0)"/>
      <use xlink:href="#SimHei-49" transform="translate(650 0)"/>
      <use xlink:href="#SimHei-6e" transform="translate(700 0)"/>
      <use xlink:href="#SimHei-76" transform="translate(750 0)"/>
      <use xlink:href="#SimHei-65" transform="translate(800 0)"/>
      <use xlink:href="#SimHei-72" transform="translate(850 0)"/>
      <use xlink:href="#SimHei-73" transform="translate(900 0)"/>
      <use xlink:href="#SimHei-65" transform="translate(950 0)"/>
      <use xlink:href="#SimHei-20" transform="translate(1000 0)"/>
      <use xlink:href="#SimHei-47" transform="translate(1050 0)"/>
      <use xlink:href="#SimHei-61" transform="translate(1100 0)"/>
      <use xlink:href="#SimHei-75" transform="translate(1150 0)"/>
      <use xlink:href="#SimHei-73" transform="translate(1200 0)"/>
      <use xlink:href="#SimHei-73" transform="translate(1250 0)"/>
      <use xlink:href="#SimHei-69" transform="translate(1300 0)"/>
      <use xlink:href="#SimHei-61" transform="translate(1350 0)"/>
      <use xlink:href="#SimHei-6e" transform="translate(1400 0)"/>
     </g>
    </g>
    <g id="line2d_37">
     <path d="M 641.949421 105.96875 
L 652.949421 105.96875 
L 663.949421 105.96875 
" style="fill: none; stroke: #ff00ff; stroke-width: 2; stroke-linecap: square"/>
    </g>
    <g id="text_20">
     <!-- Degradation: RE-Gamma Process -->
     <g transform="translate(672.749421 109.81875) scale(0.11 -0.11)">
      <defs>
       <path id="SimHei-52" d="M 3000 125 
L 2400 125 
L 1500 1975 
L 850 1975 
L 850 125 
L 275 125 
L 275 4400 
L 1525 4400 
Q 2125 4400 2500 4112 
Q 2875 3825 2875 3175 
Q 2875 2675 2625 2400 
Q 2375 2125 2050 2050 
L 3000 125 
z
M 2300 3175 
Q 2300 3525 2087 3725 
Q 1875 3925 1400 3925 
L 850 3925 
L 850 2450 
L 1550 2450 
Q 1850 2450 2075 2612 
Q 2300 2775 2300 3175 
z
" transform="scale(0.015625)"/>
       <path id="SimHei-45" d="M 2900 125 
L 350 125 
L 350 4400 
L 2775 4400 
L 2775 3925 
L 925 3925 
L 925 2600 
L 2625 2600 
L 2625 2125 
L 925 2125 
L 925 600 
L 2900 600 
L 2900 125 
z
" transform="scale(0.015625)"/>
       <path id="SimHei-2d" d="M 2975 2125 
L 125 2125 
L 125 2525 
L 2975 2525 
L 2975 2125 
z
" transform="scale(0.015625)"/>
      </defs>
      <use xlink:href="#SimHei-44"/>
      <use xlink:href="#SimHei-65" transform="translate(50 0)"/>
      <use xlink:href="#SimHei-67" transform="translate(100 0)"/>
      <use xlink:href="#SimHei-72" transform="translate(150 0)"/>
      <use xlink:href="#SimHei-61" transform="translate(200 0)"/>
      <use xlink:href="#SimHei-64" transform="translate(250 0)"/>
      <use xlink:href="#SimHei-61" transform="translate(300 0)"/>
      <use xlink:href="#SimHei-74" transform="translate(350 0)"/>
      <use xlink:href="#SimHei-69" transform="translate(400 0)"/>
      <use xlink:href="#SimHei-6f" transform="translate(450 0)"/>
      <use xlink:href="#SimHei-6e" transform="translate(500 0)"/>
      <use xlink:href="#SimHei-3a" transform="translate(550 0)"/>
      <use xlink:href="#SimHei-20" transform="translate(600 0)"/>
      <use xlink:href="#SimHei-52" transform="translate(650 0)"/>
      <use xlink:href="#SimHei-45" transform="translate(700 0)"/>
      <use xlink:href="#SimHei-2d" transform="translate(750 0)"/>
      <use xlink:href="#SimHei-47" transform="translate(800 0)"/>
      <use xlink:href="#SimHei-61" transform="translate(850 0)"/>
      <use xlink:href="#SimHei-6d" transform="translate(900 0)"/>
      <use xlink:href="#SimHei-6d" transform="translate(950 0)"/>
      <use xlink:href="#SimHei-61" transform="translate(1000 0)"/>
      <use xlink:href="#SimHei-20" transform="translate(1050 0)"/>
      <use xlink:href="#SimHei-50" transform="translate(1100 0)"/>
      <use xlink:href="#SimHei-72" transform="translate(1150 0)"/>
      <use xlink:href="#SimHei-6f" transform="translate(1200 0)"/>
      <use xlink:href="#SimHei-63" transform="translate(1250 0)"/>
      <use xlink:href="#SimHei-65" transform="translate(1300 0)"/>
      <use xlink:href="#SimHei-73" transform="translate(1350 0)"/>
      <use xlink:href="#SimHei-73" transform="translate(1400 0)"/>
     </g>
    </g>
    <g id="line2d_38">
     <path d="M 641.949421 121.4375 
L 652.949421 121.4375 
L 663.949421 121.4375 
" style="fill: none; stroke-dasharray: 5.55,2.4; stroke-dashoffset: 0; stroke: #1f77b4; stroke-opacity: 0.8; stroke-width: 1.5"/>
     <g>
      <use xlink:href="#m2c2435b315" x="652.949421" y="121.4375" style="fill: #1f77b4; fill-opacity: 0.8; stroke: #1f77b4; stroke-opacity: 0.8"/>
     </g>
    </g>
    <g id="text_21">
     <!-- Empirical: Simple (i/n) -->
     <g transform="translate(672.749421 125.2875) scale(0.11 -0.11)">
      <defs>
       <path id="SimHei-53" d="M 2900 1325 
Q 2900 750 2537 412 
Q 2175 75 1550 75 
Q 925 75 575 425 
Q 225 775 225 1300 
L 225 1475 
L 800 1475 
L 800 1325 
Q 800 950 1025 750 
Q 1250 550 1550 550 
Q 1950 550 2137 762 
Q 2325 975 2325 1275 
Q 2325 1525 2100 1737 
Q 1875 1950 1450 2125 
Q 850 2350 587 2625 
Q 325 2900 325 3275 
Q 325 3800 687 4125 
Q 1050 4450 1550 4450 
Q 2200 4450 2487 4062 
Q 2775 3675 2775 3225 
L 2200 3225 
Q 2225 3500 2050 3725 
Q 1875 3950 1550 3950 
Q 1250 3950 1075 3787 
Q 900 3625 900 3350 
Q 900 3125 1037 2962 
Q 1175 2800 1750 2575 
Q 2300 2350 2600 2037 
Q 2900 1725 2900 1325 
z
" transform="scale(0.015625)"/>
       <path id="SimHei-2f" d="M 3000 4550 
L 350 -175 
L 100 -25 
L 2750 4700 
L 3000 4550 
z
" transform="scale(0.015625)"/>
      </defs>
      <use xlink:href="#SimHei-45"/>
      <use xlink:href="#SimHei-6d" transform="translate(50 0)"/>
      <use xlink:href="#SimHei-70" transform="translate(100 0)"/>
      <use xlink:href="#SimHei-69" transform="translate(150 0)"/>
      <use xlink:href="#SimHei-72" transform="translate(200 0)"/>
      <use xlink:href="#SimHei-69" transform="translate(250 0)"/>
      <use xlink:href="#SimHei-63" transform="translate(300 0)"/>
      <use xlink:href="#SimHei-61" transform="translate(350 0)"/>
      <use xlink:href="#SimHei-6c" transform="translate(400 0)"/>
      <use xlink:href="#SimHei-3a" transform="translate(450 0)"/>
      <use xlink:href="#SimHei-20" transform="translate(500 0)"/>
      <use xlink:href="#SimHei-53" transform="translate(550 0)"/>
      <use xlink:href="#SimHei-69" transform="translate(600 0)"/>
      <use xlink:href="#SimHei-6d" transform="translate(650 0)"/>
      <use xlink:href="#SimHei-70" transform="translate(700 0)"/>
      <use xlink:href="#SimHei-6c" transform="translate(750 0)"/>
      <use xlink:href="#SimHei-65" transform="translate(800 0)"/>
      <use xlink:href="#SimHei-20" transform="translate(850 0)"/>
      <use xlink:href="#SimHei-28" transform="translate(900 0)"/>
      <use xlink:href="#SimHei-69" transform="translate(950 0)"/>
      <use xlink:href="#SimHei-2f" transform="translate(1000 0)"/>
      <use xlink:href="#SimHei-6e" transform="translate(1050 0)"/>
      <use xlink:href="#SimHei-29" transform="translate(1100 0)"/>
     </g>
    </g>
    <g id="line2d_39">
     <path d="M 641.949421 136.0125 
L 652.949421 136.0125 
L 663.949421 136.0125 
" style="fill: none; stroke-dasharray: 5.55,2.4; stroke-dashoffset: 0; stroke: #ff7f0e; stroke-opacity: 0.8; stroke-width: 1.5"/>
     <g>
      <use xlink:href="#md967249b30" x="652.949421" y="136.0125" style="fill: #ff7f0e; fill-opacity: 0.8; stroke: #ff7f0e; stroke-opacity: 0.8; stroke-linejoin: miter"/>
     </g>
    </g>
    <g id="text_22">
     <!-- Empirical: Mean Rank -->
     <g transform="translate(672.749421 139.8625) scale(0.11 -0.11)">
      <defs>
       <path id="SimHei-6b" d="M 2925 125 
L 2350 125 
L 1450 1650 
L 875 1100 
L 875 125 
L 375 125 
L 375 4400 
L 875 4400 
L 875 1675 
L 2125 2925 
L 2750 2925 
L 1775 1975 
L 2925 125 
z
" transform="scale(0.015625)"/>
      </defs>
      <use xlink:href="#SimHei-45"/>
      <use xlink:href="#SimHei-6d" transform="translate(50 0)"/>
      <use xlink:href="#SimHei-70" transform="translate(100 0)"/>
      <use xlink:href="#SimHei-69" transform="translate(150 0)"/>
      <use xlink:href="#SimHei-72" transform="translate(200 0)"/>
      <use xlink:href="#SimHei-69" transform="translate(250 0)"/>
      <use xlink:href="#SimHei-63" transform="translate(300 0)"/>
      <use xlink:href="#SimHei-61" transform="translate(350 0)"/>
      <use xlink:href="#SimHei-6c" transform="translate(400 0)"/>
      <use xlink:href="#SimHei-3a" transform="translate(450 0)"/>
      <use xlink:href="#SimHei-20" transform="translate(500 0)"/>
      <use xlink:href="#SimHei-4d" transform="translate(550 0)"/>
      <use xlink:href="#SimHei-65" transform="translate(600 0)"/>
      <use xlink:href="#SimHei-61" transform="translate(650 0)"/>
      <use xlink:href="#SimHei-6e" transform="translate(700 0)"/>
      <use xlink:href="#SimHei-20" transform="translate(750 0)"/>
      <use xlink:href="#SimHei-52" transform="translate(800 0)"/>
      <use xlink:href="#SimHei-61" transform="translate(850 0)"/>
      <use xlink:href="#SimHei-6e" transform="translate(900 0)"/>
      <use xlink:href="#SimHei-6b" transform="translate(950 0)"/>
     </g>
    </g>
    <g id="line2d_40">
     <path d="M 641.949421 150.5875 
L 652.949421 150.5875 
L 663.949421 150.5875 
" style="fill: none; stroke-dasharray: 5.55,2.4; stroke-dashoffset: 0; stroke: #2ca02c; stroke-opacity: 0.8; stroke-width: 1.5"/>
     <g>
      <use xlink:href="#mdb285cf174" x="652.949421" y="150.5875" style="fill: #2ca02c; fill-opacity: 0.8; stroke: #2ca02c; stroke-opacity: 0.8; stroke-linejoin: miter"/>
     </g>
    </g>
    <g id="text_23">
     <!-- Empirical: Median Rank -->
     <g transform="translate(672.749421 154.4375) scale(0.11 -0.11)">
      <use xlink:href="#SimHei-45"/>
      <use xlink:href="#SimHei-6d" transform="translate(50 0)"/>
      <use xlink:href="#SimHei-70" transform="translate(100 0)"/>
      <use xlink:href="#SimHei-69" transform="translate(150 0)"/>
      <use xlink:href="#SimHei-72" transform="translate(200 0)"/>
      <use xlink:href="#SimHei-69" transform="translate(250 0)"/>
      <use xlink:href="#SimHei-63" transform="translate(300 0)"/>
      <use xlink:href="#SimHei-61" transform="translate(350 0)"/>
      <use xlink:href="#SimHei-6c" transform="translate(400 0)"/>
      <use xlink:href="#SimHei-3a" transform="translate(450 0)"/>
      <use xlink:href="#SimHei-20" transform="translate(500 0)"/>
      <use xlink:href="#SimHei-4d" transform="translate(550 0)"/>
      <use xlink:href="#SimHei-65" transform="translate(600 0)"/>
      <use xlink:href="#SimHei-64" transform="translate(650 0)"/>
      <use xlink:href="#SimHei-69" transform="translate(700 0)"/>
      <use xlink:href="#SimHei-61" transform="translate(750 0)"/>
      <use xlink:href="#SimHei-6e" transform="translate(800 0)"/>
      <use xlink:href="#SimHei-20" transform="translate(850 0)"/>
      <use xlink:href="#SimHei-52" transform="translate(900 0)"/>
      <use xlink:href="#SimHei-61" transform="translate(950 0)"/>
      <use xlink:href="#SimHei-6e" transform="translate(1000 0)"/>
      <use xlink:href="#SimHei-6b" transform="translate(1050 0)"/>
     </g>
    </g>
   </g>
  </g>
 </g>
 <defs>
  <clipPath id="p0594ff06f0">
   <rect x="59.321094" y="33.91875" width="567.05775" height="423.73"/>
  </clipPath>
 </defs>
</svg>
