<?xml version="1.0" encoding="utf-8" standalone="no"?>
<!DOCTYPE svg PUBLIC "-//W3C//DTD SVG 1.1//EN"
  "http://www.w3.org/Graphics/SVG/1.1/DTD/svg11.dtd">
<svg xmlns:xlink="http://www.w3.org/1999/xlink" width="707.694844pt" height="419.962344pt" viewBox="0 0 707.694844 419.962344" xmlns="http://www.w3.org/2000/svg" version="1.1">
 <metadata>
  <rdf:RDF xmlns:dc="http://purl.org/dc/elements/1.1/" xmlns:cc="http://creativecommons.org/ns#" xmlns:rdf="http://www.w3.org/1999/02/22-rdf-syntax-ns#">
   <cc:Work>
    <dc:type rdf:resource="http://purl.org/dc/dcmitype/StillImage"/>
    <dc:date>2026-03-22T23:58:27.957569</dc:date>
    <dc:format>image/svg+xml</dc:format>
    <dc:creator>
     <cc:Agent>
      <dc:title>Matplotlib v3.10.8, https://matplotlib.org/</dc:title>
     </cc:Agent>
    </dc:creator>
   </cc:Work>
  </rdf:RDF>
 </metadata>
 <defs>
  <style type="text/css">*{stroke-linejoin: round; stroke-linecap: butt}</style>
 </defs>
 <g id="figure_1">
  <g id="patch_1">
   <path d="M 0 419.962344 
L 707.694844 419.962344 
L 707.694844 0 
L 0 0 
z
" style="fill: #ffffff"/>
  </g>
  <g id="axes_1">
   <g id="patch_2">
    <path d="M 48.321094 379.20375 
L 700.494844 379.20375 
L 700.494844 7.2 
L 48.321094 7.2 
z
" style="fill: #ffffff"/>
   </g>
   <g id="matplotlib.axis_1">
    <g id="xtick_1">
     <g id="line2d_1">
      <path d="M 77.90757 379.20375 
L 77.90757 7.2 
" clip-path="url(#pb28d974ce5)" style="fill: none; stroke-dasharray: 3.7,1.6; stroke-dashoffset: 0; stroke: #cccccc; stroke-opacity: 0.4"/>
     </g>
     <g id="text_1">
      <!-- 0 -->
      <g style="fill: #262626" transform="translate(75.15757 396.26625) scale(0.11 -0.11)">
       <defs>
        <path id="SimHei-30" d="M 225 2537 
Q 250 3200 412 3587 
Q 575 3975 875 4225 
Q 1175 4475 1612 4475 
Q 2050 4475 2375 4112 
Q 2700 3750 2800 3200 
Q 2900 2650 2862 1937 
Q 2825 1225 2612 775 
Q 2400 325 1975 150 
Q 1550 -25 1125 187 
Q 700 400 525 750 
Q 350 1100 275 1487 
Q 200 1875 225 2537 
z
M 750 2687 
Q 675 2000 800 1462 
Q 925 925 1212 700 
Q 1500 475 1800 612 
Q 2100 750 2237 1162 
Q 2375 1575 2375 2062 
Q 2375 2550 2337 2950 
Q 2300 3350 2112 3675 
Q 1925 4000 1612 4012 
Q 1300 4025 1062 3700 
Q 825 3375 750 2687 
z
" transform="scale(0.015625)"/>
       </defs>
       <use xlink:href="#SimHei-30"/>
      </g>
     </g>
    </g>
    <g id="xtick_2">
     <g id="line2d_2">
      <path d="M 193.478245 379.20375 
L 193.478245 7.2 
" clip-path="url(#pb28d974ce5)" style="fill: none; stroke-dasharray: 3.7,1.6; stroke-dashoffset: 0; stroke: #cccccc; stroke-opacity: 0.4"/>
     </g>
     <g id="text_2">
      <!-- 2000 -->
      <g style="fill: #262626" transform="translate(182.478245 396.26625) scale(0.11 -0.11)">
       <defs>
        <path id="SimHei-32" d="M 300 250 
Q 325 625 650 925 
Q 975 1225 1475 1862 
Q 1975 2500 2125 2850 
Q 2275 3200 2237 3450 
Q 2200 3700 2000 3862 
Q 1800 4025 1537 4000 
Q 1275 3975 1037 3800 
Q 800 3625 675 3275 
L 200 3350 
Q 400 3925 712 4187 
Q 1025 4450 1450 4475 
Q 1700 4500 1900 4462 
Q 2100 4425 2312 4287 
Q 2525 4150 2662 3875 
Q 2800 3600 2762 3212 
Q 2725 2825 2375 2287 
Q 2025 1750 1025 600 
L 2825 600 
L 2825 150 
L 300 150 
L 300 250 
z
" transform="scale(0.015625)"/>
       </defs>
       <use xlink:href="#SimHei-32"/>
       <use xlink:href="#SimHei-30" transform="translate(50 0)"/>
       <use xlink:href="#SimHei-30" transform="translate(100 0)"/>
       <use xlink:href="#SimHei-30" transform="translate(150 0)"/>
      </g>
     </g>
    </g>
    <g id="xtick_3">
     <g id="line2d_3">
      <path d="M 309.04892 379.20375 
L 309.04892 7.2 
" clip-path="url(#pb28d974ce5)" style="fill: none; stroke-dasharray: 3.7,1.6; stroke-dashoffset: 0; stroke: #cccccc; stroke-opacity: 0.4"/>
     </g>
     <g id="text_3">
      <!-- 4000 -->
      <g style="fill: #262626" transform="translate(298.04892 396.26625) scale(0.11 -0.11)">
       <defs>
        <path id="SimHei-34" d="M 2000 1100 
L 75 1100 
L 75 1525 
L 2100 4450 
L 2475 4450 
L 2475 1525 
L 3075 1525 
L 3075 1100 
L 2475 1100 
L 2475 150 
L 2000 150 
L 2000 1100 
z
M 2000 1525 
L 2000 3500 
L 600 1525 
L 2000 1525 
z
" transform="scale(0.015625)"/>
       </defs>
       <use xlink:href="#SimHei-34"/>
       <use xlink:href="#SimHei-30" transform="translate(50 0)"/>
       <use xlink:href="#SimHei-30" transform="translate(100 0)"/>
       <use xlink:href="#SimHei-30" transform="translate(150 0)"/>
      </g>
     </g>
    </g>
    <g id="xtick_4">
     <g id="line2d_4">
      <path d="M 424.619595 379.20375 
L 424.619595 7.2 
" clip-path="url(#pb28d974ce5)" style="fill: none; stroke-dasharray: 3.7,1.6; stroke-dashoffset: 0; stroke: #cccccc; stroke-opacity: 0.4"/>
     </g>
     <g id="text_4">
      <!-- 6000 -->
      <g style="fill: #262626" transform="translate(413.619595 396.26625) scale(0.11 -0.11)">
       <defs>
        <path id="SimHei-36" d="M 250 1612 
Q 275 1975 387 2225 
Q 500 2475 725 2850 
L 1750 4450 
L 2325 4450 
L 1275 2800 
Q 1950 2975 2350 2750 
Q 2750 2525 2887 2237 
Q 3025 1950 3037 1612 
Q 3050 1275 2937 950 
Q 2825 625 2537 362 
Q 2250 100 1737 75 
Q 1225 50 862 262 
Q 500 475 362 862 
Q 225 1250 250 1612 
z
M 1025 787 
Q 1250 550 1625 525 
Q 2000 500 2250 775 
Q 2500 1050 2500 1575 
Q 2500 2100 2187 2300 
Q 1875 2500 1487 2450 
Q 1100 2400 925 2075 
Q 750 1750 775 1387 
Q 800 1025 1025 787 
z
" transform="scale(0.015625)"/>
       </defs>
       <use xlink:href="#SimHei-36"/>
       <use xlink:href="#SimHei-30" transform="translate(50 0)"/>
       <use xlink:href="#SimHei-30" transform="translate(100 0)"/>
       <use xlink:href="#SimHei-30" transform="translate(150 0)"/>
      </g>
     </g>
    </g>
    <g id="xtick_5">
     <g id="line2d_5">
      <path d="M 540.190271 379.20375 
L 540.190271 7.2 
" clip-path="url(#pb28d974ce5)" style="fill: none; stroke-dasharray: 3.7,1.6; stroke-dashoffset: 0; stroke: #cccccc; stroke-opacity: 0.4"/>
     </g>
     <g id="text_5">
      <!-- 8000 -->
      <g style="fill: #262626" transform="translate(529.190271 396.26625) scale(0.11 -0.11)">
       <defs>
        <path id="SimHei-38" d="M 175 1375 
Q 175 1675 325 1962 
Q 475 2250 825 2425 
Q 525 2600 425 2812 
Q 325 3025 312 3300 
Q 300 3575 387 3775 
Q 475 3975 650 4150 
Q 825 4325 1037 4387 
Q 1250 4450 1500 4450 
Q 1750 4450 1950 4400 
Q 2150 4350 2375 4187 
Q 2600 4025 2700 3725 
Q 2800 3425 2687 3025 
Q 2575 2625 2100 2400 
Q 2525 2275 2700 2012 
Q 2875 1750 2875 1375 
Q 2875 1000 2762 775 
Q 2650 550 2512 400 
Q 2375 250 2137 162 
Q 1900 75 1537 75 
Q 1175 75 912 162 
Q 650 250 475 425 
Q 300 600 237 837 
Q 175 1075 175 1375 
z
M 687 1400 
Q 675 1100 787 875 
Q 900 650 1200 587 
Q 1500 525 1825 600 
Q 2150 675 2275 950 
Q 2400 1225 2362 1500 
Q 2325 1775 2050 1962 
Q 1775 2150 1450 2125 
Q 1125 2100 912 1900 
Q 700 1700 687 1400 
z
M 775 3350 
Q 775 3100 950 2875 
Q 1125 2650 1500 2650 
Q 1875 2650 2062 2875 
Q 2250 3100 2237 3412 
Q 2225 3725 2012 3875 
Q 1800 4025 1437 4000 
Q 1075 3975 925 3787 
Q 775 3600 775 3350 
z
" transform="scale(0.015625)"/>
       </defs>
       <use xlink:href="#SimHei-38"/>
       <use xlink:href="#SimHei-30" transform="translate(50 0)"/>
       <use xlink:href="#SimHei-30" transform="translate(100 0)"/>
       <use xlink:href="#SimHei-30" transform="translate(150 0)"/>
      </g>
     </g>
    </g>
    <g id="xtick_6">
     <g id="line2d_6">
      <path d="M 655.760946 379.20375 
L 655.760946 7.2 
" clip-path="url(#pb28d974ce5)" style="fill: none; stroke-dasharray: 3.7,1.6; stroke-dashoffset: 0; stroke: #cccccc; stroke-opacity: 0.4"/>
     </g>
     <g id="text_6">
      <!-- 10000 -->
      <g style="fill: #262626" transform="translate(642.010946 396.26625) scale(0.11 -0.11)">
       <defs>
        <path id="SimHei-31" d="M 1400 3600 
Q 1075 3275 575 2975 
L 575 3450 
Q 1200 3875 1600 4450 
L 1900 4450 
L 1900 150 
L 1400 150 
L 1400 3600 
z
" transform="scale(0.015625)"/>
       </defs>
       <use xlink:href="#SimHei-31"/>
       <use xlink:href="#SimHei-30" transform="translate(50 0)"/>
       <use xlink:href="#SimHei-30" transform="translate(100 0)"/>
       <use xlink:href="#SimHei-30" transform="translate(150 0)"/>
       <use xlink:href="#SimHei-30" transform="translate(200 0)"/>
      </g>
     </g>
    </g>
    <g id="text_7">
     <!-- Time (h) -->
     <g style="fill: #262626" transform="translate(348.407969 411.137344) scale(0.13 -0.13)">
      <defs>
       <path id="SimHei-54" d="M 2850 3925 
L 1850 3925 
L 1850 125 
L 1275 125 
L 1275 3925 
L 275 3925 
L 275 4400 
L 2850 4400 
L 2850 3925 
z
" transform="scale(0.015625)"/>
       <path id="SimHei-69" d="M 1800 3725 
L 1300 3725 
L 1300 4375 
L 1800 4375 
L 1800 3725 
z
M 1800 125 
L 1300 125 
L 1300 2925 
L 1800 2925 
L 1800 125 
z
" transform="scale(0.015625)"/>
       <path id="SimHei-6d" d="M 3050 125 
L 2550 125 
L 2550 2150 
Q 2550 2300 2500 2400 
Q 2450 2500 2300 2500 
Q 2125 2500 1975 2312 
Q 1825 2125 1825 1825 
L 1825 125 
L 1325 125 
L 1325 2150 
Q 1325 2300 1275 2400 
Q 1225 2500 1075 2500 
Q 900 2500 750 2312 
Q 600 2125 600 1825 
L 600 125 
L 100 125 
L 100 2925 
L 600 2925 
L 600 2550 
Q 725 2750 900 2862 
Q 1075 2975 1275 2975 
Q 1475 2975 1612 2862 
Q 1750 2750 1800 2550 
Q 1925 2750 2087 2862 
Q 2250 2975 2450 2975 
Q 2750 2975 2900 2812 
Q 3050 2650 3050 2350 
L 3050 125 
z
" transform="scale(0.015625)"/>
       <path id="SimHei-65" d="M 2850 1075 
Q 2800 625 2450 350 
Q 2100 75 1625 75 
Q 1025 75 637 462 
Q 250 850 250 1525 
Q 250 2200 637 2587 
Q 1025 2975 1625 2975 
Q 2150 2975 2487 2637 
Q 2825 2300 2825 1525 
L 800 1525 
Q 800 975 1037 750 
Q 1275 525 1625 525 
Q 1900 525 2075 662 
Q 2250 800 2300 1075 
L 2850 1075 
z
M 2250 1925 
Q 2200 2275 2025 2412 
Q 1850 2550 1575 2550 
Q 1325 2550 1125 2412 
Q 925 2275 825 1925 
L 2250 1925 
z
" transform="scale(0.015625)"/>
       <path id="SimHei-20" transform="scale(0.015625)"/>
       <path id="SimHei-28" d="M 2975 -200 
L 2700 -475 
Q 2075 125 1762 775 
Q 1450 1425 1450 2250 
Q 1450 3075 1762 3725 
Q 2075 4375 2700 5000 
L 2975 4725 
Q 2400 4175 2112 3587 
Q 1825 3000 1825 2250 
Q 1825 1500 2112 912 
Q 2400 325 2975 -200 
z
" transform="scale(0.015625)"/>
       <path id="SimHei-68" d="M 2800 125 
L 2300 125 
L 2300 1925 
Q 2300 2225 2150 2400 
Q 2000 2575 1750 2575 
Q 1425 2575 1137 2237 
Q 850 1900 850 1400 
L 850 125 
L 350 125 
L 350 4400 
L 850 4400 
L 850 2400 
Q 1050 2675 1287 2825 
Q 1525 2975 1900 2975 
Q 2350 2975 2575 2725 
Q 2800 2475 2800 2100 
L 2800 125 
z
" transform="scale(0.015625)"/>
       <path id="SimHei-29" d="M 1675 2250 
Q 1675 1425 1362 775 
Q 1050 125 425 -475 
L 150 -200 
Q 725 325 1012 912 
Q 1300 1500 1300 2250 
Q 1300 3000 1012 3587 
Q 725 4175 150 4725 
L 425 5000 
Q 1050 4375 1362 3725 
Q 1675 3075 1675 2250 
z
" transform="scale(0.015625)"/>
      </defs>
      <use xlink:href="#SimHei-54"/>
      <use xlink:href="#SimHei-69" transform="translate(50 0)"/>
      <use xlink:href="#SimHei-6d" transform="translate(100 0)"/>
      <use xlink:href="#SimHei-65" transform="translate(150 0)"/>
      <use xlink:href="#SimHei-20" transform="translate(200 0)"/>
      <use xlink:href="#SimHei-28" transform="translate(250 0)"/>
      <use xlink:href="#SimHei-68" transform="translate(300 0)"/>
      <use xlink:href="#SimHei-29" transform="translate(350 0)"/>
     </g>
    </g>
   </g>
   <g id="matplotlib.axis_2">
    <g id="ytick_1">
     <g id="line2d_7">
      <path d="M 48.321094 362.294489 
L 700.494844 362.294489 
" clip-path="url(#pb28d974ce5)" style="fill: none; stroke-dasharray: 3.7,1.6; stroke-dashoffset: 0; stroke: #cccccc; stroke-opacity: 0.4"/>
     </g>
     <g id="text_8">
      <!-- 0.0 -->
      <g style="fill: #262626" transform="translate(22.321094 366.075739) scale(0.11 -0.11)">
       <defs>
        <path id="SimHei-2e" d="M 1075 125 
L 500 125 
L 500 675 
L 1075 675 
L 1075 125 
z
" transform="scale(0.015625)"/>
       </defs>
       <use xlink:href="#SimHei-30"/>
       <use xlink:href="#SimHei-2e" transform="translate(50 0)"/>
       <use xlink:href="#SimHei-30" transform="translate(100 0)"/>
      </g>
     </g>
    </g>
    <g id="ytick_2">
     <g id="line2d_8">
      <path d="M 48.321094 294.657443 
L 700.494844 294.657443 
" clip-path="url(#pb28d974ce5)" style="fill: none; stroke-dasharray: 3.7,1.6; stroke-dashoffset: 0; stroke: #cccccc; stroke-opacity: 0.4"/>
     </g>
     <g id="text_9">
      <!-- 0.2 -->
      <g style="fill: #262626" transform="translate(22.321094 298.438693) scale(0.11 -0.11)">
       <use xlink:href="#SimHei-30"/>
       <use xlink:href="#SimHei-2e" transform="translate(50 0)"/>
       <use xlink:href="#SimHei-32" transform="translate(100 0)"/>
      </g>
     </g>
    </g>
    <g id="ytick_3">
     <g id="line2d_9">
      <path d="M 48.321094 227.020398 
L 700.494844 227.020398 
" clip-path="url(#pb28d974ce5)" style="fill: none; stroke-dasharray: 3.7,1.6; stroke-dashoffset: 0; stroke: #cccccc; stroke-opacity: 0.4"/>
     </g>
     <g id="text_10">
      <!-- 0.4 -->
      <g style="fill: #262626" transform="translate(22.321094 230.801648) scale(0.11 -0.11)">
       <use xlink:href="#SimHei-30"/>
       <use xlink:href="#SimHei-2e" transform="translate(50 0)"/>
       <use xlink:href="#SimHei-34" transform="translate(100 0)"/>
      </g>
     </g>
    </g>
    <g id="ytick_4">
     <g id="line2d_10">
      <path d="M 48.321094 159.383352 
L 700.494844 159.383352 
" clip-path="url(#pb28d974ce5)" style="fill: none; stroke-dasharray: 3.7,1.6; stroke-dashoffset: 0; stroke: #cccccc; stroke-opacity: 0.4"/>
     </g>
     <g id="text_11">
      <!-- 0.6 -->
      <g style="fill: #262626" transform="translate(22.321094 163.164602) scale(0.11 -0.11)">
       <use xlink:href="#SimHei-30"/>
       <use xlink:href="#SimHei-2e" transform="translate(50 0)"/>
       <use xlink:href="#SimHei-36" transform="translate(100 0)"/>
      </g>
     </g>
    </g>
    <g id="ytick_5">
     <g id="line2d_11">
      <path d="M 48.321094 91.746307 
L 700.494844 91.746307 
" clip-path="url(#pb28d974ce5)" style="fill: none; stroke-dasharray: 3.7,1.6; stroke-dashoffset: 0; stroke: #cccccc; stroke-opacity: 0.4"/>
     </g>
     <g id="text_12">
      <!-- 0.8 -->
      <g style="fill: #262626" transform="translate(22.321094 95.527557) scale(0.11 -0.11)">
       <use xlink:href="#SimHei-30"/>
       <use xlink:href="#SimHei-2e" transform="translate(50 0)"/>
       <use xlink:href="#SimHei-38" transform="translate(100 0)"/>
      </g>
     </g>
    </g>
    <g id="ytick_6">
     <g id="line2d_12">
      <path d="M 48.321094 24.109261 
L 700.494844 24.109261 
" clip-path="url(#pb28d974ce5)" style="fill: none; stroke-dasharray: 3.7,1.6; stroke-dashoffset: 0; stroke: #cccccc; stroke-opacity: 0.4"/>
     </g>
     <g id="text_13">
      <!-- 1.0 -->
      <g style="fill: #262626" transform="translate(22.321094 27.890511) scale(0.11 -0.11)">
       <use xlink:href="#SimHei-31"/>
       <use xlink:href="#SimHei-2e" transform="translate(50 0)"/>
       <use xlink:href="#SimHei-30" transform="translate(100 0)"/>
      </g>
     </g>
    </g>
    <g id="text_14">
     <!-- F(t) -->
     <g style="fill: #262626" transform="translate(16.696094 206.201875) rotate(-90) scale(0.13 -0.13)">
      <defs>
       <path id="SimHei-46" d="M 2925 3925 
L 875 3925 
L 875 2525 
L 2425 2525 
L 2425 2050 
L 875 2050 
L 875 125 
L 300 125 
L 300 4400 
L 2925 4400 
L 2925 3925 
z
" transform="scale(0.015625)"/>
       <path id="SimHei-74" d="M 2750 200 
Q 2625 150 2462 112 
Q 2300 75 2025 75 
Q 1575 75 1300 325 
Q 1025 575 1025 1025 
L 1025 2525 
L 175 2525 
L 175 2925 
L 1025 2925 
L 1025 3900 
L 1525 3900 
L 1525 2925 
L 2550 2925 
L 2550 2525 
L 1525 2525 
L 1525 1000 
Q 1525 800 1625 662 
Q 1725 525 2000 525 
Q 2275 525 2450 575 
Q 2625 625 2750 700 
L 2750 200 
z
" transform="scale(0.015625)"/>
      </defs>
      <use xlink:href="#SimHei-46"/>
      <use xlink:href="#SimHei-28" transform="translate(50 0)"/>
      <use xlink:href="#SimHei-74" transform="translate(100 0)"/>
      <use xlink:href="#SimHei-29" transform="translate(150 0)"/>
     </g>
    </g>
   </g>
   <g id="line2d_13">
    <path d="M 77.965355 362.294489 
L 157.571187 362.187347 
L 176.581535 361.927976 
L 189.651149 361.545652 
L 200.34447 361.029118 
L 209.849644 360.351607 
L 218.166671 359.536869 
L 225.295552 358.632442 
L 232.424432 357.498092 
L 238.365166 356.346715 
L 244.3059 354.979295 
L 250.246634 353.366599 
L 256.187367 351.477243 
L 260.939954 349.74419 
L 265.692541 347.794806 
L 270.445128 345.610516 
L 275.197715 343.172221 
L 279.950302 340.460448 
L 284.702889 337.455528 
L 289.455476 334.137804 
L 294.208063 330.487879 
L 298.96065 326.486892 
L 303.713237 322.116835 
L 308.465824 317.360908 
L 313.218411 312.203904 
L 317.970998 306.632629 
L 322.723585 300.63635 
L 327.476172 294.207264 
L 332.228759 287.340984 
L 336.981346 280.037029 
L 341.733933 272.299303 
L 346.48652 264.136559 
L 351.239107 255.562816 
L 355.991694 246.597726 
L 361.932428 234.880573 
L 367.873162 222.655742 
L 375.002042 207.427301 
L 383.319069 189.099885 
L 408.270151 133.658863 
L 414.210885 121.114269 
L 420.151619 109.096991 
L 424.904206 99.944038 
L 429.656793 91.260667 
L 434.40938 83.094365 
L 439.161967 75.483994 
L 442.726407 70.159044 
L 446.290847 65.172088 
L 449.855287 60.528391 
L 453.419727 56.229868 
L 456.984168 52.275122 
L 460.548608 48.65956 
L 464.113048 45.375563 
L 467.677488 42.41272 
L 471.241929 39.758111 
L 474.806369 37.396643 
L 478.370809 35.311406 
L 481.935249 33.484066 
L 485.49969 31.895263 
L 489.06413 30.525007 
L 492.62857 29.35307 
L 497.381157 28.064287 
L 502.133744 27.046106 
L 506.886331 26.254865 
L 512.827065 25.524218 
L 518.767799 25.016708 
L 525.896679 24.62145 
L 535.401853 24.331956 
L 549.659614 24.163446 
L 579.363283 24.110635 
L 670.850582 24.109261 
L 670.850582 24.109261 
" clip-path="url(#pb28d974ce5)" style="fill: none; stroke: #c44e52; stroke-width: 2.5; stroke-linecap: round"/>
   </g>
   <g id="line2d_14">
    <path d="M 269.271192 339.748807 
L 284.598979 317.203125 
L 292.373041 294.657443 
L 322.460705 272.111761 
L 348.990073 249.56608 
L 373.762689 227.020398 
L 377.521284 204.474716 
L 379.324626 181.929034 
L 394.110735 159.383352 
L 394.310852 136.83767 
L 411.010961 114.291989 
L 425.02999 91.746307 
L 442.241463 69.200625 
L 463.378658 46.654943 
L 473.202912 24.109261 
" clip-path="url(#pb28d974ce5)" style="fill: none; stroke-dasharray: 5.55,2.4; stroke-dashoffset: 0; stroke: #1f77b4; stroke-opacity: 0.85; stroke-width: 1.5"/>
    <defs>
     <path id="m53c042c84c" d="M 0 3.5 
C 0.928211 3.5 1.81853 3.131218 2.474874 2.474874 
C 3.131218 1.81853 3.5 0.928211 3.5 0 
C 3.5 -0.928211 3.131218 -1.81853 2.474874 -2.474874 
C 1.81853 -3.131218 0.928211 -3.5 0 -3.5 
C -0.928211 -3.5 -1.81853 -3.131218 -2.474874 -2.474874 
C -3.131218 -1.81853 -3.5 -0.928211 -3.5 0 
C -3.5 0.928211 -3.131218 1.81853 -2.474874 2.474874 
C -1.81853 3.131218 -0.928211 3.5 0 3.5 
z
" style="stroke: #1f77b4; stroke-opacity: 0.85"/>
    </defs>
    <g clip-path="url(#pb28d974ce5)">
     <use xlink:href="#m53c042c84c" x="269.271192" y="339.748807" style="fill: #1f77b4; fill-opacity: 0.85; stroke: #1f77b4; stroke-opacity: 0.85"/>
     <use xlink:href="#m53c042c84c" x="284.598979" y="317.203125" style="fill: #1f77b4; fill-opacity: 0.85; stroke: #1f77b4; stroke-opacity: 0.85"/>
     <use xlink:href="#m53c042c84c" x="292.373041" y="294.657443" style="fill: #1f77b4; fill-opacity: 0.85; stroke: #1f77b4; stroke-opacity: 0.85"/>
     <use xlink:href="#m53c042c84c" x="322.460705" y="272.111761" style="fill: #1f77b4; fill-opacity: 0.85; stroke: #1f77b4; stroke-opacity: 0.85"/>
     <use xlink:href="#m53c042c84c" x="348.990073" y="249.56608" style="fill: #1f77b4; fill-opacity: 0.85; stroke: #1f77b4; stroke-opacity: 0.85"/>
     <use xlink:href="#m53c042c84c" x="373.762689" y="227.020398" style="fill: #1f77b4; fill-opacity: 0.85; stroke: #1f77b4; stroke-opacity: 0.85"/>
     <use xlink:href="#m53c042c84c" x="377.521284" y="204.474716" style="fill: #1f77b4; fill-opacity: 0.85; stroke: #1f77b4; stroke-opacity: 0.85"/>
     <use xlink:href="#m53c042c84c" x="379.324626" y="181.929034" style="fill: #1f77b4; fill-opacity: 0.85; stroke: #1f77b4; stroke-opacity: 0.85"/>
     <use xlink:href="#m53c042c84c" x="394.110735" y="159.383352" style="fill: #1f77b4; fill-opacity: 0.85; stroke: #1f77b4; stroke-opacity: 0.85"/>
     <use xlink:href="#m53c042c84c" x="394.310852" y="136.83767" style="fill: #1f77b4; fill-opacity: 0.85; stroke: #1f77b4; stroke-opacity: 0.85"/>
     <use xlink:href="#m53c042c84c" x="411.010961" y="114.291989" style="fill: #1f77b4; fill-opacity: 0.85; stroke: #1f77b4; stroke-opacity: 0.85"/>
     <use xlink:href="#m53c042c84c" x="425.02999" y="91.746307" style="fill: #1f77b4; fill-opacity: 0.85; stroke: #1f77b4; stroke-opacity: 0.85"/>
     <use xlink:href="#m53c042c84c" x="442.241463" y="69.200625" style="fill: #1f77b4; fill-opacity: 0.85; stroke: #1f77b4; stroke-opacity: 0.85"/>
     <use xlink:href="#m53c042c84c" x="463.378658" y="46.654943" style="fill: #1f77b4; fill-opacity: 0.85; stroke: #1f77b4; stroke-opacity: 0.85"/>
     <use xlink:href="#m53c042c84c" x="473.202912" y="24.109261" style="fill: #1f77b4; fill-opacity: 0.85; stroke: #1f77b4; stroke-opacity: 0.85"/>
    </g>
   </g>
   <g id="line2d_15">
    <path d="M 269.271192 341.157912 
L 284.598979 320.021335 
L 292.373041 298.884759 
L 322.460705 277.748182 
L 348.990073 256.611605 
L 373.762689 235.475028 
L 377.521284 214.338452 
L 379.324626 193.201875 
L 394.110735 172.065298 
L 394.310852 150.928722 
L 411.010961 129.792145 
L 425.02999 108.655568 
L 442.241463 87.518991 
L 463.378658 66.382415 
L 473.202912 45.245838 
" clip-path="url(#pb28d974ce5)" style="fill: none; stroke-dasharray: 5.55,2.4; stroke-dashoffset: 0; stroke: #ff7f0e; stroke-opacity: 0.85; stroke-width: 1.5"/>
    <defs>
     <path id="mf30f81cd03" d="M -3.5 3.5 
L 3.5 3.5 
L 3.5 -3.5 
L -3.5 -3.5 
z
" style="stroke: #ff7f0e; stroke-opacity: 0.85; stroke-linejoin: miter"/>
    </defs>
    <g clip-path="url(#pb28d974ce5)">
     <use xlink:href="#mf30f81cd03" x="269.271192" y="341.157912" style="fill: #ff7f0e; fill-opacity: 0.85; stroke: #ff7f0e; stroke-opacity: 0.85; stroke-linejoin: miter"/>
     <use xlink:href="#mf30f81cd03" x="284.598979" y="320.021335" style="fill: #ff7f0e; fill-opacity: 0.85; stroke: #ff7f0e; stroke-opacity: 0.85; stroke-linejoin: miter"/>
     <use xlink:href="#mf30f81cd03" x="292.373041" y="298.884759" style="fill: #ff7f0e; fill-opacity: 0.85; stroke: #ff7f0e; stroke-opacity: 0.85; stroke-linejoin: miter"/>
     <use xlink:href="#mf30f81cd03" x="322.460705" y="277.748182" style="fill: #ff7f0e; fill-opacity: 0.85; stroke: #ff7f0e; stroke-opacity: 0.85; stroke-linejoin: miter"/>
     <use xlink:href="#mf30f81cd03" x="348.990073" y="256.611605" style="fill: #ff7f0e; fill-opacity: 0.85; stroke: #ff7f0e; stroke-opacity: 0.85; stroke-linejoin: miter"/>
     <use xlink:href="#mf30f81cd03" x="373.762689" y="235.475028" style="fill: #ff7f0e; fill-opacity: 0.85; stroke: #ff7f0e; stroke-opacity: 0.85; stroke-linejoin: miter"/>
     <use xlink:href="#mf30f81cd03" x="377.521284" y="214.338452" style="fill: #ff7f0e; fill-opacity: 0.85; stroke: #ff7f0e; stroke-opacity: 0.85; stroke-linejoin: miter"/>
     <use xlink:href="#mf30f81cd03" x="379.324626" y="193.201875" style="fill: #ff7f0e; fill-opacity: 0.85; stroke: #ff7f0e; stroke-opacity: 0.85; stroke-linejoin: miter"/>
     <use xlink:href="#mf30f81cd03" x="394.110735" y="172.065298" style="fill: #ff7f0e; fill-opacity: 0.85; stroke: #ff7f0e; stroke-opacity: 0.85; stroke-linejoin: miter"/>
     <use xlink:href="#mf30f81cd03" x="394.310852" y="150.928722" style="fill: #ff7f0e; fill-opacity: 0.85; stroke: #ff7f0e; stroke-opacity: 0.85; stroke-linejoin: miter"/>
     <use xlink:href="#mf30f81cd03" x="411.010961" y="129.792145" style="fill: #ff7f0e; fill-opacity: 0.85; stroke: #ff7f0e; stroke-opacity: 0.85; stroke-linejoin: miter"/>
     <use xlink:href="#mf30f81cd03" x="425.02999" y="108.655568" style="fill: #ff7f0e; fill-opacity: 0.85; stroke: #ff7f0e; stroke-opacity: 0.85; stroke-linejoin: miter"/>
     <use xlink:href="#mf30f81cd03" x="442.241463" y="87.518991" style="fill: #ff7f0e; fill-opacity: 0.85; stroke: #ff7f0e; stroke-opacity: 0.85; stroke-linejoin: miter"/>
     <use xlink:href="#mf30f81cd03" x="463.378658" y="66.382415" style="fill: #ff7f0e; fill-opacity: 0.85; stroke: #ff7f0e; stroke-opacity: 0.85; stroke-linejoin: miter"/>
     <use xlink:href="#mf30f81cd03" x="473.202912" y="45.245838" style="fill: #ff7f0e; fill-opacity: 0.85; stroke: #ff7f0e; stroke-opacity: 0.85; stroke-linejoin: miter"/>
    </g>
   </g>
   <g id="line2d_16">
    <path d="M 269.271192 346.922433 
L 284.598979 324.962353 
L 292.373041 303.002273 
L 322.460705 281.042194 
L 348.990073 259.082114 
L 373.762689 237.122034 
L 377.521284 215.161955 
L 379.324626 193.201875 
L 394.110735 171.241795 
L 394.310852 149.281716 
L 411.010961 127.321636 
L 425.02999 105.361556 
L 442.241463 83.401477 
L 463.378658 61.441397 
L 473.202912 39.481317 
" clip-path="url(#pb28d974ce5)" style="fill: none; stroke-dasharray: 5.55,2.4; stroke-dashoffset: 0; stroke: #2ca02c; stroke-opacity: 0.85; stroke-width: 1.5"/>
    <defs>
     <path id="md70d2e8e99" d="M 0 -3.5 
L -3.5 3.5 
L 3.5 3.5 
z
" style="stroke: #2ca02c; stroke-opacity: 0.85; stroke-linejoin: miter"/>
    </defs>
    <g clip-path="url(#pb28d974ce5)">
     <use xlink:href="#md70d2e8e99" x="269.271192" y="346.922433" style="fill: #2ca02c; fill-opacity: 0.85; stroke: #2ca02c; stroke-opacity: 0.85; stroke-linejoin: miter"/>
     <use xlink:href="#md70d2e8e99" x="284.598979" y="324.962353" style="fill: #2ca02c; fill-opacity: 0.85; stroke: #2ca02c; stroke-opacity: 0.85; stroke-linejoin: miter"/>
     <use xlink:href="#md70d2e8e99" x="292.373041" y="303.002273" style="fill: #2ca02c; fill-opacity: 0.85; stroke: #2ca02c; stroke-opacity: 0.85; stroke-linejoin: miter"/>
     <use xlink:href="#md70d2e8e99" x="322.460705" y="281.042194" style="fill: #2ca02c; fill-opacity: 0.85; stroke: #2ca02c; stroke-opacity: 0.85; stroke-linejoin: miter"/>
     <use xlink:href="#md70d2e8e99" x="348.990073" y="259.082114" style="fill: #2ca02c; fill-opacity: 0.85; stroke: #2ca02c; stroke-opacity: 0.85; stroke-linejoin: miter"/>
     <use xlink:href="#md70d2e8e99" x="373.762689" y="237.122034" style="fill: #2ca02c; fill-opacity: 0.85; stroke: #2ca02c; stroke-opacity: 0.85; stroke-linejoin: miter"/>
     <use xlink:href="#md70d2e8e99" x="377.521284" y="215.161955" style="fill: #2ca02c; fill-opacity: 0.85; stroke: #2ca02c; stroke-opacity: 0.85; stroke-linejoin: miter"/>
     <use xlink:href="#md70d2e8e99" x="379.324626" y="193.201875" style="fill: #2ca02c; fill-opacity: 0.85; stroke: #2ca02c; stroke-opacity: 0.85; stroke-linejoin: miter"/>
     <use xlink:href="#md70d2e8e99" x="394.110735" y="171.241795" style="fill: #2ca02c; fill-opacity: 0.85; stroke: #2ca02c; stroke-opacity: 0.85; stroke-linejoin: miter"/>
     <use xlink:href="#md70d2e8e99" x="394.310852" y="149.281716" style="fill: #2ca02c; fill-opacity: 0.85; stroke: #2ca02c; stroke-opacity: 0.85; stroke-linejoin: miter"/>
     <use xlink:href="#md70d2e8e99" x="411.010961" y="127.321636" style="fill: #2ca02c; fill-opacity: 0.85; stroke: #2ca02c; stroke-opacity: 0.85; stroke-linejoin: miter"/>
     <use xlink:href="#md70d2e8e99" x="425.02999" y="105.361556" style="fill: #2ca02c; fill-opacity: 0.85; stroke: #2ca02c; stroke-opacity: 0.85; stroke-linejoin: miter"/>
     <use xlink:href="#md70d2e8e99" x="442.241463" y="83.401477" style="fill: #2ca02c; fill-opacity: 0.85; stroke: #2ca02c; stroke-opacity: 0.85; stroke-linejoin: miter"/>
     <use xlink:href="#md70d2e8e99" x="463.378658" y="61.441397" style="fill: #2ca02c; fill-opacity: 0.85; stroke: #2ca02c; stroke-opacity: 0.85; stroke-linejoin: miter"/>
     <use xlink:href="#md70d2e8e99" x="473.202912" y="39.481317" style="fill: #2ca02c; fill-opacity: 0.85; stroke: #2ca02c; stroke-opacity: 0.85; stroke-linejoin: miter"/>
    </g>
   </g>
   <g id="patch_3">
    <path d="M 48.321094 379.20375 
L 48.321094 7.2 
" style="fill: none; stroke: #cccccc; stroke-width: 1.25; stroke-linejoin: miter; stroke-linecap: square"/>
   </g>
   <g id="patch_4">
    <path d="M 700.494844 379.20375 
L 700.494844 7.2 
" style="fill: none; stroke: #cccccc; stroke-width: 1.25; stroke-linejoin: miter; stroke-linecap: square"/>
   </g>
   <g id="patch_5">
    <path d="M 48.321094 379.20375 
L 700.494844 379.20375 
" style="fill: none; stroke: #cccccc; stroke-width: 1.25; stroke-linejoin: miter; stroke-linecap: square"/>
   </g>
   <g id="patch_6">
    <path d="M 48.321094 7.2 
L 700.494844 7.2 
" style="fill: none; stroke: #cccccc; stroke-width: 1.25; stroke-linejoin: miter; stroke-linecap: square"/>
   </g>
   <g id="legend_1">
    <g id="patch_7">
     <path d="M 55.321094 69.746875 
L 232.321094 69.746875 
Q 234.321094 69.746875 234.321094 67.746875 
L 234.321094 14.2 
Q 234.321094 12.2 232.321094 12.2 
L 55.321094 12.2 
Q 53.321094 12.2 53.321094 14.2 
L 53.321094 67.746875 
Q 53.321094 69.746875 55.321094 69.746875 
z
" style="fill: #ffffff; opacity: 0.9; stroke: #cccccc; stroke-linejoin: miter"/>
    </g>
    <g id="line2d_17">
     <path d="M 57.321094 20.434375 
L 67.321094 20.434375 
L 77.321094 20.434375 
" style="fill: none; stroke: #c44e52; stroke-width: 2.5; stroke-linecap: round"/>
    </g>
    <g id="text_15">
     <!-- Weibull (β=5.749, η=5599.2) -->
     <g style="fill: #262626" transform="translate(85.321094 23.934375) scale(0.1 -0.1)">
      <defs>
       <path id="SimHei-57" d="M 3075 4400 
L 2525 75 
L 2025 75 
L 1575 3275 
L 1525 3275 
L 1075 75 
L 575 75 
L 25 4400 
L 575 4400 
L 850 1675 
L 900 1675 
L 1275 4400 
L 1825 4400 
L 2200 1675 
L 2250 1675 
L 2525 4400 
L 3075 4400 
z
" transform="scale(0.015625)"/>
       <path id="SimHei-62" d="M 2825 1525 
Q 2825 800 2475 437 
Q 2125 75 1625 75 
Q 1350 75 1150 175 
Q 950 275 800 500 
L 800 125 
L 300 125 
L 300 4400 
L 800 4400 
L 800 2550 
Q 950 2775 1150 2887 
Q 1350 3000 1625 3000 
Q 2125 3000 2475 2625 
Q 2825 2250 2825 1525 
z
M 2275 1525 
Q 2275 2000 2087 2275 
Q 1900 2550 1525 2550 
Q 1225 2550 1012 2275 
Q 800 2000 800 1525 
Q 800 1050 1012 787 
Q 1225 525 1525 525 
Q 1900 525 2087 787 
Q 2275 1050 2275 1525 
z
" transform="scale(0.015625)"/>
       <path id="SimHei-75" d="M 2800 125 
L 2300 125 
L 2300 650 
Q 2100 375 1862 225 
Q 1625 75 1250 75 
Q 800 75 575 325 
Q 350 575 350 950 
L 350 2925 
L 850 2925 
L 850 1125 
Q 850 825 1000 650 
Q 1150 475 1400 475 
Q 1725 475 2012 812 
Q 2300 1150 2300 1650 
L 2300 2925 
L 2800 2925 
L 2800 125 
z
" transform="scale(0.015625)"/>
       <path id="SimHei-6c" d="M 1825 125 
L 1325 125 
L 1325 4400 
L 1825 4400 
L 1825 125 
z
" transform="scale(0.015625)"/>
       <path id="SimHei-3b2" d="M 3050 4550 
Q 3775 4500 4000 3925 
Q 4225 3200 3750 2650 
L 3725 2625 
Q 4500 2375 4475 1275 
Q 4275 325 3450 175 
Q 2775 75 2325 525 
L 2325 -750 
L 1925 -750 
L 1925 3525 
Q 2100 4400 2800 4525 
L 3050 4550 
z
M 2950 4150 
Q 2400 4075 2350 3650 
L 2325 3075 
L 2325 1025 
Q 2600 600 3200 575 
L 3325 575 
Q 4000 675 4075 1575 
Q 4025 2200 3550 2325 
L 3050 2350 
L 2850 2350 
L 2850 2700 
Q 3450 2575 3650 3300 
L 3650 3600 
Q 3650 3925 3125 4125 
L 2950 4150 
z
" transform="scale(0.015625)"/>
       <path id="SimHei-3d" d="M 2975 2900 
L 125 2900 
L 125 3300 
L 2975 3300 
L 2975 2900 
z
M 2975 1375 
L 125 1375 
L 125 1775 
L 2975 1775 
L 2975 1375 
z
" transform="scale(0.015625)"/>
       <path id="SimHei-35" d="M 550 1325 
Q 725 650 1150 575 
Q 1575 500 1837 662 
Q 2100 825 2212 1087 
Q 2325 1350 2312 1675 
Q 2300 2000 2137 2225 
Q 1975 2450 1725 2525 
Q 1475 2600 1162 2525 
Q 850 2450 650 2175 
L 225 2225 
Q 275 2375 700 4375 
L 2675 4375 
L 2675 3925 
L 1075 3925 
Q 950 3250 825 2850 
Q 1200 3025 1525 3012 
Q 1850 3000 2150 2862 
Q 2450 2725 2587 2487 
Q 2725 2250 2787 2012 
Q 2850 1775 2837 1500 
Q 2825 1225 2725 937 
Q 2625 650 2425 462 
Q 2225 275 1937 162 
Q 1650 50 1275 75 
Q 900 100 562 350 
Q 225 600 100 1200 
L 550 1325 
z
" transform="scale(0.015625)"/>
       <path id="SimHei-37" d="M 850 150 
Q 1300 2050 2425 3925 
L 275 3925 
L 275 4375 
L 2950 4375 
L 2950 3950 
Q 1775 2050 1400 150 
L 850 150 
z
" transform="scale(0.015625)"/>
       <path id="SimHei-39" d="M 800 75 
Q 1350 1000 1700 1750 
Q 1075 1650 662 1912 
Q 250 2175 162 2625 
Q 75 3075 175 3437 
Q 275 3800 487 4037 
Q 700 4275 1000 4375 
Q 1300 4475 1537 4475 
Q 1775 4475 2025 4375 
Q 2275 4275 2475 4075 
Q 2675 3875 2750 3662 
Q 2825 3450 2825 3112 
Q 2825 2775 2575 2250 
Q 2325 1725 1350 75 
L 800 75 
z
M 662 2875 
Q 700 2550 937 2337 
Q 1175 2125 1450 2150 
Q 1725 2175 1887 2300 
Q 2050 2425 2200 2725 
Q 2300 3100 2250 3362 
Q 2200 3625 1987 3800 
Q 1775 3975 1525 3975 
Q 1375 4000 1137 3900 
Q 900 3800 762 3500 
Q 625 3200 662 2875 
z
" transform="scale(0.015625)"/>
       <path id="SimHei-2c" d="M 1100 125 
L 775 -550 
L 525 -550 
L 775 125 
L 525 125 
L 525 675 
L 1100 675 
L 1100 125 
z
" transform="scale(0.015625)"/>
       <path id="SimHei-3b7" d="M 3825 3250 
Q 4525 3200 4625 2650 
Q 4675 2650 4675 2175 
L 4675 -750 
L 4250 -750 
L 4250 2400 
Q 4200 2800 3700 2825 
Q 3125 2775 2975 2300 
L 2975 225 
L 2550 225 
L 2550 2700 
L 2450 2800 
Q 2300 2850 1950 2475 
L 1675 2675 
Q 2150 3325 2700 3200 
Q 2850 3200 2975 2850 
Q 3200 3150 3750 3250 
L 3825 3250 
z
" transform="scale(0.015625)"/>
      </defs>
      <use xlink:href="#SimHei-57"/>
      <use xlink:href="#SimHei-65" transform="translate(50 0)"/>
      <use xlink:href="#SimHei-69" transform="translate(100 0)"/>
      <use xlink:href="#SimHei-62" transform="translate(150 0)"/>
      <use xlink:href="#SimHei-75" transform="translate(200 0)"/>
      <use xlink:href="#SimHei-6c" transform="translate(250 0)"/>
      <use xlink:href="#SimHei-6c" transform="translate(300 0)"/>
      <use xlink:href="#SimHei-20" transform="translate(350 0)"/>
      <use xlink:href="#SimHei-28" transform="translate(400 0)"/>
      <use xlink:href="#SimHei-3b2" transform="translate(450 0)"/>
      <use xlink:href="#SimHei-3d" transform="translate(550 0)"/>
      <use xlink:href="#SimHei-35" transform="translate(600 0)"/>
      <use xlink:href="#SimHei-2e" transform="translate(650 0)"/>
      <use xlink:href="#SimHei-37" transform="translate(700 0)"/>
      <use xlink:href="#SimHei-34" transform="translate(750 0)"/>
      <use xlink:href="#SimHei-39" transform="translate(800 0)"/>
      <use xlink:href="#SimHei-2c" transform="translate(850 0)"/>
      <use xlink:href="#SimHei-20" transform="translate(900 0)"/>
      <use xlink:href="#SimHei-3b7" transform="translate(950 0)"/>
      <use xlink:href="#SimHei-3d" transform="translate(1050 0)"/>
      <use xlink:href="#SimHei-35" transform="translate(1100 0)"/>
      <use xlink:href="#SimHei-35" transform="translate(1150 0)"/>
      <use xlink:href="#SimHei-39" transform="translate(1200 0)"/>
      <use xlink:href="#SimHei-39" transform="translate(1250 0)"/>
      <use xlink:href="#SimHei-2e" transform="translate(1300 0)"/>
      <use xlink:href="#SimHei-32" transform="translate(1350 0)"/>
      <use xlink:href="#SimHei-29" transform="translate(1400 0)"/>
     </g>
    </g>
    <g id="line2d_18">
     <path d="M 57.321094 34.496875 
L 67.321094 34.496875 
L 77.321094 34.496875 
" style="fill: none; stroke-dasharray: 5.55,2.4; stroke-dashoffset: 0; stroke: #1f77b4; stroke-opacity: 0.85; stroke-width: 1.5"/>
     <g>
      <use xlink:href="#m53c042c84c" x="67.321094" y="34.496875" style="fill: #1f77b4; fill-opacity: 0.85; stroke: #1f77b4; stroke-opacity: 0.85"/>
     </g>
    </g>
    <g id="text_16">
     <!-- Empirical – Simple (i/n) -->
     <g style="fill: #262626" transform="translate(85.321094 37.996875) scale(0.1 -0.1)">
      <defs>
       <path id="SimHei-45" d="M 2900 125 
L 350 125 
L 350 4400 
L 2775 4400 
L 2775 3925 
L 925 3925 
L 925 2600 
L 2625 2600 
L 2625 2125 
L 925 2125 
L 925 600 
L 2900 600 
L 2900 125 
z
" transform="scale(0.015625)"/>
       <path id="SimHei-70" d="M 2825 1525 
Q 2825 800 2475 425 
Q 2125 50 1625 50 
Q 1350 50 1150 162 
Q 950 275 800 500 
L 800 -800 
L 300 -800 
L 300 2925 
L 800 2925 
L 800 2550 
Q 950 2775 1150 2875 
Q 1350 2975 1625 2975 
Q 2125 2975 2475 2612 
Q 2825 2250 2825 1525 
z
M 2275 1525 
Q 2275 2000 2087 2262 
Q 1900 2525 1525 2525 
Q 1225 2525 1012 2262 
Q 800 2000 800 1525 
Q 800 1050 1012 775 
Q 1225 500 1525 500 
Q 1900 500 2087 775 
Q 2275 1050 2275 1525 
z
" transform="scale(0.015625)"/>
       <path id="SimHei-72" d="M 2500 2425 
Q 2025 2500 1700 2287 
Q 1375 2075 1150 1550 
L 1150 125 
L 650 125 
L 650 2925 
L 1150 2925 
L 1150 2200 
Q 1375 2600 1712 2787 
Q 2050 2975 2500 2975 
L 2500 2425 
z
" transform="scale(0.015625)"/>
       <path id="SimHei-63" d="M 2850 1250 
Q 2850 725 2487 400 
Q 2125 75 1575 75 
Q 1025 75 625 462 
Q 225 850 225 1525 
Q 225 2200 625 2587 
Q 1025 2975 1575 2975 
Q 2125 2975 2450 2687 
Q 2775 2400 2775 2000 
L 2225 2000 
Q 2200 2300 2012 2412 
Q 1825 2525 1575 2525 
Q 1275 2525 1025 2287 
Q 775 2050 775 1525 
Q 775 1000 1025 762 
Q 1275 525 1575 525 
Q 1900 525 2100 700 
Q 2300 875 2300 1250 
L 2850 1250 
z
" transform="scale(0.015625)"/>
       <path id="SimHei-61" d="M 2875 125 
L 2275 125 
Q 2225 175 2200 262 
Q 2175 350 2175 475 
Q 2000 275 1750 175 
Q 1500 75 1225 75 
Q 825 75 550 275 
Q 275 475 275 850 
Q 275 1225 525 1450 
Q 775 1675 1300 1750 
Q 1650 1800 1912 1875 
Q 2175 1950 2175 2075 
Q 2175 2225 2062 2375 
Q 1950 2525 1575 2525 
Q 1275 2525 1137 2412 
Q 1000 2300 950 2100 
L 400 2100 
Q 450 2500 762 2737 
Q 1075 2975 1575 2975 
Q 2125 2975 2400 2725 
Q 2675 2475 2675 2025 
L 2675 650 
Q 2675 500 2725 375 
Q 2775 250 2875 125 
z
M 2175 1050 
L 2175 1550 
Q 2025 1500 1887 1462 
Q 1750 1425 1425 1375 
Q 1050 1325 937 1200 
Q 825 1075 825 900 
Q 825 750 937 637 
Q 1050 525 1275 525 
Q 1500 525 1762 650 
Q 2025 775 2175 1050 
z
" transform="scale(0.015625)"/>
       <path id="SimHei-2013" d="M 2075 2500 
L 4400 2500 
L 4400 2125 
L 2075 2125 
L 2075 2500 
z
" transform="scale(0.015625)"/>
       <path id="SimHei-53" d="M 2900 1325 
Q 2900 750 2537 412 
Q 2175 75 1550 75 
Q 925 75 575 425 
Q 225 775 225 1300 
L 225 1475 
L 800 1475 
L 800 1325 
Q 800 950 1025 750 
Q 1250 550 1550 550 
Q 1950 550 2137 762 
Q 2325 975 2325 1275 
Q 2325 1525 2100 1737 
Q 1875 1950 1450 2125 
Q 850 2350 587 2625 
Q 325 2900 325 3275 
Q 325 3800 687 4125 
Q 1050 4450 1550 4450 
Q 2200 4450 2487 4062 
Q 2775 3675 2775 3225 
L 2200 3225 
Q 2225 3500 2050 3725 
Q 1875 3950 1550 3950 
Q 1250 3950 1075 3787 
Q 900 3625 900 3350 
Q 900 3125 1037 2962 
Q 1175 2800 1750 2575 
Q 2300 2350 2600 2037 
Q 2900 1725 2900 1325 
z
" transform="scale(0.015625)"/>
       <path id="SimHei-2f" d="M 3000 4550 
L 350 -175 
L 100 -25 
L 2750 4700 
L 3000 4550 
z
" transform="scale(0.015625)"/>
       <path id="SimHei-6e" d="M 2800 125 
L 2300 125 
L 2300 1925 
Q 2300 2225 2150 2400 
Q 2000 2575 1750 2575 
Q 1425 2575 1137 2237 
Q 850 1900 850 1400 
L 850 125 
L 350 125 
L 350 2925 
L 850 2925 
L 850 2400 
Q 1050 2675 1287 2825 
Q 1525 2975 1900 2975 
Q 2350 2975 2575 2725 
Q 2800 2475 2800 2100 
L 2800 125 
z
" transform="scale(0.015625)"/>
      </defs>
      <use xlink:href="#SimHei-45"/>
      <use xlink:href="#SimHei-6d" transform="translate(50 0)"/>
      <use xlink:href="#SimHei-70" transform="translate(100 0)"/>
      <use xlink:href="#SimHei-69" transform="translate(150 0)"/>
      <use xlink:href="#SimHei-72" transform="translate(200 0)"/>
      <use xlink:href="#SimHei-69" transform="translate(250 0)"/>
      <use xlink:href="#SimHei-63" transform="translate(300 0)"/>
      <use xlink:href="#SimHei-61" transform="translate(350 0)"/>
      <use xlink:href="#SimHei-6c" transform="translate(400 0)"/>
      <use xlink:href="#SimHei-20" transform="translate(450 0)"/>
      <use xlink:href="#SimHei-2013" transform="translate(500 0)"/>
      <use xlink:href="#SimHei-20" transform="translate(600 0)"/>
      <use xlink:href="#SimHei-53" transform="translate(650 0)"/>
      <use xlink:href="#SimHei-69" transform="translate(700 0)"/>
      <use xlink:href="#SimHei-6d" transform="translate(750 0)"/>
      <use xlink:href="#SimHei-70" transform="translate(800 0)"/>
      <use xlink:href="#SimHei-6c" transform="translate(850 0)"/>
      <use xlink:href="#SimHei-65" transform="translate(900 0)"/>
      <use xlink:href="#SimHei-20" transform="translate(950 0)"/>
      <use xlink:href="#SimHei-28" transform="translate(1000 0)"/>
      <use xlink:href="#SimHei-69" transform="translate(1050 0)"/>
      <use xlink:href="#SimHei-2f" transform="translate(1100 0)"/>
      <use xlink:href="#SimHei-6e" transform="translate(1150 0)"/>
      <use xlink:href="#SimHei-29" transform="translate(1200 0)"/>
     </g>
    </g>
    <g id="line2d_19">
     <path d="M 57.321094 47.746875 
L 67.321094 47.746875 
L 77.321094 47.746875 
" style="fill: none; stroke-dasharray: 5.55,2.4; stroke-dashoffset: 0; stroke: #ff7f0e; stroke-opacity: 0.85; stroke-width: 1.5"/>
     <g>
      <use xlink:href="#mf30f81cd03" x="67.321094" y="47.746875" style="fill: #ff7f0e; fill-opacity: 0.85; stroke: #ff7f0e; stroke-opacity: 0.85; stroke-linejoin: miter"/>
     </g>
    </g>
    <g id="text_17">
     <!-- Empirical – Mean Rank -->
     <g style="fill: #262626" transform="translate(85.321094 51.246875) scale(0.1 -0.1)">
      <defs>
       <path id="SimHei-4d" d="M 2925 125 
L 2425 125 
L 2425 3175 
L 2375 3175 
L 1775 125 
L 1375 125 
L 775 3175 
L 725 3175 
L 725 125 
L 225 125 
L 225 4400 
L 1000 4400 
L 1550 1575 
L 1600 1575 
L 2150 4400 
L 2925 4400 
L 2925 125 
z
" transform="scale(0.015625)"/>
       <path id="SimHei-52" d="M 3000 125 
L 2400 125 
L 1500 1975 
L 850 1975 
L 850 125 
L 275 125 
L 275 4400 
L 1525 4400 
Q 2125 4400 2500 4112 
Q 2875 3825 2875 3175 
Q 2875 2675 2625 2400 
Q 2375 2125 2050 2050 
L 3000 125 
z
M 2300 3175 
Q 2300 3525 2087 3725 
Q 1875 3925 1400 3925 
L 850 3925 
L 850 2450 
L 1550 2450 
Q 1850 2450 2075 2612 
Q 2300 2775 2300 3175 
z
" transform="scale(0.015625)"/>
       <path id="SimHei-6b" d="M 2925 125 
L 2350 125 
L 1450 1650 
L 875 1100 
L 875 125 
L 375 125 
L 375 4400 
L 875 4400 
L 875 1675 
L 2125 2925 
L 2750 2925 
L 1775 1975 
L 2925 125 
z
" transform="scale(0.015625)"/>
      </defs>
      <use xlink:href="#SimHei-45"/>
      <use xlink:href="#SimHei-6d" transform="translate(50 0)"/>
      <use xlink:href="#SimHei-70" transform="translate(100 0)"/>
      <use xlink:href="#SimHei-69" transform="translate(150 0)"/>
      <use xlink:href="#SimHei-72" transform="translate(200 0)"/>
      <use xlink:href="#SimHei-69" transform="translate(250 0)"/>
      <use xlink:href="#SimHei-63" transform="translate(300 0)"/>
      <use xlink:href="#SimHei-61" transform="translate(350 0)"/>
      <use xlink:href="#SimHei-6c" transform="translate(400 0)"/>
      <use xlink:href="#SimHei-20" transform="translate(450 0)"/>
      <use xlink:href="#SimHei-2013" transform="translate(500 0)"/>
      <use xlink:href="#SimHei-20" transform="translate(600 0)"/>
      <use xlink:href="#SimHei-4d" transform="translate(650 0)"/>
      <use xlink:href="#SimHei-65" transform="translate(700 0)"/>
      <use xlink:href="#SimHei-61" transform="translate(750 0)"/>
      <use xlink:href="#SimHei-6e" transform="translate(800 0)"/>
      <use xlink:href="#SimHei-20" transform="translate(850 0)"/>
      <use xlink:href="#SimHei-52" transform="translate(900 0)"/>
      <use xlink:href="#SimHei-61" transform="translate(950 0)"/>
      <use xlink:href="#SimHei-6e" transform="translate(1000 0)"/>
      <use xlink:href="#SimHei-6b" transform="translate(1050 0)"/>
     </g>
    </g>
    <g id="line2d_20">
     <path d="M 57.321094 60.996875 
L 67.321094 60.996875 
L 77.321094 60.996875 
" style="fill: none; stroke-dasharray: 5.55,2.4; stroke-dashoffset: 0; stroke: #2ca02c; stroke-opacity: 0.85; stroke-width: 1.5"/>
     <g>
      <use xlink:href="#md70d2e8e99" x="67.321094" y="60.996875" style="fill: #2ca02c; fill-opacity: 0.85; stroke: #2ca02c; stroke-opacity: 0.85; stroke-linejoin: miter"/>
     </g>
    </g>
    <g id="text_18">
     <!-- Empirical – Median Rank -->
     <g style="fill: #262626" transform="translate(85.321094 64.496875) scale(0.1 -0.1)">
      <defs>
       <path id="SimHei-64" d="M 2750 125 
L 2250 125 
L 2250 500 
Q 2100 275 1900 175 
Q 1700 75 1425 75 
Q 925 75 575 437 
Q 225 800 225 1525 
Q 225 2250 575 2625 
Q 925 3000 1425 3000 
Q 1700 3000 1900 2887 
Q 2100 2775 2250 2550 
L 2250 4400 
L 2750 4400 
L 2750 125 
z
M 2250 1525 
Q 2250 2000 2037 2275 
Q 1825 2550 1525 2550 
Q 1150 2550 962 2275 
Q 775 2000 775 1525 
Q 775 1050 962 787 
Q 1150 525 1525 525 
Q 1825 525 2037 787 
Q 2250 1050 2250 1525 
z
" transform="scale(0.015625)"/>
      </defs>
      <use xlink:href="#SimHei-45"/>
      <use xlink:href="#SimHei-6d" transform="translate(50 0)"/>
      <use xlink:href="#SimHei-70" transform="translate(100 0)"/>
      <use xlink:href="#SimHei-69" transform="translate(150 0)"/>
      <use xlink:href="#SimHei-72" transform="translate(200 0)"/>
      <use xlink:href="#SimHei-69" transform="translate(250 0)"/>
      <use xlink:href="#SimHei-63" transform="translate(300 0)"/>
      <use xlink:href="#SimHei-61" transform="translate(350 0)"/>
      <use xlink:href="#SimHei-6c" transform="translate(400 0)"/>
      <use xlink:href="#SimHei-20" transform="translate(450 0)"/>
      <use xlink:href="#SimHei-2013" transform="translate(500 0)"/>
      <use xlink:href="#SimHei-20" transform="translate(600 0)"/>
      <use xlink:href="#SimHei-4d" transform="translate(650 0)"/>
      <use xlink:href="#SimHei-65" transform="translate(700 0)"/>
      <use xlink:href="#SimHei-64" transform="translate(750 0)"/>
      <use xlink:href="#SimHei-69" transform="translate(800 0)"/>
      <use xlink:href="#SimHei-61" transform="translate(850 0)"/>
      <use xlink:href="#SimHei-6e" transform="translate(900 0)"/>
      <use xlink:href="#SimHei-20" transform="translate(950 0)"/>
      <use xlink:href="#SimHei-52" transform="translate(1000 0)"/>
      <use xlink:href="#SimHei-61" transform="translate(1050 0)"/>
      <use xlink:href="#SimHei-6e" transform="translate(1100 0)"/>
      <use xlink:href="#SimHei-6b" transform="translate(1150 0)"/>
     </g>
    </g>
   </g>
  </g>
 </g>
 <defs>
  <clipPath id="pb28d974ce5">
   <rect x="48.321094" y="7.2" width="652.17375" height="372.00375"/>
  </clipPath>
 </defs>
</svg>
