<?xml version="1.0" encoding="utf-8" standalone="no"?>
<!DOCTYPE svg PUBLIC "-//W3C//DTD SVG 1.1//EN"
  "http://www.w3.org/Graphics/SVG/1.1/DTD/svg11.dtd">
<svg xmlns:xlink="http://www.w3.org/1999/xlink" width="919.11pt" height="638.373437pt" viewBox="0 0 919.11 638.373437" xmlns="http://www.w3.org/2000/svg" version="1.1">
 <metadata>
  <rdf:RDF xmlns:dc="http://purl.org/dc/elements/1.1/" xmlns:cc="http://creativecommons.org/ns#" xmlns:rdf="http://www.w3.org/1999/02/22-rdf-syntax-ns#">
   <cc:Work>
    <dc:type rdf:resource="http://purl.org/dc/dcmitype/StillImage"/>
    <dc:date>2026-03-23T00:27:27.855640</dc:date>
    <dc:format>image/svg+xml</dc:format>
    <dc:creator>
     <cc:Agent>
      <dc:title>Matplotlib v3.10.8, https://matplotlib.org/</dc:title>
     </cc:Agent>
    </dc:creator>
   </cc:Work>
  </rdf:RDF>
 </metadata>
 <defs>
  <style type="text/css">*{stroke-linejoin: round; stroke-linecap: butt}</style>
 </defs>
 <g id="figure_1">
  <g id="patch_1">
   <path d="M 0 638.373437 
L 919.11 638.373437 
L 919.11 0 
L 0 0 
z
" style="fill: #ffffff"/>
  </g>
  <g id="axes_1">
   <g id="patch_2">
    <path d="M 73.575 259.830312 
L 435.67875 259.830312 
L 435.67875 23.426562 
L 73.575 23.426562 
z
" style="fill: #ffffff"/>
   </g>
   <g id="matplotlib.axis_1">
    <g id="xtick_1">
     <g id="line2d_1">
      <path d="M 90.002177 259.830312 
L 90.002177 23.426562 
" clip-path="url(#p03aba06f00)" style="fill: none; stroke-dasharray: 3.7,1.6; stroke-dashoffset: 0; stroke: #cccccc; stroke-opacity: 0.4"/>
     </g>
     <g id="text_1">
      <!-- 0 -->
      <g style="fill: #262626" transform="translate(86.502177 278.955312) scale(0.14 -0.14)">
       <defs>
        <path id="SimHei-30" d="M 225 2537 
Q 250 3200 412 3587 
Q 575 3975 875 4225 
Q 1175 4475 1612 4475 
Q 2050 4475 2375 4112 
Q 2700 3750 2800 3200 
Q 2900 2650 2862 1937 
Q 2825 1225 2612 775 
Q 2400 325 1975 150 
Q 1550 -25 1125 187 
Q 700 400 525 750 
Q 350 1100 275 1487 
Q 200 1875 225 2537 
z
M 750 2687 
Q 675 2000 800 1462 
Q 925 925 1212 700 
Q 1500 475 1800 612 
Q 2100 750 2237 1162 
Q 2375 1575 2375 2062 
Q 2375 2550 2337 2950 
Q 2300 3350 2112 3675 
Q 1925 4000 1612 4012 
Q 1300 4025 1062 3700 
Q 825 3375 750 2687 
z
" transform="scale(0.015625)"/>
       </defs>
       <use xlink:href="#SimHei-30"/>
      </g>
     </g>
    </g>
    <g id="xtick_2">
     <g id="line2d_2">
      <path d="M 154.170008 259.830312 
L 154.170008 23.426562 
" clip-path="url(#p03aba06f00)" style="fill: none; stroke-dasharray: 3.7,1.6; stroke-dashoffset: 0; stroke: #cccccc; stroke-opacity: 0.4"/>
     </g>
     <g id="text_2">
      <!-- 2000 -->
      <g style="fill: #262626" transform="translate(140.170008 278.955312) scale(0.14 -0.14)">
       <defs>
        <path id="SimHei-32" d="M 300 250 
Q 325 625 650 925 
Q 975 1225 1475 1862 
Q 1975 2500 2125 2850 
Q 2275 3200 2237 3450 
Q 2200 3700 2000 3862 
Q 1800 4025 1537 4000 
Q 1275 3975 1037 3800 
Q 800 3625 675 3275 
L 200 3350 
Q 400 3925 712 4187 
Q 1025 4450 1450 4475 
Q 1700 4500 1900 4462 
Q 2100 4425 2312 4287 
Q 2525 4150 2662 3875 
Q 2800 3600 2762 3212 
Q 2725 2825 2375 2287 
Q 2025 1750 1025 600 
L 2825 600 
L 2825 150 
L 300 150 
L 300 250 
z
" transform="scale(0.015625)"/>
       </defs>
       <use xlink:href="#SimHei-32"/>
       <use xlink:href="#SimHei-30" transform="translate(50 0)"/>
       <use xlink:href="#SimHei-30" transform="translate(100 0)"/>
       <use xlink:href="#SimHei-30" transform="translate(150 0)"/>
      </g>
     </g>
    </g>
    <g id="xtick_3">
     <g id="line2d_3">
      <path d="M 218.337839 259.830312 
L 218.337839 23.426562 
" clip-path="url(#p03aba06f00)" style="fill: none; stroke-dasharray: 3.7,1.6; stroke-dashoffset: 0; stroke: #cccccc; stroke-opacity: 0.4"/>
     </g>
     <g id="text_3">
      <!-- 4000 -->
      <g style="fill: #262626" transform="translate(204.337839 278.955312) scale(0.14 -0.14)">
       <defs>
        <path id="SimHei-34" d="M 2000 1100 
L 75 1100 
L 75 1525 
L 2100 4450 
L 2475 4450 
L 2475 1525 
L 3075 1525 
L 3075 1100 
L 2475 1100 
L 2475 150 
L 2000 150 
L 2000 1100 
z
M 2000 1525 
L 2000 3500 
L 600 1525 
L 2000 1525 
z
" transform="scale(0.015625)"/>
       </defs>
       <use xlink:href="#SimHei-34"/>
       <use xlink:href="#SimHei-30" transform="translate(50 0)"/>
       <use xlink:href="#SimHei-30" transform="translate(100 0)"/>
       <use xlink:href="#SimHei-30" transform="translate(150 0)"/>
      </g>
     </g>
    </g>
    <g id="xtick_4">
     <g id="line2d_4">
      <path d="M 282.50567 259.830312 
L 282.50567 23.426562 
" clip-path="url(#p03aba06f00)" style="fill: none; stroke-dasharray: 3.7,1.6; stroke-dashoffset: 0; stroke: #cccccc; stroke-opacity: 0.4"/>
     </g>
     <g id="text_4">
      <!-- 6000 -->
      <g style="fill: #262626" transform="translate(268.50567 278.955312) scale(0.14 -0.14)">
       <defs>
        <path id="SimHei-36" d="M 250 1612 
Q 275 1975 387 2225 
Q 500 2475 725 2850 
L 1750 4450 
L 2325 4450 
L 1275 2800 
Q 1950 2975 2350 2750 
Q 2750 2525 2887 2237 
Q 3025 1950 3037 1612 
Q 3050 1275 2937 950 
Q 2825 625 2537 362 
Q 2250 100 1737 75 
Q 1225 50 862 262 
Q 500 475 362 862 
Q 225 1250 250 1612 
z
M 1025 787 
Q 1250 550 1625 525 
Q 2000 500 2250 775 
Q 2500 1050 2500 1575 
Q 2500 2100 2187 2300 
Q 1875 2500 1487 2450 
Q 1100 2400 925 2075 
Q 750 1750 775 1387 
Q 800 1025 1025 787 
z
" transform="scale(0.015625)"/>
       </defs>
       <use xlink:href="#SimHei-36"/>
       <use xlink:href="#SimHei-30" transform="translate(50 0)"/>
       <use xlink:href="#SimHei-30" transform="translate(100 0)"/>
       <use xlink:href="#SimHei-30" transform="translate(150 0)"/>
      </g>
     </g>
    </g>
    <g id="xtick_5">
     <g id="line2d_5">
      <path d="M 346.673501 259.830312 
L 346.673501 23.426562 
" clip-path="url(#p03aba06f00)" style="fill: none; stroke-dasharray: 3.7,1.6; stroke-dashoffset: 0; stroke: #cccccc; stroke-opacity: 0.4"/>
     </g>
     <g id="text_5">
      <!-- 8000 -->
      <g style="fill: #262626" transform="translate(332.673501 278.955312) scale(0.14 -0.14)">
       <defs>
        <path id="SimHei-38" d="M 175 1375 
Q 175 1675 325 1962 
Q 475 2250 825 2425 
Q 525 2600 425 2812 
Q 325 3025 312 3300 
Q 300 3575 387 3775 
Q 475 3975 650 4150 
Q 825 4325 1037 4387 
Q 1250 4450 1500 4450 
Q 1750 4450 1950 4400 
Q 2150 4350 2375 4187 
Q 2600 4025 2700 3725 
Q 2800 3425 2687 3025 
Q 2575 2625 2100 2400 
Q 2525 2275 2700 2012 
Q 2875 1750 2875 1375 
Q 2875 1000 2762 775 
Q 2650 550 2512 400 
Q 2375 250 2137 162 
Q 1900 75 1537 75 
Q 1175 75 912 162 
Q 650 250 475 425 
Q 300 600 237 837 
Q 175 1075 175 1375 
z
M 687 1400 
Q 675 1100 787 875 
Q 900 650 1200 587 
Q 1500 525 1825 600 
Q 2150 675 2275 950 
Q 2400 1225 2362 1500 
Q 2325 1775 2050 1962 
Q 1775 2150 1450 2125 
Q 1125 2100 912 1900 
Q 700 1700 687 1400 
z
M 775 3350 
Q 775 3100 950 2875 
Q 1125 2650 1500 2650 
Q 1875 2650 2062 2875 
Q 2250 3100 2237 3412 
Q 2225 3725 2012 3875 
Q 1800 4025 1437 4000 
Q 1075 3975 925 3787 
Q 775 3600 775 3350 
z
" transform="scale(0.015625)"/>
       </defs>
       <use xlink:href="#SimHei-38"/>
       <use xlink:href="#SimHei-30" transform="translate(50 0)"/>
       <use xlink:href="#SimHei-30" transform="translate(100 0)"/>
       <use xlink:href="#SimHei-30" transform="translate(150 0)"/>
      </g>
     </g>
    </g>
    <g id="xtick_6">
     <g id="line2d_6">
      <path d="M 410.841332 259.830312 
L 410.841332 23.426562 
" clip-path="url(#p03aba06f00)" style="fill: none; stroke-dasharray: 3.7,1.6; stroke-dashoffset: 0; stroke: #cccccc; stroke-opacity: 0.4"/>
     </g>
     <g id="text_6">
      <!-- 10000 -->
      <g style="fill: #262626" transform="translate(393.341332 278.955312) scale(0.14 -0.14)">
       <defs>
        <path id="SimHei-31" d="M 1400 3600 
Q 1075 3275 575 2975 
L 575 3450 
Q 1200 3875 1600 4450 
L 1900 4450 
L 1900 150 
L 1400 150 
L 1400 3600 
z
" transform="scale(0.015625)"/>
       </defs>
       <use xlink:href="#SimHei-31"/>
       <use xlink:href="#SimHei-30" transform="translate(50 0)"/>
       <use xlink:href="#SimHei-30" transform="translate(100 0)"/>
       <use xlink:href="#SimHei-30" transform="translate(150 0)"/>
       <use xlink:href="#SimHei-30" transform="translate(200 0)"/>
      </g>
     </g>
    </g>
    <g id="text_7">
     <!-- Time (h) -->
     <g style="fill: #262626" transform="translate(230.626875 293.470937) scale(0.12 -0.12)">
      <defs>
       <path id="SimHei-54" d="M 2850 3925 
L 1850 3925 
L 1850 125 
L 1275 125 
L 1275 3925 
L 275 3925 
L 275 4400 
L 2850 4400 
L 2850 3925 
z
" transform="scale(0.015625)"/>
       <path id="SimHei-69" d="M 1800 3725 
L 1300 3725 
L 1300 4375 
L 1800 4375 
L 1800 3725 
z
M 1800 125 
L 1300 125 
L 1300 2925 
L 1800 2925 
L 1800 125 
z
" transform="scale(0.015625)"/>
       <path id="SimHei-6d" d="M 3050 125 
L 2550 125 
L 2550 2150 
Q 2550 2300 2500 2400 
Q 2450 2500 2300 2500 
Q 2125 2500 1975 2312 
Q 1825 2125 1825 1825 
L 1825 125 
L 1325 125 
L 1325 2150 
Q 1325 2300 1275 2400 
Q 1225 2500 1075 2500 
Q 900 2500 750 2312 
Q 600 2125 600 1825 
L 600 125 
L 100 125 
L 100 2925 
L 600 2925 
L 600 2550 
Q 725 2750 900 2862 
Q 1075 2975 1275 2975 
Q 1475 2975 1612 2862 
Q 1750 2750 1800 2550 
Q 1925 2750 2087 2862 
Q 2250 2975 2450 2975 
Q 2750 2975 2900 2812 
Q 3050 2650 3050 2350 
L 3050 125 
z
" transform="scale(0.015625)"/>
       <path id="SimHei-65" d="M 2850 1075 
Q 2800 625 2450 350 
Q 2100 75 1625 75 
Q 1025 75 637 462 
Q 250 850 250 1525 
Q 250 2200 637 2587 
Q 1025 2975 1625 2975 
Q 2150 2975 2487 2637 
Q 2825 2300 2825 1525 
L 800 1525 
Q 800 975 1037 750 
Q 1275 525 1625 525 
Q 1900 525 2075 662 
Q 2250 800 2300 1075 
L 2850 1075 
z
M 2250 1925 
Q 2200 2275 2025 2412 
Q 1850 2550 1575 2550 
Q 1325 2550 1125 2412 
Q 925 2275 825 1925 
L 2250 1925 
z
" transform="scale(0.015625)"/>
       <path id="SimHei-20" transform="scale(0.015625)"/>
       <path id="SimHei-28" d="M 2975 -200 
L 2700 -475 
Q 2075 125 1762 775 
Q 1450 1425 1450 2250 
Q 1450 3075 1762 3725 
Q 2075 4375 2700 5000 
L 2975 4725 
Q 2400 4175 2112 3587 
Q 1825 3000 1825 2250 
Q 1825 1500 2112 912 
Q 2400 325 2975 -200 
z
" transform="scale(0.015625)"/>
       <path id="SimHei-68" d="M 2800 125 
L 2300 125 
L 2300 1925 
Q 2300 2225 2150 2400 
Q 2000 2575 1750 2575 
Q 1425 2575 1137 2237 
Q 850 1900 850 1400 
L 850 125 
L 350 125 
L 350 4400 
L 850 4400 
L 850 2400 
Q 1050 2675 1287 2825 
Q 1525 2975 1900 2975 
Q 2350 2975 2575 2725 
Q 2800 2475 2800 2100 
L 2800 125 
z
" transform="scale(0.015625)"/>
       <path id="SimHei-29" d="M 1675 2250 
Q 1675 1425 1362 775 
Q 1050 125 425 -475 
L 150 -200 
Q 725 325 1012 912 
Q 1300 1500 1300 2250 
Q 1300 3000 1012 3587 
Q 725 4175 150 4725 
L 425 5000 
Q 1050 4375 1362 3725 
Q 1675 3075 1675 2250 
z
" transform="scale(0.015625)"/>
      </defs>
      <use xlink:href="#SimHei-54"/>
      <use xlink:href="#SimHei-69" transform="translate(50 0)"/>
      <use xlink:href="#SimHei-6d" transform="translate(100 0)"/>
      <use xlink:href="#SimHei-65" transform="translate(150 0)"/>
      <use xlink:href="#SimHei-20" transform="translate(200 0)"/>
      <use xlink:href="#SimHei-28" transform="translate(250 0)"/>
      <use xlink:href="#SimHei-68" transform="translate(300 0)"/>
      <use xlink:href="#SimHei-29" transform="translate(350 0)"/>
     </g>
    </g>
   </g>
   <g id="matplotlib.axis_2">
    <g id="ytick_1">
     <g id="line2d_7">
      <path d="M 73.575 249.084687 
L 435.67875 249.084687 
" clip-path="url(#p03aba06f00)" style="fill: none; stroke-dasharray: 3.7,1.6; stroke-dashoffset: 0; stroke: #cccccc; stroke-opacity: 0.4"/>
     </g>
     <g id="text_8">
      <!-- 0.0000 -->
      <g style="fill: #262626" transform="translate(22.075 253.897187) scale(0.14 -0.14)">
       <defs>
        <path id="SimHei-2e" d="M 1075 125 
L 500 125 
L 500 675 
L 1075 675 
L 1075 125 
z
" transform="scale(0.015625)"/>
       </defs>
       <use xlink:href="#SimHei-30"/>
       <use xlink:href="#SimHei-2e" transform="translate(50 0)"/>
       <use xlink:href="#SimHei-30" transform="translate(100 0)"/>
       <use xlink:href="#SimHei-30" transform="translate(150 0)"/>
       <use xlink:href="#SimHei-30" transform="translate(200 0)"/>
       <use xlink:href="#SimHei-30" transform="translate(250 0)"/>
      </g>
     </g>
    </g>
    <g id="ytick_2">
     <g id="line2d_8">
      <path d="M 73.575 195.325266 
L 435.67875 195.325266 
" clip-path="url(#p03aba06f00)" style="fill: none; stroke-dasharray: 3.7,1.6; stroke-dashoffset: 0; stroke: #cccccc; stroke-opacity: 0.4"/>
     </g>
     <g id="text_9">
      <!-- 0.0001 -->
      <g style="fill: #262626" transform="translate(22.075 200.137766) scale(0.14 -0.14)">
       <use xlink:href="#SimHei-30"/>
       <use xlink:href="#SimHei-2e" transform="translate(50 0)"/>
       <use xlink:href="#SimHei-30" transform="translate(100 0)"/>
       <use xlink:href="#SimHei-30" transform="translate(150 0)"/>
       <use xlink:href="#SimHei-30" transform="translate(200 0)"/>
       <use xlink:href="#SimHei-31" transform="translate(250 0)"/>
      </g>
     </g>
    </g>
    <g id="ytick_3">
     <g id="line2d_9">
      <path d="M 73.575 141.565844 
L 435.67875 141.565844 
" clip-path="url(#p03aba06f00)" style="fill: none; stroke-dasharray: 3.7,1.6; stroke-dashoffset: 0; stroke: #cccccc; stroke-opacity: 0.4"/>
     </g>
     <g id="text_10">
      <!-- 0.0002 -->
      <g style="fill: #262626" transform="translate(22.075 146.378344) scale(0.14 -0.14)">
       <use xlink:href="#SimHei-30"/>
       <use xlink:href="#SimHei-2e" transform="translate(50 0)"/>
       <use xlink:href="#SimHei-30" transform="translate(100 0)"/>
       <use xlink:href="#SimHei-30" transform="translate(150 0)"/>
       <use xlink:href="#SimHei-30" transform="translate(200 0)"/>
       <use xlink:href="#SimHei-32" transform="translate(250 0)"/>
      </g>
     </g>
    </g>
    <g id="ytick_4">
     <g id="line2d_10">
      <path d="M 73.575 87.806423 
L 435.67875 87.806423 
" clip-path="url(#p03aba06f00)" style="fill: none; stroke-dasharray: 3.7,1.6; stroke-dashoffset: 0; stroke: #cccccc; stroke-opacity: 0.4"/>
     </g>
     <g id="text_11">
      <!-- 0.0003 -->
      <g style="fill: #262626" transform="translate(22.075 92.618923) scale(0.14 -0.14)">
       <defs>
        <path id="SimHei-33" d="M 250 1225 
L 700 1300 
Q 800 975 1025 762 
Q 1250 550 1587 562 
Q 1925 575 2125 837 
Q 2325 1100 2300 1437 
Q 2275 1775 2037 1962 
Q 1800 2150 1275 2225 
L 1275 2550 
Q 1800 2600 2037 2825 
Q 2275 3050 2250 3412 
Q 2225 3775 1925 3937 
Q 1625 4100 1287 3975 
Q 950 3850 750 3275 
L 300 3350 
Q 450 3800 712 4100 
Q 975 4400 1425 4450 
Q 1875 4500 2212 4337 
Q 2550 4175 2687 3837 
Q 2825 3500 2725 3100 
Q 2625 2700 2150 2400 
Q 2500 2250 2687 1950 
Q 2875 1650 2812 1162 
Q 2750 675 2375 375 
Q 2000 75 1525 87 
Q 1050 100 700 387 
Q 350 675 250 1225 
z
" transform="scale(0.015625)"/>
       </defs>
       <use xlink:href="#SimHei-30"/>
       <use xlink:href="#SimHei-2e" transform="translate(50 0)"/>
       <use xlink:href="#SimHei-30" transform="translate(100 0)"/>
       <use xlink:href="#SimHei-30" transform="translate(150 0)"/>
       <use xlink:href="#SimHei-30" transform="translate(200 0)"/>
       <use xlink:href="#SimHei-33" transform="translate(250 0)"/>
      </g>
     </g>
    </g>
    <g id="ytick_5">
     <g id="line2d_11">
      <path d="M 73.575 34.047001 
L 435.67875 34.047001 
" clip-path="url(#p03aba06f00)" style="fill: none; stroke-dasharray: 3.7,1.6; stroke-dashoffset: 0; stroke: #cccccc; stroke-opacity: 0.4"/>
     </g>
     <g id="text_12">
      <!-- 0.0004 -->
      <g style="fill: #262626" transform="translate(22.075 38.859501) scale(0.14 -0.14)">
       <use xlink:href="#SimHei-30"/>
       <use xlink:href="#SimHei-2e" transform="translate(50 0)"/>
       <use xlink:href="#SimHei-30" transform="translate(100 0)"/>
       <use xlink:href="#SimHei-30" transform="translate(150 0)"/>
       <use xlink:href="#SimHei-30" transform="translate(200 0)"/>
       <use xlink:href="#SimHei-34" transform="translate(250 0)"/>
      </g>
     </g>
    </g>
    <g id="text_13">
     <!-- Probability Density f(t) -->
     <g style="fill: #262626" transform="translate(16.575 213.628437) rotate(-90) scale(0.12 -0.12)">
      <defs>
       <path id="SimHei-50" d="M 2950 3100 
Q 2950 2500 2600 2150 
Q 2250 1800 1625 1800 
L 900 1800 
L 900 125 
L 325 125 
L 325 4400 
L 1625 4400 
Q 2250 4400 2600 4050 
Q 2950 3700 2950 3100 
z
M 2375 3100 
Q 2375 3575 2150 3750 
Q 1925 3925 1475 3925 
L 900 3925 
L 900 2275 
L 1475 2275 
Q 1925 2275 2150 2450 
Q 2375 2625 2375 3100 
z
" transform="scale(0.015625)"/>
       <path id="SimHei-72" d="M 2500 2425 
Q 2025 2500 1700 2287 
Q 1375 2075 1150 1550 
L 1150 125 
L 650 125 
L 650 2925 
L 1150 2925 
L 1150 2200 
Q 1375 2600 1712 2787 
Q 2050 2975 2500 2975 
L 2500 2425 
z
" transform="scale(0.015625)"/>
       <path id="SimHei-6f" d="M 2925 1525 
Q 2925 875 2525 475 
Q 2125 75 1575 75 
Q 1025 75 625 475 
Q 225 875 225 1525 
Q 225 2175 625 2575 
Q 1025 2975 1575 2975 
Q 2125 2975 2525 2575 
Q 2925 2175 2925 1525 
z
M 2375 1525 
Q 2375 2025 2125 2275 
Q 1875 2525 1575 2525 
Q 1275 2525 1025 2275 
Q 775 2025 775 1525 
Q 775 1025 1025 775 
Q 1275 525 1575 525 
Q 1875 525 2125 775 
Q 2375 1025 2375 1525 
z
" transform="scale(0.015625)"/>
       <path id="SimHei-62" d="M 2825 1525 
Q 2825 800 2475 437 
Q 2125 75 1625 75 
Q 1350 75 1150 175 
Q 950 275 800 500 
L 800 125 
L 300 125 
L 300 4400 
L 800 4400 
L 800 2550 
Q 950 2775 1150 2887 
Q 1350 3000 1625 3000 
Q 2125 3000 2475 2625 
Q 2825 2250 2825 1525 
z
M 2275 1525 
Q 2275 2000 2087 2275 
Q 1900 2550 1525 2550 
Q 1225 2550 1012 2275 
Q 800 2000 800 1525 
Q 800 1050 1012 787 
Q 1225 525 1525 525 
Q 1900 525 2087 787 
Q 2275 1050 2275 1525 
z
" transform="scale(0.015625)"/>
       <path id="SimHei-61" d="M 2875 125 
L 2275 125 
Q 2225 175 2200 262 
Q 2175 350 2175 475 
Q 2000 275 1750 175 
Q 1500 75 1225 75 
Q 825 75 550 275 
Q 275 475 275 850 
Q 275 1225 525 1450 
Q 775 1675 1300 1750 
Q 1650 1800 1912 1875 
Q 2175 1950 2175 2075 
Q 2175 2225 2062 2375 
Q 1950 2525 1575 2525 
Q 1275 2525 1137 2412 
Q 1000 2300 950 2100 
L 400 2100 
Q 450 2500 762 2737 
Q 1075 2975 1575 2975 
Q 2125 2975 2400 2725 
Q 2675 2475 2675 2025 
L 2675 650 
Q 2675 500 2725 375 
Q 2775 250 2875 125 
z
M 2175 1050 
L 2175 1550 
Q 2025 1500 1887 1462 
Q 1750 1425 1425 1375 
Q 1050 1325 937 1200 
Q 825 1075 825 900 
Q 825 750 937 637 
Q 1050 525 1275 525 
Q 1500 525 1762 650 
Q 2025 775 2175 1050 
z
" transform="scale(0.015625)"/>
       <path id="SimHei-6c" d="M 1825 125 
L 1325 125 
L 1325 4400 
L 1825 4400 
L 1825 125 
z
" transform="scale(0.015625)"/>
       <path id="SimHei-74" d="M 2750 200 
Q 2625 150 2462 112 
Q 2300 75 2025 75 
Q 1575 75 1300 325 
Q 1025 575 1025 1025 
L 1025 2525 
L 175 2525 
L 175 2925 
L 1025 2925 
L 1025 3900 
L 1525 3900 
L 1525 2925 
L 2550 2925 
L 2550 2525 
L 1525 2525 
L 1525 1000 
Q 1525 800 1625 662 
Q 1725 525 2000 525 
Q 2275 525 2450 575 
Q 2625 625 2750 700 
L 2750 200 
z
" transform="scale(0.015625)"/>
       <path id="SimHei-79" d="M 2900 2925 
L 1750 -100 
Q 1650 -450 1450 -625 
Q 1250 -800 950 -800 
Q 825 -800 712 -787 
Q 600 -775 500 -725 
L 500 -225 
Q 600 -275 700 -300 
Q 800 -325 875 -325 
Q 1075 -325 1150 -262 
Q 1225 -200 1300 25 
L 200 2925 
L 750 2925 
L 1550 725 
L 1575 725 
L 2350 2925 
L 2900 2925 
z
" transform="scale(0.015625)"/>
       <path id="SimHei-44" d="M 2925 2250 
Q 2925 1100 2437 612 
Q 1950 125 1125 125 
L 275 125 
L 275 4400 
L 1125 4400 
Q 2050 4400 2487 3900 
Q 2925 3400 2925 2250 
z
M 2325 2250 
Q 2325 3175 2025 3550 
Q 1725 3925 1125 3925 
L 850 3925 
L 850 600 
L 1125 600 
Q 1725 600 2025 962 
Q 2325 1325 2325 2250 
z
" transform="scale(0.015625)"/>
       <path id="SimHei-6e" d="M 2800 125 
L 2300 125 
L 2300 1925 
Q 2300 2225 2150 2400 
Q 2000 2575 1750 2575 
Q 1425 2575 1137 2237 
Q 850 1900 850 1400 
L 850 125 
L 350 125 
L 350 2925 
L 850 2925 
L 850 2400 
Q 1050 2675 1287 2825 
Q 1525 2975 1900 2975 
Q 2350 2975 2575 2725 
Q 2800 2475 2800 2100 
L 2800 125 
z
" transform="scale(0.015625)"/>
       <path id="SimHei-73" d="M 2750 900 
Q 2750 500 2437 287 
Q 2125 75 1650 75 
Q 1050 75 725 312 
Q 400 550 400 1000 
L 900 1000 
Q 900 700 1112 600 
Q 1325 500 1625 500 
Q 1925 500 2075 612 
Q 2225 725 2225 900 
Q 2225 1025 2100 1150 
Q 1975 1275 1475 1350 
Q 900 1425 687 1637 
Q 475 1850 475 2200 
Q 475 2500 762 2737 
Q 1050 2975 1600 2975 
Q 2100 2975 2387 2750 
Q 2675 2525 2675 2150 
L 2175 2150 
Q 2175 2375 2012 2462 
Q 1850 2550 1600 2550 
Q 1275 2550 1137 2437 
Q 1000 2325 1000 2175 
Q 1000 2000 1125 1900 
Q 1250 1800 1650 1750 
Q 2300 1650 2525 1437 
Q 2750 1225 2750 900 
z
" transform="scale(0.015625)"/>
       <path id="SimHei-66" d="M 2850 3825 
Q 2725 3900 2550 3950 
Q 2375 4000 2100 4000 
Q 1825 4000 1725 3862 
Q 1625 3725 1625 3525 
L 1625 2925 
L 2650 2925 
L 2650 2525 
L 1625 2525 
L 1625 125 
L 1125 125 
L 1125 2525 
L 275 2525 
L 275 2925 
L 1125 2925 
L 1125 3500 
Q 1125 3950 1400 4200 
Q 1675 4450 2125 4450 
Q 2400 4450 2562 4412 
Q 2725 4375 2850 4325 
L 2850 3825 
z
" transform="scale(0.015625)"/>
      </defs>
      <use xlink:href="#SimHei-50"/>
      <use xlink:href="#SimHei-72" transform="translate(50 0)"/>
      <use xlink:href="#SimHei-6f" transform="translate(100 0)"/>
      <use xlink:href="#SimHei-62" transform="translate(150 0)"/>
      <use xlink:href="#SimHei-61" transform="translate(200 0)"/>
      <use xlink:href="#SimHei-62" transform="translate(250 0)"/>
      <use xlink:href="#SimHei-69" transform="translate(300 0)"/>
      <use xlink:href="#SimHei-6c" transform="translate(350 0)"/>
      <use xlink:href="#SimHei-69" transform="translate(400 0)"/>
      <use xlink:href="#SimHei-74" transform="translate(450 0)"/>
      <use xlink:href="#SimHei-79" transform="translate(500 0)"/>
      <use xlink:href="#SimHei-20" transform="translate(550 0)"/>
      <use xlink:href="#SimHei-44" transform="translate(600 0)"/>
      <use xlink:href="#SimHei-65" transform="translate(650 0)"/>
      <use xlink:href="#SimHei-6e" transform="translate(700 0)"/>
      <use xlink:href="#SimHei-73" transform="translate(750 0)"/>
      <use xlink:href="#SimHei-69" transform="translate(800 0)"/>
      <use xlink:href="#SimHei-74" transform="translate(850 0)"/>
      <use xlink:href="#SimHei-79" transform="translate(900 0)"/>
      <use xlink:href="#SimHei-20" transform="translate(950 0)"/>
      <use xlink:href="#SimHei-66" transform="translate(1000 0)"/>
      <use xlink:href="#SimHei-28" transform="translate(1050 0)"/>
      <use xlink:href="#SimHei-74" transform="translate(1100 0)"/>
      <use xlink:href="#SimHei-29" transform="translate(1150 0)"/>
     </g>
    </g>
   </g>
   <g id="line2d_12">
    <path d="M 90.034261 249.084687 
L 151.653518 248.980586 
L 157.584783 248.73418 
L 161.53896 248.365767 
L 164.834108 247.839913 
L 167.470226 247.210638 
L 169.776829 246.45839 
L 172.083432 245.470358 
L 174.060521 244.397367 
L 176.037609 243.079198 
L 178.014697 241.479435 
L 179.991786 239.560625 
L 181.968874 237.285175 
L 183.945963 234.616367 
L 185.923051 231.519483 
L 187.90014 227.962994 
L 189.877228 223.919776 
L 191.854317 219.368307 
L 193.831405 214.293812 
L 196.138008 207.70365 
L 198.444611 200.396281 
L 200.751215 192.393031 
L 203.387333 182.446089 
L 206.352965 170.343876 
L 209.977627 154.489796 
L 214.920349 131.69787 
L 222.169673 98.286117 
L 225.46482 84.130979 
L 228.100938 73.656083 
L 230.407541 65.269135 
L 232.714145 57.725256 
L 234.691233 52.00311 
L 236.668322 47.021522 
L 238.315895 43.465668 
L 239.963469 40.470904 
L 241.281528 38.48818 
L 242.599587 36.877664 
L 243.917646 35.64183 
L 244.90619 34.961199 
L 245.894734 34.491112 
L 246.883279 34.230444 
L 247.871823 34.177484 
L 248.860367 34.329956 
L 249.848911 34.68504 
L 250.837455 35.239394 
L 252.155514 36.281808 
L 253.473573 37.661227 
L 254.791632 39.365912 
L 256.439206 41.934301 
L 258.08678 44.962832 
L 259.734354 48.421476 
L 261.711442 53.094561 
L 264.018045 59.193794 
L 266.654163 66.900979 
L 269.619796 76.337469 
L 273.244458 88.683991 
L 278.516694 107.546475 
L 287.084077 138.236127 
L 291.367769 152.735525 
L 294.992431 164.269294 
L 298.287578 174.06552 
L 301.582726 183.146829 
L 304.548358 190.682469 
L 307.513991 197.605708 
L 310.479624 203.920872 
L 313.115742 209.035256 
L 315.75186 213.695826 
L 318.387978 217.921967 
L 321.024096 221.736059 
L 323.660213 225.162604 
L 326.296331 228.227463 
L 328.932449 230.957187 
L 331.568567 233.378453 
L 334.204685 235.517588 
L 337.170318 237.618722 
L 340.135951 239.430044 
L 343.101583 240.984409 
L 346.396731 242.447204 
L 349.691878 243.668821 
L 353.31654 244.775178 
L 357.270717 245.744612 
L 361.554409 246.566403 
L 366.49713 247.281129 
L 372.098881 247.861467 
L 378.689175 248.320024 
L 387.256559 248.67777 
L 398.789575 248.916411 
L 417.2424 249.046658 
L 419.219489 249.051981 
L 419.219489 249.051981 
" clip-path="url(#p03aba06f00)" style="fill: none; stroke: #c44e52; stroke-width: 2.5; stroke-linecap: round"/>
   </g>
   <g id="patch_3">
    <path d="M 73.575 259.830312 
L 73.575 23.426562 
" style="fill: none; stroke: #cccccc; stroke-width: 1.25; stroke-linejoin: miter; stroke-linecap: square"/>
   </g>
   <g id="patch_4">
    <path d="M 435.67875 259.830312 
L 435.67875 23.426562 
" style="fill: none; stroke: #cccccc; stroke-width: 1.25; stroke-linejoin: miter; stroke-linecap: square"/>
   </g>
   <g id="patch_5">
    <path d="M 73.575 259.830312 
L 435.67875 259.830312 
" style="fill: none; stroke: #cccccc; stroke-width: 1.25; stroke-linejoin: miter; stroke-linecap: square"/>
   </g>
   <g id="patch_6">
    <path d="M 73.575 23.426562 
L 435.67875 23.426562 
" style="fill: none; stroke: #cccccc; stroke-width: 1.25; stroke-linejoin: miter; stroke-linecap: square"/>
   </g>
   <g id="text_14">
    <!-- Failure Time PDF (RE Gamma) -->
    <g style="fill: #262626" transform="translate(160.126875 17.426562) scale(0.14 -0.14)">
     <defs>
      <path id="SimHei-46" d="M 2925 3925 
L 875 3925 
L 875 2525 
L 2425 2525 
L 2425 2050 
L 875 2050 
L 875 125 
L 300 125 
L 300 4400 
L 2925 4400 
L 2925 3925 
z
" transform="scale(0.015625)"/>
      <path id="SimHei-75" d="M 2800 125 
L 2300 125 
L 2300 650 
Q 2100 375 1862 225 
Q 1625 75 1250 75 
Q 800 75 575 325 
Q 350 575 350 950 
L 350 2925 
L 850 2925 
L 850 1125 
Q 850 825 1000 650 
Q 1150 475 1400 475 
Q 1725 475 2012 812 
Q 2300 1150 2300 1650 
L 2300 2925 
L 2800 2925 
L 2800 125 
z
" transform="scale(0.015625)"/>
      <path id="SimHei-52" d="M 3000 125 
L 2400 125 
L 1500 1975 
L 850 1975 
L 850 125 
L 275 125 
L 275 4400 
L 1525 4400 
Q 2125 4400 2500 4112 
Q 2875 3825 2875 3175 
Q 2875 2675 2625 2400 
Q 2375 2125 2050 2050 
L 3000 125 
z
M 2300 3175 
Q 2300 3525 2087 3725 
Q 1875 3925 1400 3925 
L 850 3925 
L 850 2450 
L 1550 2450 
Q 1850 2450 2075 2612 
Q 2300 2775 2300 3175 
z
" transform="scale(0.015625)"/>
      <path id="SimHei-45" d="M 2900 125 
L 350 125 
L 350 4400 
L 2775 4400 
L 2775 3925 
L 925 3925 
L 925 2600 
L 2625 2600 
L 2625 2125 
L 925 2125 
L 925 600 
L 2900 600 
L 2900 125 
z
" transform="scale(0.015625)"/>
      <path id="SimHei-47" d="M 2850 75 
L 2425 75 
L 2350 425 
Q 2250 275 2037 175 
Q 1825 75 1575 75 
Q 1050 75 637 562 
Q 225 1050 225 2125 
Q 225 3300 600 3875 
Q 975 4450 1625 4450 
Q 2200 4450 2525 4025 
Q 2850 3600 2850 2925 
L 2300 2925 
Q 2300 3450 2125 3712 
Q 1950 3975 1625 3975 
Q 1225 3975 1025 3562 
Q 825 3150 825 2175 
Q 825 1250 1075 900 
Q 1325 550 1650 550 
Q 1975 550 2162 787 
Q 2350 1025 2350 1525 
L 2350 1800 
L 1575 1800 
L 1575 2275 
L 2850 2275 
L 2850 75 
z
" transform="scale(0.015625)"/>
     </defs>
     <use xlink:href="#SimHei-46"/>
     <use xlink:href="#SimHei-61" transform="translate(50 0)"/>
     <use xlink:href="#SimHei-69" transform="translate(100 0)"/>
     <use xlink:href="#SimHei-6c" transform="translate(150 0)"/>
     <use xlink:href="#SimHei-75" transform="translate(200 0)"/>
     <use xlink:href="#SimHei-72" transform="translate(250 0)"/>
     <use xlink:href="#SimHei-65" transform="translate(300 0)"/>
     <use xlink:href="#SimHei-20" transform="translate(350 0)"/>
     <use xlink:href="#SimHei-54" transform="translate(400 0)"/>
     <use xlink:href="#SimHei-69" transform="translate(450 0)"/>
     <use xlink:href="#SimHei-6d" transform="translate(500 0)"/>
     <use xlink:href="#SimHei-65" transform="translate(550 0)"/>
     <use xlink:href="#SimHei-20" transform="translate(600 0)"/>
     <use xlink:href="#SimHei-50" transform="translate(650 0)"/>
     <use xlink:href="#SimHei-44" transform="translate(700 0)"/>
     <use xlink:href="#SimHei-46" transform="translate(750 0)"/>
     <use xlink:href="#SimHei-20" transform="translate(800 0)"/>
     <use xlink:href="#SimHei-28" transform="translate(850 0)"/>
     <use xlink:href="#SimHei-52" transform="translate(900 0)"/>
     <use xlink:href="#SimHei-45" transform="translate(950 0)"/>
     <use xlink:href="#SimHei-20" transform="translate(1000 0)"/>
     <use xlink:href="#SimHei-47" transform="translate(1050 0)"/>
     <use xlink:href="#SimHei-61" transform="translate(1100 0)"/>
     <use xlink:href="#SimHei-6d" transform="translate(1150 0)"/>
     <use xlink:href="#SimHei-6d" transform="translate(1200 0)"/>
     <use xlink:href="#SimHei-61" transform="translate(1250 0)"/>
     <use xlink:href="#SimHei-29" transform="translate(1300 0)"/>
    </g>
   </g>
   <g id="legend_1">
    <g id="patch_7">
     <path d="M 83.375 153.003437 
L 268.175 153.003437 
Q 270.975 153.003437 270.975 150.203437 
L 270.975 133.053437 
Q 270.975 130.253437 268.175 130.253437 
L 83.375 130.253437 
Q 80.575 130.253437 80.575 133.053437 
L 80.575 150.203437 
Q 80.575 153.003437 83.375 153.003437 
z
" style="fill: #ffffff; opacity: 0.8; stroke: #cccccc; stroke-linejoin: miter"/>
    </g>
    <g id="line2d_13">
     <path d="M 86.175 140.753437 
L 100.175 140.753437 
L 114.175 140.753437 
" style="fill: none; stroke: #c44e52; stroke-width: 2.5; stroke-linecap: round"/>
    </g>
    <g id="text_15">
     <!-- RE Gamma Process PDF -->
     <g style="fill: #262626" transform="translate(125.375 145.653437) scale(0.14 -0.14)">
      <defs>
       <path id="SimHei-63" d="M 2850 1250 
Q 2850 725 2487 400 
Q 2125 75 1575 75 
Q 1025 75 625 462 
Q 225 850 225 1525 
Q 225 2200 625 2587 
Q 1025 2975 1575 2975 
Q 2125 2975 2450 2687 
Q 2775 2400 2775 2000 
L 2225 2000 
Q 2200 2300 2012 2412 
Q 1825 2525 1575 2525 
Q 1275 2525 1025 2287 
Q 775 2050 775 1525 
Q 775 1000 1025 762 
Q 1275 525 1575 525 
Q 1900 525 2100 700 
Q 2300 875 2300 1250 
L 2850 1250 
z
" transform="scale(0.015625)"/>
      </defs>
      <use xlink:href="#SimHei-52"/>
      <use xlink:href="#SimHei-45" transform="translate(50 0)"/>
      <use xlink:href="#SimHei-20" transform="translate(100 0)"/>
      <use xlink:href="#SimHei-47" transform="translate(150 0)"/>
      <use xlink:href="#SimHei-61" transform="translate(200 0)"/>
      <use xlink:href="#SimHei-6d" transform="translate(250 0)"/>
      <use xlink:href="#SimHei-6d" transform="translate(300 0)"/>
      <use xlink:href="#SimHei-61" transform="translate(350 0)"/>
      <use xlink:href="#SimHei-20" transform="translate(400 0)"/>
      <use xlink:href="#SimHei-50" transform="translate(450 0)"/>
      <use xlink:href="#SimHei-72" transform="translate(500 0)"/>
      <use xlink:href="#SimHei-6f" transform="translate(550 0)"/>
      <use xlink:href="#SimHei-63" transform="translate(600 0)"/>
      <use xlink:href="#SimHei-65" transform="translate(650 0)"/>
      <use xlink:href="#SimHei-73" transform="translate(700 0)"/>
      <use xlink:href="#SimHei-73" transform="translate(750 0)"/>
      <use xlink:href="#SimHei-20" transform="translate(800 0)"/>
      <use xlink:href="#SimHei-50" transform="translate(850 0)"/>
      <use xlink:href="#SimHei-44" transform="translate(900 0)"/>
      <use xlink:href="#SimHei-46" transform="translate(950 0)"/>
     </g>
    </g>
   </g>
  </g>
  <g id="axes_2">
   <g id="patch_8">
    <path d="M 549.80625 259.830312 
L 911.91 259.830312 
L 911.91 23.426562 
L 549.80625 23.426562 
z
" style="fill: #ffffff"/>
   </g>
   <g id="matplotlib.axis_3">
    <g id="xtick_7">
     <g id="line2d_14">
      <path d="M 566.233427 259.830312 
L 566.233427 23.426562 
" clip-path="url(#p31a0b515a1)" style="fill: none; stroke-dasharray: 3.7,1.6; stroke-dashoffset: 0; stroke: #cccccc; stroke-opacity: 0.4"/>
     </g>
     <g id="text_16">
      <!-- 0 -->
      <g style="fill: #262626" transform="translate(562.733427 278.955312) scale(0.14 -0.14)">
       <use xlink:href="#SimHei-30"/>
      </g>
     </g>
    </g>
    <g id="xtick_8">
     <g id="line2d_15">
      <path d="M 630.401258 259.830312 
L 630.401258 23.426562 
" clip-path="url(#p31a0b515a1)" style="fill: none; stroke-dasharray: 3.7,1.6; stroke-dashoffset: 0; stroke: #cccccc; stroke-opacity: 0.4"/>
     </g>
     <g id="text_17">
      <!-- 2000 -->
      <g style="fill: #262626" transform="translate(616.401258 278.955312) scale(0.14 -0.14)">
       <use xlink:href="#SimHei-32"/>
       <use xlink:href="#SimHei-30" transform="translate(50 0)"/>
       <use xlink:href="#SimHei-30" transform="translate(100 0)"/>
       <use xlink:href="#SimHei-30" transform="translate(150 0)"/>
      </g>
     </g>
    </g>
    <g id="xtick_9">
     <g id="line2d_16">
      <path d="M 694.569089 259.830312 
L 694.569089 23.426562 
" clip-path="url(#p31a0b515a1)" style="fill: none; stroke-dasharray: 3.7,1.6; stroke-dashoffset: 0; stroke: #cccccc; stroke-opacity: 0.4"/>
     </g>
     <g id="text_18">
      <!-- 4000 -->
      <g style="fill: #262626" transform="translate(680.569089 278.955312) scale(0.14 -0.14)">
       <use xlink:href="#SimHei-34"/>
       <use xlink:href="#SimHei-30" transform="translate(50 0)"/>
       <use xlink:href="#SimHei-30" transform="translate(100 0)"/>
       <use xlink:href="#SimHei-30" transform="translate(150 0)"/>
      </g>
     </g>
    </g>
    <g id="xtick_10">
     <g id="line2d_17">
      <path d="M 758.73692 259.830312 
L 758.73692 23.426562 
" clip-path="url(#p31a0b515a1)" style="fill: none; stroke-dasharray: 3.7,1.6; stroke-dashoffset: 0; stroke: #cccccc; stroke-opacity: 0.4"/>
     </g>
     <g id="text_19">
      <!-- 6000 -->
      <g style="fill: #262626" transform="translate(744.73692 278.955312) scale(0.14 -0.14)">
       <use xlink:href="#SimHei-36"/>
       <use xlink:href="#SimHei-30" transform="translate(50 0)"/>
       <use xlink:href="#SimHei-30" transform="translate(100 0)"/>
       <use xlink:href="#SimHei-30" transform="translate(150 0)"/>
      </g>
     </g>
    </g>
    <g id="xtick_11">
     <g id="line2d_18">
      <path d="M 822.904751 259.830312 
L 822.904751 23.426562 
" clip-path="url(#p31a0b515a1)" style="fill: none; stroke-dasharray: 3.7,1.6; stroke-dashoffset: 0; stroke: #cccccc; stroke-opacity: 0.4"/>
     </g>
     <g id="text_20">
      <!-- 8000 -->
      <g style="fill: #262626" transform="translate(808.904751 278.955312) scale(0.14 -0.14)">
       <use xlink:href="#SimHei-38"/>
       <use xlink:href="#SimHei-30" transform="translate(50 0)"/>
       <use xlink:href="#SimHei-30" transform="translate(100 0)"/>
       <use xlink:href="#SimHei-30" transform="translate(150 0)"/>
      </g>
     </g>
    </g>
    <g id="xtick_12">
     <g id="line2d_19">
      <path d="M 887.072582 259.830312 
L 887.072582 23.426562 
" clip-path="url(#p31a0b515a1)" style="fill: none; stroke-dasharray: 3.7,1.6; stroke-dashoffset: 0; stroke: #cccccc; stroke-opacity: 0.4"/>
     </g>
     <g id="text_21">
      <!-- 10000 -->
      <g style="fill: #262626" transform="translate(869.572582 278.955312) scale(0.14 -0.14)">
       <use xlink:href="#SimHei-31"/>
       <use xlink:href="#SimHei-30" transform="translate(50 0)"/>
       <use xlink:href="#SimHei-30" transform="translate(100 0)"/>
       <use xlink:href="#SimHei-30" transform="translate(150 0)"/>
       <use xlink:href="#SimHei-30" transform="translate(200 0)"/>
      </g>
     </g>
    </g>
    <g id="text_22">
     <!-- Time (h) -->
     <g style="fill: #262626" transform="translate(706.858125 293.470937) scale(0.12 -0.12)">
      <use xlink:href="#SimHei-54"/>
      <use xlink:href="#SimHei-69" transform="translate(50 0)"/>
      <use xlink:href="#SimHei-6d" transform="translate(100 0)"/>
      <use xlink:href="#SimHei-65" transform="translate(150 0)"/>
      <use xlink:href="#SimHei-20" transform="translate(200 0)"/>
      <use xlink:href="#SimHei-28" transform="translate(250 0)"/>
      <use xlink:href="#SimHei-68" transform="translate(300 0)"/>
      <use xlink:href="#SimHei-29" transform="translate(350 0)"/>
     </g>
    </g>
   </g>
   <g id="matplotlib.axis_4">
    <g id="ytick_6">
     <g id="line2d_20">
      <path d="M 549.80625 249.084687 
L 911.91 249.084687 
" clip-path="url(#p31a0b515a1)" style="fill: none; stroke-dasharray: 3.7,1.6; stroke-dashoffset: 0; stroke: #cccccc; stroke-opacity: 0.4"/>
     </g>
     <g id="text_23">
      <!-- 0.0 -->
      <g style="fill: #262626" transform="translate(519.30625 253.897187) scale(0.14 -0.14)">
       <use xlink:href="#SimHei-30"/>
       <use xlink:href="#SimHei-2e" transform="translate(50 0)"/>
       <use xlink:href="#SimHei-30" transform="translate(100 0)"/>
      </g>
     </g>
    </g>
    <g id="ytick_7">
     <g id="line2d_21">
      <path d="M 549.80625 206.101252 
L 911.91 206.101252 
" clip-path="url(#p31a0b515a1)" style="fill: none; stroke-dasharray: 3.7,1.6; stroke-dashoffset: 0; stroke: #cccccc; stroke-opacity: 0.4"/>
     </g>
     <g id="text_24">
      <!-- 0.2 -->
      <g style="fill: #262626" transform="translate(519.30625 210.913752) scale(0.14 -0.14)">
       <use xlink:href="#SimHei-30"/>
       <use xlink:href="#SimHei-2e" transform="translate(50 0)"/>
       <use xlink:href="#SimHei-32" transform="translate(100 0)"/>
      </g>
     </g>
    </g>
    <g id="ytick_8">
     <g id="line2d_22">
      <path d="M 549.80625 163.117817 
L 911.91 163.117817 
" clip-path="url(#p31a0b515a1)" style="fill: none; stroke-dasharray: 3.7,1.6; stroke-dashoffset: 0; stroke: #cccccc; stroke-opacity: 0.4"/>
     </g>
     <g id="text_25">
      <!-- 0.4 -->
      <g style="fill: #262626" transform="translate(519.30625 167.930317) scale(0.14 -0.14)">
       <use xlink:href="#SimHei-30"/>
       <use xlink:href="#SimHei-2e" transform="translate(50 0)"/>
       <use xlink:href="#SimHei-34" transform="translate(100 0)"/>
      </g>
     </g>
    </g>
    <g id="ytick_9">
     <g id="line2d_23">
      <path d="M 549.80625 120.134382 
L 911.91 120.134382 
" clip-path="url(#p31a0b515a1)" style="fill: none; stroke-dasharray: 3.7,1.6; stroke-dashoffset: 0; stroke: #cccccc; stroke-opacity: 0.4"/>
     </g>
     <g id="text_26">
      <!-- 0.6 -->
      <g style="fill: #262626" transform="translate(519.30625 124.946882) scale(0.14 -0.14)">
       <use xlink:href="#SimHei-30"/>
       <use xlink:href="#SimHei-2e" transform="translate(50 0)"/>
       <use xlink:href="#SimHei-36" transform="translate(100 0)"/>
      </g>
     </g>
    </g>
    <g id="ytick_10">
     <g id="line2d_24">
      <path d="M 549.80625 77.150947 
L 911.91 77.150947 
" clip-path="url(#p31a0b515a1)" style="fill: none; stroke-dasharray: 3.7,1.6; stroke-dashoffset: 0; stroke: #cccccc; stroke-opacity: 0.4"/>
     </g>
     <g id="text_27">
      <!-- 0.8 -->
      <g style="fill: #262626" transform="translate(519.30625 81.963447) scale(0.14 -0.14)">
       <use xlink:href="#SimHei-30"/>
       <use xlink:href="#SimHei-2e" transform="translate(50 0)"/>
       <use xlink:href="#SimHei-38" transform="translate(100 0)"/>
      </g>
     </g>
    </g>
    <g id="ytick_11">
     <g id="line2d_25">
      <path d="M 549.80625 34.167512 
L 911.91 34.167512 
" clip-path="url(#p31a0b515a1)" style="fill: none; stroke-dasharray: 3.7,1.6; stroke-dashoffset: 0; stroke: #cccccc; stroke-opacity: 0.4"/>
     </g>
     <g id="text_28">
      <!-- 1.0 -->
      <g style="fill: #262626" transform="translate(519.30625 38.980012) scale(0.14 -0.14)">
       <use xlink:href="#SimHei-31"/>
       <use xlink:href="#SimHei-2e" transform="translate(50 0)"/>
       <use xlink:href="#SimHei-30" transform="translate(100 0)"/>
      </g>
     </g>
    </g>
    <g id="text_29">
     <!-- Cumulative Probability F(t) -->
     <g style="fill: #262626" transform="translate(513.80625 222.628437) rotate(-90) scale(0.12 -0.12)">
      <defs>
       <path id="SimHei-43" d="M 2975 1825 
Q 2950 875 2575 475 
Q 2200 75 1675 75 
Q 1075 75 650 562 
Q 225 1050 225 2125 
Q 225 3300 637 3875 
Q 1050 4450 1700 4450 
Q 2250 4450 2612 4037 
Q 2975 3625 2950 2875 
L 2400 2875 
Q 2400 3425 2225 3700 
Q 2050 3975 1700 3975 
Q 1300 3975 1062 3562 
Q 825 3150 825 2175 
Q 825 1275 1062 912 
Q 1300 550 1675 550 
Q 1950 550 2175 812 
Q 2400 1075 2400 1825 
L 2975 1825 
z
" transform="scale(0.015625)"/>
       <path id="SimHei-76" d="M 2875 2925 
L 1825 75 
L 1275 75 
L 225 2925 
L 750 2925 
L 1525 750 
L 1575 750 
L 2350 2925 
L 2875 2925 
z
" transform="scale(0.015625)"/>
      </defs>
      <use xlink:href="#SimHei-43"/>
      <use xlink:href="#SimHei-75" transform="translate(50 0)"/>
      <use xlink:href="#SimHei-6d" transform="translate(100 0)"/>
      <use xlink:href="#SimHei-75" transform="translate(150 0)"/>
      <use xlink:href="#SimHei-6c" transform="translate(200 0)"/>
      <use xlink:href="#SimHei-61" transform="translate(250 0)"/>
      <use xlink:href="#SimHei-74" transform="translate(300 0)"/>
      <use xlink:href="#SimHei-69" transform="translate(350 0)"/>
      <use xlink:href="#SimHei-76" transform="translate(400 0)"/>
      <use xlink:href="#SimHei-65" transform="translate(450 0)"/>
      <use xlink:href="#SimHei-20" transform="translate(500 0)"/>
      <use xlink:href="#SimHei-50" transform="translate(550 0)"/>
      <use xlink:href="#SimHei-72" transform="translate(600 0)"/>
      <use xlink:href="#SimHei-6f" transform="translate(650 0)"/>
      <use xlink:href="#SimHei-62" transform="translate(700 0)"/>
      <use xlink:href="#SimHei-61" transform="translate(750 0)"/>
      <use xlink:href="#SimHei-62" transform="translate(800 0)"/>
      <use xlink:href="#SimHei-69" transform="translate(850 0)"/>
      <use xlink:href="#SimHei-6c" transform="translate(900 0)"/>
      <use xlink:href="#SimHei-69" transform="translate(950 0)"/>
      <use xlink:href="#SimHei-74" transform="translate(1000 0)"/>
      <use xlink:href="#SimHei-79" transform="translate(1050 0)"/>
      <use xlink:href="#SimHei-20" transform="translate(1100 0)"/>
      <use xlink:href="#SimHei-46" transform="translate(1150 0)"/>
      <use xlink:href="#SimHei-28" transform="translate(1200 0)"/>
      <use xlink:href="#SimHei-74" transform="translate(1250 0)"/>
      <use xlink:href="#SimHei-29" transform="translate(1300 0)"/>
     </g>
    </g>
   </g>
   <g id="line2d_26">
    <path d="M 566.265511 249.084687 
L 642.383417 248.976559 
L 649.632741 248.730628 
L 654.904977 248.33071 
L 658.859154 247.823182 
L 662.483816 247.133963 
L 665.778963 246.264514 
L 668.744596 245.237109 
L 671.380714 244.093127 
L 674.016832 242.699832 
L 676.65295 241.026595 
L 678.959553 239.30972 
L 681.266156 237.337676 
L 683.57276 235.094023 
L 685.879363 232.564691 
L 688.185966 229.738458 
L 690.822084 226.13488 
L 693.458202 222.127158 
L 696.09432 217.715854 
L 699.059952 212.280311 
L 702.025585 206.364827 
L 705.320732 199.268443 
L 708.945395 190.894031 
L 712.899572 181.189676 
L 717.842293 168.442328 
L 727.068705 143.845617 
L 733.659 126.577822 
L 738.601721 114.251041 
L 742.555898 104.944013 
L 746.180561 96.926789 
L 749.805223 89.451593 
L 753.10037 83.153323 
L 756.395518 77.342078 
L 759.36115 72.530999 
L 762.326783 68.113125 
L 765.292416 64.079787 
L 768.258048 60.418216 
L 771.223681 57.11231 
L 774.189314 54.143391 
L 777.154946 51.490897 
L 780.120579 49.133035 
L 783.086212 47.047351 
L 786.051844 45.211236 
L 789.346992 43.436656 
L 792.642139 41.912882 
L 796.266801 40.492639 
L 799.891463 39.306335 
L 803.84564 38.241006 
L 808.129332 37.313797 
L 813.072053 36.483663 
L 818.673804 35.787323 
L 824.934584 35.239968 
L 832.513423 34.8074 
L 842.06935 34.49272 
L 855.579455 34.286798 
L 878.975002 34.186202 
L 895.450739 34.172187 
L 895.450739 34.172187 
" clip-path="url(#p31a0b515a1)" style="fill: none; stroke: #4c72b0; stroke-width: 2.5; stroke-linecap: round"/>
   </g>
   <g id="patch_9">
    <path d="M 549.80625 259.830312 
L 549.80625 23.426562 
" style="fill: none; stroke: #cccccc; stroke-width: 1.25; stroke-linejoin: miter; stroke-linecap: square"/>
   </g>
   <g id="patch_10">
    <path d="M 911.91 259.830312 
L 911.91 23.426562 
" style="fill: none; stroke: #cccccc; stroke-width: 1.25; stroke-linejoin: miter; stroke-linecap: square"/>
   </g>
   <g id="patch_11">
    <path d="M 549.80625 259.830312 
L 911.91 259.830312 
" style="fill: none; stroke: #cccccc; stroke-width: 1.25; stroke-linejoin: miter; stroke-linecap: square"/>
   </g>
   <g id="patch_12">
    <path d="M 549.80625 23.426562 
L 911.91 23.426562 
" style="fill: none; stroke: #cccccc; stroke-width: 1.25; stroke-linejoin: miter; stroke-linecap: square"/>
   </g>
   <g id="text_30">
    <!-- Failure Time CDF (RE Gamma) -->
    <g style="fill: #262626" transform="translate(636.358125 17.426562) scale(0.14 -0.14)">
     <use xlink:href="#SimHei-46"/>
     <use xlink:href="#SimHei-61" transform="translate(50 0)"/>
     <use xlink:href="#SimHei-69" transform="translate(100 0)"/>
     <use xlink:href="#SimHei-6c" transform="translate(150 0)"/>
     <use xlink:href="#SimHei-75" transform="translate(200 0)"/>
     <use xlink:href="#SimHei-72" transform="translate(250 0)"/>
     <use xlink:href="#SimHei-65" transform="translate(300 0)"/>
     <use xlink:href="#SimHei-20" transform="translate(350 0)"/>
     <use xlink:href="#SimHei-54" transform="translate(400 0)"/>
     <use xlink:href="#SimHei-69" transform="translate(450 0)"/>
     <use xlink:href="#SimHei-6d" transform="translate(500 0)"/>
     <use xlink:href="#SimHei-65" transform="translate(550 0)"/>
     <use xlink:href="#SimHei-20" transform="translate(600 0)"/>
     <use xlink:href="#SimHei-43" transform="translate(650 0)"/>
     <use xlink:href="#SimHei-44" transform="translate(700 0)"/>
     <use xlink:href="#SimHei-46" transform="translate(750 0)"/>
     <use xlink:href="#SimHei-20" transform="translate(800 0)"/>
     <use xlink:href="#SimHei-28" transform="translate(850 0)"/>
     <use xlink:href="#SimHei-52" transform="translate(900 0)"/>
     <use xlink:href="#SimHei-45" transform="translate(950 0)"/>
     <use xlink:href="#SimHei-20" transform="translate(1000 0)"/>
     <use xlink:href="#SimHei-47" transform="translate(1050 0)"/>
     <use xlink:href="#SimHei-61" transform="translate(1100 0)"/>
     <use xlink:href="#SimHei-6d" transform="translate(1150 0)"/>
     <use xlink:href="#SimHei-6d" transform="translate(1200 0)"/>
     <use xlink:href="#SimHei-61" transform="translate(1250 0)"/>
     <use xlink:href="#SimHei-29" transform="translate(1300 0)"/>
    </g>
   </g>
   <g id="legend_2">
    <g id="patch_13">
     <path d="M 559.60625 53.176562 
L 744.40625 53.176562 
Q 747.20625 53.176562 747.20625 50.376562 
L 747.20625 33.226562 
Q 747.20625 30.426562 744.40625 30.426562 
L 559.60625 30.426562 
Q 556.80625 30.426562 556.80625 33.226562 
L 556.80625 50.376562 
Q 556.80625 53.176562 559.60625 53.176562 
z
" style="fill: #ffffff; opacity: 0.8; stroke: #cccccc; stroke-linejoin: miter"/>
    </g>
    <g id="line2d_27">
     <path d="M 562.40625 40.926562 
L 576.40625 40.926562 
L 590.40625 40.926562 
" style="fill: none; stroke: #4c72b0; stroke-width: 2.5; stroke-linecap: round"/>
    </g>
    <g id="text_31">
     <!-- RE Gamma Process CDF -->
     <g style="fill: #262626" transform="translate(601.60625 45.826562) scale(0.14 -0.14)">
      <use xlink:href="#SimHei-52"/>
      <use xlink:href="#SimHei-45" transform="translate(50 0)"/>
      <use xlink:href="#SimHei-20" transform="translate(100 0)"/>
      <use xlink:href="#SimHei-47" transform="translate(150 0)"/>
      <use xlink:href="#SimHei-61" transform="translate(200 0)"/>
      <use xlink:href="#SimHei-6d" transform="translate(250 0)"/>
      <use xlink:href="#SimHei-6d" transform="translate(300 0)"/>
      <use xlink:href="#SimHei-61" transform="translate(350 0)"/>
      <use xlink:href="#SimHei-20" transform="translate(400 0)"/>
      <use xlink:href="#SimHei-50" transform="translate(450 0)"/>
      <use xlink:href="#SimHei-72" transform="translate(500 0)"/>
      <use xlink:href="#SimHei-6f" transform="translate(550 0)"/>
      <use xlink:href="#SimHei-63" transform="translate(600 0)"/>
      <use xlink:href="#SimHei-65" transform="translate(650 0)"/>
      <use xlink:href="#SimHei-73" transform="translate(700 0)"/>
      <use xlink:href="#SimHei-73" transform="translate(750 0)"/>
      <use xlink:href="#SimHei-20" transform="translate(800 0)"/>
      <use xlink:href="#SimHei-43" transform="translate(850 0)"/>
      <use xlink:href="#SimHei-44" transform="translate(900 0)"/>
      <use xlink:href="#SimHei-46" transform="translate(950 0)"/>
     </g>
    </g>
   </g>
  </g>
  <g id="axes_3">
   <g id="patch_14">
    <path d="M 73.575 596.032812 
L 435.67875 596.032812 
L 435.67875 359.629062 
L 73.575 359.629062 
z
" style="fill: #ffffff"/>
   </g>
   <g id="matplotlib.axis_5">
    <g id="xtick_13">
     <g id="line2d_28">
      <path d="M 90.002177 596.032812 
L 90.002177 359.629062 
" clip-path="url(#pd43f891d38)" style="fill: none; stroke-dasharray: 3.7,1.6; stroke-dashoffset: 0; stroke: #cccccc; stroke-opacity: 0.4"/>
     </g>
     <g id="text_32">
      <!-- 0 -->
      <g style="fill: #262626" transform="translate(86.502177 615.157812) scale(0.14 -0.14)">
       <use xlink:href="#SimHei-30"/>
      </g>
     </g>
    </g>
    <g id="xtick_14">
     <g id="line2d_29">
      <path d="M 154.170008 596.032812 
L 154.170008 359.629062 
" clip-path="url(#pd43f891d38)" style="fill: none; stroke-dasharray: 3.7,1.6; stroke-dashoffset: 0; stroke: #cccccc; stroke-opacity: 0.4"/>
     </g>
     <g id="text_33">
      <!-- 2000 -->
      <g style="fill: #262626" transform="translate(140.170008 615.157812) scale(0.14 -0.14)">
       <use xlink:href="#SimHei-32"/>
       <use xlink:href="#SimHei-30" transform="translate(50 0)"/>
       <use xlink:href="#SimHei-30" transform="translate(100 0)"/>
       <use xlink:href="#SimHei-30" transform="translate(150 0)"/>
      </g>
     </g>
    </g>
    <g id="xtick_15">
     <g id="line2d_30">
      <path d="M 218.337839 596.032812 
L 218.337839 359.629062 
" clip-path="url(#pd43f891d38)" style="fill: none; stroke-dasharray: 3.7,1.6; stroke-dashoffset: 0; stroke: #cccccc; stroke-opacity: 0.4"/>
     </g>
     <g id="text_34">
      <!-- 4000 -->
      <g style="fill: #262626" transform="translate(204.337839 615.157812) scale(0.14 -0.14)">
       <use xlink:href="#SimHei-34"/>
       <use xlink:href="#SimHei-30" transform="translate(50 0)"/>
       <use xlink:href="#SimHei-30" transform="translate(100 0)"/>
       <use xlink:href="#SimHei-30" transform="translate(150 0)"/>
      </g>
     </g>
    </g>
    <g id="xtick_16">
     <g id="line2d_31">
      <path d="M 282.50567 596.032812 
L 282.50567 359.629062 
" clip-path="url(#pd43f891d38)" style="fill: none; stroke-dasharray: 3.7,1.6; stroke-dashoffset: 0; stroke: #cccccc; stroke-opacity: 0.4"/>
     </g>
     <g id="text_35">
      <!-- 6000 -->
      <g style="fill: #262626" transform="translate(268.50567 615.157812) scale(0.14 -0.14)">
       <use xlink:href="#SimHei-36"/>
       <use xlink:href="#SimHei-30" transform="translate(50 0)"/>
       <use xlink:href="#SimHei-30" transform="translate(100 0)"/>
       <use xlink:href="#SimHei-30" transform="translate(150 0)"/>
      </g>
     </g>
    </g>
    <g id="xtick_17">
     <g id="line2d_32">
      <path d="M 346.673501 596.032812 
L 346.673501 359.629062 
" clip-path="url(#pd43f891d38)" style="fill: none; stroke-dasharray: 3.7,1.6; stroke-dashoffset: 0; stroke: #cccccc; stroke-opacity: 0.4"/>
     </g>
     <g id="text_36">
      <!-- 8000 -->
      <g style="fill: #262626" transform="translate(332.673501 615.157812) scale(0.14 -0.14)">
       <use xlink:href="#SimHei-38"/>
       <use xlink:href="#SimHei-30" transform="translate(50 0)"/>
       <use xlink:href="#SimHei-30" transform="translate(100 0)"/>
       <use xlink:href="#SimHei-30" transform="translate(150 0)"/>
      </g>
     </g>
    </g>
    <g id="xtick_18">
     <g id="line2d_33">
      <path d="M 410.841332 596.032812 
L 410.841332 359.629062 
" clip-path="url(#pd43f891d38)" style="fill: none; stroke-dasharray: 3.7,1.6; stroke-dashoffset: 0; stroke: #cccccc; stroke-opacity: 0.4"/>
     </g>
     <g id="text_37">
      <!-- 10000 -->
      <g style="fill: #262626" transform="translate(393.341332 615.157812) scale(0.14 -0.14)">
       <use xlink:href="#SimHei-31"/>
       <use xlink:href="#SimHei-30" transform="translate(50 0)"/>
       <use xlink:href="#SimHei-30" transform="translate(100 0)"/>
       <use xlink:href="#SimHei-30" transform="translate(150 0)"/>
       <use xlink:href="#SimHei-30" transform="translate(200 0)"/>
      </g>
     </g>
    </g>
    <g id="text_38">
     <!-- Time (h) -->
     <g style="fill: #262626" transform="translate(230.626875 629.673437) scale(0.12 -0.12)">
      <use xlink:href="#SimHei-54"/>
      <use xlink:href="#SimHei-69" transform="translate(50 0)"/>
      <use xlink:href="#SimHei-6d" transform="translate(100 0)"/>
      <use xlink:href="#SimHei-65" transform="translate(150 0)"/>
      <use xlink:href="#SimHei-20" transform="translate(200 0)"/>
      <use xlink:href="#SimHei-28" transform="translate(250 0)"/>
      <use xlink:href="#SimHei-68" transform="translate(300 0)"/>
      <use xlink:href="#SimHei-29" transform="translate(350 0)"/>
     </g>
    </g>
   </g>
   <g id="matplotlib.axis_6">
    <g id="ytick_12">
     <g id="line2d_34">
      <path d="M 73.575 585.291863 
L 435.67875 585.291863 
" clip-path="url(#pd43f891d38)" style="fill: none; stroke-dasharray: 3.7,1.6; stroke-dashoffset: 0; stroke: #cccccc; stroke-opacity: 0.4"/>
     </g>
     <g id="text_39">
      <!-- 0.0 -->
      <g style="fill: #262626" transform="translate(43.075 590.104363) scale(0.14 -0.14)">
       <use xlink:href="#SimHei-30"/>
       <use xlink:href="#SimHei-2e" transform="translate(50 0)"/>
       <use xlink:href="#SimHei-30" transform="translate(100 0)"/>
      </g>
     </g>
    </g>
    <g id="ytick_13">
     <g id="line2d_35">
      <path d="M 73.575 542.308428 
L 435.67875 542.308428 
" clip-path="url(#pd43f891d38)" style="fill: none; stroke-dasharray: 3.7,1.6; stroke-dashoffset: 0; stroke: #cccccc; stroke-opacity: 0.4"/>
     </g>
     <g id="text_40">
      <!-- 0.2 -->
      <g style="fill: #262626" transform="translate(43.075 547.120928) scale(0.14 -0.14)">
       <use xlink:href="#SimHei-30"/>
       <use xlink:href="#SimHei-2e" transform="translate(50 0)"/>
       <use xlink:href="#SimHei-32" transform="translate(100 0)"/>
      </g>
     </g>
    </g>
    <g id="ytick_14">
     <g id="line2d_36">
      <path d="M 73.575 499.324993 
L 435.67875 499.324993 
" clip-path="url(#pd43f891d38)" style="fill: none; stroke-dasharray: 3.7,1.6; stroke-dashoffset: 0; stroke: #cccccc; stroke-opacity: 0.4"/>
     </g>
     <g id="text_41">
      <!-- 0.4 -->
      <g style="fill: #262626" transform="translate(43.075 504.137493) scale(0.14 -0.14)">
       <use xlink:href="#SimHei-30"/>
       <use xlink:href="#SimHei-2e" transform="translate(50 0)"/>
       <use xlink:href="#SimHei-34" transform="translate(100 0)"/>
      </g>
     </g>
    </g>
    <g id="ytick_15">
     <g id="line2d_37">
      <path d="M 73.575 456.341558 
L 435.67875 456.341558 
" clip-path="url(#pd43f891d38)" style="fill: none; stroke-dasharray: 3.7,1.6; stroke-dashoffset: 0; stroke: #cccccc; stroke-opacity: 0.4"/>
     </g>
     <g id="text_42">
      <!-- 0.6 -->
      <g style="fill: #262626" transform="translate(43.075 461.154058) scale(0.14 -0.14)">
       <use xlink:href="#SimHei-30"/>
       <use xlink:href="#SimHei-2e" transform="translate(50 0)"/>
       <use xlink:href="#SimHei-36" transform="translate(100 0)"/>
      </g>
     </g>
    </g>
    <g id="ytick_16">
     <g id="line2d_38">
      <path d="M 73.575 413.358123 
L 435.67875 413.358123 
" clip-path="url(#pd43f891d38)" style="fill: none; stroke-dasharray: 3.7,1.6; stroke-dashoffset: 0; stroke: #cccccc; stroke-opacity: 0.4"/>
     </g>
     <g id="text_43">
      <!-- 0.8 -->
      <g style="fill: #262626" transform="translate(43.075 418.170623) scale(0.14 -0.14)">
       <use xlink:href="#SimHei-30"/>
       <use xlink:href="#SimHei-2e" transform="translate(50 0)"/>
       <use xlink:href="#SimHei-38" transform="translate(100 0)"/>
      </g>
     </g>
    </g>
    <g id="ytick_17">
     <g id="line2d_39">
      <path d="M 73.575 370.374687 
L 435.67875 370.374687 
" clip-path="url(#pd43f891d38)" style="fill: none; stroke-dasharray: 3.7,1.6; stroke-dashoffset: 0; stroke: #cccccc; stroke-opacity: 0.4"/>
     </g>
     <g id="text_44">
      <!-- 1.0 -->
      <g style="fill: #262626" transform="translate(43.075 375.187187) scale(0.14 -0.14)">
       <use xlink:href="#SimHei-31"/>
       <use xlink:href="#SimHei-2e" transform="translate(50 0)"/>
       <use xlink:href="#SimHei-30" transform="translate(100 0)"/>
      </g>
     </g>
    </g>
    <g id="text_45">
     <!-- Reliability R(t) -->
     <g style="fill: #262626" transform="translate(37.575 525.830937) rotate(-90) scale(0.12 -0.12)">
      <use xlink:href="#SimHei-52"/>
      <use xlink:href="#SimHei-65" transform="translate(50 0)"/>
      <use xlink:href="#SimHei-6c" transform="translate(100 0)"/>
      <use xlink:href="#SimHei-69" transform="translate(150 0)"/>
      <use xlink:href="#SimHei-61" transform="translate(200 0)"/>
      <use xlink:href="#SimHei-62" transform="translate(250 0)"/>
      <use xlink:href="#SimHei-69" transform="translate(300 0)"/>
      <use xlink:href="#SimHei-6c" transform="translate(350 0)"/>
      <use xlink:href="#SimHei-69" transform="translate(400 0)"/>
      <use xlink:href="#SimHei-74" transform="translate(450 0)"/>
      <use xlink:href="#SimHei-79" transform="translate(500 0)"/>
      <use xlink:href="#SimHei-20" transform="translate(550 0)"/>
      <use xlink:href="#SimHei-52" transform="translate(600 0)"/>
      <use xlink:href="#SimHei-28" transform="translate(650 0)"/>
      <use xlink:href="#SimHei-74" transform="translate(700 0)"/>
      <use xlink:href="#SimHei-29" transform="translate(750 0)"/>
     </g>
    </g>
   </g>
   <g id="line2d_40">
    <path d="M 90.034261 370.374687 
L 166.152167 370.482816 
L 173.401491 370.728747 
L 178.673727 371.128665 
L 182.627904 371.636193 
L 186.252566 372.325412 
L 189.547713 373.194861 
L 192.513346 374.222266 
L 195.149464 375.366248 
L 197.785582 376.759543 
L 200.4217 378.43278 
L 202.728303 380.149655 
L 205.034906 382.121699 
L 207.34151 384.365352 
L 209.648113 386.894684 
L 211.954716 389.720917 
L 214.590834 393.324495 
L 217.226952 397.332217 
L 219.86307 401.743521 
L 222.828702 407.179064 
L 225.794335 413.094548 
L 229.089482 420.190932 
L 232.714145 428.565344 
L 236.668322 438.269699 
L 241.611043 451.017047 
L 250.837455 475.613758 
L 257.42775 492.881553 
L 262.370471 505.208334 
L 266.324648 514.515362 
L 269.949311 522.532586 
L 273.573973 530.007782 
L 276.86912 536.306052 
L 280.164268 542.117297 
L 283.1299 546.928376 
L 286.095533 551.34625 
L 289.061166 555.379588 
L 292.026798 559.041159 
L 294.992431 562.347065 
L 297.958064 565.315984 
L 300.923696 567.968478 
L 303.889329 570.32634 
L 306.854962 572.412024 
L 309.820594 574.248139 
L 313.115742 576.022719 
L 316.410889 577.546493 
L 320.035551 578.966736 
L 323.660213 580.15304 
L 327.61439 581.218369 
L 331.898082 582.145578 
L 336.840803 582.975712 
L 342.442554 583.672052 
L 348.703334 584.219407 
L 356.282173 584.651975 
L 365.8381 584.966655 
L 379.348205 585.172577 
L 402.743752 585.273173 
L 419.219489 585.287187 
L 419.219489 585.287187 
" clip-path="url(#pd43f891d38)" style="fill: none; stroke: #55a868; stroke-width: 2.5; stroke-linecap: round"/>
   </g>
   <g id="patch_15">
    <path d="M 73.575 596.032812 
L 73.575 359.629062 
" style="fill: none; stroke: #cccccc; stroke-width: 1.25; stroke-linejoin: miter; stroke-linecap: square"/>
   </g>
   <g id="patch_16">
    <path d="M 435.67875 596.032812 
L 435.67875 359.629062 
" style="fill: none; stroke: #cccccc; stroke-width: 1.25; stroke-linejoin: miter; stroke-linecap: square"/>
   </g>
   <g id="patch_17">
    <path d="M 73.575 596.032812 
L 435.67875 596.032812 
" style="fill: none; stroke: #cccccc; stroke-width: 1.25; stroke-linejoin: miter; stroke-linecap: square"/>
   </g>
   <g id="patch_18">
    <path d="M 73.575 359.629062 
L 435.67875 359.629062 
" style="fill: none; stroke: #cccccc; stroke-width: 1.25; stroke-linejoin: miter; stroke-linecap: square"/>
   </g>
   <g id="text_46">
    <!-- Reliability Function R(t) (RE Gamma) -->
    <g style="fill: #262626" transform="translate(128.626875 353.629062) scale(0.14 -0.14)">
     <use xlink:href="#SimHei-52"/>
     <use xlink:href="#SimHei-65" transform="translate(50 0)"/>
     <use xlink:href="#SimHei-6c" transform="translate(100 0)"/>
     <use xlink:href="#SimHei-69" transform="translate(150 0)"/>
     <use xlink:href="#SimHei-61" transform="translate(200 0)"/>
     <use xlink:href="#SimHei-62" transform="translate(250 0)"/>
     <use xlink:href="#SimHei-69" transform="translate(300 0)"/>
     <use xlink:href="#SimHei-6c" transform="translate(350 0)"/>
     <use xlink:href="#SimHei-69" transform="translate(400 0)"/>
     <use xlink:href="#SimHei-74" transform="translate(450 0)"/>
     <use xlink:href="#SimHei-79" transform="translate(500 0)"/>
     <use xlink:href="#SimHei-20" transform="translate(550 0)"/>
     <use xlink:href="#SimHei-46" transform="translate(600 0)"/>
     <use xlink:href="#SimHei-75" transform="translate(650 0)"/>
     <use xlink:href="#SimHei-6e" transform="translate(700 0)"/>
     <use xlink:href="#SimHei-63" transform="translate(750 0)"/>
     <use xlink:href="#SimHei-74" transform="translate(800 0)"/>
     <use xlink:href="#SimHei-69" transform="translate(850 0)"/>
     <use xlink:href="#SimHei-6f" transform="translate(900 0)"/>
     <use xlink:href="#SimHei-6e" transform="translate(950 0)"/>
     <use xlink:href="#SimHei-20" transform="translate(1000 0)"/>
     <use xlink:href="#SimHei-52" transform="translate(1050 0)"/>
     <use xlink:href="#SimHei-28" transform="translate(1100 0)"/>
     <use xlink:href="#SimHei-74" transform="translate(1150 0)"/>
     <use xlink:href="#SimHei-29" transform="translate(1200 0)"/>
     <use xlink:href="#SimHei-20" transform="translate(1250 0)"/>
     <use xlink:href="#SimHei-28" transform="translate(1300 0)"/>
     <use xlink:href="#SimHei-52" transform="translate(1350 0)"/>
     <use xlink:href="#SimHei-45" transform="translate(1400 0)"/>
     <use xlink:href="#SimHei-20" transform="translate(1450 0)"/>
     <use xlink:href="#SimHei-47" transform="translate(1500 0)"/>
     <use xlink:href="#SimHei-61" transform="translate(1550 0)"/>
     <use xlink:href="#SimHei-6d" transform="translate(1600 0)"/>
     <use xlink:href="#SimHei-6d" transform="translate(1650 0)"/>
     <use xlink:href="#SimHei-61" transform="translate(1700 0)"/>
     <use xlink:href="#SimHei-29" transform="translate(1750 0)"/>
    </g>
   </g>
   <g id="legend_3">
    <g id="patch_19">
     <path d="M 185.07875 489.205937 
L 425.87875 489.205937 
Q 428.67875 489.205937 428.67875 486.405937 
L 428.67875 469.255937 
Q 428.67875 466.455937 425.87875 466.455937 
L 185.07875 466.455937 
Q 182.27875 466.455937 182.27875 469.255937 
L 182.27875 486.405937 
Q 182.27875 489.205937 185.07875 489.205937 
z
" style="fill: #ffffff; opacity: 0.8; stroke: #cccccc; stroke-linejoin: miter"/>
    </g>
    <g id="line2d_41">
     <path d="M 187.87875 476.955938 
L 201.87875 476.955938 
L 215.87875 476.955938 
" style="fill: none; stroke: #55a868; stroke-width: 2.5; stroke-linecap: round"/>
    </g>
    <g id="text_47">
     <!-- RE Gamma Process Reliability -->
     <g style="fill: #262626" transform="translate(227.07875 481.855937) scale(0.14 -0.14)">
      <use xlink:href="#SimHei-52"/>
      <use xlink:href="#SimHei-45" transform="translate(50 0)"/>
      <use xlink:href="#SimHei-20" transform="translate(100 0)"/>
      <use xlink:href="#SimHei-47" transform="translate(150 0)"/>
      <use xlink:href="#SimHei-61" transform="translate(200 0)"/>
      <use xlink:href="#SimHei-6d" transform="translate(250 0)"/>
      <use xlink:href="#SimHei-6d" transform="translate(300 0)"/>
      <use xlink:href="#SimHei-61" transform="translate(350 0)"/>
      <use xlink:href="#SimHei-20" transform="translate(400 0)"/>
      <use xlink:href="#SimHei-50" transform="translate(450 0)"/>
      <use xlink:href="#SimHei-72" transform="translate(500 0)"/>
      <use xlink:href="#SimHei-6f" transform="translate(550 0)"/>
      <use xlink:href="#SimHei-63" transform="translate(600 0)"/>
      <use xlink:href="#SimHei-65" transform="translate(650 0)"/>
      <use xlink:href="#SimHei-73" transform="translate(700 0)"/>
      <use xlink:href="#SimHei-73" transform="translate(750 0)"/>
      <use xlink:href="#SimHei-20" transform="translate(800 0)"/>
      <use xlink:href="#SimHei-52" transform="translate(850 0)"/>
      <use xlink:href="#SimHei-65" transform="translate(900 0)"/>
      <use xlink:href="#SimHei-6c" transform="translate(950 0)"/>
      <use xlink:href="#SimHei-69" transform="translate(1000 0)"/>
      <use xlink:href="#SimHei-61" transform="translate(1050 0)"/>
      <use xlink:href="#SimHei-62" transform="translate(1100 0)"/>
      <use xlink:href="#SimHei-69" transform="translate(1150 0)"/>
      <use xlink:href="#SimHei-6c" transform="translate(1200 0)"/>
      <use xlink:href="#SimHei-69" transform="translate(1250 0)"/>
      <use xlink:href="#SimHei-74" transform="translate(1300 0)"/>
      <use xlink:href="#SimHei-79" transform="translate(1350 0)"/>
     </g>
    </g>
   </g>
  </g>
  <g id="axes_4">
   <g id="patch_20">
    <path d="M 549.80625 596.032812 
L 911.91 596.032812 
L 911.91 359.629062 
L 549.80625 359.629062 
z
" style="fill: #ffffff"/>
   </g>
   <g id="matplotlib.axis_7">
    <g id="xtick_19">
     <g id="line2d_42">
      <path d="M 566.233427 596.032812 
L 566.233427 359.629062 
" clip-path="url(#p3c56cb4c17)" style="fill: none; stroke-dasharray: 3.7,1.6; stroke-dashoffset: 0; stroke: #cccccc; stroke-opacity: 0.4"/>
     </g>
     <g id="text_48">
      <!-- 0 -->
      <g style="fill: #262626" transform="translate(562.733427 615.157812) scale(0.14 -0.14)">
       <use xlink:href="#SimHei-30"/>
      </g>
     </g>
    </g>
    <g id="xtick_20">
     <g id="line2d_43">
      <path d="M 630.401258 596.032812 
L 630.401258 359.629062 
" clip-path="url(#p3c56cb4c17)" style="fill: none; stroke-dasharray: 3.7,1.6; stroke-dashoffset: 0; stroke: #cccccc; stroke-opacity: 0.4"/>
     </g>
     <g id="text_49">
      <!-- 2000 -->
      <g style="fill: #262626" transform="translate(616.401258 615.157812) scale(0.14 -0.14)">
       <use xlink:href="#SimHei-32"/>
       <use xlink:href="#SimHei-30" transform="translate(50 0)"/>
       <use xlink:href="#SimHei-30" transform="translate(100 0)"/>
       <use xlink:href="#SimHei-30" transform="translate(150 0)"/>
      </g>
     </g>
    </g>
    <g id="xtick_21">
     <g id="line2d_44">
      <path d="M 694.569089 596.032812 
L 694.569089 359.629062 
" clip-path="url(#p3c56cb4c17)" style="fill: none; stroke-dasharray: 3.7,1.6; stroke-dashoffset: 0; stroke: #cccccc; stroke-opacity: 0.4"/>
     </g>
     <g id="text_50">
      <!-- 4000 -->
      <g style="fill: #262626" transform="translate(680.569089 615.157812) scale(0.14 -0.14)">
       <use xlink:href="#SimHei-34"/>
       <use xlink:href="#SimHei-30" transform="translate(50 0)"/>
       <use xlink:href="#SimHei-30" transform="translate(100 0)"/>
       <use xlink:href="#SimHei-30" transform="translate(150 0)"/>
      </g>
     </g>
    </g>
    <g id="xtick_22">
     <g id="line2d_45">
      <path d="M 758.73692 596.032812 
L 758.73692 359.629062 
" clip-path="url(#p3c56cb4c17)" style="fill: none; stroke-dasharray: 3.7,1.6; stroke-dashoffset: 0; stroke: #cccccc; stroke-opacity: 0.4"/>
     </g>
     <g id="text_51">
      <!-- 6000 -->
      <g style="fill: #262626" transform="translate(744.73692 615.157812) scale(0.14 -0.14)">
       <use xlink:href="#SimHei-36"/>
       <use xlink:href="#SimHei-30" transform="translate(50 0)"/>
       <use xlink:href="#SimHei-30" transform="translate(100 0)"/>
       <use xlink:href="#SimHei-30" transform="translate(150 0)"/>
      </g>
     </g>
    </g>
    <g id="xtick_23">
     <g id="line2d_46">
      <path d="M 822.904751 596.032812 
L 822.904751 359.629062 
" clip-path="url(#p3c56cb4c17)" style="fill: none; stroke-dasharray: 3.7,1.6; stroke-dashoffset: 0; stroke: #cccccc; stroke-opacity: 0.4"/>
     </g>
     <g id="text_52">
      <!-- 8000 -->
      <g style="fill: #262626" transform="translate(808.904751 615.157812) scale(0.14 -0.14)">
       <use xlink:href="#SimHei-38"/>
       <use xlink:href="#SimHei-30" transform="translate(50 0)"/>
       <use xlink:href="#SimHei-30" transform="translate(100 0)"/>
       <use xlink:href="#SimHei-30" transform="translate(150 0)"/>
      </g>
     </g>
    </g>
    <g id="xtick_24">
     <g id="line2d_47">
      <path d="M 887.072582 596.032812 
L 887.072582 359.629062 
" clip-path="url(#p3c56cb4c17)" style="fill: none; stroke-dasharray: 3.7,1.6; stroke-dashoffset: 0; stroke: #cccccc; stroke-opacity: 0.4"/>
     </g>
     <g id="text_53">
      <!-- 10000 -->
      <g style="fill: #262626" transform="translate(869.572582 615.157812) scale(0.14 -0.14)">
       <use xlink:href="#SimHei-31"/>
       <use xlink:href="#SimHei-30" transform="translate(50 0)"/>
       <use xlink:href="#SimHei-30" transform="translate(100 0)"/>
       <use xlink:href="#SimHei-30" transform="translate(150 0)"/>
       <use xlink:href="#SimHei-30" transform="translate(200 0)"/>
      </g>
     </g>
    </g>
    <g id="text_54">
     <!-- Time (h) -->
     <g style="fill: #262626" transform="translate(706.858125 629.673437) scale(0.12 -0.12)">
      <use xlink:href="#SimHei-54"/>
      <use xlink:href="#SimHei-69" transform="translate(50 0)"/>
      <use xlink:href="#SimHei-6d" transform="translate(100 0)"/>
      <use xlink:href="#SimHei-65" transform="translate(150 0)"/>
      <use xlink:href="#SimHei-20" transform="translate(200 0)"/>
      <use xlink:href="#SimHei-28" transform="translate(250 0)"/>
      <use xlink:href="#SimHei-68" transform="translate(300 0)"/>
      <use xlink:href="#SimHei-29" transform="translate(350 0)"/>
     </g>
    </g>
   </g>
   <g id="matplotlib.axis_8">
    <g id="ytick_18">
     <g id="line2d_48">
      <path d="M 549.80625 585.287187 
L 911.91 585.287187 
" clip-path="url(#p3c56cb4c17)" style="fill: none; stroke-dasharray: 3.7,1.6; stroke-dashoffset: 0; stroke: #cccccc; stroke-opacity: 0.4"/>
     </g>
     <g id="text_55">
      <!-- 0.0000 -->
      <g style="fill: #262626" transform="translate(498.30625 590.099687) scale(0.14 -0.14)">
       <use xlink:href="#SimHei-30"/>
       <use xlink:href="#SimHei-2e" transform="translate(50 0)"/>
       <use xlink:href="#SimHei-30" transform="translate(100 0)"/>
       <use xlink:href="#SimHei-30" transform="translate(150 0)"/>
       <use xlink:href="#SimHei-30" transform="translate(200 0)"/>
       <use xlink:href="#SimHei-30" transform="translate(250 0)"/>
      </g>
     </g>
    </g>
    <g id="ytick_19">
     <g id="line2d_49">
      <path d="M 549.80625 546.864987 
L 911.91 546.864987 
" clip-path="url(#p3c56cb4c17)" style="fill: none; stroke-dasharray: 3.7,1.6; stroke-dashoffset: 0; stroke: #cccccc; stroke-opacity: 0.4"/>
     </g>
     <g id="text_56">
      <!-- 0.0005 -->
      <g style="fill: #262626" transform="translate(498.30625 551.677487) scale(0.14 -0.14)">
       <defs>
        <path id="SimHei-35" d="M 550 1325 
Q 725 650 1150 575 
Q 1575 500 1837 662 
Q 2100 825 2212 1087 
Q 2325 1350 2312 1675 
Q 2300 2000 2137 2225 
Q 1975 2450 1725 2525 
Q 1475 2600 1162 2525 
Q 850 2450 650 2175 
L 225 2225 
Q 275 2375 700 4375 
L 2675 4375 
L 2675 3925 
L 1075 3925 
Q 950 3250 825 2850 
Q 1200 3025 1525 3012 
Q 1850 3000 2150 2862 
Q 2450 2725 2587 2487 
Q 2725 2250 2787 2012 
Q 2850 1775 2837 1500 
Q 2825 1225 2725 937 
Q 2625 650 2425 462 
Q 2225 275 1937 162 
Q 1650 50 1275 75 
Q 900 100 562 350 
Q 225 600 100 1200 
L 550 1325 
z
" transform="scale(0.015625)"/>
       </defs>
       <use xlink:href="#SimHei-30"/>
       <use xlink:href="#SimHei-2e" transform="translate(50 0)"/>
       <use xlink:href="#SimHei-30" transform="translate(100 0)"/>
       <use xlink:href="#SimHei-30" transform="translate(150 0)"/>
       <use xlink:href="#SimHei-30" transform="translate(200 0)"/>
       <use xlink:href="#SimHei-35" transform="translate(250 0)"/>
      </g>
     </g>
    </g>
    <g id="ytick_20">
     <g id="line2d_50">
      <path d="M 549.80625 508.442787 
L 911.91 508.442787 
" clip-path="url(#p3c56cb4c17)" style="fill: none; stroke-dasharray: 3.7,1.6; stroke-dashoffset: 0; stroke: #cccccc; stroke-opacity: 0.4"/>
     </g>
     <g id="text_57">
      <!-- 0.0010 -->
      <g style="fill: #262626" transform="translate(498.30625 513.255287) scale(0.14 -0.14)">
       <use xlink:href="#SimHei-30"/>
       <use xlink:href="#SimHei-2e" transform="translate(50 0)"/>
       <use xlink:href="#SimHei-30" transform="translate(100 0)"/>
       <use xlink:href="#SimHei-30" transform="translate(150 0)"/>
       <use xlink:href="#SimHei-31" transform="translate(200 0)"/>
       <use xlink:href="#SimHei-30" transform="translate(250 0)"/>
      </g>
     </g>
    </g>
    <g id="ytick_21">
     <g id="line2d_51">
      <path d="M 549.80625 470.020586 
L 911.91 470.020586 
" clip-path="url(#p3c56cb4c17)" style="fill: none; stroke-dasharray: 3.7,1.6; stroke-dashoffset: 0; stroke: #cccccc; stroke-opacity: 0.4"/>
     </g>
     <g id="text_58">
      <!-- 0.0015 -->
      <g style="fill: #262626" transform="translate(498.30625 474.833086) scale(0.14 -0.14)">
       <use xlink:href="#SimHei-30"/>
       <use xlink:href="#SimHei-2e" transform="translate(50 0)"/>
       <use xlink:href="#SimHei-30" transform="translate(100 0)"/>
       <use xlink:href="#SimHei-30" transform="translate(150 0)"/>
       <use xlink:href="#SimHei-31" transform="translate(200 0)"/>
       <use xlink:href="#SimHei-35" transform="translate(250 0)"/>
      </g>
     </g>
    </g>
    <g id="ytick_22">
     <g id="line2d_52">
      <path d="M 549.80625 431.598386 
L 911.91 431.598386 
" clip-path="url(#p3c56cb4c17)" style="fill: none; stroke-dasharray: 3.7,1.6; stroke-dashoffset: 0; stroke: #cccccc; stroke-opacity: 0.4"/>
     </g>
     <g id="text_59">
      <!-- 0.0020 -->
      <g style="fill: #262626" transform="translate(498.30625 436.410886) scale(0.14 -0.14)">
       <use xlink:href="#SimHei-30"/>
       <use xlink:href="#SimHei-2e" transform="translate(50 0)"/>
       <use xlink:href="#SimHei-30" transform="translate(100 0)"/>
       <use xlink:href="#SimHei-30" transform="translate(150 0)"/>
       <use xlink:href="#SimHei-32" transform="translate(200 0)"/>
       <use xlink:href="#SimHei-30" transform="translate(250 0)"/>
      </g>
     </g>
    </g>
    <g id="ytick_23">
     <g id="line2d_53">
      <path d="M 549.80625 393.176185 
L 911.91 393.176185 
" clip-path="url(#p3c56cb4c17)" style="fill: none; stroke-dasharray: 3.7,1.6; stroke-dashoffset: 0; stroke: #cccccc; stroke-opacity: 0.4"/>
     </g>
     <g id="text_60">
      <!-- 0.0025 -->
      <g style="fill: #262626" transform="translate(498.30625 397.988685) scale(0.14 -0.14)">
       <use xlink:href="#SimHei-30"/>
       <use xlink:href="#SimHei-2e" transform="translate(50 0)"/>
       <use xlink:href="#SimHei-30" transform="translate(100 0)"/>
       <use xlink:href="#SimHei-30" transform="translate(150 0)"/>
       <use xlink:href="#SimHei-32" transform="translate(200 0)"/>
       <use xlink:href="#SimHei-35" transform="translate(250 0)"/>
      </g>
     </g>
    </g>
    <g id="text_61">
     <!-- Hazard Rate h(t) -->
     <g style="fill: #262626" transform="translate(492.80625 525.830937) rotate(-90) scale(0.12 -0.12)">
      <defs>
       <path id="SimHei-48" d="M 2850 125 
L 2275 125 
L 2275 2125 
L 850 2125 
L 850 125 
L 275 125 
L 275 4400 
L 850 4400 
L 850 2600 
L 2275 2600 
L 2275 4400 
L 2850 4400 
L 2850 125 
z
" transform="scale(0.015625)"/>
       <path id="SimHei-7a" d="M 2775 125 
L 350 125 
L 350 525 
L 2050 2525 
L 450 2525 
L 450 2925 
L 2650 2925 
L 2650 2525 
L 950 525 
L 2775 525 
L 2775 125 
z
" transform="scale(0.015625)"/>
       <path id="SimHei-64" d="M 2750 125 
L 2250 125 
L 2250 500 
Q 2100 275 1900 175 
Q 1700 75 1425 75 
Q 925 75 575 437 
Q 225 800 225 1525 
Q 225 2250 575 2625 
Q 925 3000 1425 3000 
Q 1700 3000 1900 2887 
Q 2100 2775 2250 2550 
L 2250 4400 
L 2750 4400 
L 2750 125 
z
M 2250 1525 
Q 2250 2000 2037 2275 
Q 1825 2550 1525 2550 
Q 1150 2550 962 2275 
Q 775 2000 775 1525 
Q 775 1050 962 787 
Q 1150 525 1525 525 
Q 1825 525 2037 787 
Q 2250 1050 2250 1525 
z
" transform="scale(0.015625)"/>
      </defs>
      <use xlink:href="#SimHei-48"/>
      <use xlink:href="#SimHei-61" transform="translate(50 0)"/>
      <use xlink:href="#SimHei-7a" transform="translate(100 0)"/>
      <use xlink:href="#SimHei-61" transform="translate(150 0)"/>
      <use xlink:href="#SimHei-72" transform="translate(200 0)"/>
      <use xlink:href="#SimHei-64" transform="translate(250 0)"/>
      <use xlink:href="#SimHei-20" transform="translate(300 0)"/>
      <use xlink:href="#SimHei-52" transform="translate(350 0)"/>
      <use xlink:href="#SimHei-61" transform="translate(400 0)"/>
      <use xlink:href="#SimHei-74" transform="translate(450 0)"/>
      <use xlink:href="#SimHei-65" transform="translate(500 0)"/>
      <use xlink:href="#SimHei-20" transform="translate(550 0)"/>
      <use xlink:href="#SimHei-68" transform="translate(600 0)"/>
      <use xlink:href="#SimHei-28" transform="translate(650 0)"/>
      <use xlink:href="#SimHei-74" transform="translate(700 0)"/>
      <use xlink:href="#SimHei-29" transform="translate(750 0)"/>
     </g>
    </g>
   </g>
   <g id="line2d_54">
    <path d="M 566.265511 585.287187 
L 638.099725 585.178387 
L 645.678564 584.928729 
L 651.280315 584.526064 
L 655.893521 583.969636 
L 659.847698 583.273411 
L 663.47236 582.415848 
L 666.767508 581.425087 
L 670.062655 580.210427 
L 673.357803 578.754175 
L 676.65295 577.043867 
L 679.948097 575.072819 
L 683.243245 572.840253 
L 686.538392 570.351046 
L 690.163054 567.328521 
L 694.117231 563.713598 
L 698.071408 559.797851 
L 702.684615 554.897214 
L 707.627336 549.315222 
L 713.558601 542.267358 
L 721.13744 532.888994 
L 736.295118 513.66411 
L 747.828134 499.225451 
L 756.725032 488.436033 
L 764.962901 478.799993 
L 772.54174 470.268952 
L 780.120579 462.072791 
L 787.369903 454.550175 
L 794.619228 447.335324 
L 801.868552 440.421848 
L 809.447391 433.506506 
L 817.02623 426.898348 
L 824.605069 420.583927 
L 832.183908 414.549269 
L 840.092262 408.535288 
L 848.000616 402.794852 
L 856.238484 397.089637 
L 864.476353 391.648101 
L 873.043736 386.251723 
L 881.940634 380.913796 
L 891.167047 375.646002 
L 895.121224 373.467385 
L 895.450739 370.374688 
L 895.450739 370.374688 
" clip-path="url(#p3c56cb4c17)" style="fill: none; stroke: #8172b3; stroke-width: 2.5; stroke-linecap: round"/>
   </g>
   <g id="patch_21">
    <path d="M 549.80625 596.032812 
L 549.80625 359.629063 
" style="fill: none; stroke: #cccccc; stroke-width: 1.25; stroke-linejoin: miter; stroke-linecap: square"/>
   </g>
   <g id="patch_22">
    <path d="M 911.91 596.032812 
L 911.91 359.629063 
" style="fill: none; stroke: #cccccc; stroke-width: 1.25; stroke-linejoin: miter; stroke-linecap: square"/>
   </g>
   <g id="patch_23">
    <path d="M 549.80625 596.032812 
L 911.91 596.032812 
" style="fill: none; stroke: #cccccc; stroke-width: 1.25; stroke-linejoin: miter; stroke-linecap: square"/>
   </g>
   <g id="patch_24">
    <path d="M 549.80625 359.629062 
L 911.91 359.629062 
" style="fill: none; stroke: #cccccc; stroke-width: 1.25; stroke-linejoin: miter; stroke-linecap: square"/>
   </g>
   <g id="text_62">
    <!-- Failure Rate Function h(t) (RE Gamma) -->
    <g style="fill: #262626" transform="translate(601.358125 353.629062) scale(0.14 -0.14)">
     <use xlink:href="#SimHei-46"/>
     <use xlink:href="#SimHei-61" transform="translate(50 0)"/>
     <use xlink:href="#SimHei-69" transform="translate(100 0)"/>
     <use xlink:href="#SimHei-6c" transform="translate(150 0)"/>
     <use xlink:href="#SimHei-75" transform="translate(200 0)"/>
     <use xlink:href="#SimHei-72" transform="translate(250 0)"/>
     <use xlink:href="#SimHei-65" transform="translate(300 0)"/>
     <use xlink:href="#SimHei-20" transform="translate(350 0)"/>
     <use xlink:href="#SimHei-52" transform="translate(400 0)"/>
     <use xlink:href="#SimHei-61" transform="translate(450 0)"/>
     <use xlink:href="#SimHei-74" transform="translate(500 0)"/>
     <use xlink:href="#SimHei-65" transform="translate(550 0)"/>
     <use xlink:href="#SimHei-20" transform="translate(600 0)"/>
     <use xlink:href="#SimHei-46" transform="translate(650 0)"/>
     <use xlink:href="#SimHei-75" transform="translate(700 0)"/>
     <use xlink:href="#SimHei-6e" transform="translate(750 0)"/>
     <use xlink:href="#SimHei-63" transform="translate(800 0)"/>
     <use xlink:href="#SimHei-74" transform="translate(850 0)"/>
     <use xlink:href="#SimHei-69" transform="translate(900 0)"/>
     <use xlink:href="#SimHei-6f" transform="translate(950 0)"/>
     <use xlink:href="#SimHei-6e" transform="translate(1000 0)"/>
     <use xlink:href="#SimHei-20" transform="translate(1050 0)"/>
     <use xlink:href="#SimHei-68" transform="translate(1100 0)"/>
     <use xlink:href="#SimHei-28" transform="translate(1150 0)"/>
     <use xlink:href="#SimHei-74" transform="translate(1200 0)"/>
     <use xlink:href="#SimHei-29" transform="translate(1250 0)"/>
     <use xlink:href="#SimHei-20" transform="translate(1300 0)"/>
     <use xlink:href="#SimHei-28" transform="translate(1350 0)"/>
     <use xlink:href="#SimHei-52" transform="translate(1400 0)"/>
     <use xlink:href="#SimHei-45" transform="translate(1450 0)"/>
     <use xlink:href="#SimHei-20" transform="translate(1500 0)"/>
     <use xlink:href="#SimHei-47" transform="translate(1550 0)"/>
     <use xlink:href="#SimHei-61" transform="translate(1600 0)"/>
     <use xlink:href="#SimHei-6d" transform="translate(1650 0)"/>
     <use xlink:href="#SimHei-6d" transform="translate(1700 0)"/>
     <use xlink:href="#SimHei-61" transform="translate(1750 0)"/>
     <use xlink:href="#SimHei-29" transform="translate(1800 0)"/>
    </g>
   </g>
   <g id="legend_4">
    <g id="patch_25">
     <path d="M 559.60625 389.379062 
L 744.40625 389.379062 
Q 747.20625 389.379062 747.20625 386.579062 
L 747.20625 369.429062 
Q 747.20625 366.629062 744.40625 366.629062 
L 559.60625 366.629062 
Q 556.80625 366.629062 556.80625 369.429062 
L 556.80625 386.579062 
Q 556.80625 389.379062 559.60625 389.379062 
z
" style="fill: #ffffff; opacity: 0.8; stroke: #cccccc; stroke-linejoin: miter"/>
    </g>
    <g id="line2d_55">
     <path d="M 562.40625 377.129062 
L 576.40625 377.129062 
L 590.40625 377.129062 
" style="fill: none; stroke: #8172b3; stroke-width: 2.5; stroke-linecap: round"/>
    </g>
    <g id="text_63">
     <!-- RE Gamma Process FRF -->
     <g style="fill: #262626" transform="translate(601.60625 382.029062) scale(0.14 -0.14)">
      <use xlink:href="#SimHei-52"/>
      <use xlink:href="#SimHei-45" transform="translate(50 0)"/>
      <use xlink:href="#SimHei-20" transform="translate(100 0)"/>
      <use xlink:href="#SimHei-47" transform="translate(150 0)"/>
      <use xlink:href="#SimHei-61" transform="translate(200 0)"/>
      <use xlink:href="#SimHei-6d" transform="translate(250 0)"/>
      <use xlink:href="#SimHei-6d" transform="translate(300 0)"/>
      <use xlink:href="#SimHei-61" transform="translate(350 0)"/>
      <use xlink:href="#SimHei-20" transform="translate(400 0)"/>
      <use xlink:href="#SimHei-50" transform="translate(450 0)"/>
      <use xlink:href="#SimHei-72" transform="translate(500 0)"/>
      <use xlink:href="#SimHei-6f" transform="translate(550 0)"/>
      <use xlink:href="#SimHei-63" transform="translate(600 0)"/>
      <use xlink:href="#SimHei-65" transform="translate(650 0)"/>
      <use xlink:href="#SimHei-73" transform="translate(700 0)"/>
      <use xlink:href="#SimHei-73" transform="translate(750 0)"/>
      <use xlink:href="#SimHei-20" transform="translate(800 0)"/>
      <use xlink:href="#SimHei-46" transform="translate(850 0)"/>
      <use xlink:href="#SimHei-52" transform="translate(900 0)"/>
      <use xlink:href="#SimHei-46" transform="translate(950 0)"/>
     </g>
    </g>
   </g>
  </g>
 </g>
 <defs>
  <clipPath id="p03aba06f00">
   <rect x="73.575" y="23.426562" width="362.10375" height="236.40375"/>
  </clipPath>
  <clipPath id="p31a0b515a1">
   <rect x="549.80625" y="23.426562" width="362.10375" height="236.40375"/>
  </clipPath>
  <clipPath id="pd43f891d38">
   <rect x="73.575" y="359.629062" width="362.10375" height="236.40375"/>
  </clipPath>
  <clipPath id="p3c56cb4c17">
   <rect x="549.80625" y="359.629062" width="362.10375" height="236.40375"/>
  </clipPath>
 </defs>
</svg>
