<?xml version="1.0" encoding="utf-8" standalone="no"?>
<!DOCTYPE svg PUBLIC "-//W3C//DTD SVG 1.1//EN"
  "http://www.w3.org/Graphics/SVG/1.1/DTD/svg11.dtd">
<svg xmlns:xlink="http://www.w3.org/1999/xlink" width="707.812374pt" height="420.445625pt" viewBox="0 0 707.812374 420.445625" xmlns="http://www.w3.org/2000/svg" version="1.1">
 <metadata>
  <rdf:RDF xmlns:dc="http://purl.org/dc/elements/1.1/" xmlns:cc="http://creativecommons.org/ns#" xmlns:rdf="http://www.w3.org/1999/02/22-rdf-syntax-ns#">
   <cc:Work>
    <dc:type rdf:resource="http://purl.org/dc/dcmitype/StillImage"/>
    <dc:date>2026-03-23T11:34:54.488281</dc:date>
    <dc:format>image/svg+xml</dc:format>
    <dc:creator>
     <cc:Agent>
      <dc:title>Matplotlib v3.10.8, https://matplotlib.org/</dc:title>
     </cc:Agent>
    </dc:creator>
   </cc:Work>
  </rdf:RDF>
 </metadata>
 <defs>
  <style type="text/css">*{stroke-linejoin: round; stroke-linecap: butt}</style>
 </defs>
 <g id="figure_1">
  <g id="patch_1">
   <path d="M -0 420.445625 
L 707.812374 420.445625 
L 707.812374 0 
L -0 0 
z
" style="fill: #ffffff"/>
  </g>
  <g id="axes_1">
   <g id="patch_2">
    <path d="M 47.465625 380.5425 
L 692.472068 380.5425 
L 692.472068 7.2 
L 47.465625 7.2 
z
" style="fill: #ffffff"/>
   </g>
   <g id="matplotlib.axis_1">
    <g id="xtick_1">
     <g id="line2d_1">
      <path d="M 108.082157 380.5425 
L 108.082157 7.2 
" clip-path="url(#p669dea7153)" style="fill: none; stroke-dasharray: 1,1.65; stroke-dashoffset: 0; stroke: #cccccc; stroke-opacity: 0.6"/>
     </g>
     <g id="text_1">
      <!-- 3500 -->
      <g style="fill: #262626" transform="translate(97.082157 397.605) scale(0.11 -0.11)">
       <defs>
        <path id="SimHei-33" d="M 250 1225 
L 700 1300 
Q 800 975 1025 762 
Q 1250 550 1587 562 
Q 1925 575 2125 837 
Q 2325 1100 2300 1437 
Q 2275 1775 2037 1962 
Q 1800 2150 1275 2225 
L 1275 2550 
Q 1800 2600 2037 2825 
Q 2275 3050 2250 3412 
Q 2225 3775 1925 3937 
Q 1625 4100 1287 3975 
Q 950 3850 750 3275 
L 300 3350 
Q 450 3800 712 4100 
Q 975 4400 1425 4450 
Q 1875 4500 2212 4337 
Q 2550 4175 2687 3837 
Q 2825 3500 2725 3100 
Q 2625 2700 2150 2400 
Q 2500 2250 2687 1950 
Q 2875 1650 2812 1162 
Q 2750 675 2375 375 
Q 2000 75 1525 87 
Q 1050 100 700 387 
Q 350 675 250 1225 
z
" transform="scale(0.015625)"/>
        <path id="SimHei-35" d="M 550 1325 
Q 725 650 1150 575 
Q 1575 500 1837 662 
Q 2100 825 2212 1087 
Q 2325 1350 2312 1675 
Q 2300 2000 2137 2225 
Q 1975 2450 1725 2525 
Q 1475 2600 1162 2525 
Q 850 2450 650 2175 
L 225 2225 
Q 275 2375 700 4375 
L 2675 4375 
L 2675 3925 
L 1075 3925 
Q 950 3250 825 2850 
Q 1200 3025 1525 3012 
Q 1850 3000 2150 2862 
Q 2450 2725 2587 2487 
Q 2725 2250 2787 2012 
Q 2850 1775 2837 1500 
Q 2825 1225 2725 937 
Q 2625 650 2425 462 
Q 2225 275 1937 162 
Q 1650 50 1275 75 
Q 900 100 562 350 
Q 225 600 100 1200 
L 550 1325 
z
" transform="scale(0.015625)"/>
        <path id="SimHei-30" d="M 225 2537 
Q 250 3200 412 3587 
Q 575 3975 875 4225 
Q 1175 4475 1612 4475 
Q 2050 4475 2375 4112 
Q 2700 3750 2800 3200 
Q 2900 2650 2862 1937 
Q 2825 1225 2612 775 
Q 2400 325 1975 150 
Q 1550 -25 1125 187 
Q 700 400 525 750 
Q 350 1100 275 1487 
Q 200 1875 225 2537 
z
M 750 2687 
Q 675 2000 800 1462 
Q 925 925 1212 700 
Q 1500 475 1800 612 
Q 2100 750 2237 1162 
Q 2375 1575 2375 2062 
Q 2375 2550 2337 2950 
Q 2300 3350 2112 3675 
Q 1925 4000 1612 4012 
Q 1300 4025 1062 3700 
Q 825 3375 750 2687 
z
" transform="scale(0.015625)"/>
       </defs>
       <use xlink:href="#SimHei-33"/>
       <use xlink:href="#SimHei-35" transform="translate(50 0)"/>
       <use xlink:href="#SimHei-30" transform="translate(100 0)"/>
       <use xlink:href="#SimHei-30" transform="translate(150 0)"/>
      </g>
     </g>
    </g>
    <g id="xtick_2">
     <g id="line2d_2">
      <path d="M 191.157902 380.5425 
L 191.157902 7.2 
" clip-path="url(#p669dea7153)" style="fill: none; stroke-dasharray: 1,1.65; stroke-dashoffset: 0; stroke: #cccccc; stroke-opacity: 0.6"/>
     </g>
     <g id="text_2">
      <!-- 4000 -->
      <g style="fill: #262626" transform="translate(180.157902 397.605) scale(0.11 -0.11)">
       <defs>
        <path id="SimHei-34" d="M 2000 1100 
L 75 1100 
L 75 1525 
L 2100 4450 
L 2475 4450 
L 2475 1525 
L 3075 1525 
L 3075 1100 
L 2475 1100 
L 2475 150 
L 2000 150 
L 2000 1100 
z
M 2000 1525 
L 2000 3500 
L 600 1525 
L 2000 1525 
z
" transform="scale(0.015625)"/>
       </defs>
       <use xlink:href="#SimHei-34"/>
       <use xlink:href="#SimHei-30" transform="translate(50 0)"/>
       <use xlink:href="#SimHei-30" transform="translate(100 0)"/>
       <use xlink:href="#SimHei-30" transform="translate(150 0)"/>
      </g>
     </g>
    </g>
    <g id="xtick_3">
     <g id="line2d_3">
      <path d="M 274.233647 380.5425 
L 274.233647 7.2 
" clip-path="url(#p669dea7153)" style="fill: none; stroke-dasharray: 1,1.65; stroke-dashoffset: 0; stroke: #cccccc; stroke-opacity: 0.6"/>
     </g>
     <g id="text_3">
      <!-- 4500 -->
      <g style="fill: #262626" transform="translate(263.233647 397.605) scale(0.11 -0.11)">
       <use xlink:href="#SimHei-34"/>
       <use xlink:href="#SimHei-35" transform="translate(50 0)"/>
       <use xlink:href="#SimHei-30" transform="translate(100 0)"/>
       <use xlink:href="#SimHei-30" transform="translate(150 0)"/>
      </g>
     </g>
    </g>
    <g id="xtick_4">
     <g id="line2d_4">
      <path d="M 357.309393 380.5425 
L 357.309393 7.2 
" clip-path="url(#p669dea7153)" style="fill: none; stroke-dasharray: 1,1.65; stroke-dashoffset: 0; stroke: #cccccc; stroke-opacity: 0.6"/>
     </g>
     <g id="text_4">
      <!-- 5000 -->
      <g style="fill: #262626" transform="translate(346.309393 397.605) scale(0.11 -0.11)">
       <use xlink:href="#SimHei-35"/>
       <use xlink:href="#SimHei-30" transform="translate(50 0)"/>
       <use xlink:href="#SimHei-30" transform="translate(100 0)"/>
       <use xlink:href="#SimHei-30" transform="translate(150 0)"/>
      </g>
     </g>
    </g>
    <g id="xtick_5">
     <g id="line2d_5">
      <path d="M 440.385138 380.5425 
L 440.385138 7.2 
" clip-path="url(#p669dea7153)" style="fill: none; stroke-dasharray: 1,1.65; stroke-dashoffset: 0; stroke: #cccccc; stroke-opacity: 0.6"/>
     </g>
     <g id="text_5">
      <!-- 5500 -->
      <g style="fill: #262626" transform="translate(429.385138 397.605) scale(0.11 -0.11)">
       <use xlink:href="#SimHei-35"/>
       <use xlink:href="#SimHei-35" transform="translate(50 0)"/>
       <use xlink:href="#SimHei-30" transform="translate(100 0)"/>
       <use xlink:href="#SimHei-30" transform="translate(150 0)"/>
      </g>
     </g>
    </g>
    <g id="xtick_6">
     <g id="line2d_6">
      <path d="M 523.460883 380.5425 
L 523.460883 7.2 
" clip-path="url(#p669dea7153)" style="fill: none; stroke-dasharray: 1,1.65; stroke-dashoffset: 0; stroke: #cccccc; stroke-opacity: 0.6"/>
     </g>
     <g id="text_6">
      <!-- 6000 -->
      <g style="fill: #262626" transform="translate(512.460883 397.605) scale(0.11 -0.11)">
       <defs>
        <path id="SimHei-36" d="M 250 1612 
Q 275 1975 387 2225 
Q 500 2475 725 2850 
L 1750 4450 
L 2325 4450 
L 1275 2800 
Q 1950 2975 2350 2750 
Q 2750 2525 2887 2237 
Q 3025 1950 3037 1612 
Q 3050 1275 2937 950 
Q 2825 625 2537 362 
Q 2250 100 1737 75 
Q 1225 50 862 262 
Q 500 475 362 862 
Q 225 1250 250 1612 
z
M 1025 787 
Q 1250 550 1625 525 
Q 2000 500 2250 775 
Q 2500 1050 2500 1575 
Q 2500 2100 2187 2300 
Q 1875 2500 1487 2450 
Q 1100 2400 925 2075 
Q 750 1750 775 1387 
Q 800 1025 1025 787 
z
" transform="scale(0.015625)"/>
       </defs>
       <use xlink:href="#SimHei-36"/>
       <use xlink:href="#SimHei-30" transform="translate(50 0)"/>
       <use xlink:href="#SimHei-30" transform="translate(100 0)"/>
       <use xlink:href="#SimHei-30" transform="translate(150 0)"/>
      </g>
     </g>
    </g>
    <g id="xtick_7">
     <g id="line2d_7">
      <path d="M 606.536629 380.5425 
L 606.536629 7.2 
" clip-path="url(#p669dea7153)" style="fill: none; stroke-dasharray: 1,1.65; stroke-dashoffset: 0; stroke: #cccccc; stroke-opacity: 0.6"/>
     </g>
     <g id="text_7">
      <!-- 6500 -->
      <g style="fill: #262626" transform="translate(595.536629 397.605) scale(0.11 -0.11)">
       <use xlink:href="#SimHei-36"/>
       <use xlink:href="#SimHei-35" transform="translate(50 0)"/>
       <use xlink:href="#SimHei-30" transform="translate(100 0)"/>
       <use xlink:href="#SimHei-30" transform="translate(150 0)"/>
      </g>
     </g>
    </g>
    <g id="xtick_8">
     <g id="line2d_8">
      <path d="M 689.612374 380.5425 
L 689.612374 7.2 
" clip-path="url(#p669dea7153)" style="fill: none; stroke-dasharray: 1,1.65; stroke-dashoffset: 0; stroke: #cccccc; stroke-opacity: 0.6"/>
     </g>
     <g id="text_8">
      <!-- 7000 -->
      <g style="fill: #262626" transform="translate(678.612374 397.605) scale(0.11 -0.11)">
       <defs>
        <path id="SimHei-37" d="M 850 150 
Q 1300 2050 2425 3925 
L 275 3925 
L 275 4375 
L 2950 4375 
L 2950 3950 
Q 1775 2050 1400 150 
L 850 150 
z
" transform="scale(0.015625)"/>
       </defs>
       <use xlink:href="#SimHei-37"/>
       <use xlink:href="#SimHei-30" transform="translate(50 0)"/>
       <use xlink:href="#SimHei-30" transform="translate(100 0)"/>
       <use xlink:href="#SimHei-30" transform="translate(150 0)"/>
      </g>
     </g>
    </g>
    <g id="text_9">
     <!-- Time to Failure (h) -->
     <g style="fill: #262626" transform="translate(312.968847 411.745625) scale(0.12 -0.12)">
      <defs>
       <path id="SimHei-54" d="M 2850 3925 
L 1850 3925 
L 1850 125 
L 1275 125 
L 1275 3925 
L 275 3925 
L 275 4400 
L 2850 4400 
L 2850 3925 
z
" transform="scale(0.015625)"/>
       <path id="SimHei-69" d="M 1800 3725 
L 1300 3725 
L 1300 4375 
L 1800 4375 
L 1800 3725 
z
M 1800 125 
L 1300 125 
L 1300 2925 
L 1800 2925 
L 1800 125 
z
" transform="scale(0.015625)"/>
       <path id="SimHei-6d" d="M 3050 125 
L 2550 125 
L 2550 2150 
Q 2550 2300 2500 2400 
Q 2450 2500 2300 2500 
Q 2125 2500 1975 2312 
Q 1825 2125 1825 1825 
L 1825 125 
L 1325 125 
L 1325 2150 
Q 1325 2300 1275 2400 
Q 1225 2500 1075 2500 
Q 900 2500 750 2312 
Q 600 2125 600 1825 
L 600 125 
L 100 125 
L 100 2925 
L 600 2925 
L 600 2550 
Q 725 2750 900 2862 
Q 1075 2975 1275 2975 
Q 1475 2975 1612 2862 
Q 1750 2750 1800 2550 
Q 1925 2750 2087 2862 
Q 2250 2975 2450 2975 
Q 2750 2975 2900 2812 
Q 3050 2650 3050 2350 
L 3050 125 
z
" transform="scale(0.015625)"/>
       <path id="SimHei-65" d="M 2850 1075 
Q 2800 625 2450 350 
Q 2100 75 1625 75 
Q 1025 75 637 462 
Q 250 850 250 1525 
Q 250 2200 637 2587 
Q 1025 2975 1625 2975 
Q 2150 2975 2487 2637 
Q 2825 2300 2825 1525 
L 800 1525 
Q 800 975 1037 750 
Q 1275 525 1625 525 
Q 1900 525 2075 662 
Q 2250 800 2300 1075 
L 2850 1075 
z
M 2250 1925 
Q 2200 2275 2025 2412 
Q 1850 2550 1575 2550 
Q 1325 2550 1125 2412 
Q 925 2275 825 1925 
L 2250 1925 
z
" transform="scale(0.015625)"/>
       <path id="SimHei-20" transform="scale(0.015625)"/>
       <path id="SimHei-74" d="M 2750 200 
Q 2625 150 2462 112 
Q 2300 75 2025 75 
Q 1575 75 1300 325 
Q 1025 575 1025 1025 
L 1025 2525 
L 175 2525 
L 175 2925 
L 1025 2925 
L 1025 3900 
L 1525 3900 
L 1525 2925 
L 2550 2925 
L 2550 2525 
L 1525 2525 
L 1525 1000 
Q 1525 800 1625 662 
Q 1725 525 2000 525 
Q 2275 525 2450 575 
Q 2625 625 2750 700 
L 2750 200 
z
" transform="scale(0.015625)"/>
       <path id="SimHei-6f" d="M 2925 1525 
Q 2925 875 2525 475 
Q 2125 75 1575 75 
Q 1025 75 625 475 
Q 225 875 225 1525 
Q 225 2175 625 2575 
Q 1025 2975 1575 2975 
Q 2125 2975 2525 2575 
Q 2925 2175 2925 1525 
z
M 2375 1525 
Q 2375 2025 2125 2275 
Q 1875 2525 1575 2525 
Q 1275 2525 1025 2275 
Q 775 2025 775 1525 
Q 775 1025 1025 775 
Q 1275 525 1575 525 
Q 1875 525 2125 775 
Q 2375 1025 2375 1525 
z
" transform="scale(0.015625)"/>
       <path id="SimHei-46" d="M 2925 3925 
L 875 3925 
L 875 2525 
L 2425 2525 
L 2425 2050 
L 875 2050 
L 875 125 
L 300 125 
L 300 4400 
L 2925 4400 
L 2925 3925 
z
" transform="scale(0.015625)"/>
       <path id="SimHei-61" d="M 2875 125 
L 2275 125 
Q 2225 175 2200 262 
Q 2175 350 2175 475 
Q 2000 275 1750 175 
Q 1500 75 1225 75 
Q 825 75 550 275 
Q 275 475 275 850 
Q 275 1225 525 1450 
Q 775 1675 1300 1750 
Q 1650 1800 1912 1875 
Q 2175 1950 2175 2075 
Q 2175 2225 2062 2375 
Q 1950 2525 1575 2525 
Q 1275 2525 1137 2412 
Q 1000 2300 950 2100 
L 400 2100 
Q 450 2500 762 2737 
Q 1075 2975 1575 2975 
Q 2125 2975 2400 2725 
Q 2675 2475 2675 2025 
L 2675 650 
Q 2675 500 2725 375 
Q 2775 250 2875 125 
z
M 2175 1050 
L 2175 1550 
Q 2025 1500 1887 1462 
Q 1750 1425 1425 1375 
Q 1050 1325 937 1200 
Q 825 1075 825 900 
Q 825 750 937 637 
Q 1050 525 1275 525 
Q 1500 525 1762 650 
Q 2025 775 2175 1050 
z
" transform="scale(0.015625)"/>
       <path id="SimHei-6c" d="M 1825 125 
L 1325 125 
L 1325 4400 
L 1825 4400 
L 1825 125 
z
" transform="scale(0.015625)"/>
       <path id="SimHei-75" d="M 2800 125 
L 2300 125 
L 2300 650 
Q 2100 375 1862 225 
Q 1625 75 1250 75 
Q 800 75 575 325 
Q 350 575 350 950 
L 350 2925 
L 850 2925 
L 850 1125 
Q 850 825 1000 650 
Q 1150 475 1400 475 
Q 1725 475 2012 812 
Q 2300 1150 2300 1650 
L 2300 2925 
L 2800 2925 
L 2800 125 
z
" transform="scale(0.015625)"/>
       <path id="SimHei-72" d="M 2500 2425 
Q 2025 2500 1700 2287 
Q 1375 2075 1150 1550 
L 1150 125 
L 650 125 
L 650 2925 
L 1150 2925 
L 1150 2200 
Q 1375 2600 1712 2787 
Q 2050 2975 2500 2975 
L 2500 2425 
z
" transform="scale(0.015625)"/>
       <path id="SimHei-28" d="M 2975 -200 
L 2700 -475 
Q 2075 125 1762 775 
Q 1450 1425 1450 2250 
Q 1450 3075 1762 3725 
Q 2075 4375 2700 5000 
L 2975 4725 
Q 2400 4175 2112 3587 
Q 1825 3000 1825 2250 
Q 1825 1500 2112 912 
Q 2400 325 2975 -200 
z
" transform="scale(0.015625)"/>
       <path id="SimHei-68" d="M 2800 125 
L 2300 125 
L 2300 1925 
Q 2300 2225 2150 2400 
Q 2000 2575 1750 2575 
Q 1425 2575 1137 2237 
Q 850 1900 850 1400 
L 850 125 
L 350 125 
L 350 4400 
L 850 4400 
L 850 2400 
Q 1050 2675 1287 2825 
Q 1525 2975 1900 2975 
Q 2350 2975 2575 2725 
Q 2800 2475 2800 2100 
L 2800 125 
z
" transform="scale(0.015625)"/>
       <path id="SimHei-29" d="M 1675 2250 
Q 1675 1425 1362 775 
Q 1050 125 425 -475 
L 150 -200 
Q 725 325 1012 912 
Q 1300 1500 1300 2250 
Q 1300 3000 1012 3587 
Q 725 4175 150 4725 
L 425 5000 
Q 1050 4375 1362 3725 
Q 1675 3075 1675 2250 
z
" transform="scale(0.015625)"/>
      </defs>
      <use xlink:href="#SimHei-54"/>
      <use xlink:href="#SimHei-69" transform="translate(50 0)"/>
      <use xlink:href="#SimHei-6d" transform="translate(100 0)"/>
      <use xlink:href="#SimHei-65" transform="translate(150 0)"/>
      <use xlink:href="#SimHei-20" transform="translate(200 0)"/>
      <use xlink:href="#SimHei-74" transform="translate(250 0)"/>
      <use xlink:href="#SimHei-6f" transform="translate(300 0)"/>
      <use xlink:href="#SimHei-20" transform="translate(350 0)"/>
      <use xlink:href="#SimHei-46" transform="translate(400 0)"/>
      <use xlink:href="#SimHei-61" transform="translate(450 0)"/>
      <use xlink:href="#SimHei-69" transform="translate(500 0)"/>
      <use xlink:href="#SimHei-6c" transform="translate(550 0)"/>
      <use xlink:href="#SimHei-75" transform="translate(600 0)"/>
      <use xlink:href="#SimHei-72" transform="translate(650 0)"/>
      <use xlink:href="#SimHei-65" transform="translate(700 0)"/>
      <use xlink:href="#SimHei-20" transform="translate(750 0)"/>
      <use xlink:href="#SimHei-28" transform="translate(800 0)"/>
      <use xlink:href="#SimHei-68" transform="translate(850 0)"/>
      <use xlink:href="#SimHei-29" transform="translate(900 0)"/>
     </g>
    </g>
   </g>
   <g id="matplotlib.axis_2">
    <g id="ytick_1">
     <g id="line2d_9">
      <path d="M 47.465625 373.362837 
L 692.472068 373.362837 
" clip-path="url(#p669dea7153)" style="fill: none; stroke-dasharray: 1,1.65; stroke-dashoffset: 0; stroke: #cccccc; stroke-opacity: 0.6"/>
     </g>
     <g id="text_10">
      <!-- 0.0 -->
      <g style="fill: #262626" transform="translate(21.465625 377.144087) scale(0.11 -0.11)">
       <defs>
        <path id="SimHei-2e" d="M 1075 125 
L 500 125 
L 500 675 
L 1075 675 
L 1075 125 
z
" transform="scale(0.015625)"/>
       </defs>
       <use xlink:href="#SimHei-30"/>
       <use xlink:href="#SimHei-2e" transform="translate(50 0)"/>
       <use xlink:href="#SimHei-30" transform="translate(100 0)"/>
      </g>
     </g>
    </g>
    <g id="ytick_2">
     <g id="line2d_10">
      <path d="M 47.465625 301.566202 
L 692.472068 301.566202 
" clip-path="url(#p669dea7153)" style="fill: none; stroke-dasharray: 1,1.65; stroke-dashoffset: 0; stroke: #cccccc; stroke-opacity: 0.6"/>
     </g>
     <g id="text_11">
      <!-- 0.2 -->
      <g style="fill: #262626" transform="translate(21.465625 305.347452) scale(0.11 -0.11)">
       <defs>
        <path id="SimHei-32" d="M 300 250 
Q 325 625 650 925 
Q 975 1225 1475 1862 
Q 1975 2500 2125 2850 
Q 2275 3200 2237 3450 
Q 2200 3700 2000 3862 
Q 1800 4025 1537 4000 
Q 1275 3975 1037 3800 
Q 800 3625 675 3275 
L 200 3350 
Q 400 3925 712 4187 
Q 1025 4450 1450 4475 
Q 1700 4500 1900 4462 
Q 2100 4425 2312 4287 
Q 2525 4150 2662 3875 
Q 2800 3600 2762 3212 
Q 2725 2825 2375 2287 
Q 2025 1750 1025 600 
L 2825 600 
L 2825 150 
L 300 150 
L 300 250 
z
" transform="scale(0.015625)"/>
       </defs>
       <use xlink:href="#SimHei-30"/>
       <use xlink:href="#SimHei-2e" transform="translate(50 0)"/>
       <use xlink:href="#SimHei-32" transform="translate(100 0)"/>
      </g>
     </g>
    </g>
    <g id="ytick_3">
     <g id="line2d_11">
      <path d="M 47.465625 229.769567 
L 692.472068 229.769567 
" clip-path="url(#p669dea7153)" style="fill: none; stroke-dasharray: 1,1.65; stroke-dashoffset: 0; stroke: #cccccc; stroke-opacity: 0.6"/>
     </g>
     <g id="text_12">
      <!-- 0.4 -->
      <g style="fill: #262626" transform="translate(21.465625 233.550817) scale(0.11 -0.11)">
       <use xlink:href="#SimHei-30"/>
       <use xlink:href="#SimHei-2e" transform="translate(50 0)"/>
       <use xlink:href="#SimHei-34" transform="translate(100 0)"/>
      </g>
     </g>
    </g>
    <g id="ytick_4">
     <g id="line2d_12">
      <path d="M 47.465625 157.972933 
L 692.472068 157.972933 
" clip-path="url(#p669dea7153)" style="fill: none; stroke-dasharray: 1,1.65; stroke-dashoffset: 0; stroke: #cccccc; stroke-opacity: 0.6"/>
     </g>
     <g id="text_13">
      <!-- 0.6 -->
      <g style="fill: #262626" transform="translate(21.465625 161.754183) scale(0.11 -0.11)">
       <use xlink:href="#SimHei-30"/>
       <use xlink:href="#SimHei-2e" transform="translate(50 0)"/>
       <use xlink:href="#SimHei-36" transform="translate(100 0)"/>
      </g>
     </g>
    </g>
    <g id="ytick_5">
     <g id="line2d_13">
      <path d="M 47.465625 86.176298 
L 692.472068 86.176298 
" clip-path="url(#p669dea7153)" style="fill: none; stroke-dasharray: 1,1.65; stroke-dashoffset: 0; stroke: #cccccc; stroke-opacity: 0.6"/>
     </g>
     <g id="text_14">
      <!-- 0.8 -->
      <g style="fill: #262626" transform="translate(21.465625 89.957548) scale(0.11 -0.11)">
       <defs>
        <path id="SimHei-38" d="M 175 1375 
Q 175 1675 325 1962 
Q 475 2250 825 2425 
Q 525 2600 425 2812 
Q 325 3025 312 3300 
Q 300 3575 387 3775 
Q 475 3975 650 4150 
Q 825 4325 1037 4387 
Q 1250 4450 1500 4450 
Q 1750 4450 1950 4400 
Q 2150 4350 2375 4187 
Q 2600 4025 2700 3725 
Q 2800 3425 2687 3025 
Q 2575 2625 2100 2400 
Q 2525 2275 2700 2012 
Q 2875 1750 2875 1375 
Q 2875 1000 2762 775 
Q 2650 550 2512 400 
Q 2375 250 2137 162 
Q 1900 75 1537 75 
Q 1175 75 912 162 
Q 650 250 475 425 
Q 300 600 237 837 
Q 175 1075 175 1375 
z
M 687 1400 
Q 675 1100 787 875 
Q 900 650 1200 587 
Q 1500 525 1825 600 
Q 2150 675 2275 950 
Q 2400 1225 2362 1500 
Q 2325 1775 2050 1962 
Q 1775 2150 1450 2125 
Q 1125 2100 912 1900 
Q 700 1700 687 1400 
z
M 775 3350 
Q 775 3100 950 2875 
Q 1125 2650 1500 2650 
Q 1875 2650 2062 2875 
Q 2250 3100 2237 3412 
Q 2225 3725 2012 3875 
Q 1800 4025 1437 4000 
Q 1075 3975 925 3787 
Q 775 3600 775 3350 
z
" transform="scale(0.015625)"/>
       </defs>
       <use xlink:href="#SimHei-30"/>
       <use xlink:href="#SimHei-2e" transform="translate(50 0)"/>
       <use xlink:href="#SimHei-38" transform="translate(100 0)"/>
      </g>
     </g>
    </g>
    <g id="ytick_6">
     <g id="line2d_14">
      <path d="M 47.465625 14.379663 
L 692.472068 14.379663 
" clip-path="url(#p669dea7153)" style="fill: none; stroke-dasharray: 1,1.65; stroke-dashoffset: 0; stroke: #cccccc; stroke-opacity: 0.6"/>
     </g>
     <g id="text_15">
      <!-- 1.0 -->
      <g style="fill: #262626" transform="translate(21.465625 18.160913) scale(0.11 -0.11)">
       <defs>
        <path id="SimHei-31" d="M 1400 3600 
Q 1075 3275 575 2975 
L 575 3450 
Q 1200 3875 1600 4450 
L 1900 4450 
L 1900 150 
L 1400 150 
L 1400 3600 
z
" transform="scale(0.015625)"/>
       </defs>
       <use xlink:href="#SimHei-31"/>
       <use xlink:href="#SimHei-2e" transform="translate(50 0)"/>
       <use xlink:href="#SimHei-30" transform="translate(100 0)"/>
      </g>
     </g>
    </g>
    <g id="text_16">
     <!-- R(t) -->
     <g style="fill: #262626" transform="translate(15.965625 205.87125) rotate(-90) scale(0.12 -0.12)">
      <defs>
       <path id="SimHei-52" d="M 3000 125 
L 2400 125 
L 1500 1975 
L 850 1975 
L 850 125 
L 275 125 
L 275 4400 
L 1525 4400 
Q 2125 4400 2500 4112 
Q 2875 3825 2875 3175 
Q 2875 2675 2625 2400 
Q 2375 2125 2050 2050 
L 3000 125 
z
M 2300 3175 
Q 2300 3525 2087 3725 
Q 1875 3925 1400 3925 
L 850 3925 
L 850 2450 
L 1550 2450 
Q 1850 2450 2075 2612 
Q 2300 2775 2300 3175 
z
" transform="scale(0.015625)"/>
      </defs>
      <use xlink:href="#SimHei-52"/>
      <use xlink:href="#SimHei-28" transform="translate(50 0)"/>
      <use xlink:href="#SimHei-74" transform="translate(100 0)"/>
      <use xlink:href="#SimHei-29" transform="translate(150 0)"/>
     </g>
    </g>
   </g>
   <g id="line2d_15">
    <path d="M 76.7841 38.311875 
L 120.856432 62.244087 
L 143.20937 86.176298 
L 229.721112 110.10851 
L 306.001604 134.040721 
L 377.230868 157.972933 
L 388.038042 181.905144 
L 393.223233 205.837356 
L 435.738067 229.769567 
L 436.313466 253.701779 
L 484.331668 277.63399 
L 524.640899 301.566202 
L 574.129438 325.498413 
L 634.905694 349.430625 
L 663.153593 373.362837 
" clip-path="url(#p669dea7153)" style="fill: none; stroke: #1f77b4; stroke-width: 2; stroke-linecap: round"/>
    <defs>
     <path id="m3bbf86bd10" d="M 0 1.25 
C 0.331504 1.25 0.649475 1.118292 0.883883 0.883883 
C 1.118292 0.649475 1.25 0.331504 1.25 0 
C 1.25 -0.331504 1.118292 -0.649475 0.883883 -0.883883 
C 0.649475 -1.118292 0.331504 -1.25 0 -1.25 
C -0.331504 -1.25 -0.649475 -1.118292 -0.883883 -0.883883 
C -1.118292 -0.649475 -1.25 -0.331504 -1.25 0 
C -1.25 0.331504 -1.118292 0.649475 -0.883883 0.883883 
C -0.649475 1.118292 -0.331504 1.25 0 1.25 
z
" style="stroke: #1f77b4"/>
    </defs>
    <g clip-path="url(#p669dea7153)">
     <use xlink:href="#m3bbf86bd10" x="76.7841" y="38.311875" style="fill: #1f77b4; stroke: #1f77b4"/>
     <use xlink:href="#m3bbf86bd10" x="120.856432" y="62.244087" style="fill: #1f77b4; stroke: #1f77b4"/>
     <use xlink:href="#m3bbf86bd10" x="143.20937" y="86.176298" style="fill: #1f77b4; stroke: #1f77b4"/>
     <use xlink:href="#m3bbf86bd10" x="229.721112" y="110.10851" style="fill: #1f77b4; stroke: #1f77b4"/>
     <use xlink:href="#m3bbf86bd10" x="306.001604" y="134.040721" style="fill: #1f77b4; stroke: #1f77b4"/>
     <use xlink:href="#m3bbf86bd10" x="377.230868" y="157.972933" style="fill: #1f77b4; stroke: #1f77b4"/>
     <use xlink:href="#m3bbf86bd10" x="388.038042" y="181.905144" style="fill: #1f77b4; stroke: #1f77b4"/>
     <use xlink:href="#m3bbf86bd10" x="393.223233" y="205.837356" style="fill: #1f77b4; stroke: #1f77b4"/>
     <use xlink:href="#m3bbf86bd10" x="435.738067" y="229.769567" style="fill: #1f77b4; stroke: #1f77b4"/>
     <use xlink:href="#m3bbf86bd10" x="436.313466" y="253.701779" style="fill: #1f77b4; stroke: #1f77b4"/>
     <use xlink:href="#m3bbf86bd10" x="484.331668" y="277.63399" style="fill: #1f77b4; stroke: #1f77b4"/>
     <use xlink:href="#m3bbf86bd10" x="524.640899" y="301.566202" style="fill: #1f77b4; stroke: #1f77b4"/>
     <use xlink:href="#m3bbf86bd10" x="574.129438" y="325.498413" style="fill: #1f77b4; stroke: #1f77b4"/>
     <use xlink:href="#m3bbf86bd10" x="634.905694" y="349.430625" style="fill: #1f77b4; stroke: #1f77b4"/>
     <use xlink:href="#m3bbf86bd10" x="663.153593" y="373.362837" style="fill: #1f77b4; stroke: #1f77b4"/>
    </g>
   </g>
   <g id="line2d_16">
    <path d="M 76.7841 73.885859 
L 120.856432 110.599425 
L 143.20937 142.907279 
L 229.721112 172.608817 
L 306.001604 200.39039 
L 377.230868 226.579902 
L 388.038042 251.338451 
L 393.223233 274.726079 
L 435.738067 296.723113 
L 436.313466 317.22675 
L 484.331668 336.021699 
L 524.640899 352.702817 
L 574.129438 366.470789 
L 634.905694 373.362837 
L 663.153593 373.362837 
" clip-path="url(#p669dea7153)" style="fill: none; stroke-dasharray: 3.7,1.6; stroke-dashoffset: 0; stroke: #1f77b4; stroke-opacity: 0.6"/>
   </g>
   <g id="line2d_17">
    <path d="M 76.7841 14.379663 
L 120.856432 14.379663 
L 143.20937 29.445317 
L 229.721112 47.608202 
L 306.001604 67.691053 
L 377.230868 89.365964 
L 388.038042 112.471837 
L 393.223233 136.948632 
L 435.738067 162.816021 
L 436.313466 190.176808 
L 484.331668 219.246282 
L 524.640899 250.429586 
L 574.129438 284.526038 
L 634.905694 323.393135 
L 663.153593 373.362837 
" clip-path="url(#p669dea7153)" style="fill: none; stroke-dasharray: 3.7,1.6; stroke-dashoffset: 0; stroke: #1f77b4; stroke-opacity: 0.6"/>
   </g>
   <g id="line2d_18">
    <path d="M 76.7841 36.816112 
L 120.856432 59.25256 
L 143.20937 81.689008 
L 229.721112 104.125457 
L 306.001604 126.561905 
L 377.230868 148.998353 
L 388.038042 171.434802 
L 393.223233 193.87125 
L 435.738067 216.307698 
L 436.313466 238.744147 
L 484.331668 261.180595 
L 524.640899 283.617043 
L 574.129438 306.053492 
L 634.905694 328.48994 
L 663.153593 350.926388 
" clip-path="url(#p669dea7153)" style="fill: none; stroke: #ff7f0e; stroke-width: 2; stroke-linecap: round"/>
    <defs>
     <path id="m486afefc0a" d="M 0 1.25 
C 0.331504 1.25 0.649475 1.118292 0.883883 0.883883 
C 1.118292 0.649475 1.25 0.331504 1.25 0 
C 1.25 -0.331504 1.118292 -0.649475 0.883883 -0.883883 
C 0.649475 -1.118292 0.331504 -1.25 0 -1.25 
C -0.331504 -1.25 -0.649475 -1.118292 -0.883883 -0.883883 
C -1.118292 -0.649475 -1.25 -0.331504 -1.25 0 
C -1.25 0.331504 -1.118292 0.649475 -0.883883 0.883883 
C -0.649475 1.118292 -0.331504 1.25 0 1.25 
z
" style="stroke: #ff7f0e"/>
    </defs>
    <g clip-path="url(#p669dea7153)">
     <use xlink:href="#m486afefc0a" x="76.7841" y="36.816112" style="fill: #ff7f0e; stroke: #ff7f0e"/>
     <use xlink:href="#m486afefc0a" x="120.856432" y="59.25256" style="fill: #ff7f0e; stroke: #ff7f0e"/>
     <use xlink:href="#m486afefc0a" x="143.20937" y="81.689008" style="fill: #ff7f0e; stroke: #ff7f0e"/>
     <use xlink:href="#m486afefc0a" x="229.721112" y="104.125457" style="fill: #ff7f0e; stroke: #ff7f0e"/>
     <use xlink:href="#m486afefc0a" x="306.001604" y="126.561905" style="fill: #ff7f0e; stroke: #ff7f0e"/>
     <use xlink:href="#m486afefc0a" x="377.230868" y="148.998353" style="fill: #ff7f0e; stroke: #ff7f0e"/>
     <use xlink:href="#m486afefc0a" x="388.038042" y="171.434802" style="fill: #ff7f0e; stroke: #ff7f0e"/>
     <use xlink:href="#m486afefc0a" x="393.223233" y="193.87125" style="fill: #ff7f0e; stroke: #ff7f0e"/>
     <use xlink:href="#m486afefc0a" x="435.738067" y="216.307698" style="fill: #ff7f0e; stroke: #ff7f0e"/>
     <use xlink:href="#m486afefc0a" x="436.313466" y="238.744147" style="fill: #ff7f0e; stroke: #ff7f0e"/>
     <use xlink:href="#m486afefc0a" x="484.331668" y="261.180595" style="fill: #ff7f0e; stroke: #ff7f0e"/>
     <use xlink:href="#m486afefc0a" x="524.640899" y="283.617043" style="fill: #ff7f0e; stroke: #ff7f0e"/>
     <use xlink:href="#m486afefc0a" x="574.129438" y="306.053492" style="fill: #ff7f0e; stroke: #ff7f0e"/>
     <use xlink:href="#m486afefc0a" x="634.905694" y="328.48994" style="fill: #ff7f0e; stroke: #ff7f0e"/>
     <use xlink:href="#m486afefc0a" x="663.153593" y="350.926388" style="fill: #ff7f0e; stroke: #ff7f0e"/>
    </g>
   </g>
   <g id="line2d_19">
    <path d="M 76.7841 72.548908 
L 120.856432 108.072854 
L 143.20937 139.306411 
L 229.721112 168.046226 
L 306.001604 194.985001 
L 377.230868 220.463946 
L 388.038042 244.665243 
L 393.223233 267.680597 
L 435.738067 289.538139 
L 436.313466 310.209739 
L 484.331668 329.603691 
L 524.640899 347.537813 
L 574.129438 363.670894 
L 634.905694 373.362837 
L 663.153593 373.362837 
" clip-path="url(#p669dea7153)" style="fill: none; stroke-dasharray: 3.7,1.6; stroke-dashoffset: 0; stroke: #ff7f0e; stroke-opacity: 0.6"/>
   </g>
   <g id="line2d_20">
    <path d="M 76.7841 14.379663 
L 120.856432 14.379663 
L 143.20937 24.071606 
L 229.721112 40.204687 
L 306.001604 58.138809 
L 377.230868 77.532761 
L 388.038042 98.204361 
L 393.223233 120.061903 
L 435.738067 143.077257 
L 436.313466 167.278554 
L 484.331668 192.757499 
L 524.640899 219.696274 
L 574.129438 248.436089 
L 634.905694 279.669646 
L 663.153593 315.193592 
" clip-path="url(#p669dea7153)" style="fill: none; stroke-dasharray: 3.7,1.6; stroke-dashoffset: 0; stroke: #ff7f0e; stroke-opacity: 0.6"/>
   </g>
   <g id="line2d_21">
    <path d="M 76.7841 30.69708 
L 120.856432 54.007676 
L 143.20937 77.318272 
L 229.721112 100.628867 
L 306.001604 123.939463 
L 377.230868 147.250059 
L 388.038042 170.560654 
L 393.223233 193.87125 
L 435.738067 217.181846 
L 436.313466 240.492441 
L 484.331668 263.803037 
L 524.640899 287.113633 
L 574.129438 310.424228 
L 634.905694 333.734824 
L 663.153593 357.04542 
" clip-path="url(#p669dea7153)" style="fill: none; stroke: #2ca02c; stroke-width: 2; stroke-linecap: round"/>
    <defs>
     <path id="m2e847b92c5" d="M 0 1.25 
C 0.331504 1.25 0.649475 1.118292 0.883883 0.883883 
C 1.118292 0.649475 1.25 0.331504 1.25 0 
C 1.25 -0.331504 1.118292 -0.649475 0.883883 -0.883883 
C 0.649475 -1.118292 0.331504 -1.25 0 -1.25 
C -0.331504 -1.25 -0.649475 -1.118292 -0.883883 -0.883883 
C -1.118292 -0.649475 -1.25 -0.331504 -1.25 0 
C -1.25 0.331504 -1.118292 0.649475 -0.883883 0.883883 
C -0.649475 1.118292 -0.331504 1.25 0 1.25 
z
" style="stroke: #2ca02c"/>
    </defs>
    <g clip-path="url(#p669dea7153)">
     <use xlink:href="#m2e847b92c5" x="76.7841" y="30.69708" style="fill: #2ca02c; stroke: #2ca02c"/>
     <use xlink:href="#m2e847b92c5" x="120.856432" y="54.007676" style="fill: #2ca02c; stroke: #2ca02c"/>
     <use xlink:href="#m2e847b92c5" x="143.20937" y="77.318272" style="fill: #2ca02c; stroke: #2ca02c"/>
     <use xlink:href="#m2e847b92c5" x="229.721112" y="100.628867" style="fill: #2ca02c; stroke: #2ca02c"/>
     <use xlink:href="#m2e847b92c5" x="306.001604" y="123.939463" style="fill: #2ca02c; stroke: #2ca02c"/>
     <use xlink:href="#m2e847b92c5" x="377.230868" y="147.250059" style="fill: #2ca02c; stroke: #2ca02c"/>
     <use xlink:href="#m2e847b92c5" x="388.038042" y="170.560654" style="fill: #2ca02c; stroke: #2ca02c"/>
     <use xlink:href="#m2e847b92c5" x="393.223233" y="193.87125" style="fill: #2ca02c; stroke: #2ca02c"/>
     <use xlink:href="#m2e847b92c5" x="435.738067" y="217.181846" style="fill: #2ca02c; stroke: #2ca02c"/>
     <use xlink:href="#m2e847b92c5" x="436.313466" y="240.492441" style="fill: #2ca02c; stroke: #2ca02c"/>
     <use xlink:href="#m2e847b92c5" x="484.331668" y="263.803037" style="fill: #2ca02c; stroke: #2ca02c"/>
     <use xlink:href="#m2e847b92c5" x="524.640899" y="287.113633" style="fill: #2ca02c; stroke: #2ca02c"/>
     <use xlink:href="#m2e847b92c5" x="574.129438" y="310.424228" style="fill: #2ca02c; stroke: #2ca02c"/>
     <use xlink:href="#m2e847b92c5" x="634.905694" y="333.734824" style="fill: #2ca02c; stroke: #2ca02c"/>
     <use xlink:href="#m2e847b92c5" x="663.153593" y="357.04542" style="fill: #2ca02c; stroke: #2ca02c"/>
    </g>
   </g>
   <g id="line2d_22">
    <path d="M 76.7841 67.079564 
L 120.856432 103.643151 
L 143.20937 135.799072 
L 229.721112 165.379777 
L 306.001604 193.089605 
L 377.230868 219.272526 
L 388.038042 244.10811 
L 393.223233 267.680597 
L 435.738067 290.004696 
L 436.313466 311.029909 
L 484.331668 330.626632 
L 524.640899 348.543982 
L 574.129438 364.300241 
L 634.905694 373.362837 
L 663.153593 373.362837 
" clip-path="url(#p669dea7153)" style="fill: none; stroke-dasharray: 3.7,1.6; stroke-dashoffset: 0; stroke: #2ca02c; stroke-opacity: 0.6"/>
   </g>
   <g id="line2d_23">
    <path d="M 76.7841 14.379663 
L 120.856432 14.379663 
L 143.20937 18.837471 
L 229.721112 35.877958 
L 306.001604 54.789321 
L 377.230868 75.227591 
L 388.038042 97.013198 
L 393.223233 120.061903 
L 435.738067 144.358995 
L 436.313466 169.954973 
L 484.331668 196.979442 
L 524.640899 225.683283 
L 574.129438 256.548215 
L 634.905694 290.620798 
L 663.153593 331.057931 
" clip-path="url(#p669dea7153)" style="fill: none; stroke-dasharray: 3.7,1.6; stroke-dashoffset: 0; stroke: #2ca02c; stroke-opacity: 0.6"/>
   </g>
   <g id="patch_3">
    <path d="M 47.465625 380.5425 
L 47.465625 7.2 
" style="fill: none; stroke: #cccccc; stroke-width: 1.25; stroke-linejoin: miter; stroke-linecap: square"/>
   </g>
   <g id="patch_4">
    <path d="M 692.472068 380.5425 
L 692.472068 7.2 
" style="fill: none; stroke: #cccccc; stroke-width: 1.25; stroke-linejoin: miter; stroke-linecap: square"/>
   </g>
   <g id="patch_5">
    <path d="M 47.465625 380.5425 
L 692.472068 380.5425 
" style="fill: none; stroke: #cccccc; stroke-width: 1.25; stroke-linejoin: miter; stroke-linecap: square"/>
   </g>
   <g id="patch_6">
    <path d="M 47.465625 7.2 
L 692.472068 7.2 
" style="fill: none; stroke: #cccccc; stroke-width: 1.25; stroke-linejoin: miter; stroke-linecap: square"/>
   </g>
   <g id="legend_1">
    <g id="patch_7">
     <path d="M 593.472068 55.7625 
L 685.472068 55.7625 
Q 687.472068 55.7625 687.472068 53.7625 
L 687.472068 14.2 
Q 687.472068 12.2 685.472068 12.2 
L 593.472068 12.2 
Q 591.472068 12.2 591.472068 14.2 
L 591.472068 53.7625 
Q 591.472068 55.7625 593.472068 55.7625 
z
" style="fill: #ffffff; opacity: 0.8; stroke: #cccccc; stroke-linejoin: miter"/>
    </g>
    <g id="line2d_24">
     <path d="M 595.472068 20.5125 
L 605.472068 20.5125 
L 615.472068 20.5125 
" style="fill: none; stroke: #1f77b4; stroke-width: 2; stroke-linecap: round"/>
     <g>
      <use xlink:href="#m3bbf86bd10" x="605.472068" y="20.5125" style="fill: #1f77b4; stroke: #1f77b4"/>
     </g>
    </g>
    <g id="text_17">
     <!-- Simple (i/n) -->
     <g style="fill: #262626" transform="translate(623.472068 24.0125) scale(0.1 -0.1)">
      <defs>
       <path id="SimHei-53" d="M 2900 1325 
Q 2900 750 2537 412 
Q 2175 75 1550 75 
Q 925 75 575 425 
Q 225 775 225 1300 
L 225 1475 
L 800 1475 
L 800 1325 
Q 800 950 1025 750 
Q 1250 550 1550 550 
Q 1950 550 2137 762 
Q 2325 975 2325 1275 
Q 2325 1525 2100 1737 
Q 1875 1950 1450 2125 
Q 850 2350 587 2625 
Q 325 2900 325 3275 
Q 325 3800 687 4125 
Q 1050 4450 1550 4450 
Q 2200 4450 2487 4062 
Q 2775 3675 2775 3225 
L 2200 3225 
Q 2225 3500 2050 3725 
Q 1875 3950 1550 3950 
Q 1250 3950 1075 3787 
Q 900 3625 900 3350 
Q 900 3125 1037 2962 
Q 1175 2800 1750 2575 
Q 2300 2350 2600 2037 
Q 2900 1725 2900 1325 
z
" transform="scale(0.015625)"/>
       <path id="SimHei-70" d="M 2825 1525 
Q 2825 800 2475 425 
Q 2125 50 1625 50 
Q 1350 50 1150 162 
Q 950 275 800 500 
L 800 -800 
L 300 -800 
L 300 2925 
L 800 2925 
L 800 2550 
Q 950 2775 1150 2875 
Q 1350 2975 1625 2975 
Q 2125 2975 2475 2612 
Q 2825 2250 2825 1525 
z
M 2275 1525 
Q 2275 2000 2087 2262 
Q 1900 2525 1525 2525 
Q 1225 2525 1012 2262 
Q 800 2000 800 1525 
Q 800 1050 1012 775 
Q 1225 500 1525 500 
Q 1900 500 2087 775 
Q 2275 1050 2275 1525 
z
" transform="scale(0.015625)"/>
       <path id="SimHei-2f" d="M 3000 4550 
L 350 -175 
L 100 -25 
L 2750 4700 
L 3000 4550 
z
" transform="scale(0.015625)"/>
       <path id="SimHei-6e" d="M 2800 125 
L 2300 125 
L 2300 1925 
Q 2300 2225 2150 2400 
Q 2000 2575 1750 2575 
Q 1425 2575 1137 2237 
Q 850 1900 850 1400 
L 850 125 
L 350 125 
L 350 2925 
L 850 2925 
L 850 2400 
Q 1050 2675 1287 2825 
Q 1525 2975 1900 2975 
Q 2350 2975 2575 2725 
Q 2800 2475 2800 2100 
L 2800 125 
z
" transform="scale(0.015625)"/>
      </defs>
      <use xlink:href="#SimHei-53"/>
      <use xlink:href="#SimHei-69" transform="translate(50 0)"/>
      <use xlink:href="#SimHei-6d" transform="translate(100 0)"/>
      <use xlink:href="#SimHei-70" transform="translate(150 0)"/>
      <use xlink:href="#SimHei-6c" transform="translate(200 0)"/>
      <use xlink:href="#SimHei-65" transform="translate(250 0)"/>
      <use xlink:href="#SimHei-20" transform="translate(300 0)"/>
      <use xlink:href="#SimHei-28" transform="translate(350 0)"/>
      <use xlink:href="#SimHei-69" transform="translate(400 0)"/>
      <use xlink:href="#SimHei-2f" transform="translate(450 0)"/>
      <use xlink:href="#SimHei-6e" transform="translate(500 0)"/>
      <use xlink:href="#SimHei-29" transform="translate(550 0)"/>
     </g>
    </g>
    <g id="line2d_25">
     <path d="M 595.472068 33.7625 
L 605.472068 33.7625 
L 615.472068 33.7625 
" style="fill: none; stroke: #ff7f0e; stroke-width: 2; stroke-linecap: round"/>
     <g>
      <use xlink:href="#m486afefc0a" x="605.472068" y="33.7625" style="fill: #ff7f0e; stroke: #ff7f0e"/>
     </g>
    </g>
    <g id="text_18">
     <!-- Mean Rank -->
     <g style="fill: #262626" transform="translate(623.472068 37.2625) scale(0.1 -0.1)">
      <defs>
       <path id="SimHei-4d" d="M 2925 125 
L 2425 125 
L 2425 3175 
L 2375 3175 
L 1775 125 
L 1375 125 
L 775 3175 
L 725 3175 
L 725 125 
L 225 125 
L 225 4400 
L 1000 4400 
L 1550 1575 
L 1600 1575 
L 2150 4400 
L 2925 4400 
L 2925 125 
z
" transform="scale(0.015625)"/>
       <path id="SimHei-6b" d="M 2925 125 
L 2350 125 
L 1450 1650 
L 875 1100 
L 875 125 
L 375 125 
L 375 4400 
L 875 4400 
L 875 1675 
L 2125 2925 
L 2750 2925 
L 1775 1975 
L 2925 125 
z
" transform="scale(0.015625)"/>
      </defs>
      <use xlink:href="#SimHei-4d"/>
      <use xlink:href="#SimHei-65" transform="translate(50 0)"/>
      <use xlink:href="#SimHei-61" transform="translate(100 0)"/>
      <use xlink:href="#SimHei-6e" transform="translate(150 0)"/>
      <use xlink:href="#SimHei-20" transform="translate(200 0)"/>
      <use xlink:href="#SimHei-52" transform="translate(250 0)"/>
      <use xlink:href="#SimHei-61" transform="translate(300 0)"/>
      <use xlink:href="#SimHei-6e" transform="translate(350 0)"/>
      <use xlink:href="#SimHei-6b" transform="translate(400 0)"/>
     </g>
    </g>
    <g id="line2d_26">
     <path d="M 595.472068 47.0125 
L 605.472068 47.0125 
L 615.472068 47.0125 
" style="fill: none; stroke: #2ca02c; stroke-width: 2; stroke-linecap: round"/>
     <g>
      <use xlink:href="#m2e847b92c5" x="605.472068" y="47.0125" style="fill: #2ca02c; stroke: #2ca02c"/>
     </g>
    </g>
    <g id="text_19">
     <!-- Median Rank -->
     <g style="fill: #262626" transform="translate(623.472068 50.5125) scale(0.1 -0.1)">
      <defs>
       <path id="SimHei-64" d="M 2750 125 
L 2250 125 
L 2250 500 
Q 2100 275 1900 175 
Q 1700 75 1425 75 
Q 925 75 575 437 
Q 225 800 225 1525 
Q 225 2250 575 2625 
Q 925 3000 1425 3000 
Q 1700 3000 1900 2887 
Q 2100 2775 2250 2550 
L 2250 4400 
L 2750 4400 
L 2750 125 
z
M 2250 1525 
Q 2250 2000 2037 2275 
Q 1825 2550 1525 2550 
Q 1150 2550 962 2275 
Q 775 2000 775 1525 
Q 775 1050 962 787 
Q 1150 525 1525 525 
Q 1825 525 2037 787 
Q 2250 1050 2250 1525 
z
" transform="scale(0.015625)"/>
      </defs>
      <use xlink:href="#SimHei-4d"/>
      <use xlink:href="#SimHei-65" transform="translate(50 0)"/>
      <use xlink:href="#SimHei-64" transform="translate(100 0)"/>
      <use xlink:href="#SimHei-69" transform="translate(150 0)"/>
      <use xlink:href="#SimHei-61" transform="translate(200 0)"/>
      <use xlink:href="#SimHei-6e" transform="translate(250 0)"/>
      <use xlink:href="#SimHei-20" transform="translate(300 0)"/>
      <use xlink:href="#SimHei-52" transform="translate(350 0)"/>
      <use xlink:href="#SimHei-61" transform="translate(400 0)"/>
      <use xlink:href="#SimHei-6e" transform="translate(450 0)"/>
      <use xlink:href="#SimHei-6b" transform="translate(500 0)"/>
     </g>
    </g>
   </g>
  </g>
 </g>
 <defs>
  <clipPath id="p669dea7153">
   <rect x="47.465625" y="7.2" width="645.006443" height="373.3425"/>
  </clipPath>
 </defs>
</svg>
