<?xml version="1.0" encoding="utf-8" standalone="no"?>
<!DOCTYPE svg PUBLIC "-//W3C//DTD SVG 1.1//EN"
  "http://www.w3.org/Graphics/SVG/1.1/DTD/svg11.dtd">
<svg xmlns:xlink="http://www.w3.org/1999/xlink" width="711.659132pt" height="423.794844pt" viewBox="0 0 711.659132 423.794844" xmlns="http://www.w3.org/2000/svg" version="1.1">
 <metadata>
  <rdf:RDF xmlns:dc="http://purl.org/dc/elements/1.1/" xmlns:cc="http://creativecommons.org/ns#" xmlns:rdf="http://www.w3.org/1999/02/22-rdf-syntax-ns#">
   <cc:Work>
    <dc:type rdf:resource="http://purl.org/dc/dcmitype/StillImage"/>
    <dc:date>2026-03-18T12:58:45.719223</dc:date>
    <dc:format>image/svg+xml</dc:format>
    <dc:creator>
     <cc:Agent>
      <dc:title>Matplotlib v3.10.8, https://matplotlib.org/</dc:title>
     </cc:Agent>
    </dc:creator>
   </cc:Work>
  </rdf:RDF>
 </metadata>
 <defs>
  <style type="text/css">*{stroke-linejoin: round; stroke-linecap: butt}</style>
 </defs>
 <g id="figure_1">
  <g id="patch_1">
   <path d="M 0 423.794844 
L 711.659132 423.794844 
L 711.659132 0 
L 0 0 
z
" style="fill: #ffffff"/>
  </g>
  <g id="axes_1">
   <g id="patch_2">
    <path d="M 51.321094 385.53625 
L 696.318787 385.53625 
L 696.318787 29.5125 
L 51.321094 29.5125 
z
" style="fill: #ffffff"/>
   </g>
   <g id="matplotlib.axis_1">
    <g id="xtick_1">
     <g id="line2d_1">
      <path d="M 111.936803 385.53625 
L 111.936803 29.5125 
" clip-path="url(#pf9556fbae8)" style="fill: none; stroke-dasharray: 2.96,1.28; stroke-dashoffset: 0; stroke: #b0b0b0; stroke-opacity: 0.4; stroke-width: 0.8"/>
     </g>
     <g id="line2d_2">
      <defs>
       <path id="mf7066994ef" d="M 0 0 
L 0 3.5 
" style="stroke: #000000; stroke-width: 0.8"/>
      </defs>
      <g>
       <use xlink:href="#mf7066994ef" x="111.936803" y="385.53625" style="stroke: #000000; stroke-width: 0.8"/>
      </g>
     </g>
     <g id="text_1">
      <!-- 3500 -->
      <g transform="translate(100.936803 400.09875) scale(0.11 -0.11)">
       <defs>
        <path id="SimHei-33" d="M 250 1225 
L 700 1300 
Q 800 975 1025 762 
Q 1250 550 1587 562 
Q 1925 575 2125 837 
Q 2325 1100 2300 1437 
Q 2275 1775 2037 1962 
Q 1800 2150 1275 2225 
L 1275 2550 
Q 1800 2600 2037 2825 
Q 2275 3050 2250 3412 
Q 2225 3775 1925 3937 
Q 1625 4100 1287 3975 
Q 950 3850 750 3275 
L 300 3350 
Q 450 3800 712 4100 
Q 975 4400 1425 4450 
Q 1875 4500 2212 4337 
Q 2550 4175 2687 3837 
Q 2825 3500 2725 3100 
Q 2625 2700 2150 2400 
Q 2500 2250 2687 1950 
Q 2875 1650 2812 1162 
Q 2750 675 2375 375 
Q 2000 75 1525 87 
Q 1050 100 700 387 
Q 350 675 250 1225 
z
" transform="scale(0.015625)"/>
        <path id="SimHei-35" d="M 550 1325 
Q 725 650 1150 575 
Q 1575 500 1837 662 
Q 2100 825 2212 1087 
Q 2325 1350 2312 1675 
Q 2300 2000 2137 2225 
Q 1975 2450 1725 2525 
Q 1475 2600 1162 2525 
Q 850 2450 650 2175 
L 225 2225 
Q 275 2375 700 4375 
L 2675 4375 
L 2675 3925 
L 1075 3925 
Q 950 3250 825 2850 
Q 1200 3025 1525 3012 
Q 1850 3000 2150 2862 
Q 2450 2725 2587 2487 
Q 2725 2250 2787 2012 
Q 2850 1775 2837 1500 
Q 2825 1225 2725 937 
Q 2625 650 2425 462 
Q 2225 275 1937 162 
Q 1650 50 1275 75 
Q 900 100 562 350 
Q 225 600 100 1200 
L 550 1325 
z
" transform="scale(0.015625)"/>
        <path id="SimHei-30" d="M 225 2537 
Q 250 3200 412 3587 
Q 575 3975 875 4225 
Q 1175 4475 1612 4475 
Q 2050 4475 2375 4112 
Q 2700 3750 2800 3200 
Q 2900 2650 2862 1937 
Q 2825 1225 2612 775 
Q 2400 325 1975 150 
Q 1550 -25 1125 187 
Q 700 400 525 750 
Q 350 1100 275 1487 
Q 200 1875 225 2537 
z
M 750 2687 
Q 675 2000 800 1462 
Q 925 925 1212 700 
Q 1500 475 1800 612 
Q 2100 750 2237 1162 
Q 2375 1575 2375 2062 
Q 2375 2550 2337 2950 
Q 2300 3350 2112 3675 
Q 1925 4000 1612 4012 
Q 1300 4025 1062 3700 
Q 825 3375 750 2687 
z
" transform="scale(0.015625)"/>
       </defs>
       <use xlink:href="#SimHei-33"/>
       <use xlink:href="#SimHei-35" transform="translate(50 0)"/>
       <use xlink:href="#SimHei-30" transform="translate(100 0)"/>
       <use xlink:href="#SimHei-30" transform="translate(150 0)"/>
      </g>
     </g>
    </g>
    <g id="xtick_2">
     <g id="line2d_3">
      <path d="M 195.011422 385.53625 
L 195.011422 29.5125 
" clip-path="url(#pf9556fbae8)" style="fill: none; stroke-dasharray: 2.96,1.28; stroke-dashoffset: 0; stroke: #b0b0b0; stroke-opacity: 0.4; stroke-width: 0.8"/>
     </g>
     <g id="line2d_4">
      <g>
       <use xlink:href="#mf7066994ef" x="195.011422" y="385.53625" style="stroke: #000000; stroke-width: 0.8"/>
      </g>
     </g>
     <g id="text_2">
      <!-- 4000 -->
      <g transform="translate(184.011422 400.09875) scale(0.11 -0.11)">
       <defs>
        <path id="SimHei-34" d="M 2000 1100 
L 75 1100 
L 75 1525 
L 2100 4450 
L 2475 4450 
L 2475 1525 
L 3075 1525 
L 3075 1100 
L 2475 1100 
L 2475 150 
L 2000 150 
L 2000 1100 
z
M 2000 1525 
L 2000 3500 
L 600 1525 
L 2000 1525 
z
" transform="scale(0.015625)"/>
       </defs>
       <use xlink:href="#SimHei-34"/>
       <use xlink:href="#SimHei-30" transform="translate(50 0)"/>
       <use xlink:href="#SimHei-30" transform="translate(100 0)"/>
       <use xlink:href="#SimHei-30" transform="translate(150 0)"/>
      </g>
     </g>
    </g>
    <g id="xtick_3">
     <g id="line2d_5">
      <path d="M 278.08604 385.53625 
L 278.08604 29.5125 
" clip-path="url(#pf9556fbae8)" style="fill: none; stroke-dasharray: 2.96,1.28; stroke-dashoffset: 0; stroke: #b0b0b0; stroke-opacity: 0.4; stroke-width: 0.8"/>
     </g>
     <g id="line2d_6">
      <g>
       <use xlink:href="#mf7066994ef" x="278.08604" y="385.53625" style="stroke: #000000; stroke-width: 0.8"/>
      </g>
     </g>
     <g id="text_3">
      <!-- 4500 -->
      <g transform="translate(267.08604 400.09875) scale(0.11 -0.11)">
       <use xlink:href="#SimHei-34"/>
       <use xlink:href="#SimHei-35" transform="translate(50 0)"/>
       <use xlink:href="#SimHei-30" transform="translate(100 0)"/>
       <use xlink:href="#SimHei-30" transform="translate(150 0)"/>
      </g>
     </g>
    </g>
    <g id="xtick_4">
     <g id="line2d_7">
      <path d="M 361.160658 385.53625 
L 361.160658 29.5125 
" clip-path="url(#pf9556fbae8)" style="fill: none; stroke-dasharray: 2.96,1.28; stroke-dashoffset: 0; stroke: #b0b0b0; stroke-opacity: 0.4; stroke-width: 0.8"/>
     </g>
     <g id="line2d_8">
      <g>
       <use xlink:href="#mf7066994ef" x="361.160658" y="385.53625" style="stroke: #000000; stroke-width: 0.8"/>
      </g>
     </g>
     <g id="text_4">
      <!-- 5000 -->
      <g transform="translate(350.160658 400.09875) scale(0.11 -0.11)">
       <use xlink:href="#SimHei-35"/>
       <use xlink:href="#SimHei-30" transform="translate(50 0)"/>
       <use xlink:href="#SimHei-30" transform="translate(100 0)"/>
       <use xlink:href="#SimHei-30" transform="translate(150 0)"/>
      </g>
     </g>
    </g>
    <g id="xtick_5">
     <g id="line2d_9">
      <path d="M 444.235277 385.53625 
L 444.235277 29.5125 
" clip-path="url(#pf9556fbae8)" style="fill: none; stroke-dasharray: 2.96,1.28; stroke-dashoffset: 0; stroke: #b0b0b0; stroke-opacity: 0.4; stroke-width: 0.8"/>
     </g>
     <g id="line2d_10">
      <g>
       <use xlink:href="#mf7066994ef" x="444.235277" y="385.53625" style="stroke: #000000; stroke-width: 0.8"/>
      </g>
     </g>
     <g id="text_5">
      <!-- 5500 -->
      <g transform="translate(433.235277 400.09875) scale(0.11 -0.11)">
       <use xlink:href="#SimHei-35"/>
       <use xlink:href="#SimHei-35" transform="translate(50 0)"/>
       <use xlink:href="#SimHei-30" transform="translate(100 0)"/>
       <use xlink:href="#SimHei-30" transform="translate(150 0)"/>
      </g>
     </g>
    </g>
    <g id="xtick_6">
     <g id="line2d_11">
      <path d="M 527.309895 385.53625 
L 527.309895 29.5125 
" clip-path="url(#pf9556fbae8)" style="fill: none; stroke-dasharray: 2.96,1.28; stroke-dashoffset: 0; stroke: #b0b0b0; stroke-opacity: 0.4; stroke-width: 0.8"/>
     </g>
     <g id="line2d_12">
      <g>
       <use xlink:href="#mf7066994ef" x="527.309895" y="385.53625" style="stroke: #000000; stroke-width: 0.8"/>
      </g>
     </g>
     <g id="text_6">
      <!-- 6000 -->
      <g transform="translate(516.309895 400.09875) scale(0.11 -0.11)">
       <defs>
        <path id="SimHei-36" d="M 250 1612 
Q 275 1975 387 2225 
Q 500 2475 725 2850 
L 1750 4450 
L 2325 4450 
L 1275 2800 
Q 1950 2975 2350 2750 
Q 2750 2525 2887 2237 
Q 3025 1950 3037 1612 
Q 3050 1275 2937 950 
Q 2825 625 2537 362 
Q 2250 100 1737 75 
Q 1225 50 862 262 
Q 500 475 362 862 
Q 225 1250 250 1612 
z
M 1025 787 
Q 1250 550 1625 525 
Q 2000 500 2250 775 
Q 2500 1050 2500 1575 
Q 2500 2100 2187 2300 
Q 1875 2500 1487 2450 
Q 1100 2400 925 2075 
Q 750 1750 775 1387 
Q 800 1025 1025 787 
z
" transform="scale(0.015625)"/>
       </defs>
       <use xlink:href="#SimHei-36"/>
       <use xlink:href="#SimHei-30" transform="translate(50 0)"/>
       <use xlink:href="#SimHei-30" transform="translate(100 0)"/>
       <use xlink:href="#SimHei-30" transform="translate(150 0)"/>
      </g>
     </g>
    </g>
    <g id="xtick_7">
     <g id="line2d_13">
      <path d="M 610.384513 385.53625 
L 610.384513 29.5125 
" clip-path="url(#pf9556fbae8)" style="fill: none; stroke-dasharray: 2.96,1.28; stroke-dashoffset: 0; stroke: #b0b0b0; stroke-opacity: 0.4; stroke-width: 0.8"/>
     </g>
     <g id="line2d_14">
      <g>
       <use xlink:href="#mf7066994ef" x="610.384513" y="385.53625" style="stroke: #000000; stroke-width: 0.8"/>
      </g>
     </g>
     <g id="text_7">
      <!-- 6500 -->
      <g transform="translate(599.384513 400.09875) scale(0.11 -0.11)">
       <use xlink:href="#SimHei-36"/>
       <use xlink:href="#SimHei-35" transform="translate(50 0)"/>
       <use xlink:href="#SimHei-30" transform="translate(100 0)"/>
       <use xlink:href="#SimHei-30" transform="translate(150 0)"/>
      </g>
     </g>
    </g>
    <g id="xtick_8">
     <g id="line2d_15">
      <path d="M 693.459132 385.53625 
L 693.459132 29.5125 
" clip-path="url(#pf9556fbae8)" style="fill: none; stroke-dasharray: 2.96,1.28; stroke-dashoffset: 0; stroke: #b0b0b0; stroke-opacity: 0.4; stroke-width: 0.8"/>
     </g>
     <g id="line2d_16">
      <g>
       <use xlink:href="#mf7066994ef" x="693.459132" y="385.53625" style="stroke: #000000; stroke-width: 0.8"/>
      </g>
     </g>
     <g id="text_8">
      <!-- 7000 -->
      <g transform="translate(682.459132 400.09875) scale(0.11 -0.11)">
       <defs>
        <path id="SimHei-37" d="M 850 150 
Q 1300 2050 2425 3925 
L 275 3925 
L 275 4375 
L 2950 4375 
L 2950 3950 
Q 1775 2050 1400 150 
L 850 150 
z
" transform="scale(0.015625)"/>
       </defs>
       <use xlink:href="#SimHei-37"/>
       <use xlink:href="#SimHei-30" transform="translate(50 0)"/>
       <use xlink:href="#SimHei-30" transform="translate(100 0)"/>
       <use xlink:href="#SimHei-30" transform="translate(150 0)"/>
      </g>
     </g>
    </g>
    <g id="text_9">
     <!-- Time to Failure (h) -->
     <g transform="translate(312.06994 414.969844) scale(0.13 -0.13)">
      <defs>
       <path id="SimHei-54" d="M 2850 3925 
L 1850 3925 
L 1850 125 
L 1275 125 
L 1275 3925 
L 275 3925 
L 275 4400 
L 2850 4400 
L 2850 3925 
z
" transform="scale(0.015625)"/>
       <path id="SimHei-69" d="M 1800 3725 
L 1300 3725 
L 1300 4375 
L 1800 4375 
L 1800 3725 
z
M 1800 125 
L 1300 125 
L 1300 2925 
L 1800 2925 
L 1800 125 
z
" transform="scale(0.015625)"/>
       <path id="SimHei-6d" d="M 3050 125 
L 2550 125 
L 2550 2150 
Q 2550 2300 2500 2400 
Q 2450 2500 2300 2500 
Q 2125 2500 1975 2312 
Q 1825 2125 1825 1825 
L 1825 125 
L 1325 125 
L 1325 2150 
Q 1325 2300 1275 2400 
Q 1225 2500 1075 2500 
Q 900 2500 750 2312 
Q 600 2125 600 1825 
L 600 125 
L 100 125 
L 100 2925 
L 600 2925 
L 600 2550 
Q 725 2750 900 2862 
Q 1075 2975 1275 2975 
Q 1475 2975 1612 2862 
Q 1750 2750 1800 2550 
Q 1925 2750 2087 2862 
Q 2250 2975 2450 2975 
Q 2750 2975 2900 2812 
Q 3050 2650 3050 2350 
L 3050 125 
z
" transform="scale(0.015625)"/>
       <path id="SimHei-65" d="M 2850 1075 
Q 2800 625 2450 350 
Q 2100 75 1625 75 
Q 1025 75 637 462 
Q 250 850 250 1525 
Q 250 2200 637 2587 
Q 1025 2975 1625 2975 
Q 2150 2975 2487 2637 
Q 2825 2300 2825 1525 
L 800 1525 
Q 800 975 1037 750 
Q 1275 525 1625 525 
Q 1900 525 2075 662 
Q 2250 800 2300 1075 
L 2850 1075 
z
M 2250 1925 
Q 2200 2275 2025 2412 
Q 1850 2550 1575 2550 
Q 1325 2550 1125 2412 
Q 925 2275 825 1925 
L 2250 1925 
z
" transform="scale(0.015625)"/>
       <path id="SimHei-20" transform="scale(0.015625)"/>
       <path id="SimHei-74" d="M 2750 200 
Q 2625 150 2462 112 
Q 2300 75 2025 75 
Q 1575 75 1300 325 
Q 1025 575 1025 1025 
L 1025 2525 
L 175 2525 
L 175 2925 
L 1025 2925 
L 1025 3900 
L 1525 3900 
L 1525 2925 
L 2550 2925 
L 2550 2525 
L 1525 2525 
L 1525 1000 
Q 1525 800 1625 662 
Q 1725 525 2000 525 
Q 2275 525 2450 575 
Q 2625 625 2750 700 
L 2750 200 
z
" transform="scale(0.015625)"/>
       <path id="SimHei-6f" d="M 2925 1525 
Q 2925 875 2525 475 
Q 2125 75 1575 75 
Q 1025 75 625 475 
Q 225 875 225 1525 
Q 225 2175 625 2575 
Q 1025 2975 1575 2975 
Q 2125 2975 2525 2575 
Q 2925 2175 2925 1525 
z
M 2375 1525 
Q 2375 2025 2125 2275 
Q 1875 2525 1575 2525 
Q 1275 2525 1025 2275 
Q 775 2025 775 1525 
Q 775 1025 1025 775 
Q 1275 525 1575 525 
Q 1875 525 2125 775 
Q 2375 1025 2375 1525 
z
" transform="scale(0.015625)"/>
       <path id="SimHei-46" d="M 2925 3925 
L 875 3925 
L 875 2525 
L 2425 2525 
L 2425 2050 
L 875 2050 
L 875 125 
L 300 125 
L 300 4400 
L 2925 4400 
L 2925 3925 
z
" transform="scale(0.015625)"/>
       <path id="SimHei-61" d="M 2875 125 
L 2275 125 
Q 2225 175 2200 262 
Q 2175 350 2175 475 
Q 2000 275 1750 175 
Q 1500 75 1225 75 
Q 825 75 550 275 
Q 275 475 275 850 
Q 275 1225 525 1450 
Q 775 1675 1300 1750 
Q 1650 1800 1912 1875 
Q 2175 1950 2175 2075 
Q 2175 2225 2062 2375 
Q 1950 2525 1575 2525 
Q 1275 2525 1137 2412 
Q 1000 2300 950 2100 
L 400 2100 
Q 450 2500 762 2737 
Q 1075 2975 1575 2975 
Q 2125 2975 2400 2725 
Q 2675 2475 2675 2025 
L 2675 650 
Q 2675 500 2725 375 
Q 2775 250 2875 125 
z
M 2175 1050 
L 2175 1550 
Q 2025 1500 1887 1462 
Q 1750 1425 1425 1375 
Q 1050 1325 937 1200 
Q 825 1075 825 900 
Q 825 750 937 637 
Q 1050 525 1275 525 
Q 1500 525 1762 650 
Q 2025 775 2175 1050 
z
" transform="scale(0.015625)"/>
       <path id="SimHei-6c" d="M 1825 125 
L 1325 125 
L 1325 4400 
L 1825 4400 
L 1825 125 
z
" transform="scale(0.015625)"/>
       <path id="SimHei-75" d="M 2800 125 
L 2300 125 
L 2300 650 
Q 2100 375 1862 225 
Q 1625 75 1250 75 
Q 800 75 575 325 
Q 350 575 350 950 
L 350 2925 
L 850 2925 
L 850 1125 
Q 850 825 1000 650 
Q 1150 475 1400 475 
Q 1725 475 2012 812 
Q 2300 1150 2300 1650 
L 2300 2925 
L 2800 2925 
L 2800 125 
z
" transform="scale(0.015625)"/>
       <path id="SimHei-72" d="M 2500 2425 
Q 2025 2500 1700 2287 
Q 1375 2075 1150 1550 
L 1150 125 
L 650 125 
L 650 2925 
L 1150 2925 
L 1150 2200 
Q 1375 2600 1712 2787 
Q 2050 2975 2500 2975 
L 2500 2425 
z
" transform="scale(0.015625)"/>
       <path id="SimHei-28" d="M 2975 -200 
L 2700 -475 
Q 2075 125 1762 775 
Q 1450 1425 1450 2250 
Q 1450 3075 1762 3725 
Q 2075 4375 2700 5000 
L 2975 4725 
Q 2400 4175 2112 3587 
Q 1825 3000 1825 2250 
Q 1825 1500 2112 912 
Q 2400 325 2975 -200 
z
" transform="scale(0.015625)"/>
       <path id="SimHei-68" d="M 2800 125 
L 2300 125 
L 2300 1925 
Q 2300 2225 2150 2400 
Q 2000 2575 1750 2575 
Q 1425 2575 1137 2237 
Q 850 1900 850 1400 
L 850 125 
L 350 125 
L 350 4400 
L 850 4400 
L 850 2400 
Q 1050 2675 1287 2825 
Q 1525 2975 1900 2975 
Q 2350 2975 2575 2725 
Q 2800 2475 2800 2100 
L 2800 125 
z
" transform="scale(0.015625)"/>
       <path id="SimHei-29" d="M 1675 2250 
Q 1675 1425 1362 775 
Q 1050 125 425 -475 
L 150 -200 
Q 725 325 1012 912 
Q 1300 1500 1300 2250 
Q 1300 3000 1012 3587 
Q 725 4175 150 4725 
L 425 5000 
Q 1050 4375 1362 3725 
Q 1675 3075 1675 2250 
z
" transform="scale(0.015625)"/>
      </defs>
      <use xlink:href="#SimHei-54"/>
      <use xlink:href="#SimHei-69" transform="translate(50 0)"/>
      <use xlink:href="#SimHei-6d" transform="translate(100 0)"/>
      <use xlink:href="#SimHei-65" transform="translate(150 0)"/>
      <use xlink:href="#SimHei-20" transform="translate(200 0)"/>
      <use xlink:href="#SimHei-74" transform="translate(250 0)"/>
      <use xlink:href="#SimHei-6f" transform="translate(300 0)"/>
      <use xlink:href="#SimHei-20" transform="translate(350 0)"/>
      <use xlink:href="#SimHei-46" transform="translate(400 0)"/>
      <use xlink:href="#SimHei-61" transform="translate(450 0)"/>
      <use xlink:href="#SimHei-69" transform="translate(500 0)"/>
      <use xlink:href="#SimHei-6c" transform="translate(550 0)"/>
      <use xlink:href="#SimHei-75" transform="translate(600 0)"/>
      <use xlink:href="#SimHei-72" transform="translate(650 0)"/>
      <use xlink:href="#SimHei-65" transform="translate(700 0)"/>
      <use xlink:href="#SimHei-20" transform="translate(750 0)"/>
      <use xlink:href="#SimHei-28" transform="translate(800 0)"/>
      <use xlink:href="#SimHei-68" transform="translate(850 0)"/>
      <use xlink:href="#SimHei-29" transform="translate(900 0)"/>
     </g>
    </g>
   </g>
   <g id="matplotlib.axis_2">
    <g id="ytick_1">
     <g id="line2d_17">
      <path d="M 51.321094 369.433958 
L 696.318787 369.433958 
" clip-path="url(#pf9556fbae8)" style="fill: none; stroke-dasharray: 2.96,1.28; stroke-dashoffset: 0; stroke: #b0b0b0; stroke-opacity: 0.4; stroke-width: 0.8"/>
     </g>
     <g id="line2d_18">
      <defs>
       <path id="m95623dd62e" d="M 0 0 
L -3.5 0 
" style="stroke: #000000; stroke-width: 0.8"/>
      </defs>
      <g>
       <use xlink:href="#m95623dd62e" x="51.321094" y="369.433958" style="stroke: #000000; stroke-width: 0.8"/>
      </g>
     </g>
     <g id="text_10">
      <!-- 0.00 -->
      <g transform="translate(22.321094 373.215208) scale(0.11 -0.11)">
       <defs>
        <path id="SimHei-2e" d="M 1075 125 
L 500 125 
L 500 675 
L 1075 675 
L 1075 125 
z
" transform="scale(0.015625)"/>
       </defs>
       <use xlink:href="#SimHei-30"/>
       <use xlink:href="#SimHei-2e" transform="translate(50 0)"/>
       <use xlink:href="#SimHei-30" transform="translate(100 0)"/>
       <use xlink:href="#SimHei-30" transform="translate(150 0)"/>
      </g>
     </g>
    </g>
    <g id="ytick_2">
     <g id="line2d_19">
      <path d="M 51.321094 313.377022 
L 696.318787 313.377022 
" clip-path="url(#pf9556fbae8)" style="fill: none; stroke-dasharray: 2.96,1.28; stroke-dashoffset: 0; stroke: #b0b0b0; stroke-opacity: 0.4; stroke-width: 0.8"/>
     </g>
     <g id="line2d_20">
      <g>
       <use xlink:href="#m95623dd62e" x="51.321094" y="313.377022" style="stroke: #000000; stroke-width: 0.8"/>
      </g>
     </g>
     <g id="text_11">
      <!-- 0.01 -->
      <g transform="translate(22.321094 317.158272) scale(0.11 -0.11)">
       <defs>
        <path id="SimHei-31" d="M 1400 3600 
Q 1075 3275 575 2975 
L 575 3450 
Q 1200 3875 1600 4450 
L 1900 4450 
L 1900 150 
L 1400 150 
L 1400 3600 
z
" transform="scale(0.015625)"/>
       </defs>
       <use xlink:href="#SimHei-30"/>
       <use xlink:href="#SimHei-2e" transform="translate(50 0)"/>
       <use xlink:href="#SimHei-30" transform="translate(100 0)"/>
       <use xlink:href="#SimHei-31" transform="translate(150 0)"/>
      </g>
     </g>
    </g>
    <g id="ytick_3">
     <g id="line2d_21">
      <path d="M 51.321094 257.320086 
L 696.318787 257.320086 
" clip-path="url(#pf9556fbae8)" style="fill: none; stroke-dasharray: 2.96,1.28; stroke-dashoffset: 0; stroke: #b0b0b0; stroke-opacity: 0.4; stroke-width: 0.8"/>
     </g>
     <g id="line2d_22">
      <g>
       <use xlink:href="#m95623dd62e" x="51.321094" y="257.320086" style="stroke: #000000; stroke-width: 0.8"/>
      </g>
     </g>
     <g id="text_12">
      <!-- 0.02 -->
      <g transform="translate(22.321094 261.101336) scale(0.11 -0.11)">
       <defs>
        <path id="SimHei-32" d="M 300 250 
Q 325 625 650 925 
Q 975 1225 1475 1862 
Q 1975 2500 2125 2850 
Q 2275 3200 2237 3450 
Q 2200 3700 2000 3862 
Q 1800 4025 1537 4000 
Q 1275 3975 1037 3800 
Q 800 3625 675 3275 
L 200 3350 
Q 400 3925 712 4187 
Q 1025 4450 1450 4475 
Q 1700 4500 1900 4462 
Q 2100 4425 2312 4287 
Q 2525 4150 2662 3875 
Q 2800 3600 2762 3212 
Q 2725 2825 2375 2287 
Q 2025 1750 1025 600 
L 2825 600 
L 2825 150 
L 300 150 
L 300 250 
z
" transform="scale(0.015625)"/>
       </defs>
       <use xlink:href="#SimHei-30"/>
       <use xlink:href="#SimHei-2e" transform="translate(50 0)"/>
       <use xlink:href="#SimHei-30" transform="translate(100 0)"/>
       <use xlink:href="#SimHei-32" transform="translate(150 0)"/>
      </g>
     </g>
    </g>
    <g id="ytick_4">
     <g id="line2d_23">
      <path d="M 51.321094 201.26315 
L 696.318787 201.26315 
" clip-path="url(#pf9556fbae8)" style="fill: none; stroke-dasharray: 2.96,1.28; stroke-dashoffset: 0; stroke: #b0b0b0; stroke-opacity: 0.4; stroke-width: 0.8"/>
     </g>
     <g id="line2d_24">
      <g>
       <use xlink:href="#m95623dd62e" x="51.321094" y="201.26315" style="stroke: #000000; stroke-width: 0.8"/>
      </g>
     </g>
     <g id="text_13">
      <!-- 0.03 -->
      <g transform="translate(22.321094 205.0444) scale(0.11 -0.11)">
       <use xlink:href="#SimHei-30"/>
       <use xlink:href="#SimHei-2e" transform="translate(50 0)"/>
       <use xlink:href="#SimHei-30" transform="translate(100 0)"/>
       <use xlink:href="#SimHei-33" transform="translate(150 0)"/>
      </g>
     </g>
    </g>
    <g id="ytick_5">
     <g id="line2d_25">
      <path d="M 51.321094 145.206213 
L 696.318787 145.206213 
" clip-path="url(#pf9556fbae8)" style="fill: none; stroke-dasharray: 2.96,1.28; stroke-dashoffset: 0; stroke: #b0b0b0; stroke-opacity: 0.4; stroke-width: 0.8"/>
     </g>
     <g id="line2d_26">
      <g>
       <use xlink:href="#m95623dd62e" x="51.321094" y="145.206213" style="stroke: #000000; stroke-width: 0.8"/>
      </g>
     </g>
     <g id="text_14">
      <!-- 0.04 -->
      <g transform="translate(22.321094 148.987463) scale(0.11 -0.11)">
       <use xlink:href="#SimHei-30"/>
       <use xlink:href="#SimHei-2e" transform="translate(50 0)"/>
       <use xlink:href="#SimHei-30" transform="translate(100 0)"/>
       <use xlink:href="#SimHei-34" transform="translate(150 0)"/>
      </g>
     </g>
    </g>
    <g id="ytick_6">
     <g id="line2d_27">
      <path d="M 51.321094 89.149277 
L 696.318787 89.149277 
" clip-path="url(#pf9556fbae8)" style="fill: none; stroke-dasharray: 2.96,1.28; stroke-dashoffset: 0; stroke: #b0b0b0; stroke-opacity: 0.4; stroke-width: 0.8"/>
     </g>
     <g id="line2d_28">
      <g>
       <use xlink:href="#m95623dd62e" x="51.321094" y="89.149277" style="stroke: #000000; stroke-width: 0.8"/>
      </g>
     </g>
     <g id="text_15">
      <!-- 0.05 -->
      <g transform="translate(22.321094 92.930527) scale(0.11 -0.11)">
       <use xlink:href="#SimHei-30"/>
       <use xlink:href="#SimHei-2e" transform="translate(50 0)"/>
       <use xlink:href="#SimHei-30" transform="translate(100 0)"/>
       <use xlink:href="#SimHei-35" transform="translate(150 0)"/>
      </g>
     </g>
    </g>
    <g id="ytick_7">
     <g id="line2d_29">
      <path d="M 51.321094 33.092341 
L 696.318787 33.092341 
" clip-path="url(#pf9556fbae8)" style="fill: none; stroke-dasharray: 2.96,1.28; stroke-dashoffset: 0; stroke: #b0b0b0; stroke-opacity: 0.4; stroke-width: 0.8"/>
     </g>
     <g id="line2d_30">
      <g>
       <use xlink:href="#m95623dd62e" x="51.321094" y="33.092341" style="stroke: #000000; stroke-width: 0.8"/>
      </g>
     </g>
     <g id="text_16">
      <!-- 0.06 -->
      <g transform="translate(22.321094 36.873591) scale(0.11 -0.11)">
       <use xlink:href="#SimHei-30"/>
       <use xlink:href="#SimHei-2e" transform="translate(50 0)"/>
       <use xlink:href="#SimHei-30" transform="translate(100 0)"/>
       <use xlink:href="#SimHei-36" transform="translate(150 0)"/>
      </g>
     </g>
    </g>
    <g id="text_17">
     <!-- h(t) -->
     <g transform="translate(16.696094 220.524375) rotate(-90) scale(0.13 -0.13)">
      <use xlink:href="#SimHei-68"/>
      <use xlink:href="#SimHei-28" transform="translate(50 0)"/>
      <use xlink:href="#SimHei-74" transform="translate(100 0)"/>
      <use xlink:href="#SimHei-29" transform="translate(150 0)"/>
     </g>
    </g>
   </g>
   <g id="line2d_31">
    <path d="M 80.639171 369.313049 
L 124.710905 367.808319 
L 147.06354 365.961654 
L 233.574108 368.455222 
L 309.853566 368.212946 
L 381.081863 367.981069 
L 391.888891 358.661087 
L 397.074011 343.77312 
L 439.588268 365.782706 
L 440.16366 45.695398 
L 488.18121 364.584785 
L 528.489895 361.731882 
L 577.977762 360.023756 
L 638.753194 354.108988 
" clip-path="url(#pf9556fbae8)" style="fill: none; stroke: #1f77b4; stroke-width: 1.8; stroke-linecap: square"/>
    <defs>
     <path id="m031ea986bd" d="M 0 3.5 
C 0.928211 3.5 1.81853 3.131218 2.474874 2.474874 
C 3.131218 1.81853 3.5 0.928211 3.5 0 
C 3.5 -0.928211 3.131218 -1.81853 2.474874 -2.474874 
C 1.81853 -3.131218 0.928211 -3.5 0 -3.5 
C -0.928211 -3.5 -1.81853 -3.131218 -2.474874 -2.474874 
C -3.131218 -1.81853 -3.5 -0.928211 -3.5 0 
C -3.5 0.928211 -3.131218 1.81853 -2.474874 2.474874 
C -1.81853 3.131218 -0.928211 3.5 0 3.5 
z
" style="stroke: #1f77b4"/>
    </defs>
    <g clip-path="url(#pf9556fbae8)">
     <use xlink:href="#m031ea986bd" x="80.639171" y="369.313049" style="fill: #1f77b4; stroke: #1f77b4"/>
     <use xlink:href="#m031ea986bd" x="124.710905" y="367.808319" style="fill: #1f77b4; stroke: #1f77b4"/>
     <use xlink:href="#m031ea986bd" x="147.06354" y="365.961654" style="fill: #1f77b4; stroke: #1f77b4"/>
     <use xlink:href="#m031ea986bd" x="233.574108" y="368.455222" style="fill: #1f77b4; stroke: #1f77b4"/>
     <use xlink:href="#m031ea986bd" x="309.853566" y="368.212946" style="fill: #1f77b4; stroke: #1f77b4"/>
     <use xlink:href="#m031ea986bd" x="381.081863" y="367.981069" style="fill: #1f77b4; stroke: #1f77b4"/>
     <use xlink:href="#m031ea986bd" x="391.888891" y="358.661087" style="fill: #1f77b4; stroke: #1f77b4"/>
     <use xlink:href="#m031ea986bd" x="397.074011" y="343.77312" style="fill: #1f77b4; stroke: #1f77b4"/>
     <use xlink:href="#m031ea986bd" x="439.588268" y="365.782706" style="fill: #1f77b4; stroke: #1f77b4"/>
     <use xlink:href="#m031ea986bd" x="440.16366" y="45.695398" style="fill: #1f77b4; stroke: #1f77b4"/>
     <use xlink:href="#m031ea986bd" x="488.18121" y="364.584785" style="fill: #1f77b4; stroke: #1f77b4"/>
     <use xlink:href="#m031ea986bd" x="528.489895" y="361.731882" style="fill: #1f77b4; stroke: #1f77b4"/>
     <use xlink:href="#m031ea986bd" x="577.977762" y="360.023756" style="fill: #1f77b4; stroke: #1f77b4"/>
     <use xlink:href="#m031ea986bd" x="638.753194" y="354.108988" style="fill: #1f77b4; stroke: #1f77b4"/>
    </g>
   </g>
   <g id="line2d_32">
    <path d="M 80.639171 369.32111 
L 124.710905 367.924436 
L 147.06354 366.228755 
L 233.574108 368.536783 
L 309.853566 368.323947 
L 381.081863 368.126358 
L 391.888891 359.858073 
L 397.074011 346.980725 
L 439.588268 366.304314 
L 440.16366 99.651825 
L 488.18121 365.55462 
L 528.489895 363.657401 
L 577.977762 363.16049 
L 638.753194 361.771473 
L 667.00071 336.461795 
" clip-path="url(#pf9556fbae8)" style="fill: none; stroke: #ff7f0e; stroke-width: 1.8; stroke-linecap: square"/>
    <defs>
     <path id="mde4c795d2c" d="M -3.5 3.5 
L 3.5 3.5 
L 3.5 -3.5 
L -3.5 -3.5 
z
" style="stroke: #ff7f0e; stroke-linejoin: miter"/>
    </defs>
    <g clip-path="url(#pf9556fbae8)">
     <use xlink:href="#mde4c795d2c" x="80.639171" y="369.32111" style="fill: #ff7f0e; stroke: #ff7f0e; stroke-linejoin: miter"/>
     <use xlink:href="#mde4c795d2c" x="124.710905" y="367.924436" style="fill: #ff7f0e; stroke: #ff7f0e; stroke-linejoin: miter"/>
     <use xlink:href="#mde4c795d2c" x="147.06354" y="366.228755" style="fill: #ff7f0e; stroke: #ff7f0e; stroke-linejoin: miter"/>
     <use xlink:href="#mde4c795d2c" x="233.574108" y="368.536783" style="fill: #ff7f0e; stroke: #ff7f0e; stroke-linejoin: miter"/>
     <use xlink:href="#mde4c795d2c" x="309.853566" y="368.323947" style="fill: #ff7f0e; stroke: #ff7f0e; stroke-linejoin: miter"/>
     <use xlink:href="#mde4c795d2c" x="381.081863" y="368.126358" style="fill: #ff7f0e; stroke: #ff7f0e; stroke-linejoin: miter"/>
     <use xlink:href="#mde4c795d2c" x="391.888891" y="359.858073" style="fill: #ff7f0e; stroke: #ff7f0e; stroke-linejoin: miter"/>
     <use xlink:href="#mde4c795d2c" x="397.074011" y="346.980725" style="fill: #ff7f0e; stroke: #ff7f0e; stroke-linejoin: miter"/>
     <use xlink:href="#mde4c795d2c" x="439.588268" y="366.304314" style="fill: #ff7f0e; stroke: #ff7f0e; stroke-linejoin: miter"/>
     <use xlink:href="#mde4c795d2c" x="440.16366" y="99.651825" style="fill: #ff7f0e; stroke: #ff7f0e; stroke-linejoin: miter"/>
     <use xlink:href="#mde4c795d2c" x="488.18121" y="365.55462" style="fill: #ff7f0e; stroke: #ff7f0e; stroke-linejoin: miter"/>
     <use xlink:href="#mde4c795d2c" x="528.489895" y="363.657401" style="fill: #ff7f0e; stroke: #ff7f0e; stroke-linejoin: miter"/>
     <use xlink:href="#mde4c795d2c" x="577.977762" y="363.16049" style="fill: #ff7f0e; stroke: #ff7f0e; stroke-linejoin: miter"/>
     <use xlink:href="#mde4c795d2c" x="638.753194" y="361.771473" style="fill: #ff7f0e; stroke: #ff7f0e; stroke-linejoin: miter"/>
     <use xlink:href="#mde4c795d2c" x="667.00071" y="336.461795" style="fill: #ff7f0e; stroke: #ff7f0e; stroke-linejoin: miter"/>
    </g>
   </g>
   <g id="line2d_33">
    <path d="M 80.639171 369.353352 
L 124.710905 367.891381 
L 147.06354 366.153041 
L 233.574108 368.513779 
L 309.853566 368.292825 
L 381.081863 368.085916 
L 391.888891 359.52787 
L 397.074011 346.105924 
L 439.588268 366.16418 
L 440.16366 85.452765 
L 488.18121 365.307002 
L 528.489895 363.189032 
L 577.977762 362.463438 
L 638.753194 360.41927 
L 667.00071 322.330868 
" clip-path="url(#pf9556fbae8)" style="fill: none; stroke: #2ca02c; stroke-width: 1.8; stroke-linecap: square"/>
    <defs>
     <path id="m808f3869c7" d="M 0 -3.5 
L -3.5 3.5 
L 3.5 3.5 
z
" style="stroke: #2ca02c; stroke-linejoin: miter"/>
    </defs>
    <g clip-path="url(#pf9556fbae8)">
     <use xlink:href="#m808f3869c7" x="80.639171" y="369.353352" style="fill: #2ca02c; stroke: #2ca02c; stroke-linejoin: miter"/>
     <use xlink:href="#m808f3869c7" x="124.710905" y="367.891381" style="fill: #2ca02c; stroke: #2ca02c; stroke-linejoin: miter"/>
     <use xlink:href="#m808f3869c7" x="147.06354" y="366.153041" style="fill: #2ca02c; stroke: #2ca02c; stroke-linejoin: miter"/>
     <use xlink:href="#m808f3869c7" x="233.574108" y="368.513779" style="fill: #2ca02c; stroke: #2ca02c; stroke-linejoin: miter"/>
     <use xlink:href="#m808f3869c7" x="309.853566" y="368.292825" style="fill: #2ca02c; stroke: #2ca02c; stroke-linejoin: miter"/>
     <use xlink:href="#m808f3869c7" x="381.081863" y="368.085916" style="fill: #2ca02c; stroke: #2ca02c; stroke-linejoin: miter"/>
     <use xlink:href="#m808f3869c7" x="391.888891" y="359.52787" style="fill: #2ca02c; stroke: #2ca02c; stroke-linejoin: miter"/>
     <use xlink:href="#m808f3869c7" x="397.074011" y="346.105924" style="fill: #2ca02c; stroke: #2ca02c; stroke-linejoin: miter"/>
     <use xlink:href="#m808f3869c7" x="439.588268" y="366.16418" style="fill: #2ca02c; stroke: #2ca02c; stroke-linejoin: miter"/>
     <use xlink:href="#m808f3869c7" x="440.16366" y="85.452765" style="fill: #2ca02c; stroke: #2ca02c; stroke-linejoin: miter"/>
     <use xlink:href="#m808f3869c7" x="488.18121" y="365.307002" style="fill: #2ca02c; stroke: #2ca02c; stroke-linejoin: miter"/>
     <use xlink:href="#m808f3869c7" x="528.489895" y="363.189032" style="fill: #2ca02c; stroke: #2ca02c; stroke-linejoin: miter"/>
     <use xlink:href="#m808f3869c7" x="577.977762" y="362.463438" style="fill: #2ca02c; stroke: #2ca02c; stroke-linejoin: miter"/>
     <use xlink:href="#m808f3869c7" x="638.753194" y="360.41927" style="fill: #2ca02c; stroke: #2ca02c; stroke-linejoin: miter"/>
     <use xlink:href="#m808f3869c7" x="667.00071" y="322.330868" style="fill: #2ca02c; stroke: #2ca02c; stroke-linejoin: miter"/>
    </g>
   </g>
   <g id="patch_3">
    <path d="M 51.321094 385.53625 
L 51.321094 29.5125 
" style="fill: none; stroke: #000000; stroke-width: 0.8; stroke-linejoin: miter; stroke-linecap: square"/>
   </g>
   <g id="patch_4">
    <path d="M 696.318787 385.53625 
L 696.318787 29.5125 
" style="fill: none; stroke: #000000; stroke-width: 0.8; stroke-linejoin: miter; stroke-linecap: square"/>
   </g>
   <g id="patch_5">
    <path d="M 51.321094 385.53625 
L 696.318787 385.53625 
" style="fill: none; stroke: #000000; stroke-width: 0.8; stroke-linejoin: miter; stroke-linecap: square"/>
   </g>
   <g id="patch_6">
    <path d="M 51.321094 29.5125 
L 696.318787 29.5125 
" style="fill: none; stroke: #000000; stroke-width: 0.8; stroke-linejoin: miter; stroke-linecap: square"/>
   </g>
   <g id="text_18">
    <!-- Nonparametric Failure Rate -->
    <g transform="translate(276.31994 17.5125) scale(0.15 -0.15)">
     <defs>
      <path id="SimHei-4e" d="M 2850 125 
L 2225 125 
L 850 3225 
L 825 3225 
L 825 125 
L 250 125 
L 250 4400 
L 875 4400 
L 2250 1300 
L 2275 1300 
L 2275 4400 
L 2850 4400 
L 2850 125 
z
" transform="scale(0.015625)"/>
      <path id="SimHei-6e" d="M 2800 125 
L 2300 125 
L 2300 1925 
Q 2300 2225 2150 2400 
Q 2000 2575 1750 2575 
Q 1425 2575 1137 2237 
Q 850 1900 850 1400 
L 850 125 
L 350 125 
L 350 2925 
L 850 2925 
L 850 2400 
Q 1050 2675 1287 2825 
Q 1525 2975 1900 2975 
Q 2350 2975 2575 2725 
Q 2800 2475 2800 2100 
L 2800 125 
z
" transform="scale(0.015625)"/>
      <path id="SimHei-70" d="M 2825 1525 
Q 2825 800 2475 425 
Q 2125 50 1625 50 
Q 1350 50 1150 162 
Q 950 275 800 500 
L 800 -800 
L 300 -800 
L 300 2925 
L 800 2925 
L 800 2550 
Q 950 2775 1150 2875 
Q 1350 2975 1625 2975 
Q 2125 2975 2475 2612 
Q 2825 2250 2825 1525 
z
M 2275 1525 
Q 2275 2000 2087 2262 
Q 1900 2525 1525 2525 
Q 1225 2525 1012 2262 
Q 800 2000 800 1525 
Q 800 1050 1012 775 
Q 1225 500 1525 500 
Q 1900 500 2087 775 
Q 2275 1050 2275 1525 
z
" transform="scale(0.015625)"/>
      <path id="SimHei-63" d="M 2850 1250 
Q 2850 725 2487 400 
Q 2125 75 1575 75 
Q 1025 75 625 462 
Q 225 850 225 1525 
Q 225 2200 625 2587 
Q 1025 2975 1575 2975 
Q 2125 2975 2450 2687 
Q 2775 2400 2775 2000 
L 2225 2000 
Q 2200 2300 2012 2412 
Q 1825 2525 1575 2525 
Q 1275 2525 1025 2287 
Q 775 2050 775 1525 
Q 775 1000 1025 762 
Q 1275 525 1575 525 
Q 1900 525 2100 700 
Q 2300 875 2300 1250 
L 2850 1250 
z
" transform="scale(0.015625)"/>
      <path id="SimHei-52" d="M 3000 125 
L 2400 125 
L 1500 1975 
L 850 1975 
L 850 125 
L 275 125 
L 275 4400 
L 1525 4400 
Q 2125 4400 2500 4112 
Q 2875 3825 2875 3175 
Q 2875 2675 2625 2400 
Q 2375 2125 2050 2050 
L 3000 125 
z
M 2300 3175 
Q 2300 3525 2087 3725 
Q 1875 3925 1400 3925 
L 850 3925 
L 850 2450 
L 1550 2450 
Q 1850 2450 2075 2612 
Q 2300 2775 2300 3175 
z
" transform="scale(0.015625)"/>
     </defs>
     <use xlink:href="#SimHei-4e"/>
     <use xlink:href="#SimHei-6f" transform="translate(50 0)"/>
     <use xlink:href="#SimHei-6e" transform="translate(100 0)"/>
     <use xlink:href="#SimHei-70" transform="translate(150 0)"/>
     <use xlink:href="#SimHei-61" transform="translate(200 0)"/>
     <use xlink:href="#SimHei-72" transform="translate(250 0)"/>
     <use xlink:href="#SimHei-61" transform="translate(300 0)"/>
     <use xlink:href="#SimHei-6d" transform="translate(350 0)"/>
     <use xlink:href="#SimHei-65" transform="translate(400 0)"/>
     <use xlink:href="#SimHei-74" transform="translate(450 0)"/>
     <use xlink:href="#SimHei-72" transform="translate(500 0)"/>
     <use xlink:href="#SimHei-69" transform="translate(550 0)"/>
     <use xlink:href="#SimHei-63" transform="translate(600 0)"/>
     <use xlink:href="#SimHei-20" transform="translate(650 0)"/>
     <use xlink:href="#SimHei-46" transform="translate(700 0)"/>
     <use xlink:href="#SimHei-61" transform="translate(750 0)"/>
     <use xlink:href="#SimHei-69" transform="translate(800 0)"/>
     <use xlink:href="#SimHei-6c" transform="translate(850 0)"/>
     <use xlink:href="#SimHei-75" transform="translate(900 0)"/>
     <use xlink:href="#SimHei-72" transform="translate(950 0)"/>
     <use xlink:href="#SimHei-65" transform="translate(1000 0)"/>
     <use xlink:href="#SimHei-20" transform="translate(1050 0)"/>
     <use xlink:href="#SimHei-52" transform="translate(1100 0)"/>
     <use xlink:href="#SimHei-61" transform="translate(1150 0)"/>
     <use xlink:href="#SimHei-74" transform="translate(1200 0)"/>
     <use xlink:href="#SimHei-65" transform="translate(1250 0)"/>
    </g>
   </g>
   <g id="legend_1">
    <g id="patch_7">
     <path d="M 522.318787 78.684375 
L 689.318787 78.684375 
Q 691.318787 78.684375 691.318787 76.684375 
L 691.318787 36.5125 
Q 691.318787 34.5125 689.318787 34.5125 
L 522.318787 34.5125 
Q 520.318787 34.5125 520.318787 36.5125 
L 520.318787 76.684375 
Q 520.318787 78.684375 522.318787 78.684375 
z
" style="fill: #ffffff; opacity: 0.9; stroke: #cccccc; stroke-linejoin: miter"/>
    </g>
    <g id="line2d_34">
     <path d="M 524.318787 42.825 
L 534.318787 42.825 
L 544.318787 42.825 
" style="fill: none; stroke: #1f77b4; stroke-width: 1.8; stroke-linecap: square"/>
     <g>
      <use xlink:href="#m031ea986bd" x="534.318787" y="42.825" style="fill: #1f77b4; stroke: #1f77b4"/>
     </g>
    </g>
    <g id="text_19">
     <!-- Simple (i/n) -->
     <g transform="translate(552.318787 46.325) scale(0.1 -0.1)">
      <defs>
       <path id="SimHei-53" d="M 2900 1325 
Q 2900 750 2537 412 
Q 2175 75 1550 75 
Q 925 75 575 425 
Q 225 775 225 1300 
L 225 1475 
L 800 1475 
L 800 1325 
Q 800 950 1025 750 
Q 1250 550 1550 550 
Q 1950 550 2137 762 
Q 2325 975 2325 1275 
Q 2325 1525 2100 1737 
Q 1875 1950 1450 2125 
Q 850 2350 587 2625 
Q 325 2900 325 3275 
Q 325 3800 687 4125 
Q 1050 4450 1550 4450 
Q 2200 4450 2487 4062 
Q 2775 3675 2775 3225 
L 2200 3225 
Q 2225 3500 2050 3725 
Q 1875 3950 1550 3950 
Q 1250 3950 1075 3787 
Q 900 3625 900 3350 
Q 900 3125 1037 2962 
Q 1175 2800 1750 2575 
Q 2300 2350 2600 2037 
Q 2900 1725 2900 1325 
z
" transform="scale(0.015625)"/>
       <path id="SimHei-2f" d="M 3000 4550 
L 350 -175 
L 100 -25 
L 2750 4700 
L 3000 4550 
z
" transform="scale(0.015625)"/>
      </defs>
      <use xlink:href="#SimHei-53"/>
      <use xlink:href="#SimHei-69" transform="translate(50 0)"/>
      <use xlink:href="#SimHei-6d" transform="translate(100 0)"/>
      <use xlink:href="#SimHei-70" transform="translate(150 0)"/>
      <use xlink:href="#SimHei-6c" transform="translate(200 0)"/>
      <use xlink:href="#SimHei-65" transform="translate(250 0)"/>
      <use xlink:href="#SimHei-20" transform="translate(300 0)"/>
      <use xlink:href="#SimHei-28" transform="translate(350 0)"/>
      <use xlink:href="#SimHei-69" transform="translate(400 0)"/>
      <use xlink:href="#SimHei-2f" transform="translate(450 0)"/>
      <use xlink:href="#SimHei-6e" transform="translate(500 0)"/>
      <use xlink:href="#SimHei-29" transform="translate(550 0)"/>
     </g>
    </g>
    <g id="line2d_35">
     <path d="M 524.318787 56.379687 
L 534.318787 56.379687 
L 544.318787 56.379687 
" style="fill: none; stroke: #ff7f0e; stroke-width: 1.8; stroke-linecap: square"/>
     <g>
      <use xlink:href="#mde4c795d2c" x="534.318787" y="56.379687" style="fill: #ff7f0e; stroke: #ff7f0e; stroke-linejoin: miter"/>
     </g>
    </g>
    <g id="text_20">
     <!-- Mean Rank i/(n+1) -->
     <g transform="translate(552.318787 59.879687) scale(0.1 -0.1)">
      <defs>
       <path id="SimHei-4d" d="M 2925 125 
L 2425 125 
L 2425 3175 
L 2375 3175 
L 1775 125 
L 1375 125 
L 775 3175 
L 725 3175 
L 725 125 
L 225 125 
L 225 4400 
L 1000 4400 
L 1550 1575 
L 1600 1575 
L 2150 4400 
L 2925 4400 
L 2925 125 
z
" transform="scale(0.015625)"/>
       <path id="SimHei-6b" d="M 2925 125 
L 2350 125 
L 1450 1650 
L 875 1100 
L 875 125 
L 375 125 
L 375 4400 
L 875 4400 
L 875 1675 
L 2125 2925 
L 2750 2925 
L 1775 1975 
L 2925 125 
z
" transform="scale(0.015625)"/>
       <path id="SimHei-2b" d="M 3000 2125 
L 1775 2125 
L 1775 900 
L 1350 900 
L 1350 2125 
L 125 2125 
L 125 2525 
L 1350 2525 
L 1350 3750 
L 1775 3750 
L 1775 2525 
L 3000 2525 
L 3000 2125 
z
" transform="scale(0.015625)"/>
      </defs>
      <use xlink:href="#SimHei-4d"/>
      <use xlink:href="#SimHei-65" transform="translate(50 0)"/>
      <use xlink:href="#SimHei-61" transform="translate(100 0)"/>
      <use xlink:href="#SimHei-6e" transform="translate(150 0)"/>
      <use xlink:href="#SimHei-20" transform="translate(200 0)"/>
      <use xlink:href="#SimHei-52" transform="translate(250 0)"/>
      <use xlink:href="#SimHei-61" transform="translate(300 0)"/>
      <use xlink:href="#SimHei-6e" transform="translate(350 0)"/>
      <use xlink:href="#SimHei-6b" transform="translate(400 0)"/>
      <use xlink:href="#SimHei-20" transform="translate(450 0)"/>
      <use xlink:href="#SimHei-69" transform="translate(500 0)"/>
      <use xlink:href="#SimHei-2f" transform="translate(550 0)"/>
      <use xlink:href="#SimHei-28" transform="translate(600 0)"/>
      <use xlink:href="#SimHei-6e" transform="translate(650 0)"/>
      <use xlink:href="#SimHei-2b" transform="translate(700 0)"/>
      <use xlink:href="#SimHei-31" transform="translate(750 0)"/>
      <use xlink:href="#SimHei-29" transform="translate(800 0)"/>
     </g>
    </g>
    <g id="line2d_36">
     <path d="M 524.318787 69.934375 
L 534.318787 69.934375 
L 544.318787 69.934375 
" style="fill: none; stroke: #2ca02c; stroke-width: 1.8; stroke-linecap: square"/>
     <g>
      <use xlink:href="#m808f3869c7" x="534.318787" y="69.934375" style="fill: #2ca02c; stroke: #2ca02c; stroke-linejoin: miter"/>
     </g>
    </g>
    <g id="text_21">
     <!-- Median Rank (i-0.3)/(n+0.4) -->
     <g transform="translate(552.318787 73.434375) scale(0.1 -0.1)">
      <defs>
       <path id="SimHei-64" d="M 2750 125 
L 2250 125 
L 2250 500 
Q 2100 275 1900 175 
Q 1700 75 1425 75 
Q 925 75 575 437 
Q 225 800 225 1525 
Q 225 2250 575 2625 
Q 925 3000 1425 3000 
Q 1700 3000 1900 2887 
Q 2100 2775 2250 2550 
L 2250 4400 
L 2750 4400 
L 2750 125 
z
M 2250 1525 
Q 2250 2000 2037 2275 
Q 1825 2550 1525 2550 
Q 1150 2550 962 2275 
Q 775 2000 775 1525 
Q 775 1050 962 787 
Q 1150 525 1525 525 
Q 1825 525 2037 787 
Q 2250 1050 2250 1525 
z
" transform="scale(0.015625)"/>
       <path id="SimHei-2d" d="M 2975 2125 
L 125 2125 
L 125 2525 
L 2975 2525 
L 2975 2125 
z
" transform="scale(0.015625)"/>
      </defs>
      <use xlink:href="#SimHei-4d"/>
      <use xlink:href="#SimHei-65" transform="translate(50 0)"/>
      <use xlink:href="#SimHei-64" transform="translate(100 0)"/>
      <use xlink:href="#SimHei-69" transform="translate(150 0)"/>
      <use xlink:href="#SimHei-61" transform="translate(200 0)"/>
      <use xlink:href="#SimHei-6e" transform="translate(250 0)"/>
      <use xlink:href="#SimHei-20" transform="translate(300 0)"/>
      <use xlink:href="#SimHei-52" transform="translate(350 0)"/>
      <use xlink:href="#SimHei-61" transform="translate(400 0)"/>
      <use xlink:href="#SimHei-6e" transform="translate(450 0)"/>
      <use xlink:href="#SimHei-6b" transform="translate(500 0)"/>
      <use xlink:href="#SimHei-20" transform="translate(550 0)"/>
      <use xlink:href="#SimHei-28" transform="translate(600 0)"/>
      <use xlink:href="#SimHei-69" transform="translate(650 0)"/>
      <use xlink:href="#SimHei-2d" transform="translate(700 0)"/>
      <use xlink:href="#SimHei-30" transform="translate(750 0)"/>
      <use xlink:href="#SimHei-2e" transform="translate(800 0)"/>
      <use xlink:href="#SimHei-33" transform="translate(850 0)"/>
      <use xlink:href="#SimHei-29" transform="translate(900 0)"/>
      <use xlink:href="#SimHei-2f" transform="translate(950 0)"/>
      <use xlink:href="#SimHei-28" transform="translate(1000 0)"/>
      <use xlink:href="#SimHei-6e" transform="translate(1050 0)"/>
      <use xlink:href="#SimHei-2b" transform="translate(1100 0)"/>
      <use xlink:href="#SimHei-30" transform="translate(1150 0)"/>
      <use xlink:href="#SimHei-2e" transform="translate(1200 0)"/>
      <use xlink:href="#SimHei-34" transform="translate(1250 0)"/>
      <use xlink:href="#SimHei-29" transform="translate(1300 0)"/>
     </g>
    </g>
   </g>
  </g>
 </g>
 <defs>
  <clipPath id="pf9556fbae8">
   <rect x="51.321094" y="29.5125" width="644.997693" height="356.02375"/>
  </clipPath>
 </defs>
</svg>
