<?xml version="1.0" encoding="utf-8" standalone="no"?>
<!DOCTYPE svg PUBLIC "-//W3C//DTD SVG 1.1//EN"
  "http://www.w3.org/Graphics/SVG/1.1/DTD/svg11.dtd">
<svg xmlns:xlink="http://www.w3.org/1999/xlink" width="569.769253pt" height="568.8pt" viewBox="0 0 569.769253 568.8" xmlns="http://www.w3.org/2000/svg" version="1.1">
 <metadata>
  <rdf:RDF xmlns:dc="http://purl.org/dc/elements/1.1/" xmlns:cc="http://creativecommons.org/ns#" xmlns:rdf="http://www.w3.org/1999/02/22-rdf-syntax-ns#">
   <cc:Work>
    <dc:type rdf:resource="http://purl.org/dc/dcmitype/StillImage"/>
    <dc:date>2026-03-23T11:35:08.042073</dc:date>
    <dc:format>image/svg+xml</dc:format>
    <dc:creator>
     <cc:Agent>
      <dc:title>Matplotlib v3.10.8, https://matplotlib.org/</dc:title>
     </cc:Agent>
    </dc:creator>
   </cc:Work>
  </rdf:RDF>
 </metadata>
 <defs>
  <style type="text/css">*{stroke-linejoin: round; stroke-linecap: butt}</style>
 </defs>
 <g id="figure_1">
  <g id="patch_1">
   <path d="M 0 568.8 
L 569.769253 568.8 
L 569.769253 0 
L 0 0 
z
" style="fill: #ffffff"/>
  </g>
  <g id="patch_2">
   <path d="M 7.2 561.6 
L 561.6 561.6 
L 561.6 7.2 
L 7.2 7.2 
z
" style="fill: #ffffff"/>
  </g>
  <g id="pane3d_1">
   <g id="patch_3">
    <path d="M 49.061023 424.902727 
L 232.142009 271.440614 
L 229.597008 50.120814 
L 37.754653 190.118627 
" style="fill: #f2f2f2; opacity: 0.5; stroke: #f2f2f2; stroke-linejoin: miter"/>
   </g>
  </g>
  <g id="pane3d_2">
   <g id="patch_4">
    <path d="M 232.142009 271.440614 
L 525.921668 356.830763 
L 536.405628 127.887856 
L 229.597008 50.120814 
" style="fill: #e6e6e6; opacity: 0.5; stroke: #e6e6e6; stroke-linejoin: miter"/>
   </g>
  </g>
  <g id="pane3d_3">
   <g id="patch_5">
    <path d="M 49.061023 424.902727 
L 360.48181 526.612756 
L 525.921668 356.830763 
L 232.142009 271.440614 
" style="fill: #ececec; opacity: 0.5; stroke: #ececec; stroke-linejoin: miter"/>
   </g>
  </g>
  <g id="grid3d_1">
   <g id="Line3DCollection_1">
    <path d="M 67.9223 431.06282 
L 250.008789 276.633782 
L 248.219208 54.840999 
" style="fill: none; stroke: #cccccc"/>
    <path d="M 120.296935 448.168376 
L 299.571703 291.039764 
L 299.902697 67.941257 
" style="fill: none; stroke: #cccccc"/>
    <path d="M 173.631171 465.587337 
L 349.967033 305.687697 
L 352.491954 81.271101 
" style="fill: none; stroke: #cccccc"/>
    <path d="M 227.951626 483.328398 
L 401.215924 320.583727 
L 406.011001 94.836619 
" style="fill: none; stroke: #cccccc"/>
    <path d="M 283.285908 501.400574 
L 453.340249 335.73421 
L 460.484716 108.644118 
" style="fill: none; stroke: #cccccc"/>
    <path d="M 339.662668 519.813224 
L 506.362632 351.145723 
L 515.938873 122.70013 
" style="fill: none; stroke: #cccccc"/>
   </g>
  </g>
  <g id="grid3d_2">
   <g id="Line3DCollection_2">
    <path d="M 51.021027 180.437432 
L 61.67685 414.327891 
L 371.928968 514.865156 
" style="fill: none; stroke: #cccccc"/>
    <path d="M 67.343603 168.525959 
L 77.20809 401.309298 
L 386.011888 500.412615 
" style="fill: none; stroke: #cccccc"/>
    <path d="M 83.429883 156.786925 
L 92.524299 388.470947 
L 399.889487 486.170785 
" style="fill: none; stroke: #cccccc"/>
    <path d="M 99.284962 145.21661 
L 107.629913 375.809123 
L 413.566221 472.135091 
" style="fill: none; stroke: #cccccc"/>
    <path d="M 114.91379 133.811404 
L 122.529245 363.320207 
L 427.046422 458.301089 
" style="fill: none; stroke: #cccccc"/>
    <path d="M 130.321174 122.567797 
L 137.226492 351.000683 
L 440.334294 444.664463 
" style="fill: none; stroke: #cccccc"/>
    <path d="M 145.511788 111.482378 
L 151.725738 338.847127 
L 453.433926 431.221019 
" style="fill: none; stroke: #cccccc"/>
    <path d="M 160.490174 100.551834 
L 166.030958 326.856209 
L 466.349287 417.96668 
" style="fill: none; stroke: #cccccc"/>
    <path d="M 175.26075 89.772941 
L 180.146019 315.024684 
L 479.084241 404.897485 
" style="fill: none; stroke: #cccccc"/>
    <path d="M 189.82781 79.142564 
L 194.07469 303.349397 
L 491.64254 392.009581 
" style="fill: none; stroke: #cccccc"/>
    <path d="M 204.195531 68.657655 
L 207.820636 291.827272 
L 504.027835 379.299221 
" style="fill: none; stroke: #cccccc"/>
    <path d="M 218.367979 58.315249 
L 221.387432 280.455315 
L 516.243676 366.762763 
" style="fill: none; stroke: #cccccc"/>
   </g>
  </g>
  <g id="grid3d_3">
   <g id="Line3DCollection_3">
    <path d="M 525.921668 356.830763 
L 232.142009 271.440614 
L 49.061023 424.902727 
" style="fill: none; stroke: #cccccc"/>
    <path d="M 527.848728 314.748683 
L 231.673405 230.6896 
L 46.985654 381.806334 
" style="fill: none; stroke: #cccccc"/>
    <path d="M 529.807788 271.967821 
L 231.197393 189.294332 
L 44.874504 337.96694 
" style="fill: none; stroke: #cccccc"/>
    <path d="M 531.799651 228.470625 
L 230.713795 147.23941 
L 42.72664 293.365161 
" style="fill: none; stroke: #cccccc"/>
    <path d="M 533.825148 184.238951 
L 230.222428 104.50894 
L 40.541097 247.980936 
" style="fill: none; stroke: #cccccc"/>
    <path d="M 535.885138 139.254038 
L 229.723105 61.086513 
L 38.316873 201.793495 
" style="fill: none; stroke: #cccccc"/>
   </g>
  </g>
  <g id="axis3d_1">
   <g id="line2d_1">
    <path d="M 49.061023 424.902727 
L 360.48181 526.612756 
" style="fill: none; stroke: #cccccc; stroke-width: 1.25; stroke-linecap: round"/>
   </g>
   <g id="xtick_1">
    <g id="line2d_2">
     <path d="M 291.891892 276.908108 
" clip-path="url(#p23f3545eb5)" style="fill: none; stroke: #cccccc; stroke-linecap: round"/>
    </g>
    <g id="line2d_3">
     <path d="M 69.507899 429.718061 
L 64.744299 433.758109 
" style="fill: none; stroke: #262626; stroke-width: 1.25; stroke-linecap: round"/>
    </g>
    <g id="text_1">
     <!-- 0 -->
     <g style="fill: #262626" transform="translate(57.349261 454.616816) scale(0.11 -0.11)">
      <defs>
       <path id="ArialMT-30" d="M 266 2259 
Q 266 3072 433 3567 
Q 600 4063 929 4331 
Q 1259 4600 1759 4600 
Q 2128 4600 2406 4451 
Q 2684 4303 2865 4023 
Q 3047 3744 3150 3342 
Q 3253 2941 3253 2259 
Q 3253 1453 3087 958 
Q 2922 463 2592 192 
Q 2263 -78 1759 -78 
Q 1097 -78 719 397 
Q 266 969 266 2259 
z
M 844 2259 
Q 844 1131 1108 757 
Q 1372 384 1759 384 
Q 2147 384 2411 759 
Q 2675 1134 2675 2259 
Q 2675 3391 2411 3762 
Q 2147 4134 1753 4134 
Q 1366 4134 1134 3806 
Q 844 3388 844 2259 
z
" transform="scale(0.015625)"/>
      </defs>
      <use xlink:href="#ArialMT-30"/>
     </g>
    </g>
   </g>
   <g id="xtick_2">
    <g id="line2d_4">
     <path d="M 291.891892 276.908108 
" clip-path="url(#p23f3545eb5)" style="fill: none; stroke: #cccccc; stroke-linecap: round"/>
    </g>
    <g id="line2d_5">
     <path d="M 121.859201 446.7991 
L 117.165639 450.912857 
" style="fill: none; stroke: #262626; stroke-width: 1.25; stroke-linecap: round"/>
    </g>
    <g id="text_2">
     <!-- 1000 -->
     <g style="fill: #262626" transform="translate(100.57413 471.89571) scale(0.11 -0.11)">
      <defs>
       <path id="ArialMT-31" d="M 2384 0 
L 1822 0 
L 1822 3584 
Q 1619 3391 1289 3197 
Q 959 3003 697 2906 
L 697 3450 
Q 1169 3672 1522 3987 
Q 1875 4303 2022 4600 
L 2384 4600 
L 2384 0 
z
" transform="scale(0.015625)"/>
      </defs>
      <use xlink:href="#ArialMT-31"/>
      <use xlink:href="#ArialMT-30" transform="translate(55.615234 0)"/>
      <use xlink:href="#ArialMT-30" transform="translate(111.230469 0)"/>
      <use xlink:href="#ArialMT-30" transform="translate(166.845703 0)"/>
     </g>
    </g>
   </g>
   <g id="xtick_3">
    <g id="line2d_6">
     <path d="M 291.891892 276.908108 
" clip-path="url(#p23f3545eb5)" style="fill: none; stroke: #cccccc; stroke-linecap: round"/>
    </g>
    <g id="line2d_7">
     <path d="M 175.16898 464.192868 
L 170.548835 468.38237 
" style="fill: none; stroke: #262626; stroke-width: 1.25; stroke-linecap: round"/>
    </g>
    <g id="text_3">
     <!-- 2000 -->
     <g style="fill: #262626" transform="translate(153.936361 489.491759) scale(0.11 -0.11)">
      <defs>
       <path id="ArialMT-32" d="M 3222 541 
L 3222 0 
L 194 0 
Q 188 203 259 391 
Q 375 700 629 1000 
Q 884 1300 1366 1694 
Q 2113 2306 2375 2664 
Q 2638 3022 2638 3341 
Q 2638 3675 2398 3904 
Q 2159 4134 1775 4134 
Q 1369 4134 1125 3890 
Q 881 3647 878 3216 
L 300 3275 
Q 359 3922 746 4261 
Q 1134 4600 1788 4600 
Q 2447 4600 2831 4234 
Q 3216 3869 3216 3328 
Q 3216 3053 3103 2787 
Q 2991 2522 2730 2228 
Q 2469 1934 1863 1422 
Q 1356 997 1212 845 
Q 1069 694 975 541 
L 3222 541 
z
" transform="scale(0.015625)"/>
      </defs>
      <use xlink:href="#ArialMT-32"/>
      <use xlink:href="#ArialMT-30" transform="translate(55.615234 0)"/>
      <use xlink:href="#ArialMT-30" transform="translate(111.230469 0)"/>
      <use xlink:href="#ArialMT-30" transform="translate(166.845703 0)"/>
     </g>
    </g>
   </g>
   <g id="xtick_4">
    <g id="line2d_8">
     <path d="M 291.891892 276.908108 
" clip-path="url(#p23f3545eb5)" style="fill: none; stroke: #cccccc; stroke-linecap: round"/>
    </g>
    <g id="line2d_9">
     <path d="M 229.463801 481.908033 
L 224.920606 486.175391 
" style="fill: none; stroke: #262626; stroke-width: 1.25; stroke-linecap: round"/>
    </g>
    <g id="text_4">
     <!-- 3000 -->
     <g style="fill: #262626" transform="translate(208.287134 507.413778) scale(0.11 -0.11)">
      <defs>
       <path id="ArialMT-33" d="M 269 1209 
L 831 1284 
Q 928 806 1161 595 
Q 1394 384 1728 384 
Q 2125 384 2398 659 
Q 2672 934 2672 1341 
Q 2672 1728 2419 1979 
Q 2166 2231 1775 2231 
Q 1616 2231 1378 2169 
L 1441 2663 
Q 1497 2656 1531 2656 
Q 1891 2656 2178 2843 
Q 2466 3031 2466 3422 
Q 2466 3731 2256 3934 
Q 2047 4138 1716 4138 
Q 1388 4138 1169 3931 
Q 950 3725 888 3313 
L 325 3413 
Q 428 3978 793 4289 
Q 1159 4600 1703 4600 
Q 2078 4600 2393 4439 
Q 2709 4278 2876 4000 
Q 3044 3722 3044 3409 
Q 3044 3113 2884 2869 
Q 2725 2625 2413 2481 
Q 2819 2388 3044 2092 
Q 3269 1797 3269 1353 
Q 3269 753 2831 336 
Q 2394 -81 1725 -81 
Q 1122 -81 723 278 
Q 325 638 269 1209 
z
" transform="scale(0.015625)"/>
      </defs>
      <use xlink:href="#ArialMT-33"/>
      <use xlink:href="#ArialMT-30" transform="translate(55.615234 0)"/>
      <use xlink:href="#ArialMT-30" transform="translate(111.230469 0)"/>
      <use xlink:href="#ArialMT-30" transform="translate(166.845703 0)"/>
     </g>
    </g>
   </g>
   <g id="xtick_5">
    <g id="line2d_10">
     <path d="M 291.891892 276.908108 
" clip-path="url(#p23f3545eb5)" style="fill: none; stroke: #cccccc; stroke-linecap: round"/>
    </g>
    <g id="line2d_11">
     <path d="M 284.771222 499.953586 
L 280.308668 504.300991 
" style="fill: none; stroke: #262626; stroke-width: 1.25; stroke-linecap: round"/>
    </g>
    <g id="text_5">
     <!-- 4000 -->
     <g style="fill: #262626" transform="translate(263.654175 525.670908) scale(0.11 -0.11)">
      <defs>
       <path id="ArialMT-34" d="M 2069 0 
L 2069 1097 
L 81 1097 
L 81 1613 
L 2172 4581 
L 2631 4581 
L 2631 1613 
L 3250 1613 
L 3250 1097 
L 2631 1097 
L 2631 0 
L 2069 0 
z
M 2069 1613 
L 2069 3678 
L 634 1613 
L 2069 1613 
z
" transform="scale(0.015625)"/>
      </defs>
      <use xlink:href="#ArialMT-34"/>
      <use xlink:href="#ArialMT-30" transform="translate(55.615234 0)"/>
      <use xlink:href="#ArialMT-30" transform="translate(111.230469 0)"/>
      <use xlink:href="#ArialMT-30" transform="translate(166.845703 0)"/>
     </g>
    </g>
   </g>
   <g id="xtick_6">
    <g id="line2d_12">
     <path d="M 291.891892 276.908108 
" clip-path="url(#p23f3545eb5)" style="fill: none; stroke: #cccccc; stroke-linecap: round"/>
    </g>
    <g id="line2d_13">
     <path d="M 341.119837 518.338857 
L 336.741785 522.768583 
" style="fill: none; stroke: #262626; stroke-width: 1.25; stroke-linecap: round"/>
    </g>
    <g id="text_6">
     <!-- 5000 -->
     <g style="fill: #262626" transform="translate(320.066256 544.272638) scale(0.11 -0.11)">
      <defs>
       <path id="ArialMT-35" d="M 266 1200 
L 856 1250 
Q 922 819 1161 601 
Q 1400 384 1738 384 
Q 2144 384 2425 690 
Q 2706 997 2706 1503 
Q 2706 1984 2436 2262 
Q 2166 2541 1728 2541 
Q 1456 2541 1237 2417 
Q 1019 2294 894 2097 
L 366 2166 
L 809 4519 
L 3088 4519 
L 3088 3981 
L 1259 3981 
L 1013 2750 
Q 1425 3038 1878 3038 
Q 2478 3038 2890 2622 
Q 3303 2206 3303 1553 
Q 3303 931 2941 478 
Q 2500 -78 1738 -78 
Q 1113 -78 717 272 
Q 322 622 266 1200 
z
" transform="scale(0.015625)"/>
      </defs>
      <use xlink:href="#ArialMT-35"/>
      <use xlink:href="#ArialMT-30" transform="translate(55.615234 0)"/>
      <use xlink:href="#ArialMT-30" transform="translate(111.230469 0)"/>
      <use xlink:href="#ArialMT-30" transform="translate(166.845703 0)"/>
     </g>
    </g>
   </g>
   <g id="text_7">
    <!-- Future Time $\Delta t$ (h) -->
    <g style="fill: #262626" transform="translate(129.262717 512.619807) rotate(-341.912962) scale(0.12 -0.12)">
     <defs>
      <path id="ArialMT-46" d="M 525 0 
L 525 4581 
L 3616 4581 
L 3616 4041 
L 1131 4041 
L 1131 2622 
L 3281 2622 
L 3281 2081 
L 1131 2081 
L 1131 0 
L 525 0 
z
" transform="scale(0.015625)"/>
      <path id="ArialMT-75" d="M 2597 0 
L 2597 488 
Q 2209 -75 1544 -75 
Q 1250 -75 995 37 
Q 741 150 617 320 
Q 494 491 444 738 
Q 409 903 409 1263 
L 409 3319 
L 972 3319 
L 972 1478 
Q 972 1038 1006 884 
Q 1059 663 1231 536 
Q 1403 409 1656 409 
Q 1909 409 2131 539 
Q 2353 669 2445 892 
Q 2538 1116 2538 1541 
L 2538 3319 
L 3100 3319 
L 3100 0 
L 2597 0 
z
" transform="scale(0.015625)"/>
      <path id="ArialMT-74" d="M 1650 503 
L 1731 6 
Q 1494 -44 1306 -44 
Q 1000 -44 831 53 
Q 663 150 594 308 
Q 525 466 525 972 
L 525 2881 
L 113 2881 
L 113 3319 
L 525 3319 
L 525 4141 
L 1084 4478 
L 1084 3319 
L 1650 3319 
L 1650 2881 
L 1084 2881 
L 1084 941 
Q 1084 700 1114 631 
Q 1144 563 1211 522 
Q 1278 481 1403 481 
Q 1497 481 1650 503 
z
" transform="scale(0.015625)"/>
      <path id="ArialMT-72" d="M 416 0 
L 416 3319 
L 922 3319 
L 922 2816 
Q 1116 3169 1280 3281 
Q 1444 3394 1641 3394 
Q 1925 3394 2219 3213 
L 2025 2691 
Q 1819 2813 1613 2813 
Q 1428 2813 1281 2702 
Q 1134 2591 1072 2394 
Q 978 2094 978 1738 
L 978 0 
L 416 0 
z
" transform="scale(0.015625)"/>
      <path id="ArialMT-65" d="M 2694 1069 
L 3275 997 
Q 3138 488 2766 206 
Q 2394 -75 1816 -75 
Q 1088 -75 661 373 
Q 234 822 234 1631 
Q 234 2469 665 2931 
Q 1097 3394 1784 3394 
Q 2450 3394 2872 2941 
Q 3294 2488 3294 1666 
Q 3294 1616 3291 1516 
L 816 1516 
Q 847 969 1125 678 
Q 1403 388 1819 388 
Q 2128 388 2347 550 
Q 2566 713 2694 1069 
z
M 847 1978 
L 2700 1978 
Q 2663 2397 2488 2606 
Q 2219 2931 1791 2931 
Q 1403 2931 1139 2672 
Q 875 2413 847 1978 
z
" transform="scale(0.015625)"/>
      <path id="ArialMT-20" transform="scale(0.015625)"/>
      <path id="ArialMT-54" d="M 1659 0 
L 1659 4041 
L 150 4041 
L 150 4581 
L 3781 4581 
L 3781 4041 
L 2266 4041 
L 2266 0 
L 1659 0 
z
" transform="scale(0.015625)"/>
      <path id="ArialMT-69" d="M 425 3934 
L 425 4581 
L 988 4581 
L 988 3934 
L 425 3934 
z
M 425 0 
L 425 3319 
L 988 3319 
L 988 0 
L 425 0 
z
" transform="scale(0.015625)"/>
      <path id="ArialMT-6d" d="M 422 0 
L 422 3319 
L 925 3319 
L 925 2853 
Q 1081 3097 1340 3245 
Q 1600 3394 1931 3394 
Q 2300 3394 2536 3241 
Q 2772 3088 2869 2813 
Q 3263 3394 3894 3394 
Q 4388 3394 4653 3120 
Q 4919 2847 4919 2278 
L 4919 0 
L 4359 0 
L 4359 2091 
Q 4359 2428 4304 2576 
Q 4250 2725 4106 2815 
Q 3963 2906 3769 2906 
Q 3419 2906 3187 2673 
Q 2956 2441 2956 1928 
L 2956 0 
L 2394 0 
L 2394 2156 
Q 2394 2531 2256 2718 
Q 2119 2906 1806 2906 
Q 1569 2906 1367 2781 
Q 1166 2656 1075 2415 
Q 984 2175 984 1722 
L 984 0 
L 422 0 
z
" transform="scale(0.015625)"/>
      <path id="DejaVuSans-394" d="M 2188 4044 
L 906 525 
L 3472 525 
L 2188 4044 
z
M 50 0 
L 1831 4666 
L 2547 4666 
L 4325 0 
L 50 0 
z
" transform="scale(0.015625)"/>
      <path id="DejaVuSans-Oblique-74" d="M 2706 3500 
L 2619 3053 
L 1472 3053 
L 1100 1153 
Q 1081 1047 1072 975 
Q 1063 903 1063 863 
Q 1063 663 1183 572 
Q 1303 481 1569 481 
L 2150 481 
L 2053 0 
L 1503 0 
Q 991 0 739 200 
Q 488 400 488 806 
Q 488 878 497 964 
Q 506 1050 525 1153 
L 897 3053 
L 409 3053 
L 500 3500 
L 978 3500 
L 1172 4494 
L 1747 4494 
L 1556 3500 
L 2706 3500 
z
" transform="scale(0.015625)"/>
      <path id="ArialMT-28" d="M 1497 -1347 
Q 1031 -759 709 28 
Q 388 816 388 1659 
Q 388 2403 628 3084 
Q 909 3875 1497 4659 
L 1900 4659 
Q 1522 4009 1400 3731 
Q 1209 3300 1100 2831 
Q 966 2247 966 1656 
Q 966 153 1900 -1347 
L 1497 -1347 
z
" transform="scale(0.015625)"/>
      <path id="ArialMT-68" d="M 422 0 
L 422 4581 
L 984 4581 
L 984 2938 
Q 1378 3394 1978 3394 
Q 2347 3394 2619 3248 
Q 2891 3103 3008 2847 
Q 3125 2591 3125 2103 
L 3125 0 
L 2563 0 
L 2563 2103 
Q 2563 2525 2380 2717 
Q 2197 2909 1863 2909 
Q 1613 2909 1392 2779 
Q 1172 2650 1078 2428 
Q 984 2206 984 1816 
L 984 0 
L 422 0 
z
" transform="scale(0.015625)"/>
      <path id="ArialMT-29" d="M 791 -1347 
L 388 -1347 
Q 1322 153 1322 1656 
Q 1322 2244 1188 2822 
Q 1081 3291 891 3722 
Q 769 4003 388 4659 
L 791 4659 
Q 1378 3875 1659 3084 
Q 1900 2403 1900 1659 
Q 1900 816 1576 28 
Q 1253 -759 791 -1347 
z
" transform="scale(0.015625)"/>
     </defs>
     <use xlink:href="#ArialMT-46" transform="translate(0 0.09375)"/>
     <use xlink:href="#ArialMT-75" transform="translate(61.083984 0.09375)"/>
     <use xlink:href="#ArialMT-74" transform="translate(116.699219 0.09375)"/>
     <use xlink:href="#ArialMT-75" transform="translate(144.482422 0.09375)"/>
     <use xlink:href="#ArialMT-72" transform="translate(200.097656 0.09375)"/>
     <use xlink:href="#ArialMT-65" transform="translate(233.398438 0.09375)"/>
     <use xlink:href="#ArialMT-20" transform="translate(289.013672 0.09375)"/>
     <use xlink:href="#ArialMT-54" transform="translate(316.796875 0.09375)"/>
     <use xlink:href="#ArialMT-69" transform="translate(377.880859 0.09375)"/>
     <use xlink:href="#ArialMT-6d" transform="translate(400.097656 0.09375)"/>
     <use xlink:href="#ArialMT-65" transform="translate(483.398438 0.09375)"/>
     <use xlink:href="#ArialMT-20" transform="translate(539.013672 0.09375)"/>
     <use xlink:href="#DejaVuSans-394" transform="translate(566.796875 0.09375)"/>
     <use xlink:href="#DejaVuSans-Oblique-74" transform="translate(635.205078 0.09375)"/>
     <use xlink:href="#ArialMT-20" transform="translate(674.414062 0.09375)"/>
     <use xlink:href="#ArialMT-28" transform="translate(702.197266 0.09375)"/>
     <use xlink:href="#ArialMT-68" transform="translate(735.498047 0.09375)"/>
     <use xlink:href="#ArialMT-29" transform="translate(791.113281 0.09375)"/>
    </g>
   </g>
  </g>
  <g id="axis3d_2">
   <g id="line2d_14">
    <path d="M 525.921668 356.830763 
L 360.48181 526.612756 
" style="fill: none; stroke: #cccccc; stroke-width: 1.25; stroke-linecap: round"/>
   </g>
   <g id="xtick_7">
    <g id="line2d_15">
     <path d="M 291.891892 276.908108 
" clip-path="url(#p23f3545eb5)" style="fill: none; stroke: #cccccc; stroke-linecap: round"/>
    </g>
    <g id="line2d_16">
     <path d="M 369.314464 514.017925 
L 377.164737 516.561808 
" style="fill: none; stroke: #262626; stroke-width: 1.25; stroke-linecap: round"/>
    </g>
    <g id="text_8">
     <!-- 102 -->
     <g style="fill: #262626" transform="translate(377.298327 534.726301) scale(0.09 -0.09)">
      <use xlink:href="#ArialMT-31"/>
      <use xlink:href="#ArialMT-30" transform="translate(55.615234 0)"/>
      <use xlink:href="#ArialMT-32" transform="translate(111.230469 0)"/>
     </g>
    </g>
   </g>
   <g id="xtick_8">
    <g id="line2d_17">
     <path d="M 291.891892 276.908108 
" clip-path="url(#p23f3545eb5)" style="fill: none; stroke: #cccccc; stroke-linecap: round"/>
    </g>
    <g id="line2d_18">
     <path d="M 383.410557 499.577779 
L 391.221228 502.08443 
" style="fill: none; stroke: #262626; stroke-width: 1.25; stroke-linecap: round"/>
    </g>
    <g id="text_9">
     <!-- 103 -->
     <g style="fill: #262626" transform="translate(391.29068 520.171071) scale(0.09 -0.09)">
      <use xlink:href="#ArialMT-31"/>
      <use xlink:href="#ArialMT-30" transform="translate(55.615234 0)"/>
      <use xlink:href="#ArialMT-33" transform="translate(111.230469 0)"/>
     </g>
    </g>
   </g>
   <g id="xtick_9">
    <g id="line2d_19">
     <path d="M 291.891892 276.908108 
" clip-path="url(#p23f3545eb5)" style="fill: none; stroke: #cccccc; stroke-linecap: round"/>
    </g>
    <g id="line2d_20">
     <path d="M 397.301224 485.348074 
L 405.072608 487.818305 
" style="fill: none; stroke: #262626; stroke-width: 1.25; stroke-linecap: round"/>
    </g>
    <g id="text_10">
     <!-- 104 -->
     <g style="fill: #262626" transform="translate(405.078975 505.828108) scale(0.09 -0.09)">
      <use xlink:href="#ArialMT-31"/>
      <use xlink:href="#ArialMT-30" transform="translate(55.615234 0)"/>
      <use xlink:href="#ArialMT-34" transform="translate(111.230469 0)"/>
     </g>
    </g>
   </g>
   <g id="xtick_10">
    <g id="line2d_21">
     <path d="M 291.891892 276.908108 
" clip-path="url(#p23f3545eb5)" style="fill: none; stroke: #cccccc; stroke-linecap: round"/>
    </g>
    <g id="line2d_22">
     <path d="M 410.990922 471.324242 
L 418.723335 473.758841 
" style="fill: none; stroke: #262626; stroke-width: 1.25; stroke-linecap: round"/>
    </g>
    <g id="text_11">
     <!-- 105 -->
     <g style="fill: #262626" transform="translate(418.667642 491.692802) scale(0.09 -0.09)">
      <use xlink:href="#ArialMT-31"/>
      <use xlink:href="#ArialMT-30" transform="translate(55.615234 0)"/>
      <use xlink:href="#ArialMT-35" transform="translate(111.230469 0)"/>
     </g>
    </g>
   </g>
   <g id="xtick_11">
    <g id="line2d_23">
     <path d="M 291.891892 276.908108 
" clip-path="url(#p23f3545eb5)" style="fill: none; stroke: #cccccc; stroke-linecap: round"/>
    </g>
    <g id="line2d_24">
     <path d="M 424.483982 457.501847 
L 432.177737 459.90158 
" style="fill: none; stroke: #262626; stroke-width: 1.25; stroke-linecap: round"/>
    </g>
    <g id="text_12">
     <!-- 107 -->
     <g style="fill: #262626" transform="translate(432.060986 477.760678) scale(0.09 -0.09)">
      <defs>
       <path id="ArialMT-37" d="M 303 3981 
L 303 4522 
L 3269 4522 
L 3269 4084 
Q 2831 3619 2401 2847 
Q 1972 2075 1738 1259 
Q 1569 684 1522 0 
L 944 0 
Q 953 541 1156 1306 
Q 1359 2072 1739 2783 
Q 2119 3494 2547 3981 
L 303 3981 
z
" transform="scale(0.015625)"/>
      </defs>
      <use xlink:href="#ArialMT-31"/>
      <use xlink:href="#ArialMT-30" transform="translate(55.615234 0)"/>
      <use xlink:href="#ArialMT-37" transform="translate(111.230469 0)"/>
     </g>
    </g>
   </g>
   <g id="xtick_12">
    <g id="line2d_25">
     <path d="M 291.891892 276.908108 
" clip-path="url(#p23f3545eb5)" style="fill: none; stroke: #cccccc; stroke-linecap: round"/>
    </g>
    <g id="line2d_26">
     <path d="M 437.784611 443.876582 
L 445.44002 446.242191 
" style="fill: none; stroke: #262626; stroke-width: 1.25; stroke-linecap: round"/>
    </g>
    <g id="text_13">
     <!-- 108 -->
     <g style="fill: #262626" transform="translate(445.263188 464.027384) scale(0.09 -0.09)">
      <defs>
       <path id="ArialMT-38" d="M 1131 2484 
Q 781 2613 612 2850 
Q 444 3088 444 3419 
Q 444 3919 803 4259 
Q 1163 4600 1759 4600 
Q 2359 4600 2725 4251 
Q 3091 3903 3091 3403 
Q 3091 3084 2923 2848 
Q 2756 2613 2416 2484 
Q 2838 2347 3058 2040 
Q 3278 1734 3278 1309 
Q 3278 722 2862 322 
Q 2447 -78 1769 -78 
Q 1091 -78 675 323 
Q 259 725 259 1325 
Q 259 1772 486 2073 
Q 713 2375 1131 2484 
z
M 1019 3438 
Q 1019 3113 1228 2906 
Q 1438 2700 1772 2700 
Q 2097 2700 2305 2904 
Q 2513 3109 2513 3406 
Q 2513 3716 2298 3927 
Q 2084 4138 1766 4138 
Q 1444 4138 1231 3931 
Q 1019 3725 1019 3438 
z
M 838 1322 
Q 838 1081 952 856 
Q 1066 631 1291 507 
Q 1516 384 1775 384 
Q 2178 384 2440 643 
Q 2703 903 2703 1303 
Q 2703 1709 2433 1975 
Q 2163 2241 1756 2241 
Q 1359 2241 1098 1978 
Q 838 1716 838 1322 
z
" transform="scale(0.015625)"/>
      </defs>
      <use xlink:href="#ArialMT-31"/>
      <use xlink:href="#ArialMT-30" transform="translate(55.615234 0)"/>
      <use xlink:href="#ArialMT-38" transform="translate(111.230469 0)"/>
     </g>
    </g>
   </g>
   <g id="xtick_13">
    <g id="line2d_27">
     <path d="M 291.891892 276.908108 
" clip-path="url(#p23f3545eb5)" style="fill: none; stroke: #cccccc; stroke-linecap: round"/>
    </g>
    <g id="line2d_28">
     <path d="M 450.896895 430.444257 
L 458.514269 432.776466 
" style="fill: none; stroke: #262626; stroke-width: 1.25; stroke-linecap: round"/>
    </g>
    <g id="text_14">
     <!-- 109 -->
     <g style="fill: #262626" transform="translate(458.278311 450.488695) scale(0.09 -0.09)">
      <defs>
       <path id="ArialMT-39" d="M 350 1059 
L 891 1109 
Q 959 728 1153 556 
Q 1347 384 1650 384 
Q 1909 384 2104 503 
Q 2300 622 2425 820 
Q 2550 1019 2634 1356 
Q 2719 1694 2719 2044 
Q 2719 2081 2716 2156 
Q 2547 1888 2255 1720 
Q 1963 1553 1622 1553 
Q 1053 1553 659 1965 
Q 266 2378 266 3053 
Q 266 3750 677 4175 
Q 1088 4600 1706 4600 
Q 2153 4600 2523 4359 
Q 2894 4119 3086 3673 
Q 3278 3228 3278 2384 
Q 3278 1506 3087 986 
Q 2897 466 2520 194 
Q 2144 -78 1638 -78 
Q 1100 -78 759 220 
Q 419 519 350 1059 
z
M 2653 3081 
Q 2653 3566 2395 3850 
Q 2138 4134 1775 4134 
Q 1400 4134 1122 3828 
Q 844 3522 844 3034 
Q 844 2597 1108 2323 
Q 1372 2050 1759 2050 
Q 2150 2050 2401 2323 
Q 2653 2597 2653 3081 
z
" transform="scale(0.015625)"/>
      </defs>
      <use xlink:href="#ArialMT-31"/>
      <use xlink:href="#ArialMT-30" transform="translate(55.615234 0)"/>
      <use xlink:href="#ArialMT-39" transform="translate(111.230469 0)"/>
     </g>
    </g>
   </g>
   <g id="xtick_14">
    <g id="line2d_29">
     <path d="M 291.891892 276.908108 
" clip-path="url(#p23f3545eb5)" style="fill: none; stroke: #cccccc; stroke-linecap: round"/>
    </g>
    <g id="line2d_30">
     <path d="M 463.824807 417.200804 
L 471.404455 419.500315 
" style="fill: none; stroke: #262626; stroke-width: 1.25; stroke-linecap: round"/>
    </g>
    <g id="text_15">
     <!-- 111 -->
     <g style="fill: #262626" transform="translate(471.774053 437.140504) scale(0.09 -0.09)">
      <use xlink:href="#ArialMT-31"/>
      <use xlink:href="#ArialMT-31" transform="translate(48.240234 0)"/>
      <use xlink:href="#ArialMT-31" transform="translate(96.480469 0)"/>
     </g>
    </g>
   </g>
   <g id="xtick_15">
    <g id="line2d_31">
     <path d="M 291.891892 276.908108 
" clip-path="url(#p23f3545eb5)" style="fill: none; stroke: #cccccc; stroke-linecap: round"/>
    </g>
    <g id="line2d_32">
     <path d="M 476.572209 404.142268 
L 484.114437 406.409764 
" style="fill: none; stroke: #262626; stroke-width: 1.25; stroke-linecap: round"/>
    </g>
    <g id="text_16">
     <!-- 112 -->
     <g style="fill: #262626" transform="translate(484.094878 423.978817) scale(0.09 -0.09)">
      <use xlink:href="#ArialMT-31"/>
      <use xlink:href="#ArialMT-31" transform="translate(48.240234 0)"/>
      <use xlink:href="#ArialMT-32" transform="translate(103.855469 0)"/>
     </g>
    </g>
   </g>
   <g id="xtick_16">
    <g id="line2d_33">
     <path d="M 291.891892 276.908108 
" clip-path="url(#p23f3545eb5)" style="fill: none; stroke: #cccccc; stroke-linecap: round"/>
    </g>
    <g id="line2d_34">
     <path d="M 489.142856 391.264801 
L 496.647969 393.500946 
" style="fill: none; stroke: #262626; stroke-width: 1.25; stroke-linecap: round"/>
    </g>
    <g id="text_17">
     <!-- 113 -->
     <g style="fill: #262626" transform="translate(496.572017 410.999754) scale(0.09 -0.09)">
      <use xlink:href="#ArialMT-31"/>
      <use xlink:href="#ArialMT-31" transform="translate(48.240234 0)"/>
      <use xlink:href="#ArialMT-33" transform="translate(103.855469 0)"/>
     </g>
    </g>
   </g>
   <g id="xtick_17">
    <g id="line2d_35">
     <path d="M 291.891892 276.908108 
" clip-path="url(#p23f3545eb5)" style="fill: none; stroke: #cccccc; stroke-linecap: round"/>
    </g>
    <g id="line2d_36">
     <path d="M 501.540397 378.564665 
L 509.0087 380.770104 
" style="fill: none; stroke: #262626; stroke-width: 1.25; stroke-linecap: round"/>
    </g>
    <g id="text_18">
     <!-- 114 -->
     <g style="fill: #262626" transform="translate(508.877225 398.199539) scale(0.09 -0.09)">
      <use xlink:href="#ArialMT-31"/>
      <use xlink:href="#ArialMT-31" transform="translate(48.240234 0)"/>
      <use xlink:href="#ArialMT-34" transform="translate(103.855469 0)"/>
     </g>
    </g>
   </g>
   <g id="xtick_18">
    <g id="line2d_37">
     <path d="M 291.891892 276.908108 
" clip-path="url(#p23f3545eb5)" style="fill: none; stroke: #cccccc; stroke-linecap: round"/>
    </g>
    <g id="line2d_38">
     <path d="M 513.768385 366.03822 
L 521.200178 368.213582 
" style="fill: none; stroke: #262626; stroke-width: 1.25; stroke-linecap: round"/>
    </g>
    <g id="text_19">
     <!-- 115 -->
     <g style="fill: #262626" transform="translate(521.014029 385.574501) scale(0.09 -0.09)">
      <use xlink:href="#ArialMT-31"/>
      <use xlink:href="#ArialMT-31" transform="translate(48.240234 0)"/>
      <use xlink:href="#ArialMT-35" transform="translate(103.855469 0)"/>
     </g>
    </g>
   </g>
   <g id="text_20">
    <!-- Unit Index (Censored) -->
    <g style="fill: #262626" transform="translate(446.993229 522.441561) rotate(-45.742112) scale(0.12 -0.12)">
     <defs>
      <path id="ArialMT-55" d="M 3500 4581 
L 4106 4581 
L 4106 1934 
Q 4106 1244 3950 837 
Q 3794 431 3386 176 
Q 2978 -78 2316 -78 
Q 1672 -78 1262 144 
Q 853 366 678 786 
Q 503 1206 503 1934 
L 503 4581 
L 1109 4581 
L 1109 1938 
Q 1109 1341 1220 1058 
Q 1331 775 1601 622 
Q 1872 469 2263 469 
Q 2931 469 3215 772 
Q 3500 1075 3500 1938 
L 3500 4581 
z
" transform="scale(0.015625)"/>
      <path id="ArialMT-6e" d="M 422 0 
L 422 3319 
L 928 3319 
L 928 2847 
Q 1294 3394 1984 3394 
Q 2284 3394 2536 3286 
Q 2788 3178 2913 3003 
Q 3038 2828 3088 2588 
Q 3119 2431 3119 2041 
L 3119 0 
L 2556 0 
L 2556 2019 
Q 2556 2363 2490 2533 
Q 2425 2703 2258 2804 
Q 2091 2906 1866 2906 
Q 1506 2906 1245 2678 
Q 984 2450 984 1813 
L 984 0 
L 422 0 
z
" transform="scale(0.015625)"/>
      <path id="ArialMT-49" d="M 597 0 
L 597 4581 
L 1203 4581 
L 1203 0 
L 597 0 
z
" transform="scale(0.015625)"/>
      <path id="ArialMT-64" d="M 2575 0 
L 2575 419 
Q 2259 -75 1647 -75 
Q 1250 -75 917 144 
Q 584 363 401 755 
Q 219 1147 219 1656 
Q 219 2153 384 2558 
Q 550 2963 881 3178 
Q 1213 3394 1622 3394 
Q 1922 3394 2156 3267 
Q 2391 3141 2538 2938 
L 2538 4581 
L 3097 4581 
L 3097 0 
L 2575 0 
z
M 797 1656 
Q 797 1019 1065 703 
Q 1334 388 1700 388 
Q 2069 388 2326 689 
Q 2584 991 2584 1609 
Q 2584 2291 2321 2609 
Q 2059 2928 1675 2928 
Q 1300 2928 1048 2622 
Q 797 2316 797 1656 
z
" transform="scale(0.015625)"/>
      <path id="ArialMT-78" d="M 47 0 
L 1259 1725 
L 138 3319 
L 841 3319 
L 1350 2541 
Q 1494 2319 1581 2169 
Q 1719 2375 1834 2534 
L 2394 3319 
L 3066 3319 
L 1919 1756 
L 3153 0 
L 2463 0 
L 1781 1031 
L 1600 1309 
L 728 0 
L 47 0 
z
" transform="scale(0.015625)"/>
      <path id="ArialMT-43" d="M 3763 1606 
L 4369 1453 
Q 4178 706 3683 314 
Q 3188 -78 2472 -78 
Q 1731 -78 1267 223 
Q 803 525 561 1097 
Q 319 1669 319 2325 
Q 319 3041 592 3573 
Q 866 4106 1370 4382 
Q 1875 4659 2481 4659 
Q 3169 4659 3637 4309 
Q 4106 3959 4291 3325 
L 3694 3184 
Q 3534 3684 3231 3912 
Q 2928 4141 2469 4141 
Q 1941 4141 1586 3887 
Q 1231 3634 1087 3207 
Q 944 2781 944 2328 
Q 944 1744 1114 1308 
Q 1284 872 1643 656 
Q 2003 441 2422 441 
Q 2931 441 3284 734 
Q 3638 1028 3763 1606 
z
" transform="scale(0.015625)"/>
      <path id="ArialMT-73" d="M 197 991 
L 753 1078 
Q 800 744 1014 566 
Q 1228 388 1613 388 
Q 2000 388 2187 545 
Q 2375 703 2375 916 
Q 2375 1106 2209 1216 
Q 2094 1291 1634 1406 
Q 1016 1563 777 1677 
Q 538 1791 414 1992 
Q 291 2194 291 2438 
Q 291 2659 392 2848 
Q 494 3038 669 3163 
Q 800 3259 1026 3326 
Q 1253 3394 1513 3394 
Q 1903 3394 2198 3281 
Q 2494 3169 2634 2976 
Q 2775 2784 2828 2463 
L 2278 2388 
Q 2241 2644 2061 2787 
Q 1881 2931 1553 2931 
Q 1166 2931 1000 2803 
Q 834 2675 834 2503 
Q 834 2394 903 2306 
Q 972 2216 1119 2156 
Q 1203 2125 1616 2013 
Q 2213 1853 2448 1751 
Q 2684 1650 2818 1456 
Q 2953 1263 2953 975 
Q 2953 694 2789 445 
Q 2625 197 2315 61 
Q 2006 -75 1616 -75 
Q 969 -75 630 194 
Q 291 463 197 991 
z
" transform="scale(0.015625)"/>
      <path id="ArialMT-6f" d="M 213 1659 
Q 213 2581 725 3025 
Q 1153 3394 1769 3394 
Q 2453 3394 2887 2945 
Q 3322 2497 3322 1706 
Q 3322 1066 3130 698 
Q 2938 331 2570 128 
Q 2203 -75 1769 -75 
Q 1072 -75 642 372 
Q 213 819 213 1659 
z
M 791 1659 
Q 791 1022 1069 705 
Q 1347 388 1769 388 
Q 2188 388 2466 706 
Q 2744 1025 2744 1678 
Q 2744 2294 2464 2611 
Q 2184 2928 1769 2928 
Q 1347 2928 1069 2612 
Q 791 2297 791 1659 
z
" transform="scale(0.015625)"/>
     </defs>
     <use xlink:href="#ArialMT-55"/>
     <use xlink:href="#ArialMT-6e" transform="translate(72.216797 0)"/>
     <use xlink:href="#ArialMT-69" transform="translate(127.832031 0)"/>
     <use xlink:href="#ArialMT-74" transform="translate(150.048828 0)"/>
     <use xlink:href="#ArialMT-20" transform="translate(177.832031 0)"/>
     <use xlink:href="#ArialMT-49" transform="translate(205.615234 0)"/>
     <use xlink:href="#ArialMT-6e" transform="translate(233.398438 0)"/>
     <use xlink:href="#ArialMT-64" transform="translate(289.013672 0)"/>
     <use xlink:href="#ArialMT-65" transform="translate(344.628906 0)"/>
     <use xlink:href="#ArialMT-78" transform="translate(400.244141 0)"/>
     <use xlink:href="#ArialMT-20" transform="translate(450.244141 0)"/>
     <use xlink:href="#ArialMT-28" transform="translate(478.027344 0)"/>
     <use xlink:href="#ArialMT-43" transform="translate(511.328125 0)"/>
     <use xlink:href="#ArialMT-65" transform="translate(583.544922 0)"/>
     <use xlink:href="#ArialMT-6e" transform="translate(639.160156 0)"/>
     <use xlink:href="#ArialMT-73" transform="translate(694.775391 0)"/>
     <use xlink:href="#ArialMT-6f" transform="translate(744.775391 0)"/>
     <use xlink:href="#ArialMT-72" transform="translate(800.390625 0)"/>
     <use xlink:href="#ArialMT-65" transform="translate(833.691406 0)"/>
     <use xlink:href="#ArialMT-64" transform="translate(889.306641 0)"/>
     <use xlink:href="#ArialMT-29" transform="translate(944.921875 0)"/>
    </g>
   </g>
  </g>
  <g id="axis3d_3">
   <g id="line2d_39">
    <path d="M 525.921668 356.830763 
L 536.405628 127.887856 
" style="fill: none; stroke: #cccccc; stroke-width: 1.25; stroke-linecap: round"/>
   </g>
   <g id="xtick_19">
    <g id="line2d_40">
     <path d="M 291.891892 276.908108 
" style="fill: none; stroke: #cccccc; stroke-linecap: round"/>
    </g>
    <g id="line2d_41">
     <path d="M 523.456047 356.114104 
L 530.858773 358.265784 
" style="fill: none; stroke: #262626; stroke-width: 1.25; stroke-linecap: round"/>
    </g>
    <g id="text_21">
     <!-- 0.0 -->
     <g style="fill: #262626" transform="translate(536.553803 362.095292) scale(0.11 -0.11)">
      <defs>
       <path id="ArialMT-2e" d="M 581 0 
L 581 641 
L 1222 641 
L 1222 0 
L 581 0 
z
" transform="scale(0.015625)"/>
      </defs>
      <use xlink:href="#ArialMT-30"/>
      <use xlink:href="#ArialMT-2e" transform="translate(55.615234 0)"/>
      <use xlink:href="#ArialMT-30" transform="translate(83.398438 0)"/>
     </g>
    </g>
   </g>
   <g id="xtick_20">
    <g id="line2d_42">
     <path d="M 291.891892 276.908108 
" style="fill: none; stroke: #cccccc; stroke-linecap: round"/>
    </g>
    <g id="line2d_43">
     <path d="M 525.362044 314.042924 
L 532.82806 316.161894 
" style="fill: none; stroke: #262626; stroke-width: 1.25; stroke-linecap: round"/>
    </g>
    <g id="text_22">
     <!-- 0.2 -->
     <g style="fill: #262626" transform="translate(538.628342 320.052915) scale(0.11 -0.11)">
      <use xlink:href="#ArialMT-30"/>
      <use xlink:href="#ArialMT-2e" transform="translate(55.615234 0)"/>
      <use xlink:href="#ArialMT-32" transform="translate(83.398438 0)"/>
     </g>
    </g>
   </g>
   <g id="xtick_21">
    <g id="line2d_44">
     <path d="M 291.891892 276.908108 
" style="fill: none; stroke: #cccccc; stroke-linecap: round"/>
    </g>
    <g id="line2d_45">
     <path d="M 527.299678 271.273424 
L 534.830074 273.358294 
" style="fill: none; stroke: #262626; stroke-width: 1.25; stroke-linecap: round"/>
    </g>
    <g id="text_23">
     <!-- 0.4 -->
     <g style="fill: #262626" transform="translate(540.73728 277.313438) scale(0.11 -0.11)">
      <use xlink:href="#ArialMT-30"/>
      <use xlink:href="#ArialMT-2e" transform="translate(55.615234 0)"/>
      <use xlink:href="#ArialMT-34" transform="translate(83.398438 0)"/>
     </g>
    </g>
   </g>
   <g id="xtick_22">
    <g id="line2d_46">
     <path d="M 291.891892 276.908108 
" style="fill: none; stroke: #cccccc; stroke-linecap: round"/>
    </g>
    <g id="line2d_47">
     <path d="M 529.269743 227.78807 
L 536.865637 229.837398 
" style="fill: none; stroke: #262626; stroke-width: 1.25; stroke-linecap: round"/>
    </g>
    <g id="text_24">
     <!-- 0.6 -->
     <g style="fill: #262626" transform="translate(542.881478 233.859377) scale(0.11 -0.11)">
      <defs>
       <path id="ArialMT-36" d="M 3184 3459 
L 2625 3416 
Q 2550 3747 2413 3897 
Q 2184 4138 1850 4138 
Q 1581 4138 1378 3988 
Q 1113 3794 959 3422 
Q 806 3050 800 2363 
Q 1003 2672 1297 2822 
Q 1591 2972 1913 2972 
Q 2475 2972 2870 2558 
Q 3266 2144 3266 1488 
Q 3266 1056 3080 686 
Q 2894 316 2569 119 
Q 2244 -78 1831 -78 
Q 1128 -78 684 439 
Q 241 956 241 2144 
Q 241 3472 731 4075 
Q 1159 4600 1884 4600 
Q 2425 4600 2770 4297 
Q 3116 3994 3184 3459 
z
M 888 1484 
Q 888 1194 1011 928 
Q 1134 663 1356 523 
Q 1578 384 1822 384 
Q 2178 384 2434 671 
Q 2691 959 2691 1453 
Q 2691 1928 2437 2201 
Q 2184 2475 1800 2475 
Q 1419 2475 1153 2201 
Q 888 1928 888 1484 
z
" transform="scale(0.015625)"/>
      </defs>
      <use xlink:href="#ArialMT-30"/>
      <use xlink:href="#ArialMT-2e" transform="translate(55.615234 0)"/>
      <use xlink:href="#ArialMT-36" transform="translate(83.398438 0)"/>
     </g>
    </g>
   </g>
   <g id="xtick_23">
    <g id="line2d_48">
     <path d="M 291.891892 276.908108 
" style="fill: none; stroke: #cccccc; stroke-linecap: round"/>
    </g>
    <g id="line2d_49">
     <path d="M 531.27306 183.568739 
L 538.9356 185.581021 
" style="fill: none; stroke: #262626; stroke-width: 1.25; stroke-linecap: round"/>
    </g>
    <g id="text_25">
     <!-- 0.8 -->
     <g style="fill: #262626" transform="translate(545.061829 189.67266) scale(0.11 -0.11)">
      <use xlink:href="#ArialMT-30"/>
      <use xlink:href="#ArialMT-2e" transform="translate(55.615234 0)"/>
      <use xlink:href="#ArialMT-38" transform="translate(83.398438 0)"/>
     </g>
    </g>
   </g>
   <g id="xtick_24">
    <g id="line2d_50">
     <path d="M 291.891892 276.908108 
" style="fill: none; stroke: #cccccc; stroke-linecap: round"/>
    </g>
    <g id="line2d_51">
     <path d="M 533.310478 138.59669 
L 541.040842 140.570362 
" style="fill: none; stroke: #262626; stroke-width: 1.25; stroke-linecap: round"/>
    </g>
    <g id="text_26">
     <!-- 1.0 -->
     <g style="fill: #262626" transform="translate(547.279253 144.734601) scale(0.11 -0.11)">
      <use xlink:href="#ArialMT-31"/>
      <use xlink:href="#ArialMT-2e" transform="translate(55.615234 0)"/>
      <use xlink:href="#ArialMT-30" transform="translate(83.398438 0)"/>
     </g>
    </g>
   </g>
   <g id="text_27">
    <!-- Cond. Reliability $R$ -->
    <g style="fill: #262626" transform="translate(582.055805 287.429992) rotate(-87.378092) scale(0.12 -0.12)">
     <defs>
      <path id="ArialMT-52" d="M 503 0 
L 503 4581 
L 2534 4581 
Q 3147 4581 3465 4457 
Q 3784 4334 3975 4021 
Q 4166 3709 4166 3331 
Q 4166 2844 3850 2509 
Q 3534 2175 2875 2084 
Q 3116 1969 3241 1856 
Q 3506 1613 3744 1247 
L 4541 0 
L 3778 0 
L 3172 953 
Q 2906 1366 2734 1584 
Q 2563 1803 2427 1890 
Q 2291 1978 2150 2013 
Q 2047 2034 1813 2034 
L 1109 2034 
L 1109 0 
L 503 0 
z
M 1109 2559 
L 2413 2559 
Q 2828 2559 3062 2645 
Q 3297 2731 3419 2920 
Q 3541 3109 3541 3331 
Q 3541 3656 3305 3865 
Q 3069 4075 2559 4075 
L 1109 4075 
L 1109 2559 
z
" transform="scale(0.015625)"/>
      <path id="ArialMT-6c" d="M 409 0 
L 409 4581 
L 972 4581 
L 972 0 
L 409 0 
z
" transform="scale(0.015625)"/>
      <path id="ArialMT-61" d="M 2588 409 
Q 2275 144 1986 34 
Q 1697 -75 1366 -75 
Q 819 -75 525 192 
Q 231 459 231 875 
Q 231 1119 342 1320 
Q 453 1522 633 1644 
Q 813 1766 1038 1828 
Q 1203 1872 1538 1913 
Q 2219 1994 2541 2106 
Q 2544 2222 2544 2253 
Q 2544 2597 2384 2738 
Q 2169 2928 1744 2928 
Q 1347 2928 1158 2789 
Q 969 2650 878 2297 
L 328 2372 
Q 403 2725 575 2942 
Q 747 3159 1072 3276 
Q 1397 3394 1825 3394 
Q 2250 3394 2515 3294 
Q 2781 3194 2906 3042 
Q 3031 2891 3081 2659 
Q 3109 2516 3109 2141 
L 3109 1391 
Q 3109 606 3145 398 
Q 3181 191 3288 0 
L 2700 0 
Q 2613 175 2588 409 
z
M 2541 1666 
Q 2234 1541 1622 1453 
Q 1275 1403 1131 1340 
Q 988 1278 909 1158 
Q 831 1038 831 891 
Q 831 666 1001 516 
Q 1172 366 1500 366 
Q 1825 366 2078 508 
Q 2331 650 2450 897 
Q 2541 1088 2541 1459 
L 2541 1666 
z
" transform="scale(0.015625)"/>
      <path id="ArialMT-62" d="M 941 0 
L 419 0 
L 419 4581 
L 981 4581 
L 981 2947 
Q 1338 3394 1891 3394 
Q 2197 3394 2470 3270 
Q 2744 3147 2920 2923 
Q 3097 2700 3197 2384 
Q 3297 2069 3297 1709 
Q 3297 856 2875 390 
Q 2453 -75 1863 -75 
Q 1275 -75 941 416 
L 941 0 
z
M 934 1684 
Q 934 1088 1097 822 
Q 1363 388 1816 388 
Q 2184 388 2453 708 
Q 2722 1028 2722 1663 
Q 2722 2313 2464 2622 
Q 2206 2931 1841 2931 
Q 1472 2931 1203 2611 
Q 934 2291 934 1684 
z
" transform="scale(0.015625)"/>
      <path id="ArialMT-79" d="M 397 -1278 
L 334 -750 
Q 519 -800 656 -800 
Q 844 -800 956 -737 
Q 1069 -675 1141 -563 
Q 1194 -478 1313 -144 
Q 1328 -97 1363 -6 
L 103 3319 
L 709 3319 
L 1400 1397 
Q 1534 1031 1641 628 
Q 1738 1016 1872 1384 
L 2581 3319 
L 3144 3319 
L 1881 -56 
Q 1678 -603 1566 -809 
Q 1416 -1088 1222 -1217 
Q 1028 -1347 759 -1347 
Q 597 -1347 397 -1278 
z
" transform="scale(0.015625)"/>
      <path id="DejaVuSans-Oblique-52" d="M 1613 4147 
L 1294 2491 
L 2106 2491 
Q 2584 2491 2879 2755 
Q 3175 3019 3175 3444 
Q 3175 3784 2976 3965 
Q 2778 4147 2406 4147 
L 1613 4147 
z
M 2772 2241 
Q 2972 2194 3105 2009 
Q 3238 1825 3413 1275 
L 3809 0 
L 3144 0 
L 2778 1197 
Q 2638 1659 2453 1815 
Q 2269 1972 1888 1972 
L 1191 1972 
L 806 0 
L 172 0 
L 1081 4666 
L 2503 4666 
Q 3150 4666 3495 4373 
Q 3841 4081 3841 3531 
Q 3841 3044 3547 2687 
Q 3253 2331 2772 2241 
z
" transform="scale(0.015625)"/>
     </defs>
     <use xlink:href="#ArialMT-43" transform="translate(0 0.09375)"/>
     <use xlink:href="#ArialMT-6f" transform="translate(72.216797 0.09375)"/>
     <use xlink:href="#ArialMT-6e" transform="translate(127.832031 0.09375)"/>
     <use xlink:href="#ArialMT-64" transform="translate(183.447266 0.09375)"/>
     <use xlink:href="#ArialMT-2e" transform="translate(239.0625 0.09375)"/>
     <use xlink:href="#ArialMT-20" transform="translate(266.845703 0.09375)"/>
     <use xlink:href="#ArialMT-52" transform="translate(294.628906 0.09375)"/>
     <use xlink:href="#ArialMT-65" transform="translate(366.845703 0.09375)"/>
     <use xlink:href="#ArialMT-6c" transform="translate(422.460938 0.09375)"/>
     <use xlink:href="#ArialMT-69" transform="translate(444.677734 0.09375)"/>
     <use xlink:href="#ArialMT-61" transform="translate(466.894531 0.09375)"/>
     <use xlink:href="#ArialMT-62" transform="translate(522.509766 0.09375)"/>
     <use xlink:href="#ArialMT-69" transform="translate(578.125 0.09375)"/>
     <use xlink:href="#ArialMT-6c" transform="translate(600.341797 0.09375)"/>
     <use xlink:href="#ArialMT-69" transform="translate(622.558594 0.09375)"/>
     <use xlink:href="#ArialMT-74" transform="translate(644.775391 0.09375)"/>
     <use xlink:href="#ArialMT-79" transform="translate(672.558594 0.09375)"/>
     <use xlink:href="#ArialMT-20" transform="translate(722.558594 0.09375)"/>
     <use xlink:href="#DejaVuSans-Oblique-52" transform="translate(750.341797 0.09375)"/>
    </g>
   </g>
  </g>
  <g id="axes_1">
   <g id="line2d_52">
    <path d="M 72.951774 198.18898 
L 74.765233 198.765694 
L 76.593905 199.688151 
L 78.474871 201.879877 
L 80.482442 207.222102 
L 82.713895 218.236786 
L 85.241409 236.897775 
L 88.058138 263.230378 
L 96.997533 357.65472 
L 99.67701 382.24702 
L 102.103041 400.484285 
L 104.301347 412.8838 
L 106.324715 420.718037 
L 108.229456 425.403991 
L 110.061946 428.136998 
L 111.854539 429.76606 
L 113.627133 430.821125 
L 115.390749 431.599694 
L 118.910382 432.856632 
L 138.322423 439.164905 
L 351.193854 508.145937 
L 351.193854 508.145937 
" clip-path="url(#p23f3545eb5)" style="fill: none; stroke: #440154; stroke-opacity: 0.8; stroke-width: 2.5; stroke-linecap: round"/>
   </g>
   <g id="line2d_53">
    <path d="M 89.138567 186.126391 
L 141.882851 201.125179 
L 145.559898 202.317948 
L 149.248413 203.772566 
L 151.099187 204.687161 
L 152.956054 205.799278 
L 154.82071 207.181929 
L 156.695142 208.923344 
L 158.581564 211.125551 
L 160.482309 213.901042 
L 162.399676 217.367374 
L 164.335746 221.639835 
L 166.292168 226.822607 
L 168.269959 232.999166 
L 170.269314 240.222916 
L 172.289482 248.509136 
L 174.328696 257.829325 
L 176.384204 268.108756 
L 178.452372 279.227729 
L 182.608931 303.313819 
L 190.869132 353.038745 
L 194.908664 375.433989 
L 196.897315 385.481551 
L 198.86425 394.650747 
L 200.809707 402.903338 
L 202.734566 410.234224 
L 204.640207 416.666865 
L 206.528369 422.247774 
L 208.401013 427.040637 
L 210.260192 431.120533 
L 212.107953 434.568635 
L 213.946251 437.467654 
L 215.776892 439.898155 
L 217.601496 441.935805 
L 219.421477 443.649511 
L 221.238042 445.10035 
L 223.052197 446.341166 
L 226.676413 448.363958 
L 230.29889 449.988448 
L 235.735283 452.039192 
L 244.812998 455.079918 
L 281.397369 466.839045 
L 365.380794 493.791551 
L 365.380794 493.791551 
" clip-path="url(#p23f3545eb5)" style="fill: none; stroke: #482173; stroke-opacity: 0.8; stroke-width: 2.5; stroke-linecap: round"/>
   </g>
   <g id="line2d_54">
    <path d="M 105.09083 174.242273 
L 183.279808 196.2379 
L 188.818118 198.035138 
L 192.520683 199.492526 
L 194.376093 200.362717 
L 196.234883 201.368918 
L 198.097614 202.550644 
L 199.964912 203.954169 
L 201.837446 205.632163 
L 203.715901 207.642779 
L 205.60095 210.04815 
L 207.493203 212.912276 
L 209.39317 216.298337 
L 211.301209 220.265544 
L 213.217481 224.865707 
L 215.141916 230.139709 
L 217.074181 236.114193 
L 219.013662 242.798679 
L 220.959472 250.183421 
L 222.910465 258.238173 
L 224.865267 266.912039 
L 228.779998 285.817259 
L 232.69031 306.142566 
L 240.447917 347.328154 
L 244.277505 366.385485 
L 248.069141 383.492127 
L 249.950932 391.182595 
L 251.823897 398.260938 
L 253.688627 404.718974 
L 255.545825 410.562359 
L 257.39627 415.808682 
L 259.240777 420.48535 
L 261.080173 424.627394 
L 262.915266 428.275311 
L 264.746824 431.473038 
L 266.575561 434.266134 
L 268.402127 436.700215 
L 270.227102 438.819668 
L 272.050993 440.66665 
L 273.874235 442.280358 
L 275.697198 443.696556 
L 277.520189 444.947315 
L 281.167208 447.062075 
L 284.816761 448.808065 
L 288.469751 450.317262 
L 293.956753 452.326124 
L 303.123513 455.38042 
L 330.792674 464.207424 
L 379.361592 479.645739 
L 379.361592 479.645739 
" clip-path="url(#p23f3545eb5)" style="fill: none; stroke: #433e85; stroke-opacity: 0.8; stroke-width: 2.5; stroke-linecap: round"/>
   </g>
   <g id="line2d_55">
    <path d="M 120.813479 162.529213 
L 154.950376 172.109207 
L 158.575062 173.44627 
L 160.394365 174.33481 
L 162.221053 175.490123 
L 164.058052 177.044533 
L 165.908959 179.166093 
L 167.777871 182.053928 
L 169.66906 185.926525 
L 171.58651 191.002775 
L 173.533353 197.477165 
L 175.511307 205.492231 
L 177.520196 215.112646 
L 179.557666 226.305732 
L 181.619163 238.932482 
L 183.698196 252.751459 
L 187.876502 282.599169 
L 192.025117 312.732481 
L 194.069718 326.941389 
L 196.087532 340.163397 
L 198.075618 352.182987 
L 200.032855 362.869264 
L 201.959737 372.172386 
L 203.858052 380.113344 
L 205.730521 386.769501 
L 207.580424 392.258311 
L 209.411273 396.721296 
L 211.22654 400.30982 
L 213.029467 403.173596 
L 214.822933 405.452332 
L 216.609399 407.270416 
L 218.390891 408.734281 
L 220.169027 409.931867 
L 221.94506 410.933591 
L 225.494344 412.555338 
L 229.04361 413.893028 
L 236.150464 416.255626 
L 266.538966 425.842636 
L 393.140708 465.70399 
L 393.140708 465.70399 
" clip-path="url(#p23f3545eb5)" style="fill: none; stroke: #38588c; stroke-opacity: 0.8; stroke-width: 2.5; stroke-linecap: round"/>
   </g>
   <g id="line2d_56">
    <path d="M 136.311436 150.983543 
L 181.10499 163.388699 
L 184.722803 164.621265 
L 186.535958 165.374148 
L 188.353131 166.285078 
L 190.175565 167.427135 
L 192.004794 168.89421 
L 193.842614 170.801047 
L 195.690991 173.280636 
L 197.551932 176.478406 
L 199.427306 180.543095 
L 201.318622 185.614697 
L 203.226821 191.810526 
L 205.152069 199.210931 
L 207.093622 207.846582 
L 209.049759 217.689187 
L 211.017821 228.647236 
L 212.994346 240.567666 
L 216.956265 266.426761 
L 222.857556 306.281733 
L 226.724021 330.552829 
L 228.631037 341.407275 
L 230.519898 351.253859 
L 232.391027 360.039663 
L 234.245433 367.757287 
L 236.084566 374.438118 
L 237.910156 380.144127 
L 239.724074 384.959164 
L 241.52821 388.980557 
L 243.324377 392.311597 
L 245.114244 395.055317 
L 246.899293 397.30973 
L 248.680798 399.164522 
L 250.459827 400.699084 
L 252.23725 401.981681 
L 254.013759 403.069481 
L 257.566056 404.838282 
L 261.119624 406.274588 
L 266.455565 408.13513 
L 277.153956 411.544152 
L 397.414397 449.058668 
L 406.722476 451.961918 
L 406.722476 451.961918 
" clip-path="url(#p23f3545eb5)" style="fill: none; stroke: #2d708e; stroke-opacity: 0.8; stroke-width: 2.5; stroke-linecap: round"/>
   </g>
   <g id="line2d_57">
    <path d="M 151.589483 139.601702 
L 225.072611 159.680612 
L 230.524773 161.423023 
L 234.167869 162.866135 
L 235.99249 163.742867 
L 237.819491 164.769419 
L 239.649153 165.989709 
L 241.481764 167.455015 
L 243.317606 169.22341 
L 245.156928 171.358541 
L 246.999924 173.927714 
L 248.8467 176.999277 
L 250.697254 180.639383 
L 252.551445 184.908293 
L 254.408979 189.856434 
L 256.269398 195.520506 
L 258.132084 201.919958 
L 259.996266 209.054135 
L 261.861048 216.900396 
L 263.725443 225.413406 
L 267.448919 244.149639 
L 271.158659 264.499799 
L 280.336005 315.994253 
L 283.963443 334.394026 
L 285.768716 342.775882 
L 287.569059 350.547911 
L 289.365095 357.68438 
L 291.157486 364.176427 
L 292.946906 370.030331 
L 294.734011 375.26537 
L 296.519425 379.911432 
L 298.303717 384.006547 
L 300.087397 387.594473 
L 301.870906 390.722444 
L 303.654617 393.439166 
L 305.438834 395.793113 
L 307.2238 397.831148 
L 309.0097 399.59747 
L 310.79667 401.132873 
L 312.584805 402.474284 
L 314.374165 403.654545 
L 317.95668 405.642603 
L 321.544281 407.280859 
L 326.934986 409.354061 
L 334.139164 411.777873 
L 348.601295 416.314318 
L 420.111105 438.415266 
L 420.111105 438.415266 
" clip-path="url(#p23f3545eb5)" style="fill: none; stroke: #25858e; stroke-opacity: 0.8; stroke-width: 2.5; stroke-linecap: round"/>
   </g>
   <g id="line2d_58">
    <path d="M 166.652269 128.380227 
L 193.204728 135.627823 
L 194.985432 136.224842 
L 196.76927 136.941993 
L 198.557722 137.870535 
L 200.352918 139.146758 
L 202.157682 140.958727 
L 203.975426 143.545558 
L 205.809879 147.18561 
L 207.664628 152.171719 
L 209.542521 158.774646 
L 211.44505 167.199594 
L 213.371824 177.543722 
L 215.320285 189.763904 
L 217.285744 203.662782 
L 221.240795 235.010359 
L 227.121332 283.355999 
L 229.042974 297.858156 
L 230.93967 310.960217 
L 232.810738 322.480191 
L 234.657045 332.353036 
L 236.480639 340.614428 
L 238.284331 347.377466 
L 240.071305 352.806871 
L 241.844791 357.094405 
L 243.607819 360.438103 
L 245.363066 363.026632 
L 247.112784 365.029048 
L 248.858785 366.589431 
L 250.602472 367.82541 
L 252.344894 368.82943 
L 255.828748 370.403827 
L 259.314026 371.674059 
L 266.294449 373.912677 
L 306.747464 386.310075 
L 433.310685 425.059893 
L 433.310685 425.059893 
" clip-path="url(#p23f3545eb5)" style="fill: none; stroke: #1e9b8a; stroke-opacity: 0.8; stroke-width: 2.5; stroke-linecap: round"/>
   </g>
   <g id="line2d_59">
    <path d="M 181.50431 117.315751 
L 218.575298 127.29098 
L 222.133134 128.472816 
L 223.915445 129.213979 
L 225.700905 130.137466 
L 227.490449 131.335621 
L 229.285215 132.92886 
L 231.086498 135.065176 
L 232.895644 137.915289 
L 234.713909 141.662682 
L 236.542279 146.488582 
L 238.381282 152.553032 
L 240.230825 159.974227 
L 242.090077 168.809106 
L 243.957439 179.038414 
L 245.830603 190.559051 
L 247.706707 203.185442 
L 251.454886 230.67284 
L 257.022539 272.55355 
L 258.855364 285.415144 
L 260.675088 297.316372 
L 262.481802 308.103931 
L 264.276162 317.691578 
L 266.059261 326.055593 
L 267.832475 333.225966 
L 269.597325 339.274984 
L 271.355358 344.304832 
L 273.108047 348.435574 
L 274.85673 351.794517 
L 276.602568 354.507573 
L 278.346531 356.692872 
L 280.089403 358.45659 
L 281.831796 359.890732 
L 283.574173 361.072494 
L 285.316873 362.064798 
L 288.804135 363.669532 
L 292.294736 364.980374 
L 299.287626 367.256242 
L 322.127513 374.212712 
L 446.325192 411.891777 
L 446.325192 411.891777 
" clip-path="url(#p23f3545eb5)" style="fill: none; stroke: #2ab07f; stroke-opacity: 0.8; stroke-width: 2.5; stroke-linecap: round"/>
   </g>
   <g id="line2d_60">
    <path d="M 196.15 106.405004 
L 222.462992 113.453107 
L 224.226896 114.03488 
L 225.993225 114.734878 
L 227.762942 115.643024 
L 229.537408 116.893696 
L 231.318386 118.672453 
L 233.107953 121.215416 
L 234.908287 124.79773 
L 236.721355 129.709213 
L 238.548526 136.218337 
L 240.39019 144.529273 
L 242.245469 154.739812 
L 244.112108 166.8093 
L 245.986575 180.544553 
L 249.740599 211.548503 
L 255.314194 259.423869 
L 257.142929 273.798243 
L 258.954646 286.790092 
L 260.749619 298.217249 
L 262.529028 308.013494 
L 264.29468 316.21265 
L 266.048725 322.925615 
L 267.793412 328.314829 
L 269.53089 332.569899 
L 271.263084 335.886951 
L 272.991625 338.45306 
L 274.717828 340.436017 
L 276.442712 341.978943 
L 278.167033 343.198765 
L 279.891332 344.187441 
L 283.341237 345.732388 
L 286.794134 346.973796 
L 293.711176 349.15496 
L 333.795648 361.217916 
L 459.158492 398.907007 
L 459.158492 398.907007 
" clip-path="url(#p23f3545eb5)" style="fill: none; stroke: #52c569; stroke-opacity: 0.8; stroke-width: 2.5; stroke-linecap: round"/>
   </g>
   <g id="line2d_61">
    <path d="M 210.593608 95.644804 
L 231.530451 101.183551 
L 235.037092 102.373063 
L 236.794381 103.216467 
L 238.555893 104.405714 
L 240.323366 106.156734 
L 242.098897 108.754308 
L 243.884698 112.537722 
L 245.68271 117.86672 
L 247.494143 125.069434 
L 249.319024 134.380405 
L 251.155905 145.882014 
L 253.001819 159.464363 
L 254.852526 174.815433 
L 258.548125 208.745508 
L 262.204762 242.745728 
L 264.010428 258.282903 
L 265.799383 272.27145 
L 267.57204 284.474297 
L 269.329795 294.807989 
L 271.074688 303.320292 
L 272.809061 310.157317 
L 274.535277 315.527414 
L 276.255509 319.667648 
L 277.971625 322.816572 
L 279.685134 325.194934 
L 281.397195 326.994265 
L 283.108654 328.372147 
L 284.820103 329.452418 
L 286.531935 330.328509 
L 289.957669 331.71965 
L 295.102942 333.41549 
L 310.591606 338.065474 
L 471.814344 386.10178 
L 471.814344 386.10178 
" clip-path="url(#p23f3545eb5)" style="fill: none; stroke: #86d549; stroke-opacity: 0.8; stroke-width: 2.5; stroke-linecap: round"/>
   </g>
   <g id="line2d_62">
    <path d="M 224.839289 85.032055 
L 275.460781 98.23405 
L 278.984102 99.291276 
L 282.511818 100.593596 
L 284.277295 101.420444 
L 286.043772 102.432904 
L 287.811121 103.699936 
L 289.579125 105.305044 
L 291.347462 107.345005 
L 293.115676 109.926801 
L 294.883168 113.162589 
L 296.649192 117.162817 
L 298.412864 122.027875 
L 300.173199 127.838987 
L 301.929155 134.649245 
L 303.679697 142.475835 
L 305.423872 151.294476 
L 307.160883 161.036856 
L 308.890163 171.591567 
L 312.324706 194.506964 
L 319.109627 242.00543 
L 322.475975 263.47211 
L 324.15715 273.116552 
L 325.83868 281.924422 
L 327.521671 289.856401 
L 329.20705 296.905174 
L 330.895549 303.091154 
L 332.587695 308.457268 
L 334.283819 313.063345 
L 335.984075 316.980563 
L 337.688469 320.28633 
L 339.396886 323.059851 
L 341.109122 325.378534 
L 342.824914 327.315282 
L 344.543968 328.936642 
L 346.265978 330.301726 
L 347.990643 331.461772 
L 351.446847 333.333144 
L 354.910681 334.814151 
L 360.117807 336.656144 
L 368.820608 339.353328 
L 403.889586 349.727732 
L 484.296402 373.472398 
L 484.296402 373.472398 
" clip-path="url(#p23f3545eb5)" style="fill: none; stroke: #c2df23; stroke-opacity: 0.8; stroke-width: 2.5; stroke-linecap: round"/>
   </g>
   <g id="line2d_63">
    <path d="M 238.891083 74.563748 
L 298.059082 89.868275 
L 301.575926 90.940241 
L 305.096076 92.258023 
L 306.857037 93.082829 
L 308.618264 94.076005 
L 310.379399 95.294121 
L 312.139966 96.804562 
L 313.89936 98.684619 
L 315.65684 101.019417 
L 317.411529 103.898579 
L 319.162433 107.411663 
L 320.90847 111.642587 
L 322.648512 116.663396 
L 324.381449 122.527894 
L 326.106249 129.265753 
L 327.822039 136.87773 
L 329.528166 145.33255 
L 331.224265 154.565894 
L 334.586584 174.95567 
L 339.565266 208.188625 
L 342.85573 230.184635 
L 346.138429 250.617666 
L 347.780992 259.953295 
L 349.426327 268.594503 
L 351.075662 276.494169 
L 352.729992 283.63064 
L 354.390062 290.005349 
L 356.05637 295.639576 
L 357.729182 300.570693 
L 359.408556 304.848211 
L 361.094374 308.529895 
L 362.786378 311.678186 
L 364.484202 314.357069 
L 366.187413 316.629486 
L 367.895537 318.555327 
L 369.608088 320.189996 
L 371.324589 321.583496 
L 373.04459 322.779969 
L 376.493469 324.728845 
L 379.951942 326.275564 
L 383.417948 327.582127 
L 388.62813 329.306269 
L 399.080471 332.458504 
L 466.131902 352.094533 
L 496.608221 361.015264 
L 496.608221 361.015264 
" clip-path="url(#p23f3545eb5)" style="fill: none; stroke: #fde725; stroke-opacity: 0.8; stroke-width: 2.5; stroke-linecap: round"/>
   </g>
  </g>
 </g>
 <defs>
  <clipPath id="p23f3545eb5">
   <rect x="7.2" y="7.2" width="554.4" height="554.4"/>
  </clipPath>
 </defs>
</svg>
