<?xml version="1.0" encoding="utf-8" standalone="no"?>
<!DOCTYPE svg PUBLIC "-//W3C//DTD SVG 1.1//EN"
  "http://www.w3.org/Graphics/SVG/1.1/DTD/svg11.dtd">
<svg xmlns:xlink="http://www.w3.org/1999/xlink" width="1144.44pt" height="420.905pt" viewBox="0 0 1144.44 420.905" xmlns="http://www.w3.org/2000/svg" version="1.1">
 <metadata>
  <rdf:RDF xmlns:dc="http://purl.org/dc/elements/1.1/" xmlns:cc="http://creativecommons.org/ns#" xmlns:rdf="http://www.w3.org/1999/02/22-rdf-syntax-ns#">
   <cc:Work>
    <dc:type rdf:resource="http://purl.org/dc/dcmitype/StillImage"/>
    <dc:date>2026-03-18T12:58:52.376472</dc:date>
    <dc:format>image/svg+xml</dc:format>
    <dc:creator>
     <cc:Agent>
      <dc:title>Matplotlib v3.10.8, https://matplotlib.org/</dc:title>
     </cc:Agent>
    </dc:creator>
   </cc:Work>
  </rdf:RDF>
 </metadata>
 <defs>
  <style type="text/css">*{stroke-linejoin: round; stroke-linecap: butt}</style>
 </defs>
 <g id="figure_1">
  <g id="patch_1">
   <path d="M 0 420.905 
L 1144.44 420.905 
L 1144.44 0 
L 0 0 
z
" style="fill: #ffffff"/>
  </g>
  <g id="axes_1">
   <g id="patch_2">
    <path d="M 42.95 382.82 
L 569.115 382.82 
L 569.115 23.98 
L 42.95 23.98 
z
" style="fill: #ffffff"/>
   </g>
   <g id="patch_3">
    <path d="M 66.866591 382.82 
L 72.873415 382.82 
L 72.873415 360.036508 
L 66.866591 360.036508 
z
" clip-path="url(#peba9d56c07)" style="fill: #4682b4; opacity: 0.6"/>
   </g>
   <g id="patch_4">
    <path d="M 72.873415 382.82 
L 78.880239 382.82 
L 78.880239 314.469524 
L 72.873415 314.469524 
z
" clip-path="url(#peba9d56c07)" style="fill: #4682b4; opacity: 0.6"/>
   </g>
   <g id="patch_5">
    <path d="M 78.880239 382.82 
L 84.887063 382.82 
L 84.887063 223.335556 
L 78.880239 223.335556 
z
" clip-path="url(#peba9d56c07)" style="fill: #4682b4; opacity: 0.6"/>
   </g>
   <g id="patch_6">
    <path d="M 84.887063 382.82 
L 90.893887 382.82 
L 90.893887 132.201587 
L 84.887063 132.201587 
z
" clip-path="url(#peba9d56c07)" style="fill: #4682b4; opacity: 0.6"/>
   </g>
   <g id="patch_7">
    <path d="M 90.893887 382.82 
L 96.900711 382.82 
L 96.900711 246.119048 
L 90.893887 246.119048 
z
" clip-path="url(#peba9d56c07)" style="fill: #4682b4; opacity: 0.6"/>
   </g>
   <g id="patch_8">
    <path d="M 96.900711 382.82 
L 102.907535 382.82 
L 102.907535 246.119048 
L 96.900711 246.119048 
z
" clip-path="url(#peba9d56c07)" style="fill: #4682b4; opacity: 0.6"/>
   </g>
   <g id="patch_9">
    <path d="M 102.907535 382.82 
L 108.914359 382.82 
L 108.914359 132.201587 
L 102.907535 132.201587 
z
" clip-path="url(#peba9d56c07)" style="fill: #4682b4; opacity: 0.6"/>
   </g>
   <g id="patch_10">
    <path d="M 108.914359 382.82 
L 114.921183 382.82 
L 114.921183 63.851111 
L 108.914359 63.851111 
z
" clip-path="url(#peba9d56c07)" style="fill: #4682b4; opacity: 0.6"/>
   </g>
   <g id="patch_11">
    <path d="M 114.921183 382.82 
L 120.928007 382.82 
L 120.928007 132.201587 
L 114.921183 132.201587 
z
" clip-path="url(#peba9d56c07)" style="fill: #4682b4; opacity: 0.6"/>
   </g>
   <g id="patch_12">
    <path d="M 120.928007 382.82 
L 126.934831 382.82 
L 126.934831 86.634603 
L 120.928007 86.634603 
z
" clip-path="url(#peba9d56c07)" style="fill: #4682b4; opacity: 0.6"/>
   </g>
   <g id="patch_13">
    <path d="M 126.934831 382.82 
L 132.941655 382.82 
L 132.941655 132.201587 
L 126.934831 132.201587 
z
" clip-path="url(#peba9d56c07)" style="fill: #4682b4; opacity: 0.6"/>
   </g>
   <g id="patch_14">
    <path d="M 132.941655 382.82 
L 138.948479 382.82 
L 138.948479 63.851111 
L 132.941655 63.851111 
z
" clip-path="url(#peba9d56c07)" style="fill: #4682b4; opacity: 0.6"/>
   </g>
   <g id="patch_15">
    <path d="M 138.948479 382.82 
L 144.955303 382.82 
L 144.955303 41.067619 
L 138.948479 41.067619 
z
" clip-path="url(#peba9d56c07)" style="fill: #4682b4; opacity: 0.6"/>
   </g>
   <g id="patch_16">
    <path d="M 144.955303 382.82 
L 150.962127 382.82 
L 150.962127 223.335556 
L 144.955303 223.335556 
z
" clip-path="url(#peba9d56c07)" style="fill: #4682b4; opacity: 0.6"/>
   </g>
   <g id="patch_17">
    <path d="M 150.962127 382.82 
L 156.968951 382.82 
L 156.968951 223.335556 
L 150.962127 223.335556 
z
" clip-path="url(#peba9d56c07)" style="fill: #4682b4; opacity: 0.6"/>
   </g>
   <g id="patch_18">
    <path d="M 156.968951 382.82 
L 162.975775 382.82 
L 162.975775 154.985079 
L 156.968951 154.985079 
z
" clip-path="url(#peba9d56c07)" style="fill: #4682b4; opacity: 0.6"/>
   </g>
   <g id="patch_19">
    <path d="M 162.975775 382.82 
L 168.982598 382.82 
L 168.982598 223.335556 
L 162.975775 223.335556 
z
" clip-path="url(#peba9d56c07)" style="fill: #4682b4; opacity: 0.6"/>
   </g>
   <g id="patch_20">
    <path d="M 168.982598 382.82 
L 174.989422 382.82 
L 174.989422 86.634603 
L 168.982598 86.634603 
z
" clip-path="url(#peba9d56c07)" style="fill: #4682b4; opacity: 0.6"/>
   </g>
   <g id="patch_21">
    <path d="M 174.989422 382.82 
L 180.996246 382.82 
L 180.996246 200.552063 
L 174.989422 200.552063 
z
" clip-path="url(#peba9d56c07)" style="fill: #4682b4; opacity: 0.6"/>
   </g>
   <g id="patch_22">
    <path d="M 180.996246 382.82 
L 187.00307 382.82 
L 187.00307 200.552063 
L 180.996246 200.552063 
z
" clip-path="url(#peba9d56c07)" style="fill: #4682b4; opacity: 0.6"/>
   </g>
   <g id="patch_23">
    <path d="M 187.00307 382.82 
L 193.009894 382.82 
L 193.009894 268.90254 
L 187.00307 268.90254 
z
" clip-path="url(#peba9d56c07)" style="fill: #4682b4; opacity: 0.6"/>
   </g>
   <g id="patch_24">
    <path d="M 193.009894 382.82 
L 199.016718 382.82 
L 199.016718 268.90254 
L 193.009894 268.90254 
z
" clip-path="url(#peba9d56c07)" style="fill: #4682b4; opacity: 0.6"/>
   </g>
   <g id="patch_25">
    <path d="M 199.016718 382.82 
L 205.023542 382.82 
L 205.023542 246.119048 
L 199.016718 246.119048 
z
" clip-path="url(#peba9d56c07)" style="fill: #4682b4; opacity: 0.6"/>
   </g>
   <g id="patch_26">
    <path d="M 205.023542 382.82 
L 211.030366 382.82 
L 211.030366 337.253016 
L 205.023542 337.253016 
z
" clip-path="url(#peba9d56c07)" style="fill: #4682b4; opacity: 0.6"/>
   </g>
   <g id="patch_27">
    <path d="M 211.030366 382.82 
L 217.03719 382.82 
L 217.03719 314.469524 
L 211.030366 314.469524 
z
" clip-path="url(#peba9d56c07)" style="fill: #4682b4; opacity: 0.6"/>
   </g>
   <g id="patch_28">
    <path d="M 217.03719 382.82 
L 223.044014 382.82 
L 223.044014 337.253016 
L 217.03719 337.253016 
z
" clip-path="url(#peba9d56c07)" style="fill: #4682b4; opacity: 0.6"/>
   </g>
   <g id="patch_29">
    <path d="M 223.044014 382.82 
L 229.050838 382.82 
L 229.050838 246.119048 
L 223.044014 246.119048 
z
" clip-path="url(#peba9d56c07)" style="fill: #4682b4; opacity: 0.6"/>
   </g>
   <g id="patch_30">
    <path d="M 229.050838 382.82 
L 235.057662 382.82 
L 235.057662 337.253016 
L 229.050838 337.253016 
z
" clip-path="url(#peba9d56c07)" style="fill: #4682b4; opacity: 0.6"/>
   </g>
   <g id="patch_31">
    <path d="M 235.057662 382.82 
L 241.064486 382.82 
L 241.064486 291.686032 
L 235.057662 291.686032 
z
" clip-path="url(#peba9d56c07)" style="fill: #4682b4; opacity: 0.6"/>
   </g>
   <g id="patch_32">
    <path d="M 241.064486 382.82 
L 247.07131 382.82 
L 247.07131 360.036508 
L 241.064486 360.036508 
z
" clip-path="url(#peba9d56c07)" style="fill: #4682b4; opacity: 0.6"/>
   </g>
   <g id="patch_33">
    <path d="M 247.07131 382.82 
L 253.078134 382.82 
L 253.078134 291.686032 
L 247.07131 291.686032 
z
" clip-path="url(#peba9d56c07)" style="fill: #4682b4; opacity: 0.6"/>
   </g>
   <g id="patch_34">
    <path d="M 253.078134 382.82 
L 259.084958 382.82 
L 259.084958 382.82 
L 253.078134 382.82 
z
" clip-path="url(#peba9d56c07)" style="fill: #4682b4; opacity: 0.6"/>
   </g>
   <g id="patch_35">
    <path d="M 259.084958 382.82 
L 265.091782 382.82 
L 265.091782 337.253016 
L 259.084958 337.253016 
z
" clip-path="url(#peba9d56c07)" style="fill: #4682b4; opacity: 0.6"/>
   </g>
   <g id="patch_36">
    <path d="M 265.091782 382.82 
L 271.098606 382.82 
L 271.098606 314.469524 
L 265.091782 314.469524 
z
" clip-path="url(#peba9d56c07)" style="fill: #4682b4; opacity: 0.6"/>
   </g>
   <g id="patch_37">
    <path d="M 271.098606 382.82 
L 277.10543 382.82 
L 277.10543 337.253016 
L 271.098606 337.253016 
z
" clip-path="url(#peba9d56c07)" style="fill: #4682b4; opacity: 0.6"/>
   </g>
   <g id="patch_38">
    <path d="M 277.10543 382.82 
L 283.112254 382.82 
L 283.112254 360.036508 
L 277.10543 360.036508 
z
" clip-path="url(#peba9d56c07)" style="fill: #4682b4; opacity: 0.6"/>
   </g>
   <g id="patch_39">
    <path d="M 283.112254 382.82 
L 289.119078 382.82 
L 289.119078 382.82 
L 283.112254 382.82 
z
" clip-path="url(#peba9d56c07)" style="fill: #4682b4; opacity: 0.6"/>
   </g>
   <g id="patch_40">
    <path d="M 289.119078 382.82 
L 295.125902 382.82 
L 295.125902 382.82 
L 289.119078 382.82 
z
" clip-path="url(#peba9d56c07)" style="fill: #4682b4; opacity: 0.6"/>
   </g>
   <g id="patch_41">
    <path d="M 295.125902 382.82 
L 301.132726 382.82 
L 301.132726 337.253016 
L 295.125902 337.253016 
z
" clip-path="url(#peba9d56c07)" style="fill: #4682b4; opacity: 0.6"/>
   </g>
   <g id="patch_42">
    <path d="M 301.132726 382.82 
L 307.13955 382.82 
L 307.13955 382.82 
L 301.132726 382.82 
z
" clip-path="url(#peba9d56c07)" style="fill: #4682b4; opacity: 0.6"/>
   </g>
   <g id="patch_43">
    <path d="M 307.13955 382.82 
L 313.146374 382.82 
L 313.146374 360.036508 
L 307.13955 360.036508 
z
" clip-path="url(#peba9d56c07)" style="fill: #4682b4; opacity: 0.6"/>
   </g>
   <g id="patch_44">
    <path d="M 313.146374 382.82 
L 319.153198 382.82 
L 319.153198 360.036508 
L 313.146374 360.036508 
z
" clip-path="url(#peba9d56c07)" style="fill: #4682b4; opacity: 0.6"/>
   </g>
   <g id="patch_45">
    <path d="M 319.153198 382.82 
L 325.160022 382.82 
L 325.160022 337.253016 
L 319.153198 337.253016 
z
" clip-path="url(#peba9d56c07)" style="fill: #4682b4; opacity: 0.6"/>
   </g>
   <g id="patch_46">
    <path d="M 325.160022 382.82 
L 331.166846 382.82 
L 331.166846 360.036508 
L 325.160022 360.036508 
z
" clip-path="url(#peba9d56c07)" style="fill: #4682b4; opacity: 0.6"/>
   </g>
   <g id="patch_47">
    <path d="M 331.166846 382.82 
L 337.17367 382.82 
L 337.17367 382.82 
L 331.166846 382.82 
z
" clip-path="url(#peba9d56c07)" style="fill: #4682b4; opacity: 0.6"/>
   </g>
   <g id="patch_48">
    <path d="M 337.17367 382.82 
L 343.180494 382.82 
L 343.180494 382.82 
L 337.17367 382.82 
z
" clip-path="url(#peba9d56c07)" style="fill: #4682b4; opacity: 0.6"/>
   </g>
   <g id="patch_49">
    <path d="M 343.180494 382.82 
L 349.187318 382.82 
L 349.187318 382.82 
L 343.180494 382.82 
z
" clip-path="url(#peba9d56c07)" style="fill: #4682b4; opacity: 0.6"/>
   </g>
   <g id="patch_50">
    <path d="M 349.187318 382.82 
L 355.194142 382.82 
L 355.194142 360.036508 
L 349.187318 360.036508 
z
" clip-path="url(#peba9d56c07)" style="fill: #4682b4; opacity: 0.6"/>
   </g>
   <g id="patch_51">
    <path d="M 355.194142 382.82 
L 361.200966 382.82 
L 361.200966 382.82 
L 355.194142 382.82 
z
" clip-path="url(#peba9d56c07)" style="fill: #4682b4; opacity: 0.6"/>
   </g>
   <g id="patch_52">
    <path d="M 361.200966 382.82 
L 367.20779 382.82 
L 367.20779 360.036508 
L 361.200966 360.036508 
z
" clip-path="url(#peba9d56c07)" style="fill: #4682b4; opacity: 0.6"/>
   </g>
   <g id="matplotlib.axis_1">
    <g id="xtick_1">
     <g id="line2d_1">
      <path d="M 83.112908 382.82 
L 83.112908 23.98 
" clip-path="url(#peba9d56c07)" style="fill: none; stroke-dasharray: 2.96,1.28; stroke-dashoffset: 0; stroke: #b0b0b0; stroke-opacity: 0.4; stroke-width: 0.8"/>
     </g>
     <g id="line2d_2">
      <defs>
       <path id="ma85aa26bba" d="M 0 0 
L 0 3.5 
" style="stroke: #000000; stroke-width: 0.8"/>
      </defs>
      <g>
       <use xlink:href="#ma85aa26bba" x="83.112908" y="382.82" style="stroke: #000000; stroke-width: 0.8"/>
      </g>
     </g>
     <g id="text_1">
      <!-- 0.25 -->
      <g transform="translate(73.112908 396.695) scale(0.1 -0.1)">
       <defs>
        <path id="SimHei-30" d="M 225 2537 
Q 250 3200 412 3587 
Q 575 3975 875 4225 
Q 1175 4475 1612 4475 
Q 2050 4475 2375 4112 
Q 2700 3750 2800 3200 
Q 2900 2650 2862 1937 
Q 2825 1225 2612 775 
Q 2400 325 1975 150 
Q 1550 -25 1125 187 
Q 700 400 525 750 
Q 350 1100 275 1487 
Q 200 1875 225 2537 
z
M 750 2687 
Q 675 2000 800 1462 
Q 925 925 1212 700 
Q 1500 475 1800 612 
Q 2100 750 2237 1162 
Q 2375 1575 2375 2062 
Q 2375 2550 2337 2950 
Q 2300 3350 2112 3675 
Q 1925 4000 1612 4012 
Q 1300 4025 1062 3700 
Q 825 3375 750 2687 
z
" transform="scale(0.015625)"/>
        <path id="SimHei-2e" d="M 1075 125 
L 500 125 
L 500 675 
L 1075 675 
L 1075 125 
z
" transform="scale(0.015625)"/>
        <path id="SimHei-32" d="M 300 250 
Q 325 625 650 925 
Q 975 1225 1475 1862 
Q 1975 2500 2125 2850 
Q 2275 3200 2237 3450 
Q 2200 3700 2000 3862 
Q 1800 4025 1537 4000 
Q 1275 3975 1037 3800 
Q 800 3625 675 3275 
L 200 3350 
Q 400 3925 712 4187 
Q 1025 4450 1450 4475 
Q 1700 4500 1900 4462 
Q 2100 4425 2312 4287 
Q 2525 4150 2662 3875 
Q 2800 3600 2762 3212 
Q 2725 2825 2375 2287 
Q 2025 1750 1025 600 
L 2825 600 
L 2825 150 
L 300 150 
L 300 250 
z
" transform="scale(0.015625)"/>
        <path id="SimHei-35" d="M 550 1325 
Q 725 650 1150 575 
Q 1575 500 1837 662 
Q 2100 825 2212 1087 
Q 2325 1350 2312 1675 
Q 2300 2000 2137 2225 
Q 1975 2450 1725 2525 
Q 1475 2600 1162 2525 
Q 850 2450 650 2175 
L 225 2225 
Q 275 2375 700 4375 
L 2675 4375 
L 2675 3925 
L 1075 3925 
Q 950 3250 825 2850 
Q 1200 3025 1525 3012 
Q 1850 3000 2150 2862 
Q 2450 2725 2587 2487 
Q 2725 2250 2787 2012 
Q 2850 1775 2837 1500 
Q 2825 1225 2725 937 
Q 2625 650 2425 462 
Q 2225 275 1937 162 
Q 1650 50 1275 75 
Q 900 100 562 350 
Q 225 600 100 1200 
L 550 1325 
z
" transform="scale(0.015625)"/>
       </defs>
       <use xlink:href="#SimHei-30"/>
       <use xlink:href="#SimHei-2e" transform="translate(50 0)"/>
       <use xlink:href="#SimHei-32" transform="translate(100 0)"/>
       <use xlink:href="#SimHei-35" transform="translate(150 0)"/>
      </g>
     </g>
    </g>
    <g id="xtick_2">
     <g id="line2d_3">
      <path d="M 154.999264 382.82 
L 154.999264 23.98 
" clip-path="url(#peba9d56c07)" style="fill: none; stroke-dasharray: 2.96,1.28; stroke-dashoffset: 0; stroke: #b0b0b0; stroke-opacity: 0.4; stroke-width: 0.8"/>
     </g>
     <g id="line2d_4">
      <g>
       <use xlink:href="#ma85aa26bba" x="154.999264" y="382.82" style="stroke: #000000; stroke-width: 0.8"/>
      </g>
     </g>
     <g id="text_2">
      <!-- 0.50 -->
      <g transform="translate(144.999264 396.695) scale(0.1 -0.1)">
       <use xlink:href="#SimHei-30"/>
       <use xlink:href="#SimHei-2e" transform="translate(50 0)"/>
       <use xlink:href="#SimHei-35" transform="translate(100 0)"/>
       <use xlink:href="#SimHei-30" transform="translate(150 0)"/>
      </g>
     </g>
    </g>
    <g id="xtick_3">
     <g id="line2d_5">
      <path d="M 226.885621 382.82 
L 226.885621 23.98 
" clip-path="url(#peba9d56c07)" style="fill: none; stroke-dasharray: 2.96,1.28; stroke-dashoffset: 0; stroke: #b0b0b0; stroke-opacity: 0.4; stroke-width: 0.8"/>
     </g>
     <g id="line2d_6">
      <g>
       <use xlink:href="#ma85aa26bba" x="226.885621" y="382.82" style="stroke: #000000; stroke-width: 0.8"/>
      </g>
     </g>
     <g id="text_3">
      <!-- 0.75 -->
      <g transform="translate(216.885621 396.695) scale(0.1 -0.1)">
       <defs>
        <path id="SimHei-37" d="M 850 150 
Q 1300 2050 2425 3925 
L 275 3925 
L 275 4375 
L 2950 4375 
L 2950 3950 
Q 1775 2050 1400 150 
L 850 150 
z
" transform="scale(0.015625)"/>
       </defs>
       <use xlink:href="#SimHei-30"/>
       <use xlink:href="#SimHei-2e" transform="translate(50 0)"/>
       <use xlink:href="#SimHei-37" transform="translate(100 0)"/>
       <use xlink:href="#SimHei-35" transform="translate(150 0)"/>
      </g>
     </g>
    </g>
    <g id="xtick_4">
     <g id="line2d_7">
      <path d="M 298.771978 382.82 
L 298.771978 23.98 
" clip-path="url(#peba9d56c07)" style="fill: none; stroke-dasharray: 2.96,1.28; stroke-dashoffset: 0; stroke: #b0b0b0; stroke-opacity: 0.4; stroke-width: 0.8"/>
     </g>
     <g id="line2d_8">
      <g>
       <use xlink:href="#ma85aa26bba" x="298.771978" y="382.82" style="stroke: #000000; stroke-width: 0.8"/>
      </g>
     </g>
     <g id="text_4">
      <!-- 1.00 -->
      <g transform="translate(288.771978 396.695) scale(0.1 -0.1)">
       <defs>
        <path id="SimHei-31" d="M 1400 3600 
Q 1075 3275 575 2975 
L 575 3450 
Q 1200 3875 1600 4450 
L 1900 4450 
L 1900 150 
L 1400 150 
L 1400 3600 
z
" transform="scale(0.015625)"/>
       </defs>
       <use xlink:href="#SimHei-31"/>
       <use xlink:href="#SimHei-2e" transform="translate(50 0)"/>
       <use xlink:href="#SimHei-30" transform="translate(100 0)"/>
       <use xlink:href="#SimHei-30" transform="translate(150 0)"/>
      </g>
     </g>
    </g>
    <g id="xtick_5">
     <g id="line2d_9">
      <path d="M 370.658335 382.82 
L 370.658335 23.98 
" clip-path="url(#peba9d56c07)" style="fill: none; stroke-dasharray: 2.96,1.28; stroke-dashoffset: 0; stroke: #b0b0b0; stroke-opacity: 0.4; stroke-width: 0.8"/>
     </g>
     <g id="line2d_10">
      <g>
       <use xlink:href="#ma85aa26bba" x="370.658335" y="382.82" style="stroke: #000000; stroke-width: 0.8"/>
      </g>
     </g>
     <g id="text_5">
      <!-- 1.25 -->
      <g transform="translate(360.658335 396.695) scale(0.1 -0.1)">
       <use xlink:href="#SimHei-31"/>
       <use xlink:href="#SimHei-2e" transform="translate(50 0)"/>
       <use xlink:href="#SimHei-32" transform="translate(100 0)"/>
       <use xlink:href="#SimHei-35" transform="translate(150 0)"/>
      </g>
     </g>
    </g>
    <g id="xtick_6">
     <g id="line2d_11">
      <path d="M 442.544692 382.82 
L 442.544692 23.98 
" clip-path="url(#peba9d56c07)" style="fill: none; stroke-dasharray: 2.96,1.28; stroke-dashoffset: 0; stroke: #b0b0b0; stroke-opacity: 0.4; stroke-width: 0.8"/>
     </g>
     <g id="line2d_12">
      <g>
       <use xlink:href="#ma85aa26bba" x="442.544692" y="382.82" style="stroke: #000000; stroke-width: 0.8"/>
      </g>
     </g>
     <g id="text_6">
      <!-- 1.50 -->
      <g transform="translate(432.544692 396.695) scale(0.1 -0.1)">
       <use xlink:href="#SimHei-31"/>
       <use xlink:href="#SimHei-2e" transform="translate(50 0)"/>
       <use xlink:href="#SimHei-35" transform="translate(100 0)"/>
       <use xlink:href="#SimHei-30" transform="translate(150 0)"/>
      </g>
     </g>
    </g>
    <g id="xtick_7">
     <g id="line2d_13">
      <path d="M 514.431048 382.82 
L 514.431048 23.98 
" clip-path="url(#peba9d56c07)" style="fill: none; stroke-dasharray: 2.96,1.28; stroke-dashoffset: 0; stroke: #b0b0b0; stroke-opacity: 0.4; stroke-width: 0.8"/>
     </g>
     <g id="line2d_14">
      <g>
       <use xlink:href="#ma85aa26bba" x="514.431048" y="382.82" style="stroke: #000000; stroke-width: 0.8"/>
      </g>
     </g>
     <g id="text_7">
      <!-- 1.75 -->
      <g transform="translate(504.431048 396.695) scale(0.1 -0.1)">
       <use xlink:href="#SimHei-31"/>
       <use xlink:href="#SimHei-2e" transform="translate(50 0)"/>
       <use xlink:href="#SimHei-37" transform="translate(100 0)"/>
       <use xlink:href="#SimHei-35" transform="translate(150 0)"/>
      </g>
     </g>
    </g>
    <g id="text_8">
     <!-- Degradation Increment $\Delta y$ -->
     <g transform="translate(232.3525 410.705) scale(0.12 -0.12)">
      <defs>
       <path id="SimHei-44" d="M 2925 2250 
Q 2925 1100 2437 612 
Q 1950 125 1125 125 
L 275 125 
L 275 4400 
L 1125 4400 
Q 2050 4400 2487 3900 
Q 2925 3400 2925 2250 
z
M 2325 2250 
Q 2325 3175 2025 3550 
Q 1725 3925 1125 3925 
L 850 3925 
L 850 600 
L 1125 600 
Q 1725 600 2025 962 
Q 2325 1325 2325 2250 
z
" transform="scale(0.015625)"/>
       <path id="SimHei-65" d="M 2850 1075 
Q 2800 625 2450 350 
Q 2100 75 1625 75 
Q 1025 75 637 462 
Q 250 850 250 1525 
Q 250 2200 637 2587 
Q 1025 2975 1625 2975 
Q 2150 2975 2487 2637 
Q 2825 2300 2825 1525 
L 800 1525 
Q 800 975 1037 750 
Q 1275 525 1625 525 
Q 1900 525 2075 662 
Q 2250 800 2300 1075 
L 2850 1075 
z
M 2250 1925 
Q 2200 2275 2025 2412 
Q 1850 2550 1575 2550 
Q 1325 2550 1125 2412 
Q 925 2275 825 1925 
L 2250 1925 
z
" transform="scale(0.015625)"/>
       <path id="SimHei-67" d="M 2975 2500 
Q 2800 2550 2637 2562 
Q 2475 2575 2300 2525 
Q 2375 2450 2425 2337 
Q 2475 2225 2475 2000 
Q 2475 1575 2187 1300 
Q 1900 1025 1475 1025 
Q 1375 1025 1212 1062 
Q 1050 1100 950 1150 
Q 875 1100 850 1050 
Q 825 1000 825 925 
Q 825 800 1000 737 
Q 1175 675 1625 675 
Q 2350 675 2612 475 
Q 2875 275 2875 -25 
Q 2875 -425 2487 -612 
Q 2100 -800 1575 -800 
Q 900 -800 575 -625 
Q 250 -450 250 -150 
Q 250 0 375 150 
Q 500 300 700 400 
Q 550 475 462 587 
Q 375 700 375 875 
Q 375 1025 487 1137 
Q 600 1250 750 1325 
Q 625 1450 550 1625 
Q 475 1800 475 2000 
Q 475 2425 762 2700 
Q 1050 2975 1475 2975 
Q 1700 2975 1862 2912 
Q 2025 2850 2150 2725 
Q 2350 2875 2550 2937 
Q 2750 3000 2975 2975 
L 2975 2500 
z
M 1975 2000 
Q 1975 2250 1850 2400 
Q 1725 2550 1475 2550 
Q 1225 2550 1100 2400 
Q 975 2250 975 2000 
Q 975 1750 1100 1600 
Q 1225 1450 1475 1450 
Q 1725 1450 1850 1600 
Q 1975 1750 1975 2000 
z
M 2400 -75 
Q 2400 25 2287 125 
Q 2175 225 1725 225 
Q 1625 225 1450 237 
Q 1275 250 1050 275 
Q 850 200 775 100 
Q 700 0 700 -100 
Q 700 -250 900 -350 
Q 1100 -450 1600 -450 
Q 2025 -450 2212 -337 
Q 2400 -225 2400 -75 
z
" transform="scale(0.015625)"/>
       <path id="SimHei-72" d="M 2500 2425 
Q 2025 2500 1700 2287 
Q 1375 2075 1150 1550 
L 1150 125 
L 650 125 
L 650 2925 
L 1150 2925 
L 1150 2200 
Q 1375 2600 1712 2787 
Q 2050 2975 2500 2975 
L 2500 2425 
z
" transform="scale(0.015625)"/>
       <path id="SimHei-61" d="M 2875 125 
L 2275 125 
Q 2225 175 2200 262 
Q 2175 350 2175 475 
Q 2000 275 1750 175 
Q 1500 75 1225 75 
Q 825 75 550 275 
Q 275 475 275 850 
Q 275 1225 525 1450 
Q 775 1675 1300 1750 
Q 1650 1800 1912 1875 
Q 2175 1950 2175 2075 
Q 2175 2225 2062 2375 
Q 1950 2525 1575 2525 
Q 1275 2525 1137 2412 
Q 1000 2300 950 2100 
L 400 2100 
Q 450 2500 762 2737 
Q 1075 2975 1575 2975 
Q 2125 2975 2400 2725 
Q 2675 2475 2675 2025 
L 2675 650 
Q 2675 500 2725 375 
Q 2775 250 2875 125 
z
M 2175 1050 
L 2175 1550 
Q 2025 1500 1887 1462 
Q 1750 1425 1425 1375 
Q 1050 1325 937 1200 
Q 825 1075 825 900 
Q 825 750 937 637 
Q 1050 525 1275 525 
Q 1500 525 1762 650 
Q 2025 775 2175 1050 
z
" transform="scale(0.015625)"/>
       <path id="SimHei-64" d="M 2750 125 
L 2250 125 
L 2250 500 
Q 2100 275 1900 175 
Q 1700 75 1425 75 
Q 925 75 575 437 
Q 225 800 225 1525 
Q 225 2250 575 2625 
Q 925 3000 1425 3000 
Q 1700 3000 1900 2887 
Q 2100 2775 2250 2550 
L 2250 4400 
L 2750 4400 
L 2750 125 
z
M 2250 1525 
Q 2250 2000 2037 2275 
Q 1825 2550 1525 2550 
Q 1150 2550 962 2275 
Q 775 2000 775 1525 
Q 775 1050 962 787 
Q 1150 525 1525 525 
Q 1825 525 2037 787 
Q 2250 1050 2250 1525 
z
" transform="scale(0.015625)"/>
       <path id="SimHei-74" d="M 2750 200 
Q 2625 150 2462 112 
Q 2300 75 2025 75 
Q 1575 75 1300 325 
Q 1025 575 1025 1025 
L 1025 2525 
L 175 2525 
L 175 2925 
L 1025 2925 
L 1025 3900 
L 1525 3900 
L 1525 2925 
L 2550 2925 
L 2550 2525 
L 1525 2525 
L 1525 1000 
Q 1525 800 1625 662 
Q 1725 525 2000 525 
Q 2275 525 2450 575 
Q 2625 625 2750 700 
L 2750 200 
z
" transform="scale(0.015625)"/>
       <path id="SimHei-69" d="M 1800 3725 
L 1300 3725 
L 1300 4375 
L 1800 4375 
L 1800 3725 
z
M 1800 125 
L 1300 125 
L 1300 2925 
L 1800 2925 
L 1800 125 
z
" transform="scale(0.015625)"/>
       <path id="SimHei-6f" d="M 2925 1525 
Q 2925 875 2525 475 
Q 2125 75 1575 75 
Q 1025 75 625 475 
Q 225 875 225 1525 
Q 225 2175 625 2575 
Q 1025 2975 1575 2975 
Q 2125 2975 2525 2575 
Q 2925 2175 2925 1525 
z
M 2375 1525 
Q 2375 2025 2125 2275 
Q 1875 2525 1575 2525 
Q 1275 2525 1025 2275 
Q 775 2025 775 1525 
Q 775 1025 1025 775 
Q 1275 525 1575 525 
Q 1875 525 2125 775 
Q 2375 1025 2375 1525 
z
" transform="scale(0.015625)"/>
       <path id="SimHei-6e" d="M 2800 125 
L 2300 125 
L 2300 1925 
Q 2300 2225 2150 2400 
Q 2000 2575 1750 2575 
Q 1425 2575 1137 2237 
Q 850 1900 850 1400 
L 850 125 
L 350 125 
L 350 2925 
L 850 2925 
L 850 2400 
Q 1050 2675 1287 2825 
Q 1525 2975 1900 2975 
Q 2350 2975 2575 2725 
Q 2800 2475 2800 2100 
L 2800 125 
z
" transform="scale(0.015625)"/>
       <path id="SimHei-20" transform="scale(0.015625)"/>
       <path id="SimHei-49" d="M 1850 125 
L 1275 125 
L 1275 4400 
L 1850 4400 
L 1850 125 
z
" transform="scale(0.015625)"/>
       <path id="SimHei-63" d="M 2850 1250 
Q 2850 725 2487 400 
Q 2125 75 1575 75 
Q 1025 75 625 462 
Q 225 850 225 1525 
Q 225 2200 625 2587 
Q 1025 2975 1575 2975 
Q 2125 2975 2450 2687 
Q 2775 2400 2775 2000 
L 2225 2000 
Q 2200 2300 2012 2412 
Q 1825 2525 1575 2525 
Q 1275 2525 1025 2287 
Q 775 2050 775 1525 
Q 775 1000 1025 762 
Q 1275 525 1575 525 
Q 1900 525 2100 700 
Q 2300 875 2300 1250 
L 2850 1250 
z
" transform="scale(0.015625)"/>
       <path id="SimHei-6d" d="M 3050 125 
L 2550 125 
L 2550 2150 
Q 2550 2300 2500 2400 
Q 2450 2500 2300 2500 
Q 2125 2500 1975 2312 
Q 1825 2125 1825 1825 
L 1825 125 
L 1325 125 
L 1325 2150 
Q 1325 2300 1275 2400 
Q 1225 2500 1075 2500 
Q 900 2500 750 2312 
Q 600 2125 600 1825 
L 600 125 
L 100 125 
L 100 2925 
L 600 2925 
L 600 2550 
Q 725 2750 900 2862 
Q 1075 2975 1275 2975 
Q 1475 2975 1612 2862 
Q 1750 2750 1800 2550 
Q 1925 2750 2087 2862 
Q 2250 2975 2450 2975 
Q 2750 2975 2900 2812 
Q 3050 2650 3050 2350 
L 3050 125 
z
" transform="scale(0.015625)"/>
       <path id="DejaVuSans-394" d="M 2188 4044 
L 906 525 
L 3472 525 
L 2188 4044 
z
M 50 0 
L 1831 4666 
L 2547 4666 
L 4325 0 
L 50 0 
z
" transform="scale(0.015625)"/>
       <path id="DejaVuSans-Oblique-79" d="M 1588 -325 
Q 1188 -997 936 -1164 
Q 684 -1331 294 -1331 
L -159 -1331 
L -63 -850 
L 269 -850 
Q 509 -850 678 -719 
Q 847 -588 1056 -206 
L 1234 128 
L 459 3500 
L 1069 3500 
L 1650 819 
L 3256 3500 
L 3859 3500 
L 1588 -325 
z
" transform="scale(0.015625)"/>
      </defs>
      <use xlink:href="#SimHei-44" transform="translate(0 0.09375)"/>
      <use xlink:href="#SimHei-65" transform="translate(50 0.09375)"/>
      <use xlink:href="#SimHei-67" transform="translate(100 0.09375)"/>
      <use xlink:href="#SimHei-72" transform="translate(150 0.09375)"/>
      <use xlink:href="#SimHei-61" transform="translate(200 0.09375)"/>
      <use xlink:href="#SimHei-64" transform="translate(250 0.09375)"/>
      <use xlink:href="#SimHei-61" transform="translate(300 0.09375)"/>
      <use xlink:href="#SimHei-74" transform="translate(350 0.09375)"/>
      <use xlink:href="#SimHei-69" transform="translate(400 0.09375)"/>
      <use xlink:href="#SimHei-6f" transform="translate(450 0.09375)"/>
      <use xlink:href="#SimHei-6e" transform="translate(500 0.09375)"/>
      <use xlink:href="#SimHei-20" transform="translate(550 0.09375)"/>
      <use xlink:href="#SimHei-49" transform="translate(600 0.09375)"/>
      <use xlink:href="#SimHei-6e" transform="translate(650 0.09375)"/>
      <use xlink:href="#SimHei-63" transform="translate(700 0.09375)"/>
      <use xlink:href="#SimHei-72" transform="translate(750 0.09375)"/>
      <use xlink:href="#SimHei-65" transform="translate(800 0.09375)"/>
      <use xlink:href="#SimHei-6d" transform="translate(850 0.09375)"/>
      <use xlink:href="#SimHei-65" transform="translate(900 0.09375)"/>
      <use xlink:href="#SimHei-6e" transform="translate(950 0.09375)"/>
      <use xlink:href="#SimHei-74" transform="translate(1000 0.09375)"/>
      <use xlink:href="#SimHei-20" transform="translate(1050 0.09375)"/>
      <use xlink:href="#DejaVuSans-394" transform="translate(1100 0.09375)"/>
      <use xlink:href="#DejaVuSans-Oblique-79" transform="translate(1168.408203 0.09375)"/>
     </g>
    </g>
   </g>
   <g id="matplotlib.axis_2">
    <g id="ytick_1">
     <g id="line2d_15">
      <path d="M 42.95 382.82 
L 569.115 382.82 
" clip-path="url(#peba9d56c07)" style="fill: none; stroke-dasharray: 2.96,1.28; stroke-dashoffset: 0; stroke: #b0b0b0; stroke-opacity: 0.4; stroke-width: 0.8"/>
     </g>
     <g id="line2d_16">
      <defs>
       <path id="m3209a4013d" d="M 0 0 
L -3.5 0 
" style="stroke: #000000; stroke-width: 0.8"/>
      </defs>
      <g>
       <use xlink:href="#m3209a4013d" x="42.95" y="382.82" style="stroke: #000000; stroke-width: 0.8"/>
      </g>
     </g>
     <g id="text_9">
      <!-- 0.0 -->
      <g transform="translate(20.95 386.2575) scale(0.1 -0.1)">
       <use xlink:href="#SimHei-30"/>
       <use xlink:href="#SimHei-2e" transform="translate(50 0)"/>
       <use xlink:href="#SimHei-30" transform="translate(100 0)"/>
      </g>
     </g>
    </g>
    <g id="ytick_2">
     <g id="line2d_17">
      <path d="M 42.95 325.706342 
L 569.115 325.706342 
" clip-path="url(#peba9d56c07)" style="fill: none; stroke-dasharray: 2.96,1.28; stroke-dashoffset: 0; stroke: #b0b0b0; stroke-opacity: 0.4; stroke-width: 0.8"/>
     </g>
     <g id="line2d_18">
      <g>
       <use xlink:href="#m3209a4013d" x="42.95" y="325.706342" style="stroke: #000000; stroke-width: 0.8"/>
      </g>
     </g>
     <g id="text_10">
      <!-- 0.5 -->
      <g transform="translate(20.95 329.143842) scale(0.1 -0.1)">
       <use xlink:href="#SimHei-30"/>
       <use xlink:href="#SimHei-2e" transform="translate(50 0)"/>
       <use xlink:href="#SimHei-35" transform="translate(100 0)"/>
      </g>
     </g>
    </g>
    <g id="ytick_3">
     <g id="line2d_19">
      <path d="M 42.95 268.592684 
L 569.115 268.592684 
" clip-path="url(#peba9d56c07)" style="fill: none; stroke-dasharray: 2.96,1.28; stroke-dashoffset: 0; stroke: #b0b0b0; stroke-opacity: 0.4; stroke-width: 0.8"/>
     </g>
     <g id="line2d_20">
      <g>
       <use xlink:href="#m3209a4013d" x="42.95" y="268.592684" style="stroke: #000000; stroke-width: 0.8"/>
      </g>
     </g>
     <g id="text_11">
      <!-- 1.0 -->
      <g transform="translate(20.95 272.030184) scale(0.1 -0.1)">
       <use xlink:href="#SimHei-31"/>
       <use xlink:href="#SimHei-2e" transform="translate(50 0)"/>
       <use xlink:href="#SimHei-30" transform="translate(100 0)"/>
      </g>
     </g>
    </g>
    <g id="ytick_4">
     <g id="line2d_21">
      <path d="M 42.95 211.479026 
L 569.115 211.479026 
" clip-path="url(#peba9d56c07)" style="fill: none; stroke-dasharray: 2.96,1.28; stroke-dashoffset: 0; stroke: #b0b0b0; stroke-opacity: 0.4; stroke-width: 0.8"/>
     </g>
     <g id="line2d_22">
      <g>
       <use xlink:href="#m3209a4013d" x="42.95" y="211.479026" style="stroke: #000000; stroke-width: 0.8"/>
      </g>
     </g>
     <g id="text_12">
      <!-- 1.5 -->
      <g transform="translate(20.95 214.916526) scale(0.1 -0.1)">
       <use xlink:href="#SimHei-31"/>
       <use xlink:href="#SimHei-2e" transform="translate(50 0)"/>
       <use xlink:href="#SimHei-35" transform="translate(100 0)"/>
      </g>
     </g>
    </g>
    <g id="ytick_5">
     <g id="line2d_23">
      <path d="M 42.95 154.365368 
L 569.115 154.365368 
" clip-path="url(#peba9d56c07)" style="fill: none; stroke-dasharray: 2.96,1.28; stroke-dashoffset: 0; stroke: #b0b0b0; stroke-opacity: 0.4; stroke-width: 0.8"/>
     </g>
     <g id="line2d_24">
      <g>
       <use xlink:href="#m3209a4013d" x="42.95" y="154.365368" style="stroke: #000000; stroke-width: 0.8"/>
      </g>
     </g>
     <g id="text_13">
      <!-- 2.0 -->
      <g transform="translate(20.95 157.802868) scale(0.1 -0.1)">
       <use xlink:href="#SimHei-32"/>
       <use xlink:href="#SimHei-2e" transform="translate(50 0)"/>
       <use xlink:href="#SimHei-30" transform="translate(100 0)"/>
      </g>
     </g>
    </g>
    <g id="ytick_6">
     <g id="line2d_25">
      <path d="M 42.95 97.25171 
L 569.115 97.25171 
" clip-path="url(#peba9d56c07)" style="fill: none; stroke-dasharray: 2.96,1.28; stroke-dashoffset: 0; stroke: #b0b0b0; stroke-opacity: 0.4; stroke-width: 0.8"/>
     </g>
     <g id="line2d_26">
      <g>
       <use xlink:href="#m3209a4013d" x="42.95" y="97.25171" style="stroke: #000000; stroke-width: 0.8"/>
      </g>
     </g>
     <g id="text_14">
      <!-- 2.5 -->
      <g transform="translate(20.95 100.68921) scale(0.1 -0.1)">
       <use xlink:href="#SimHei-32"/>
       <use xlink:href="#SimHei-2e" transform="translate(50 0)"/>
       <use xlink:href="#SimHei-35" transform="translate(100 0)"/>
      </g>
     </g>
    </g>
    <g id="ytick_7">
     <g id="line2d_27">
      <path d="M 42.95 40.138053 
L 569.115 40.138053 
" clip-path="url(#peba9d56c07)" style="fill: none; stroke-dasharray: 2.96,1.28; stroke-dashoffset: 0; stroke: #b0b0b0; stroke-opacity: 0.4; stroke-width: 0.8"/>
     </g>
     <g id="line2d_28">
      <g>
       <use xlink:href="#m3209a4013d" x="42.95" y="40.138053" style="stroke: #000000; stroke-width: 0.8"/>
      </g>
     </g>
     <g id="text_15">
      <!-- 3.0 -->
      <g transform="translate(20.95 43.575553) scale(0.1 -0.1)">
       <defs>
        <path id="SimHei-33" d="M 250 1225 
L 700 1300 
Q 800 975 1025 762 
Q 1250 550 1587 562 
Q 1925 575 2125 837 
Q 2325 1100 2300 1437 
Q 2275 1775 2037 1962 
Q 1800 2150 1275 2225 
L 1275 2550 
Q 1800 2600 2037 2825 
Q 2275 3050 2250 3412 
Q 2225 3775 1925 3937 
Q 1625 4100 1287 3975 
Q 950 3850 750 3275 
L 300 3350 
Q 450 3800 712 4100 
Q 975 4400 1425 4450 
Q 1875 4500 2212 4337 
Q 2550 4175 2687 3837 
Q 2825 3500 2725 3100 
Q 2625 2700 2150 2400 
Q 2500 2250 2687 1950 
Q 2875 1650 2812 1162 
Q 2750 675 2375 375 
Q 2000 75 1525 87 
Q 1050 100 700 387 
Q 350 675 250 1225 
z
" transform="scale(0.015625)"/>
       </defs>
       <use xlink:href="#SimHei-33"/>
       <use xlink:href="#SimHei-2e" transform="translate(50 0)"/>
       <use xlink:href="#SimHei-30" transform="translate(100 0)"/>
      </g>
     </g>
    </g>
    <g id="text_16">
     <!-- Probability Density -->
     <g transform="translate(15.45 260.4) rotate(-90) scale(0.12 -0.12)">
      <defs>
       <path id="SimHei-50" d="M 2950 3100 
Q 2950 2500 2600 2150 
Q 2250 1800 1625 1800 
L 900 1800 
L 900 125 
L 325 125 
L 325 4400 
L 1625 4400 
Q 2250 4400 2600 4050 
Q 2950 3700 2950 3100 
z
M 2375 3100 
Q 2375 3575 2150 3750 
Q 1925 3925 1475 3925 
L 900 3925 
L 900 2275 
L 1475 2275 
Q 1925 2275 2150 2450 
Q 2375 2625 2375 3100 
z
" transform="scale(0.015625)"/>
       <path id="SimHei-62" d="M 2825 1525 
Q 2825 800 2475 437 
Q 2125 75 1625 75 
Q 1350 75 1150 175 
Q 950 275 800 500 
L 800 125 
L 300 125 
L 300 4400 
L 800 4400 
L 800 2550 
Q 950 2775 1150 2887 
Q 1350 3000 1625 3000 
Q 2125 3000 2475 2625 
Q 2825 2250 2825 1525 
z
M 2275 1525 
Q 2275 2000 2087 2275 
Q 1900 2550 1525 2550 
Q 1225 2550 1012 2275 
Q 800 2000 800 1525 
Q 800 1050 1012 787 
Q 1225 525 1525 525 
Q 1900 525 2087 787 
Q 2275 1050 2275 1525 
z
" transform="scale(0.015625)"/>
       <path id="SimHei-6c" d="M 1825 125 
L 1325 125 
L 1325 4400 
L 1825 4400 
L 1825 125 
z
" transform="scale(0.015625)"/>
       <path id="SimHei-79" d="M 2900 2925 
L 1750 -100 
Q 1650 -450 1450 -625 
Q 1250 -800 950 -800 
Q 825 -800 712 -787 
Q 600 -775 500 -725 
L 500 -225 
Q 600 -275 700 -300 
Q 800 -325 875 -325 
Q 1075 -325 1150 -262 
Q 1225 -200 1300 25 
L 200 2925 
L 750 2925 
L 1550 725 
L 1575 725 
L 2350 2925 
L 2900 2925 
z
" transform="scale(0.015625)"/>
       <path id="SimHei-73" d="M 2750 900 
Q 2750 500 2437 287 
Q 2125 75 1650 75 
Q 1050 75 725 312 
Q 400 550 400 1000 
L 900 1000 
Q 900 700 1112 600 
Q 1325 500 1625 500 
Q 1925 500 2075 612 
Q 2225 725 2225 900 
Q 2225 1025 2100 1150 
Q 1975 1275 1475 1350 
Q 900 1425 687 1637 
Q 475 1850 475 2200 
Q 475 2500 762 2737 
Q 1050 2975 1600 2975 
Q 2100 2975 2387 2750 
Q 2675 2525 2675 2150 
L 2175 2150 
Q 2175 2375 2012 2462 
Q 1850 2550 1600 2550 
Q 1275 2550 1137 2437 
Q 1000 2325 1000 2175 
Q 1000 2000 1125 1900 
Q 1250 1800 1650 1750 
Q 2300 1650 2525 1437 
Q 2750 1225 2750 900 
z
" transform="scale(0.015625)"/>
      </defs>
      <use xlink:href="#SimHei-50"/>
      <use xlink:href="#SimHei-72" transform="translate(50 0)"/>
      <use xlink:href="#SimHei-6f" transform="translate(100 0)"/>
      <use xlink:href="#SimHei-62" transform="translate(150 0)"/>
      <use xlink:href="#SimHei-61" transform="translate(200 0)"/>
      <use xlink:href="#SimHei-62" transform="translate(250 0)"/>
      <use xlink:href="#SimHei-69" transform="translate(300 0)"/>
      <use xlink:href="#SimHei-6c" transform="translate(350 0)"/>
      <use xlink:href="#SimHei-69" transform="translate(400 0)"/>
      <use xlink:href="#SimHei-74" transform="translate(450 0)"/>
      <use xlink:href="#SimHei-79" transform="translate(500 0)"/>
      <use xlink:href="#SimHei-20" transform="translate(550 0)"/>
      <use xlink:href="#SimHei-44" transform="translate(600 0)"/>
      <use xlink:href="#SimHei-65" transform="translate(650 0)"/>
      <use xlink:href="#SimHei-6e" transform="translate(700 0)"/>
      <use xlink:href="#SimHei-73" transform="translate(750 0)"/>
      <use xlink:href="#SimHei-69" transform="translate(800 0)"/>
      <use xlink:href="#SimHei-74" transform="translate(850 0)"/>
      <use xlink:href="#SimHei-79" transform="translate(900 0)"/>
     </g>
    </g>
   </g>
   <g id="line2d_29">
    <path d="M 66.866591 339.352858 
L 69.742333 329.318013 
L 72.618076 318.256841 
L 75.493818 306.288286 
L 79.328141 289.174167 
L 84.121045 266.496295 
L 95.624015 211.198177 
L 99.458338 193.996735 
L 102.33408 181.890157 
L 105.209823 170.605939 
L 108.085565 160.249601 
L 110.961308 150.905995 
L 112.878469 145.27212 
L 114.795631 140.131389 
L 116.712792 135.494046 
L 118.629954 131.36667 
L 120.547116 127.752364 
L 122.464277 124.650966 
L 124.381439 122.059272 
L 126.2986 119.971271 
L 128.215762 118.378394 
L 130.132924 117.269756 
L 132.050085 116.632406 
L 133.967247 116.451571 
L 135.884408 116.710897 
L 137.80157 117.39268 
L 139.718732 118.478089 
L 141.635893 119.947376 
L 143.553055 121.780083 
L 145.470216 123.955223 
L 147.387378 126.451462 
L 149.30454 129.247274 
L 152.180282 133.955543 
L 155.056024 139.217096 
L 157.931767 144.96104 
L 161.76609 153.251514 
L 165.600413 162.122329 
L 170.393317 173.807579 
L 177.103383 190.829702 
L 191.482095 227.496883 
L 197.233579 241.519637 
L 202.026483 252.72166 
L 206.819387 263.41092 
L 211.612291 273.540109 
L 216.405195 283.079221 
L 220.239519 290.274877 
L 224.073842 297.080587 
L 227.908165 303.498336 
L 231.742488 309.533606 
L 235.576811 315.194747 
L 239.411135 320.492419 
L 243.245458 325.439087 
L 247.079781 330.048582 
L 250.914104 334.335727 
L 254.748427 338.315996 
L 258.582751 342.005244 
L 262.417074 345.419466 
L 266.251397 348.5746 
L 270.08572 351.486368 
L 273.920043 354.170143 
L 278.712947 357.226933 
L 283.505851 359.978731 
L 288.298755 362.452043 
L 293.091659 364.671806 
L 297.884563 366.661331 
L 302.677467 368.442286 
L 308.428952 370.332229 
L 314.180437 371.982241 
L 319.931922 373.420821 
L 326.641987 374.86587 
L 333.352053 376.093687 
L 341.020699 377.270831 
L 349.647926 378.354326 
L 359.233734 379.314699 
L 369.778123 380.136203 
L 382.239673 380.863681 
L 396.618385 381.462068 
L 413.87284 381.943564 
L 435.920198 382.318356 
L 465.636203 382.582429 
L 511.648081 382.744195 
L 545.198409 382.786573 
L 545.198409 382.786573 
" clip-path="url(#peba9d56c07)" style="fill: none; stroke: #ff0000; stroke-width: 2.5; stroke-linecap: square"/>
   </g>
   <g id="patch_53">
    <path d="M 42.95 382.82 
L 42.95 23.98 
" style="fill: none; stroke: #000000; stroke-width: 0.8; stroke-linejoin: miter; stroke-linecap: square"/>
   </g>
   <g id="patch_54">
    <path d="M 569.115 382.82 
L 569.115 23.98 
" style="fill: none; stroke: #000000; stroke-width: 0.8; stroke-linejoin: miter; stroke-linecap: square"/>
   </g>
   <g id="patch_55">
    <path d="M 42.95 382.82 
L 569.115 382.82 
" style="fill: none; stroke: #000000; stroke-width: 0.8; stroke-linejoin: miter; stroke-linecap: square"/>
   </g>
   <g id="patch_56">
    <path d="M 42.95 23.98 
L 569.115 23.98 
" style="fill: none; stroke: #000000; stroke-width: 0.8; stroke-linejoin: miter; stroke-linecap: square"/>
   </g>
   <g id="text_17">
    <!-- Degradation Increments Marginal PDF -->
    <g transform="translate(183.5325 17.98) scale(0.14 -0.14)">
     <defs>
      <path id="SimHei-4d" d="M 2925 125 
L 2425 125 
L 2425 3175 
L 2375 3175 
L 1775 125 
L 1375 125 
L 775 3175 
L 725 3175 
L 725 125 
L 225 125 
L 225 4400 
L 1000 4400 
L 1550 1575 
L 1600 1575 
L 2150 4400 
L 2925 4400 
L 2925 125 
z
" transform="scale(0.015625)"/>
      <path id="SimHei-46" d="M 2925 3925 
L 875 3925 
L 875 2525 
L 2425 2525 
L 2425 2050 
L 875 2050 
L 875 125 
L 300 125 
L 300 4400 
L 2925 4400 
L 2925 3925 
z
" transform="scale(0.015625)"/>
     </defs>
     <use xlink:href="#SimHei-44"/>
     <use xlink:href="#SimHei-65" transform="translate(50 0)"/>
     <use xlink:href="#SimHei-67" transform="translate(100 0)"/>
     <use xlink:href="#SimHei-72" transform="translate(150 0)"/>
     <use xlink:href="#SimHei-61" transform="translate(200 0)"/>
     <use xlink:href="#SimHei-64" transform="translate(250 0)"/>
     <use xlink:href="#SimHei-61" transform="translate(300 0)"/>
     <use xlink:href="#SimHei-74" transform="translate(350 0)"/>
     <use xlink:href="#SimHei-69" transform="translate(400 0)"/>
     <use xlink:href="#SimHei-6f" transform="translate(450 0)"/>
     <use xlink:href="#SimHei-6e" transform="translate(500 0)"/>
     <use xlink:href="#SimHei-20" transform="translate(550 0)"/>
     <use xlink:href="#SimHei-49" transform="translate(600 0)"/>
     <use xlink:href="#SimHei-6e" transform="translate(650 0)"/>
     <use xlink:href="#SimHei-63" transform="translate(700 0)"/>
     <use xlink:href="#SimHei-72" transform="translate(750 0)"/>
     <use xlink:href="#SimHei-65" transform="translate(800 0)"/>
     <use xlink:href="#SimHei-6d" transform="translate(850 0)"/>
     <use xlink:href="#SimHei-65" transform="translate(900 0)"/>
     <use xlink:href="#SimHei-6e" transform="translate(950 0)"/>
     <use xlink:href="#SimHei-74" transform="translate(1000 0)"/>
     <use xlink:href="#SimHei-73" transform="translate(1050 0)"/>
     <use xlink:href="#SimHei-20" transform="translate(1100 0)"/>
     <use xlink:href="#SimHei-4d" transform="translate(1150 0)"/>
     <use xlink:href="#SimHei-61" transform="translate(1200 0)"/>
     <use xlink:href="#SimHei-72" transform="translate(1250 0)"/>
     <use xlink:href="#SimHei-67" transform="translate(1300 0)"/>
     <use xlink:href="#SimHei-69" transform="translate(1350 0)"/>
     <use xlink:href="#SimHei-6e" transform="translate(1400 0)"/>
     <use xlink:href="#SimHei-61" transform="translate(1450 0)"/>
     <use xlink:href="#SimHei-6c" transform="translate(1500 0)"/>
     <use xlink:href="#SimHei-20" transform="translate(1550 0)"/>
     <use xlink:href="#SimHei-50" transform="translate(1600 0)"/>
     <use xlink:href="#SimHei-44" transform="translate(1650 0)"/>
     <use xlink:href="#SimHei-46" transform="translate(1700 0)"/>
    </g>
   </g>
   <g id="legend_1">
    <g id="patch_57">
     <path d="M 388.715 62.82375 
L 561.415 62.82375 
Q 563.615 62.82375 563.615 60.62375 
L 563.615 31.68 
Q 563.615 29.48 561.415 29.48 
L 388.715 29.48 
Q 386.515 29.48 386.515 31.68 
L 386.515 60.62375 
Q 386.515 62.82375 388.715 62.82375 
z
" style="fill: #ffffff; opacity: 0.8; stroke: #cccccc; stroke-linejoin: miter"/>
    </g>
    <g id="patch_58">
     <path d="M 390.915 41.58 
L 412.915 41.58 
L 412.915 33.88 
L 390.915 33.88 
z
" style="fill: #4682b4; opacity: 0.6"/>
    </g>
    <g id="text_18">
     <!-- Empirical Increments -->
     <g transform="translate(421.715 41.58) scale(0.11 -0.11)">
      <defs>
       <path id="SimHei-45" d="M 2900 125 
L 350 125 
L 350 4400 
L 2775 4400 
L 2775 3925 
L 925 3925 
L 925 2600 
L 2625 2600 
L 2625 2125 
L 925 2125 
L 925 600 
L 2900 600 
L 2900 125 
z
" transform="scale(0.015625)"/>
       <path id="SimHei-70" d="M 2825 1525 
Q 2825 800 2475 425 
Q 2125 50 1625 50 
Q 1350 50 1150 162 
Q 950 275 800 500 
L 800 -800 
L 300 -800 
L 300 2925 
L 800 2925 
L 800 2550 
Q 950 2775 1150 2875 
Q 1350 2975 1625 2975 
Q 2125 2975 2475 2612 
Q 2825 2250 2825 1525 
z
M 2275 1525 
Q 2275 2000 2087 2262 
Q 1900 2525 1525 2525 
Q 1225 2525 1012 2262 
Q 800 2000 800 1525 
Q 800 1050 1012 775 
Q 1225 500 1525 500 
Q 1900 500 2087 775 
Q 2275 1050 2275 1525 
z
" transform="scale(0.015625)"/>
      </defs>
      <use xlink:href="#SimHei-45"/>
      <use xlink:href="#SimHei-6d" transform="translate(50 0)"/>
      <use xlink:href="#SimHei-70" transform="translate(100 0)"/>
      <use xlink:href="#SimHei-69" transform="translate(150 0)"/>
      <use xlink:href="#SimHei-72" transform="translate(200 0)"/>
      <use xlink:href="#SimHei-69" transform="translate(250 0)"/>
      <use xlink:href="#SimHei-63" transform="translate(300 0)"/>
      <use xlink:href="#SimHei-61" transform="translate(350 0)"/>
      <use xlink:href="#SimHei-6c" transform="translate(400 0)"/>
      <use xlink:href="#SimHei-20" transform="translate(450 0)"/>
      <use xlink:href="#SimHei-49" transform="translate(500 0)"/>
      <use xlink:href="#SimHei-6e" transform="translate(550 0)"/>
      <use xlink:href="#SimHei-63" transform="translate(600 0)"/>
      <use xlink:href="#SimHei-72" transform="translate(650 0)"/>
      <use xlink:href="#SimHei-65" transform="translate(700 0)"/>
      <use xlink:href="#SimHei-6d" transform="translate(750 0)"/>
      <use xlink:href="#SimHei-65" transform="translate(800 0)"/>
      <use xlink:href="#SimHei-6e" transform="translate(850 0)"/>
      <use xlink:href="#SimHei-74" transform="translate(900 0)"/>
      <use xlink:href="#SimHei-73" transform="translate(950 0)"/>
     </g>
    </g>
    <g id="line2d_30">
     <path d="M 390.915 53.19875 
L 401.915 53.19875 
L 412.915 53.19875 
" style="fill: none; stroke: #ff0000; stroke-width: 2.5; stroke-linecap: square"/>
    </g>
    <g id="text_19">
     <!-- Marginal PDF (Beta Prime) -->
     <g transform="translate(421.715 57.04875) scale(0.11 -0.11)">
      <defs>
       <path id="SimHei-28" d="M 2975 -200 
L 2700 -475 
Q 2075 125 1762 775 
Q 1450 1425 1450 2250 
Q 1450 3075 1762 3725 
Q 2075 4375 2700 5000 
L 2975 4725 
Q 2400 4175 2112 3587 
Q 1825 3000 1825 2250 
Q 1825 1500 2112 912 
Q 2400 325 2975 -200 
z
" transform="scale(0.015625)"/>
       <path id="SimHei-42" d="M 2950 1400 
Q 2950 675 2550 400 
Q 2150 125 1525 125 
L 275 125 
L 275 4400 
L 1575 4400 
Q 2200 4400 2512 4075 
Q 2825 3750 2825 3300 
Q 2825 2850 2612 2637 
Q 2400 2425 2175 2350 
Q 2475 2275 2712 2037 
Q 2950 1800 2950 1400 
z
M 2250 3300 
Q 2250 3625 2062 3775 
Q 1875 3925 1600 3925 
L 850 3925 
L 850 2600 
L 1575 2600 
Q 1850 2600 2050 2762 
Q 2250 2925 2250 3300 
z
M 2350 1400 
Q 2350 1800 2087 1962 
Q 1825 2125 1500 2125 
L 850 2125 
L 850 600 
L 1425 600 
Q 1875 600 2112 775 
Q 2350 950 2350 1400 
z
" transform="scale(0.015625)"/>
       <path id="SimHei-29" d="M 1675 2250 
Q 1675 1425 1362 775 
Q 1050 125 425 -475 
L 150 -200 
Q 725 325 1012 912 
Q 1300 1500 1300 2250 
Q 1300 3000 1012 3587 
Q 725 4175 150 4725 
L 425 5000 
Q 1050 4375 1362 3725 
Q 1675 3075 1675 2250 
z
" transform="scale(0.015625)"/>
      </defs>
      <use xlink:href="#SimHei-4d"/>
      <use xlink:href="#SimHei-61" transform="translate(50 0)"/>
      <use xlink:href="#SimHei-72" transform="translate(100 0)"/>
      <use xlink:href="#SimHei-67" transform="translate(150 0)"/>
      <use xlink:href="#SimHei-69" transform="translate(200 0)"/>
      <use xlink:href="#SimHei-6e" transform="translate(250 0)"/>
      <use xlink:href="#SimHei-61" transform="translate(300 0)"/>
      <use xlink:href="#SimHei-6c" transform="translate(350 0)"/>
      <use xlink:href="#SimHei-20" transform="translate(400 0)"/>
      <use xlink:href="#SimHei-50" transform="translate(450 0)"/>
      <use xlink:href="#SimHei-44" transform="translate(500 0)"/>
      <use xlink:href="#SimHei-46" transform="translate(550 0)"/>
      <use xlink:href="#SimHei-20" transform="translate(600 0)"/>
      <use xlink:href="#SimHei-28" transform="translate(650 0)"/>
      <use xlink:href="#SimHei-42" transform="translate(700 0)"/>
      <use xlink:href="#SimHei-65" transform="translate(750 0)"/>
      <use xlink:href="#SimHei-74" transform="translate(800 0)"/>
      <use xlink:href="#SimHei-61" transform="translate(850 0)"/>
      <use xlink:href="#SimHei-20" transform="translate(900 0)"/>
      <use xlink:href="#SimHei-50" transform="translate(950 0)"/>
      <use xlink:href="#SimHei-72" transform="translate(1000 0)"/>
      <use xlink:href="#SimHei-69" transform="translate(1050 0)"/>
      <use xlink:href="#SimHei-6d" transform="translate(1100 0)"/>
      <use xlink:href="#SimHei-65" transform="translate(1150 0)"/>
      <use xlink:href="#SimHei-29" transform="translate(1200 0)"/>
     </g>
    </g>
   </g>
  </g>
  <g id="axes_2">
   <g id="patch_59">
    <path d="M 611.075 382.82 
L 1137.24 382.82 
L 1137.24 23.98 
L 611.075 23.98 
z
" style="fill: #ffffff"/>
   </g>
   <g id="patch_60">
    <path d="M 743.831997 382.82 
L 752.520364 382.82 
L 752.520364 41.067619 
L 743.831997 41.067619 
z
" clip-path="url(#pe8f036ee9b)" style="fill: #ff8c00; opacity: 0.6"/>
   </g>
   <g id="patch_61">
    <path d="M 752.520364 382.82 
L 761.208731 382.82 
L 761.208731 211.94381 
L 752.520364 211.94381 
z
" clip-path="url(#pe8f036ee9b)" style="fill: #ff8c00; opacity: 0.6"/>
   </g>
   <g id="patch_62">
    <path d="M 761.208731 382.82 
L 769.897098 382.82 
L 769.897098 41.067619 
L 761.208731 41.067619 
z
" clip-path="url(#pe8f036ee9b)" style="fill: #ff8c00; opacity: 0.6"/>
   </g>
   <g id="patch_63">
    <path d="M 769.897098 382.82 
L 778.585465 382.82 
L 778.585465 211.94381 
L 769.897098 211.94381 
z
" clip-path="url(#pe8f036ee9b)" style="fill: #ff8c00; opacity: 0.6"/>
   </g>
   <g id="patch_64">
    <path d="M 778.585465 382.82 
L 787.273832 382.82 
L 787.273832 41.067619 
L 778.585465 41.067619 
z
" clip-path="url(#pe8f036ee9b)" style="fill: #ff8c00; opacity: 0.6"/>
   </g>
   <g id="patch_65">
    <path d="M 787.273832 382.82 
L 795.962198 382.82 
L 795.962198 41.067619 
L 787.273832 41.067619 
z
" clip-path="url(#pe8f036ee9b)" style="fill: #ff8c00; opacity: 0.6"/>
   </g>
   <g id="patch_66">
    <path d="M 795.962198 382.82 
L 804.650565 382.82 
L 804.650565 211.94381 
L 795.962198 211.94381 
z
" clip-path="url(#pe8f036ee9b)" style="fill: #ff8c00; opacity: 0.6"/>
   </g>
   <g id="patch_67">
    <path d="M 804.650565 382.82 
L 813.338932 382.82 
L 813.338932 382.82 
L 804.650565 382.82 
z
" clip-path="url(#pe8f036ee9b)" style="fill: #ff8c00; opacity: 0.6"/>
   </g>
   <g id="patch_68">
    <path d="M 813.338932 382.82 
L 822.027299 382.82 
L 822.027299 382.82 
L 813.338932 382.82 
z
" clip-path="url(#pe8f036ee9b)" style="fill: #ff8c00; opacity: 0.6"/>
   </g>
   <g id="patch_69">
    <path d="M 822.027299 382.82 
L 830.715666 382.82 
L 830.715666 382.82 
L 822.027299 382.82 
z
" clip-path="url(#pe8f036ee9b)" style="fill: #ff8c00; opacity: 0.6"/>
   </g>
   <g id="patch_70">
    <path d="M 830.715666 382.82 
L 839.404033 382.82 
L 839.404033 211.94381 
L 830.715666 211.94381 
z
" clip-path="url(#pe8f036ee9b)" style="fill: #ff8c00; opacity: 0.6"/>
   </g>
   <g id="patch_71">
    <path d="M 839.404033 382.82 
L 848.092399 382.82 
L 848.092399 382.82 
L 839.404033 382.82 
z
" clip-path="url(#pe8f036ee9b)" style="fill: #ff8c00; opacity: 0.6"/>
   </g>
   <g id="patch_72">
    <path d="M 848.092399 382.82 
L 856.780766 382.82 
L 856.780766 382.82 
L 848.092399 382.82 
z
" clip-path="url(#pe8f036ee9b)" style="fill: #ff8c00; opacity: 0.6"/>
   </g>
   <g id="patch_73">
    <path d="M 856.780766 382.82 
L 865.469133 382.82 
L 865.469133 382.82 
L 856.780766 382.82 
z
" clip-path="url(#pe8f036ee9b)" style="fill: #ff8c00; opacity: 0.6"/>
   </g>
   <g id="patch_74">
    <path d="M 865.469133 382.82 
L 874.1575 382.82 
L 874.1575 382.82 
L 865.469133 382.82 
z
" clip-path="url(#pe8f036ee9b)" style="fill: #ff8c00; opacity: 0.6"/>
   </g>
   <g id="patch_75">
    <path d="M 874.1575 382.82 
L 882.845867 382.82 
L 882.845867 211.94381 
L 874.1575 211.94381 
z
" clip-path="url(#pe8f036ee9b)" style="fill: #ff8c00; opacity: 0.6"/>
   </g>
   <g id="patch_76">
    <path d="M 882.845867 382.82 
L 891.534234 382.82 
L 891.534234 211.94381 
L 882.845867 211.94381 
z
" clip-path="url(#pe8f036ee9b)" style="fill: #ff8c00; opacity: 0.6"/>
   </g>
   <g id="patch_77">
    <path d="M 891.534234 382.82 
L 900.222601 382.82 
L 900.222601 382.82 
L 891.534234 382.82 
z
" clip-path="url(#pe8f036ee9b)" style="fill: #ff8c00; opacity: 0.6"/>
   </g>
   <g id="patch_78">
    <path d="M 900.222601 382.82 
L 908.910967 382.82 
L 908.910967 382.82 
L 900.222601 382.82 
z
" clip-path="url(#pe8f036ee9b)" style="fill: #ff8c00; opacity: 0.6"/>
   </g>
   <g id="patch_79">
    <path d="M 908.910967 382.82 
L 917.599334 382.82 
L 917.599334 211.94381 
L 908.910967 211.94381 
z
" clip-path="url(#pe8f036ee9b)" style="fill: #ff8c00; opacity: 0.6"/>
   </g>
   <g id="matplotlib.axis_3">
    <g id="xtick_8">
     <g id="line2d_31">
      <path d="M 631.661963 382.82 
L 631.661963 23.98 
" clip-path="url(#pe8f036ee9b)" style="fill: none; stroke-dasharray: 2.96,1.28; stroke-dashoffset: 0; stroke: #b0b0b0; stroke-opacity: 0.4; stroke-width: 0.8"/>
     </g>
     <g id="line2d_32">
      <g>
       <use xlink:href="#ma85aa26bba" x="631.661963" y="382.82" style="stroke: #000000; stroke-width: 0.8"/>
      </g>
     </g>
     <g id="text_20">
      <!-- 0.02 -->
      <g transform="translate(621.661963 396.695) scale(0.1 -0.1)">
       <use xlink:href="#SimHei-30"/>
       <use xlink:href="#SimHei-2e" transform="translate(50 0)"/>
       <use xlink:href="#SimHei-30" transform="translate(100 0)"/>
       <use xlink:href="#SimHei-32" transform="translate(150 0)"/>
      </g>
     </g>
    </g>
    <g id="xtick_9">
     <g id="line2d_33">
      <path d="M 737.172742 382.82 
L 737.172742 23.98 
" clip-path="url(#pe8f036ee9b)" style="fill: none; stroke-dasharray: 2.96,1.28; stroke-dashoffset: 0; stroke: #b0b0b0; stroke-opacity: 0.4; stroke-width: 0.8"/>
     </g>
     <g id="line2d_34">
      <g>
       <use xlink:href="#ma85aa26bba" x="737.172742" y="382.82" style="stroke: #000000; stroke-width: 0.8"/>
      </g>
     </g>
     <g id="text_21">
      <!-- 0.04 -->
      <g transform="translate(727.172742 396.695) scale(0.1 -0.1)">
       <defs>
        <path id="SimHei-34" d="M 2000 1100 
L 75 1100 
L 75 1525 
L 2100 4450 
L 2475 4450 
L 2475 1525 
L 3075 1525 
L 3075 1100 
L 2475 1100 
L 2475 150 
L 2000 150 
L 2000 1100 
z
M 2000 1525 
L 2000 3500 
L 600 1525 
L 2000 1525 
z
" transform="scale(0.015625)"/>
       </defs>
       <use xlink:href="#SimHei-30"/>
       <use xlink:href="#SimHei-2e" transform="translate(50 0)"/>
       <use xlink:href="#SimHei-30" transform="translate(100 0)"/>
       <use xlink:href="#SimHei-34" transform="translate(150 0)"/>
      </g>
     </g>
    </g>
    <g id="xtick_10">
     <g id="line2d_35">
      <path d="M 842.683521 382.82 
L 842.683521 23.98 
" clip-path="url(#pe8f036ee9b)" style="fill: none; stroke-dasharray: 2.96,1.28; stroke-dashoffset: 0; stroke: #b0b0b0; stroke-opacity: 0.4; stroke-width: 0.8"/>
     </g>
     <g id="line2d_36">
      <g>
       <use xlink:href="#ma85aa26bba" x="842.683521" y="382.82" style="stroke: #000000; stroke-width: 0.8"/>
      </g>
     </g>
     <g id="text_22">
      <!-- 0.06 -->
      <g transform="translate(832.683521 396.695) scale(0.1 -0.1)">
       <defs>
        <path id="SimHei-36" d="M 250 1612 
Q 275 1975 387 2225 
Q 500 2475 725 2850 
L 1750 4450 
L 2325 4450 
L 1275 2800 
Q 1950 2975 2350 2750 
Q 2750 2525 2887 2237 
Q 3025 1950 3037 1612 
Q 3050 1275 2937 950 
Q 2825 625 2537 362 
Q 2250 100 1737 75 
Q 1225 50 862 262 
Q 500 475 362 862 
Q 225 1250 250 1612 
z
M 1025 787 
Q 1250 550 1625 525 
Q 2000 500 2250 775 
Q 2500 1050 2500 1575 
Q 2500 2100 2187 2300 
Q 1875 2500 1487 2450 
Q 1100 2400 925 2075 
Q 750 1750 775 1387 
Q 800 1025 1025 787 
z
" transform="scale(0.015625)"/>
       </defs>
       <use xlink:href="#SimHei-30"/>
       <use xlink:href="#SimHei-2e" transform="translate(50 0)"/>
       <use xlink:href="#SimHei-30" transform="translate(100 0)"/>
       <use xlink:href="#SimHei-36" transform="translate(150 0)"/>
      </g>
     </g>
    </g>
    <g id="xtick_11">
     <g id="line2d_37">
      <path d="M 948.194299 382.82 
L 948.194299 23.98 
" clip-path="url(#pe8f036ee9b)" style="fill: none; stroke-dasharray: 2.96,1.28; stroke-dashoffset: 0; stroke: #b0b0b0; stroke-opacity: 0.4; stroke-width: 0.8"/>
     </g>
     <g id="line2d_38">
      <g>
       <use xlink:href="#ma85aa26bba" x="948.194299" y="382.82" style="stroke: #000000; stroke-width: 0.8"/>
      </g>
     </g>
     <g id="text_23">
      <!-- 0.08 -->
      <g transform="translate(938.194299 396.695) scale(0.1 -0.1)">
       <defs>
        <path id="SimHei-38" d="M 175 1375 
Q 175 1675 325 1962 
Q 475 2250 825 2425 
Q 525 2600 425 2812 
Q 325 3025 312 3300 
Q 300 3575 387 3775 
Q 475 3975 650 4150 
Q 825 4325 1037 4387 
Q 1250 4450 1500 4450 
Q 1750 4450 1950 4400 
Q 2150 4350 2375 4187 
Q 2600 4025 2700 3725 
Q 2800 3425 2687 3025 
Q 2575 2625 2100 2400 
Q 2525 2275 2700 2012 
Q 2875 1750 2875 1375 
Q 2875 1000 2762 775 
Q 2650 550 2512 400 
Q 2375 250 2137 162 
Q 1900 75 1537 75 
Q 1175 75 912 162 
Q 650 250 475 425 
Q 300 600 237 837 
Q 175 1075 175 1375 
z
M 687 1400 
Q 675 1100 787 875 
Q 900 650 1200 587 
Q 1500 525 1825 600 
Q 2150 675 2275 950 
Q 2400 1225 2362 1500 
Q 2325 1775 2050 1962 
Q 1775 2150 1450 2125 
Q 1125 2100 912 1900 
Q 700 1700 687 1400 
z
M 775 3350 
Q 775 3100 950 2875 
Q 1125 2650 1500 2650 
Q 1875 2650 2062 2875 
Q 2250 3100 2237 3412 
Q 2225 3725 2012 3875 
Q 1800 4025 1437 4000 
Q 1075 3975 925 3787 
Q 775 3600 775 3350 
z
" transform="scale(0.015625)"/>
       </defs>
       <use xlink:href="#SimHei-30"/>
       <use xlink:href="#SimHei-2e" transform="translate(50 0)"/>
       <use xlink:href="#SimHei-30" transform="translate(100 0)"/>
       <use xlink:href="#SimHei-38" transform="translate(150 0)"/>
      </g>
     </g>
    </g>
    <g id="xtick_12">
     <g id="line2d_39">
      <path d="M 1053.705078 382.82 
L 1053.705078 23.98 
" clip-path="url(#pe8f036ee9b)" style="fill: none; stroke-dasharray: 2.96,1.28; stroke-dashoffset: 0; stroke: #b0b0b0; stroke-opacity: 0.4; stroke-width: 0.8"/>
     </g>
     <g id="line2d_40">
      <g>
       <use xlink:href="#ma85aa26bba" x="1053.705078" y="382.82" style="stroke: #000000; stroke-width: 0.8"/>
      </g>
     </g>
     <g id="text_24">
      <!-- 0.10 -->
      <g transform="translate(1043.705078 396.695) scale(0.1 -0.1)">
       <use xlink:href="#SimHei-30"/>
       <use xlink:href="#SimHei-2e" transform="translate(50 0)"/>
       <use xlink:href="#SimHei-31" transform="translate(100 0)"/>
       <use xlink:href="#SimHei-30" transform="translate(150 0)"/>
      </g>
     </g>
    </g>
    <g id="text_25">
     <!-- $\beta$ -->
     <g transform="translate(870.3175 411.185) scale(0.12 -0.12)">
      <defs>
       <path id="DejaVuSans-Oblique-3b2" d="M 872 216 
L 572 -1331 
L -6 -1331 
L 928 3478 
Q 1206 4903 2538 4903 
Q 3888 4903 3659 3700 
Q 3503 2844 2894 2531 
Q 3713 2250 3553 1416 
Q 3272 -69 1759 -66 
Q 1097 -63 872 216 
z
M 1019 966 
Q 1259 422 1875 425 
Q 2775 425 2966 1406 
Q 3138 2288 1675 2219 
L 1778 2750 
Q 2909 2731 3106 3750 
Q 3241 4438 2509 4434 
Q 1691 4434 1503 3459 
L 1019 966 
z
" transform="scale(0.015625)"/>
      </defs>
      <use xlink:href="#DejaVuSans-Oblique-3b2" transform="translate(0 0.390625)"/>
     </g>
    </g>
   </g>
   <g id="matplotlib.axis_4">
    <g id="ytick_8">
     <g id="line2d_41">
      <path d="M 611.075 382.82 
L 1137.24 382.82 
" clip-path="url(#pe8f036ee9b)" style="fill: none; stroke-dasharray: 2.96,1.28; stroke-dashoffset: 0; stroke: #b0b0b0; stroke-opacity: 0.4; stroke-width: 0.8"/>
     </g>
     <g id="line2d_42">
      <g>
       <use xlink:href="#m3209a4013d" x="611.075" y="382.82" style="stroke: #000000; stroke-width: 0.8"/>
      </g>
     </g>
     <g id="text_26">
      <!-- 0 -->
      <g transform="translate(599.075 386.2575) scale(0.1 -0.1)">
       <use xlink:href="#SimHei-30"/>
      </g>
     </g>
    </g>
    <g id="ytick_9">
     <g id="line2d_43">
      <path d="M 611.075 340.607203 
L 1137.24 340.607203 
" clip-path="url(#pe8f036ee9b)" style="fill: none; stroke-dasharray: 2.96,1.28; stroke-dashoffset: 0; stroke: #b0b0b0; stroke-opacity: 0.4; stroke-width: 0.8"/>
     </g>
     <g id="line2d_44">
      <g>
       <use xlink:href="#m3209a4013d" x="611.075" y="340.607203" style="stroke: #000000; stroke-width: 0.8"/>
      </g>
     </g>
     <g id="text_27">
      <!-- 10 -->
      <g transform="translate(594.075 344.044703) scale(0.1 -0.1)">
       <use xlink:href="#SimHei-31"/>
       <use xlink:href="#SimHei-30" transform="translate(50 0)"/>
      </g>
     </g>
    </g>
    <g id="ytick_10">
     <g id="line2d_45">
      <path d="M 611.075 298.394406 
L 1137.24 298.394406 
" clip-path="url(#pe8f036ee9b)" style="fill: none; stroke-dasharray: 2.96,1.28; stroke-dashoffset: 0; stroke: #b0b0b0; stroke-opacity: 0.4; stroke-width: 0.8"/>
     </g>
     <g id="line2d_46">
      <g>
       <use xlink:href="#m3209a4013d" x="611.075" y="298.394406" style="stroke: #000000; stroke-width: 0.8"/>
      </g>
     </g>
     <g id="text_28">
      <!-- 20 -->
      <g transform="translate(594.075 301.831906) scale(0.1 -0.1)">
       <use xlink:href="#SimHei-32"/>
       <use xlink:href="#SimHei-30" transform="translate(50 0)"/>
      </g>
     </g>
    </g>
    <g id="ytick_11">
     <g id="line2d_47">
      <path d="M 611.075 256.181609 
L 1137.24 256.181609 
" clip-path="url(#pe8f036ee9b)" style="fill: none; stroke-dasharray: 2.96,1.28; stroke-dashoffset: 0; stroke: #b0b0b0; stroke-opacity: 0.4; stroke-width: 0.8"/>
     </g>
     <g id="line2d_48">
      <g>
       <use xlink:href="#m3209a4013d" x="611.075" y="256.181609" style="stroke: #000000; stroke-width: 0.8"/>
      </g>
     </g>
     <g id="text_29">
      <!-- 30 -->
      <g transform="translate(594.075 259.619109) scale(0.1 -0.1)">
       <use xlink:href="#SimHei-33"/>
       <use xlink:href="#SimHei-30" transform="translate(50 0)"/>
      </g>
     </g>
    </g>
    <g id="ytick_12">
     <g id="line2d_49">
      <path d="M 611.075 213.968812 
L 1137.24 213.968812 
" clip-path="url(#pe8f036ee9b)" style="fill: none; stroke-dasharray: 2.96,1.28; stroke-dashoffset: 0; stroke: #b0b0b0; stroke-opacity: 0.4; stroke-width: 0.8"/>
     </g>
     <g id="line2d_50">
      <g>
       <use xlink:href="#m3209a4013d" x="611.075" y="213.968812" style="stroke: #000000; stroke-width: 0.8"/>
      </g>
     </g>
     <g id="text_30">
      <!-- 40 -->
      <g transform="translate(594.075 217.406312) scale(0.1 -0.1)">
       <use xlink:href="#SimHei-34"/>
       <use xlink:href="#SimHei-30" transform="translate(50 0)"/>
      </g>
     </g>
    </g>
    <g id="ytick_13">
     <g id="line2d_51">
      <path d="M 611.075 171.756015 
L 1137.24 171.756015 
" clip-path="url(#pe8f036ee9b)" style="fill: none; stroke-dasharray: 2.96,1.28; stroke-dashoffset: 0; stroke: #b0b0b0; stroke-opacity: 0.4; stroke-width: 0.8"/>
     </g>
     <g id="line2d_52">
      <g>
       <use xlink:href="#m3209a4013d" x="611.075" y="171.756015" style="stroke: #000000; stroke-width: 0.8"/>
      </g>
     </g>
     <g id="text_31">
      <!-- 50 -->
      <g transform="translate(594.075 175.193515) scale(0.1 -0.1)">
       <use xlink:href="#SimHei-35"/>
       <use xlink:href="#SimHei-30" transform="translate(50 0)"/>
      </g>
     </g>
    </g>
    <g id="ytick_14">
     <g id="line2d_53">
      <path d="M 611.075 129.543218 
L 1137.24 129.543218 
" clip-path="url(#pe8f036ee9b)" style="fill: none; stroke-dasharray: 2.96,1.28; stroke-dashoffset: 0; stroke: #b0b0b0; stroke-opacity: 0.4; stroke-width: 0.8"/>
     </g>
     <g id="line2d_54">
      <g>
       <use xlink:href="#m3209a4013d" x="611.075" y="129.543218" style="stroke: #000000; stroke-width: 0.8"/>
      </g>
     </g>
     <g id="text_32">
      <!-- 60 -->
      <g transform="translate(594.075 132.980718) scale(0.1 -0.1)">
       <use xlink:href="#SimHei-36"/>
       <use xlink:href="#SimHei-30" transform="translate(50 0)"/>
      </g>
     </g>
    </g>
    <g id="ytick_15">
     <g id="line2d_55">
      <path d="M 611.075 87.330421 
L 1137.24 87.330421 
" clip-path="url(#pe8f036ee9b)" style="fill: none; stroke-dasharray: 2.96,1.28; stroke-dashoffset: 0; stroke: #b0b0b0; stroke-opacity: 0.4; stroke-width: 0.8"/>
     </g>
     <g id="line2d_56">
      <g>
       <use xlink:href="#m3209a4013d" x="611.075" y="87.330421" style="stroke: #000000; stroke-width: 0.8"/>
      </g>
     </g>
     <g id="text_33">
      <!-- 70 -->
      <g transform="translate(594.075 90.767921) scale(0.1 -0.1)">
       <use xlink:href="#SimHei-37"/>
       <use xlink:href="#SimHei-30" transform="translate(50 0)"/>
      </g>
     </g>
    </g>
    <g id="ytick_16">
     <g id="line2d_57">
      <path d="M 611.075 45.117624 
L 1137.24 45.117624 
" clip-path="url(#pe8f036ee9b)" style="fill: none; stroke-dasharray: 2.96,1.28; stroke-dashoffset: 0; stroke: #b0b0b0; stroke-opacity: 0.4; stroke-width: 0.8"/>
     </g>
     <g id="line2d_58">
      <g>
       <use xlink:href="#m3209a4013d" x="611.075" y="45.117624" style="stroke: #000000; stroke-width: 0.8"/>
      </g>
     </g>
     <g id="text_34">
      <!-- 80 -->
      <g transform="translate(594.075 48.555124) scale(0.1 -0.1)">
       <use xlink:href="#SimHei-38"/>
       <use xlink:href="#SimHei-30" transform="translate(50 0)"/>
      </g>
     </g>
    </g>
    <g id="text_35">
     <!-- Density -->
     <g transform="translate(588.575 224.4) rotate(-90) scale(0.12 -0.12)">
      <use xlink:href="#SimHei-44"/>
      <use xlink:href="#SimHei-65" transform="translate(50 0)"/>
      <use xlink:href="#SimHei-6e" transform="translate(100 0)"/>
      <use xlink:href="#SimHei-73" transform="translate(150 0)"/>
      <use xlink:href="#SimHei-69" transform="translate(200 0)"/>
      <use xlink:href="#SimHei-74" transform="translate(250 0)"/>
      <use xlink:href="#SimHei-79" transform="translate(300 0)"/>
     </g>
    </g>
   </g>
   <g id="line2d_59">
    <path d="M 634.991591 382.819941 
L 662.187714 382.72157 
L 668.586802 382.506035 
L 673.386118 382.145103 
L 676.585662 381.744799 
L 679.785206 381.162095 
L 682.98475 380.340107 
L 686.184294 379.214115 
L 689.383838 377.713502 
L 692.583382 375.764527 
L 694.183154 374.598852 
L 695.782926 373.293812 
L 697.382698 371.840947 
L 698.98247 370.23233 
L 700.582242 368.460705 
L 702.182014 366.519609 
L 705.381557 362.107852 
L 708.581101 356.965659 
L 711.780645 351.08107 
L 714.980189 344.463701 
L 718.179733 337.14584 
L 721.379277 329.18241 
L 724.578821 320.649849 
L 729.378137 306.998048 
L 735.777225 287.825152 
L 743.776085 263.80105 
L 748.575401 250.17327 
L 751.774945 241.680615 
L 754.974488 233.791705 
L 758.174032 226.601871 
L 761.373576 220.19052 
L 764.57312 214.62017 
L 766.172892 212.16519 
L 767.772664 209.936092 
L 769.372436 207.93587 
L 770.972208 206.16649 
L 772.57198 204.62892 
L 774.171752 203.323164 
L 775.771524 202.248309 
L 777.371296 201.402562 
L 778.971068 200.783304 
L 780.57084 200.38714 
L 782.170612 200.209952 
L 783.770384 200.246952 
L 785.370156 200.492743 
L 786.969928 200.941373 
L 788.5697 201.586388 
L 790.169472 202.420898 
L 791.769244 203.437622 
L 793.369016 204.62895 
L 794.968788 205.986992 
L 798.168332 209.170572 
L 801.367875 212.92157 
L 804.567419 217.17179 
L 807.766963 221.852949 
L 810.966507 226.897809 
L 815.765823 235.005127 
L 820.565139 243.577137 
L 828.563999 258.392971 
L 838.162631 276.166275 
L 844.561719 287.568524 
L 849.361035 295.739771 
L 854.16035 303.518187 
L 858.959666 310.862516 
L 863.758982 317.746509 
L 868.558298 324.156703 
L 873.357614 330.090278 
L 878.15693 335.553049 
L 882.956246 340.557652 
L 887.755562 345.121916 
L 892.554878 349.267458 
L 897.354194 353.018474 
L 902.153509 356.400729 
L 906.952825 359.440737 
L 911.752141 362.165088 
L 916.551457 364.599933 
L 921.350773 366.77059 
L 926.150089 368.701253 
L 930.949405 370.414792 
L 935.748721 371.932629 
L 942.147809 373.68617 
L 948.546896 375.169945 
L 954.945984 376.422132 
L 961.345072 377.476369 
L 969.343932 378.560217 
L 977.342792 379.429452 
L 986.941424 380.246069 
L 998.139827 380.957149 
L 1010.938003 381.534923 
L 1026.935723 382.013414 
L 1047.732758 382.380199 
L 1074.928882 382.620743 
L 1113.323409 382.754275 
L 1113.323409 382.754275 
" clip-path="url(#pe8f036ee9b)" style="fill: none; stroke: #008000; stroke-width: 2.5; stroke-linecap: square"/>
   </g>
   <g id="patch_80">
    <path d="M 611.075 382.82 
L 611.075 23.98 
" style="fill: none; stroke: #000000; stroke-width: 0.8; stroke-linejoin: miter; stroke-linecap: square"/>
   </g>
   <g id="patch_81">
    <path d="M 1137.24 382.82 
L 1137.24 23.98 
" style="fill: none; stroke: #000000; stroke-width: 0.8; stroke-linejoin: miter; stroke-linecap: square"/>
   </g>
   <g id="patch_82">
    <path d="M 611.075 382.82 
L 1137.24 382.82 
" style="fill: none; stroke: #000000; stroke-width: 0.8; stroke-linejoin: miter; stroke-linecap: square"/>
   </g>
   <g id="patch_83">
    <path d="M 611.075 23.98 
L 1137.24 23.98 
" style="fill: none; stroke: #000000; stroke-width: 0.8; stroke-linejoin: miter; stroke-linecap: square"/>
   </g>
   <g id="text_36">
    <!-- Latent Scale Parameter $\beta$ Distribution -->
    <g transform="translate(743.6775 17.98) scale(0.14 -0.14)">
     <defs>
      <path id="SimHei-4c" d="M 2900 125 
L 300 125 
L 300 4400 
L 875 4400 
L 875 600 
L 2900 600 
L 2900 125 
z
" transform="scale(0.015625)"/>
      <path id="SimHei-53" d="M 2900 1325 
Q 2900 750 2537 412 
Q 2175 75 1550 75 
Q 925 75 575 425 
Q 225 775 225 1300 
L 225 1475 
L 800 1475 
L 800 1325 
Q 800 950 1025 750 
Q 1250 550 1550 550 
Q 1950 550 2137 762 
Q 2325 975 2325 1275 
Q 2325 1525 2100 1737 
Q 1875 1950 1450 2125 
Q 850 2350 587 2625 
Q 325 2900 325 3275 
Q 325 3800 687 4125 
Q 1050 4450 1550 4450 
Q 2200 4450 2487 4062 
Q 2775 3675 2775 3225 
L 2200 3225 
Q 2225 3500 2050 3725 
Q 1875 3950 1550 3950 
Q 1250 3950 1075 3787 
Q 900 3625 900 3350 
Q 900 3125 1037 2962 
Q 1175 2800 1750 2575 
Q 2300 2350 2600 2037 
Q 2900 1725 2900 1325 
z
" transform="scale(0.015625)"/>
      <path id="SimHei-75" d="M 2800 125 
L 2300 125 
L 2300 650 
Q 2100 375 1862 225 
Q 1625 75 1250 75 
Q 800 75 575 325 
Q 350 575 350 950 
L 350 2925 
L 850 2925 
L 850 1125 
Q 850 825 1000 650 
Q 1150 475 1400 475 
Q 1725 475 2012 812 
Q 2300 1150 2300 1650 
L 2300 2925 
L 2800 2925 
L 2800 125 
z
" transform="scale(0.015625)"/>
     </defs>
     <use xlink:href="#SimHei-4c" transform="translate(0 0.390625)"/>
     <use xlink:href="#SimHei-61" transform="translate(50 0.390625)"/>
     <use xlink:href="#SimHei-74" transform="translate(100 0.390625)"/>
     <use xlink:href="#SimHei-65" transform="translate(150 0.390625)"/>
     <use xlink:href="#SimHei-6e" transform="translate(200 0.390625)"/>
     <use xlink:href="#SimHei-74" transform="translate(250 0.390625)"/>
     <use xlink:href="#SimHei-20" transform="translate(300 0.390625)"/>
     <use xlink:href="#SimHei-53" transform="translate(350 0.390625)"/>
     <use xlink:href="#SimHei-63" transform="translate(400 0.390625)"/>
     <use xlink:href="#SimHei-61" transform="translate(450 0.390625)"/>
     <use xlink:href="#SimHei-6c" transform="translate(500 0.390625)"/>
     <use xlink:href="#SimHei-65" transform="translate(550 0.390625)"/>
     <use xlink:href="#SimHei-20" transform="translate(600 0.390625)"/>
     <use xlink:href="#SimHei-50" transform="translate(650 0.390625)"/>
     <use xlink:href="#SimHei-61" transform="translate(700 0.390625)"/>
     <use xlink:href="#SimHei-72" transform="translate(750 0.390625)"/>
     <use xlink:href="#SimHei-61" transform="translate(800 0.390625)"/>
     <use xlink:href="#SimHei-6d" transform="translate(850 0.390625)"/>
     <use xlink:href="#SimHei-65" transform="translate(900 0.390625)"/>
     <use xlink:href="#SimHei-74" transform="translate(950 0.390625)"/>
     <use xlink:href="#SimHei-65" transform="translate(1000 0.390625)"/>
     <use xlink:href="#SimHei-72" transform="translate(1050 0.390625)"/>
     <use xlink:href="#SimHei-20" transform="translate(1100 0.390625)"/>
     <use xlink:href="#DejaVuSans-Oblique-3b2" transform="translate(1150 0.390625)"/>
     <use xlink:href="#SimHei-20" transform="translate(1213.818359 0.390625)"/>
     <use xlink:href="#SimHei-44" transform="translate(1263.818359 0.390625)"/>
     <use xlink:href="#SimHei-69" transform="translate(1313.818359 0.390625)"/>
     <use xlink:href="#SimHei-73" transform="translate(1363.818359 0.390625)"/>
     <use xlink:href="#SimHei-74" transform="translate(1413.818359 0.390625)"/>
     <use xlink:href="#SimHei-72" transform="translate(1463.818359 0.390625)"/>
     <use xlink:href="#SimHei-69" transform="translate(1513.818359 0.390625)"/>
     <use xlink:href="#SimHei-62" transform="translate(1563.818359 0.390625)"/>
     <use xlink:href="#SimHei-75" transform="translate(1613.818359 0.390625)"/>
     <use xlink:href="#SimHei-74" transform="translate(1663.818359 0.390625)"/>
     <use xlink:href="#SimHei-69" transform="translate(1713.818359 0.390625)"/>
     <use xlink:href="#SimHei-6f" transform="translate(1763.818359 0.390625)"/>
     <use xlink:href="#SimHei-6e" transform="translate(1813.818359 0.390625)"/>
    </g>
   </g>
   <g id="legend_2">
    <g id="patch_84">
     <path d="M 967.84 63.635 
L 1129.54 63.635 
Q 1131.74 63.635 1131.74 61.435 
L 1131.74 31.68 
Q 1131.74 29.48 1129.54 29.48 
L 967.84 29.48 
Q 965.64 29.48 965.64 31.68 
L 965.64 61.435 
Q 965.64 63.635 967.84 63.635 
z
" style="fill: #ffffff; opacity: 0.8; stroke: #cccccc; stroke-linejoin: miter"/>
    </g>
    <g id="patch_85">
     <path d="M 970.04 42.35 
L 992.04 42.35 
L 992.04 34.65 
L 970.04 34.65 
z
" style="fill: #ff8c00; opacity: 0.6"/>
    </g>
    <g id="text_37">
     <!-- Posterior Means of $\beta_i$ -->
     <g transform="translate(1000.84 42.35) scale(0.11 -0.11)">
      <defs>
       <path id="SimHei-66" d="M 2850 3825 
Q 2725 3900 2550 3950 
Q 2375 4000 2100 4000 
Q 1825 4000 1725 3862 
Q 1625 3725 1625 3525 
L 1625 2925 
L 2650 2925 
L 2650 2525 
L 1625 2525 
L 1625 125 
L 1125 125 
L 1125 2525 
L 275 2525 
L 275 2925 
L 1125 2925 
L 1125 3500 
Q 1125 3950 1400 4200 
Q 1675 4450 2125 4450 
Q 2400 4450 2562 4412 
Q 2725 4375 2850 4325 
L 2850 3825 
z
" transform="scale(0.015625)"/>
       <path id="DejaVuSans-Oblique-69" d="M 1172 4863 
L 1747 4863 
L 1606 4134 
L 1031 4134 
L 1172 4863 
z
M 909 3500 
L 1484 3500 
L 800 0 
L 225 0 
L 909 3500 
z
" transform="scale(0.015625)"/>
      </defs>
      <use xlink:href="#SimHei-50" transform="translate(0 0.390625)"/>
      <use xlink:href="#SimHei-6f" transform="translate(50 0.390625)"/>
      <use xlink:href="#SimHei-73" transform="translate(100 0.390625)"/>
      <use xlink:href="#SimHei-74" transform="translate(150 0.390625)"/>
      <use xlink:href="#SimHei-65" transform="translate(200 0.390625)"/>
      <use xlink:href="#SimHei-72" transform="translate(250 0.390625)"/>
      <use xlink:href="#SimHei-69" transform="translate(300 0.390625)"/>
      <use xlink:href="#SimHei-6f" transform="translate(350 0.390625)"/>
      <use xlink:href="#SimHei-72" transform="translate(400 0.390625)"/>
      <use xlink:href="#SimHei-20" transform="translate(450 0.390625)"/>
      <use xlink:href="#SimHei-4d" transform="translate(500 0.390625)"/>
      <use xlink:href="#SimHei-65" transform="translate(550 0.390625)"/>
      <use xlink:href="#SimHei-61" transform="translate(600 0.390625)"/>
      <use xlink:href="#SimHei-6e" transform="translate(650 0.390625)"/>
      <use xlink:href="#SimHei-73" transform="translate(700 0.390625)"/>
      <use xlink:href="#SimHei-20" transform="translate(750 0.390625)"/>
      <use xlink:href="#SimHei-6f" transform="translate(800 0.390625)"/>
      <use xlink:href="#SimHei-66" transform="translate(850 0.390625)"/>
      <use xlink:href="#SimHei-20" transform="translate(900 0.390625)"/>
      <use xlink:href="#DejaVuSans-Oblique-3b2" transform="translate(950 0.390625)"/>
      <use xlink:href="#DejaVuSans-Oblique-69" transform="translate(1013.818359 -16.015625) scale(0.7)"/>
     </g>
    </g>
    <g id="line2d_60">
     <path d="M 970.04 54.01 
L 981.04 54.01 
L 992.04 54.01 
" style="fill: none; stroke: #008000; stroke-width: 2.5; stroke-linecap: square"/>
    </g>
    <g id="text_38">
     <!-- Prior Inverse Gamma PDF -->
     <g transform="translate(1000.84 57.86) scale(0.11 -0.11)">
      <defs>
       <path id="SimHei-76" d="M 2875 2925 
L 1825 75 
L 1275 75 
L 225 2925 
L 750 2925 
L 1525 750 
L 1575 750 
L 2350 2925 
L 2875 2925 
z
" transform="scale(0.015625)"/>
       <path id="SimHei-47" d="M 2850 75 
L 2425 75 
L 2350 425 
Q 2250 275 2037 175 
Q 1825 75 1575 75 
Q 1050 75 637 562 
Q 225 1050 225 2125 
Q 225 3300 600 3875 
Q 975 4450 1625 4450 
Q 2200 4450 2525 4025 
Q 2850 3600 2850 2925 
L 2300 2925 
Q 2300 3450 2125 3712 
Q 1950 3975 1625 3975 
Q 1225 3975 1025 3562 
Q 825 3150 825 2175 
Q 825 1250 1075 900 
Q 1325 550 1650 550 
Q 1975 550 2162 787 
Q 2350 1025 2350 1525 
L 2350 1800 
L 1575 1800 
L 1575 2275 
L 2850 2275 
L 2850 75 
z
" transform="scale(0.015625)"/>
      </defs>
      <use xlink:href="#SimHei-50"/>
      <use xlink:href="#SimHei-72" transform="translate(50 0)"/>
      <use xlink:href="#SimHei-69" transform="translate(100 0)"/>
      <use xlink:href="#SimHei-6f" transform="translate(150 0)"/>
      <use xlink:href="#SimHei-72" transform="translate(200 0)"/>
      <use xlink:href="#SimHei-20" transform="translate(250 0)"/>
      <use xlink:href="#SimHei-49" transform="translate(300 0)"/>
      <use xlink:href="#SimHei-6e" transform="translate(350 0)"/>
      <use xlink:href="#SimHei-76" transform="translate(400 0)"/>
      <use xlink:href="#SimHei-65" transform="translate(450 0)"/>
      <use xlink:href="#SimHei-72" transform="translate(500 0)"/>
      <use xlink:href="#SimHei-73" transform="translate(550 0)"/>
      <use xlink:href="#SimHei-65" transform="translate(600 0)"/>
      <use xlink:href="#SimHei-20" transform="translate(650 0)"/>
      <use xlink:href="#SimHei-47" transform="translate(700 0)"/>
      <use xlink:href="#SimHei-61" transform="translate(750 0)"/>
      <use xlink:href="#SimHei-6d" transform="translate(800 0)"/>
      <use xlink:href="#SimHei-6d" transform="translate(850 0)"/>
      <use xlink:href="#SimHei-61" transform="translate(900 0)"/>
      <use xlink:href="#SimHei-20" transform="translate(950 0)"/>
      <use xlink:href="#SimHei-50" transform="translate(1000 0)"/>
      <use xlink:href="#SimHei-44" transform="translate(1050 0)"/>
      <use xlink:href="#SimHei-46" transform="translate(1100 0)"/>
     </g>
    </g>
   </g>
  </g>
 </g>
 <defs>
  <clipPath id="peba9d56c07">
   <rect x="42.95" y="23.98" width="526.165" height="358.84"/>
  </clipPath>
  <clipPath id="pe8f036ee9b">
   <rect x="611.075" y="23.98" width="526.165" height="358.84"/>
  </clipPath>
 </defs>
</svg>
