<?xml version="1.0" encoding="utf-8" standalone="no"?>
<!DOCTYPE svg PUBLIC "-//W3C//DTD SVG 1.1//EN"
  "http://www.w3.org/Graphics/SVG/1.1/DTD/svg11.dtd">
<svg xmlns:xlink="http://www.w3.org/1999/xlink" width="1131.54pt" height="409.035pt" viewBox="0 0 1131.54 409.035" xmlns="http://www.w3.org/2000/svg" version="1.1">
 <metadata>
  <rdf:RDF xmlns:dc="http://purl.org/dc/elements/1.1/" xmlns:cc="http://creativecommons.org/ns#" xmlns:rdf="http://www.w3.org/1999/02/22-rdf-syntax-ns#">
   <cc:Work>
    <dc:type rdf:resource="http://purl.org/dc/dcmitype/StillImage"/>
    <dc:date>2026-03-22T23:58:34.155262</dc:date>
    <dc:format>image/svg+xml</dc:format>
    <dc:creator>
     <cc:Agent>
      <dc:title>Matplotlib v3.10.8, https://matplotlib.org/</dc:title>
     </cc:Agent>
    </dc:creator>
   </cc:Work>
  </rdf:RDF>
 </metadata>
 <defs>
  <style type="text/css">*{stroke-linejoin: round; stroke-linecap: butt}</style>
 </defs>
 <g id="figure_1">
  <g id="patch_1">
   <path d="M 0 409.035 
L 1131.54 409.035 
L 1131.54 0 
L 0 0 
z
" style="fill: #ffffff"/>
  </g>
  <g id="axes_1">
   <g id="patch_2">
    <path d="M 51.45 365.2 
L 560.445 365.2 
L 560.445 23.98 
L 51.45 23.98 
z
" style="fill: #ffffff"/>
   </g>
   <g id="matplotlib.axis_1">
    <g id="xtick_1">
     <g id="line2d_1">
      <path d="M 90.302298 365.2 
L 90.302298 23.98 
" clip-path="url(#p814d789f0e)" style="fill: none; stroke-dasharray: 3.7,1.6; stroke-dashoffset: 0; stroke: #cccccc; stroke-opacity: 0.4"/>
     </g>
     <g id="text_1">
      <!-- 0.25 -->
      <g style="fill: #262626" transform="translate(76.302298 384.325) scale(0.14 -0.14)">
       <defs>
        <path id="SimHei-30" d="M 225 2537 
Q 250 3200 412 3587 
Q 575 3975 875 4225 
Q 1175 4475 1612 4475 
Q 2050 4475 2375 4112 
Q 2700 3750 2800 3200 
Q 2900 2650 2862 1937 
Q 2825 1225 2612 775 
Q 2400 325 1975 150 
Q 1550 -25 1125 187 
Q 700 400 525 750 
Q 350 1100 275 1487 
Q 200 1875 225 2537 
z
M 750 2687 
Q 675 2000 800 1462 
Q 925 925 1212 700 
Q 1500 475 1800 612 
Q 2100 750 2237 1162 
Q 2375 1575 2375 2062 
Q 2375 2550 2337 2950 
Q 2300 3350 2112 3675 
Q 1925 4000 1612 4012 
Q 1300 4025 1062 3700 
Q 825 3375 750 2687 
z
" transform="scale(0.015625)"/>
        <path id="SimHei-2e" d="M 1075 125 
L 500 125 
L 500 675 
L 1075 675 
L 1075 125 
z
" transform="scale(0.015625)"/>
        <path id="SimHei-32" d="M 300 250 
Q 325 625 650 925 
Q 975 1225 1475 1862 
Q 1975 2500 2125 2850 
Q 2275 3200 2237 3450 
Q 2200 3700 2000 3862 
Q 1800 4025 1537 4000 
Q 1275 3975 1037 3800 
Q 800 3625 675 3275 
L 200 3350 
Q 400 3925 712 4187 
Q 1025 4450 1450 4475 
Q 1700 4500 1900 4462 
Q 2100 4425 2312 4287 
Q 2525 4150 2662 3875 
Q 2800 3600 2762 3212 
Q 2725 2825 2375 2287 
Q 2025 1750 1025 600 
L 2825 600 
L 2825 150 
L 300 150 
L 300 250 
z
" transform="scale(0.015625)"/>
        <path id="SimHei-35" d="M 550 1325 
Q 725 650 1150 575 
Q 1575 500 1837 662 
Q 2100 825 2212 1087 
Q 2325 1350 2312 1675 
Q 2300 2000 2137 2225 
Q 1975 2450 1725 2525 
Q 1475 2600 1162 2525 
Q 850 2450 650 2175 
L 225 2225 
Q 275 2375 700 4375 
L 2675 4375 
L 2675 3925 
L 1075 3925 
Q 950 3250 825 2850 
Q 1200 3025 1525 3012 
Q 1850 3000 2150 2862 
Q 2450 2725 2587 2487 
Q 2725 2250 2787 2012 
Q 2850 1775 2837 1500 
Q 2825 1225 2725 937 
Q 2625 650 2425 462 
Q 2225 275 1937 162 
Q 1650 50 1275 75 
Q 900 100 562 350 
Q 225 600 100 1200 
L 550 1325 
z
" transform="scale(0.015625)"/>
       </defs>
       <use xlink:href="#SimHei-30"/>
       <use xlink:href="#SimHei-2e" transform="translate(50 0)"/>
       <use xlink:href="#SimHei-32" transform="translate(100 0)"/>
       <use xlink:href="#SimHei-35" transform="translate(150 0)"/>
      </g>
     </g>
    </g>
    <g id="xtick_2">
     <g id="line2d_2">
      <path d="M 159.842834 365.2 
L 159.842834 23.98 
" clip-path="url(#p814d789f0e)" style="fill: none; stroke-dasharray: 3.7,1.6; stroke-dashoffset: 0; stroke: #cccccc; stroke-opacity: 0.4"/>
     </g>
     <g id="text_2">
      <!-- 0.50 -->
      <g style="fill: #262626" transform="translate(145.842834 384.325) scale(0.14 -0.14)">
       <use xlink:href="#SimHei-30"/>
       <use xlink:href="#SimHei-2e" transform="translate(50 0)"/>
       <use xlink:href="#SimHei-35" transform="translate(100 0)"/>
       <use xlink:href="#SimHei-30" transform="translate(150 0)"/>
      </g>
     </g>
    </g>
    <g id="xtick_3">
     <g id="line2d_3">
      <path d="M 229.38337 365.2 
L 229.38337 23.98 
" clip-path="url(#p814d789f0e)" style="fill: none; stroke-dasharray: 3.7,1.6; stroke-dashoffset: 0; stroke: #cccccc; stroke-opacity: 0.4"/>
     </g>
     <g id="text_3">
      <!-- 0.75 -->
      <g style="fill: #262626" transform="translate(215.38337 384.325) scale(0.14 -0.14)">
       <defs>
        <path id="SimHei-37" d="M 850 150 
Q 1300 2050 2425 3925 
L 275 3925 
L 275 4375 
L 2950 4375 
L 2950 3950 
Q 1775 2050 1400 150 
L 850 150 
z
" transform="scale(0.015625)"/>
       </defs>
       <use xlink:href="#SimHei-30"/>
       <use xlink:href="#SimHei-2e" transform="translate(50 0)"/>
       <use xlink:href="#SimHei-37" transform="translate(100 0)"/>
       <use xlink:href="#SimHei-35" transform="translate(150 0)"/>
      </g>
     </g>
    </g>
    <g id="xtick_4">
     <g id="line2d_4">
      <path d="M 298.923906 365.2 
L 298.923906 23.98 
" clip-path="url(#p814d789f0e)" style="fill: none; stroke-dasharray: 3.7,1.6; stroke-dashoffset: 0; stroke: #cccccc; stroke-opacity: 0.4"/>
     </g>
     <g id="text_4">
      <!-- 1.00 -->
      <g style="fill: #262626" transform="translate(284.923906 384.325) scale(0.14 -0.14)">
       <defs>
        <path id="SimHei-31" d="M 1400 3600 
Q 1075 3275 575 2975 
L 575 3450 
Q 1200 3875 1600 4450 
L 1900 4450 
L 1900 150 
L 1400 150 
L 1400 3600 
z
" transform="scale(0.015625)"/>
       </defs>
       <use xlink:href="#SimHei-31"/>
       <use xlink:href="#SimHei-2e" transform="translate(50 0)"/>
       <use xlink:href="#SimHei-30" transform="translate(100 0)"/>
       <use xlink:href="#SimHei-30" transform="translate(150 0)"/>
      </g>
     </g>
    </g>
    <g id="xtick_5">
     <g id="line2d_5">
      <path d="M 368.464442 365.2 
L 368.464442 23.98 
" clip-path="url(#p814d789f0e)" style="fill: none; stroke-dasharray: 3.7,1.6; stroke-dashoffset: 0; stroke: #cccccc; stroke-opacity: 0.4"/>
     </g>
     <g id="text_5">
      <!-- 1.25 -->
      <g style="fill: #262626" transform="translate(354.464442 384.325) scale(0.14 -0.14)">
       <use xlink:href="#SimHei-31"/>
       <use xlink:href="#SimHei-2e" transform="translate(50 0)"/>
       <use xlink:href="#SimHei-32" transform="translate(100 0)"/>
       <use xlink:href="#SimHei-35" transform="translate(150 0)"/>
      </g>
     </g>
    </g>
    <g id="xtick_6">
     <g id="line2d_6">
      <path d="M 438.004978 365.2 
L 438.004978 23.98 
" clip-path="url(#p814d789f0e)" style="fill: none; stroke-dasharray: 3.7,1.6; stroke-dashoffset: 0; stroke: #cccccc; stroke-opacity: 0.4"/>
     </g>
     <g id="text_6">
      <!-- 1.50 -->
      <g style="fill: #262626" transform="translate(424.004978 384.325) scale(0.14 -0.14)">
       <use xlink:href="#SimHei-31"/>
       <use xlink:href="#SimHei-2e" transform="translate(50 0)"/>
       <use xlink:href="#SimHei-35" transform="translate(100 0)"/>
       <use xlink:href="#SimHei-30" transform="translate(150 0)"/>
      </g>
     </g>
    </g>
    <g id="xtick_7">
     <g id="line2d_7">
      <path d="M 507.545514 365.2 
L 507.545514 23.98 
" clip-path="url(#p814d789f0e)" style="fill: none; stroke-dasharray: 3.7,1.6; stroke-dashoffset: 0; stroke: #cccccc; stroke-opacity: 0.4"/>
     </g>
     <g id="text_7">
      <!-- 1.75 -->
      <g style="fill: #262626" transform="translate(493.545514 384.325) scale(0.14 -0.14)">
       <use xlink:href="#SimHei-31"/>
       <use xlink:href="#SimHei-2e" transform="translate(50 0)"/>
       <use xlink:href="#SimHei-37" transform="translate(100 0)"/>
       <use xlink:href="#SimHei-35" transform="translate(150 0)"/>
      </g>
     </g>
    </g>
    <g id="text_8">
     <!-- Degradation Increment $\Delta y$ -->
     <g style="fill: #262626" transform="translate(232.2675 398.835) scale(0.12 -0.12)">
      <defs>
       <path id="SimHei-44" d="M 2925 2250 
Q 2925 1100 2437 612 
Q 1950 125 1125 125 
L 275 125 
L 275 4400 
L 1125 4400 
Q 2050 4400 2487 3900 
Q 2925 3400 2925 2250 
z
M 2325 2250 
Q 2325 3175 2025 3550 
Q 1725 3925 1125 3925 
L 850 3925 
L 850 600 
L 1125 600 
Q 1725 600 2025 962 
Q 2325 1325 2325 2250 
z
" transform="scale(0.015625)"/>
       <path id="SimHei-65" d="M 2850 1075 
Q 2800 625 2450 350 
Q 2100 75 1625 75 
Q 1025 75 637 462 
Q 250 850 250 1525 
Q 250 2200 637 2587 
Q 1025 2975 1625 2975 
Q 2150 2975 2487 2637 
Q 2825 2300 2825 1525 
L 800 1525 
Q 800 975 1037 750 
Q 1275 525 1625 525 
Q 1900 525 2075 662 
Q 2250 800 2300 1075 
L 2850 1075 
z
M 2250 1925 
Q 2200 2275 2025 2412 
Q 1850 2550 1575 2550 
Q 1325 2550 1125 2412 
Q 925 2275 825 1925 
L 2250 1925 
z
" transform="scale(0.015625)"/>
       <path id="SimHei-67" d="M 2975 2500 
Q 2800 2550 2637 2562 
Q 2475 2575 2300 2525 
Q 2375 2450 2425 2337 
Q 2475 2225 2475 2000 
Q 2475 1575 2187 1300 
Q 1900 1025 1475 1025 
Q 1375 1025 1212 1062 
Q 1050 1100 950 1150 
Q 875 1100 850 1050 
Q 825 1000 825 925 
Q 825 800 1000 737 
Q 1175 675 1625 675 
Q 2350 675 2612 475 
Q 2875 275 2875 -25 
Q 2875 -425 2487 -612 
Q 2100 -800 1575 -800 
Q 900 -800 575 -625 
Q 250 -450 250 -150 
Q 250 0 375 150 
Q 500 300 700 400 
Q 550 475 462 587 
Q 375 700 375 875 
Q 375 1025 487 1137 
Q 600 1250 750 1325 
Q 625 1450 550 1625 
Q 475 1800 475 2000 
Q 475 2425 762 2700 
Q 1050 2975 1475 2975 
Q 1700 2975 1862 2912 
Q 2025 2850 2150 2725 
Q 2350 2875 2550 2937 
Q 2750 3000 2975 2975 
L 2975 2500 
z
M 1975 2000 
Q 1975 2250 1850 2400 
Q 1725 2550 1475 2550 
Q 1225 2550 1100 2400 
Q 975 2250 975 2000 
Q 975 1750 1100 1600 
Q 1225 1450 1475 1450 
Q 1725 1450 1850 1600 
Q 1975 1750 1975 2000 
z
M 2400 -75 
Q 2400 25 2287 125 
Q 2175 225 1725 225 
Q 1625 225 1450 237 
Q 1275 250 1050 275 
Q 850 200 775 100 
Q 700 0 700 -100 
Q 700 -250 900 -350 
Q 1100 -450 1600 -450 
Q 2025 -450 2212 -337 
Q 2400 -225 2400 -75 
z
" transform="scale(0.015625)"/>
       <path id="SimHei-72" d="M 2500 2425 
Q 2025 2500 1700 2287 
Q 1375 2075 1150 1550 
L 1150 125 
L 650 125 
L 650 2925 
L 1150 2925 
L 1150 2200 
Q 1375 2600 1712 2787 
Q 2050 2975 2500 2975 
L 2500 2425 
z
" transform="scale(0.015625)"/>
       <path id="SimHei-61" d="M 2875 125 
L 2275 125 
Q 2225 175 2200 262 
Q 2175 350 2175 475 
Q 2000 275 1750 175 
Q 1500 75 1225 75 
Q 825 75 550 275 
Q 275 475 275 850 
Q 275 1225 525 1450 
Q 775 1675 1300 1750 
Q 1650 1800 1912 1875 
Q 2175 1950 2175 2075 
Q 2175 2225 2062 2375 
Q 1950 2525 1575 2525 
Q 1275 2525 1137 2412 
Q 1000 2300 950 2100 
L 400 2100 
Q 450 2500 762 2737 
Q 1075 2975 1575 2975 
Q 2125 2975 2400 2725 
Q 2675 2475 2675 2025 
L 2675 650 
Q 2675 500 2725 375 
Q 2775 250 2875 125 
z
M 2175 1050 
L 2175 1550 
Q 2025 1500 1887 1462 
Q 1750 1425 1425 1375 
Q 1050 1325 937 1200 
Q 825 1075 825 900 
Q 825 750 937 637 
Q 1050 525 1275 525 
Q 1500 525 1762 650 
Q 2025 775 2175 1050 
z
" transform="scale(0.015625)"/>
       <path id="SimHei-64" d="M 2750 125 
L 2250 125 
L 2250 500 
Q 2100 275 1900 175 
Q 1700 75 1425 75 
Q 925 75 575 437 
Q 225 800 225 1525 
Q 225 2250 575 2625 
Q 925 3000 1425 3000 
Q 1700 3000 1900 2887 
Q 2100 2775 2250 2550 
L 2250 4400 
L 2750 4400 
L 2750 125 
z
M 2250 1525 
Q 2250 2000 2037 2275 
Q 1825 2550 1525 2550 
Q 1150 2550 962 2275 
Q 775 2000 775 1525 
Q 775 1050 962 787 
Q 1150 525 1525 525 
Q 1825 525 2037 787 
Q 2250 1050 2250 1525 
z
" transform="scale(0.015625)"/>
       <path id="SimHei-74" d="M 2750 200 
Q 2625 150 2462 112 
Q 2300 75 2025 75 
Q 1575 75 1300 325 
Q 1025 575 1025 1025 
L 1025 2525 
L 175 2525 
L 175 2925 
L 1025 2925 
L 1025 3900 
L 1525 3900 
L 1525 2925 
L 2550 2925 
L 2550 2525 
L 1525 2525 
L 1525 1000 
Q 1525 800 1625 662 
Q 1725 525 2000 525 
Q 2275 525 2450 575 
Q 2625 625 2750 700 
L 2750 200 
z
" transform="scale(0.015625)"/>
       <path id="SimHei-69" d="M 1800 3725 
L 1300 3725 
L 1300 4375 
L 1800 4375 
L 1800 3725 
z
M 1800 125 
L 1300 125 
L 1300 2925 
L 1800 2925 
L 1800 125 
z
" transform="scale(0.015625)"/>
       <path id="SimHei-6f" d="M 2925 1525 
Q 2925 875 2525 475 
Q 2125 75 1575 75 
Q 1025 75 625 475 
Q 225 875 225 1525 
Q 225 2175 625 2575 
Q 1025 2975 1575 2975 
Q 2125 2975 2525 2575 
Q 2925 2175 2925 1525 
z
M 2375 1525 
Q 2375 2025 2125 2275 
Q 1875 2525 1575 2525 
Q 1275 2525 1025 2275 
Q 775 2025 775 1525 
Q 775 1025 1025 775 
Q 1275 525 1575 525 
Q 1875 525 2125 775 
Q 2375 1025 2375 1525 
z
" transform="scale(0.015625)"/>
       <path id="SimHei-6e" d="M 2800 125 
L 2300 125 
L 2300 1925 
Q 2300 2225 2150 2400 
Q 2000 2575 1750 2575 
Q 1425 2575 1137 2237 
Q 850 1900 850 1400 
L 850 125 
L 350 125 
L 350 2925 
L 850 2925 
L 850 2400 
Q 1050 2675 1287 2825 
Q 1525 2975 1900 2975 
Q 2350 2975 2575 2725 
Q 2800 2475 2800 2100 
L 2800 125 
z
" transform="scale(0.015625)"/>
       <path id="SimHei-20" transform="scale(0.015625)"/>
       <path id="SimHei-49" d="M 1850 125 
L 1275 125 
L 1275 4400 
L 1850 4400 
L 1850 125 
z
" transform="scale(0.015625)"/>
       <path id="SimHei-63" d="M 2850 1250 
Q 2850 725 2487 400 
Q 2125 75 1575 75 
Q 1025 75 625 462 
Q 225 850 225 1525 
Q 225 2200 625 2587 
Q 1025 2975 1575 2975 
Q 2125 2975 2450 2687 
Q 2775 2400 2775 2000 
L 2225 2000 
Q 2200 2300 2012 2412 
Q 1825 2525 1575 2525 
Q 1275 2525 1025 2287 
Q 775 2050 775 1525 
Q 775 1000 1025 762 
Q 1275 525 1575 525 
Q 1900 525 2100 700 
Q 2300 875 2300 1250 
L 2850 1250 
z
" transform="scale(0.015625)"/>
       <path id="SimHei-6d" d="M 3050 125 
L 2550 125 
L 2550 2150 
Q 2550 2300 2500 2400 
Q 2450 2500 2300 2500 
Q 2125 2500 1975 2312 
Q 1825 2125 1825 1825 
L 1825 125 
L 1325 125 
L 1325 2150 
Q 1325 2300 1275 2400 
Q 1225 2500 1075 2500 
Q 900 2500 750 2312 
Q 600 2125 600 1825 
L 600 125 
L 100 125 
L 100 2925 
L 600 2925 
L 600 2550 
Q 725 2750 900 2862 
Q 1075 2975 1275 2975 
Q 1475 2975 1612 2862 
Q 1750 2750 1800 2550 
Q 1925 2750 2087 2862 
Q 2250 2975 2450 2975 
Q 2750 2975 2900 2812 
Q 3050 2650 3050 2350 
L 3050 125 
z
" transform="scale(0.015625)"/>
       <path id="DejaVuSans-394" d="M 2188 4044 
L 906 525 
L 3472 525 
L 2188 4044 
z
M 50 0 
L 1831 4666 
L 2547 4666 
L 4325 0 
L 50 0 
z
" transform="scale(0.015625)"/>
       <path id="DejaVuSans-Oblique-79" d="M 1588 -325 
Q 1188 -997 936 -1164 
Q 684 -1331 294 -1331 
L -159 -1331 
L -63 -850 
L 269 -850 
Q 509 -850 678 -719 
Q 847 -588 1056 -206 
L 1234 128 
L 459 3500 
L 1069 3500 
L 1650 819 
L 3256 3500 
L 3859 3500 
L 1588 -325 
z
" transform="scale(0.015625)"/>
      </defs>
      <use xlink:href="#SimHei-44" transform="translate(0 0.09375)"/>
      <use xlink:href="#SimHei-65" transform="translate(50 0.09375)"/>
      <use xlink:href="#SimHei-67" transform="translate(100 0.09375)"/>
      <use xlink:href="#SimHei-72" transform="translate(150 0.09375)"/>
      <use xlink:href="#SimHei-61" transform="translate(200 0.09375)"/>
      <use xlink:href="#SimHei-64" transform="translate(250 0.09375)"/>
      <use xlink:href="#SimHei-61" transform="translate(300 0.09375)"/>
      <use xlink:href="#SimHei-74" transform="translate(350 0.09375)"/>
      <use xlink:href="#SimHei-69" transform="translate(400 0.09375)"/>
      <use xlink:href="#SimHei-6f" transform="translate(450 0.09375)"/>
      <use xlink:href="#SimHei-6e" transform="translate(500 0.09375)"/>
      <use xlink:href="#SimHei-20" transform="translate(550 0.09375)"/>
      <use xlink:href="#SimHei-49" transform="translate(600 0.09375)"/>
      <use xlink:href="#SimHei-6e" transform="translate(650 0.09375)"/>
      <use xlink:href="#SimHei-63" transform="translate(700 0.09375)"/>
      <use xlink:href="#SimHei-72" transform="translate(750 0.09375)"/>
      <use xlink:href="#SimHei-65" transform="translate(800 0.09375)"/>
      <use xlink:href="#SimHei-6d" transform="translate(850 0.09375)"/>
      <use xlink:href="#SimHei-65" transform="translate(900 0.09375)"/>
      <use xlink:href="#SimHei-6e" transform="translate(950 0.09375)"/>
      <use xlink:href="#SimHei-74" transform="translate(1000 0.09375)"/>
      <use xlink:href="#SimHei-20" transform="translate(1050 0.09375)"/>
      <use xlink:href="#DejaVuSans-394" transform="translate(1100 0.09375)"/>
      <use xlink:href="#DejaVuSans-Oblique-79" transform="translate(1168.408203 0.09375)"/>
     </g>
    </g>
   </g>
   <g id="matplotlib.axis_2">
    <g id="ytick_1">
     <g id="line2d_8">
      <path d="M 51.45 365.2 
L 560.445 365.2 
" clip-path="url(#p814d789f0e)" style="fill: none; stroke-dasharray: 3.7,1.6; stroke-dashoffset: 0; stroke: #cccccc; stroke-opacity: 0.4"/>
     </g>
     <g id="text_9">
      <!-- 0.0 -->
      <g style="fill: #262626" transform="translate(20.95 370.0125) scale(0.14 -0.14)">
       <use xlink:href="#SimHei-30"/>
       <use xlink:href="#SimHei-2e" transform="translate(50 0)"/>
       <use xlink:href="#SimHei-30" transform="translate(100 0)"/>
      </g>
     </g>
    </g>
    <g id="ytick_2">
     <g id="line2d_9">
      <path d="M 51.45 310.890775 
L 560.445 310.890775 
" clip-path="url(#p814d789f0e)" style="fill: none; stroke-dasharray: 3.7,1.6; stroke-dashoffset: 0; stroke: #cccccc; stroke-opacity: 0.4"/>
     </g>
     <g id="text_10">
      <!-- 0.5 -->
      <g style="fill: #262626" transform="translate(20.95 315.703275) scale(0.14 -0.14)">
       <use xlink:href="#SimHei-30"/>
       <use xlink:href="#SimHei-2e" transform="translate(50 0)"/>
       <use xlink:href="#SimHei-35" transform="translate(100 0)"/>
      </g>
     </g>
    </g>
    <g id="ytick_3">
     <g id="line2d_10">
      <path d="M 51.45 256.58155 
L 560.445 256.58155 
" clip-path="url(#p814d789f0e)" style="fill: none; stroke-dasharray: 3.7,1.6; stroke-dashoffset: 0; stroke: #cccccc; stroke-opacity: 0.4"/>
     </g>
     <g id="text_11">
      <!-- 1.0 -->
      <g style="fill: #262626" transform="translate(20.95 261.39405) scale(0.14 -0.14)">
       <use xlink:href="#SimHei-31"/>
       <use xlink:href="#SimHei-2e" transform="translate(50 0)"/>
       <use xlink:href="#SimHei-30" transform="translate(100 0)"/>
      </g>
     </g>
    </g>
    <g id="ytick_4">
     <g id="line2d_11">
      <path d="M 51.45 202.272325 
L 560.445 202.272325 
" clip-path="url(#p814d789f0e)" style="fill: none; stroke-dasharray: 3.7,1.6; stroke-dashoffset: 0; stroke: #cccccc; stroke-opacity: 0.4"/>
     </g>
     <g id="text_12">
      <!-- 1.5 -->
      <g style="fill: #262626" transform="translate(20.95 207.084825) scale(0.14 -0.14)">
       <use xlink:href="#SimHei-31"/>
       <use xlink:href="#SimHei-2e" transform="translate(50 0)"/>
       <use xlink:href="#SimHei-35" transform="translate(100 0)"/>
      </g>
     </g>
    </g>
    <g id="ytick_5">
     <g id="line2d_12">
      <path d="M 51.45 147.963099 
L 560.445 147.963099 
" clip-path="url(#p814d789f0e)" style="fill: none; stroke-dasharray: 3.7,1.6; stroke-dashoffset: 0; stroke: #cccccc; stroke-opacity: 0.4"/>
     </g>
     <g id="text_13">
      <!-- 2.0 -->
      <g style="fill: #262626" transform="translate(20.95 152.775599) scale(0.14 -0.14)">
       <use xlink:href="#SimHei-32"/>
       <use xlink:href="#SimHei-2e" transform="translate(50 0)"/>
       <use xlink:href="#SimHei-30" transform="translate(100 0)"/>
      </g>
     </g>
    </g>
    <g id="ytick_6">
     <g id="line2d_13">
      <path d="M 51.45 93.653874 
L 560.445 93.653874 
" clip-path="url(#p814d789f0e)" style="fill: none; stroke-dasharray: 3.7,1.6; stroke-dashoffset: 0; stroke: #cccccc; stroke-opacity: 0.4"/>
     </g>
     <g id="text_14">
      <!-- 2.5 -->
      <g style="fill: #262626" transform="translate(20.95 98.466374) scale(0.14 -0.14)">
       <use xlink:href="#SimHei-32"/>
       <use xlink:href="#SimHei-2e" transform="translate(50 0)"/>
       <use xlink:href="#SimHei-35" transform="translate(100 0)"/>
      </g>
     </g>
    </g>
    <g id="ytick_7">
     <g id="line2d_14">
      <path d="M 51.45 39.344649 
L 560.445 39.344649 
" clip-path="url(#p814d789f0e)" style="fill: none; stroke-dasharray: 3.7,1.6; stroke-dashoffset: 0; stroke: #cccccc; stroke-opacity: 0.4"/>
     </g>
     <g id="text_15">
      <!-- 3.0 -->
      <g style="fill: #262626" transform="translate(20.95 44.157149) scale(0.14 -0.14)">
       <defs>
        <path id="SimHei-33" d="M 250 1225 
L 700 1300 
Q 800 975 1025 762 
Q 1250 550 1587 562 
Q 1925 575 2125 837 
Q 2325 1100 2300 1437 
Q 2275 1775 2037 1962 
Q 1800 2150 1275 2225 
L 1275 2550 
Q 1800 2600 2037 2825 
Q 2275 3050 2250 3412 
Q 2225 3775 1925 3937 
Q 1625 4100 1287 3975 
Q 950 3850 750 3275 
L 300 3350 
Q 450 3800 712 4100 
Q 975 4400 1425 4450 
Q 1875 4500 2212 4337 
Q 2550 4175 2687 3837 
Q 2825 3500 2725 3100 
Q 2625 2700 2150 2400 
Q 2500 2250 2687 1950 
Q 2875 1650 2812 1162 
Q 2750 675 2375 375 
Q 2000 75 1525 87 
Q 1050 100 700 387 
Q 350 675 250 1225 
z
" transform="scale(0.015625)"/>
       </defs>
       <use xlink:href="#SimHei-33"/>
       <use xlink:href="#SimHei-2e" transform="translate(50 0)"/>
       <use xlink:href="#SimHei-30" transform="translate(100 0)"/>
      </g>
     </g>
    </g>
    <g id="text_16">
     <!-- Probability Density -->
     <g style="fill: #262626" transform="translate(15.45 251.59) rotate(-90) scale(0.12 -0.12)">
      <defs>
       <path id="SimHei-50" d="M 2950 3100 
Q 2950 2500 2600 2150 
Q 2250 1800 1625 1800 
L 900 1800 
L 900 125 
L 325 125 
L 325 4400 
L 1625 4400 
Q 2250 4400 2600 4050 
Q 2950 3700 2950 3100 
z
M 2375 3100 
Q 2375 3575 2150 3750 
Q 1925 3925 1475 3925 
L 900 3925 
L 900 2275 
L 1475 2275 
Q 1925 2275 2150 2450 
Q 2375 2625 2375 3100 
z
" transform="scale(0.015625)"/>
       <path id="SimHei-62" d="M 2825 1525 
Q 2825 800 2475 437 
Q 2125 75 1625 75 
Q 1350 75 1150 175 
Q 950 275 800 500 
L 800 125 
L 300 125 
L 300 4400 
L 800 4400 
L 800 2550 
Q 950 2775 1150 2887 
Q 1350 3000 1625 3000 
Q 2125 3000 2475 2625 
Q 2825 2250 2825 1525 
z
M 2275 1525 
Q 2275 2000 2087 2275 
Q 1900 2550 1525 2550 
Q 1225 2550 1012 2275 
Q 800 2000 800 1525 
Q 800 1050 1012 787 
Q 1225 525 1525 525 
Q 1900 525 2087 787 
Q 2275 1050 2275 1525 
z
" transform="scale(0.015625)"/>
       <path id="SimHei-6c" d="M 1825 125 
L 1325 125 
L 1325 4400 
L 1825 4400 
L 1825 125 
z
" transform="scale(0.015625)"/>
       <path id="SimHei-79" d="M 2900 2925 
L 1750 -100 
Q 1650 -450 1450 -625 
Q 1250 -800 950 -800 
Q 825 -800 712 -787 
Q 600 -775 500 -725 
L 500 -225 
Q 600 -275 700 -300 
Q 800 -325 875 -325 
Q 1075 -325 1150 -262 
Q 1225 -200 1300 25 
L 200 2925 
L 750 2925 
L 1550 725 
L 1575 725 
L 2350 2925 
L 2900 2925 
z
" transform="scale(0.015625)"/>
       <path id="SimHei-73" d="M 2750 900 
Q 2750 500 2437 287 
Q 2125 75 1650 75 
Q 1050 75 725 312 
Q 400 550 400 1000 
L 900 1000 
Q 900 700 1112 600 
Q 1325 500 1625 500 
Q 1925 500 2075 612 
Q 2225 725 2225 900 
Q 2225 1025 2100 1150 
Q 1975 1275 1475 1350 
Q 900 1425 687 1637 
Q 475 1850 475 2200 
Q 475 2500 762 2737 
Q 1050 2975 1600 2975 
Q 2100 2975 2387 2750 
Q 2675 2525 2675 2150 
L 2175 2150 
Q 2175 2375 2012 2462 
Q 1850 2550 1600 2550 
Q 1275 2550 1137 2437 
Q 1000 2325 1000 2175 
Q 1000 2000 1125 1900 
Q 1250 1800 1650 1750 
Q 2300 1650 2525 1437 
Q 2750 1225 2750 900 
z
" transform="scale(0.015625)"/>
      </defs>
      <use xlink:href="#SimHei-50"/>
      <use xlink:href="#SimHei-72" transform="translate(50 0)"/>
      <use xlink:href="#SimHei-6f" transform="translate(100 0)"/>
      <use xlink:href="#SimHei-62" transform="translate(150 0)"/>
      <use xlink:href="#SimHei-61" transform="translate(200 0)"/>
      <use xlink:href="#SimHei-62" transform="translate(250 0)"/>
      <use xlink:href="#SimHei-69" transform="translate(300 0)"/>
      <use xlink:href="#SimHei-6c" transform="translate(350 0)"/>
      <use xlink:href="#SimHei-69" transform="translate(400 0)"/>
      <use xlink:href="#SimHei-74" transform="translate(450 0)"/>
      <use xlink:href="#SimHei-79" transform="translate(500 0)"/>
      <use xlink:href="#SimHei-20" transform="translate(550 0)"/>
      <use xlink:href="#SimHei-44" transform="translate(600 0)"/>
      <use xlink:href="#SimHei-65" transform="translate(650 0)"/>
      <use xlink:href="#SimHei-6e" transform="translate(700 0)"/>
      <use xlink:href="#SimHei-73" transform="translate(750 0)"/>
      <use xlink:href="#SimHei-69" transform="translate(800 0)"/>
      <use xlink:href="#SimHei-74" transform="translate(850 0)"/>
      <use xlink:href="#SimHei-79" transform="translate(900 0)"/>
     </g>
    </g>
   </g>
   <g id="patch_3">
    <path d="M 74.586136 365.2 
L 80.396944 365.2 
L 80.396944 343.535238 
L 74.586136 343.535238 
z
" clip-path="url(#p814d789f0e)" style="fill: #4682b4; opacity: 0.6; stroke: #ffffff; stroke-linejoin: miter"/>
   </g>
   <g id="patch_4">
    <path d="M 80.396944 365.2 
L 86.207751 365.2 
L 86.207751 300.205714 
L 80.396944 300.205714 
z
" clip-path="url(#p814d789f0e)" style="fill: #4682b4; opacity: 0.6; stroke: #ffffff; stroke-linejoin: miter"/>
   </g>
   <g id="patch_5">
    <path d="M 86.207751 365.2 
L 92.018558 365.2 
L 92.018558 213.546667 
L 86.207751 213.546667 
z
" clip-path="url(#p814d789f0e)" style="fill: #4682b4; opacity: 0.6; stroke: #ffffff; stroke-linejoin: miter"/>
   </g>
   <g id="patch_6">
    <path d="M 92.018558 365.2 
L 97.829365 365.2 
L 97.829365 126.887619 
L 92.018558 126.887619 
z
" clip-path="url(#p814d789f0e)" style="fill: #4682b4; opacity: 0.6; stroke: #ffffff; stroke-linejoin: miter"/>
   </g>
   <g id="patch_7">
    <path d="M 97.829365 365.2 
L 103.640172 365.2 
L 103.640172 235.211429 
L 97.829365 235.211429 
z
" clip-path="url(#p814d789f0e)" style="fill: #4682b4; opacity: 0.6; stroke: #ffffff; stroke-linejoin: miter"/>
   </g>
   <g id="patch_8">
    <path d="M 103.640172 365.2 
L 109.45098 365.2 
L 109.45098 235.211429 
L 103.640172 235.211429 
z
" clip-path="url(#p814d789f0e)" style="fill: #4682b4; opacity: 0.6; stroke: #ffffff; stroke-linejoin: miter"/>
   </g>
   <g id="patch_9">
    <path d="M 109.45098 365.2 
L 115.261787 365.2 
L 115.261787 126.887619 
L 109.45098 126.887619 
z
" clip-path="url(#p814d789f0e)" style="fill: #4682b4; opacity: 0.6; stroke: #ffffff; stroke-linejoin: miter"/>
   </g>
   <g id="patch_10">
    <path d="M 115.261787 365.2 
L 121.072594 365.2 
L 121.072594 61.893333 
L 115.261787 61.893333 
z
" clip-path="url(#p814d789f0e)" style="fill: #4682b4; opacity: 0.6; stroke: #ffffff; stroke-linejoin: miter"/>
   </g>
   <g id="patch_11">
    <path d="M 121.072594 365.2 
L 126.883401 365.2 
L 126.883401 126.887619 
L 121.072594 126.887619 
z
" clip-path="url(#p814d789f0e)" style="fill: #4682b4; opacity: 0.6; stroke: #ffffff; stroke-linejoin: miter"/>
   </g>
   <g id="patch_12">
    <path d="M 126.883401 365.2 
L 132.694208 365.2 
L 132.694208 83.558095 
L 126.883401 83.558095 
z
" clip-path="url(#p814d789f0e)" style="fill: #4682b4; opacity: 0.6; stroke: #ffffff; stroke-linejoin: miter"/>
   </g>
   <g id="patch_13">
    <path d="M 132.694208 365.2 
L 138.505016 365.2 
L 138.505016 126.887619 
L 132.694208 126.887619 
z
" clip-path="url(#p814d789f0e)" style="fill: #4682b4; opacity: 0.6; stroke: #ffffff; stroke-linejoin: miter"/>
   </g>
   <g id="patch_14">
    <path d="M 138.505016 365.2 
L 144.315823 365.2 
L 144.315823 61.893333 
L 138.505016 61.893333 
z
" clip-path="url(#p814d789f0e)" style="fill: #4682b4; opacity: 0.6; stroke: #ffffff; stroke-linejoin: miter"/>
   </g>
   <g id="patch_15">
    <path d="M 144.315823 365.2 
L 150.12663 365.2 
L 150.12663 40.228571 
L 144.315823 40.228571 
z
" clip-path="url(#p814d789f0e)" style="fill: #4682b4; opacity: 0.6; stroke: #ffffff; stroke-linejoin: miter"/>
   </g>
   <g id="patch_16">
    <path d="M 150.12663 365.2 
L 155.937437 365.2 
L 155.937437 213.546667 
L 150.12663 213.546667 
z
" clip-path="url(#p814d789f0e)" style="fill: #4682b4; opacity: 0.6; stroke: #ffffff; stroke-linejoin: miter"/>
   </g>
   <g id="patch_17">
    <path d="M 155.937437 365.2 
L 161.748244 365.2 
L 161.748244 213.546667 
L 155.937437 213.546667 
z
" clip-path="url(#p814d789f0e)" style="fill: #4682b4; opacity: 0.6; stroke: #ffffff; stroke-linejoin: miter"/>
   </g>
   <g id="patch_18">
    <path d="M 161.748244 365.2 
L 167.559052 365.2 
L 167.559052 148.552381 
L 161.748244 148.552381 
z
" clip-path="url(#p814d789f0e)" style="fill: #4682b4; opacity: 0.6; stroke: #ffffff; stroke-linejoin: miter"/>
   </g>
   <g id="patch_19">
    <path d="M 167.559052 365.2 
L 173.369859 365.2 
L 173.369859 213.546667 
L 167.559052 213.546667 
z
" clip-path="url(#p814d789f0e)" style="fill: #4682b4; opacity: 0.6; stroke: #ffffff; stroke-linejoin: miter"/>
   </g>
   <g id="patch_20">
    <path d="M 173.369859 365.2 
L 179.180666 365.2 
L 179.180666 83.558095 
L 173.369859 83.558095 
z
" clip-path="url(#p814d789f0e)" style="fill: #4682b4; opacity: 0.6; stroke: #ffffff; stroke-linejoin: miter"/>
   </g>
   <g id="patch_21">
    <path d="M 179.180666 365.2 
L 184.991473 365.2 
L 184.991473 191.881905 
L 179.180666 191.881905 
z
" clip-path="url(#p814d789f0e)" style="fill: #4682b4; opacity: 0.6; stroke: #ffffff; stroke-linejoin: miter"/>
   </g>
   <g id="patch_22">
    <path d="M 184.991473 365.2 
L 190.80228 365.2 
L 190.80228 191.881905 
L 184.991473 191.881905 
z
" clip-path="url(#p814d789f0e)" style="fill: #4682b4; opacity: 0.6; stroke: #ffffff; stroke-linejoin: miter"/>
   </g>
   <g id="patch_23">
    <path d="M 190.80228 365.2 
L 196.613088 365.2 
L 196.613088 256.87619 
L 190.80228 256.87619 
z
" clip-path="url(#p814d789f0e)" style="fill: #4682b4; opacity: 0.6; stroke: #ffffff; stroke-linejoin: miter"/>
   </g>
   <g id="patch_24">
    <path d="M 196.613088 365.2 
L 202.423895 365.2 
L 202.423895 256.87619 
L 196.613088 256.87619 
z
" clip-path="url(#p814d789f0e)" style="fill: #4682b4; opacity: 0.6; stroke: #ffffff; stroke-linejoin: miter"/>
   </g>
   <g id="patch_25">
    <path d="M 202.423895 365.2 
L 208.234702 365.2 
L 208.234702 235.211429 
L 202.423895 235.211429 
z
" clip-path="url(#p814d789f0e)" style="fill: #4682b4; opacity: 0.6; stroke: #ffffff; stroke-linejoin: miter"/>
   </g>
   <g id="patch_26">
    <path d="M 208.234702 365.2 
L 214.045509 365.2 
L 214.045509 321.870476 
L 208.234702 321.870476 
z
" clip-path="url(#p814d789f0e)" style="fill: #4682b4; opacity: 0.6; stroke: #ffffff; stroke-linejoin: miter"/>
   </g>
   <g id="patch_27">
    <path d="M 214.045509 365.2 
L 219.856316 365.2 
L 219.856316 300.205714 
L 214.045509 300.205714 
z
" clip-path="url(#p814d789f0e)" style="fill: #4682b4; opacity: 0.6; stroke: #ffffff; stroke-linejoin: miter"/>
   </g>
   <g id="patch_28">
    <path d="M 219.856316 365.2 
L 225.667123 365.2 
L 225.667123 321.870476 
L 219.856316 321.870476 
z
" clip-path="url(#p814d789f0e)" style="fill: #4682b4; opacity: 0.6; stroke: #ffffff; stroke-linejoin: miter"/>
   </g>
   <g id="patch_29">
    <path d="M 225.667123 365.2 
L 231.477931 365.2 
L 231.477931 235.211429 
L 225.667123 235.211429 
z
" clip-path="url(#p814d789f0e)" style="fill: #4682b4; opacity: 0.6; stroke: #ffffff; stroke-linejoin: miter"/>
   </g>
   <g id="patch_30">
    <path d="M 231.477931 365.2 
L 237.288738 365.2 
L 237.288738 321.870476 
L 231.477931 321.870476 
z
" clip-path="url(#p814d789f0e)" style="fill: #4682b4; opacity: 0.6; stroke: #ffffff; stroke-linejoin: miter"/>
   </g>
   <g id="patch_31">
    <path d="M 237.288738 365.2 
L 243.099545 365.2 
L 243.099545 278.540952 
L 237.288738 278.540952 
z
" clip-path="url(#p814d789f0e)" style="fill: #4682b4; opacity: 0.6; stroke: #ffffff; stroke-linejoin: miter"/>
   </g>
   <g id="patch_32">
    <path d="M 243.099545 365.2 
L 248.910352 365.2 
L 248.910352 343.535238 
L 243.099545 343.535238 
z
" clip-path="url(#p814d789f0e)" style="fill: #4682b4; opacity: 0.6; stroke: #ffffff; stroke-linejoin: miter"/>
   </g>
   <g id="patch_33">
    <path d="M 248.910352 365.2 
L 254.721159 365.2 
L 254.721159 278.540952 
L 248.910352 278.540952 
z
" clip-path="url(#p814d789f0e)" style="fill: #4682b4; opacity: 0.6; stroke: #ffffff; stroke-linejoin: miter"/>
   </g>
   <g id="patch_34">
    <path d="M 254.721159 365.2 
L 260.531967 365.2 
L 260.531967 365.2 
L 254.721159 365.2 
z
" clip-path="url(#p814d789f0e)" style="fill: #4682b4; opacity: 0.6; stroke: #ffffff; stroke-linejoin: miter"/>
   </g>
   <g id="patch_35">
    <path d="M 260.531967 365.2 
L 266.342774 365.2 
L 266.342774 321.870476 
L 260.531967 321.870476 
z
" clip-path="url(#p814d789f0e)" style="fill: #4682b4; opacity: 0.6; stroke: #ffffff; stroke-linejoin: miter"/>
   </g>
   <g id="patch_36">
    <path d="M 266.342774 365.2 
L 272.153581 365.2 
L 272.153581 300.205714 
L 266.342774 300.205714 
z
" clip-path="url(#p814d789f0e)" style="fill: #4682b4; opacity: 0.6; stroke: #ffffff; stroke-linejoin: miter"/>
   </g>
   <g id="patch_37">
    <path d="M 272.153581 365.2 
L 277.964388 365.2 
L 277.964388 321.870476 
L 272.153581 321.870476 
z
" clip-path="url(#p814d789f0e)" style="fill: #4682b4; opacity: 0.6; stroke: #ffffff; stroke-linejoin: miter"/>
   </g>
   <g id="patch_38">
    <path d="M 277.964388 365.2 
L 283.775195 365.2 
L 283.775195 343.535238 
L 277.964388 343.535238 
z
" clip-path="url(#p814d789f0e)" style="fill: #4682b4; opacity: 0.6; stroke: #ffffff; stroke-linejoin: miter"/>
   </g>
   <g id="patch_39">
    <path d="M 283.775195 365.2 
L 289.586003 365.2 
L 289.586003 365.2 
L 283.775195 365.2 
z
" clip-path="url(#p814d789f0e)" style="fill: #4682b4; opacity: 0.6; stroke: #ffffff; stroke-linejoin: miter"/>
   </g>
   <g id="patch_40">
    <path d="M 289.586003 365.2 
L 295.39681 365.2 
L 295.39681 365.2 
L 289.586003 365.2 
z
" clip-path="url(#p814d789f0e)" style="fill: #4682b4; opacity: 0.6; stroke: #ffffff; stroke-linejoin: miter"/>
   </g>
   <g id="patch_41">
    <path d="M 295.39681 365.2 
L 301.207617 365.2 
L 301.207617 321.870476 
L 295.39681 321.870476 
z
" clip-path="url(#p814d789f0e)" style="fill: #4682b4; opacity: 0.6; stroke: #ffffff; stroke-linejoin: miter"/>
   </g>
   <g id="patch_42">
    <path d="M 301.207617 365.2 
L 307.018424 365.2 
L 307.018424 365.2 
L 301.207617 365.2 
z
" clip-path="url(#p814d789f0e)" style="fill: #4682b4; opacity: 0.6; stroke: #ffffff; stroke-linejoin: miter"/>
   </g>
   <g id="patch_43">
    <path d="M 307.018424 365.2 
L 312.829231 365.2 
L 312.829231 343.535238 
L 307.018424 343.535238 
z
" clip-path="url(#p814d789f0e)" style="fill: #4682b4; opacity: 0.6; stroke: #ffffff; stroke-linejoin: miter"/>
   </g>
   <g id="patch_44">
    <path d="M 312.829231 365.2 
L 318.640039 365.2 
L 318.640039 343.535238 
L 312.829231 343.535238 
z
" clip-path="url(#p814d789f0e)" style="fill: #4682b4; opacity: 0.6; stroke: #ffffff; stroke-linejoin: miter"/>
   </g>
   <g id="patch_45">
    <path d="M 318.640039 365.2 
L 324.450846 365.2 
L 324.450846 321.870476 
L 318.640039 321.870476 
z
" clip-path="url(#p814d789f0e)" style="fill: #4682b4; opacity: 0.6; stroke: #ffffff; stroke-linejoin: miter"/>
   </g>
   <g id="patch_46">
    <path d="M 324.450846 365.2 
L 330.261653 365.2 
L 330.261653 343.535238 
L 324.450846 343.535238 
z
" clip-path="url(#p814d789f0e)" style="fill: #4682b4; opacity: 0.6; stroke: #ffffff; stroke-linejoin: miter"/>
   </g>
   <g id="patch_47">
    <path d="M 330.261653 365.2 
L 336.07246 365.2 
L 336.07246 365.2 
L 330.261653 365.2 
z
" clip-path="url(#p814d789f0e)" style="fill: #4682b4; opacity: 0.6; stroke: #ffffff; stroke-linejoin: miter"/>
   </g>
   <g id="patch_48">
    <path d="M 336.07246 365.2 
L 341.883267 365.2 
L 341.883267 365.2 
L 336.07246 365.2 
z
" clip-path="url(#p814d789f0e)" style="fill: #4682b4; opacity: 0.6; stroke: #ffffff; stroke-linejoin: miter"/>
   </g>
   <g id="patch_49">
    <path d="M 341.883267 365.2 
L 347.694075 365.2 
L 347.694075 365.2 
L 341.883267 365.2 
z
" clip-path="url(#p814d789f0e)" style="fill: #4682b4; opacity: 0.6; stroke: #ffffff; stroke-linejoin: miter"/>
   </g>
   <g id="patch_50">
    <path d="M 347.694075 365.2 
L 353.504882 365.2 
L 353.504882 343.535238 
L 347.694075 343.535238 
z
" clip-path="url(#p814d789f0e)" style="fill: #4682b4; opacity: 0.6; stroke: #ffffff; stroke-linejoin: miter"/>
   </g>
   <g id="patch_51">
    <path d="M 353.504882 365.2 
L 359.315689 365.2 
L 359.315689 365.2 
L 353.504882 365.2 
z
" clip-path="url(#p814d789f0e)" style="fill: #4682b4; opacity: 0.6; stroke: #ffffff; stroke-linejoin: miter"/>
   </g>
   <g id="patch_52">
    <path d="M 359.315689 365.2 
L 365.126496 365.2 
L 365.126496 343.535238 
L 359.315689 343.535238 
z
" clip-path="url(#p814d789f0e)" style="fill: #4682b4; opacity: 0.6; stroke: #ffffff; stroke-linejoin: miter"/>
   </g>
   <g id="line2d_15">
    <path d="M 74.586136 323.867211 
L 77.368037 314.325103 
L 80.149937 303.807064 
L 82.931837 292.426197 
L 86.641037 276.152427 
L 91.277537 254.588098 
L 102.405138 202.005265 
L 106.114338 185.648461 
L 108.896238 174.136348 
L 111.678139 163.406215 
L 114.460039 153.558401 
L 117.241939 144.673591 
L 119.096539 139.316354 
L 120.951139 134.428047 
L 122.805739 130.018409 
L 124.660339 126.093698 
L 126.514939 122.656864 
L 128.36954 119.707753 
L 130.22414 117.243318 
L 132.07874 115.257844 
L 133.93334 113.743181 
L 135.78794 112.68898 
L 137.64254 112.082926 
L 139.49714 111.91097 
L 141.35174 112.157563 
L 143.20634 112.805869 
L 145.060941 113.837981 
L 146.915541 115.235122 
L 148.770141 116.977838 
L 150.624741 119.046173 
L 152.479341 121.41984 
L 154.333941 124.078371 
L 157.115841 128.555451 
L 159.897741 133.558648 
L 162.679642 139.020549 
L 166.388842 146.903938 
L 170.098042 155.339172 
L 174.734542 166.450645 
L 181.225643 182.636937 
L 195.135143 217.503661 
L 200.698944 230.837861 
L 206.262744 243.563418 
L 210.899244 253.624327 
L 215.535745 263.145727 
L 220.172245 272.102064 
L 224.808745 280.481172 
L 228.517945 286.76779 
L 232.227146 292.687725 
L 235.936346 298.247627 
L 239.645546 303.456596 
L 243.354746 308.325681 
L 247.063947 312.867435 
L 250.773147 317.095524 
L 254.482347 321.024386 
L 258.191547 324.668951 
L 261.900747 328.044384 
L 265.609948 331.165891 
L 269.319148 334.048541 
L 273.955648 337.33847 
L 278.592148 340.306316 
L 283.228649 342.978933 
L 287.865149 345.381815 
L 292.501649 347.538979 
L 297.138149 349.472901 
L 302.70195 351.52827 
L 308.26575 353.325411 
L 313.82955 354.894403 
L 320.320651 356.472535 
L 326.811751 357.815137 
L 334.230152 359.103869 
L 341.648552 360.171643 
L 349.994253 361.154113 
L 359.267253 362.024645 
L 370.394854 362.827454 
L 382.449755 363.470721 
L 397.286555 364.028525 
L 414.905256 364.461934 
L 438.087758 364.797284 
L 470.54326 365.026433 
L 524.326663 365.155965 
L 537.308864 365.168214 
L 537.308864 365.168214 
" clip-path="url(#p814d789f0e)" style="fill: none; stroke: #c44e52; stroke-width: 2.5; stroke-linecap: round"/>
   </g>
   <g id="patch_53">
    <path d="M 51.45 365.2 
L 51.45 23.98 
" style="fill: none; stroke: #cccccc; stroke-width: 1.25; stroke-linejoin: miter; stroke-linecap: square"/>
   </g>
   <g id="patch_54">
    <path d="M 560.445 365.2 
L 560.445 23.98 
" style="fill: none; stroke: #cccccc; stroke-width: 1.25; stroke-linejoin: miter; stroke-linecap: square"/>
   </g>
   <g id="patch_55">
    <path d="M 51.45 365.2 
L 560.445 365.2 
" style="fill: none; stroke: #cccccc; stroke-width: 1.25; stroke-linejoin: miter; stroke-linecap: square"/>
   </g>
   <g id="patch_56">
    <path d="M 51.45 23.98 
L 560.445 23.98 
" style="fill: none; stroke: #cccccc; stroke-width: 1.25; stroke-linejoin: miter; stroke-linecap: square"/>
   </g>
   <g id="text_17">
    <!-- Degradation Increments Marginal PDF -->
    <g style="fill: #262626" transform="translate(183.4475 17.98) scale(0.14 -0.14)">
     <defs>
      <path id="SimHei-4d" d="M 2925 125 
L 2425 125 
L 2425 3175 
L 2375 3175 
L 1775 125 
L 1375 125 
L 775 3175 
L 725 3175 
L 725 125 
L 225 125 
L 225 4400 
L 1000 4400 
L 1550 1575 
L 1600 1575 
L 2150 4400 
L 2925 4400 
L 2925 125 
z
" transform="scale(0.015625)"/>
      <path id="SimHei-46" d="M 2925 3925 
L 875 3925 
L 875 2525 
L 2425 2525 
L 2425 2050 
L 875 2050 
L 875 125 
L 300 125 
L 300 4400 
L 2925 4400 
L 2925 3925 
z
" transform="scale(0.015625)"/>
     </defs>
     <use xlink:href="#SimHei-44"/>
     <use xlink:href="#SimHei-65" transform="translate(50 0)"/>
     <use xlink:href="#SimHei-67" transform="translate(100 0)"/>
     <use xlink:href="#SimHei-72" transform="translate(150 0)"/>
     <use xlink:href="#SimHei-61" transform="translate(200 0)"/>
     <use xlink:href="#SimHei-64" transform="translate(250 0)"/>
     <use xlink:href="#SimHei-61" transform="translate(300 0)"/>
     <use xlink:href="#SimHei-74" transform="translate(350 0)"/>
     <use xlink:href="#SimHei-69" transform="translate(400 0)"/>
     <use xlink:href="#SimHei-6f" transform="translate(450 0)"/>
     <use xlink:href="#SimHei-6e" transform="translate(500 0)"/>
     <use xlink:href="#SimHei-20" transform="translate(550 0)"/>
     <use xlink:href="#SimHei-49" transform="translate(600 0)"/>
     <use xlink:href="#SimHei-6e" transform="translate(650 0)"/>
     <use xlink:href="#SimHei-63" transform="translate(700 0)"/>
     <use xlink:href="#SimHei-72" transform="translate(750 0)"/>
     <use xlink:href="#SimHei-65" transform="translate(800 0)"/>
     <use xlink:href="#SimHei-6d" transform="translate(850 0)"/>
     <use xlink:href="#SimHei-65" transform="translate(900 0)"/>
     <use xlink:href="#SimHei-6e" transform="translate(950 0)"/>
     <use xlink:href="#SimHei-74" transform="translate(1000 0)"/>
     <use xlink:href="#SimHei-73" transform="translate(1050 0)"/>
     <use xlink:href="#SimHei-20" transform="translate(1100 0)"/>
     <use xlink:href="#SimHei-4d" transform="translate(1150 0)"/>
     <use xlink:href="#SimHei-61" transform="translate(1200 0)"/>
     <use xlink:href="#SimHei-72" transform="translate(1250 0)"/>
     <use xlink:href="#SimHei-67" transform="translate(1300 0)"/>
     <use xlink:href="#SimHei-69" transform="translate(1350 0)"/>
     <use xlink:href="#SimHei-6e" transform="translate(1400 0)"/>
     <use xlink:href="#SimHei-61" transform="translate(1450 0)"/>
     <use xlink:href="#SimHei-6c" transform="translate(1500 0)"/>
     <use xlink:href="#SimHei-20" transform="translate(1550 0)"/>
     <use xlink:href="#SimHei-50" transform="translate(1600 0)"/>
     <use xlink:href="#SimHei-44" transform="translate(1650 0)"/>
     <use xlink:href="#SimHei-46" transform="translate(1700 0)"/>
    </g>
   </g>
   <g id="legend_1">
    <g id="patch_57">
     <path d="M 380.045 62.82375 
L 552.745 62.82375 
Q 554.945 62.82375 554.945 60.62375 
L 554.945 31.68 
Q 554.945 29.48 552.745 29.48 
L 380.045 29.48 
Q 377.845 29.48 377.845 31.68 
L 377.845 60.62375 
Q 377.845 62.82375 380.045 62.82375 
z
" style="fill: #ffffff; opacity: 0.8; stroke: #cccccc; stroke-linejoin: miter"/>
    </g>
    <g id="patch_58">
     <path d="M 382.245 41.58 
L 404.245 41.58 
L 404.245 33.88 
L 382.245 33.88 
z
" style="fill: #4682b4; opacity: 0.6; stroke: #ffffff; stroke-linejoin: miter"/>
    </g>
    <g id="text_18">
     <!-- Empirical Increments -->
     <g style="fill: #262626" transform="translate(413.045 41.58) scale(0.11 -0.11)">
      <defs>
       <path id="SimHei-45" d="M 2900 125 
L 350 125 
L 350 4400 
L 2775 4400 
L 2775 3925 
L 925 3925 
L 925 2600 
L 2625 2600 
L 2625 2125 
L 925 2125 
L 925 600 
L 2900 600 
L 2900 125 
z
" transform="scale(0.015625)"/>
       <path id="SimHei-70" d="M 2825 1525 
Q 2825 800 2475 425 
Q 2125 50 1625 50 
Q 1350 50 1150 162 
Q 950 275 800 500 
L 800 -800 
L 300 -800 
L 300 2925 
L 800 2925 
L 800 2550 
Q 950 2775 1150 2875 
Q 1350 2975 1625 2975 
Q 2125 2975 2475 2612 
Q 2825 2250 2825 1525 
z
M 2275 1525 
Q 2275 2000 2087 2262 
Q 1900 2525 1525 2525 
Q 1225 2525 1012 2262 
Q 800 2000 800 1525 
Q 800 1050 1012 775 
Q 1225 500 1525 500 
Q 1900 500 2087 775 
Q 2275 1050 2275 1525 
z
" transform="scale(0.015625)"/>
      </defs>
      <use xlink:href="#SimHei-45"/>
      <use xlink:href="#SimHei-6d" transform="translate(50 0)"/>
      <use xlink:href="#SimHei-70" transform="translate(100 0)"/>
      <use xlink:href="#SimHei-69" transform="translate(150 0)"/>
      <use xlink:href="#SimHei-72" transform="translate(200 0)"/>
      <use xlink:href="#SimHei-69" transform="translate(250 0)"/>
      <use xlink:href="#SimHei-63" transform="translate(300 0)"/>
      <use xlink:href="#SimHei-61" transform="translate(350 0)"/>
      <use xlink:href="#SimHei-6c" transform="translate(400 0)"/>
      <use xlink:href="#SimHei-20" transform="translate(450 0)"/>
      <use xlink:href="#SimHei-49" transform="translate(500 0)"/>
      <use xlink:href="#SimHei-6e" transform="translate(550 0)"/>
      <use xlink:href="#SimHei-63" transform="translate(600 0)"/>
      <use xlink:href="#SimHei-72" transform="translate(650 0)"/>
      <use xlink:href="#SimHei-65" transform="translate(700 0)"/>
      <use xlink:href="#SimHei-6d" transform="translate(750 0)"/>
      <use xlink:href="#SimHei-65" transform="translate(800 0)"/>
      <use xlink:href="#SimHei-6e" transform="translate(850 0)"/>
      <use xlink:href="#SimHei-74" transform="translate(900 0)"/>
      <use xlink:href="#SimHei-73" transform="translate(950 0)"/>
     </g>
    </g>
    <g id="line2d_16">
     <path d="M 382.245 53.19875 
L 393.245 53.19875 
L 404.245 53.19875 
" style="fill: none; stroke: #c44e52; stroke-width: 2.5; stroke-linecap: round"/>
    </g>
    <g id="text_19">
     <!-- Marginal PDF (Beta Prime) -->
     <g style="fill: #262626" transform="translate(413.045 57.04875) scale(0.11 -0.11)">
      <defs>
       <path id="SimHei-28" d="M 2975 -200 
L 2700 -475 
Q 2075 125 1762 775 
Q 1450 1425 1450 2250 
Q 1450 3075 1762 3725 
Q 2075 4375 2700 5000 
L 2975 4725 
Q 2400 4175 2112 3587 
Q 1825 3000 1825 2250 
Q 1825 1500 2112 912 
Q 2400 325 2975 -200 
z
" transform="scale(0.015625)"/>
       <path id="SimHei-42" d="M 2950 1400 
Q 2950 675 2550 400 
Q 2150 125 1525 125 
L 275 125 
L 275 4400 
L 1575 4400 
Q 2200 4400 2512 4075 
Q 2825 3750 2825 3300 
Q 2825 2850 2612 2637 
Q 2400 2425 2175 2350 
Q 2475 2275 2712 2037 
Q 2950 1800 2950 1400 
z
M 2250 3300 
Q 2250 3625 2062 3775 
Q 1875 3925 1600 3925 
L 850 3925 
L 850 2600 
L 1575 2600 
Q 1850 2600 2050 2762 
Q 2250 2925 2250 3300 
z
M 2350 1400 
Q 2350 1800 2087 1962 
Q 1825 2125 1500 2125 
L 850 2125 
L 850 600 
L 1425 600 
Q 1875 600 2112 775 
Q 2350 950 2350 1400 
z
" transform="scale(0.015625)"/>
       <path id="SimHei-29" d="M 1675 2250 
Q 1675 1425 1362 775 
Q 1050 125 425 -475 
L 150 -200 
Q 725 325 1012 912 
Q 1300 1500 1300 2250 
Q 1300 3000 1012 3587 
Q 725 4175 150 4725 
L 425 5000 
Q 1050 4375 1362 3725 
Q 1675 3075 1675 2250 
z
" transform="scale(0.015625)"/>
      </defs>
      <use xlink:href="#SimHei-4d"/>
      <use xlink:href="#SimHei-61" transform="translate(50 0)"/>
      <use xlink:href="#SimHei-72" transform="translate(100 0)"/>
      <use xlink:href="#SimHei-67" transform="translate(150 0)"/>
      <use xlink:href="#SimHei-69" transform="translate(200 0)"/>
      <use xlink:href="#SimHei-6e" transform="translate(250 0)"/>
      <use xlink:href="#SimHei-61" transform="translate(300 0)"/>
      <use xlink:href="#SimHei-6c" transform="translate(350 0)"/>
      <use xlink:href="#SimHei-20" transform="translate(400 0)"/>
      <use xlink:href="#SimHei-50" transform="translate(450 0)"/>
      <use xlink:href="#SimHei-44" transform="translate(500 0)"/>
      <use xlink:href="#SimHei-46" transform="translate(550 0)"/>
      <use xlink:href="#SimHei-20" transform="translate(600 0)"/>
      <use xlink:href="#SimHei-28" transform="translate(650 0)"/>
      <use xlink:href="#SimHei-42" transform="translate(700 0)"/>
      <use xlink:href="#SimHei-65" transform="translate(750 0)"/>
      <use xlink:href="#SimHei-74" transform="translate(800 0)"/>
      <use xlink:href="#SimHei-61" transform="translate(850 0)"/>
      <use xlink:href="#SimHei-20" transform="translate(900 0)"/>
      <use xlink:href="#SimHei-50" transform="translate(950 0)"/>
      <use xlink:href="#SimHei-72" transform="translate(1000 0)"/>
      <use xlink:href="#SimHei-69" transform="translate(1050 0)"/>
      <use xlink:href="#SimHei-6d" transform="translate(1100 0)"/>
      <use xlink:href="#SimHei-65" transform="translate(1150 0)"/>
      <use xlink:href="#SimHei-29" transform="translate(1200 0)"/>
     </g>
    </g>
   </g>
  </g>
  <g id="axes_2">
   <g id="patch_59">
    <path d="M 615.345 365.2 
L 1124.34 365.2 
L 1124.34 23.98 
L 615.345 23.98 
z
" style="fill: #ffffff"/>
   </g>
   <g id="matplotlib.axis_3">
    <g id="xtick_8">
     <g id="line2d_17">
      <path d="M 635.260162 365.2 
L 635.260162 23.98 
" clip-path="url(#p72b70fe11d)" style="fill: none; stroke-dasharray: 3.7,1.6; stroke-dashoffset: 0; stroke: #cccccc; stroke-opacity: 0.4"/>
     </g>
     <g id="text_20">
      <!-- 0.02 -->
      <g style="fill: #262626" transform="translate(621.260162 384.325) scale(0.14 -0.14)">
       <use xlink:href="#SimHei-30"/>
       <use xlink:href="#SimHei-2e" transform="translate(50 0)"/>
       <use xlink:href="#SimHei-30" transform="translate(100 0)"/>
       <use xlink:href="#SimHei-32" transform="translate(150 0)"/>
      </g>
     </g>
    </g>
    <g id="xtick_9">
     <g id="line2d_18">
      <path d="M 737.327876 365.2 
L 737.327876 23.98 
" clip-path="url(#p72b70fe11d)" style="fill: none; stroke-dasharray: 3.7,1.6; stroke-dashoffset: 0; stroke: #cccccc; stroke-opacity: 0.4"/>
     </g>
     <g id="text_21">
      <!-- 0.04 -->
      <g style="fill: #262626" transform="translate(723.327876 384.325) scale(0.14 -0.14)">
       <defs>
        <path id="SimHei-34" d="M 2000 1100 
L 75 1100 
L 75 1525 
L 2100 4450 
L 2475 4450 
L 2475 1525 
L 3075 1525 
L 3075 1100 
L 2475 1100 
L 2475 150 
L 2000 150 
L 2000 1100 
z
M 2000 1525 
L 2000 3500 
L 600 1525 
L 2000 1525 
z
" transform="scale(0.015625)"/>
       </defs>
       <use xlink:href="#SimHei-30"/>
       <use xlink:href="#SimHei-2e" transform="translate(50 0)"/>
       <use xlink:href="#SimHei-30" transform="translate(100 0)"/>
       <use xlink:href="#SimHei-34" transform="translate(150 0)"/>
      </g>
     </g>
    </g>
    <g id="xtick_10">
     <g id="line2d_19">
      <path d="M 839.395591 365.2 
L 839.395591 23.98 
" clip-path="url(#p72b70fe11d)" style="fill: none; stroke-dasharray: 3.7,1.6; stroke-dashoffset: 0; stroke: #cccccc; stroke-opacity: 0.4"/>
     </g>
     <g id="text_22">
      <!-- 0.06 -->
      <g style="fill: #262626" transform="translate(825.395591 384.325) scale(0.14 -0.14)">
       <defs>
        <path id="SimHei-36" d="M 250 1612 
Q 275 1975 387 2225 
Q 500 2475 725 2850 
L 1750 4450 
L 2325 4450 
L 1275 2800 
Q 1950 2975 2350 2750 
Q 2750 2525 2887 2237 
Q 3025 1950 3037 1612 
Q 3050 1275 2937 950 
Q 2825 625 2537 362 
Q 2250 100 1737 75 
Q 1225 50 862 262 
Q 500 475 362 862 
Q 225 1250 250 1612 
z
M 1025 787 
Q 1250 550 1625 525 
Q 2000 500 2250 775 
Q 2500 1050 2500 1575 
Q 2500 2100 2187 2300 
Q 1875 2500 1487 2450 
Q 1100 2400 925 2075 
Q 750 1750 775 1387 
Q 800 1025 1025 787 
z
" transform="scale(0.015625)"/>
       </defs>
       <use xlink:href="#SimHei-30"/>
       <use xlink:href="#SimHei-2e" transform="translate(50 0)"/>
       <use xlink:href="#SimHei-30" transform="translate(100 0)"/>
       <use xlink:href="#SimHei-36" transform="translate(150 0)"/>
      </g>
     </g>
    </g>
    <g id="xtick_11">
     <g id="line2d_20">
      <path d="M 941.463305 365.2 
L 941.463305 23.98 
" clip-path="url(#p72b70fe11d)" style="fill: none; stroke-dasharray: 3.7,1.6; stroke-dashoffset: 0; stroke: #cccccc; stroke-opacity: 0.4"/>
     </g>
     <g id="text_23">
      <!-- 0.08 -->
      <g style="fill: #262626" transform="translate(927.463305 384.325) scale(0.14 -0.14)">
       <defs>
        <path id="SimHei-38" d="M 175 1375 
Q 175 1675 325 1962 
Q 475 2250 825 2425 
Q 525 2600 425 2812 
Q 325 3025 312 3300 
Q 300 3575 387 3775 
Q 475 3975 650 4150 
Q 825 4325 1037 4387 
Q 1250 4450 1500 4450 
Q 1750 4450 1950 4400 
Q 2150 4350 2375 4187 
Q 2600 4025 2700 3725 
Q 2800 3425 2687 3025 
Q 2575 2625 2100 2400 
Q 2525 2275 2700 2012 
Q 2875 1750 2875 1375 
Q 2875 1000 2762 775 
Q 2650 550 2512 400 
Q 2375 250 2137 162 
Q 1900 75 1537 75 
Q 1175 75 912 162 
Q 650 250 475 425 
Q 300 600 237 837 
Q 175 1075 175 1375 
z
M 687 1400 
Q 675 1100 787 875 
Q 900 650 1200 587 
Q 1500 525 1825 600 
Q 2150 675 2275 950 
Q 2400 1225 2362 1500 
Q 2325 1775 2050 1962 
Q 1775 2150 1450 2125 
Q 1125 2100 912 1900 
Q 700 1700 687 1400 
z
M 775 3350 
Q 775 3100 950 2875 
Q 1125 2650 1500 2650 
Q 1875 2650 2062 2875 
Q 2250 3100 2237 3412 
Q 2225 3725 2012 3875 
Q 1800 4025 1437 4000 
Q 1075 3975 925 3787 
Q 775 3600 775 3350 
z
" transform="scale(0.015625)"/>
       </defs>
       <use xlink:href="#SimHei-30"/>
       <use xlink:href="#SimHei-2e" transform="translate(50 0)"/>
       <use xlink:href="#SimHei-30" transform="translate(100 0)"/>
       <use xlink:href="#SimHei-38" transform="translate(150 0)"/>
      </g>
     </g>
    </g>
    <g id="xtick_12">
     <g id="line2d_21">
      <path d="M 1043.531019 365.2 
L 1043.531019 23.98 
" clip-path="url(#p72b70fe11d)" style="fill: none; stroke-dasharray: 3.7,1.6; stroke-dashoffset: 0; stroke: #cccccc; stroke-opacity: 0.4"/>
     </g>
     <g id="text_24">
      <!-- 0.10 -->
      <g style="fill: #262626" transform="translate(1029.531019 384.325) scale(0.14 -0.14)">
       <use xlink:href="#SimHei-30"/>
       <use xlink:href="#SimHei-2e" transform="translate(50 0)"/>
       <use xlink:href="#SimHei-31" transform="translate(100 0)"/>
       <use xlink:href="#SimHei-30" transform="translate(150 0)"/>
      </g>
     </g>
    </g>
    <g id="text_25">
     <!-- $\beta$ -->
     <g style="fill: #262626" transform="translate(866.0025 399.315) scale(0.12 -0.12)">
      <defs>
       <path id="DejaVuSans-Oblique-3b2" d="M 872 216 
L 572 -1331 
L -6 -1331 
L 928 3478 
Q 1206 4903 2538 4903 
Q 3888 4903 3659 3700 
Q 3503 2844 2894 2531 
Q 3713 2250 3553 1416 
Q 3272 -69 1759 -66 
Q 1097 -63 872 216 
z
M 1019 966 
Q 1259 422 1875 425 
Q 2775 425 2966 1406 
Q 3138 2288 1675 2219 
L 1778 2750 
Q 2909 2731 3106 3750 
Q 3241 4438 2509 4434 
Q 1691 4434 1503 3459 
L 1019 966 
z
" transform="scale(0.015625)"/>
      </defs>
      <use xlink:href="#DejaVuSans-Oblique-3b2" transform="translate(0 0.390625)"/>
     </g>
    </g>
   </g>
   <g id="matplotlib.axis_4">
    <g id="ytick_8">
     <g id="line2d_22">
      <path d="M 615.345 365.2 
L 1124.34 365.2 
" clip-path="url(#p72b70fe11d)" style="fill: none; stroke-dasharray: 3.7,1.6; stroke-dashoffset: 0; stroke: #cccccc; stroke-opacity: 0.4"/>
     </g>
     <g id="text_26">
      <!-- 0 -->
      <g style="fill: #262626" transform="translate(598.845 370.0125) scale(0.14 -0.14)">
       <use xlink:href="#SimHei-30"/>
      </g>
     </g>
    </g>
    <g id="ytick_9">
     <g id="line2d_23">
      <path d="M 615.345 325.059964 
L 1124.34 325.059964 
" clip-path="url(#p72b70fe11d)" style="fill: none; stroke-dasharray: 3.7,1.6; stroke-dashoffset: 0; stroke: #cccccc; stroke-opacity: 0.4"/>
     </g>
     <g id="text_27">
      <!-- 10 -->
      <g style="fill: #262626" transform="translate(591.845 329.872464) scale(0.14 -0.14)">
       <use xlink:href="#SimHei-31"/>
       <use xlink:href="#SimHei-30" transform="translate(50 0)"/>
      </g>
     </g>
    </g>
    <g id="ytick_10">
     <g id="line2d_24">
      <path d="M 615.345 284.919928 
L 1124.34 284.919928 
" clip-path="url(#p72b70fe11d)" style="fill: none; stroke-dasharray: 3.7,1.6; stroke-dashoffset: 0; stroke: #cccccc; stroke-opacity: 0.4"/>
     </g>
     <g id="text_28">
      <!-- 20 -->
      <g style="fill: #262626" transform="translate(591.845 289.732428) scale(0.14 -0.14)">
       <use xlink:href="#SimHei-32"/>
       <use xlink:href="#SimHei-30" transform="translate(50 0)"/>
      </g>
     </g>
    </g>
    <g id="ytick_11">
     <g id="line2d_25">
      <path d="M 615.345 244.779891 
L 1124.34 244.779891 
" clip-path="url(#p72b70fe11d)" style="fill: none; stroke-dasharray: 3.7,1.6; stroke-dashoffset: 0; stroke: #cccccc; stroke-opacity: 0.4"/>
     </g>
     <g id="text_29">
      <!-- 30 -->
      <g style="fill: #262626" transform="translate(591.845 249.592391) scale(0.14 -0.14)">
       <use xlink:href="#SimHei-33"/>
       <use xlink:href="#SimHei-30" transform="translate(50 0)"/>
      </g>
     </g>
    </g>
    <g id="ytick_12">
     <g id="line2d_26">
      <path d="M 615.345 204.639855 
L 1124.34 204.639855 
" clip-path="url(#p72b70fe11d)" style="fill: none; stroke-dasharray: 3.7,1.6; stroke-dashoffset: 0; stroke: #cccccc; stroke-opacity: 0.4"/>
     </g>
     <g id="text_30">
      <!-- 40 -->
      <g style="fill: #262626" transform="translate(591.845 209.452355) scale(0.14 -0.14)">
       <use xlink:href="#SimHei-34"/>
       <use xlink:href="#SimHei-30" transform="translate(50 0)"/>
      </g>
     </g>
    </g>
    <g id="ytick_13">
     <g id="line2d_27">
      <path d="M 615.345 164.499819 
L 1124.34 164.499819 
" clip-path="url(#p72b70fe11d)" style="fill: none; stroke-dasharray: 3.7,1.6; stroke-dashoffset: 0; stroke: #cccccc; stroke-opacity: 0.4"/>
     </g>
     <g id="text_31">
      <!-- 50 -->
      <g style="fill: #262626" transform="translate(591.845 169.312319) scale(0.14 -0.14)">
       <use xlink:href="#SimHei-35"/>
       <use xlink:href="#SimHei-30" transform="translate(50 0)"/>
      </g>
     </g>
    </g>
    <g id="ytick_14">
     <g id="line2d_28">
      <path d="M 615.345 124.359783 
L 1124.34 124.359783 
" clip-path="url(#p72b70fe11d)" style="fill: none; stroke-dasharray: 3.7,1.6; stroke-dashoffset: 0; stroke: #cccccc; stroke-opacity: 0.4"/>
     </g>
     <g id="text_32">
      <!-- 60 -->
      <g style="fill: #262626" transform="translate(591.845 129.172283) scale(0.14 -0.14)">
       <use xlink:href="#SimHei-36"/>
       <use xlink:href="#SimHei-30" transform="translate(50 0)"/>
      </g>
     </g>
    </g>
    <g id="ytick_15">
     <g id="line2d_29">
      <path d="M 615.345 84.219746 
L 1124.34 84.219746 
" clip-path="url(#p72b70fe11d)" style="fill: none; stroke-dasharray: 3.7,1.6; stroke-dashoffset: 0; stroke: #cccccc; stroke-opacity: 0.4"/>
     </g>
     <g id="text_33">
      <!-- 70 -->
      <g style="fill: #262626" transform="translate(591.845 89.032246) scale(0.14 -0.14)">
       <use xlink:href="#SimHei-37"/>
       <use xlink:href="#SimHei-30" transform="translate(50 0)"/>
      </g>
     </g>
    </g>
    <g id="ytick_16">
     <g id="line2d_30">
      <path d="M 615.345 44.07971 
L 1124.34 44.07971 
" clip-path="url(#p72b70fe11d)" style="fill: none; stroke-dasharray: 3.7,1.6; stroke-dashoffset: 0; stroke: #cccccc; stroke-opacity: 0.4"/>
     </g>
     <g id="text_34">
      <!-- 80 -->
      <g style="fill: #262626" transform="translate(591.845 48.89221) scale(0.14 -0.14)">
       <use xlink:href="#SimHei-38"/>
       <use xlink:href="#SimHei-30" transform="translate(50 0)"/>
      </g>
     </g>
    </g>
    <g id="text_35">
     <!-- Density -->
     <g style="fill: #262626" transform="translate(586.345 215.59) rotate(-90) scale(0.12 -0.12)">
      <use xlink:href="#SimHei-44"/>
      <use xlink:href="#SimHei-65" transform="translate(50 0)"/>
      <use xlink:href="#SimHei-6e" transform="translate(100 0)"/>
      <use xlink:href="#SimHei-73" transform="translate(150 0)"/>
      <use xlink:href="#SimHei-69" transform="translate(200 0)"/>
      <use xlink:href="#SimHei-74" transform="translate(250 0)"/>
      <use xlink:href="#SimHei-79" transform="translate(300 0)"/>
     </g>
    </g>
   </g>
   <g id="patch_60">
    <path d="M 743.769825 365.2 
L 752.17467 365.2 
L 752.17467 40.228571 
L 743.769825 40.228571 
z
" clip-path="url(#p72b70fe11d)" style="fill: #ff8c00; opacity: 0.6; stroke: #ffffff; stroke-linejoin: miter"/>
   </g>
   <g id="patch_61">
    <path d="M 752.17467 365.2 
L 760.579515 365.2 
L 760.579515 202.714286 
L 752.17467 202.714286 
z
" clip-path="url(#p72b70fe11d)" style="fill: #ff8c00; opacity: 0.6; stroke: #ffffff; stroke-linejoin: miter"/>
   </g>
   <g id="patch_62">
    <path d="M 760.579515 365.2 
L 768.98436 365.2 
L 768.98436 40.228571 
L 760.579515 40.228571 
z
" clip-path="url(#p72b70fe11d)" style="fill: #ff8c00; opacity: 0.6; stroke: #ffffff; stroke-linejoin: miter"/>
   </g>
   <g id="patch_63">
    <path d="M 768.98436 365.2 
L 777.389205 365.2 
L 777.389205 202.714286 
L 768.98436 202.714286 
z
" clip-path="url(#p72b70fe11d)" style="fill: #ff8c00; opacity: 0.6; stroke: #ffffff; stroke-linejoin: miter"/>
   </g>
   <g id="patch_64">
    <path d="M 777.389205 365.2 
L 785.79405 365.2 
L 785.79405 40.228571 
L 777.389205 40.228571 
z
" clip-path="url(#p72b70fe11d)" style="fill: #ff8c00; opacity: 0.6; stroke: #ffffff; stroke-linejoin: miter"/>
   </g>
   <g id="patch_65">
    <path d="M 785.79405 365.2 
L 794.198895 365.2 
L 794.198895 40.228571 
L 785.79405 40.228571 
z
" clip-path="url(#p72b70fe11d)" style="fill: #ff8c00; opacity: 0.6; stroke: #ffffff; stroke-linejoin: miter"/>
   </g>
   <g id="patch_66">
    <path d="M 794.198895 365.2 
L 802.60374 365.2 
L 802.60374 202.714286 
L 794.198895 202.714286 
z
" clip-path="url(#p72b70fe11d)" style="fill: #ff8c00; opacity: 0.6; stroke: #ffffff; stroke-linejoin: miter"/>
   </g>
   <g id="patch_67">
    <path d="M 802.60374 365.2 
L 811.008585 365.2 
L 811.008585 365.2 
L 802.60374 365.2 
z
" clip-path="url(#p72b70fe11d)" style="fill: #ff8c00; opacity: 0.6; stroke: #ffffff; stroke-linejoin: miter"/>
   </g>
   <g id="patch_68">
    <path d="M 811.008585 365.2 
L 819.41343 365.2 
L 819.41343 365.2 
L 811.008585 365.2 
z
" clip-path="url(#p72b70fe11d)" style="fill: #ff8c00; opacity: 0.6; stroke: #ffffff; stroke-linejoin: miter"/>
   </g>
   <g id="patch_69">
    <path d="M 819.41343 365.2 
L 827.818275 365.2 
L 827.818275 365.2 
L 819.41343 365.2 
z
" clip-path="url(#p72b70fe11d)" style="fill: #ff8c00; opacity: 0.6; stroke: #ffffff; stroke-linejoin: miter"/>
   </g>
   <g id="patch_70">
    <path d="M 827.818275 365.2 
L 836.22312 365.2 
L 836.22312 202.714286 
L 827.818275 202.714286 
z
" clip-path="url(#p72b70fe11d)" style="fill: #ff8c00; opacity: 0.6; stroke: #ffffff; stroke-linejoin: miter"/>
   </g>
   <g id="patch_71">
    <path d="M 836.22312 365.2 
L 844.627965 365.2 
L 844.627965 365.2 
L 836.22312 365.2 
z
" clip-path="url(#p72b70fe11d)" style="fill: #ff8c00; opacity: 0.6; stroke: #ffffff; stroke-linejoin: miter"/>
   </g>
   <g id="patch_72">
    <path d="M 844.627965 365.2 
L 853.03281 365.2 
L 853.03281 365.2 
L 844.627965 365.2 
z
" clip-path="url(#p72b70fe11d)" style="fill: #ff8c00; opacity: 0.6; stroke: #ffffff; stroke-linejoin: miter"/>
   </g>
   <g id="patch_73">
    <path d="M 853.03281 365.2 
L 861.437655 365.2 
L 861.437655 365.2 
L 853.03281 365.2 
z
" clip-path="url(#p72b70fe11d)" style="fill: #ff8c00; opacity: 0.6; stroke: #ffffff; stroke-linejoin: miter"/>
   </g>
   <g id="patch_74">
    <path d="M 861.437655 365.2 
L 869.8425 365.2 
L 869.8425 365.2 
L 861.437655 365.2 
z
" clip-path="url(#p72b70fe11d)" style="fill: #ff8c00; opacity: 0.6; stroke: #ffffff; stroke-linejoin: miter"/>
   </g>
   <g id="patch_75">
    <path d="M 869.8425 365.2 
L 878.247345 365.2 
L 878.247345 202.714286 
L 869.8425 202.714286 
z
" clip-path="url(#p72b70fe11d)" style="fill: #ff8c00; opacity: 0.6; stroke: #ffffff; stroke-linejoin: miter"/>
   </g>
   <g id="patch_76">
    <path d="M 878.247345 365.2 
L 886.65219 365.2 
L 886.65219 202.714286 
L 878.247345 202.714286 
z
" clip-path="url(#p72b70fe11d)" style="fill: #ff8c00; opacity: 0.6; stroke: #ffffff; stroke-linejoin: miter"/>
   </g>
   <g id="patch_77">
    <path d="M 886.65219 365.2 
L 895.057035 365.2 
L 895.057035 365.2 
L 886.65219 365.2 
z
" clip-path="url(#p72b70fe11d)" style="fill: #ff8c00; opacity: 0.6; stroke: #ffffff; stroke-linejoin: miter"/>
   </g>
   <g id="patch_78">
    <path d="M 895.057035 365.2 
L 903.46188 365.2 
L 903.46188 365.2 
L 895.057035 365.2 
z
" clip-path="url(#p72b70fe11d)" style="fill: #ff8c00; opacity: 0.6; stroke: #ffffff; stroke-linejoin: miter"/>
   </g>
   <g id="patch_79">
    <path d="M 903.46188 365.2 
L 911.866725 365.2 
L 911.866725 202.714286 
L 903.46188 202.714286 
z
" clip-path="url(#p72b70fe11d)" style="fill: #ff8c00; opacity: 0.6; stroke: #ffffff; stroke-linejoin: miter"/>
   </g>
   <g id="line2d_31">
    <path d="M 638.481136 365.199944 
L 664.789786 365.106403 
L 670.980057 364.901451 
L 675.62276 364.558242 
L 678.717895 364.177594 
L 681.813031 363.623503 
L 684.908166 362.841876 
L 688.003301 361.771173 
L 691.098436 360.344244 
L 694.193572 358.490969 
L 697.288707 356.141573 
L 700.383842 353.230418 
L 703.478978 349.700001 
L 706.574113 345.504873 
L 709.669248 340.615176 
L 712.764384 335.019536 
L 715.859519 328.727098 
L 718.954654 321.768563 
L 722.049789 314.196159 
L 725.144925 306.082569 
L 729.787628 293.101108 
L 735.977898 274.869652 
L 743.715737 252.025198 
L 748.358439 239.066578 
L 751.453575 230.990935 
L 754.54871 223.489392 
L 757.643845 216.652598 
L 760.738981 210.55606 
L 763.834116 205.25923 
L 765.381684 202.924796 
L 766.929251 200.805153 
L 768.476819 198.903147 
L 770.024387 197.220648 
L 771.571954 195.758577 
L 773.119522 194.516937 
L 774.66709 193.49486 
L 776.214657 192.690641 
L 777.762225 192.101791 
L 779.309792 191.72508 
L 780.85736 191.556592 
L 782.404928 191.591775 
L 783.952495 191.825498 
L 785.500063 192.252098 
L 787.047631 192.865442 
L 788.595198 193.658975 
L 790.142766 194.625775 
L 791.690334 195.758605 
L 793.237901 197.049964 
L 796.333037 200.077222 
L 799.428172 203.644035 
L 802.523307 207.685559 
L 805.618443 212.13686 
L 808.713578 216.934004 
L 813.356281 224.643231 
L 817.998984 232.794332 
L 827.28439 249.723936 
L 836.569796 266.537672 
L 842.760066 277.254062 
L 847.402769 284.904893 
L 852.045472 292.167388 
L 856.688175 299.00731 
L 861.330878 305.403984 
L 865.973581 311.348203 
L 870.616284 316.840226 
L 875.258987 321.887929 
L 879.90169 326.505132 
L 884.544393 330.710132 
L 889.187096 334.524417 
L 893.829799 337.971592 
L 898.472502 341.076472 
L 903.115204 343.864357 
L 907.757907 346.360441 
L 912.40061 348.589364 
L 917.043313 350.574868 
L 921.686016 352.339559 
L 926.328719 353.904735 
L 932.51899 355.715455 
L 938.70926 357.249816 
L 944.899531 358.546364 
L 951.089802 359.639211 
L 958.82764 360.764043 
L 966.565478 361.667162 
L 975.850884 362.516506 
L 986.683858 363.25685 
L 999.064399 363.858978 
L 1014.540075 364.358059 
L 1033.110887 364.718969 
L 1059.419537 364.982172 
L 1099.656296 365.134564 
L 1101.203864 365.137502 
L 1101.203864 365.137502 
" clip-path="url(#p72b70fe11d)" style="fill: none; stroke: #55a868; stroke-width: 2.5; stroke-linecap: round"/>
   </g>
   <g id="patch_80">
    <path d="M 615.345 365.2 
L 615.345 23.98 
" style="fill: none; stroke: #cccccc; stroke-width: 1.25; stroke-linejoin: miter; stroke-linecap: square"/>
   </g>
   <g id="patch_81">
    <path d="M 1124.34 365.2 
L 1124.34 23.98 
" style="fill: none; stroke: #cccccc; stroke-width: 1.25; stroke-linejoin: miter; stroke-linecap: square"/>
   </g>
   <g id="patch_82">
    <path d="M 615.345 365.2 
L 1124.34 365.2 
" style="fill: none; stroke: #cccccc; stroke-width: 1.25; stroke-linejoin: miter; stroke-linecap: square"/>
   </g>
   <g id="patch_83">
    <path d="M 615.345 23.98 
L 1124.34 23.98 
" style="fill: none; stroke: #cccccc; stroke-width: 1.25; stroke-linejoin: miter; stroke-linecap: square"/>
   </g>
   <g id="text_36">
    <!-- Latent Scale Parameter $\beta$ Distribution -->
    <g style="fill: #262626" transform="translate(739.3625 17.98) scale(0.14 -0.14)">
     <defs>
      <path id="SimHei-4c" d="M 2900 125 
L 300 125 
L 300 4400 
L 875 4400 
L 875 600 
L 2900 600 
L 2900 125 
z
" transform="scale(0.015625)"/>
      <path id="SimHei-53" d="M 2900 1325 
Q 2900 750 2537 412 
Q 2175 75 1550 75 
Q 925 75 575 425 
Q 225 775 225 1300 
L 225 1475 
L 800 1475 
L 800 1325 
Q 800 950 1025 750 
Q 1250 550 1550 550 
Q 1950 550 2137 762 
Q 2325 975 2325 1275 
Q 2325 1525 2100 1737 
Q 1875 1950 1450 2125 
Q 850 2350 587 2625 
Q 325 2900 325 3275 
Q 325 3800 687 4125 
Q 1050 4450 1550 4450 
Q 2200 4450 2487 4062 
Q 2775 3675 2775 3225 
L 2200 3225 
Q 2225 3500 2050 3725 
Q 1875 3950 1550 3950 
Q 1250 3950 1075 3787 
Q 900 3625 900 3350 
Q 900 3125 1037 2962 
Q 1175 2800 1750 2575 
Q 2300 2350 2600 2037 
Q 2900 1725 2900 1325 
z
" transform="scale(0.015625)"/>
      <path id="SimHei-75" d="M 2800 125 
L 2300 125 
L 2300 650 
Q 2100 375 1862 225 
Q 1625 75 1250 75 
Q 800 75 575 325 
Q 350 575 350 950 
L 350 2925 
L 850 2925 
L 850 1125 
Q 850 825 1000 650 
Q 1150 475 1400 475 
Q 1725 475 2012 812 
Q 2300 1150 2300 1650 
L 2300 2925 
L 2800 2925 
L 2800 125 
z
" transform="scale(0.015625)"/>
     </defs>
     <use xlink:href="#SimHei-4c" transform="translate(0 0.390625)"/>
     <use xlink:href="#SimHei-61" transform="translate(50 0.390625)"/>
     <use xlink:href="#SimHei-74" transform="translate(100 0.390625)"/>
     <use xlink:href="#SimHei-65" transform="translate(150 0.390625)"/>
     <use xlink:href="#SimHei-6e" transform="translate(200 0.390625)"/>
     <use xlink:href="#SimHei-74" transform="translate(250 0.390625)"/>
     <use xlink:href="#SimHei-20" transform="translate(300 0.390625)"/>
     <use xlink:href="#SimHei-53" transform="translate(350 0.390625)"/>
     <use xlink:href="#SimHei-63" transform="translate(400 0.390625)"/>
     <use xlink:href="#SimHei-61" transform="translate(450 0.390625)"/>
     <use xlink:href="#SimHei-6c" transform="translate(500 0.390625)"/>
     <use xlink:href="#SimHei-65" transform="translate(550 0.390625)"/>
     <use xlink:href="#SimHei-20" transform="translate(600 0.390625)"/>
     <use xlink:href="#SimHei-50" transform="translate(650 0.390625)"/>
     <use xlink:href="#SimHei-61" transform="translate(700 0.390625)"/>
     <use xlink:href="#SimHei-72" transform="translate(750 0.390625)"/>
     <use xlink:href="#SimHei-61" transform="translate(800 0.390625)"/>
     <use xlink:href="#SimHei-6d" transform="translate(850 0.390625)"/>
     <use xlink:href="#SimHei-65" transform="translate(900 0.390625)"/>
     <use xlink:href="#SimHei-74" transform="translate(950 0.390625)"/>
     <use xlink:href="#SimHei-65" transform="translate(1000 0.390625)"/>
     <use xlink:href="#SimHei-72" transform="translate(1050 0.390625)"/>
     <use xlink:href="#SimHei-20" transform="translate(1100 0.390625)"/>
     <use xlink:href="#DejaVuSans-Oblique-3b2" transform="translate(1150 0.390625)"/>
     <use xlink:href="#SimHei-20" transform="translate(1213.818359 0.390625)"/>
     <use xlink:href="#SimHei-44" transform="translate(1263.818359 0.390625)"/>
     <use xlink:href="#SimHei-69" transform="translate(1313.818359 0.390625)"/>
     <use xlink:href="#SimHei-73" transform="translate(1363.818359 0.390625)"/>
     <use xlink:href="#SimHei-74" transform="translate(1413.818359 0.390625)"/>
     <use xlink:href="#SimHei-72" transform="translate(1463.818359 0.390625)"/>
     <use xlink:href="#SimHei-69" transform="translate(1513.818359 0.390625)"/>
     <use xlink:href="#SimHei-62" transform="translate(1563.818359 0.390625)"/>
     <use xlink:href="#SimHei-75" transform="translate(1613.818359 0.390625)"/>
     <use xlink:href="#SimHei-74" transform="translate(1663.818359 0.390625)"/>
     <use xlink:href="#SimHei-69" transform="translate(1713.818359 0.390625)"/>
     <use xlink:href="#SimHei-6f" transform="translate(1763.818359 0.390625)"/>
     <use xlink:href="#SimHei-6e" transform="translate(1813.818359 0.390625)"/>
    </g>
   </g>
   <g id="legend_2">
    <g id="patch_84">
     <path d="M 954.94 63.635 
L 1116.64 63.635 
Q 1118.84 63.635 1118.84 61.435 
L 1118.84 31.68 
Q 1118.84 29.48 1116.64 29.48 
L 954.94 29.48 
Q 952.74 29.48 952.74 31.68 
L 952.74 61.435 
Q 952.74 63.635 954.94 63.635 
z
" style="fill: #ffffff; opacity: 0.8; stroke: #cccccc; stroke-linejoin: miter"/>
    </g>
    <g id="patch_85">
     <path d="M 957.14 42.35 
L 979.14 42.35 
L 979.14 34.65 
L 957.14 34.65 
z
" style="fill: #ff8c00; opacity: 0.6; stroke: #ffffff; stroke-linejoin: miter"/>
    </g>
    <g id="text_37">
     <!-- Posterior Means of $\beta_i$ -->
     <g style="fill: #262626" transform="translate(987.94 42.35) scale(0.11 -0.11)">
      <defs>
       <path id="SimHei-66" d="M 2850 3825 
Q 2725 3900 2550 3950 
Q 2375 4000 2100 4000 
Q 1825 4000 1725 3862 
Q 1625 3725 1625 3525 
L 1625 2925 
L 2650 2925 
L 2650 2525 
L 1625 2525 
L 1625 125 
L 1125 125 
L 1125 2525 
L 275 2525 
L 275 2925 
L 1125 2925 
L 1125 3500 
Q 1125 3950 1400 4200 
Q 1675 4450 2125 4450 
Q 2400 4450 2562 4412 
Q 2725 4375 2850 4325 
L 2850 3825 
z
" transform="scale(0.015625)"/>
       <path id="DejaVuSans-Oblique-69" d="M 1172 4863 
L 1747 4863 
L 1606 4134 
L 1031 4134 
L 1172 4863 
z
M 909 3500 
L 1484 3500 
L 800 0 
L 225 0 
L 909 3500 
z
" transform="scale(0.015625)"/>
      </defs>
      <use xlink:href="#SimHei-50" transform="translate(0 0.390625)"/>
      <use xlink:href="#SimHei-6f" transform="translate(50 0.390625)"/>
      <use xlink:href="#SimHei-73" transform="translate(100 0.390625)"/>
      <use xlink:href="#SimHei-74" transform="translate(150 0.390625)"/>
      <use xlink:href="#SimHei-65" transform="translate(200 0.390625)"/>
      <use xlink:href="#SimHei-72" transform="translate(250 0.390625)"/>
      <use xlink:href="#SimHei-69" transform="translate(300 0.390625)"/>
      <use xlink:href="#SimHei-6f" transform="translate(350 0.390625)"/>
      <use xlink:href="#SimHei-72" transform="translate(400 0.390625)"/>
      <use xlink:href="#SimHei-20" transform="translate(450 0.390625)"/>
      <use xlink:href="#SimHei-4d" transform="translate(500 0.390625)"/>
      <use xlink:href="#SimHei-65" transform="translate(550 0.390625)"/>
      <use xlink:href="#SimHei-61" transform="translate(600 0.390625)"/>
      <use xlink:href="#SimHei-6e" transform="translate(650 0.390625)"/>
      <use xlink:href="#SimHei-73" transform="translate(700 0.390625)"/>
      <use xlink:href="#SimHei-20" transform="translate(750 0.390625)"/>
      <use xlink:href="#SimHei-6f" transform="translate(800 0.390625)"/>
      <use xlink:href="#SimHei-66" transform="translate(850 0.390625)"/>
      <use xlink:href="#SimHei-20" transform="translate(900 0.390625)"/>
      <use xlink:href="#DejaVuSans-Oblique-3b2" transform="translate(950 0.390625)"/>
      <use xlink:href="#DejaVuSans-Oblique-69" transform="translate(1013.818359 -16.015625) scale(0.7)"/>
     </g>
    </g>
    <g id="line2d_32">
     <path d="M 957.14 54.01 
L 968.14 54.01 
L 979.14 54.01 
" style="fill: none; stroke: #55a868; stroke-width: 2.5; stroke-linecap: round"/>
    </g>
    <g id="text_38">
     <!-- Prior Inverse Gamma PDF -->
     <g style="fill: #262626" transform="translate(987.94 57.86) scale(0.11 -0.11)">
      <defs>
       <path id="SimHei-76" d="M 2875 2925 
L 1825 75 
L 1275 75 
L 225 2925 
L 750 2925 
L 1525 750 
L 1575 750 
L 2350 2925 
L 2875 2925 
z
" transform="scale(0.015625)"/>
       <path id="SimHei-47" d="M 2850 75 
L 2425 75 
L 2350 425 
Q 2250 275 2037 175 
Q 1825 75 1575 75 
Q 1050 75 637 562 
Q 225 1050 225 2125 
Q 225 3300 600 3875 
Q 975 4450 1625 4450 
Q 2200 4450 2525 4025 
Q 2850 3600 2850 2925 
L 2300 2925 
Q 2300 3450 2125 3712 
Q 1950 3975 1625 3975 
Q 1225 3975 1025 3562 
Q 825 3150 825 2175 
Q 825 1250 1075 900 
Q 1325 550 1650 550 
Q 1975 550 2162 787 
Q 2350 1025 2350 1525 
L 2350 1800 
L 1575 1800 
L 1575 2275 
L 2850 2275 
L 2850 75 
z
" transform="scale(0.015625)"/>
      </defs>
      <use xlink:href="#SimHei-50"/>
      <use xlink:href="#SimHei-72" transform="translate(50 0)"/>
      <use xlink:href="#SimHei-69" transform="translate(100 0)"/>
      <use xlink:href="#SimHei-6f" transform="translate(150 0)"/>
      <use xlink:href="#SimHei-72" transform="translate(200 0)"/>
      <use xlink:href="#SimHei-20" transform="translate(250 0)"/>
      <use xlink:href="#SimHei-49" transform="translate(300 0)"/>
      <use xlink:href="#SimHei-6e" transform="translate(350 0)"/>
      <use xlink:href="#SimHei-76" transform="translate(400 0)"/>
      <use xlink:href="#SimHei-65" transform="translate(450 0)"/>
      <use xlink:href="#SimHei-72" transform="translate(500 0)"/>
      <use xlink:href="#SimHei-73" transform="translate(550 0)"/>
      <use xlink:href="#SimHei-65" transform="translate(600 0)"/>
      <use xlink:href="#SimHei-20" transform="translate(650 0)"/>
      <use xlink:href="#SimHei-47" transform="translate(700 0)"/>
      <use xlink:href="#SimHei-61" transform="translate(750 0)"/>
      <use xlink:href="#SimHei-6d" transform="translate(800 0)"/>
      <use xlink:href="#SimHei-6d" transform="translate(850 0)"/>
      <use xlink:href="#SimHei-61" transform="translate(900 0)"/>
      <use xlink:href="#SimHei-20" transform="translate(950 0)"/>
      <use xlink:href="#SimHei-50" transform="translate(1000 0)"/>
      <use xlink:href="#SimHei-44" transform="translate(1050 0)"/>
      <use xlink:href="#SimHei-46" transform="translate(1100 0)"/>
     </g>
    </g>
   </g>
  </g>
 </g>
 <defs>
  <clipPath id="p814d789f0e">
   <rect x="51.45" y="23.98" width="508.995" height="341.22"/>
  </clipPath>
  <clipPath id="p72b70fe11d">
   <rect x="615.345" y="23.98" width="508.995" height="341.22"/>
  </clipPath>
 </defs>
</svg>
