<?xml version="1.0" encoding="utf-8" standalone="no"?>
<!DOCTYPE svg PUBLIC "-//W3C//DTD SVG 1.1//EN"
  "http://www.w3.org/Graphics/SVG/1.1/DTD/svg11.dtd">
<svg xmlns:xlink="http://www.w3.org/1999/xlink" width="707.734844pt" height="419.871899pt" viewBox="0 0 707.734844 419.871899" xmlns="http://www.w3.org/2000/svg" version="1.1">
 <metadata>
  <rdf:RDF xmlns:dc="http://purl.org/dc/elements/1.1/" xmlns:cc="http://creativecommons.org/ns#" xmlns:rdf="http://www.w3.org/1999/02/22-rdf-syntax-ns#">
   <cc:Work>
    <dc:type rdf:resource="http://purl.org/dc/dcmitype/StillImage"/>
    <dc:date>2026-03-22T23:58:26.276988</dc:date>
    <dc:format>image/svg+xml</dc:format>
    <dc:creator>
     <cc:Agent>
      <dc:title>Matplotlib v3.10.8, https://matplotlib.org/</dc:title>
     </cc:Agent>
    </dc:creator>
   </cc:Work>
  </rdf:RDF>
 </metadata>
 <defs>
  <style type="text/css">*{stroke-linejoin: round; stroke-linecap: butt}</style>
 </defs>
 <g id="figure_1">
  <g id="patch_1">
   <path d="M 0 419.871899 
L 707.734844 419.871899 
L 707.734844 0 
L 0 0 
z
" style="fill: #ffffff"/>
  </g>
  <g id="axes_1">
   <g id="patch_2">
    <path d="M 70.321094 379.113305 
L 700.534844 379.113305 
L 700.534844 8.339565 
L 70.321094 8.339565 
z
" style="fill: #ffffff"/>
   </g>
   <g id="matplotlib.axis_1">
    <g id="xtick_1">
     <g id="line2d_1">
      <path d="M 98.911334 379.113305 
L 98.911334 8.339565 
" clip-path="url(#p133adfc861)" style="fill: none; stroke-dasharray: 3.7,1.6; stroke-dashoffset: 0; stroke: #cccccc; stroke-opacity: 0.4"/>
     </g>
     <g id="text_1">
      <!-- 0 -->
      <g style="fill: #262626" transform="translate(96.161334 396.175805) scale(0.11 -0.11)">
       <defs>
        <path id="SimHei-30" d="M 225 2537 
Q 250 3200 412 3587 
Q 575 3975 875 4225 
Q 1175 4475 1612 4475 
Q 2050 4475 2375 4112 
Q 2700 3750 2800 3200 
Q 2900 2650 2862 1937 
Q 2825 1225 2612 775 
Q 2400 325 1975 150 
Q 1550 -25 1125 187 
Q 700 400 525 750 
Q 350 1100 275 1487 
Q 200 1875 225 2537 
z
M 750 2687 
Q 675 2000 800 1462 
Q 925 925 1212 700 
Q 1500 475 1800 612 
Q 2100 750 2237 1162 
Q 2375 1575 2375 2062 
Q 2375 2550 2337 2950 
Q 2300 3350 2112 3675 
Q 1925 4000 1612 4012 
Q 1300 4025 1062 3700 
Q 825 3375 750 2687 
z
" transform="scale(0.015625)"/>
       </defs>
       <use xlink:href="#SimHei-30"/>
      </g>
     </g>
    </g>
    <g id="xtick_2">
     <g id="line2d_2">
      <path d="M 210.590512 379.113305 
L 210.590512 8.339565 
" clip-path="url(#p133adfc861)" style="fill: none; stroke-dasharray: 3.7,1.6; stroke-dashoffset: 0; stroke: #cccccc; stroke-opacity: 0.4"/>
     </g>
     <g id="text_2">
      <!-- 2000 -->
      <g style="fill: #262626" transform="translate(199.590512 396.175805) scale(0.11 -0.11)">
       <defs>
        <path id="SimHei-32" d="M 300 250 
Q 325 625 650 925 
Q 975 1225 1475 1862 
Q 1975 2500 2125 2850 
Q 2275 3200 2237 3450 
Q 2200 3700 2000 3862 
Q 1800 4025 1537 4000 
Q 1275 3975 1037 3800 
Q 800 3625 675 3275 
L 200 3350 
Q 400 3925 712 4187 
Q 1025 4450 1450 4475 
Q 1700 4500 1900 4462 
Q 2100 4425 2312 4287 
Q 2525 4150 2662 3875 
Q 2800 3600 2762 3212 
Q 2725 2825 2375 2287 
Q 2025 1750 1025 600 
L 2825 600 
L 2825 150 
L 300 150 
L 300 250 
z
" transform="scale(0.015625)"/>
       </defs>
       <use xlink:href="#SimHei-32"/>
       <use xlink:href="#SimHei-30" transform="translate(50 0)"/>
       <use xlink:href="#SimHei-30" transform="translate(100 0)"/>
       <use xlink:href="#SimHei-30" transform="translate(150 0)"/>
      </g>
     </g>
    </g>
    <g id="xtick_3">
     <g id="line2d_3">
      <path d="M 322.269691 379.113305 
L 322.269691 8.339565 
" clip-path="url(#p133adfc861)" style="fill: none; stroke-dasharray: 3.7,1.6; stroke-dashoffset: 0; stroke: #cccccc; stroke-opacity: 0.4"/>
     </g>
     <g id="text_3">
      <!-- 4000 -->
      <g style="fill: #262626" transform="translate(311.269691 396.175805) scale(0.11 -0.11)">
       <defs>
        <path id="SimHei-34" d="M 2000 1100 
L 75 1100 
L 75 1525 
L 2100 4450 
L 2475 4450 
L 2475 1525 
L 3075 1525 
L 3075 1100 
L 2475 1100 
L 2475 150 
L 2000 150 
L 2000 1100 
z
M 2000 1525 
L 2000 3500 
L 600 1525 
L 2000 1525 
z
" transform="scale(0.015625)"/>
       </defs>
       <use xlink:href="#SimHei-34"/>
       <use xlink:href="#SimHei-30" transform="translate(50 0)"/>
       <use xlink:href="#SimHei-30" transform="translate(100 0)"/>
       <use xlink:href="#SimHei-30" transform="translate(150 0)"/>
      </g>
     </g>
    </g>
    <g id="xtick_4">
     <g id="line2d_4">
      <path d="M 433.948869 379.113305 
L 433.948869 8.339565 
" clip-path="url(#p133adfc861)" style="fill: none; stroke-dasharray: 3.7,1.6; stroke-dashoffset: 0; stroke: #cccccc; stroke-opacity: 0.4"/>
     </g>
     <g id="text_4">
      <!-- 6000 -->
      <g style="fill: #262626" transform="translate(422.948869 396.175805) scale(0.11 -0.11)">
       <defs>
        <path id="SimHei-36" d="M 250 1612 
Q 275 1975 387 2225 
Q 500 2475 725 2850 
L 1750 4450 
L 2325 4450 
L 1275 2800 
Q 1950 2975 2350 2750 
Q 2750 2525 2887 2237 
Q 3025 1950 3037 1612 
Q 3050 1275 2937 950 
Q 2825 625 2537 362 
Q 2250 100 1737 75 
Q 1225 50 862 262 
Q 500 475 362 862 
Q 225 1250 250 1612 
z
M 1025 787 
Q 1250 550 1625 525 
Q 2000 500 2250 775 
Q 2500 1050 2500 1575 
Q 2500 2100 2187 2300 
Q 1875 2500 1487 2450 
Q 1100 2400 925 2075 
Q 750 1750 775 1387 
Q 800 1025 1025 787 
z
" transform="scale(0.015625)"/>
       </defs>
       <use xlink:href="#SimHei-36"/>
       <use xlink:href="#SimHei-30" transform="translate(50 0)"/>
       <use xlink:href="#SimHei-30" transform="translate(100 0)"/>
       <use xlink:href="#SimHei-30" transform="translate(150 0)"/>
      </g>
     </g>
    </g>
    <g id="xtick_5">
     <g id="line2d_5">
      <path d="M 545.628047 379.113305 
L 545.628047 8.339565 
" clip-path="url(#p133adfc861)" style="fill: none; stroke-dasharray: 3.7,1.6; stroke-dashoffset: 0; stroke: #cccccc; stroke-opacity: 0.4"/>
     </g>
     <g id="text_5">
      <!-- 8000 -->
      <g style="fill: #262626" transform="translate(534.628047 396.175805) scale(0.11 -0.11)">
       <defs>
        <path id="SimHei-38" d="M 175 1375 
Q 175 1675 325 1962 
Q 475 2250 825 2425 
Q 525 2600 425 2812 
Q 325 3025 312 3300 
Q 300 3575 387 3775 
Q 475 3975 650 4150 
Q 825 4325 1037 4387 
Q 1250 4450 1500 4450 
Q 1750 4450 1950 4400 
Q 2150 4350 2375 4187 
Q 2600 4025 2700 3725 
Q 2800 3425 2687 3025 
Q 2575 2625 2100 2400 
Q 2525 2275 2700 2012 
Q 2875 1750 2875 1375 
Q 2875 1000 2762 775 
Q 2650 550 2512 400 
Q 2375 250 2137 162 
Q 1900 75 1537 75 
Q 1175 75 912 162 
Q 650 250 475 425 
Q 300 600 237 837 
Q 175 1075 175 1375 
z
M 687 1400 
Q 675 1100 787 875 
Q 900 650 1200 587 
Q 1500 525 1825 600 
Q 2150 675 2275 950 
Q 2400 1225 2362 1500 
Q 2325 1775 2050 1962 
Q 1775 2150 1450 2125 
Q 1125 2100 912 1900 
Q 700 1700 687 1400 
z
M 775 3350 
Q 775 3100 950 2875 
Q 1125 2650 1500 2650 
Q 1875 2650 2062 2875 
Q 2250 3100 2237 3412 
Q 2225 3725 2012 3875 
Q 1800 4025 1437 4000 
Q 1075 3975 925 3787 
Q 775 3600 775 3350 
z
" transform="scale(0.015625)"/>
       </defs>
       <use xlink:href="#SimHei-38"/>
       <use xlink:href="#SimHei-30" transform="translate(50 0)"/>
       <use xlink:href="#SimHei-30" transform="translate(100 0)"/>
       <use xlink:href="#SimHei-30" transform="translate(150 0)"/>
      </g>
     </g>
    </g>
    <g id="xtick_6">
     <g id="line2d_6">
      <path d="M 657.307226 379.113305 
L 657.307226 8.339565 
" clip-path="url(#p133adfc861)" style="fill: none; stroke-dasharray: 3.7,1.6; stroke-dashoffset: 0; stroke: #cccccc; stroke-opacity: 0.4"/>
     </g>
     <g id="text_6">
      <!-- 10000 -->
      <g style="fill: #262626" transform="translate(643.557226 396.175805) scale(0.11 -0.11)">
       <defs>
        <path id="SimHei-31" d="M 1400 3600 
Q 1075 3275 575 2975 
L 575 3450 
Q 1200 3875 1600 4450 
L 1900 4450 
L 1900 150 
L 1400 150 
L 1400 3600 
z
" transform="scale(0.015625)"/>
       </defs>
       <use xlink:href="#SimHei-31"/>
       <use xlink:href="#SimHei-30" transform="translate(50 0)"/>
       <use xlink:href="#SimHei-30" transform="translate(100 0)"/>
       <use xlink:href="#SimHei-30" transform="translate(150 0)"/>
       <use xlink:href="#SimHei-30" transform="translate(200 0)"/>
      </g>
     </g>
    </g>
    <g id="text_7">
     <!-- Time (h) -->
     <g style="fill: #262626" transform="translate(359.427969 411.046899) scale(0.13 -0.13)">
      <defs>
       <path id="SimHei-54" d="M 2850 3925 
L 1850 3925 
L 1850 125 
L 1275 125 
L 1275 3925 
L 275 3925 
L 275 4400 
L 2850 4400 
L 2850 3925 
z
" transform="scale(0.015625)"/>
       <path id="SimHei-69" d="M 1800 3725 
L 1300 3725 
L 1300 4375 
L 1800 4375 
L 1800 3725 
z
M 1800 125 
L 1300 125 
L 1300 2925 
L 1800 2925 
L 1800 125 
z
" transform="scale(0.015625)"/>
       <path id="SimHei-6d" d="M 3050 125 
L 2550 125 
L 2550 2150 
Q 2550 2300 2500 2400 
Q 2450 2500 2300 2500 
Q 2125 2500 1975 2312 
Q 1825 2125 1825 1825 
L 1825 125 
L 1325 125 
L 1325 2150 
Q 1325 2300 1275 2400 
Q 1225 2500 1075 2500 
Q 900 2500 750 2312 
Q 600 2125 600 1825 
L 600 125 
L 100 125 
L 100 2925 
L 600 2925 
L 600 2550 
Q 725 2750 900 2862 
Q 1075 2975 1275 2975 
Q 1475 2975 1612 2862 
Q 1750 2750 1800 2550 
Q 1925 2750 2087 2862 
Q 2250 2975 2450 2975 
Q 2750 2975 2900 2812 
Q 3050 2650 3050 2350 
L 3050 125 
z
" transform="scale(0.015625)"/>
       <path id="SimHei-65" d="M 2850 1075 
Q 2800 625 2450 350 
Q 2100 75 1625 75 
Q 1025 75 637 462 
Q 250 850 250 1525 
Q 250 2200 637 2587 
Q 1025 2975 1625 2975 
Q 2150 2975 2487 2637 
Q 2825 2300 2825 1525 
L 800 1525 
Q 800 975 1037 750 
Q 1275 525 1625 525 
Q 1900 525 2075 662 
Q 2250 800 2300 1075 
L 2850 1075 
z
M 2250 1925 
Q 2200 2275 2025 2412 
Q 1850 2550 1575 2550 
Q 1325 2550 1125 2412 
Q 925 2275 825 1925 
L 2250 1925 
z
" transform="scale(0.015625)"/>
       <path id="SimHei-20" transform="scale(0.015625)"/>
       <path id="SimHei-28" d="M 2975 -200 
L 2700 -475 
Q 2075 125 1762 775 
Q 1450 1425 1450 2250 
Q 1450 3075 1762 3725 
Q 2075 4375 2700 5000 
L 2975 4725 
Q 2400 4175 2112 3587 
Q 1825 3000 1825 2250 
Q 1825 1500 2112 912 
Q 2400 325 2975 -200 
z
" transform="scale(0.015625)"/>
       <path id="SimHei-68" d="M 2800 125 
L 2300 125 
L 2300 1925 
Q 2300 2225 2150 2400 
Q 2000 2575 1750 2575 
Q 1425 2575 1137 2237 
Q 850 1900 850 1400 
L 850 125 
L 350 125 
L 350 4400 
L 850 4400 
L 850 2400 
Q 1050 2675 1287 2825 
Q 1525 2975 1900 2975 
Q 2350 2975 2575 2725 
Q 2800 2475 2800 2100 
L 2800 125 
z
" transform="scale(0.015625)"/>
       <path id="SimHei-29" d="M 1675 2250 
Q 1675 1425 1362 775 
Q 1050 125 425 -475 
L 150 -200 
Q 725 325 1012 912 
Q 1300 1500 1300 2250 
Q 1300 3000 1012 3587 
Q 725 4175 150 4725 
L 425 5000 
Q 1050 4375 1362 3725 
Q 1675 3075 1675 2250 
z
" transform="scale(0.015625)"/>
      </defs>
      <use xlink:href="#SimHei-54"/>
      <use xlink:href="#SimHei-69" transform="translate(50 0)"/>
      <use xlink:href="#SimHei-6d" transform="translate(100 0)"/>
      <use xlink:href="#SimHei-65" transform="translate(150 0)"/>
      <use xlink:href="#SimHei-20" transform="translate(200 0)"/>
      <use xlink:href="#SimHei-28" transform="translate(250 0)"/>
      <use xlink:href="#SimHei-68" transform="translate(300 0)"/>
      <use xlink:href="#SimHei-29" transform="translate(350 0)"/>
     </g>
    </g>
   </g>
   <g id="matplotlib.axis_2">
    <g id="ytick_1">
     <g id="line2d_7">
      <path d="M 70.321094 362.259953 
L 700.534844 362.259953 
" clip-path="url(#p133adfc861)" style="fill: none; stroke-dasharray: 3.7,1.6; stroke-dashoffset: 0; stroke: #cccccc; stroke-opacity: 0.4"/>
     </g>
     <g id="text_8">
      <!-- 0.00000 -->
      <g style="fill: #262626" transform="translate(22.321094 366.041203) scale(0.11 -0.11)">
       <defs>
        <path id="SimHei-2e" d="M 1075 125 
L 500 125 
L 500 675 
L 1075 675 
L 1075 125 
z
" transform="scale(0.015625)"/>
       </defs>
       <use xlink:href="#SimHei-30"/>
       <use xlink:href="#SimHei-2e" transform="translate(50 0)"/>
       <use xlink:href="#SimHei-30" transform="translate(100 0)"/>
       <use xlink:href="#SimHei-30" transform="translate(150 0)"/>
       <use xlink:href="#SimHei-30" transform="translate(200 0)"/>
       <use xlink:href="#SimHei-30" transform="translate(250 0)"/>
       <use xlink:href="#SimHei-30" transform="translate(300 0)"/>
      </g>
     </g>
    </g>
    <g id="ytick_2">
     <g id="line2d_8">
      <path d="M 70.321094 318.350115 
L 700.534844 318.350115 
" clip-path="url(#p133adfc861)" style="fill: none; stroke-dasharray: 3.7,1.6; stroke-dashoffset: 0; stroke: #cccccc; stroke-opacity: 0.4"/>
     </g>
     <g id="text_9">
      <!-- 0.00005 -->
      <g style="fill: #262626" transform="translate(22.321094 322.131365) scale(0.11 -0.11)">
       <defs>
        <path id="SimHei-35" d="M 550 1325 
Q 725 650 1150 575 
Q 1575 500 1837 662 
Q 2100 825 2212 1087 
Q 2325 1350 2312 1675 
Q 2300 2000 2137 2225 
Q 1975 2450 1725 2525 
Q 1475 2600 1162 2525 
Q 850 2450 650 2175 
L 225 2225 
Q 275 2375 700 4375 
L 2675 4375 
L 2675 3925 
L 1075 3925 
Q 950 3250 825 2850 
Q 1200 3025 1525 3012 
Q 1850 3000 2150 2862 
Q 2450 2725 2587 2487 
Q 2725 2250 2787 2012 
Q 2850 1775 2837 1500 
Q 2825 1225 2725 937 
Q 2625 650 2425 462 
Q 2225 275 1937 162 
Q 1650 50 1275 75 
Q 900 100 562 350 
Q 225 600 100 1200 
L 550 1325 
z
" transform="scale(0.015625)"/>
       </defs>
       <use xlink:href="#SimHei-30"/>
       <use xlink:href="#SimHei-2e" transform="translate(50 0)"/>
       <use xlink:href="#SimHei-30" transform="translate(100 0)"/>
       <use xlink:href="#SimHei-30" transform="translate(150 0)"/>
       <use xlink:href="#SimHei-30" transform="translate(200 0)"/>
       <use xlink:href="#SimHei-30" transform="translate(250 0)"/>
       <use xlink:href="#SimHei-35" transform="translate(300 0)"/>
      </g>
     </g>
    </g>
    <g id="ytick_3">
     <g id="line2d_9">
      <path d="M 70.321094 274.440277 
L 700.534844 274.440277 
" clip-path="url(#p133adfc861)" style="fill: none; stroke-dasharray: 3.7,1.6; stroke-dashoffset: 0; stroke: #cccccc; stroke-opacity: 0.4"/>
     </g>
     <g id="text_10">
      <!-- 0.00010 -->
      <g style="fill: #262626" transform="translate(22.321094 278.221527) scale(0.11 -0.11)">
       <use xlink:href="#SimHei-30"/>
       <use xlink:href="#SimHei-2e" transform="translate(50 0)"/>
       <use xlink:href="#SimHei-30" transform="translate(100 0)"/>
       <use xlink:href="#SimHei-30" transform="translate(150 0)"/>
       <use xlink:href="#SimHei-30" transform="translate(200 0)"/>
       <use xlink:href="#SimHei-31" transform="translate(250 0)"/>
       <use xlink:href="#SimHei-30" transform="translate(300 0)"/>
      </g>
     </g>
    </g>
    <g id="ytick_4">
     <g id="line2d_10">
      <path d="M 70.321094 230.53044 
L 700.534844 230.53044 
" clip-path="url(#p133adfc861)" style="fill: none; stroke-dasharray: 3.7,1.6; stroke-dashoffset: 0; stroke: #cccccc; stroke-opacity: 0.4"/>
     </g>
     <g id="text_11">
      <!-- 0.00015 -->
      <g style="fill: #262626" transform="translate(22.321094 234.31169) scale(0.11 -0.11)">
       <use xlink:href="#SimHei-30"/>
       <use xlink:href="#SimHei-2e" transform="translate(50 0)"/>
       <use xlink:href="#SimHei-30" transform="translate(100 0)"/>
       <use xlink:href="#SimHei-30" transform="translate(150 0)"/>
       <use xlink:href="#SimHei-30" transform="translate(200 0)"/>
       <use xlink:href="#SimHei-31" transform="translate(250 0)"/>
       <use xlink:href="#SimHei-35" transform="translate(300 0)"/>
      </g>
     </g>
    </g>
    <g id="ytick_5">
     <g id="line2d_11">
      <path d="M 70.321094 186.620602 
L 700.534844 186.620602 
" clip-path="url(#p133adfc861)" style="fill: none; stroke-dasharray: 3.7,1.6; stroke-dashoffset: 0; stroke: #cccccc; stroke-opacity: 0.4"/>
     </g>
     <g id="text_12">
      <!-- 0.00020 -->
      <g style="fill: #262626" transform="translate(22.321094 190.401852) scale(0.11 -0.11)">
       <use xlink:href="#SimHei-30"/>
       <use xlink:href="#SimHei-2e" transform="translate(50 0)"/>
       <use xlink:href="#SimHei-30" transform="translate(100 0)"/>
       <use xlink:href="#SimHei-30" transform="translate(150 0)"/>
       <use xlink:href="#SimHei-30" transform="translate(200 0)"/>
       <use xlink:href="#SimHei-32" transform="translate(250 0)"/>
       <use xlink:href="#SimHei-30" transform="translate(300 0)"/>
      </g>
     </g>
    </g>
    <g id="ytick_6">
     <g id="line2d_12">
      <path d="M 70.321094 142.710764 
L 700.534844 142.710764 
" clip-path="url(#p133adfc861)" style="fill: none; stroke-dasharray: 3.7,1.6; stroke-dashoffset: 0; stroke: #cccccc; stroke-opacity: 0.4"/>
     </g>
     <g id="text_13">
      <!-- 0.00025 -->
      <g style="fill: #262626" transform="translate(22.321094 146.492014) scale(0.11 -0.11)">
       <use xlink:href="#SimHei-30"/>
       <use xlink:href="#SimHei-2e" transform="translate(50 0)"/>
       <use xlink:href="#SimHei-30" transform="translate(100 0)"/>
       <use xlink:href="#SimHei-30" transform="translate(150 0)"/>
       <use xlink:href="#SimHei-30" transform="translate(200 0)"/>
       <use xlink:href="#SimHei-32" transform="translate(250 0)"/>
       <use xlink:href="#SimHei-35" transform="translate(300 0)"/>
      </g>
     </g>
    </g>
    <g id="ytick_7">
     <g id="line2d_13">
      <path d="M 70.321094 98.800926 
L 700.534844 98.800926 
" clip-path="url(#p133adfc861)" style="fill: none; stroke-dasharray: 3.7,1.6; stroke-dashoffset: 0; stroke: #cccccc; stroke-opacity: 0.4"/>
     </g>
     <g id="text_14">
      <!-- 0.00030 -->
      <g style="fill: #262626" transform="translate(22.321094 102.582176) scale(0.11 -0.11)">
       <defs>
        <path id="SimHei-33" d="M 250 1225 
L 700 1300 
Q 800 975 1025 762 
Q 1250 550 1587 562 
Q 1925 575 2125 837 
Q 2325 1100 2300 1437 
Q 2275 1775 2037 1962 
Q 1800 2150 1275 2225 
L 1275 2550 
Q 1800 2600 2037 2825 
Q 2275 3050 2250 3412 
Q 2225 3775 1925 3937 
Q 1625 4100 1287 3975 
Q 950 3850 750 3275 
L 300 3350 
Q 450 3800 712 4100 
Q 975 4400 1425 4450 
Q 1875 4500 2212 4337 
Q 2550 4175 2687 3837 
Q 2825 3500 2725 3100 
Q 2625 2700 2150 2400 
Q 2500 2250 2687 1950 
Q 2875 1650 2812 1162 
Q 2750 675 2375 375 
Q 2000 75 1525 87 
Q 1050 100 700 387 
Q 350 675 250 1225 
z
" transform="scale(0.015625)"/>
       </defs>
       <use xlink:href="#SimHei-30"/>
       <use xlink:href="#SimHei-2e" transform="translate(50 0)"/>
       <use xlink:href="#SimHei-30" transform="translate(100 0)"/>
       <use xlink:href="#SimHei-30" transform="translate(150 0)"/>
       <use xlink:href="#SimHei-30" transform="translate(200 0)"/>
       <use xlink:href="#SimHei-33" transform="translate(250 0)"/>
       <use xlink:href="#SimHei-30" transform="translate(300 0)"/>
      </g>
     </g>
    </g>
    <g id="ytick_8">
     <g id="line2d_14">
      <path d="M 70.321094 54.891088 
L 700.534844 54.891088 
" clip-path="url(#p133adfc861)" style="fill: none; stroke-dasharray: 3.7,1.6; stroke-dashoffset: 0; stroke: #cccccc; stroke-opacity: 0.4"/>
     </g>
     <g id="text_15">
      <!-- 0.00035 -->
      <g style="fill: #262626" transform="translate(22.321094 58.672338) scale(0.11 -0.11)">
       <use xlink:href="#SimHei-30"/>
       <use xlink:href="#SimHei-2e" transform="translate(50 0)"/>
       <use xlink:href="#SimHei-30" transform="translate(100 0)"/>
       <use xlink:href="#SimHei-30" transform="translate(150 0)"/>
       <use xlink:href="#SimHei-30" transform="translate(200 0)"/>
       <use xlink:href="#SimHei-33" transform="translate(250 0)"/>
       <use xlink:href="#SimHei-35" transform="translate(300 0)"/>
      </g>
     </g>
    </g>
    <g id="ytick_9">
     <g id="line2d_15">
      <path d="M 70.321094 10.98125 
L 700.534844 10.98125 
" clip-path="url(#p133adfc861)" style="fill: none; stroke-dasharray: 3.7,1.6; stroke-dashoffset: 0; stroke: #cccccc; stroke-opacity: 0.4"/>
     </g>
     <g id="text_16">
      <!-- 0.00040 -->
      <g style="fill: #262626" transform="translate(22.321094 14.7625) scale(0.11 -0.11)">
       <use xlink:href="#SimHei-30"/>
       <use xlink:href="#SimHei-2e" transform="translate(50 0)"/>
       <use xlink:href="#SimHei-30" transform="translate(100 0)"/>
       <use xlink:href="#SimHei-30" transform="translate(150 0)"/>
       <use xlink:href="#SimHei-30" transform="translate(200 0)"/>
       <use xlink:href="#SimHei-34" transform="translate(250 0)"/>
       <use xlink:href="#SimHei-30" transform="translate(300 0)"/>
      </g>
     </g>
    </g>
    <g id="text_17">
     <!-- f(t) -->
     <g style="fill: #262626" transform="translate(16.696094 206.726435) rotate(-90) scale(0.13 -0.13)">
      <defs>
       <path id="SimHei-66" d="M 2850 3825 
Q 2725 3900 2550 3950 
Q 2375 4000 2100 4000 
Q 1825 4000 1725 3862 
Q 1625 3725 1625 3525 
L 1625 2925 
L 2650 2925 
L 2650 2525 
L 1625 2525 
L 1625 125 
L 1125 125 
L 1125 2525 
L 275 2525 
L 275 2925 
L 1125 2925 
L 1125 3500 
Q 1125 3950 1400 4200 
Q 1675 4450 2125 4450 
Q 2400 4450 2562 4412 
Q 2725 4375 2850 4325 
L 2850 3825 
z
" transform="scale(0.015625)"/>
       <path id="SimHei-74" d="M 2750 200 
Q 2625 150 2462 112 
Q 2300 75 2025 75 
Q 1575 75 1300 325 
Q 1025 575 1025 1025 
L 1025 2525 
L 175 2525 
L 175 2925 
L 1025 2925 
L 1025 3900 
L 1525 3900 
L 1525 2925 
L 2550 2925 
L 2550 2525 
L 1525 2525 
L 1525 1000 
Q 1525 800 1625 662 
Q 1725 525 2000 525 
Q 2275 525 2450 575 
Q 2625 625 2750 700 
L 2750 200 
z
" transform="scale(0.015625)"/>
      </defs>
      <use xlink:href="#SimHei-66"/>
      <use xlink:href="#SimHei-28" transform="translate(50 0)"/>
      <use xlink:href="#SimHei-74" transform="translate(100 0)"/>
      <use xlink:href="#SimHei-29" transform="translate(150 0)"/>
     </g>
    </g>
   </g>
   <g id="line2d_16">
    <path d="M 98.967173 362.259953 
L 144.892752 362.159533 
L 158.670425 361.911378 
L 169.00368 361.516638 
L 177.040657 361.015517 
L 183.929493 360.401533 
L 190.81833 359.57036 
L 196.559027 358.675015 
L 202.299725 357.560088 
L 208.040422 356.188989 
L 212.63298 354.880949 
L 217.225538 353.361513 
L 221.818096 351.607411 
L 226.410653 349.594118 
L 231.003211 347.295938 
L 235.595769 344.686113 
L 239.040188 342.507608 
L 242.484606 340.126297 
L 245.929024 337.530046 
L 249.373443 334.706601 
L 252.817861 331.643664 
L 256.262279 328.328969 
L 259.706698 324.750375 
L 263.151116 320.89597 
L 266.595535 316.754189 
L 270.039953 312.313937 
L 273.484371 307.56474 
L 276.92879 302.496893 
L 280.373208 297.101639 
L 283.817626 291.371349 
L 287.262045 285.299724 
L 290.706463 278.882013 
L 295.299021 269.781841 
L 299.891579 260.059959 
L 304.484137 249.722425 
L 309.076695 238.783851 
L 313.669252 227.268544 
L 318.26181 215.211658 
L 324.002508 199.45195 
L 329.743205 183.041441 
L 337.780181 159.276089 
L 356.150413 104.513938 
L 361.89111 88.373463 
L 366.483668 76.193396 
L 369.928086 67.608898 
L 373.372504 59.586998 
L 376.816923 52.210176 
L 379.113202 47.691299 
L 381.409481 43.519716 
L 383.70576 39.719027 
L 386.002038 36.312212 
L 388.298317 33.321463 
L 390.594596 30.768002 
L 392.890875 28.671888 
L 395.187154 27.051837 
L 397.483433 25.925026 
L 398.631573 25.551486 
L 399.779712 25.306906 
L 400.927851 25.192916 
L 402.075991 25.211018 
L 403.22413 25.362576 
L 404.37227 25.648812 
L 405.520409 26.070802 
L 406.668549 26.62947 
L 407.816688 27.325584 
L 408.964828 28.15975 
L 411.261107 30.243831 
L 413.557386 32.883178 
L 415.853664 36.076426 
L 418.149943 39.819283 
L 420.446222 44.104452 
L 422.742501 48.921584 
L 425.03878 54.257253 
L 427.335059 60.094961 
L 429.631338 66.415173 
L 433.075756 76.750173 
L 436.520175 88.031584 
L 439.964593 100.158053 
L 443.409012 113.016219 
L 448.001569 131.083807 
L 453.742267 154.70667 
L 469.816219 221.728147 
L 474.408777 239.756094 
L 479.001335 256.788861 
L 482.445753 268.785001 
L 485.890172 280.036538 
L 489.33459 290.491817 
L 492.779008 300.116054 
L 496.223427 308.891081 
L 499.667845 316.814595 
L 501.964124 321.629436 
L 504.260403 326.078058 
L 506.556682 330.169822 
L 508.852961 333.916196 
L 511.14924 337.330484 
L 513.445519 340.427542 
L 515.741798 343.223494 
L 518.038076 345.735441 
L 520.334355 347.981186 
L 522.630634 349.978965 
L 524.926913 351.747192 
L 527.223192 353.304224 
L 529.519471 354.668151 
L 532.963889 356.390374 
L 536.408308 357.774387 
L 539.852726 358.872839 
L 543.297145 359.733592 
L 546.741563 360.399317 
L 551.334121 361.047334 
L 557.074818 361.57354 
L 563.963655 361.930784 
L 573.148771 362.147429 
L 589.222723 362.246951 
L 659.25923 362.259953 
L 671.888764 362.259953 
L 671.888764 362.259953 
" clip-path="url(#p133adfc861)" style="fill: none; stroke: #4c72b0; stroke-width: 2.5; stroke-linecap: round"/>
   </g>
   <g id="patch_3">
    <path d="M 70.321094 379.113305 
L 70.321094 8.339565 
" style="fill: none; stroke: #cccccc; stroke-width: 1.25; stroke-linejoin: miter; stroke-linecap: square"/>
   </g>
   <g id="patch_4">
    <path d="M 700.534844 379.113305 
L 700.534844 8.339565 
" style="fill: none; stroke: #cccccc; stroke-width: 1.25; stroke-linejoin: miter; stroke-linecap: square"/>
   </g>
   <g id="patch_5">
    <path d="M 70.321094 379.113305 
L 700.534844 379.113305 
" style="fill: none; stroke: #cccccc; stroke-width: 1.25; stroke-linejoin: miter; stroke-linecap: square"/>
   </g>
   <g id="patch_6">
    <path d="M 70.321094 8.339565 
L 700.534844 8.339565 
" style="fill: none; stroke: #cccccc; stroke-width: 1.25; stroke-linejoin: miter; stroke-linecap: square"/>
   </g>
   <g id="legend_1">
    <g id="patch_7">
     <path d="M 498.134844 32.522377 
L 692.834844 32.522377 
Q 695.034844 32.522377 695.034844 30.322377 
L 695.034844 16.039565 
Q 695.034844 13.839565 692.834844 13.839565 
L 498.134844 13.839565 
Q 495.934844 13.839565 495.934844 16.039565 
L 495.934844 30.322377 
Q 495.934844 32.522377 498.134844 32.522377 
z
" style="fill: #ffffff; opacity: 0.9; stroke: #cccccc; stroke-linejoin: miter"/>
    </g>
    <g id="line2d_17">
     <path d="M 500.334844 22.897377 
L 511.334844 22.897377 
L 522.334844 22.897377 
" style="fill: none; stroke: #4c72b0; stroke-width: 2.5; stroke-linecap: round"/>
    </g>
    <g id="text_18">
     <!-- Weibull (β=5.749, η=5599.2) -->
     <g style="fill: #262626" transform="translate(531.134844 26.747377) scale(0.11 -0.11)">
      <defs>
       <path id="SimHei-57" d="M 3075 4400 
L 2525 75 
L 2025 75 
L 1575 3275 
L 1525 3275 
L 1075 75 
L 575 75 
L 25 4400 
L 575 4400 
L 850 1675 
L 900 1675 
L 1275 4400 
L 1825 4400 
L 2200 1675 
L 2250 1675 
L 2525 4400 
L 3075 4400 
z
" transform="scale(0.015625)"/>
       <path id="SimHei-62" d="M 2825 1525 
Q 2825 800 2475 437 
Q 2125 75 1625 75 
Q 1350 75 1150 175 
Q 950 275 800 500 
L 800 125 
L 300 125 
L 300 4400 
L 800 4400 
L 800 2550 
Q 950 2775 1150 2887 
Q 1350 3000 1625 3000 
Q 2125 3000 2475 2625 
Q 2825 2250 2825 1525 
z
M 2275 1525 
Q 2275 2000 2087 2275 
Q 1900 2550 1525 2550 
Q 1225 2550 1012 2275 
Q 800 2000 800 1525 
Q 800 1050 1012 787 
Q 1225 525 1525 525 
Q 1900 525 2087 787 
Q 2275 1050 2275 1525 
z
" transform="scale(0.015625)"/>
       <path id="SimHei-75" d="M 2800 125 
L 2300 125 
L 2300 650 
Q 2100 375 1862 225 
Q 1625 75 1250 75 
Q 800 75 575 325 
Q 350 575 350 950 
L 350 2925 
L 850 2925 
L 850 1125 
Q 850 825 1000 650 
Q 1150 475 1400 475 
Q 1725 475 2012 812 
Q 2300 1150 2300 1650 
L 2300 2925 
L 2800 2925 
L 2800 125 
z
" transform="scale(0.015625)"/>
       <path id="SimHei-6c" d="M 1825 125 
L 1325 125 
L 1325 4400 
L 1825 4400 
L 1825 125 
z
" transform="scale(0.015625)"/>
       <path id="SimHei-3b2" d="M 3050 4550 
Q 3775 4500 4000 3925 
Q 4225 3200 3750 2650 
L 3725 2625 
Q 4500 2375 4475 1275 
Q 4275 325 3450 175 
Q 2775 75 2325 525 
L 2325 -750 
L 1925 -750 
L 1925 3525 
Q 2100 4400 2800 4525 
L 3050 4550 
z
M 2950 4150 
Q 2400 4075 2350 3650 
L 2325 3075 
L 2325 1025 
Q 2600 600 3200 575 
L 3325 575 
Q 4000 675 4075 1575 
Q 4025 2200 3550 2325 
L 3050 2350 
L 2850 2350 
L 2850 2700 
Q 3450 2575 3650 3300 
L 3650 3600 
Q 3650 3925 3125 4125 
L 2950 4150 
z
" transform="scale(0.015625)"/>
       <path id="SimHei-3d" d="M 2975 2900 
L 125 2900 
L 125 3300 
L 2975 3300 
L 2975 2900 
z
M 2975 1375 
L 125 1375 
L 125 1775 
L 2975 1775 
L 2975 1375 
z
" transform="scale(0.015625)"/>
       <path id="SimHei-37" d="M 850 150 
Q 1300 2050 2425 3925 
L 275 3925 
L 275 4375 
L 2950 4375 
L 2950 3950 
Q 1775 2050 1400 150 
L 850 150 
z
" transform="scale(0.015625)"/>
       <path id="SimHei-39" d="M 800 75 
Q 1350 1000 1700 1750 
Q 1075 1650 662 1912 
Q 250 2175 162 2625 
Q 75 3075 175 3437 
Q 275 3800 487 4037 
Q 700 4275 1000 4375 
Q 1300 4475 1537 4475 
Q 1775 4475 2025 4375 
Q 2275 4275 2475 4075 
Q 2675 3875 2750 3662 
Q 2825 3450 2825 3112 
Q 2825 2775 2575 2250 
Q 2325 1725 1350 75 
L 800 75 
z
M 662 2875 
Q 700 2550 937 2337 
Q 1175 2125 1450 2150 
Q 1725 2175 1887 2300 
Q 2050 2425 2200 2725 
Q 2300 3100 2250 3362 
Q 2200 3625 1987 3800 
Q 1775 3975 1525 3975 
Q 1375 4000 1137 3900 
Q 900 3800 762 3500 
Q 625 3200 662 2875 
z
" transform="scale(0.015625)"/>
       <path id="SimHei-2c" d="M 1100 125 
L 775 -550 
L 525 -550 
L 775 125 
L 525 125 
L 525 675 
L 1100 675 
L 1100 125 
z
" transform="scale(0.015625)"/>
       <path id="SimHei-3b7" d="M 3825 3250 
Q 4525 3200 4625 2650 
Q 4675 2650 4675 2175 
L 4675 -750 
L 4250 -750 
L 4250 2400 
Q 4200 2800 3700 2825 
Q 3125 2775 2975 2300 
L 2975 225 
L 2550 225 
L 2550 2700 
L 2450 2800 
Q 2300 2850 1950 2475 
L 1675 2675 
Q 2150 3325 2700 3200 
Q 2850 3200 2975 2850 
Q 3200 3150 3750 3250 
L 3825 3250 
z
" transform="scale(0.015625)"/>
      </defs>
      <use xlink:href="#SimHei-57"/>
      <use xlink:href="#SimHei-65" transform="translate(50 0)"/>
      <use xlink:href="#SimHei-69" transform="translate(100 0)"/>
      <use xlink:href="#SimHei-62" transform="translate(150 0)"/>
      <use xlink:href="#SimHei-75" transform="translate(200 0)"/>
      <use xlink:href="#SimHei-6c" transform="translate(250 0)"/>
      <use xlink:href="#SimHei-6c" transform="translate(300 0)"/>
      <use xlink:href="#SimHei-20" transform="translate(350 0)"/>
      <use xlink:href="#SimHei-28" transform="translate(400 0)"/>
      <use xlink:href="#SimHei-3b2" transform="translate(450 0)"/>
      <use xlink:href="#SimHei-3d" transform="translate(550 0)"/>
      <use xlink:href="#SimHei-35" transform="translate(600 0)"/>
      <use xlink:href="#SimHei-2e" transform="translate(650 0)"/>
      <use xlink:href="#SimHei-37" transform="translate(700 0)"/>
      <use xlink:href="#SimHei-34" transform="translate(750 0)"/>
      <use xlink:href="#SimHei-39" transform="translate(800 0)"/>
      <use xlink:href="#SimHei-2c" transform="translate(850 0)"/>
      <use xlink:href="#SimHei-20" transform="translate(900 0)"/>
      <use xlink:href="#SimHei-3b7" transform="translate(950 0)"/>
      <use xlink:href="#SimHei-3d" transform="translate(1050 0)"/>
      <use xlink:href="#SimHei-35" transform="translate(1100 0)"/>
      <use xlink:href="#SimHei-35" transform="translate(1150 0)"/>
      <use xlink:href="#SimHei-39" transform="translate(1200 0)"/>
      <use xlink:href="#SimHei-39" transform="translate(1250 0)"/>
      <use xlink:href="#SimHei-2e" transform="translate(1300 0)"/>
      <use xlink:href="#SimHei-32" transform="translate(1350 0)"/>
      <use xlink:href="#SimHei-29" transform="translate(1400 0)"/>
     </g>
    </g>
   </g>
  </g>
 </g>
 <defs>
  <clipPath id="p133adfc861">
   <rect x="70.321094" y="8.339565" width="630.21375" height="370.773741"/>
  </clipPath>
 </defs>
</svg>
