<?xml version="1.0" encoding="utf-8" standalone="no"?>
<!DOCTYPE svg PUBLIC "-//W3C//DTD SVG 1.1//EN"
  "http://www.w3.org/Graphics/SVG/1.1/DTD/svg11.dtd">
<svg xmlns:xlink="http://www.w3.org/1999/xlink" width="712.5925pt" height="420.33pt" viewBox="0 0 712.5925 420.33" xmlns="http://www.w3.org/2000/svg" version="1.1">
 <metadata>
  <rdf:RDF xmlns:dc="http://purl.org/dc/elements/1.1/" xmlns:cc="http://creativecommons.org/ns#" xmlns:rdf="http://www.w3.org/1999/02/22-rdf-syntax-ns#">
   <cc:Work>
    <dc:type rdf:resource="http://purl.org/dc/dcmitype/StillImage"/>
    <dc:date>2026-03-18T12:58:47.084507</dc:date>
    <dc:format>image/svg+xml</dc:format>
    <dc:creator>
     <cc:Agent>
      <dc:title>Matplotlib v3.10.8, https://matplotlib.org/</dc:title>
     </cc:Agent>
    </dc:creator>
   </cc:Work>
  </rdf:RDF>
 </metadata>
 <defs>
  <style type="text/css">*{stroke-linejoin: round; stroke-linecap: butt}</style>
 </defs>
 <g id="figure_1">
  <g id="patch_1">
   <path d="M 0 420.33 
L 712.5925 420.33 
L 712.5925 0 
L 0 0 
z
" style="fill: #ffffff"/>
  </g>
  <g id="axes_1">
   <g id="patch_2">
    <path d="M 45.2625 380.1925 
L 705.3925 380.1925 
L 705.3925 29.5125 
L 45.2625 29.5125 
z
" style="fill: #ffffff"/>
   </g>
   <g id="patch_3">
    <path d="M 75.268409 380.1925 
L 87.270773 380.1925 
L 87.270773 357.927103 
L 75.268409 357.927103 
z
" clip-path="url(#p16862cd495)" style="fill: #4682b4; opacity: 0.6; stroke: #ffffff; stroke-width: 1.2; stroke-linejoin: miter"/>
   </g>
   <g id="patch_4">
    <path d="M 87.270773 380.1925 
L 99.273136 380.1925 
L 99.273136 313.39631 
L 87.270773 313.39631 
z
" clip-path="url(#p16862cd495)" style="fill: #4682b4; opacity: 0.6; stroke: #ffffff; stroke-width: 1.2; stroke-linejoin: miter"/>
   </g>
   <g id="patch_5">
    <path d="M 99.273136 380.1925 
L 111.2755 380.1925 
L 111.2755 224.334722 
L 99.273136 224.334722 
z
" clip-path="url(#p16862cd495)" style="fill: #4682b4; opacity: 0.6; stroke: #ffffff; stroke-width: 1.2; stroke-linejoin: miter"/>
   </g>
   <g id="patch_6">
    <path d="M 111.2755 380.1925 
L 123.277864 380.1925 
L 123.277864 135.273135 
L 111.2755 135.273135 
z
" clip-path="url(#p16862cd495)" style="fill: #4682b4; opacity: 0.6; stroke: #ffffff; stroke-width: 1.2; stroke-linejoin: miter"/>
   </g>
   <g id="patch_7">
    <path d="M 123.277864 380.1925 
L 135.280227 380.1925 
L 135.280227 246.600119 
L 123.277864 246.600119 
z
" clip-path="url(#p16862cd495)" style="fill: #4682b4; opacity: 0.6; stroke: #ffffff; stroke-width: 1.2; stroke-linejoin: miter"/>
   </g>
   <g id="patch_8">
    <path d="M 135.280227 380.1925 
L 147.282591 380.1925 
L 147.282591 246.600119 
L 135.280227 246.600119 
z
" clip-path="url(#p16862cd495)" style="fill: #4682b4; opacity: 0.6; stroke: #ffffff; stroke-width: 1.2; stroke-linejoin: miter"/>
   </g>
   <g id="patch_9">
    <path d="M 147.282591 380.1925 
L 159.284955 380.1925 
L 159.284955 135.273135 
L 147.282591 135.273135 
z
" clip-path="url(#p16862cd495)" style="fill: #4682b4; opacity: 0.6; stroke: #ffffff; stroke-width: 1.2; stroke-linejoin: miter"/>
   </g>
   <g id="patch_10">
    <path d="M 159.284955 380.1925 
L 171.287318 380.1925 
L 171.287318 68.476944 
L 159.284955 68.476944 
z
" clip-path="url(#p16862cd495)" style="fill: #4682b4; opacity: 0.6; stroke: #ffffff; stroke-width: 1.2; stroke-linejoin: miter"/>
   </g>
   <g id="patch_11">
    <path d="M 171.287318 380.1925 
L 183.289682 380.1925 
L 183.289682 135.273135 
L 171.287318 135.273135 
z
" clip-path="url(#p16862cd495)" style="fill: #4682b4; opacity: 0.6; stroke: #ffffff; stroke-width: 1.2; stroke-linejoin: miter"/>
   </g>
   <g id="patch_12">
    <path d="M 183.289682 380.1925 
L 195.292045 380.1925 
L 195.292045 90.742341 
L 183.289682 90.742341 
z
" clip-path="url(#p16862cd495)" style="fill: #4682b4; opacity: 0.6; stroke: #ffffff; stroke-width: 1.2; stroke-linejoin: miter"/>
   </g>
   <g id="patch_13">
    <path d="M 195.292045 380.1925 
L 207.294409 380.1925 
L 207.294409 135.273135 
L 195.292045 135.273135 
z
" clip-path="url(#p16862cd495)" style="fill: #4682b4; opacity: 0.6; stroke: #ffffff; stroke-width: 1.2; stroke-linejoin: miter"/>
   </g>
   <g id="patch_14">
    <path d="M 207.294409 380.1925 
L 219.296773 380.1925 
L 219.296773 68.476944 
L 207.294409 68.476944 
z
" clip-path="url(#p16862cd495)" style="fill: #4682b4; opacity: 0.6; stroke: #ffffff; stroke-width: 1.2; stroke-linejoin: miter"/>
   </g>
   <g id="patch_15">
    <path d="M 219.296773 380.1925 
L 231.299136 380.1925 
L 231.299136 46.211548 
L 219.296773 46.211548 
z
" clip-path="url(#p16862cd495)" style="fill: #4682b4; opacity: 0.6; stroke: #ffffff; stroke-width: 1.2; stroke-linejoin: miter"/>
   </g>
   <g id="patch_16">
    <path d="M 231.299136 380.1925 
L 243.3015 380.1925 
L 243.3015 224.334722 
L 231.299136 224.334722 
z
" clip-path="url(#p16862cd495)" style="fill: #4682b4; opacity: 0.6; stroke: #ffffff; stroke-width: 1.2; stroke-linejoin: miter"/>
   </g>
   <g id="patch_17">
    <path d="M 243.3015 380.1925 
L 255.303864 380.1925 
L 255.303864 224.334722 
L 243.3015 224.334722 
z
" clip-path="url(#p16862cd495)" style="fill: #4682b4; opacity: 0.6; stroke: #ffffff; stroke-width: 1.2; stroke-linejoin: miter"/>
   </g>
   <g id="patch_18">
    <path d="M 255.303864 380.1925 
L 267.306227 380.1925 
L 267.306227 157.538532 
L 255.303864 157.538532 
z
" clip-path="url(#p16862cd495)" style="fill: #4682b4; opacity: 0.6; stroke: #ffffff; stroke-width: 1.2; stroke-linejoin: miter"/>
   </g>
   <g id="patch_19">
    <path d="M 267.306227 380.1925 
L 279.308591 380.1925 
L 279.308591 224.334722 
L 267.306227 224.334722 
z
" clip-path="url(#p16862cd495)" style="fill: #4682b4; opacity: 0.6; stroke: #ffffff; stroke-width: 1.2; stroke-linejoin: miter"/>
   </g>
   <g id="patch_20">
    <path d="M 279.308591 380.1925 
L 291.310955 380.1925 
L 291.310955 90.742341 
L 279.308591 90.742341 
z
" clip-path="url(#p16862cd495)" style="fill: #4682b4; opacity: 0.6; stroke: #ffffff; stroke-width: 1.2; stroke-linejoin: miter"/>
   </g>
   <g id="patch_21">
    <path d="M 291.310955 380.1925 
L 303.313318 380.1925 
L 303.313318 202.069325 
L 291.310955 202.069325 
z
" clip-path="url(#p16862cd495)" style="fill: #4682b4; opacity: 0.6; stroke: #ffffff; stroke-width: 1.2; stroke-linejoin: miter"/>
   </g>
   <g id="patch_22">
    <path d="M 303.313318 380.1925 
L 315.315682 380.1925 
L 315.315682 202.069325 
L 303.313318 202.069325 
z
" clip-path="url(#p16862cd495)" style="fill: #4682b4; opacity: 0.6; stroke: #ffffff; stroke-width: 1.2; stroke-linejoin: miter"/>
   </g>
   <g id="patch_23">
    <path d="M 315.315682 380.1925 
L 327.318045 380.1925 
L 327.318045 268.865516 
L 315.315682 268.865516 
z
" clip-path="url(#p16862cd495)" style="fill: #4682b4; opacity: 0.6; stroke: #ffffff; stroke-width: 1.2; stroke-linejoin: miter"/>
   </g>
   <g id="patch_24">
    <path d="M 327.318045 380.1925 
L 339.320409 380.1925 
L 339.320409 268.865516 
L 327.318045 268.865516 
z
" clip-path="url(#p16862cd495)" style="fill: #4682b4; opacity: 0.6; stroke: #ffffff; stroke-width: 1.2; stroke-linejoin: miter"/>
   </g>
   <g id="patch_25">
    <path d="M 339.320409 380.1925 
L 351.322773 380.1925 
L 351.322773 246.600119 
L 339.320409 246.600119 
z
" clip-path="url(#p16862cd495)" style="fill: #4682b4; opacity: 0.6; stroke: #ffffff; stroke-width: 1.2; stroke-linejoin: miter"/>
   </g>
   <g id="patch_26">
    <path d="M 351.322773 380.1925 
L 363.325136 380.1925 
L 363.325136 335.661706 
L 351.322773 335.661706 
z
" clip-path="url(#p16862cd495)" style="fill: #4682b4; opacity: 0.6; stroke: #ffffff; stroke-width: 1.2; stroke-linejoin: miter"/>
   </g>
   <g id="patch_27">
    <path d="M 363.325136 380.1925 
L 375.3275 380.1925 
L 375.3275 313.39631 
L 363.325136 313.39631 
z
" clip-path="url(#p16862cd495)" style="fill: #4682b4; opacity: 0.6; stroke: #ffffff; stroke-width: 1.2; stroke-linejoin: miter"/>
   </g>
   <g id="patch_28">
    <path d="M 375.3275 380.1925 
L 387.329864 380.1925 
L 387.329864 335.661706 
L 375.3275 335.661706 
z
" clip-path="url(#p16862cd495)" style="fill: #4682b4; opacity: 0.6; stroke: #ffffff; stroke-width: 1.2; stroke-linejoin: miter"/>
   </g>
   <g id="patch_29">
    <path d="M 387.329864 380.1925 
L 399.332227 380.1925 
L 399.332227 246.600119 
L 387.329864 246.600119 
z
" clip-path="url(#p16862cd495)" style="fill: #4682b4; opacity: 0.6; stroke: #ffffff; stroke-width: 1.2; stroke-linejoin: miter"/>
   </g>
   <g id="patch_30">
    <path d="M 399.332227 380.1925 
L 411.334591 380.1925 
L 411.334591 335.661706 
L 399.332227 335.661706 
z
" clip-path="url(#p16862cd495)" style="fill: #4682b4; opacity: 0.6; stroke: #ffffff; stroke-width: 1.2; stroke-linejoin: miter"/>
   </g>
   <g id="patch_31">
    <path d="M 411.334591 380.1925 
L 423.336955 380.1925 
L 423.336955 291.130913 
L 411.334591 291.130913 
z
" clip-path="url(#p16862cd495)" style="fill: #4682b4; opacity: 0.6; stroke: #ffffff; stroke-width: 1.2; stroke-linejoin: miter"/>
   </g>
   <g id="patch_32">
    <path d="M 423.336955 380.1925 
L 435.339318 380.1925 
L 435.339318 357.927103 
L 423.336955 357.927103 
z
" clip-path="url(#p16862cd495)" style="fill: #4682b4; opacity: 0.6; stroke: #ffffff; stroke-width: 1.2; stroke-linejoin: miter"/>
   </g>
   <g id="patch_33">
    <path d="M 435.339318 380.1925 
L 447.341682 380.1925 
L 447.341682 291.130913 
L 435.339318 291.130913 
z
" clip-path="url(#p16862cd495)" style="fill: #4682b4; opacity: 0.6; stroke: #ffffff; stroke-width: 1.2; stroke-linejoin: miter"/>
   </g>
   <g id="patch_34">
    <path d="M 447.341682 380.1925 
L 459.344045 380.1925 
L 459.344045 380.1925 
L 447.341682 380.1925 
z
" clip-path="url(#p16862cd495)" style="fill: #4682b4; opacity: 0.6; stroke: #ffffff; stroke-width: 1.2; stroke-linejoin: miter"/>
   </g>
   <g id="patch_35">
    <path d="M 459.344045 380.1925 
L 471.346409 380.1925 
L 471.346409 335.661706 
L 459.344045 335.661706 
z
" clip-path="url(#p16862cd495)" style="fill: #4682b4; opacity: 0.6; stroke: #ffffff; stroke-width: 1.2; stroke-linejoin: miter"/>
   </g>
   <g id="patch_36">
    <path d="M 471.346409 380.1925 
L 483.348773 380.1925 
L 483.348773 313.39631 
L 471.346409 313.39631 
z
" clip-path="url(#p16862cd495)" style="fill: #4682b4; opacity: 0.6; stroke: #ffffff; stroke-width: 1.2; stroke-linejoin: miter"/>
   </g>
   <g id="patch_37">
    <path d="M 483.348773 380.1925 
L 495.351136 380.1925 
L 495.351136 335.661706 
L 483.348773 335.661706 
z
" clip-path="url(#p16862cd495)" style="fill: #4682b4; opacity: 0.6; stroke: #ffffff; stroke-width: 1.2; stroke-linejoin: miter"/>
   </g>
   <g id="patch_38">
    <path d="M 495.351136 380.1925 
L 507.3535 380.1925 
L 507.3535 357.927103 
L 495.351136 357.927103 
z
" clip-path="url(#p16862cd495)" style="fill: #4682b4; opacity: 0.6; stroke: #ffffff; stroke-width: 1.2; stroke-linejoin: miter"/>
   </g>
   <g id="patch_39">
    <path d="M 507.3535 380.1925 
L 519.355864 380.1925 
L 519.355864 380.1925 
L 507.3535 380.1925 
z
" clip-path="url(#p16862cd495)" style="fill: #4682b4; opacity: 0.6; stroke: #ffffff; stroke-width: 1.2; stroke-linejoin: miter"/>
   </g>
   <g id="patch_40">
    <path d="M 519.355864 380.1925 
L 531.358227 380.1925 
L 531.358227 380.1925 
L 519.355864 380.1925 
z
" clip-path="url(#p16862cd495)" style="fill: #4682b4; opacity: 0.6; stroke: #ffffff; stroke-width: 1.2; stroke-linejoin: miter"/>
   </g>
   <g id="patch_41">
    <path d="M 531.358227 380.1925 
L 543.360591 380.1925 
L 543.360591 335.661706 
L 531.358227 335.661706 
z
" clip-path="url(#p16862cd495)" style="fill: #4682b4; opacity: 0.6; stroke: #ffffff; stroke-width: 1.2; stroke-linejoin: miter"/>
   </g>
   <g id="patch_42">
    <path d="M 543.360591 380.1925 
L 555.362955 380.1925 
L 555.362955 380.1925 
L 543.360591 380.1925 
z
" clip-path="url(#p16862cd495)" style="fill: #4682b4; opacity: 0.6; stroke: #ffffff; stroke-width: 1.2; stroke-linejoin: miter"/>
   </g>
   <g id="patch_43">
    <path d="M 555.362955 380.1925 
L 567.365318 380.1925 
L 567.365318 357.927103 
L 555.362955 357.927103 
z
" clip-path="url(#p16862cd495)" style="fill: #4682b4; opacity: 0.6; stroke: #ffffff; stroke-width: 1.2; stroke-linejoin: miter"/>
   </g>
   <g id="patch_44">
    <path d="M 567.365318 380.1925 
L 579.367682 380.1925 
L 579.367682 357.927103 
L 567.365318 357.927103 
z
" clip-path="url(#p16862cd495)" style="fill: #4682b4; opacity: 0.6; stroke: #ffffff; stroke-width: 1.2; stroke-linejoin: miter"/>
   </g>
   <g id="patch_45">
    <path d="M 579.367682 380.1925 
L 591.370045 380.1925 
L 591.370045 335.661706 
L 579.367682 335.661706 
z
" clip-path="url(#p16862cd495)" style="fill: #4682b4; opacity: 0.6; stroke: #ffffff; stroke-width: 1.2; stroke-linejoin: miter"/>
   </g>
   <g id="patch_46">
    <path d="M 591.370045 380.1925 
L 603.372409 380.1925 
L 603.372409 357.927103 
L 591.370045 357.927103 
z
" clip-path="url(#p16862cd495)" style="fill: #4682b4; opacity: 0.6; stroke: #ffffff; stroke-width: 1.2; stroke-linejoin: miter"/>
   </g>
   <g id="patch_47">
    <path d="M 603.372409 380.1925 
L 615.374773 380.1925 
L 615.374773 380.1925 
L 603.372409 380.1925 
z
" clip-path="url(#p16862cd495)" style="fill: #4682b4; opacity: 0.6; stroke: #ffffff; stroke-width: 1.2; stroke-linejoin: miter"/>
   </g>
   <g id="patch_48">
    <path d="M 615.374773 380.1925 
L 627.377136 380.1925 
L 627.377136 380.1925 
L 615.374773 380.1925 
z
" clip-path="url(#p16862cd495)" style="fill: #4682b4; opacity: 0.6; stroke: #ffffff; stroke-width: 1.2; stroke-linejoin: miter"/>
   </g>
   <g id="patch_49">
    <path d="M 627.377136 380.1925 
L 639.3795 380.1925 
L 639.3795 380.1925 
L 627.377136 380.1925 
z
" clip-path="url(#p16862cd495)" style="fill: #4682b4; opacity: 0.6; stroke: #ffffff; stroke-width: 1.2; stroke-linejoin: miter"/>
   </g>
   <g id="patch_50">
    <path d="M 639.3795 380.1925 
L 651.381864 380.1925 
L 651.381864 357.927103 
L 639.3795 357.927103 
z
" clip-path="url(#p16862cd495)" style="fill: #4682b4; opacity: 0.6; stroke: #ffffff; stroke-width: 1.2; stroke-linejoin: miter"/>
   </g>
   <g id="patch_51">
    <path d="M 651.381864 380.1925 
L 663.384227 380.1925 
L 663.384227 380.1925 
L 651.381864 380.1925 
z
" clip-path="url(#p16862cd495)" style="fill: #4682b4; opacity: 0.6; stroke: #ffffff; stroke-width: 1.2; stroke-linejoin: miter"/>
   </g>
   <g id="patch_52">
    <path d="M 663.384227 380.1925 
L 675.386591 380.1925 
L 675.386591 357.927103 
L 663.384227 357.927103 
z
" clip-path="url(#p16862cd495)" style="fill: #4682b4; opacity: 0.6; stroke: #ffffff; stroke-width: 1.2; stroke-linejoin: miter"/>
   </g>
   <g id="matplotlib.axis_1">
    <g id="xtick_1">
     <g id="line2d_1">
      <path d="M 79.002988 380.1925 
L 79.002988 29.5125 
" clip-path="url(#p16862cd495)" style="fill: none; stroke-dasharray: 2.96,1.28; stroke-dashoffset: 0; stroke: #b0b0b0; stroke-opacity: 0.4; stroke-width: 0.8"/>
     </g>
     <g id="line2d_2">
      <defs>
       <path id="m0c5d6700ce" d="M 0 0 
L 0 3.5 
" style="stroke: #000000; stroke-width: 0.8"/>
      </defs>
      <g>
       <use xlink:href="#m0c5d6700ce" x="79.002988" y="380.1925" style="stroke: #000000; stroke-width: 0.8"/>
      </g>
     </g>
     <g id="text_1">
      <!-- 0.2 -->
      <g transform="translate(70.752988 394.755) scale(0.11 -0.11)">
       <defs>
        <path id="SimHei-30" d="M 225 2537 
Q 250 3200 412 3587 
Q 575 3975 875 4225 
Q 1175 4475 1612 4475 
Q 2050 4475 2375 4112 
Q 2700 3750 2800 3200 
Q 2900 2650 2862 1937 
Q 2825 1225 2612 775 
Q 2400 325 1975 150 
Q 1550 -25 1125 187 
Q 700 400 525 750 
Q 350 1100 275 1487 
Q 200 1875 225 2537 
z
M 750 2687 
Q 675 2000 800 1462 
Q 925 925 1212 700 
Q 1500 475 1800 612 
Q 2100 750 2237 1162 
Q 2375 1575 2375 2062 
Q 2375 2550 2337 2950 
Q 2300 3350 2112 3675 
Q 1925 4000 1612 4012 
Q 1300 4025 1062 3700 
Q 825 3375 750 2687 
z
" transform="scale(0.015625)"/>
        <path id="SimHei-2e" d="M 1075 125 
L 500 125 
L 500 675 
L 1075 675 
L 1075 125 
z
" transform="scale(0.015625)"/>
        <path id="SimHei-32" d="M 300 250 
Q 325 625 650 925 
Q 975 1225 1475 1862 
Q 1975 2500 2125 2850 
Q 2275 3200 2237 3450 
Q 2200 3700 2000 3862 
Q 1800 4025 1537 4000 
Q 1275 3975 1037 3800 
Q 800 3625 675 3275 
L 200 3350 
Q 400 3925 712 4187 
Q 1025 4450 1450 4475 
Q 1700 4500 1900 4462 
Q 2100 4425 2312 4287 
Q 2525 4150 2662 3875 
Q 2800 3600 2762 3212 
Q 2725 2825 2375 2287 
Q 2025 1750 1025 600 
L 2825 600 
L 2825 150 
L 300 150 
L 300 250 
z
" transform="scale(0.015625)"/>
       </defs>
       <use xlink:href="#SimHei-30"/>
       <use xlink:href="#SimHei-2e" transform="translate(50 0)"/>
       <use xlink:href="#SimHei-32" transform="translate(100 0)"/>
      </g>
     </g>
    </g>
    <g id="xtick_2">
     <g id="line2d_3">
      <path d="M 193.913124 380.1925 
L 193.913124 29.5125 
" clip-path="url(#p16862cd495)" style="fill: none; stroke-dasharray: 2.96,1.28; stroke-dashoffset: 0; stroke: #b0b0b0; stroke-opacity: 0.4; stroke-width: 0.8"/>
     </g>
     <g id="line2d_4">
      <g>
       <use xlink:href="#m0c5d6700ce" x="193.913124" y="380.1925" style="stroke: #000000; stroke-width: 0.8"/>
      </g>
     </g>
     <g id="text_2">
      <!-- 0.4 -->
      <g transform="translate(185.663124 394.755) scale(0.11 -0.11)">
       <defs>
        <path id="SimHei-34" d="M 2000 1100 
L 75 1100 
L 75 1525 
L 2100 4450 
L 2475 4450 
L 2475 1525 
L 3075 1525 
L 3075 1100 
L 2475 1100 
L 2475 150 
L 2000 150 
L 2000 1100 
z
M 2000 1525 
L 2000 3500 
L 600 1525 
L 2000 1525 
z
" transform="scale(0.015625)"/>
       </defs>
       <use xlink:href="#SimHei-30"/>
       <use xlink:href="#SimHei-2e" transform="translate(50 0)"/>
       <use xlink:href="#SimHei-34" transform="translate(100 0)"/>
      </g>
     </g>
    </g>
    <g id="xtick_3">
     <g id="line2d_5">
      <path d="M 308.823259 380.1925 
L 308.823259 29.5125 
" clip-path="url(#p16862cd495)" style="fill: none; stroke-dasharray: 2.96,1.28; stroke-dashoffset: 0; stroke: #b0b0b0; stroke-opacity: 0.4; stroke-width: 0.8"/>
     </g>
     <g id="line2d_6">
      <g>
       <use xlink:href="#m0c5d6700ce" x="308.823259" y="380.1925" style="stroke: #000000; stroke-width: 0.8"/>
      </g>
     </g>
     <g id="text_3">
      <!-- 0.6 -->
      <g transform="translate(300.573259 394.755) scale(0.11 -0.11)">
       <defs>
        <path id="SimHei-36" d="M 250 1612 
Q 275 1975 387 2225 
Q 500 2475 725 2850 
L 1750 4450 
L 2325 4450 
L 1275 2800 
Q 1950 2975 2350 2750 
Q 2750 2525 2887 2237 
Q 3025 1950 3037 1612 
Q 3050 1275 2937 950 
Q 2825 625 2537 362 
Q 2250 100 1737 75 
Q 1225 50 862 262 
Q 500 475 362 862 
Q 225 1250 250 1612 
z
M 1025 787 
Q 1250 550 1625 525 
Q 2000 500 2250 775 
Q 2500 1050 2500 1575 
Q 2500 2100 2187 2300 
Q 1875 2500 1487 2450 
Q 1100 2400 925 2075 
Q 750 1750 775 1387 
Q 800 1025 1025 787 
z
" transform="scale(0.015625)"/>
       </defs>
       <use xlink:href="#SimHei-30"/>
       <use xlink:href="#SimHei-2e" transform="translate(50 0)"/>
       <use xlink:href="#SimHei-36" transform="translate(100 0)"/>
      </g>
     </g>
    </g>
    <g id="xtick_4">
     <g id="line2d_7">
      <path d="M 423.733395 380.1925 
L 423.733395 29.5125 
" clip-path="url(#p16862cd495)" style="fill: none; stroke-dasharray: 2.96,1.28; stroke-dashoffset: 0; stroke: #b0b0b0; stroke-opacity: 0.4; stroke-width: 0.8"/>
     </g>
     <g id="line2d_8">
      <g>
       <use xlink:href="#m0c5d6700ce" x="423.733395" y="380.1925" style="stroke: #000000; stroke-width: 0.8"/>
      </g>
     </g>
     <g id="text_4">
      <!-- 0.8 -->
      <g transform="translate(415.483395 394.755) scale(0.11 -0.11)">
       <defs>
        <path id="SimHei-38" d="M 175 1375 
Q 175 1675 325 1962 
Q 475 2250 825 2425 
Q 525 2600 425 2812 
Q 325 3025 312 3300 
Q 300 3575 387 3775 
Q 475 3975 650 4150 
Q 825 4325 1037 4387 
Q 1250 4450 1500 4450 
Q 1750 4450 1950 4400 
Q 2150 4350 2375 4187 
Q 2600 4025 2700 3725 
Q 2800 3425 2687 3025 
Q 2575 2625 2100 2400 
Q 2525 2275 2700 2012 
Q 2875 1750 2875 1375 
Q 2875 1000 2762 775 
Q 2650 550 2512 400 
Q 2375 250 2137 162 
Q 1900 75 1537 75 
Q 1175 75 912 162 
Q 650 250 475 425 
Q 300 600 237 837 
Q 175 1075 175 1375 
z
M 687 1400 
Q 675 1100 787 875 
Q 900 650 1200 587 
Q 1500 525 1825 600 
Q 2150 675 2275 950 
Q 2400 1225 2362 1500 
Q 2325 1775 2050 1962 
Q 1775 2150 1450 2125 
Q 1125 2100 912 1900 
Q 700 1700 687 1400 
z
M 775 3350 
Q 775 3100 950 2875 
Q 1125 2650 1500 2650 
Q 1875 2650 2062 2875 
Q 2250 3100 2237 3412 
Q 2225 3725 2012 3875 
Q 1800 4025 1437 4000 
Q 1075 3975 925 3787 
Q 775 3600 775 3350 
z
" transform="scale(0.015625)"/>
       </defs>
       <use xlink:href="#SimHei-30"/>
       <use xlink:href="#SimHei-2e" transform="translate(50 0)"/>
       <use xlink:href="#SimHei-38" transform="translate(100 0)"/>
      </g>
     </g>
    </g>
    <g id="xtick_5">
     <g id="line2d_9">
      <path d="M 538.64353 380.1925 
L 538.64353 29.5125 
" clip-path="url(#p16862cd495)" style="fill: none; stroke-dasharray: 2.96,1.28; stroke-dashoffset: 0; stroke: #b0b0b0; stroke-opacity: 0.4; stroke-width: 0.8"/>
     </g>
     <g id="line2d_10">
      <g>
       <use xlink:href="#m0c5d6700ce" x="538.64353" y="380.1925" style="stroke: #000000; stroke-width: 0.8"/>
      </g>
     </g>
     <g id="text_5">
      <!-- 1.0 -->
      <g transform="translate(530.39353 394.755) scale(0.11 -0.11)">
       <defs>
        <path id="SimHei-31" d="M 1400 3600 
Q 1075 3275 575 2975 
L 575 3450 
Q 1200 3875 1600 4450 
L 1900 4450 
L 1900 150 
L 1400 150 
L 1400 3600 
z
" transform="scale(0.015625)"/>
       </defs>
       <use xlink:href="#SimHei-31"/>
       <use xlink:href="#SimHei-2e" transform="translate(50 0)"/>
       <use xlink:href="#SimHei-30" transform="translate(100 0)"/>
      </g>
     </g>
    </g>
    <g id="xtick_6">
     <g id="line2d_11">
      <path d="M 653.553665 380.1925 
L 653.553665 29.5125 
" clip-path="url(#p16862cd495)" style="fill: none; stroke-dasharray: 2.96,1.28; stroke-dashoffset: 0; stroke: #b0b0b0; stroke-opacity: 0.4; stroke-width: 0.8"/>
     </g>
     <g id="line2d_12">
      <g>
       <use xlink:href="#m0c5d6700ce" x="653.553665" y="380.1925" style="stroke: #000000; stroke-width: 0.8"/>
      </g>
     </g>
     <g id="text_6">
      <!-- 1.2 -->
      <g transform="translate(645.303665 394.755) scale(0.11 -0.11)">
       <use xlink:href="#SimHei-31"/>
       <use xlink:href="#SimHei-2e" transform="translate(50 0)"/>
       <use xlink:href="#SimHei-32" transform="translate(100 0)"/>
      </g>
     </g>
    </g>
    <g id="text_7">
     <!-- Degradation Increments ($\Delta y$) -->
     <g transform="translate(285.7575 410.4) scale(0.13 -0.13)">
      <defs>
       <path id="SimHei-44" d="M 2925 2250 
Q 2925 1100 2437 612 
Q 1950 125 1125 125 
L 275 125 
L 275 4400 
L 1125 4400 
Q 2050 4400 2487 3900 
Q 2925 3400 2925 2250 
z
M 2325 2250 
Q 2325 3175 2025 3550 
Q 1725 3925 1125 3925 
L 850 3925 
L 850 600 
L 1125 600 
Q 1725 600 2025 962 
Q 2325 1325 2325 2250 
z
" transform="scale(0.015625)"/>
       <path id="SimHei-65" d="M 2850 1075 
Q 2800 625 2450 350 
Q 2100 75 1625 75 
Q 1025 75 637 462 
Q 250 850 250 1525 
Q 250 2200 637 2587 
Q 1025 2975 1625 2975 
Q 2150 2975 2487 2637 
Q 2825 2300 2825 1525 
L 800 1525 
Q 800 975 1037 750 
Q 1275 525 1625 525 
Q 1900 525 2075 662 
Q 2250 800 2300 1075 
L 2850 1075 
z
M 2250 1925 
Q 2200 2275 2025 2412 
Q 1850 2550 1575 2550 
Q 1325 2550 1125 2412 
Q 925 2275 825 1925 
L 2250 1925 
z
" transform="scale(0.015625)"/>
       <path id="SimHei-67" d="M 2975 2500 
Q 2800 2550 2637 2562 
Q 2475 2575 2300 2525 
Q 2375 2450 2425 2337 
Q 2475 2225 2475 2000 
Q 2475 1575 2187 1300 
Q 1900 1025 1475 1025 
Q 1375 1025 1212 1062 
Q 1050 1100 950 1150 
Q 875 1100 850 1050 
Q 825 1000 825 925 
Q 825 800 1000 737 
Q 1175 675 1625 675 
Q 2350 675 2612 475 
Q 2875 275 2875 -25 
Q 2875 -425 2487 -612 
Q 2100 -800 1575 -800 
Q 900 -800 575 -625 
Q 250 -450 250 -150 
Q 250 0 375 150 
Q 500 300 700 400 
Q 550 475 462 587 
Q 375 700 375 875 
Q 375 1025 487 1137 
Q 600 1250 750 1325 
Q 625 1450 550 1625 
Q 475 1800 475 2000 
Q 475 2425 762 2700 
Q 1050 2975 1475 2975 
Q 1700 2975 1862 2912 
Q 2025 2850 2150 2725 
Q 2350 2875 2550 2937 
Q 2750 3000 2975 2975 
L 2975 2500 
z
M 1975 2000 
Q 1975 2250 1850 2400 
Q 1725 2550 1475 2550 
Q 1225 2550 1100 2400 
Q 975 2250 975 2000 
Q 975 1750 1100 1600 
Q 1225 1450 1475 1450 
Q 1725 1450 1850 1600 
Q 1975 1750 1975 2000 
z
M 2400 -75 
Q 2400 25 2287 125 
Q 2175 225 1725 225 
Q 1625 225 1450 237 
Q 1275 250 1050 275 
Q 850 200 775 100 
Q 700 0 700 -100 
Q 700 -250 900 -350 
Q 1100 -450 1600 -450 
Q 2025 -450 2212 -337 
Q 2400 -225 2400 -75 
z
" transform="scale(0.015625)"/>
       <path id="SimHei-72" d="M 2500 2425 
Q 2025 2500 1700 2287 
Q 1375 2075 1150 1550 
L 1150 125 
L 650 125 
L 650 2925 
L 1150 2925 
L 1150 2200 
Q 1375 2600 1712 2787 
Q 2050 2975 2500 2975 
L 2500 2425 
z
" transform="scale(0.015625)"/>
       <path id="SimHei-61" d="M 2875 125 
L 2275 125 
Q 2225 175 2200 262 
Q 2175 350 2175 475 
Q 2000 275 1750 175 
Q 1500 75 1225 75 
Q 825 75 550 275 
Q 275 475 275 850 
Q 275 1225 525 1450 
Q 775 1675 1300 1750 
Q 1650 1800 1912 1875 
Q 2175 1950 2175 2075 
Q 2175 2225 2062 2375 
Q 1950 2525 1575 2525 
Q 1275 2525 1137 2412 
Q 1000 2300 950 2100 
L 400 2100 
Q 450 2500 762 2737 
Q 1075 2975 1575 2975 
Q 2125 2975 2400 2725 
Q 2675 2475 2675 2025 
L 2675 650 
Q 2675 500 2725 375 
Q 2775 250 2875 125 
z
M 2175 1050 
L 2175 1550 
Q 2025 1500 1887 1462 
Q 1750 1425 1425 1375 
Q 1050 1325 937 1200 
Q 825 1075 825 900 
Q 825 750 937 637 
Q 1050 525 1275 525 
Q 1500 525 1762 650 
Q 2025 775 2175 1050 
z
" transform="scale(0.015625)"/>
       <path id="SimHei-64" d="M 2750 125 
L 2250 125 
L 2250 500 
Q 2100 275 1900 175 
Q 1700 75 1425 75 
Q 925 75 575 437 
Q 225 800 225 1525 
Q 225 2250 575 2625 
Q 925 3000 1425 3000 
Q 1700 3000 1900 2887 
Q 2100 2775 2250 2550 
L 2250 4400 
L 2750 4400 
L 2750 125 
z
M 2250 1525 
Q 2250 2000 2037 2275 
Q 1825 2550 1525 2550 
Q 1150 2550 962 2275 
Q 775 2000 775 1525 
Q 775 1050 962 787 
Q 1150 525 1525 525 
Q 1825 525 2037 787 
Q 2250 1050 2250 1525 
z
" transform="scale(0.015625)"/>
       <path id="SimHei-74" d="M 2750 200 
Q 2625 150 2462 112 
Q 2300 75 2025 75 
Q 1575 75 1300 325 
Q 1025 575 1025 1025 
L 1025 2525 
L 175 2525 
L 175 2925 
L 1025 2925 
L 1025 3900 
L 1525 3900 
L 1525 2925 
L 2550 2925 
L 2550 2525 
L 1525 2525 
L 1525 1000 
Q 1525 800 1625 662 
Q 1725 525 2000 525 
Q 2275 525 2450 575 
Q 2625 625 2750 700 
L 2750 200 
z
" transform="scale(0.015625)"/>
       <path id="SimHei-69" d="M 1800 3725 
L 1300 3725 
L 1300 4375 
L 1800 4375 
L 1800 3725 
z
M 1800 125 
L 1300 125 
L 1300 2925 
L 1800 2925 
L 1800 125 
z
" transform="scale(0.015625)"/>
       <path id="SimHei-6f" d="M 2925 1525 
Q 2925 875 2525 475 
Q 2125 75 1575 75 
Q 1025 75 625 475 
Q 225 875 225 1525 
Q 225 2175 625 2575 
Q 1025 2975 1575 2975 
Q 2125 2975 2525 2575 
Q 2925 2175 2925 1525 
z
M 2375 1525 
Q 2375 2025 2125 2275 
Q 1875 2525 1575 2525 
Q 1275 2525 1025 2275 
Q 775 2025 775 1525 
Q 775 1025 1025 775 
Q 1275 525 1575 525 
Q 1875 525 2125 775 
Q 2375 1025 2375 1525 
z
" transform="scale(0.015625)"/>
       <path id="SimHei-6e" d="M 2800 125 
L 2300 125 
L 2300 1925 
Q 2300 2225 2150 2400 
Q 2000 2575 1750 2575 
Q 1425 2575 1137 2237 
Q 850 1900 850 1400 
L 850 125 
L 350 125 
L 350 2925 
L 850 2925 
L 850 2400 
Q 1050 2675 1287 2825 
Q 1525 2975 1900 2975 
Q 2350 2975 2575 2725 
Q 2800 2475 2800 2100 
L 2800 125 
z
" transform="scale(0.015625)"/>
       <path id="SimHei-20" transform="scale(0.015625)"/>
       <path id="SimHei-49" d="M 1850 125 
L 1275 125 
L 1275 4400 
L 1850 4400 
L 1850 125 
z
" transform="scale(0.015625)"/>
       <path id="SimHei-63" d="M 2850 1250 
Q 2850 725 2487 400 
Q 2125 75 1575 75 
Q 1025 75 625 462 
Q 225 850 225 1525 
Q 225 2200 625 2587 
Q 1025 2975 1575 2975 
Q 2125 2975 2450 2687 
Q 2775 2400 2775 2000 
L 2225 2000 
Q 2200 2300 2012 2412 
Q 1825 2525 1575 2525 
Q 1275 2525 1025 2287 
Q 775 2050 775 1525 
Q 775 1000 1025 762 
Q 1275 525 1575 525 
Q 1900 525 2100 700 
Q 2300 875 2300 1250 
L 2850 1250 
z
" transform="scale(0.015625)"/>
       <path id="SimHei-6d" d="M 3050 125 
L 2550 125 
L 2550 2150 
Q 2550 2300 2500 2400 
Q 2450 2500 2300 2500 
Q 2125 2500 1975 2312 
Q 1825 2125 1825 1825 
L 1825 125 
L 1325 125 
L 1325 2150 
Q 1325 2300 1275 2400 
Q 1225 2500 1075 2500 
Q 900 2500 750 2312 
Q 600 2125 600 1825 
L 600 125 
L 100 125 
L 100 2925 
L 600 2925 
L 600 2550 
Q 725 2750 900 2862 
Q 1075 2975 1275 2975 
Q 1475 2975 1612 2862 
Q 1750 2750 1800 2550 
Q 1925 2750 2087 2862 
Q 2250 2975 2450 2975 
Q 2750 2975 2900 2812 
Q 3050 2650 3050 2350 
L 3050 125 
z
" transform="scale(0.015625)"/>
       <path id="SimHei-73" d="M 2750 900 
Q 2750 500 2437 287 
Q 2125 75 1650 75 
Q 1050 75 725 312 
Q 400 550 400 1000 
L 900 1000 
Q 900 700 1112 600 
Q 1325 500 1625 500 
Q 1925 500 2075 612 
Q 2225 725 2225 900 
Q 2225 1025 2100 1150 
Q 1975 1275 1475 1350 
Q 900 1425 687 1637 
Q 475 1850 475 2200 
Q 475 2500 762 2737 
Q 1050 2975 1600 2975 
Q 2100 2975 2387 2750 
Q 2675 2525 2675 2150 
L 2175 2150 
Q 2175 2375 2012 2462 
Q 1850 2550 1600 2550 
Q 1275 2550 1137 2437 
Q 1000 2325 1000 2175 
Q 1000 2000 1125 1900 
Q 1250 1800 1650 1750 
Q 2300 1650 2525 1437 
Q 2750 1225 2750 900 
z
" transform="scale(0.015625)"/>
       <path id="SimHei-28" d="M 2975 -200 
L 2700 -475 
Q 2075 125 1762 775 
Q 1450 1425 1450 2250 
Q 1450 3075 1762 3725 
Q 2075 4375 2700 5000 
L 2975 4725 
Q 2400 4175 2112 3587 
Q 1825 3000 1825 2250 
Q 1825 1500 2112 912 
Q 2400 325 2975 -200 
z
" transform="scale(0.015625)"/>
       <path id="DejaVuSans-394" d="M 2188 4044 
L 906 525 
L 3472 525 
L 2188 4044 
z
M 50 0 
L 1831 4666 
L 2547 4666 
L 4325 0 
L 50 0 
z
" transform="scale(0.015625)"/>
       <path id="DejaVuSans-Oblique-79" d="M 1588 -325 
Q 1188 -997 936 -1164 
Q 684 -1331 294 -1331 
L -159 -1331 
L -63 -850 
L 269 -850 
Q 509 -850 678 -719 
Q 847 -588 1056 -206 
L 1234 128 
L 459 3500 
L 1069 3500 
L 1650 819 
L 3256 3500 
L 3859 3500 
L 1588 -325 
z
" transform="scale(0.015625)"/>
       <path id="SimHei-29" d="M 1675 2250 
Q 1675 1425 1362 775 
Q 1050 125 425 -475 
L 150 -200 
Q 725 325 1012 912 
Q 1300 1500 1300 2250 
Q 1300 3000 1012 3587 
Q 725 4175 150 4725 
L 425 5000 
Q 1050 4375 1362 3725 
Q 1675 3075 1675 2250 
z
" transform="scale(0.015625)"/>
      </defs>
      <use xlink:href="#SimHei-44" transform="translate(0 0.875)"/>
      <use xlink:href="#SimHei-65" transform="translate(50 0.875)"/>
      <use xlink:href="#SimHei-67" transform="translate(100 0.875)"/>
      <use xlink:href="#SimHei-72" transform="translate(150 0.875)"/>
      <use xlink:href="#SimHei-61" transform="translate(200 0.875)"/>
      <use xlink:href="#SimHei-64" transform="translate(250 0.875)"/>
      <use xlink:href="#SimHei-61" transform="translate(300 0.875)"/>
      <use xlink:href="#SimHei-74" transform="translate(350 0.875)"/>
      <use xlink:href="#SimHei-69" transform="translate(400 0.875)"/>
      <use xlink:href="#SimHei-6f" transform="translate(450 0.875)"/>
      <use xlink:href="#SimHei-6e" transform="translate(500 0.875)"/>
      <use xlink:href="#SimHei-20" transform="translate(550 0.875)"/>
      <use xlink:href="#SimHei-49" transform="translate(600 0.875)"/>
      <use xlink:href="#SimHei-6e" transform="translate(650 0.875)"/>
      <use xlink:href="#SimHei-63" transform="translate(700 0.875)"/>
      <use xlink:href="#SimHei-72" transform="translate(750 0.875)"/>
      <use xlink:href="#SimHei-65" transform="translate(800 0.875)"/>
      <use xlink:href="#SimHei-6d" transform="translate(850 0.875)"/>
      <use xlink:href="#SimHei-65" transform="translate(900 0.875)"/>
      <use xlink:href="#SimHei-6e" transform="translate(950 0.875)"/>
      <use xlink:href="#SimHei-74" transform="translate(1000 0.875)"/>
      <use xlink:href="#SimHei-73" transform="translate(1050 0.875)"/>
      <use xlink:href="#SimHei-20" transform="translate(1100 0.875)"/>
      <use xlink:href="#SimHei-28" transform="translate(1150 0.875)"/>
      <use xlink:href="#DejaVuSans-394" transform="translate(1200 0.875)"/>
      <use xlink:href="#DejaVuSans-Oblique-79" transform="translate(1268.408203 0.875)"/>
      <use xlink:href="#SimHei-29" transform="translate(1327.587891 0.875)"/>
     </g>
    </g>
   </g>
   <g id="matplotlib.axis_2">
    <g id="ytick_1">
     <g id="line2d_13">
      <path d="M 45.2625 380.1925 
L 705.3925 380.1925 
" clip-path="url(#p16862cd495)" style="fill: none; stroke-dasharray: 2.96,1.28; stroke-dashoffset: 0; stroke: #b0b0b0; stroke-opacity: 0.4; stroke-width: 0.8"/>
     </g>
     <g id="line2d_14">
      <defs>
       <path id="mb8ab488cd9" d="M 0 0 
L -3.5 0 
" style="stroke: #000000; stroke-width: 0.8"/>
      </defs>
      <g>
       <use xlink:href="#mb8ab488cd9" x="45.2625" y="380.1925" style="stroke: #000000; stroke-width: 0.8"/>
      </g>
     </g>
     <g id="text_8">
      <!-- 0.0 -->
      <g transform="translate(21.7625 383.97375) scale(0.11 -0.11)">
       <use xlink:href="#SimHei-30"/>
       <use xlink:href="#SimHei-2e" transform="translate(50 0)"/>
       <use xlink:href="#SimHei-30" transform="translate(100 0)"/>
      </g>
     </g>
    </g>
    <g id="ytick_2">
     <g id="line2d_15">
      <path d="M 45.2625 324.377603 
L 705.3925 324.377603 
" clip-path="url(#p16862cd495)" style="fill: none; stroke-dasharray: 2.96,1.28; stroke-dashoffset: 0; stroke: #b0b0b0; stroke-opacity: 0.4; stroke-width: 0.8"/>
     </g>
     <g id="line2d_16">
      <g>
       <use xlink:href="#mb8ab488cd9" x="45.2625" y="324.377603" style="stroke: #000000; stroke-width: 0.8"/>
      </g>
     </g>
     <g id="text_9">
      <!-- 0.5 -->
      <g transform="translate(21.7625 328.158853) scale(0.11 -0.11)">
       <defs>
        <path id="SimHei-35" d="M 550 1325 
Q 725 650 1150 575 
Q 1575 500 1837 662 
Q 2100 825 2212 1087 
Q 2325 1350 2312 1675 
Q 2300 2000 2137 2225 
Q 1975 2450 1725 2525 
Q 1475 2600 1162 2525 
Q 850 2450 650 2175 
L 225 2225 
Q 275 2375 700 4375 
L 2675 4375 
L 2675 3925 
L 1075 3925 
Q 950 3250 825 2850 
Q 1200 3025 1525 3012 
Q 1850 3000 2150 2862 
Q 2450 2725 2587 2487 
Q 2725 2250 2787 2012 
Q 2850 1775 2837 1500 
Q 2825 1225 2725 937 
Q 2625 650 2425 462 
Q 2225 275 1937 162 
Q 1650 50 1275 75 
Q 900 100 562 350 
Q 225 600 100 1200 
L 550 1325 
z
" transform="scale(0.015625)"/>
       </defs>
       <use xlink:href="#SimHei-30"/>
       <use xlink:href="#SimHei-2e" transform="translate(50 0)"/>
       <use xlink:href="#SimHei-35" transform="translate(100 0)"/>
      </g>
     </g>
    </g>
    <g id="ytick_3">
     <g id="line2d_17">
      <path d="M 45.2625 268.562706 
L 705.3925 268.562706 
" clip-path="url(#p16862cd495)" style="fill: none; stroke-dasharray: 2.96,1.28; stroke-dashoffset: 0; stroke: #b0b0b0; stroke-opacity: 0.4; stroke-width: 0.8"/>
     </g>
     <g id="line2d_18">
      <g>
       <use xlink:href="#mb8ab488cd9" x="45.2625" y="268.562706" style="stroke: #000000; stroke-width: 0.8"/>
      </g>
     </g>
     <g id="text_10">
      <!-- 1.0 -->
      <g transform="translate(21.7625 272.343956) scale(0.11 -0.11)">
       <use xlink:href="#SimHei-31"/>
       <use xlink:href="#SimHei-2e" transform="translate(50 0)"/>
       <use xlink:href="#SimHei-30" transform="translate(100 0)"/>
      </g>
     </g>
    </g>
    <g id="ytick_4">
     <g id="line2d_19">
      <path d="M 45.2625 212.74781 
L 705.3925 212.74781 
" clip-path="url(#p16862cd495)" style="fill: none; stroke-dasharray: 2.96,1.28; stroke-dashoffset: 0; stroke: #b0b0b0; stroke-opacity: 0.4; stroke-width: 0.8"/>
     </g>
     <g id="line2d_20">
      <g>
       <use xlink:href="#mb8ab488cd9" x="45.2625" y="212.74781" style="stroke: #000000; stroke-width: 0.8"/>
      </g>
     </g>
     <g id="text_11">
      <!-- 1.5 -->
      <g transform="translate(21.7625 216.52906) scale(0.11 -0.11)">
       <use xlink:href="#SimHei-31"/>
       <use xlink:href="#SimHei-2e" transform="translate(50 0)"/>
       <use xlink:href="#SimHei-35" transform="translate(100 0)"/>
      </g>
     </g>
    </g>
    <g id="ytick_5">
     <g id="line2d_21">
      <path d="M 45.2625 156.932913 
L 705.3925 156.932913 
" clip-path="url(#p16862cd495)" style="fill: none; stroke-dasharray: 2.96,1.28; stroke-dashoffset: 0; stroke: #b0b0b0; stroke-opacity: 0.4; stroke-width: 0.8"/>
     </g>
     <g id="line2d_22">
      <g>
       <use xlink:href="#mb8ab488cd9" x="45.2625" y="156.932913" style="stroke: #000000; stroke-width: 0.8"/>
      </g>
     </g>
     <g id="text_12">
      <!-- 2.0 -->
      <g transform="translate(21.7625 160.714163) scale(0.11 -0.11)">
       <use xlink:href="#SimHei-32"/>
       <use xlink:href="#SimHei-2e" transform="translate(50 0)"/>
       <use xlink:href="#SimHei-30" transform="translate(100 0)"/>
      </g>
     </g>
    </g>
    <g id="ytick_6">
     <g id="line2d_23">
      <path d="M 45.2625 101.118016 
L 705.3925 101.118016 
" clip-path="url(#p16862cd495)" style="fill: none; stroke-dasharray: 2.96,1.28; stroke-dashoffset: 0; stroke: #b0b0b0; stroke-opacity: 0.4; stroke-width: 0.8"/>
     </g>
     <g id="line2d_24">
      <g>
       <use xlink:href="#mb8ab488cd9" x="45.2625" y="101.118016" style="stroke: #000000; stroke-width: 0.8"/>
      </g>
     </g>
     <g id="text_13">
      <!-- 2.5 -->
      <g transform="translate(21.7625 104.899266) scale(0.11 -0.11)">
       <use xlink:href="#SimHei-32"/>
       <use xlink:href="#SimHei-2e" transform="translate(50 0)"/>
       <use xlink:href="#SimHei-35" transform="translate(100 0)"/>
      </g>
     </g>
    </g>
    <g id="ytick_7">
     <g id="line2d_25">
      <path d="M 45.2625 45.303119 
L 705.3925 45.303119 
" clip-path="url(#p16862cd495)" style="fill: none; stroke-dasharray: 2.96,1.28; stroke-dashoffset: 0; stroke: #b0b0b0; stroke-opacity: 0.4; stroke-width: 0.8"/>
     </g>
     <g id="line2d_26">
      <g>
       <use xlink:href="#mb8ab488cd9" x="45.2625" y="45.303119" style="stroke: #000000; stroke-width: 0.8"/>
      </g>
     </g>
     <g id="text_14">
      <!-- 3.0 -->
      <g transform="translate(21.7625 49.084369) scale(0.11 -0.11)">
       <defs>
        <path id="SimHei-33" d="M 250 1225 
L 700 1300 
Q 800 975 1025 762 
Q 1250 550 1587 562 
Q 1925 575 2125 837 
Q 2325 1100 2300 1437 
Q 2275 1775 2037 1962 
Q 1800 2150 1275 2225 
L 1275 2550 
Q 1800 2600 2037 2825 
Q 2275 3050 2250 3412 
Q 2225 3775 1925 3937 
Q 1625 4100 1287 3975 
Q 950 3850 750 3275 
L 300 3350 
Q 450 3800 712 4100 
Q 975 4400 1425 4450 
Q 1875 4500 2212 4337 
Q 2550 4175 2687 3837 
Q 2825 3500 2725 3100 
Q 2625 2700 2150 2400 
Q 2500 2250 2687 1950 
Q 2875 1650 2812 1162 
Q 2750 675 2375 375 
Q 2000 75 1525 87 
Q 1050 100 700 387 
Q 350 675 250 1225 
z
" transform="scale(0.015625)"/>
       </defs>
       <use xlink:href="#SimHei-33"/>
       <use xlink:href="#SimHei-2e" transform="translate(50 0)"/>
       <use xlink:href="#SimHei-30" transform="translate(100 0)"/>
      </g>
     </g>
    </g>
    <g id="text_15">
     <!-- Probability Density -->
     <g transform="translate(16.1375 266.6025) rotate(-90) scale(0.13 -0.13)">
      <defs>
       <path id="SimHei-50" d="M 2950 3100 
Q 2950 2500 2600 2150 
Q 2250 1800 1625 1800 
L 900 1800 
L 900 125 
L 325 125 
L 325 4400 
L 1625 4400 
Q 2250 4400 2600 4050 
Q 2950 3700 2950 3100 
z
M 2375 3100 
Q 2375 3575 2150 3750 
Q 1925 3925 1475 3925 
L 900 3925 
L 900 2275 
L 1475 2275 
Q 1925 2275 2150 2450 
Q 2375 2625 2375 3100 
z
" transform="scale(0.015625)"/>
       <path id="SimHei-62" d="M 2825 1525 
Q 2825 800 2475 437 
Q 2125 75 1625 75 
Q 1350 75 1150 175 
Q 950 275 800 500 
L 800 125 
L 300 125 
L 300 4400 
L 800 4400 
L 800 2550 
Q 950 2775 1150 2887 
Q 1350 3000 1625 3000 
Q 2125 3000 2475 2625 
Q 2825 2250 2825 1525 
z
M 2275 1525 
Q 2275 2000 2087 2275 
Q 1900 2550 1525 2550 
Q 1225 2550 1012 2275 
Q 800 2000 800 1525 
Q 800 1050 1012 787 
Q 1225 525 1525 525 
Q 1900 525 2087 787 
Q 2275 1050 2275 1525 
z
" transform="scale(0.015625)"/>
       <path id="SimHei-6c" d="M 1825 125 
L 1325 125 
L 1325 4400 
L 1825 4400 
L 1825 125 
z
" transform="scale(0.015625)"/>
       <path id="SimHei-79" d="M 2900 2925 
L 1750 -100 
Q 1650 -450 1450 -625 
Q 1250 -800 950 -800 
Q 825 -800 712 -787 
Q 600 -775 500 -725 
L 500 -225 
Q 600 -275 700 -300 
Q 800 -325 875 -325 
Q 1075 -325 1150 -262 
Q 1225 -200 1300 25 
L 200 2925 
L 750 2925 
L 1550 725 
L 1575 725 
L 2350 2925 
L 2900 2925 
z
" transform="scale(0.015625)"/>
      </defs>
      <use xlink:href="#SimHei-50"/>
      <use xlink:href="#SimHei-72" transform="translate(50 0)"/>
      <use xlink:href="#SimHei-6f" transform="translate(100 0)"/>
      <use xlink:href="#SimHei-62" transform="translate(150 0)"/>
      <use xlink:href="#SimHei-61" transform="translate(200 0)"/>
      <use xlink:href="#SimHei-62" transform="translate(250 0)"/>
      <use xlink:href="#SimHei-69" transform="translate(300 0)"/>
      <use xlink:href="#SimHei-6c" transform="translate(350 0)"/>
      <use xlink:href="#SimHei-69" transform="translate(400 0)"/>
      <use xlink:href="#SimHei-74" transform="translate(450 0)"/>
      <use xlink:href="#SimHei-79" transform="translate(500 0)"/>
      <use xlink:href="#SimHei-20" transform="translate(550 0)"/>
      <use xlink:href="#SimHei-44" transform="translate(600 0)"/>
      <use xlink:href="#SimHei-65" transform="translate(650 0)"/>
      <use xlink:href="#SimHei-6e" transform="translate(700 0)"/>
      <use xlink:href="#SimHei-73" transform="translate(750 0)"/>
      <use xlink:href="#SimHei-69" transform="translate(800 0)"/>
      <use xlink:href="#SimHei-74" transform="translate(850 0)"/>
      <use xlink:href="#SimHei-79" transform="translate(900 0)"/>
     </g>
    </g>
   </g>
   <g id="line2d_27">
    <path d="M 75.268409 316.190231 
L 81.281617 310.778506 
L 88.497467 303.952688 
L 95.713317 296.784654 
L 102.929167 289.301202 
L 111.347658 280.216427 
L 119.76615 270.811279 
L 130.589925 258.370346 
L 166.669174 216.552747 
L 175.087666 207.352894 
L 182.303516 199.827585 
L 188.316724 193.867966 
L 194.329932 188.236921 
L 199.140499 183.996364 
L 203.951065 180.012678 
L 208.761632 176.305149 
L 213.572198 172.891973 
L 218.382765 169.790112 
L 223.193332 167.015148 
L 226.801257 165.156982 
L 230.409182 163.495991 
L 234.017106 162.03698 
L 237.625031 160.784188 
L 241.232956 159.741272 
L 244.840881 158.911286 
L 248.448806 158.296667 
L 252.056731 157.899225 
L 255.664656 157.720131 
L 259.272581 157.759913 
L 262.880506 158.018455 
L 266.488431 158.494993 
L 270.096356 159.188124 
L 273.704281 160.095809 
L 277.312206 161.215384 
L 280.920131 162.543575 
L 284.528056 164.076511 
L 288.135981 165.809744 
L 291.743906 167.738273 
L 296.554472 170.603799 
L 301.365039 173.79212 
L 306.175605 177.287263 
L 310.986172 181.071916 
L 315.796738 185.127571 
L 320.607305 189.434671 
L 326.620513 195.140926 
L 332.633722 201.166582 
L 339.849571 208.758703 
L 347.065421 216.673852 
L 356.686554 227.599167 
L 369.915613 243.016202 
L 389.157879 265.446177 
L 398.779012 276.341795 
L 407.197504 285.568133 
L 414.413354 293.193008 
L 421.629203 300.517743 
L 428.845053 307.512471 
L 436.060903 314.153614 
L 442.074111 319.405002 
L 448.08732 324.39156 
L 454.100528 329.108903 
L 460.113736 333.55512 
L 466.126944 337.73059 
L 472.140153 341.637773 
L 478.153361 345.281005 
L 484.166569 348.666275 
L 490.179777 351.801008 
L 496.192986 354.693851 
L 502.206194 357.354459 
L 508.219402 359.793295 
L 514.23261 362.021437 
L 521.44846 364.433319 
L 528.66431 366.578766 
L 535.88016 368.478339 
L 543.09601 370.152461 
L 550.31186 371.621136 
L 558.730351 373.100707 
L 567.148843 374.356234 
L 576.769976 375.551881 
L 586.391109 376.528316 
L 597.214884 377.406887 
L 609.2413 378.159563 
L 623.673 378.81941 
L 640.509983 379.340918 
L 660.954891 379.729286 
L 675.386591 379.8968 
L 675.386591 379.8968 
" clip-path="url(#p16862cd495)" style="fill: none; stroke: #ff0000; stroke-width: 2.5; stroke-linecap: square"/>
   </g>
   <g id="patch_53">
    <path d="M 45.2625 380.1925 
L 45.2625 29.5125 
" style="fill: none; stroke: #000000; stroke-width: 0.8; stroke-linejoin: miter; stroke-linecap: square"/>
   </g>
   <g id="patch_54">
    <path d="M 705.3925 380.1925 
L 705.3925 29.5125 
" style="fill: none; stroke: #000000; stroke-width: 0.8; stroke-linejoin: miter; stroke-linecap: square"/>
   </g>
   <g id="patch_55">
    <path d="M 45.2625 380.1925 
L 705.3925 380.1925 
" style="fill: none; stroke: #000000; stroke-width: 0.8; stroke-linejoin: miter; stroke-linecap: square"/>
   </g>
   <g id="patch_56">
    <path d="M 45.2625 29.5125 
L 705.3925 29.5125 
" style="fill: none; stroke: #000000; stroke-width: 0.8; stroke-linejoin: miter; stroke-linecap: square"/>
   </g>
   <g id="text_16">
    <!-- Wiener Process PDF vs Degradation Data Histogram -->
    <g transform="translate(195.3275 17.5125) scale(0.15 -0.15)">
     <defs>
      <path id="SimHei-57" d="M 3075 4400 
L 2525 75 
L 2025 75 
L 1575 3275 
L 1525 3275 
L 1075 75 
L 575 75 
L 25 4400 
L 575 4400 
L 850 1675 
L 900 1675 
L 1275 4400 
L 1825 4400 
L 2200 1675 
L 2250 1675 
L 2525 4400 
L 3075 4400 
z
" transform="scale(0.015625)"/>
      <path id="SimHei-46" d="M 2925 3925 
L 875 3925 
L 875 2525 
L 2425 2525 
L 2425 2050 
L 875 2050 
L 875 125 
L 300 125 
L 300 4400 
L 2925 4400 
L 2925 3925 
z
" transform="scale(0.015625)"/>
      <path id="SimHei-76" d="M 2875 2925 
L 1825 75 
L 1275 75 
L 225 2925 
L 750 2925 
L 1525 750 
L 1575 750 
L 2350 2925 
L 2875 2925 
z
" transform="scale(0.015625)"/>
      <path id="SimHei-48" d="M 2850 125 
L 2275 125 
L 2275 2125 
L 850 2125 
L 850 125 
L 275 125 
L 275 4400 
L 850 4400 
L 850 2600 
L 2275 2600 
L 2275 4400 
L 2850 4400 
L 2850 125 
z
" transform="scale(0.015625)"/>
     </defs>
     <use xlink:href="#SimHei-57"/>
     <use xlink:href="#SimHei-69" transform="translate(50 0)"/>
     <use xlink:href="#SimHei-65" transform="translate(100 0)"/>
     <use xlink:href="#SimHei-6e" transform="translate(150 0)"/>
     <use xlink:href="#SimHei-65" transform="translate(200 0)"/>
     <use xlink:href="#SimHei-72" transform="translate(250 0)"/>
     <use xlink:href="#SimHei-20" transform="translate(300 0)"/>
     <use xlink:href="#SimHei-50" transform="translate(350 0)"/>
     <use xlink:href="#SimHei-72" transform="translate(400 0)"/>
     <use xlink:href="#SimHei-6f" transform="translate(450 0)"/>
     <use xlink:href="#SimHei-63" transform="translate(500 0)"/>
     <use xlink:href="#SimHei-65" transform="translate(550 0)"/>
     <use xlink:href="#SimHei-73" transform="translate(600 0)"/>
     <use xlink:href="#SimHei-73" transform="translate(650 0)"/>
     <use xlink:href="#SimHei-20" transform="translate(700 0)"/>
     <use xlink:href="#SimHei-50" transform="translate(750 0)"/>
     <use xlink:href="#SimHei-44" transform="translate(800 0)"/>
     <use xlink:href="#SimHei-46" transform="translate(850 0)"/>
     <use xlink:href="#SimHei-20" transform="translate(900 0)"/>
     <use xlink:href="#SimHei-76" transform="translate(950 0)"/>
     <use xlink:href="#SimHei-73" transform="translate(1000 0)"/>
     <use xlink:href="#SimHei-20" transform="translate(1050 0)"/>
     <use xlink:href="#SimHei-44" transform="translate(1100 0)"/>
     <use xlink:href="#SimHei-65" transform="translate(1150 0)"/>
     <use xlink:href="#SimHei-67" transform="translate(1200 0)"/>
     <use xlink:href="#SimHei-72" transform="translate(1250 0)"/>
     <use xlink:href="#SimHei-61" transform="translate(1300 0)"/>
     <use xlink:href="#SimHei-64" transform="translate(1350 0)"/>
     <use xlink:href="#SimHei-61" transform="translate(1400 0)"/>
     <use xlink:href="#SimHei-74" transform="translate(1450 0)"/>
     <use xlink:href="#SimHei-69" transform="translate(1500 0)"/>
     <use xlink:href="#SimHei-6f" transform="translate(1550 0)"/>
     <use xlink:href="#SimHei-6e" transform="translate(1600 0)"/>
     <use xlink:href="#SimHei-20" transform="translate(1650 0)"/>
     <use xlink:href="#SimHei-44" transform="translate(1700 0)"/>
     <use xlink:href="#SimHei-61" transform="translate(1750 0)"/>
     <use xlink:href="#SimHei-74" transform="translate(1800 0)"/>
     <use xlink:href="#SimHei-61" transform="translate(1850 0)"/>
     <use xlink:href="#SimHei-20" transform="translate(1900 0)"/>
     <use xlink:href="#SimHei-48" transform="translate(1950 0)"/>
     <use xlink:href="#SimHei-69" transform="translate(2000 0)"/>
     <use xlink:href="#SimHei-73" transform="translate(2050 0)"/>
     <use xlink:href="#SimHei-74" transform="translate(2100 0)"/>
     <use xlink:href="#SimHei-6f" transform="translate(2150 0)"/>
     <use xlink:href="#SimHei-67" transform="translate(2200 0)"/>
     <use xlink:href="#SimHei-72" transform="translate(2250 0)"/>
     <use xlink:href="#SimHei-61" transform="translate(2300 0)"/>
     <use xlink:href="#SimHei-6d" transform="translate(2350 0)"/>
    </g>
   </g>
   <g id="legend_1">
    <g id="patch_57">
     <path d="M 256.4825 73.0725 
L 697.6925 73.0725 
Q 699.8925 73.0725 699.8925 70.8725 
L 699.8925 37.2125 
Q 699.8925 35.0125 697.6925 35.0125 
L 256.4825 35.0125 
Q 254.2825 35.0125 254.2825 37.2125 
L 254.2825 70.8725 
Q 254.2825 73.0725 256.4825 73.0725 
z
" style="fill: #ffffff; opacity: 0.9; stroke: #cccccc; stroke-linejoin: miter"/>
    </g>
    <g id="patch_58">
     <path d="M 258.6825 47.4425 
L 280.6825 47.4425 
L 280.6825 39.7425 
L 258.6825 39.7425 
z
" style="fill: #4682b4; opacity: 0.6; stroke: #ffffff; stroke-width: 1.2; stroke-linejoin: miter"/>
    </g>
    <g id="text_17">
     <!-- Empirical Histogram of $\Delta y$ -->
     <g transform="translate(289.4825 47.4425) scale(0.11 -0.11)">
      <defs>
       <path id="SimHei-45" d="M 2900 125 
L 350 125 
L 350 4400 
L 2775 4400 
L 2775 3925 
L 925 3925 
L 925 2600 
L 2625 2600 
L 2625 2125 
L 925 2125 
L 925 600 
L 2900 600 
L 2900 125 
z
" transform="scale(0.015625)"/>
       <path id="SimHei-70" d="M 2825 1525 
Q 2825 800 2475 425 
Q 2125 50 1625 50 
Q 1350 50 1150 162 
Q 950 275 800 500 
L 800 -800 
L 300 -800 
L 300 2925 
L 800 2925 
L 800 2550 
Q 950 2775 1150 2875 
Q 1350 2975 1625 2975 
Q 2125 2975 2475 2612 
Q 2825 2250 2825 1525 
z
M 2275 1525 
Q 2275 2000 2087 2262 
Q 1900 2525 1525 2525 
Q 1225 2525 1012 2262 
Q 800 2000 800 1525 
Q 800 1050 1012 775 
Q 1225 500 1525 500 
Q 1900 500 2087 775 
Q 2275 1050 2275 1525 
z
" transform="scale(0.015625)"/>
       <path id="SimHei-66" d="M 2850 3825 
Q 2725 3900 2550 3950 
Q 2375 4000 2100 4000 
Q 1825 4000 1725 3862 
Q 1625 3725 1625 3525 
L 1625 2925 
L 2650 2925 
L 2650 2525 
L 1625 2525 
L 1625 125 
L 1125 125 
L 1125 2525 
L 275 2525 
L 275 2925 
L 1125 2925 
L 1125 3500 
Q 1125 3950 1400 4200 
Q 1675 4450 2125 4450 
Q 2400 4450 2562 4412 
Q 2725 4375 2850 4325 
L 2850 3825 
z
" transform="scale(0.015625)"/>
      </defs>
      <use xlink:href="#SimHei-45" transform="translate(0 0.09375)"/>
      <use xlink:href="#SimHei-6d" transform="translate(50 0.09375)"/>
      <use xlink:href="#SimHei-70" transform="translate(100 0.09375)"/>
      <use xlink:href="#SimHei-69" transform="translate(150 0.09375)"/>
      <use xlink:href="#SimHei-72" transform="translate(200 0.09375)"/>
      <use xlink:href="#SimHei-69" transform="translate(250 0.09375)"/>
      <use xlink:href="#SimHei-63" transform="translate(300 0.09375)"/>
      <use xlink:href="#SimHei-61" transform="translate(350 0.09375)"/>
      <use xlink:href="#SimHei-6c" transform="translate(400 0.09375)"/>
      <use xlink:href="#SimHei-20" transform="translate(450 0.09375)"/>
      <use xlink:href="#SimHei-48" transform="translate(500 0.09375)"/>
      <use xlink:href="#SimHei-69" transform="translate(550 0.09375)"/>
      <use xlink:href="#SimHei-73" transform="translate(600 0.09375)"/>
      <use xlink:href="#SimHei-74" transform="translate(650 0.09375)"/>
      <use xlink:href="#SimHei-6f" transform="translate(700 0.09375)"/>
      <use xlink:href="#SimHei-67" transform="translate(750 0.09375)"/>
      <use xlink:href="#SimHei-72" transform="translate(800 0.09375)"/>
      <use xlink:href="#SimHei-61" transform="translate(850 0.09375)"/>
      <use xlink:href="#SimHei-6d" transform="translate(900 0.09375)"/>
      <use xlink:href="#SimHei-20" transform="translate(950 0.09375)"/>
      <use xlink:href="#SimHei-6f" transform="translate(1000 0.09375)"/>
      <use xlink:href="#SimHei-66" transform="translate(1050 0.09375)"/>
      <use xlink:href="#SimHei-20" transform="translate(1100 0.09375)"/>
      <use xlink:href="#DejaVuSans-394" transform="translate(1150 0.09375)"/>
      <use xlink:href="#DejaVuSans-Oblique-79" transform="translate(1218.408203 0.09375)"/>
     </g>
    </g>
    <g id="line2d_28">
     <path d="M 258.6825 61.4125 
L 269.6825 61.4125 
L 280.6825 61.4125 
" style="fill: none; stroke: #ff0000; stroke-width: 2.5; stroke-linecap: square"/>
    </g>
    <g id="text_18">
     <!-- Wiener PDF ($\Delta t \approx {dt_mean:.2f}$)\n$\mu={mu_global:.4e}$, $\sigma^2={sigma2_global:.4e}$ -->
     <g transform="translate(289.4825 65.2625) scale(0.11 -0.11)">
      <defs>
       <path id="DejaVuSans-Oblique-74" d="M 2706 3500 
L 2619 3053 
L 1472 3053 
L 1100 1153 
Q 1081 1047 1072 975 
Q 1063 903 1063 863 
Q 1063 663 1183 572 
Q 1303 481 1569 481 
L 2150 481 
L 2053 0 
L 1503 0 
Q 991 0 739 200 
Q 488 400 488 806 
Q 488 878 497 964 
Q 506 1050 525 1153 
L 897 3053 
L 409 3053 
L 500 3500 
L 978 3500 
L 1172 4494 
L 1747 4494 
L 1556 3500 
L 2706 3500 
z
" transform="scale(0.015625)"/>
       <path id="DejaVuSans-2248" d="M 4684 1947 
L 4684 1388 
Q 4356 1144 4076 1036 
Q 3797 928 3494 928 
Q 3150 928 2694 1113 
Q 2663 1125 2641 1134 
Q 2622 1141 2575 1159 
Q 2091 1350 1797 1350 
Q 1522 1350 1253 1231 
Q 984 1113 678 850 
L 678 1409 
Q 1006 1653 1286 1761 
Q 1566 1869 1869 1869 
Q 2213 1869 2672 1684 
Q 2706 1669 2722 1663 
Q 2741 1656 2788 1638 
Q 3272 1447 3566 1447 
Q 3834 1447 4098 1564 
Q 4363 1681 4684 1947 
z
M 4684 3163 
L 4684 2606 
Q 4356 2359 4076 2251 
Q 3797 2144 3494 2144 
Q 3150 2144 2694 2328 
Q 2663 2341 2641 2350 
Q 2622 2356 2575 2375 
Q 2091 2566 1797 2566 
Q 1522 2566 1253 2447 
Q 984 2328 678 2069 
L 678 2625 
Q 1006 2869 1286 2976 
Q 1566 3084 1869 3084 
Q 2213 3084 2672 2900 
Q 2703 2888 2719 2881 
Q 2741 2872 2788 2853 
Q 3272 2663 3566 2663 
Q 3834 2663 4098 2780 
Q 4363 2897 4684 3163 
z
" transform="scale(0.015625)"/>
       <path id="DejaVuSans-Oblique-64" d="M 2675 525 
Q 2444 222 2128 65 
Q 1813 -91 1428 -91 
Q 903 -91 598 267 
Q 294 625 294 1247 
Q 294 1766 478 2236 
Q 663 2706 1013 3078 
Q 1244 3325 1534 3454 
Q 1825 3584 2144 3584 
Q 2481 3584 2739 3421 
Q 2997 3259 3138 2956 
L 3513 4863 
L 4091 4863 
L 3144 0 
L 2566 0 
L 2675 525 
z
M 891 1350 
Q 891 897 1095 644 
Q 1300 391 1663 391 
Q 1931 391 2161 520 
Q 2391 650 2566 903 
Q 2750 1166 2856 1509 
Q 2963 1853 2963 2188 
Q 2963 2622 2758 2865 
Q 2553 3109 2194 3109 
Q 1922 3109 1687 2981 
Q 1453 2853 1288 2613 
Q 1106 2353 998 2009 
Q 891 1666 891 1350 
z
" transform="scale(0.015625)"/>
       <path id="DejaVuSans-Oblique-6d" d="M 5747 2113 
L 5338 0 
L 4763 0 
L 5166 2094 
Q 5191 2228 5203 2325 
Q 5216 2422 5216 2491 
Q 5216 2772 5059 2928 
Q 4903 3084 4622 3084 
Q 4203 3084 3875 2770 
Q 3547 2456 3450 1953 
L 3066 0 
L 2491 0 
L 2900 2094 
Q 2925 2209 2937 2307 
Q 2950 2406 2950 2484 
Q 2950 2769 2794 2926 
Q 2638 3084 2363 3084 
Q 1938 3084 1609 2770 
Q 1281 2456 1184 1953 
L 800 0 
L 225 0 
L 909 3500 
L 1484 3500 
L 1375 2956 
Q 1609 3263 1923 3423 
Q 2238 3584 2597 3584 
Q 2978 3584 3223 3384 
Q 3469 3184 3519 2828 
Q 3781 3197 4126 3390 
Q 4472 3584 4856 3584 
Q 5306 3584 5551 3325 
Q 5797 3066 5797 2591 
Q 5797 2488 5784 2364 
Q 5772 2241 5747 2113 
z
" transform="scale(0.015625)"/>
       <path id="DejaVuSans-Oblique-65" d="M 3078 2063 
Q 3088 2113 3092 2166 
Q 3097 2219 3097 2272 
Q 3097 2653 2873 2875 
Q 2650 3097 2266 3097 
Q 1838 3097 1509 2826 
Q 1181 2556 1013 2059 
L 3078 2063 
z
M 3578 1613 
L 903 1613 
Q 884 1494 878 1425 
Q 872 1356 872 1306 
Q 872 872 1139 634 
Q 1406 397 1894 397 
Q 2269 397 2603 481 
Q 2938 566 3225 728 
L 3116 159 
Q 2806 34 2476 -28 
Q 2147 -91 1806 -91 
Q 1078 -91 686 257 
Q 294 606 294 1247 
Q 294 1794 489 2264 
Q 684 2734 1063 3103 
Q 1306 3334 1642 3459 
Q 1978 3584 2356 3584 
Q 2950 3584 3301 3228 
Q 3653 2872 3653 2272 
Q 3653 2128 3634 1964 
Q 3616 1800 3578 1613 
z
" transform="scale(0.015625)"/>
       <path id="DejaVuSans-Oblique-61" d="M 3438 1997 
L 3047 0 
L 2472 0 
L 2578 531 
Q 2325 219 2001 64 
Q 1678 -91 1281 -91 
Q 834 -91 548 182 
Q 263 456 263 884 
Q 263 1497 752 1853 
Q 1241 2209 2100 2209 
L 2900 2209 
L 2931 2363 
Q 2938 2388 2941 2417 
Q 2944 2447 2944 2509 
Q 2944 2788 2717 2942 
Q 2491 3097 2081 3097 
Q 1800 3097 1504 3025 
Q 1209 2953 897 2809 
L 997 3341 
Q 1322 3463 1633 3523 
Q 1944 3584 2234 3584 
Q 2853 3584 3176 3315 
Q 3500 3047 3500 2534 
Q 3500 2431 3484 2292 
Q 3469 2153 3438 1997 
z
M 2816 1759 
L 2241 1759 
Q 1534 1759 1195 1570 
Q 856 1381 856 984 
Q 856 709 1029 553 
Q 1203 397 1509 397 
Q 1978 397 2328 733 
Q 2678 1069 2791 1631 
L 2816 1759 
z
" transform="scale(0.015625)"/>
       <path id="DejaVuSans-Oblique-6e" d="M 3566 2113 
L 3156 0 
L 2578 0 
L 2988 2091 
Q 3016 2238 3031 2350 
Q 3047 2463 3047 2528 
Q 3047 2791 2881 2937 
Q 2716 3084 2419 3084 
Q 1956 3084 1622 2776 
Q 1288 2469 1184 1941 
L 800 0 
L 225 0 
L 903 3500 
L 1478 3500 
L 1363 2950 
Q 1603 3253 1940 3418 
Q 2278 3584 2650 3584 
Q 3113 3584 3367 3334 
Q 3622 3084 3622 2631 
Q 3622 2519 3608 2391 
Q 3594 2263 3566 2113 
z
" transform="scale(0.015625)"/>
       <path id="DejaVuSans-3a" d="M 750 794 
L 1409 794 
L 1409 0 
L 750 0 
L 750 794 
z
M 750 3309 
L 1409 3309 
L 1409 2516 
L 750 2516 
L 750 3309 
z
" transform="scale(0.015625)"/>
       <path id="DejaVuSans-2e" d="M 684 794 
L 1344 794 
L 1344 0 
L 684 0 
L 684 794 
z
" transform="scale(0.015625)"/>
       <path id="DejaVuSans-32" d="M 1228 531 
L 3431 531 
L 3431 0 
L 469 0 
L 469 531 
Q 828 903 1448 1529 
Q 2069 2156 2228 2338 
Q 2531 2678 2651 2914 
Q 2772 3150 2772 3378 
Q 2772 3750 2511 3984 
Q 2250 4219 1831 4219 
Q 1534 4219 1204 4116 
Q 875 4013 500 3803 
L 500 4441 
Q 881 4594 1212 4672 
Q 1544 4750 1819 4750 
Q 2544 4750 2975 4387 
Q 3406 4025 3406 3419 
Q 3406 3131 3298 2873 
Q 3191 2616 2906 2266 
Q 2828 2175 2409 1742 
Q 1991 1309 1228 531 
z
" transform="scale(0.015625)"/>
       <path id="DejaVuSans-Oblique-66" d="M 3059 4863 
L 2969 4384 
L 2419 4384 
Q 2106 4384 1964 4261 
Q 1822 4138 1753 3809 
L 1691 3500 
L 2638 3500 
L 2553 3053 
L 1606 3053 
L 1013 0 
L 434 0 
L 1031 3053 
L 481 3053 
L 563 3500 
L 1113 3500 
L 1159 3744 
Q 1278 4363 1576 4613 
Q 1875 4863 2516 4863 
L 3059 4863 
z
" transform="scale(0.015625)"/>
       <path id="SimHei-5c" d="M 325 4550 
L 725 4550 
L 2825 -650 
L 2425 -650 
L 325 4550 
z
" transform="scale(0.015625)"/>
       <path id="DejaVuSans-Oblique-3bc" d="M -84 -1331 
L 856 3500 
L 1434 3500 
L 1009 1322 
Q 997 1256 987 1175 
Q 978 1094 978 1013 
Q 978 722 1161 565 
Q 1344 409 1684 409 
Q 2147 409 2431 671 
Q 2716 934 2816 1459 
L 3213 3500 
L 3788 3500 
L 3266 809 
Q 3253 750 3248 706 
Q 3244 663 3244 628 
Q 3244 531 3283 486 
Q 3322 441 3406 441 
Q 3438 441 3492 456 
Q 3547 472 3647 513 
L 3559 50 
Q 3422 -19 3297 -55 
Q 3172 -91 3053 -91 
Q 2847 -91 2730 40 
Q 2613 172 2613 403 
Q 2438 153 2195 31 
Q 1953 -91 1625 -91 
Q 1334 -91 1117 43 
Q 900 178 831 397 
L 494 -1331 
L -84 -1331 
z
" transform="scale(0.015625)"/>
       <path id="DejaVuSans-3d" d="M 678 2906 
L 4684 2906 
L 4684 2381 
L 678 2381 
L 678 2906 
z
M 678 1631 
L 4684 1631 
L 4684 1100 
L 678 1100 
L 678 1631 
z
" transform="scale(0.015625)"/>
       <path id="DejaVuSans-Oblique-75" d="M 428 1388 
L 838 3500 
L 1416 3500 
L 1006 1409 
Q 975 1256 961 1147 
Q 947 1038 947 966 
Q 947 700 1109 554 
Q 1272 409 1569 409 
Q 2031 409 2368 721 
Q 2706 1034 2809 1563 
L 3194 3500 
L 3769 3500 
L 3091 0 
L 2516 0 
L 2631 550 
Q 2388 244 2052 76 
Q 1716 -91 1338 -91 
Q 878 -91 622 161 
Q 366 413 366 863 
Q 366 956 381 1097 
Q 397 1238 428 1388 
z
" transform="scale(0.015625)"/>
       <path id="DejaVuSans-Oblique-67" d="M 3816 3500 
L 3219 434 
Q 3047 -456 2561 -893 
Q 2075 -1331 1253 -1331 
Q 950 -1331 690 -1286 
Q 431 -1241 206 -1147 
L 313 -588 
Q 525 -725 762 -790 
Q 1000 -856 1269 -856 
Q 1816 -856 2167 -557 
Q 2519 -259 2631 300 
L 2681 563 
Q 2441 288 2122 144 
Q 1803 0 1434 0 
Q 903 0 598 351 
Q 294 703 294 1319 
Q 294 1803 478 2267 
Q 663 2731 997 3091 
Q 1219 3328 1514 3456 
Q 1809 3584 2131 3584 
Q 2484 3584 2746 3420 
Q 3009 3256 3138 2956 
L 3238 3500 
L 3816 3500 
z
M 2950 2216 
Q 2950 2641 2750 2872 
Q 2550 3103 2181 3103 
Q 1953 3103 1747 3012 
Q 1541 2922 1394 2759 
Q 1156 2491 1023 2127 
Q 891 1763 891 1375 
Q 891 944 1092 712 
Q 1294 481 1672 481 
Q 2219 481 2584 976 
Q 2950 1472 2950 2216 
z
" transform="scale(0.015625)"/>
       <path id="DejaVuSans-Oblique-6c" d="M 1172 4863 
L 1747 4863 
L 800 0 
L 225 0 
L 1172 4863 
z
" transform="scale(0.015625)"/>
       <path id="DejaVuSans-Oblique-6f" d="M 1625 -91 
Q 1009 -91 651 289 
Q 294 669 294 1325 
Q 294 1706 417 2101 
Q 541 2497 738 2766 
Q 1047 3184 1428 3384 
Q 1809 3584 2291 3584 
Q 2888 3584 3255 3212 
Q 3622 2841 3622 2241 
Q 3622 1825 3500 1412 
Q 3378 1000 3181 728 
Q 2875 309 2494 109 
Q 2113 -91 1625 -91 
z
M 891 1344 
Q 891 869 1089 633 
Q 1288 397 1691 397 
Q 2269 397 2648 901 
Q 3028 1406 3028 2181 
Q 3028 2634 2825 2865 
Q 2622 3097 2228 3097 
Q 1903 3097 1650 2945 
Q 1397 2794 1197 2484 
Q 1050 2253 970 1956 
Q 891 1659 891 1344 
z
" transform="scale(0.015625)"/>
       <path id="DejaVuSans-Oblique-62" d="M 3169 2138 
Q 3169 2591 2961 2847 
Q 2753 3103 2388 3103 
Q 2122 3103 1889 2973 
Q 1656 2844 1484 2597 
Q 1303 2338 1198 1995 
Q 1094 1653 1094 1313 
Q 1094 881 1298 636 
Q 1503 391 1863 391 
Q 2134 391 2365 517 
Q 2597 644 2772 891 
Q 2950 1147 3059 1487 
Q 3169 1828 3169 2138 
z
M 1381 2969 
Q 1594 3256 1914 3420 
Q 2234 3584 2584 3584 
Q 3122 3584 3439 3221 
Q 3756 2859 3756 2241 
Q 3756 1734 3570 1259 
Q 3384 784 3041 416 
Q 2816 172 2522 40 
Q 2228 -91 1906 -91 
Q 1566 -91 1316 65 
Q 1066 222 909 531 
L 806 0 
L 231 0 
L 1178 4863 
L 1753 4863 
L 1381 2969 
z
" transform="scale(0.015625)"/>
       <path id="DejaVuSans-34" d="M 2419 4116 
L 825 1625 
L 2419 1625 
L 2419 4116 
z
M 2253 4666 
L 3047 4666 
L 3047 1625 
L 3713 1625 
L 3713 1100 
L 3047 1100 
L 3047 0 
L 2419 0 
L 2419 1100 
L 313 1100 
L 313 1709 
L 2253 4666 
z
" transform="scale(0.015625)"/>
       <path id="SimHei-2c" d="M 1100 125 
L 775 -550 
L 525 -550 
L 775 125 
L 525 125 
L 525 675 
L 1100 675 
L 1100 125 
z
" transform="scale(0.015625)"/>
       <path id="DejaVuSans-Oblique-3c3" d="M 2219 3044 
Q 1744 3044 1422 2700 
Q 1081 2341 969 1747 
Q 844 1119 1044 756 
Q 1241 397 1706 397 
Q 2166 397 2503 759 
Q 2844 1122 2966 1747 
Q 3075 2319 2881 2700 
Q 2700 3044 2219 3044 
z
M 2309 3503 
L 4219 3500 
L 4106 2925 
L 3463 2925 
Q 3706 2438 3575 1747 
Q 3406 888 2884 400 
Q 2359 -91 1609 -91 
Q 856 -91 525 400 
Q 194 888 363 1747 
Q 528 2609 1050 3097 
Q 1484 3503 2309 3503 
z
" transform="scale(0.015625)"/>
       <path id="DejaVuSans-Oblique-73" d="M 3200 3397 
L 3091 2853 
Q 2863 2978 2609 3040 
Q 2356 3103 2088 3103 
Q 1634 3103 1373 2948 
Q 1113 2794 1113 2528 
Q 1113 2219 1719 2053 
Q 1766 2041 1788 2034 
L 1972 1978 
Q 2547 1819 2739 1644 
Q 2931 1469 2931 1166 
Q 2931 609 2489 259 
Q 2047 -91 1331 -91 
Q 1053 -91 747 -37 
Q 441 16 72 128 
L 184 722 
Q 500 559 806 475 
Q 1113 391 1394 391 
Q 1816 391 2080 572 
Q 2344 753 2344 1031 
Q 2344 1331 1650 1516 
L 1591 1531 
L 1394 1581 
Q 956 1697 753 1886 
Q 550 2075 550 2369 
Q 550 2928 970 3256 
Q 1391 3584 2113 3584 
Q 2397 3584 2667 3537 
Q 2938 3491 3200 3397 
z
" transform="scale(0.015625)"/>
       <path id="DejaVuSans-Oblique-69" d="M 1172 4863 
L 1747 4863 
L 1606 4134 
L 1031 4134 
L 1172 4863 
z
M 909 3500 
L 1484 3500 
L 800 0 
L 225 0 
L 909 3500 
z
" transform="scale(0.015625)"/>
      </defs>
      <use xlink:href="#SimHei-57" transform="translate(0 0.765625)"/>
      <use xlink:href="#SimHei-69" transform="translate(50 0.765625)"/>
      <use xlink:href="#SimHei-65" transform="translate(100 0.765625)"/>
      <use xlink:href="#SimHei-6e" transform="translate(150 0.765625)"/>
      <use xlink:href="#SimHei-65" transform="translate(200 0.765625)"/>
      <use xlink:href="#SimHei-72" transform="translate(250 0.765625)"/>
      <use xlink:href="#SimHei-20" transform="translate(300 0.765625)"/>
      <use xlink:href="#SimHei-50" transform="translate(350 0.765625)"/>
      <use xlink:href="#SimHei-44" transform="translate(400 0.765625)"/>
      <use xlink:href="#SimHei-46" transform="translate(450 0.765625)"/>
      <use xlink:href="#SimHei-20" transform="translate(500 0.765625)"/>
      <use xlink:href="#SimHei-28" transform="translate(550 0.765625)"/>
      <use xlink:href="#DejaVuSans-394" transform="translate(600 0.765625)"/>
      <use xlink:href="#DejaVuSans-Oblique-74" transform="translate(668.408203 0.765625)"/>
      <use xlink:href="#DejaVuSans-2248" transform="translate(727.099609 0.765625)"/>
      <use xlink:href="#DejaVuSans-Oblique-64" transform="translate(830.371094 0.765625)"/>
      <use xlink:href="#DejaVuSans-Oblique-74" transform="translate(893.847656 0.765625)"/>
      <use xlink:href="#DejaVuSans-Oblique-6d" transform="translate(933.056641 -15.640625) scale(0.7)"/>
      <use xlink:href="#DejaVuSans-Oblique-65" transform="translate(1003.979492 0.765625)"/>
      <use xlink:href="#DejaVuSans-Oblique-61" transform="translate(1065.50293 0.765625)"/>
      <use xlink:href="#DejaVuSans-Oblique-6e" transform="translate(1126.782227 0.765625)"/>
      <use xlink:href="#DejaVuSans-3a" transform="translate(1209.643555 0.765625)"/>
      <use xlink:href="#DejaVuSans-2e" transform="translate(1262.817383 0.765625)"/>
      <use xlink:href="#DejaVuSans-32" transform="translate(1314.086914 0.765625)"/>
      <use xlink:href="#DejaVuSans-Oblique-66" transform="translate(1377.709961 0.765625)"/>
      <use xlink:href="#SimHei-29" transform="translate(1412.915039 0.765625)"/>
      <use xlink:href="#SimHei-5c" transform="translate(1462.915039 0.765625)"/>
      <use xlink:href="#SimHei-6e" transform="translate(1512.915039 0.765625)"/>
      <use xlink:href="#DejaVuSans-Oblique-3bc" transform="translate(1562.915039 0.765625)"/>
      <use xlink:href="#DejaVuSans-3d" transform="translate(1646.020508 0.765625)"/>
      <use xlink:href="#DejaVuSans-Oblique-6d" transform="translate(1749.291992 0.765625)"/>
      <use xlink:href="#DejaVuSans-Oblique-75" transform="translate(1846.704102 0.765625)"/>
      <use xlink:href="#DejaVuSans-Oblique-67" transform="translate(1910.083008 -15.640625) scale(0.7)"/>
      <use xlink:href="#DejaVuSans-Oblique-6c" transform="translate(1957.250977 0.765625)"/>
      <use xlink:href="#DejaVuSans-Oblique-6f" transform="translate(1985.03418 0.765625)"/>
      <use xlink:href="#DejaVuSans-Oblique-62" transform="translate(2046.21582 0.765625)"/>
      <use xlink:href="#DejaVuSans-Oblique-61" transform="translate(2109.692383 0.765625)"/>
      <use xlink:href="#DejaVuSans-Oblique-6c" transform="translate(2170.97168 0.765625)"/>
      <use xlink:href="#DejaVuSans-3a" transform="translate(2218.237305 0.765625)"/>
      <use xlink:href="#DejaVuSans-2e" transform="translate(2271.411133 0.765625)"/>
      <use xlink:href="#DejaVuSans-34" transform="translate(2322.680664 0.765625)"/>
      <use xlink:href="#DejaVuSans-Oblique-65" transform="translate(2386.303711 0.765625)"/>
      <use xlink:href="#SimHei-2c" transform="translate(2447.827148 0.765625)"/>
      <use xlink:href="#SimHei-20" transform="translate(2497.827148 0.765625)"/>
      <use xlink:href="#DejaVuSans-Oblique-3c3" transform="translate(2547.827148 0.765625)"/>
      <use xlink:href="#DejaVuSans-32" transform="translate(2615.678763 39.046875) scale(0.7)"/>
      <use xlink:href="#DejaVuSans-3d" transform="translate(2682.431693 0.765625)"/>
      <use xlink:href="#DejaVuSans-Oblique-73" transform="translate(2785.703177 0.765625)"/>
      <use xlink:href="#DejaVuSans-Oblique-69" transform="translate(2837.802786 0.765625)"/>
      <use xlink:href="#DejaVuSans-Oblique-67" transform="translate(2865.58599 0.765625)"/>
      <use xlink:href="#DejaVuSans-Oblique-6d" transform="translate(2929.062552 0.765625)"/>
      <use xlink:href="#DejaVuSans-Oblique-61" transform="translate(3026.474661 0.765625)"/>
      <use xlink:href="#DejaVuSans-32" transform="translate(3087.753958 0.765625)"/>
      <use xlink:href="#DejaVuSans-Oblique-67" transform="translate(3152.334036 -15.640625) scale(0.7)"/>
      <use xlink:href="#DejaVuSans-Oblique-6c" transform="translate(3199.502005 0.765625)"/>
      <use xlink:href="#DejaVuSans-Oblique-6f" transform="translate(3227.285208 0.765625)"/>
      <use xlink:href="#DejaVuSans-Oblique-62" transform="translate(3288.466849 0.765625)"/>
      <use xlink:href="#DejaVuSans-Oblique-61" transform="translate(3351.943411 0.765625)"/>
      <use xlink:href="#DejaVuSans-Oblique-6c" transform="translate(3413.222708 0.765625)"/>
      <use xlink:href="#DejaVuSans-3a" transform="translate(3460.488333 0.765625)"/>
      <use xlink:href="#DejaVuSans-2e" transform="translate(3513.662161 0.765625)"/>
      <use xlink:href="#DejaVuSans-34" transform="translate(3564.931693 0.765625)"/>
      <use xlink:href="#DejaVuSans-Oblique-65" transform="translate(3628.55474 0.765625)"/>
     </g>
    </g>
   </g>
  </g>
 </g>
 <defs>
  <clipPath id="p16862cd495">
   <rect x="45.2625" y="29.5125" width="660.13" height="350.68"/>
  </clipPath>
 </defs>
</svg>
