<?xml version="1.0" encoding="utf-8" standalone="no"?>
<!DOCTYPE svg PUBLIC "-//W3C//DTD SVG 1.1//EN"
  "http://www.w3.org/Graphics/SVG/1.1/DTD/svg11.dtd">
<svg xmlns:xlink="http://www.w3.org/1999/xlink" width="639.965625pt" height="423.148438pt" viewBox="0 0 639.965625 423.148438" xmlns="http://www.w3.org/2000/svg" version="1.1">
 <metadata>
  <rdf:RDF xmlns:dc="http://purl.org/dc/elements/1.1/" xmlns:cc="http://creativecommons.org/ns#" xmlns:rdf="http://www.w3.org/1999/02/22-rdf-syntax-ns#">
   <cc:Work>
    <dc:type rdf:resource="http://purl.org/dc/dcmitype/StillImage"/>
    <dc:date>2026-03-25T11:11:33.747449</dc:date>
    <dc:format>image/svg+xml</dc:format>
    <dc:creator>
     <cc:Agent>
      <dc:title>Matplotlib v3.10.8, https://matplotlib.org/</dc:title>
     </cc:Agent>
    </dc:creator>
   </cc:Work>
  </rdf:RDF>
 </metadata>
 <defs>
  <style type="text/css">*{stroke-linejoin: round; stroke-linecap: butt}</style>
 </defs>
 <g id="figure_1">
  <g id="patch_1">
   <path d="M 0 423.148438 
L 639.965625 423.148438 
L 639.965625 0 
L 0 0 
z
" style="fill: #ffffff"/>
  </g>
  <g id="axes_1">
   <g id="patch_2">
    <path d="M 51.621875 384.94375 
L 632.765625 384.94375 
L 632.765625 7.2 
L 51.621875 7.2 
z
" style="fill: #ffffff"/>
   </g>
   <g id="matplotlib.axis_1">
    <g id="xtick_1">
     <g id="line2d_1">
      <path d="M 78.034578 384.94375 
L 78.034578 7.2 
" clip-path="url(#p4d85ffed84)" style="fill: none; stroke-dasharray: 2.96,1.28; stroke-dashoffset: 0; stroke: #b0b0b0; stroke-opacity: 0.6; stroke-width: 0.8"/>
     </g>
     <g id="line2d_2">
      <defs>
       <path id="mc827cfc70c" d="M 0 0 
L 0 3.5 
" style="stroke: #000000; stroke-width: 0.8"/>
      </defs>
      <g>
       <use xlink:href="#mc827cfc70c" x="78.034578" y="384.94375" style="stroke: #000000; stroke-width: 0.8"/>
      </g>
     </g>
     <g id="text_1">
      <!-- 0 -->
      <g transform="translate(75.534578 398.8875) scale(0.1 -0.1)">
       <defs>
        <path id="TimesNewRomanPSMT-30" d="M 231 2094 
Q 231 2819 450 3342 
Q 669 3866 1031 4122 
Q 1313 4325 1613 4325 
Q 2100 4325 2488 3828 
Q 2972 3213 2972 2159 
Q 2972 1422 2759 906 
Q 2547 391 2217 158 
Q 1888 -75 1581 -75 
Q 975 -75 572 641 
Q 231 1244 231 2094 
z
M 844 2016 
Q 844 1141 1059 588 
Q 1238 122 1591 122 
Q 1759 122 1940 273 
Q 2122 425 2216 781 
Q 2359 1319 2359 2297 
Q 2359 3022 2209 3506 
Q 2097 3866 1919 4016 
Q 1791 4119 1609 4119 
Q 1397 4119 1231 3928 
Q 1006 3669 925 3112 
Q 844 2556 844 2016 
z
" transform="scale(0.015625)"/>
       </defs>
       <use xlink:href="#TimesNewRomanPSMT-30"/>
      </g>
     </g>
    </g>
    <g id="xtick_2">
     <g id="line2d_3">
      <path d="M 151.083002 384.94375 
L 151.083002 7.2 
" clip-path="url(#p4d85ffed84)" style="fill: none; stroke-dasharray: 2.96,1.28; stroke-dashoffset: 0; stroke: #b0b0b0; stroke-opacity: 0.6; stroke-width: 0.8"/>
     </g>
     <g id="line2d_4">
      <g>
       <use xlink:href="#mc827cfc70c" x="151.083002" y="384.94375" style="stroke: #000000; stroke-width: 0.8"/>
      </g>
     </g>
     <g id="text_2">
      <!-- 250 -->
      <g transform="translate(143.583002 398.8875) scale(0.1 -0.1)">
       <defs>
        <path id="TimesNewRomanPSMT-32" d="M 2934 816 
L 2638 0 
L 138 0 
L 138 116 
Q 1241 1122 1691 1759 
Q 2141 2397 2141 2925 
Q 2141 3328 1894 3587 
Q 1647 3847 1303 3847 
Q 991 3847 742 3664 
Q 494 3481 375 3128 
L 259 3128 
Q 338 3706 661 4015 
Q 984 4325 1469 4325 
Q 1984 4325 2329 3994 
Q 2675 3663 2675 3213 
Q 2675 2891 2525 2569 
Q 2294 2063 1775 1497 
Q 997 647 803 472 
L 1909 472 
Q 2247 472 2383 497 
Q 2519 522 2628 598 
Q 2738 675 2819 816 
L 2934 816 
z
" transform="scale(0.015625)"/>
        <path id="TimesNewRomanPSMT-35" d="M 2778 4238 
L 2534 3706 
L 1259 3706 
L 981 3138 
Q 1809 3016 2294 2522 
Q 2709 2097 2709 1522 
Q 2709 1188 2573 903 
Q 2438 619 2231 419 
Q 2025 219 1772 97 
Q 1413 -75 1034 -75 
Q 653 -75 479 54 
Q 306 184 306 341 
Q 306 428 378 495 
Q 450 563 559 563 
Q 641 563 702 538 
Q 763 513 909 409 
Q 1144 247 1384 247 
Q 1750 247 2026 523 
Q 2303 800 2303 1197 
Q 2303 1581 2056 1914 
Q 1809 2247 1375 2428 
Q 1034 2569 447 2591 
L 1259 4238 
L 2778 4238 
z
" transform="scale(0.015625)"/>
       </defs>
       <use xlink:href="#TimesNewRomanPSMT-32"/>
       <use xlink:href="#TimesNewRomanPSMT-35" transform="translate(50 0)"/>
       <use xlink:href="#TimesNewRomanPSMT-30" transform="translate(100 0)"/>
      </g>
     </g>
    </g>
    <g id="xtick_3">
     <g id="line2d_5">
      <path d="M 224.131426 384.94375 
L 224.131426 7.2 
" clip-path="url(#p4d85ffed84)" style="fill: none; stroke-dasharray: 2.96,1.28; stroke-dashoffset: 0; stroke: #b0b0b0; stroke-opacity: 0.6; stroke-width: 0.8"/>
     </g>
     <g id="line2d_6">
      <g>
       <use xlink:href="#mc827cfc70c" x="224.131426" y="384.94375" style="stroke: #000000; stroke-width: 0.8"/>
      </g>
     </g>
     <g id="text_3">
      <!-- 500 -->
      <g transform="translate(216.631426 398.8875) scale(0.1 -0.1)">
       <use xlink:href="#TimesNewRomanPSMT-35"/>
       <use xlink:href="#TimesNewRomanPSMT-30" transform="translate(50 0)"/>
       <use xlink:href="#TimesNewRomanPSMT-30" transform="translate(100 0)"/>
      </g>
     </g>
    </g>
    <g id="xtick_4">
     <g id="line2d_7">
      <path d="M 297.17985 384.94375 
L 297.17985 7.2 
" clip-path="url(#p4d85ffed84)" style="fill: none; stroke-dasharray: 2.96,1.28; stroke-dashoffset: 0; stroke: #b0b0b0; stroke-opacity: 0.6; stroke-width: 0.8"/>
     </g>
     <g id="line2d_8">
      <g>
       <use xlink:href="#mc827cfc70c" x="297.17985" y="384.94375" style="stroke: #000000; stroke-width: 0.8"/>
      </g>
     </g>
     <g id="text_4">
      <!-- 750 -->
      <g transform="translate(289.67985 398.8875) scale(0.1 -0.1)">
       <defs>
        <path id="TimesNewRomanPSMT-37" d="M 644 4238 
L 2916 4238 
L 2916 4119 
L 1503 -88 
L 1153 -88 
L 2419 3728 
L 1253 3728 
Q 900 3728 750 3644 
Q 488 3500 328 3200 
L 238 3234 
L 644 4238 
z
" transform="scale(0.015625)"/>
       </defs>
       <use xlink:href="#TimesNewRomanPSMT-37"/>
       <use xlink:href="#TimesNewRomanPSMT-35" transform="translate(50 0)"/>
       <use xlink:href="#TimesNewRomanPSMT-30" transform="translate(100 0)"/>
      </g>
     </g>
    </g>
    <g id="xtick_5">
     <g id="line2d_9">
      <path d="M 370.228274 384.94375 
L 370.228274 7.2 
" clip-path="url(#p4d85ffed84)" style="fill: none; stroke-dasharray: 2.96,1.28; stroke-dashoffset: 0; stroke: #b0b0b0; stroke-opacity: 0.6; stroke-width: 0.8"/>
     </g>
     <g id="line2d_10">
      <g>
       <use xlink:href="#mc827cfc70c" x="370.228274" y="384.94375" style="stroke: #000000; stroke-width: 0.8"/>
      </g>
     </g>
     <g id="text_5">
      <!-- 1000 -->
      <g transform="translate(360.228274 398.8875) scale(0.1 -0.1)">
       <defs>
        <path id="TimesNewRomanPSMT-31" d="M 750 3822 
L 1781 4325 
L 1884 4325 
L 1884 747 
Q 1884 391 1914 303 
Q 1944 216 2037 169 
Q 2131 122 2419 116 
L 2419 0 
L 825 0 
L 825 116 
Q 1125 122 1212 167 
Q 1300 213 1334 289 
Q 1369 366 1369 747 
L 1369 3034 
Q 1369 3497 1338 3628 
Q 1316 3728 1258 3775 
Q 1200 3822 1119 3822 
Q 1003 3822 797 3725 
L 750 3822 
z
" transform="scale(0.015625)"/>
       </defs>
       <use xlink:href="#TimesNewRomanPSMT-31"/>
       <use xlink:href="#TimesNewRomanPSMT-30" transform="translate(50 0)"/>
       <use xlink:href="#TimesNewRomanPSMT-30" transform="translate(100 0)"/>
       <use xlink:href="#TimesNewRomanPSMT-30" transform="translate(150 0)"/>
      </g>
     </g>
    </g>
    <g id="xtick_6">
     <g id="line2d_11">
      <path d="M 443.276698 384.94375 
L 443.276698 7.2 
" clip-path="url(#p4d85ffed84)" style="fill: none; stroke-dasharray: 2.96,1.28; stroke-dashoffset: 0; stroke: #b0b0b0; stroke-opacity: 0.6; stroke-width: 0.8"/>
     </g>
     <g id="line2d_12">
      <g>
       <use xlink:href="#mc827cfc70c" x="443.276698" y="384.94375" style="stroke: #000000; stroke-width: 0.8"/>
      </g>
     </g>
     <g id="text_6">
      <!-- 1250 -->
      <g transform="translate(433.276698 398.8875) scale(0.1 -0.1)">
       <use xlink:href="#TimesNewRomanPSMT-31"/>
       <use xlink:href="#TimesNewRomanPSMT-32" transform="translate(50 0)"/>
       <use xlink:href="#TimesNewRomanPSMT-35" transform="translate(100 0)"/>
       <use xlink:href="#TimesNewRomanPSMT-30" transform="translate(150 0)"/>
      </g>
     </g>
    </g>
    <g id="xtick_7">
     <g id="line2d_13">
      <path d="M 516.325122 384.94375 
L 516.325122 7.2 
" clip-path="url(#p4d85ffed84)" style="fill: none; stroke-dasharray: 2.96,1.28; stroke-dashoffset: 0; stroke: #b0b0b0; stroke-opacity: 0.6; stroke-width: 0.8"/>
     </g>
     <g id="line2d_14">
      <g>
       <use xlink:href="#mc827cfc70c" x="516.325122" y="384.94375" style="stroke: #000000; stroke-width: 0.8"/>
      </g>
     </g>
     <g id="text_7">
      <!-- 1500 -->
      <g transform="translate(506.325122 398.8875) scale(0.1 -0.1)">
       <use xlink:href="#TimesNewRomanPSMT-31"/>
       <use xlink:href="#TimesNewRomanPSMT-35" transform="translate(50 0)"/>
       <use xlink:href="#TimesNewRomanPSMT-30" transform="translate(100 0)"/>
       <use xlink:href="#TimesNewRomanPSMT-30" transform="translate(150 0)"/>
      </g>
     </g>
    </g>
    <g id="xtick_8">
     <g id="line2d_15">
      <path d="M 589.373546 384.94375 
L 589.373546 7.2 
" clip-path="url(#p4d85ffed84)" style="fill: none; stroke-dasharray: 2.96,1.28; stroke-dashoffset: 0; stroke: #b0b0b0; stroke-opacity: 0.6; stroke-width: 0.8"/>
     </g>
     <g id="line2d_16">
      <g>
       <use xlink:href="#mc827cfc70c" x="589.373546" y="384.94375" style="stroke: #000000; stroke-width: 0.8"/>
      </g>
     </g>
     <g id="text_8">
      <!-- 1750 -->
      <g transform="translate(579.373546 398.8875) scale(0.1 -0.1)">
       <use xlink:href="#TimesNewRomanPSMT-31"/>
       <use xlink:href="#TimesNewRomanPSMT-37" transform="translate(50 0)"/>
       <use xlink:href="#TimesNewRomanPSMT-35" transform="translate(100 0)"/>
       <use xlink:href="#TimesNewRomanPSMT-30" transform="translate(150 0)"/>
      </g>
     </g>
    </g>
    <g id="text_9">
     <!-- Failure Time (Days) -->
     <g transform="translate(293.524375 413.359062) scale(0.12 -0.12)">
      <defs>
       <path id="TimesNewRomanPSMT-46" d="M 1309 4006 
L 1309 2341 
L 2081 2341 
Q 2347 2341 2470 2458 
Q 2594 2575 2634 2922 
L 2750 2922 
L 2750 1488 
L 2634 1488 
Q 2631 1734 2570 1850 
Q 2509 1966 2401 2023 
Q 2294 2081 2081 2081 
L 1309 2081 
L 1309 750 
Q 1309 428 1350 325 
Q 1381 247 1481 191 
Q 1619 116 1769 116 
L 1922 116 
L 1922 0 
L 103 0 
L 103 116 
L 253 116 
Q 516 116 634 269 
Q 709 369 709 750 
L 709 3488 
Q 709 3809 669 3913 
Q 638 3991 541 4047 
Q 406 4122 253 4122 
L 103 4122 
L 103 4238 
L 3256 4238 
L 3297 3306 
L 3188 3306 
Q 3106 3603 2998 3742 
Q 2891 3881 2733 3943 
Q 2575 4006 2244 4006 
L 1309 4006 
z
" transform="scale(0.015625)"/>
       <path id="TimesNewRomanPSMT-61" d="M 1822 413 
Q 1381 72 1269 19 
Q 1100 -59 909 -59 
Q 613 -59 420 144 
Q 228 347 228 678 
Q 228 888 322 1041 
Q 450 1253 767 1440 
Q 1084 1628 1822 1897 
L 1822 2009 
Q 1822 2438 1686 2597 
Q 1550 2756 1291 2756 
Q 1094 2756 978 2650 
Q 859 2544 859 2406 
L 866 2225 
Q 866 2081 792 2003 
Q 719 1925 600 1925 
Q 484 1925 411 2006 
Q 338 2088 338 2228 
Q 338 2497 613 2722 
Q 888 2947 1384 2947 
Q 1766 2947 2009 2819 
Q 2194 2722 2281 2516 
Q 2338 2381 2338 1966 
L 2338 994 
Q 2338 584 2353 492 
Q 2369 400 2405 369 
Q 2441 338 2488 338 
Q 2538 338 2575 359 
Q 2641 400 2828 588 
L 2828 413 
Q 2478 -56 2159 -56 
Q 2006 -56 1915 50 
Q 1825 156 1822 413 
z
M 1822 616 
L 1822 1706 
Q 1350 1519 1213 1441 
Q 966 1303 859 1153 
Q 753 1003 753 825 
Q 753 600 887 451 
Q 1022 303 1197 303 
Q 1434 303 1822 616 
z
" transform="scale(0.015625)"/>
       <path id="TimesNewRomanPSMT-69" d="M 928 4444 
Q 1059 4444 1151 4351 
Q 1244 4259 1244 4128 
Q 1244 3997 1151 3903 
Q 1059 3809 928 3809 
Q 797 3809 703 3903 
Q 609 3997 609 4128 
Q 609 4259 701 4351 
Q 794 4444 928 4444 
z
M 1188 2947 
L 1188 647 
Q 1188 378 1227 289 
Q 1266 200 1342 156 
Q 1419 113 1622 113 
L 1622 0 
L 231 0 
L 231 113 
Q 441 113 512 153 
Q 584 194 626 287 
Q 669 381 669 647 
L 669 1750 
Q 669 2216 641 2353 
Q 619 2453 572 2492 
Q 525 2531 444 2531 
Q 356 2531 231 2484 
L 188 2597 
L 1050 2947 
L 1188 2947 
z
" transform="scale(0.015625)"/>
       <path id="TimesNewRomanPSMT-6c" d="M 1184 4444 
L 1184 647 
Q 1184 378 1223 290 
Q 1263 203 1344 158 
Q 1425 113 1647 113 
L 1647 0 
L 244 0 
L 244 113 
Q 441 113 512 153 
Q 584 194 625 287 
Q 666 381 666 647 
L 666 3247 
Q 666 3731 644 3842 
Q 622 3953 573 3993 
Q 525 4034 450 4034 
Q 369 4034 244 3984 
L 191 4094 
L 1044 4444 
L 1184 4444 
z
" transform="scale(0.015625)"/>
       <path id="TimesNewRomanPSMT-75" d="M 2709 2863 
L 2709 1128 
Q 2709 631 2732 520 
Q 2756 409 2807 365 
Q 2859 322 2928 322 
Q 3025 322 3147 375 
L 3191 266 
L 2334 -88 
L 2194 -88 
L 2194 519 
Q 1825 119 1631 15 
Q 1438 -88 1222 -88 
Q 981 -88 804 51 
Q 628 191 559 409 
Q 491 628 491 1028 
L 491 2306 
Q 491 2509 447 2587 
Q 403 2666 317 2708 
Q 231 2750 6 2747 
L 6 2863 
L 1009 2863 
L 1009 947 
Q 1009 547 1148 422 
Q 1288 297 1484 297 
Q 1619 297 1789 381 
Q 1959 466 2194 703 
L 2194 2325 
Q 2194 2569 2105 2655 
Q 2016 2741 1734 2747 
L 1734 2863 
L 2709 2863 
z
" transform="scale(0.015625)"/>
       <path id="TimesNewRomanPSMT-72" d="M 1038 2947 
L 1038 2303 
Q 1397 2947 1775 2947 
Q 1947 2947 2059 2842 
Q 2172 2738 2172 2600 
Q 2172 2478 2090 2393 
Q 2009 2309 1897 2309 
Q 1788 2309 1652 2417 
Q 1516 2525 1450 2525 
Q 1394 2525 1328 2463 
Q 1188 2334 1038 2041 
L 1038 669 
Q 1038 431 1097 309 
Q 1138 225 1241 169 
Q 1344 113 1538 113 
L 1538 0 
L 72 0 
L 72 113 
Q 291 113 397 181 
Q 475 231 506 341 
Q 522 394 522 644 
L 522 1753 
Q 522 2253 501 2348 
Q 481 2444 426 2487 
Q 372 2531 291 2531 
Q 194 2531 72 2484 
L 41 2597 
L 906 2947 
L 1038 2947 
z
" transform="scale(0.015625)"/>
       <path id="TimesNewRomanPSMT-65" d="M 681 1784 
Q 678 1147 991 784 
Q 1303 422 1725 422 
Q 2006 422 2214 576 
Q 2422 731 2563 1106 
L 2659 1044 
Q 2594 616 2278 264 
Q 1963 -88 1488 -88 
Q 972 -88 605 314 
Q 238 716 238 1394 
Q 238 2128 614 2539 
Q 991 2950 1559 2950 
Q 2041 2950 2350 2633 
Q 2659 2316 2659 1784 
L 681 1784 
z
M 681 1966 
L 2006 1966 
Q 1991 2241 1941 2353 
Q 1863 2528 1708 2628 
Q 1553 2728 1384 2728 
Q 1125 2728 920 2526 
Q 716 2325 681 1966 
z
" transform="scale(0.015625)"/>
       <path id="TimesNewRomanPSMT-20" transform="scale(0.015625)"/>
       <path id="TimesNewRomanPSMT-54" d="M 3703 4238 
L 3750 3244 
L 3631 3244 
Q 3597 3506 3538 3619 
Q 3441 3800 3280 3886 
Q 3119 3972 2856 3972 
L 2259 3972 
L 2259 734 
Q 2259 344 2344 247 
Q 2463 116 2709 116 
L 2856 116 
L 2856 0 
L 1059 0 
L 1059 116 
L 1209 116 
Q 1478 116 1591 278 
Q 1659 378 1659 734 
L 1659 3972 
L 1150 3972 
Q 853 3972 728 3928 
Q 566 3869 450 3700 
Q 334 3531 313 3244 
L 194 3244 
L 244 4238 
L 3703 4238 
z
" transform="scale(0.015625)"/>
       <path id="TimesNewRomanPSMT-6d" d="M 1050 2338 
Q 1363 2650 1419 2697 
Q 1559 2816 1721 2881 
Q 1884 2947 2044 2947 
Q 2313 2947 2506 2790 
Q 2700 2634 2766 2338 
Q 3088 2713 3309 2830 
Q 3531 2947 3766 2947 
Q 3994 2947 4170 2830 
Q 4347 2713 4450 2447 
Q 4519 2266 4519 1878 
L 4519 647 
Q 4519 378 4559 278 
Q 4591 209 4675 161 
Q 4759 113 4950 113 
L 4950 0 
L 3538 0 
L 3538 113 
L 3597 113 
Q 3781 113 3884 184 
Q 3956 234 3988 344 
Q 4000 397 4000 647 
L 4000 1878 
Q 4000 2228 3916 2372 
Q 3794 2572 3525 2572 
Q 3359 2572 3192 2489 
Q 3025 2406 2788 2181 
L 2781 2147 
L 2788 2013 
L 2788 647 
Q 2788 353 2820 281 
Q 2853 209 2943 161 
Q 3034 113 3253 113 
L 3253 0 
L 1806 0 
L 1806 113 
Q 2044 113 2133 169 
Q 2222 225 2256 338 
Q 2272 391 2272 647 
L 2272 1878 
Q 2272 2228 2169 2381 
Q 2031 2581 1784 2581 
Q 1616 2581 1450 2491 
Q 1191 2353 1050 2181 
L 1050 647 
Q 1050 366 1089 281 
Q 1128 197 1204 155 
Q 1281 113 1516 113 
L 1516 0 
L 100 0 
L 100 113 
Q 297 113 375 155 
Q 453 197 493 289 
Q 534 381 534 647 
L 534 1741 
Q 534 2213 506 2350 
Q 484 2453 437 2492 
Q 391 2531 309 2531 
Q 222 2531 100 2484 
L 53 2597 
L 916 2947 
L 1050 2947 
L 1050 2338 
z
" transform="scale(0.015625)"/>
       <path id="TimesNewRomanPSMT-28" d="M 1988 -1253 
L 1988 -1369 
Q 1516 -1131 1200 -813 
Q 750 -359 506 256 
Q 263 872 263 1534 
Q 263 2503 741 3301 
Q 1219 4100 1988 4444 
L 1988 4313 
Q 1603 4100 1356 3731 
Q 1109 3363 987 2797 
Q 866 2231 866 1616 
Q 866 947 969 400 
Q 1050 -31 1165 -292 
Q 1281 -553 1476 -793 
Q 1672 -1034 1988 -1253 
z
" transform="scale(0.015625)"/>
       <path id="TimesNewRomanPSMT-44" d="M 109 0 
L 109 116 
L 269 116 
Q 538 116 650 288 
Q 719 391 719 750 
L 719 3488 
Q 719 3884 631 3984 
Q 509 4122 269 4122 
L 109 4122 
L 109 4238 
L 1834 4238 
Q 2784 4238 3279 4022 
Q 3775 3806 4076 3303 
Q 4378 2800 4378 2141 
Q 4378 1256 3841 663 
Q 3238 0 2003 0 
L 109 0 
z
M 1319 306 
Q 1716 219 1984 219 
Q 2709 219 3187 728 
Q 3666 1238 3666 2109 
Q 3666 2988 3187 3494 
Q 2709 4000 1959 4000 
Q 1678 4000 1319 3909 
L 1319 306 
z
" transform="scale(0.015625)"/>
       <path id="TimesNewRomanPSMT-79" d="M 38 2863 
L 1372 2863 
L 1372 2747 
L 1306 2747 
Q 1166 2747 1095 2686 
Q 1025 2625 1025 2534 
Q 1025 2413 1128 2197 
L 1825 753 
L 2466 2334 
Q 2519 2463 2519 2588 
Q 2519 2644 2497 2672 
Q 2472 2706 2419 2726 
Q 2366 2747 2231 2747 
L 2231 2863 
L 3163 2863 
L 3163 2747 
Q 3047 2734 2984 2696 
Q 2922 2659 2847 2556 
Q 2819 2513 2741 2316 
L 1575 -541 
Q 1406 -956 1132 -1168 
Q 859 -1381 606 -1381 
Q 422 -1381 303 -1275 
Q 184 -1169 184 -1031 
Q 184 -900 270 -820 
Q 356 -741 506 -741 
Q 609 -741 788 -809 
Q 913 -856 944 -856 
Q 1038 -856 1148 -759 
Q 1259 -663 1372 -384 
L 1575 113 
L 547 2272 
Q 500 2369 397 2513 
Q 319 2622 269 2659 
Q 197 2709 38 2747 
L 38 2863 
z
" transform="scale(0.015625)"/>
       <path id="TimesNewRomanPSMT-73" d="M 2050 2947 
L 2050 1972 
L 1947 1972 
Q 1828 2431 1642 2597 
Q 1456 2763 1169 2763 
Q 950 2763 815 2647 
Q 681 2531 681 2391 
Q 681 2216 781 2091 
Q 878 1963 1175 1819 
L 1631 1597 
Q 2266 1288 2266 781 
Q 2266 391 1970 151 
Q 1675 -88 1309 -88 
Q 1047 -88 709 6 
Q 606 38 541 38 
Q 469 38 428 -44 
L 325 -44 
L 325 978 
L 428 978 
Q 516 541 762 319 
Q 1009 97 1316 97 
Q 1531 97 1667 223 
Q 1803 350 1803 528 
Q 1803 744 1651 891 
Q 1500 1038 1047 1263 
Q 594 1488 453 1669 
Q 313 1847 313 2119 
Q 313 2472 555 2709 
Q 797 2947 1181 2947 
Q 1350 2947 1591 2875 
Q 1750 2828 1803 2828 
Q 1853 2828 1881 2850 
Q 1909 2872 1947 2947 
L 2050 2947 
z
" transform="scale(0.015625)"/>
       <path id="TimesNewRomanPSMT-29" d="M 144 4313 
L 144 4444 
Q 619 4209 934 3891 
Q 1381 3434 1625 2820 
Q 1869 2206 1869 1541 
Q 1869 572 1392 -226 
Q 916 -1025 144 -1369 
L 144 -1253 
Q 528 -1038 776 -670 
Q 1025 -303 1145 264 
Q 1266 831 1266 1447 
Q 1266 2113 1163 2663 
Q 1084 3094 967 3353 
Q 850 3613 656 3853 
Q 463 4094 144 4313 
z
" transform="scale(0.015625)"/>
      </defs>
      <use xlink:href="#TimesNewRomanPSMT-46"/>
      <use xlink:href="#TimesNewRomanPSMT-61" transform="translate(55.615234 0)"/>
      <use xlink:href="#TimesNewRomanPSMT-69" transform="translate(100 0)"/>
      <use xlink:href="#TimesNewRomanPSMT-6c" transform="translate(127.783203 0)"/>
      <use xlink:href="#TimesNewRomanPSMT-75" transform="translate(155.566406 0)"/>
      <use xlink:href="#TimesNewRomanPSMT-72" transform="translate(205.566406 0)"/>
      <use xlink:href="#TimesNewRomanPSMT-65" transform="translate(238.867188 0)"/>
      <use xlink:href="#TimesNewRomanPSMT-20" transform="translate(283.251953 0)"/>
      <use xlink:href="#TimesNewRomanPSMT-54" transform="translate(306.501953 0)"/>
      <use xlink:href="#TimesNewRomanPSMT-69" transform="translate(364.085938 0)"/>
      <use xlink:href="#TimesNewRomanPSMT-6d" transform="translate(391.869141 0)"/>
      <use xlink:href="#TimesNewRomanPSMT-65" transform="translate(469.652344 0)"/>
      <use xlink:href="#TimesNewRomanPSMT-20" transform="translate(514.037109 0)"/>
      <use xlink:href="#TimesNewRomanPSMT-28" transform="translate(539.037109 0)"/>
      <use xlink:href="#TimesNewRomanPSMT-44" transform="translate(572.337891 0)"/>
      <use xlink:href="#TimesNewRomanPSMT-61" transform="translate(644.554688 0)"/>
      <use xlink:href="#TimesNewRomanPSMT-79" transform="translate(688.939453 0)"/>
      <use xlink:href="#TimesNewRomanPSMT-73" transform="translate(738.939453 0)"/>
      <use xlink:href="#TimesNewRomanPSMT-29" transform="translate(777.855469 0)"/>
     </g>
    </g>
   </g>
   <g id="matplotlib.axis_2">
    <g id="ytick_1">
     <g id="line2d_17">
      <path d="M 51.621875 367.77358 
L 632.765625 367.77358 
" clip-path="url(#p4d85ffed84)" style="fill: none; stroke-dasharray: 2.96,1.28; stroke-dashoffset: 0; stroke: #b0b0b0; stroke-opacity: 0.6; stroke-width: 0.8"/>
     </g>
     <g id="line2d_18">
      <defs>
       <path id="ma43c5faf47" d="M 0 0 
L -3.5 0 
" style="stroke: #000000; stroke-width: 0.8"/>
      </defs>
      <g>
       <use xlink:href="#ma43c5faf47" x="51.621875" y="367.77358" style="stroke: #000000; stroke-width: 0.8"/>
      </g>
     </g>
     <g id="text_10">
      <!-- 0.000 -->
      <g transform="translate(22.121875 371.245455) scale(0.1 -0.1)">
       <defs>
        <path id="TimesNewRomanPSMT-2e" d="M 800 606 
Q 947 606 1047 504 
Q 1147 403 1147 259 
Q 1147 116 1045 14 
Q 944 -88 800 -88 
Q 656 -88 554 14 
Q 453 116 453 259 
Q 453 406 554 506 
Q 656 606 800 606 
z
" transform="scale(0.015625)"/>
       </defs>
       <use xlink:href="#TimesNewRomanPSMT-30"/>
       <use xlink:href="#TimesNewRomanPSMT-2e" transform="translate(50 0)"/>
       <use xlink:href="#TimesNewRomanPSMT-30" transform="translate(75 0)"/>
       <use xlink:href="#TimesNewRomanPSMT-30" transform="translate(125 0)"/>
       <use xlink:href="#TimesNewRomanPSMT-30" transform="translate(175 0)"/>
      </g>
     </g>
    </g>
    <g id="ytick_2">
     <g id="line2d_19">
      <path d="M 51.621875 300.58644 
L 632.765625 300.58644 
" clip-path="url(#p4d85ffed84)" style="fill: none; stroke-dasharray: 2.96,1.28; stroke-dashoffset: 0; stroke: #b0b0b0; stroke-opacity: 0.6; stroke-width: 0.8"/>
     </g>
     <g id="line2d_20">
      <g>
       <use xlink:href="#ma43c5faf47" x="51.621875" y="300.58644" style="stroke: #000000; stroke-width: 0.8"/>
      </g>
     </g>
     <g id="text_11">
      <!-- 0.001 -->
      <g transform="translate(22.121875 304.058315) scale(0.1 -0.1)">
       <use xlink:href="#TimesNewRomanPSMT-30"/>
       <use xlink:href="#TimesNewRomanPSMT-2e" transform="translate(50 0)"/>
       <use xlink:href="#TimesNewRomanPSMT-30" transform="translate(75 0)"/>
       <use xlink:href="#TimesNewRomanPSMT-30" transform="translate(125 0)"/>
       <use xlink:href="#TimesNewRomanPSMT-31" transform="translate(175 0)"/>
      </g>
     </g>
    </g>
    <g id="ytick_3">
     <g id="line2d_21">
      <path d="M 51.621875 233.3993 
L 632.765625 233.3993 
" clip-path="url(#p4d85ffed84)" style="fill: none; stroke-dasharray: 2.96,1.28; stroke-dashoffset: 0; stroke: #b0b0b0; stroke-opacity: 0.6; stroke-width: 0.8"/>
     </g>
     <g id="line2d_22">
      <g>
       <use xlink:href="#ma43c5faf47" x="51.621875" y="233.3993" style="stroke: #000000; stroke-width: 0.8"/>
      </g>
     </g>
     <g id="text_12">
      <!-- 0.002 -->
      <g transform="translate(22.121875 236.871175) scale(0.1 -0.1)">
       <use xlink:href="#TimesNewRomanPSMT-30"/>
       <use xlink:href="#TimesNewRomanPSMT-2e" transform="translate(50 0)"/>
       <use xlink:href="#TimesNewRomanPSMT-30" transform="translate(75 0)"/>
       <use xlink:href="#TimesNewRomanPSMT-30" transform="translate(125 0)"/>
       <use xlink:href="#TimesNewRomanPSMT-32" transform="translate(175 0)"/>
      </g>
     </g>
    </g>
    <g id="ytick_4">
     <g id="line2d_23">
      <path d="M 51.621875 166.21216 
L 632.765625 166.21216 
" clip-path="url(#p4d85ffed84)" style="fill: none; stroke-dasharray: 2.96,1.28; stroke-dashoffset: 0; stroke: #b0b0b0; stroke-opacity: 0.6; stroke-width: 0.8"/>
     </g>
     <g id="line2d_24">
      <g>
       <use xlink:href="#ma43c5faf47" x="51.621875" y="166.21216" style="stroke: #000000; stroke-width: 0.8"/>
      </g>
     </g>
     <g id="text_13">
      <!-- 0.003 -->
      <g transform="translate(22.121875 169.684035) scale(0.1 -0.1)">
       <defs>
        <path id="TimesNewRomanPSMT-33" d="M 325 3431 
Q 506 3859 782 4092 
Q 1059 4325 1472 4325 
Q 1981 4325 2253 3994 
Q 2459 3747 2459 3466 
Q 2459 3003 1878 2509 
Q 2269 2356 2469 2072 
Q 2669 1788 2669 1403 
Q 2669 853 2319 450 
Q 1863 -75 997 -75 
Q 569 -75 414 31 
Q 259 138 259 259 
Q 259 350 332 419 
Q 406 488 509 488 
Q 588 488 669 463 
Q 722 447 909 348 
Q 1097 250 1169 231 
Q 1284 197 1416 197 
Q 1734 197 1970 444 
Q 2206 691 2206 1028 
Q 2206 1275 2097 1509 
Q 2016 1684 1919 1775 
Q 1784 1900 1550 2001 
Q 1316 2103 1072 2103 
L 972 2103 
L 972 2197 
Q 1219 2228 1467 2375 
Q 1716 2522 1828 2728 
Q 1941 2934 1941 3181 
Q 1941 3503 1739 3701 
Q 1538 3900 1238 3900 
Q 753 3900 428 3381 
L 325 3431 
z
" transform="scale(0.015625)"/>
       </defs>
       <use xlink:href="#TimesNewRomanPSMT-30"/>
       <use xlink:href="#TimesNewRomanPSMT-2e" transform="translate(50 0)"/>
       <use xlink:href="#TimesNewRomanPSMT-30" transform="translate(75 0)"/>
       <use xlink:href="#TimesNewRomanPSMT-30" transform="translate(125 0)"/>
       <use xlink:href="#TimesNewRomanPSMT-33" transform="translate(175 0)"/>
      </g>
     </g>
    </g>
    <g id="ytick_5">
     <g id="line2d_25">
      <path d="M 51.621875 99.02502 
L 632.765625 99.02502 
" clip-path="url(#p4d85ffed84)" style="fill: none; stroke-dasharray: 2.96,1.28; stroke-dashoffset: 0; stroke: #b0b0b0; stroke-opacity: 0.6; stroke-width: 0.8"/>
     </g>
     <g id="line2d_26">
      <g>
       <use xlink:href="#ma43c5faf47" x="51.621875" y="99.02502" style="stroke: #000000; stroke-width: 0.8"/>
      </g>
     </g>
     <g id="text_14">
      <!-- 0.004 -->
      <g transform="translate(22.121875 102.496895) scale(0.1 -0.1)">
       <defs>
        <path id="TimesNewRomanPSMT-34" d="M 2978 1563 
L 2978 1119 
L 2409 1119 
L 2409 0 
L 1894 0 
L 1894 1119 
L 100 1119 
L 100 1519 
L 2066 4325 
L 2409 4325 
L 2409 1563 
L 2978 1563 
z
M 1894 1563 
L 1894 3666 
L 406 1563 
L 1894 1563 
z
" transform="scale(0.015625)"/>
       </defs>
       <use xlink:href="#TimesNewRomanPSMT-30"/>
       <use xlink:href="#TimesNewRomanPSMT-2e" transform="translate(50 0)"/>
       <use xlink:href="#TimesNewRomanPSMT-30" transform="translate(75 0)"/>
       <use xlink:href="#TimesNewRomanPSMT-30" transform="translate(125 0)"/>
       <use xlink:href="#TimesNewRomanPSMT-34" transform="translate(175 0)"/>
      </g>
     </g>
    </g>
    <g id="ytick_6">
     <g id="line2d_27">
      <path d="M 51.621875 31.83788 
L 632.765625 31.83788 
" clip-path="url(#p4d85ffed84)" style="fill: none; stroke-dasharray: 2.96,1.28; stroke-dashoffset: 0; stroke: #b0b0b0; stroke-opacity: 0.6; stroke-width: 0.8"/>
     </g>
     <g id="line2d_28">
      <g>
       <use xlink:href="#ma43c5faf47" x="51.621875" y="31.83788" style="stroke: #000000; stroke-width: 0.8"/>
      </g>
     </g>
     <g id="text_15">
      <!-- 0.005 -->
      <g transform="translate(22.121875 35.309755) scale(0.1 -0.1)">
       <use xlink:href="#TimesNewRomanPSMT-30"/>
       <use xlink:href="#TimesNewRomanPSMT-2e" transform="translate(50 0)"/>
       <use xlink:href="#TimesNewRomanPSMT-30" transform="translate(75 0)"/>
       <use xlink:href="#TimesNewRomanPSMT-30" transform="translate(125 0)"/>
       <use xlink:href="#TimesNewRomanPSMT-35" transform="translate(175 0)"/>
      </g>
     </g>
    </g>
    <g id="text_16">
     <!-- Probability Density f(x) -->
     <g transform="translate(15.5325 253.39625) rotate(-90) scale(0.12 -0.12)">
      <defs>
       <path id="TimesNewRomanPSMT-50" d="M 1313 1984 
L 1313 750 
Q 1313 350 1400 253 
Q 1519 116 1759 116 
L 1922 116 
L 1922 0 
L 106 0 
L 106 116 
L 266 116 
Q 534 116 650 291 
Q 713 388 713 750 
L 713 3488 
Q 713 3888 628 3984 
Q 506 4122 266 4122 
L 106 4122 
L 106 4238 
L 1659 4238 
Q 2228 4238 2556 4120 
Q 2884 4003 3109 3725 
Q 3334 3447 3334 3066 
Q 3334 2547 2992 2222 
Q 2650 1897 2025 1897 
Q 1872 1897 1694 1919 
Q 1516 1941 1313 1984 
z
M 1313 2163 
Q 1478 2131 1606 2115 
Q 1734 2100 1825 2100 
Q 2150 2100 2386 2351 
Q 2622 2603 2622 3003 
Q 2622 3278 2509 3514 
Q 2397 3750 2190 3867 
Q 1984 3984 1722 3984 
Q 1563 3984 1313 3925 
L 1313 2163 
z
" transform="scale(0.015625)"/>
       <path id="TimesNewRomanPSMT-6f" d="M 1600 2947 
Q 2250 2947 2644 2453 
Q 2978 2031 2978 1484 
Q 2978 1100 2793 706 
Q 2609 313 2286 112 
Q 1963 -88 1566 -88 
Q 919 -88 538 428 
Q 216 863 216 1403 
Q 216 1797 411 2186 
Q 606 2575 925 2761 
Q 1244 2947 1600 2947 
z
M 1503 2744 
Q 1338 2744 1170 2645 
Q 1003 2547 900 2300 
Q 797 2053 797 1666 
Q 797 1041 1045 587 
Q 1294 134 1700 134 
Q 2003 134 2200 384 
Q 2397 634 2397 1244 
Q 2397 2006 2069 2444 
Q 1847 2744 1503 2744 
z
" transform="scale(0.015625)"/>
       <path id="TimesNewRomanPSMT-62" d="M 984 2369 
Q 1400 2947 1881 2947 
Q 2322 2947 2650 2570 
Q 2978 2194 2978 1541 
Q 2978 778 2472 313 
Q 2038 -88 1503 -88 
Q 1253 -88 995 3 
Q 738 94 469 275 
L 469 3241 
Q 469 3728 445 3840 
Q 422 3953 372 3993 
Q 322 4034 247 4034 
Q 159 4034 28 3984 
L -16 4094 
L 844 4444 
L 984 4444 
L 984 2369 
z
M 984 2169 
L 984 456 
Q 1144 300 1314 220 
Q 1484 141 1663 141 
Q 1947 141 2192 453 
Q 2438 766 2438 1363 
Q 2438 1913 2192 2208 
Q 1947 2503 1634 2503 
Q 1469 2503 1303 2419 
Q 1178 2356 984 2169 
z
" transform="scale(0.015625)"/>
       <path id="TimesNewRomanPSMT-74" d="M 1031 3803 
L 1031 2863 
L 1700 2863 
L 1700 2644 
L 1031 2644 
L 1031 788 
Q 1031 509 1111 412 
Q 1191 316 1316 316 
Q 1419 316 1516 380 
Q 1613 444 1666 569 
L 1788 569 
Q 1678 263 1478 108 
Q 1278 -47 1066 -47 
Q 922 -47 784 33 
Q 647 113 581 261 
Q 516 409 516 719 
L 516 2644 
L 63 2644 
L 63 2747 
Q 234 2816 414 2980 
Q 594 3144 734 3369 
Q 806 3488 934 3803 
L 1031 3803 
z
" transform="scale(0.015625)"/>
       <path id="TimesNewRomanPSMT-6e" d="M 1034 2341 
Q 1538 2947 1994 2947 
Q 2228 2947 2397 2830 
Q 2566 2713 2666 2444 
Q 2734 2256 2734 1869 
L 2734 647 
Q 2734 375 2778 278 
Q 2813 200 2889 156 
Q 2966 113 3172 113 
L 3172 0 
L 1756 0 
L 1756 113 
L 1816 113 
Q 2016 113 2095 173 
Q 2175 234 2206 353 
Q 2219 400 2219 647 
L 2219 1819 
Q 2219 2209 2117 2386 
Q 2016 2563 1775 2563 
Q 1403 2563 1034 2156 
L 1034 647 
Q 1034 356 1069 288 
Q 1113 197 1189 155 
Q 1266 113 1500 113 
L 1500 0 
L 84 0 
L 84 113 
L 147 113 
Q 366 113 442 223 
Q 519 334 519 647 
L 519 1709 
Q 519 2225 495 2337 
Q 472 2450 423 2490 
Q 375 2531 294 2531 
Q 206 2531 84 2484 
L 38 2597 
L 900 2947 
L 1034 2947 
L 1034 2341 
z
" transform="scale(0.015625)"/>
       <path id="TimesNewRomanPSMT-66" d="M 1319 2638 
L 1319 756 
Q 1319 356 1406 250 
Q 1522 113 1716 113 
L 1975 113 
L 1975 0 
L 266 0 
L 266 113 
L 394 113 
Q 519 113 622 175 
Q 725 238 764 344 
Q 803 450 803 756 
L 803 2638 
L 247 2638 
L 247 2863 
L 803 2863 
L 803 3050 
Q 803 3478 940 3775 
Q 1078 4072 1361 4255 
Q 1644 4438 1997 4438 
Q 2325 4438 2600 4225 
Q 2781 4084 2781 3909 
Q 2781 3816 2700 3733 
Q 2619 3650 2525 3650 
Q 2453 3650 2373 3701 
Q 2294 3753 2178 3923 
Q 2063 4094 1966 4153 
Q 1869 4213 1750 4213 
Q 1606 4213 1506 4136 
Q 1406 4059 1362 3898 
Q 1319 3738 1319 3069 
L 1319 2863 
L 2056 2863 
L 2056 2638 
L 1319 2638 
z
" transform="scale(0.015625)"/>
       <path id="TimesNewRomanPSMT-78" d="M 84 2863 
L 1431 2863 
L 1431 2747 
Q 1303 2747 1251 2703 
Q 1200 2659 1200 2588 
Q 1200 2513 1309 2356 
Q 1344 2306 1413 2200 
L 1616 1875 
L 1850 2200 
Q 2075 2509 2075 2591 
Q 2075 2656 2022 2701 
Q 1969 2747 1850 2747 
L 1850 2863 
L 2819 2863 
L 2819 2747 
Q 2666 2738 2553 2663 
Q 2400 2556 2134 2200 
L 1744 1678 
L 2456 653 
Q 2719 275 2831 198 
Q 2944 122 3122 113 
L 3122 0 
L 1772 0 
L 1772 113 
Q 1913 113 1991 175 
Q 2050 219 2050 291 
Q 2050 363 1850 653 
L 1431 1266 
L 972 653 
Q 759 369 759 316 
Q 759 241 829 180 
Q 900 119 1041 113 
L 1041 0 
L 106 0 
L 106 113 
Q 219 128 303 191 
Q 422 281 703 653 
L 1303 1450 
L 759 2238 
Q 528 2575 401 2661 
Q 275 2747 84 2747 
L 84 2863 
z
" transform="scale(0.015625)"/>
      </defs>
      <use xlink:href="#TimesNewRomanPSMT-50"/>
      <use xlink:href="#TimesNewRomanPSMT-72" transform="translate(55.615234 0)"/>
      <use xlink:href="#TimesNewRomanPSMT-6f" transform="translate(88.916016 0)"/>
      <use xlink:href="#TimesNewRomanPSMT-62" transform="translate(138.916016 0)"/>
      <use xlink:href="#TimesNewRomanPSMT-61" transform="translate(188.916016 0)"/>
      <use xlink:href="#TimesNewRomanPSMT-62" transform="translate(233.300781 0)"/>
      <use xlink:href="#TimesNewRomanPSMT-69" transform="translate(283.300781 0)"/>
      <use xlink:href="#TimesNewRomanPSMT-6c" transform="translate(311.083984 0)"/>
      <use xlink:href="#TimesNewRomanPSMT-69" transform="translate(338.867188 0)"/>
      <use xlink:href="#TimesNewRomanPSMT-74" transform="translate(366.650391 0)"/>
      <use xlink:href="#TimesNewRomanPSMT-79" transform="translate(394.433594 0)"/>
      <use xlink:href="#TimesNewRomanPSMT-20" transform="translate(444.433594 0)"/>
      <use xlink:href="#TimesNewRomanPSMT-44" transform="translate(469.433594 0)"/>
      <use xlink:href="#TimesNewRomanPSMT-65" transform="translate(541.650391 0)"/>
      <use xlink:href="#TimesNewRomanPSMT-6e" transform="translate(586.035156 0)"/>
      <use xlink:href="#TimesNewRomanPSMT-73" transform="translate(636.035156 0)"/>
      <use xlink:href="#TimesNewRomanPSMT-69" transform="translate(674.951172 0)"/>
      <use xlink:href="#TimesNewRomanPSMT-74" transform="translate(702.734375 0)"/>
      <use xlink:href="#TimesNewRomanPSMT-79" transform="translate(730.517578 0)"/>
      <use xlink:href="#TimesNewRomanPSMT-20" transform="translate(780.517578 0)"/>
      <use xlink:href="#TimesNewRomanPSMT-66" transform="translate(805.517578 0)"/>
      <use xlink:href="#TimesNewRomanPSMT-28" transform="translate(838.818359 0)"/>
      <use xlink:href="#TimesNewRomanPSMT-78" transform="translate(872.119141 0)"/>
      <use xlink:href="#TimesNewRomanPSMT-29" transform="translate(922.119141 0)"/>
     </g>
    </g>
   </g>
   <g id="line2d_29">
    <path d="M 78.0375 230.512188 
L 79.096242 70.421258 
L 80.154985 47.178509 
L 81.213727 35.517993 
L 82.27247 29.085885 
L 83.331212 25.71367 
L 84.389955 24.37017 
L 85.448697 24.473372 
L 86.50744 25.657683 
L 87.566182 27.675931 
L 88.624925 30.351804 
L 89.683667 33.554312 
L 91.801152 41.158815 
L 93.918637 49.909673 
L 97.094865 64.378902 
L 101.329835 84.958446 
L 110.858517 131.739607 
L 115.093487 151.526931 
L 119.328457 170.318992 
L 123.563427 187.99432 
L 127.798397 204.495776 
L 130.974624 216.092117 
L 134.150852 227.025578 
L 137.327079 237.308735 
L 140.503307 246.959253 
L 143.679534 255.998479 
L 146.855762 264.450334 
L 150.031989 272.34045 
L 153.208216 279.695492 
L 156.384444 286.542618 
L 159.560671 292.909067 
L 162.736899 298.821829 
L 165.913126 304.307394 
L 169.089354 309.391565 
L 172.265581 314.099311 
L 175.441809 318.454667 
L 178.618036 322.480661 
L 181.794264 326.19927 
L 184.970491 329.631395 
L 188.146718 332.796853 
L 191.322946 335.71438 
L 195.557916 339.249146 
L 199.792886 342.413483 
L 204.027856 345.243269 
L 208.262826 347.771383 
L 212.497796 350.027866 
L 216.732766 352.040104 
L 220.967735 353.833002 
L 226.261448 355.799903 
L 231.55516 357.49876 
L 236.848873 358.964395 
L 243.201328 360.458144 
L 249.553783 361.705778 
L 256.96498 362.902047 
L 264.376177 363.868252 
L 272.846117 364.745403 
L 282.3748 365.503826 
L 292.962224 366.130039 
L 305.667134 366.661557 
L 321.548272 367.094433 
L 341.664379 367.412479 
L 370.250426 367.628256 
L 418.95258 367.743678 
L 564.000301 367.773356 
L 606.35 367.773529 
L 606.35 367.773529 
" clip-path="url(#p4d85ffed84)" style="fill: none; stroke-dasharray: 2,3.3; stroke-dashoffset: 0; stroke: #0000ff; stroke-width: 2"/>
   </g>
   <g id="line2d_30">
    <path d="M 78.0375 308.576924 
L 79.096242 134.976309 
L 80.154985 97.886088 
L 81.213727 75.72766 
L 82.27247 60.728319 
L 83.331212 50.123194 
L 84.389955 42.558801 
L 85.448697 37.252547 
L 86.50744 33.701972 
L 87.566182 31.560237 
L 88.624925 30.574849 
L 89.683667 30.554385 
L 90.74241 31.349028 
L 91.801152 32.838491 
L 92.859895 34.924172 
L 93.918637 37.523852 
L 94.97738 40.56799 
L 97.094865 47.759622 
L 99.21235 56.111193 
L 101.329835 65.32432 
L 104.506062 80.25865 
L 108.741032 101.356668 
L 119.328457 154.66269 
L 123.563427 174.844094 
L 127.798397 193.937382 
L 132.033367 211.799248 
L 135.209594 224.341304 
L 138.385822 236.136872 
L 141.562049 247.187014 
L 144.738277 257.502532 
L 147.914504 267.101693 
L 151.090731 276.008372 
L 154.266959 284.250526 
L 157.443186 291.858965 
L 160.619414 298.866339 
L 163.795641 305.306325 
L 166.971869 311.212974 
L 170.148096 316.620187 
L 173.324324 321.561309 
L 176.500551 326.068812 
L 179.676779 330.17405 
L 182.853006 333.907091 
L 186.029233 337.296592 
L 189.205461 340.369716 
L 192.381688 343.152095 
L 195.557916 345.667811 
L 198.734143 347.939406 
L 201.910371 349.987909 
L 206.145341 352.405806 
L 210.380311 354.504144 
L 214.615281 356.321131 
L 218.850251 357.89102 
L 223.08522 359.244395 
L 228.378933 360.672813 
L 233.672645 361.851717 
L 238.966358 362.820947 
L 245.318813 363.754766 
L 252.73001 364.589315 
L 261.19995 365.282895 
L 270.728632 365.817322 
L 282.3748 366.223618 
L 297.197194 366.490844 
L 318.372044 366.617183 
L 424.246293 366.929969 
L 526.944314 367.668169 
L 588.351378 367.765276 
L 606.35 367.770449 
L 606.35 367.770449 
" clip-path="url(#p4d85ffed84)" style="fill: none; stroke-dasharray: 9.25,4; stroke-dashoffset: 0; stroke: #ff8c00; stroke-width: 2.5"/>
   </g>
   <g id="line2d_31">
    <path d="M 78.0375 301.141892 
L 79.096242 128.81798 
L 80.154985 93.783997 
L 81.213727 73.198314 
L 82.27247 59.475673 
L 83.331212 49.935679 
L 84.389955 43.272405 
L 85.448697 38.733765 
L 86.50744 35.838653 
L 87.566182 34.256124 
L 88.624925 33.746075 
L 89.683667 34.127088 
L 90.74241 35.257646 
L 91.801152 37.024501 
L 92.859895 39.335122 
L 93.918637 42.112599 
L 96.036122 48.818255 
L 98.153607 56.726109 
L 100.271092 65.523218 
L 103.44732 79.870214 
L 107.68229 100.240854 
L 119.328457 157.028072 
L 123.563427 176.498351 
L 127.798397 194.919786 
L 132.033367 212.168132 
L 135.209594 224.295326 
L 138.385822 235.717788 
L 141.562049 246.437602 
L 144.738277 256.465432 
L 147.914504 265.818515 
L 151.090731 274.519017 
L 154.266959 282.592702 
L 157.443186 290.067843 
L 160.619414 296.974342 
L 163.795641 303.343014 
L 166.971869 309.205011 
L 170.148096 314.591368 
L 173.324324 319.532636 
L 176.500551 324.058606 
L 179.676779 328.198088 
L 182.853006 331.978756 
L 186.029233 335.427039 
L 189.205461 338.568045 
L 192.381688 341.425524 
L 195.557916 344.021862 
L 198.734143 346.378104 
L 201.910371 348.513996 
L 206.145341 351.05093 
L 210.380311 353.269711 
L 214.615281 355.207846 
L 218.850251 356.899659 
L 223.08522 358.375887 
L 228.378933 359.957597 
L 233.672645 361.283944 
L 238.966358 362.388021 
L 245.318813 363.464942 
L 251.671268 364.32121 
L 259.082465 365.097125 
L 267.552405 365.751913 
L 277.081087 366.262678 
L 288.727255 366.648657 
L 302.490907 366.867528 
L 319.430787 366.902888 
L 342.723121 366.705954 
L 387.190306 366.277386 
L 405.188928 366.369066 
L 424.246293 366.701448 
L 469.772219 367.614742 
L 493.064554 367.75198 
L 553.412876 367.77357 
L 606.35 367.77358 
L 606.35 367.77358 
" clip-path="url(#p4d85ffed84)" style="fill: none; stroke: #b22222; stroke-width: 2; stroke-linecap: square"/>
   </g>
   <g id="patch_3">
    <path d="M 51.621875 384.94375 
L 51.621875 7.2 
" style="fill: none; stroke: #000000; stroke-width: 0.8; stroke-linejoin: miter; stroke-linecap: square"/>
   </g>
   <g id="patch_4">
    <path d="M 632.765625 384.94375 
L 632.765625 7.2 
" style="fill: none; stroke: #000000; stroke-width: 0.8; stroke-linejoin: miter; stroke-linecap: square"/>
   </g>
   <g id="patch_5">
    <path d="M 51.621875 384.94375 
L 632.765625 384.94375 
" style="fill: none; stroke: #000000; stroke-width: 0.8; stroke-linejoin: miter; stroke-linecap: square"/>
   </g>
   <g id="patch_6">
    <path d="M 51.621875 7.2 
L 632.765625 7.2 
" style="fill: none; stroke: #000000; stroke-width: 0.8; stroke-linejoin: miter; stroke-linecap: square"/>
   </g>
   <g id="legend_1">
    <g id="patch_7">
     <path d="M 486.374531 62.658906 
L 625.065625 62.658906 
Q 627.265625 62.658906 627.265625 60.458906 
L 627.265625 14.9 
Q 627.265625 12.7 625.065625 12.7 
L 486.374531 12.7 
Q 484.174531 12.7 484.174531 14.9 
L 484.174531 60.458906 
Q 484.174531 62.658906 486.374531 62.658906 
z
" style="fill: #ffffff; opacity: 0.8; stroke: #cccccc; stroke-linejoin: miter"/>
    </g>
    <g id="line2d_32">
     <path d="M 488.574531 20.95 
L 499.574531 20.95 
L 510.574531 20.95 
" style="fill: none; stroke-dasharray: 2,3.3; stroke-dashoffset: 0; stroke: #0000ff; stroke-width: 2"/>
    </g>
    <g id="text_17">
     <!-- Standard Weibull (n=1) -->
     <g transform="translate(519.374531 24.8) scale(0.11 -0.11)">
      <defs>
       <path id="TimesNewRomanPSMT-53" d="M 2934 4334 
L 2934 2869 
L 2819 2869 
Q 2763 3291 2617 3541 
Q 2472 3791 2203 3937 
Q 1934 4084 1647 4084 
Q 1322 4084 1109 3886 
Q 897 3688 897 3434 
Q 897 3241 1031 3081 
Q 1225 2847 1953 2456 
Q 2547 2138 2764 1967 
Q 2981 1797 3098 1565 
Q 3216 1334 3216 1081 
Q 3216 600 2842 251 
Q 2469 -97 1881 -97 
Q 1697 -97 1534 -69 
Q 1438 -53 1133 45 
Q 828 144 747 144 
Q 669 144 623 97 
Q 578 50 556 -97 
L 441 -97 
L 441 1356 
L 556 1356 
Q 638 900 775 673 
Q 913 447 1195 297 
Q 1478 147 1816 147 
Q 2206 147 2432 353 
Q 2659 559 2659 841 
Q 2659 997 2573 1156 
Q 2488 1316 2306 1453 
Q 2184 1547 1640 1851 
Q 1097 2156 867 2337 
Q 638 2519 519 2737 
Q 400 2956 400 3219 
Q 400 3675 750 4004 
Q 1100 4334 1641 4334 
Q 1978 4334 2356 4169 
Q 2531 4091 2603 4091 
Q 2684 4091 2736 4139 
Q 2788 4188 2819 4334 
L 2934 4334 
z
" transform="scale(0.015625)"/>
       <path id="TimesNewRomanPSMT-64" d="M 2222 322 
Q 2013 103 1813 7 
Q 1613 -88 1381 -88 
Q 913 -88 563 304 
Q 213 697 213 1313 
Q 213 1928 600 2439 
Q 988 2950 1597 2950 
Q 1975 2950 2222 2709 
L 2222 3238 
Q 2222 3728 2198 3840 
Q 2175 3953 2125 3993 
Q 2075 4034 2000 4034 
Q 1919 4034 1784 3984 
L 1744 4094 
L 2597 4444 
L 2738 4444 
L 2738 1134 
Q 2738 631 2761 520 
Q 2784 409 2836 365 
Q 2888 322 2956 322 
Q 3041 322 3181 375 
L 3216 266 
L 2366 -88 
L 2222 -88 
L 2222 322 
z
M 2222 541 
L 2222 2016 
Q 2203 2228 2109 2403 
Q 2016 2578 1861 2667 
Q 1706 2756 1559 2756 
Q 1284 2756 1069 2509 
Q 784 2184 784 1559 
Q 784 928 1059 592 
Q 1334 256 1672 256 
Q 1956 256 2222 541 
z
" transform="scale(0.015625)"/>
       <path id="TimesNewRomanPSMT-57" d="M 5991 4238 
L 5991 4122 
Q 5825 4122 5722 4062 
Q 5619 4003 5525 3841 
Q 5463 3731 5328 3319 
L 4147 -97 
L 4022 -97 
L 3056 2613 
L 2097 -97 
L 1984 -97 
L 725 3422 
Q 584 3816 547 3888 
Q 484 4006 376 4064 
Q 269 4122 84 4122 
L 84 4238 
L 1653 4238 
L 1653 4122 
L 1578 4122 
Q 1413 4122 1325 4047 
Q 1238 3972 1238 3866 
Q 1238 3756 1375 3363 
L 2209 984 
L 2913 3006 
L 2788 3363 
L 2688 3647 
Q 2622 3803 2541 3922 
Q 2500 3981 2441 4022 
Q 2363 4078 2284 4103 
Q 2225 4122 2097 4122 
L 2097 4238 
L 3747 4238 
L 3747 4122 
L 3634 4122 
Q 3459 4122 3378 4047 
Q 3297 3972 3297 3844 
Q 3297 3684 3438 3288 
L 4250 984 
L 5056 3319 
Q 5194 3706 5194 3856 
Q 5194 3928 5148 3990 
Q 5103 4053 5034 4078 
Q 4916 4122 4725 4122 
L 4725 4238 
L 5991 4238 
z
" transform="scale(0.015625)"/>
       <path id="TimesNewRomanPSMT-3d" d="M 116 2759 
L 3488 2759 
L 3488 2503 
L 116 2503 
L 116 2759 
z
M 116 1741 
L 3488 1741 
L 3488 1484 
L 116 1484 
L 116 1741 
z
" transform="scale(0.015625)"/>
      </defs>
      <use xlink:href="#TimesNewRomanPSMT-53"/>
      <use xlink:href="#TimesNewRomanPSMT-74" transform="translate(55.615234 0)"/>
      <use xlink:href="#TimesNewRomanPSMT-61" transform="translate(83.398438 0)"/>
      <use xlink:href="#TimesNewRomanPSMT-6e" transform="translate(127.783203 0)"/>
      <use xlink:href="#TimesNewRomanPSMT-64" transform="translate(177.783203 0)"/>
      <use xlink:href="#TimesNewRomanPSMT-61" transform="translate(227.783203 0)"/>
      <use xlink:href="#TimesNewRomanPSMT-72" transform="translate(272.167969 0)"/>
      <use xlink:href="#TimesNewRomanPSMT-64" transform="translate(305.46875 0)"/>
      <use xlink:href="#TimesNewRomanPSMT-20" transform="translate(355.46875 0)"/>
      <use xlink:href="#TimesNewRomanPSMT-57" transform="translate(378.71875 0)"/>
      <use xlink:href="#TimesNewRomanPSMT-65" transform="translate(465.103516 0)"/>
      <use xlink:href="#TimesNewRomanPSMT-69" transform="translate(509.488281 0)"/>
      <use xlink:href="#TimesNewRomanPSMT-62" transform="translate(537.271484 0)"/>
      <use xlink:href="#TimesNewRomanPSMT-75" transform="translate(587.271484 0)"/>
      <use xlink:href="#TimesNewRomanPSMT-6c" transform="translate(637.271484 0)"/>
      <use xlink:href="#TimesNewRomanPSMT-6c" transform="translate(665.054688 0)"/>
      <use xlink:href="#TimesNewRomanPSMT-20" transform="translate(692.837891 0)"/>
      <use xlink:href="#TimesNewRomanPSMT-28" transform="translate(717.837891 0)"/>
      <use xlink:href="#TimesNewRomanPSMT-6e" transform="translate(751.138672 0)"/>
      <use xlink:href="#TimesNewRomanPSMT-3d" transform="translate(801.138672 0)"/>
      <use xlink:href="#TimesNewRomanPSMT-31" transform="translate(857.535156 0)"/>
      <use xlink:href="#TimesNewRomanPSMT-29" transform="translate(907.535156 0)"/>
     </g>
    </g>
    <g id="line2d_33">
     <path d="M 488.574531 36.502969 
L 499.574531 36.502969 
L 510.574531 36.502969 
" style="fill: none; stroke-dasharray: 9.25,4; stroke-dashoffset: 0; stroke: #ff8c00; stroke-width: 2.5"/>
    </g>
    <g id="text_18">
     <!-- Mixed Weibull (n=2) -->
     <g transform="translate(519.374531 40.352969) scale(0.11 -0.11)">
      <defs>
       <path id="TimesNewRomanPSMT-4d" d="M 2619 0 
L 981 3566 
L 981 734 
Q 981 344 1066 247 
Q 1181 116 1431 116 
L 1581 116 
L 1581 0 
L 106 0 
L 106 116 
L 256 116 
Q 525 116 638 278 
Q 706 378 706 734 
L 706 3503 
Q 706 3784 644 3909 
Q 600 4000 483 4061 
Q 366 4122 106 4122 
L 106 4238 
L 1306 4238 
L 2844 922 
L 4356 4238 
L 5556 4238 
L 5556 4122 
L 5409 4122 
Q 5138 4122 5025 3959 
Q 4956 3859 4956 3503 
L 4956 734 
Q 4956 344 5044 247 
Q 5159 116 5409 116 
L 5556 116 
L 5556 0 
L 3756 0 
L 3756 116 
L 3906 116 
Q 4178 116 4288 278 
Q 4356 378 4356 734 
L 4356 3566 
L 2722 0 
L 2619 0 
z
" transform="scale(0.015625)"/>
      </defs>
      <use xlink:href="#TimesNewRomanPSMT-4d"/>
      <use xlink:href="#TimesNewRomanPSMT-69" transform="translate(88.916016 0)"/>
      <use xlink:href="#TimesNewRomanPSMT-78" transform="translate(116.699219 0)"/>
      <use xlink:href="#TimesNewRomanPSMT-65" transform="translate(166.699219 0)"/>
      <use xlink:href="#TimesNewRomanPSMT-64" transform="translate(211.083984 0)"/>
      <use xlink:href="#TimesNewRomanPSMT-20" transform="translate(261.083984 0)"/>
      <use xlink:href="#TimesNewRomanPSMT-57" transform="translate(284.333984 0)"/>
      <use xlink:href="#TimesNewRomanPSMT-65" transform="translate(370.71875 0)"/>
      <use xlink:href="#TimesNewRomanPSMT-69" transform="translate(415.103516 0)"/>
      <use xlink:href="#TimesNewRomanPSMT-62" transform="translate(442.886719 0)"/>
      <use xlink:href="#TimesNewRomanPSMT-75" transform="translate(492.886719 0)"/>
      <use xlink:href="#TimesNewRomanPSMT-6c" transform="translate(542.886719 0)"/>
      <use xlink:href="#TimesNewRomanPSMT-6c" transform="translate(570.669922 0)"/>
      <use xlink:href="#TimesNewRomanPSMT-20" transform="translate(598.453125 0)"/>
      <use xlink:href="#TimesNewRomanPSMT-28" transform="translate(623.453125 0)"/>
      <use xlink:href="#TimesNewRomanPSMT-6e" transform="translate(656.753906 0)"/>
      <use xlink:href="#TimesNewRomanPSMT-3d" transform="translate(706.753906 0)"/>
      <use xlink:href="#TimesNewRomanPSMT-32" transform="translate(763.150391 0)"/>
      <use xlink:href="#TimesNewRomanPSMT-29" transform="translate(813.150391 0)"/>
     </g>
    </g>
    <g id="line2d_34">
     <path d="M 488.574531 52.055937 
L 499.574531 52.055937 
L 510.574531 52.055937 
" style="fill: none; stroke: #b22222; stroke-width: 2; stroke-linecap: square"/>
    </g>
    <g id="text_19">
     <!-- Mixed Weibull (n=3) -->
     <g transform="translate(519.374531 55.905937) scale(0.11 -0.11)">
      <use xlink:href="#TimesNewRomanPSMT-4d"/>
      <use xlink:href="#TimesNewRomanPSMT-69" transform="translate(88.916016 0)"/>
      <use xlink:href="#TimesNewRomanPSMT-78" transform="translate(116.699219 0)"/>
      <use xlink:href="#TimesNewRomanPSMT-65" transform="translate(166.699219 0)"/>
      <use xlink:href="#TimesNewRomanPSMT-64" transform="translate(211.083984 0)"/>
      <use xlink:href="#TimesNewRomanPSMT-20" transform="translate(261.083984 0)"/>
      <use xlink:href="#TimesNewRomanPSMT-57" transform="translate(284.333984 0)"/>
      <use xlink:href="#TimesNewRomanPSMT-65" transform="translate(370.71875 0)"/>
      <use xlink:href="#TimesNewRomanPSMT-69" transform="translate(415.103516 0)"/>
      <use xlink:href="#TimesNewRomanPSMT-62" transform="translate(442.886719 0)"/>
      <use xlink:href="#TimesNewRomanPSMT-75" transform="translate(492.886719 0)"/>
      <use xlink:href="#TimesNewRomanPSMT-6c" transform="translate(542.886719 0)"/>
      <use xlink:href="#TimesNewRomanPSMT-6c" transform="translate(570.669922 0)"/>
      <use xlink:href="#TimesNewRomanPSMT-20" transform="translate(598.453125 0)"/>
      <use xlink:href="#TimesNewRomanPSMT-28" transform="translate(623.453125 0)"/>
      <use xlink:href="#TimesNewRomanPSMT-6e" transform="translate(656.753906 0)"/>
      <use xlink:href="#TimesNewRomanPSMT-3d" transform="translate(706.753906 0)"/>
      <use xlink:href="#TimesNewRomanPSMT-33" transform="translate(763.150391 0)"/>
      <use xlink:href="#TimesNewRomanPSMT-29" transform="translate(813.150391 0)"/>
     </g>
    </g>
   </g>
  </g>
 </g>
 <defs>
  <clipPath id="p4d85ffed84">
   <rect x="51.621875" y="7.2" width="581.14375" height="377.74375"/>
  </clipPath>
 </defs>
</svg>
