<?xml version="1.0" encoding="utf-8" standalone="no"?>
<!DOCTYPE svg PUBLIC "-//W3C//DTD SVG 1.1//EN"
  "http://www.w3.org/Graphics/SVG/1.1/DTD/svg11.dtd">
<svg xmlns:xlink="http://www.w3.org/1999/xlink" width="639.941875pt" height="423.148438pt" viewBox="0 0 639.941875 423.148438" xmlns="http://www.w3.org/2000/svg" version="1.1">
 <metadata>
  <rdf:RDF xmlns:dc="http://purl.org/dc/elements/1.1/" xmlns:cc="http://creativecommons.org/ns#" xmlns:rdf="http://www.w3.org/1999/02/22-rdf-syntax-ns#">
   <cc:Work>
    <dc:type rdf:resource="http://purl.org/dc/dcmitype/StillImage"/>
    <dc:date>2026-03-25T11:11:33.047609</dc:date>
    <dc:format>image/svg+xml</dc:format>
    <dc:creator>
     <cc:Agent>
      <dc:title>Matplotlib v3.10.8, https://matplotlib.org/</dc:title>
     </cc:Agent>
    </dc:creator>
   </cc:Work>
  </rdf:RDF>
 </metadata>
 <defs>
  <style type="text/css">*{stroke-linejoin: round; stroke-linecap: butt}</style>
 </defs>
 <g id="figure_1">
  <g id="patch_1">
   <path d="M 0 423.148438 
L 639.941875 423.148438 
L 639.941875 0 
L 0 0 
z
" style="fill: #ffffff"/>
  </g>
  <g id="axes_1">
   <g id="patch_2">
    <path d="M 61.621875 384.94375 
L 632.741875 384.94375 
L 632.741875 7.2 
L 61.621875 7.2 
z
" style="fill: #ffffff"/>
   </g>
   <g id="patch_3">
    <path d="M 87.582829 384.94375 
L 98.571168 384.94375 
L 98.571168 323.803704 
L 87.582829 323.803704 
z
" clip-path="url(#p4afb1640d9)" style="fill: #c0c0c0; fill-opacity: 0.4; stroke: #000000; stroke-linejoin: miter"/>
   </g>
   <g id="patch_4">
    <path d="M 98.571168 384.94375 
L 109.559507 384.94375 
L 109.559507 353.947664 
L 98.571168 353.947664 
z
" clip-path="url(#p4afb1640d9)" style="fill: #c0c0c0; fill-opacity: 0.4; stroke: #000000; stroke-linejoin: miter"/>
   </g>
   <g id="patch_5">
    <path d="M 109.559507 384.94375 
L 120.547845 384.94375 
L 120.547845 366.942587 
L 109.559507 366.942587 
z
" clip-path="url(#p4afb1640d9)" style="fill: #c0c0c0; fill-opacity: 0.4; stroke: #000000; stroke-linejoin: miter"/>
   </g>
   <g id="patch_6">
    <path d="M 120.547845 384.94375 
L 131.536184 384.94375 
L 131.536184 373.14713 
L 120.547845 373.14713 
z
" clip-path="url(#p4afb1640d9)" style="fill: #c0c0c0; fill-opacity: 0.4; stroke: #000000; stroke-linejoin: miter"/>
   </g>
   <g id="patch_7">
    <path d="M 131.536184 384.94375 
L 142.524522 384.94375 
L 142.524522 378.179999 
L 131.536184 378.179999 
z
" clip-path="url(#p4afb1640d9)" style="fill: #c0c0c0; fill-opacity: 0.4; stroke: #000000; stroke-linejoin: miter"/>
   </g>
   <g id="patch_8">
    <path d="M 142.524522 384.94375 
L 153.512861 384.94375 
L 153.512861 382.254227 
L 142.524522 382.254227 
z
" clip-path="url(#p4afb1640d9)" style="fill: #c0c0c0; fill-opacity: 0.4; stroke: #000000; stroke-linejoin: miter"/>
   </g>
   <g id="patch_9">
    <path d="M 153.512861 384.94375 
L 164.501199 384.94375 
L 164.501199 382.334114 
L 153.512861 382.334114 
z
" clip-path="url(#p4afb1640d9)" style="fill: #c0c0c0; fill-opacity: 0.4; stroke: #000000; stroke-linejoin: miter"/>
   </g>
   <g id="patch_10">
    <path d="M 164.501199 384.94375 
L 175.489538 384.94375 
L 175.489538 383.532416 
L 164.501199 383.532416 
z
" clip-path="url(#p4afb1640d9)" style="fill: #c0c0c0; fill-opacity: 0.4; stroke: #000000; stroke-linejoin: miter"/>
   </g>
   <g id="patch_11">
    <path d="M 175.489538 384.94375 
L 186.477877 384.94375 
L 186.477877 383.665561 
L 175.489538 383.665561 
z
" clip-path="url(#p4afb1640d9)" style="fill: #c0c0c0; fill-opacity: 0.4; stroke: #000000; stroke-linejoin: miter"/>
   </g>
   <g id="patch_12">
    <path d="M 186.477877 384.94375 
L 197.466215 384.94375 
L 197.466215 384.863863 
L 186.477877 384.863863 
z
" clip-path="url(#p4afb1640d9)" style="fill: #c0c0c0; fill-opacity: 0.4; stroke: #000000; stroke-linejoin: miter"/>
   </g>
   <g id="patch_13">
    <path d="M 197.466215 384.94375 
L 208.454554 384.94375 
L 208.454554 384.863863 
L 197.466215 384.863863 
z
" clip-path="url(#p4afb1640d9)" style="fill: #c0c0c0; fill-opacity: 0.4; stroke: #000000; stroke-linejoin: miter"/>
   </g>
   <g id="patch_14">
    <path d="M 208.454554 384.94375 
L 219.442892 384.94375 
L 219.442892 384.863863 
L 208.454554 384.863863 
z
" clip-path="url(#p4afb1640d9)" style="fill: #c0c0c0; fill-opacity: 0.4; stroke: #000000; stroke-linejoin: miter"/>
   </g>
   <g id="patch_15">
    <path d="M 219.442892 384.94375 
L 230.431231 384.94375 
L 230.431231 384.677461 
L 219.442892 384.677461 
z
" clip-path="url(#p4afb1640d9)" style="fill: #c0c0c0; fill-opacity: 0.4; stroke: #000000; stroke-linejoin: miter"/>
   </g>
   <g id="patch_16">
    <path d="M 230.431231 384.94375 
L 241.41957 384.94375 
L 241.41957 384.757347 
L 230.431231 384.757347 
z
" clip-path="url(#p4afb1640d9)" style="fill: #c0c0c0; fill-opacity: 0.4; stroke: #000000; stroke-linejoin: miter"/>
   </g>
   <g id="patch_17">
    <path d="M 241.41957 384.94375 
L 252.407908 384.94375 
L 252.407908 384.917121 
L 241.41957 384.917121 
z
" clip-path="url(#p4afb1640d9)" style="fill: #c0c0c0; fill-opacity: 0.4; stroke: #000000; stroke-linejoin: miter"/>
   </g>
   <g id="patch_18">
    <path d="M 252.407908 384.94375 
L 263.396247 384.94375 
L 263.396247 384.890492 
L 252.407908 384.890492 
z
" clip-path="url(#p4afb1640d9)" style="fill: #c0c0c0; fill-opacity: 0.4; stroke: #000000; stroke-linejoin: miter"/>
   </g>
   <g id="patch_19">
    <path d="M 263.396247 384.94375 
L 274.384585 384.94375 
L 274.384585 384.94375 
L 263.396247 384.94375 
z
" clip-path="url(#p4afb1640d9)" style="fill: #c0c0c0; fill-opacity: 0.4; stroke: #000000; stroke-linejoin: miter"/>
   </g>
   <g id="patch_20">
    <path d="M 274.384585 384.94375 
L 285.372924 384.94375 
L 285.372924 384.890492 
L 274.384585 384.890492 
z
" clip-path="url(#p4afb1640d9)" style="fill: #c0c0c0; fill-opacity: 0.4; stroke: #000000; stroke-linejoin: miter"/>
   </g>
   <g id="patch_21">
    <path d="M 285.372924 384.94375 
L 296.361262 384.94375 
L 296.361262 384.917121 
L 285.372924 384.917121 
z
" clip-path="url(#p4afb1640d9)" style="fill: #c0c0c0; fill-opacity: 0.4; stroke: #000000; stroke-linejoin: miter"/>
   </g>
   <g id="patch_22">
    <path d="M 296.361262 384.94375 
L 307.349601 384.94375 
L 307.349601 384.94375 
L 296.361262 384.94375 
z
" clip-path="url(#p4afb1640d9)" style="fill: #c0c0c0; fill-opacity: 0.4; stroke: #000000; stroke-linejoin: miter"/>
   </g>
   <g id="patch_23">
    <path d="M 307.349601 384.94375 
L 318.33794 384.94375 
L 318.33794 384.94375 
L 307.349601 384.94375 
z
" clip-path="url(#p4afb1640d9)" style="fill: #c0c0c0; fill-opacity: 0.4; stroke: #000000; stroke-linejoin: miter"/>
   </g>
   <g id="patch_24">
    <path d="M 318.33794 384.94375 
L 329.326278 384.94375 
L 329.326278 384.863863 
L 318.33794 384.863863 
z
" clip-path="url(#p4afb1640d9)" style="fill: #c0c0c0; fill-opacity: 0.4; stroke: #000000; stroke-linejoin: miter"/>
   </g>
   <g id="patch_25">
    <path d="M 329.326278 384.94375 
L 340.314617 384.94375 
L 340.314617 384.890492 
L 329.326278 384.890492 
z
" clip-path="url(#p4afb1640d9)" style="fill: #c0c0c0; fill-opacity: 0.4; stroke: #000000; stroke-linejoin: miter"/>
   </g>
   <g id="patch_26">
    <path d="M 340.314617 384.94375 
L 351.302955 384.94375 
L 351.302955 384.94375 
L 340.314617 384.94375 
z
" clip-path="url(#p4afb1640d9)" style="fill: #c0c0c0; fill-opacity: 0.4; stroke: #000000; stroke-linejoin: miter"/>
   </g>
   <g id="patch_27">
    <path d="M 351.302955 384.94375 
L 362.291294 384.94375 
L 362.291294 384.94375 
L 351.302955 384.94375 
z
" clip-path="url(#p4afb1640d9)" style="fill: #c0c0c0; fill-opacity: 0.4; stroke: #000000; stroke-linejoin: miter"/>
   </g>
   <g id="patch_28">
    <path d="M 362.291294 384.94375 
L 373.279632 384.94375 
L 373.279632 384.94375 
L 362.291294 384.94375 
z
" clip-path="url(#p4afb1640d9)" style="fill: #c0c0c0; fill-opacity: 0.4; stroke: #000000; stroke-linejoin: miter"/>
   </g>
   <g id="patch_29">
    <path d="M 373.279632 384.94375 
L 384.267971 384.94375 
L 384.267971 384.917121 
L 373.279632 384.917121 
z
" clip-path="url(#p4afb1640d9)" style="fill: #c0c0c0; fill-opacity: 0.4; stroke: #000000; stroke-linejoin: miter"/>
   </g>
   <g id="patch_30">
    <path d="M 384.267971 384.94375 
L 395.25631 384.94375 
L 395.25631 384.94375 
L 384.267971 384.94375 
z
" clip-path="url(#p4afb1640d9)" style="fill: #c0c0c0; fill-opacity: 0.4; stroke: #000000; stroke-linejoin: miter"/>
   </g>
   <g id="patch_31">
    <path d="M 395.25631 384.94375 
L 406.244648 384.94375 
L 406.244648 384.94375 
L 395.25631 384.94375 
z
" clip-path="url(#p4afb1640d9)" style="fill: #c0c0c0; fill-opacity: 0.4; stroke: #000000; stroke-linejoin: miter"/>
   </g>
   <g id="patch_32">
    <path d="M 406.244648 384.94375 
L 417.232987 384.94375 
L 417.232987 384.94375 
L 406.244648 384.94375 
z
" clip-path="url(#p4afb1640d9)" style="fill: #c0c0c0; fill-opacity: 0.4; stroke: #000000; stroke-linejoin: miter"/>
   </g>
   <g id="patch_33">
    <path d="M 417.232987 384.94375 
L 428.221325 384.94375 
L 428.221325 384.94375 
L 417.232987 384.94375 
z
" clip-path="url(#p4afb1640d9)" style="fill: #c0c0c0; fill-opacity: 0.4; stroke: #000000; stroke-linejoin: miter"/>
   </g>
   <g id="patch_34">
    <path d="M 428.221325 384.94375 
L 439.209664 384.94375 
L 439.209664 384.94375 
L 428.221325 384.94375 
z
" clip-path="url(#p4afb1640d9)" style="fill: #c0c0c0; fill-opacity: 0.4; stroke: #000000; stroke-linejoin: miter"/>
   </g>
   <g id="patch_35">
    <path d="M 439.209664 384.94375 
L 450.198003 384.94375 
L 450.198003 384.94375 
L 439.209664 384.94375 
z
" clip-path="url(#p4afb1640d9)" style="fill: #c0c0c0; fill-opacity: 0.4; stroke: #000000; stroke-linejoin: miter"/>
   </g>
   <g id="patch_36">
    <path d="M 450.198003 384.94375 
L 461.186341 384.94375 
L 461.186341 384.94375 
L 450.198003 384.94375 
z
" clip-path="url(#p4afb1640d9)" style="fill: #c0c0c0; fill-opacity: 0.4; stroke: #000000; stroke-linejoin: miter"/>
   </g>
   <g id="patch_37">
    <path d="M 461.186341 384.94375 
L 472.17468 384.94375 
L 472.17468 384.94375 
L 461.186341 384.94375 
z
" clip-path="url(#p4afb1640d9)" style="fill: #c0c0c0; fill-opacity: 0.4; stroke: #000000; stroke-linejoin: miter"/>
   </g>
   <g id="patch_38">
    <path d="M 472.17468 384.94375 
L 483.163018 384.94375 
L 483.163018 384.94375 
L 472.17468 384.94375 
z
" clip-path="url(#p4afb1640d9)" style="fill: #c0c0c0; fill-opacity: 0.4; stroke: #000000; stroke-linejoin: miter"/>
   </g>
   <g id="patch_39">
    <path d="M 483.163018 384.94375 
L 494.151357 384.94375 
L 494.151357 384.94375 
L 483.163018 384.94375 
z
" clip-path="url(#p4afb1640d9)" style="fill: #c0c0c0; fill-opacity: 0.4; stroke: #000000; stroke-linejoin: miter"/>
   </g>
   <g id="patch_40">
    <path d="M 494.151357 384.94375 
L 505.139695 384.94375 
L 505.139695 384.94375 
L 494.151357 384.94375 
z
" clip-path="url(#p4afb1640d9)" style="fill: #c0c0c0; fill-opacity: 0.4; stroke: #000000; stroke-linejoin: miter"/>
   </g>
   <g id="patch_41">
    <path d="M 505.139695 384.94375 
L 516.128034 384.94375 
L 516.128034 384.94375 
L 505.139695 384.94375 
z
" clip-path="url(#p4afb1640d9)" style="fill: #c0c0c0; fill-opacity: 0.4; stroke: #000000; stroke-linejoin: miter"/>
   </g>
   <g id="patch_42">
    <path d="M 516.128034 384.94375 
L 527.116373 384.94375 
L 527.116373 384.94375 
L 516.128034 384.94375 
z
" clip-path="url(#p4afb1640d9)" style="fill: #c0c0c0; fill-opacity: 0.4; stroke: #000000; stroke-linejoin: miter"/>
   </g>
   <g id="patch_43">
    <path d="M 527.116373 384.94375 
L 538.104711 384.94375 
L 538.104711 384.94375 
L 527.116373 384.94375 
z
" clip-path="url(#p4afb1640d9)" style="fill: #c0c0c0; fill-opacity: 0.4; stroke: #000000; stroke-linejoin: miter"/>
   </g>
   <g id="patch_44">
    <path d="M 538.104711 384.94375 
L 549.09305 384.94375 
L 549.09305 384.94375 
L 538.104711 384.94375 
z
" clip-path="url(#p4afb1640d9)" style="fill: #c0c0c0; fill-opacity: 0.4; stroke: #000000; stroke-linejoin: miter"/>
   </g>
   <g id="patch_45">
    <path d="M 549.09305 384.94375 
L 560.081388 384.94375 
L 560.081388 384.94375 
L 549.09305 384.94375 
z
" clip-path="url(#p4afb1640d9)" style="fill: #c0c0c0; fill-opacity: 0.4; stroke: #000000; stroke-linejoin: miter"/>
   </g>
   <g id="patch_46">
    <path d="M 560.081388 384.94375 
L 571.069727 384.94375 
L 571.069727 384.94375 
L 560.081388 384.94375 
z
" clip-path="url(#p4afb1640d9)" style="fill: #c0c0c0; fill-opacity: 0.4; stroke: #000000; stroke-linejoin: miter"/>
   </g>
   <g id="patch_47">
    <path d="M 571.069727 384.94375 
L 582.058065 384.94375 
L 582.058065 384.917121 
L 571.069727 384.917121 
z
" clip-path="url(#p4afb1640d9)" style="fill: #c0c0c0; fill-opacity: 0.4; stroke: #000000; stroke-linejoin: miter"/>
   </g>
   <g id="matplotlib.axis_1">
    <g id="xtick_1">
     <g id="line2d_1">
      <path d="M 87.581875 384.94375 
L 87.581875 7.2 
" clip-path="url(#p4afb1640d9)" style="fill: none; stroke-dasharray: 2.96,1.28; stroke-dashoffset: 0; stroke: #b0b0b0; stroke-opacity: 0.6; stroke-width: 0.8"/>
     </g>
     <g id="line2d_2">
      <defs>
       <path id="m920474c34d" d="M 0 0 
L 0 3.5 
" style="stroke: #000000; stroke-width: 0.8"/>
      </defs>
      <g>
       <use xlink:href="#m920474c34d" x="87.581875" y="384.94375" style="stroke: #000000; stroke-width: 0.8"/>
      </g>
     </g>
     <g id="text_1">
      <!-- 0 -->
      <g transform="translate(85.081875 398.8875) scale(0.1 -0.1)">
       <defs>
        <path id="TimesNewRomanPSMT-30" d="M 231 2094 
Q 231 2819 450 3342 
Q 669 3866 1031 4122 
Q 1313 4325 1613 4325 
Q 2100 4325 2488 3828 
Q 2972 3213 2972 2159 
Q 2972 1422 2759 906 
Q 2547 391 2217 158 
Q 1888 -75 1581 -75 
Q 975 -75 572 641 
Q 231 1244 231 2094 
z
M 844 2016 
Q 844 1141 1059 588 
Q 1238 122 1591 122 
Q 1759 122 1940 273 
Q 2122 425 2216 781 
Q 2359 1319 2359 2297 
Q 2359 3022 2209 3506 
Q 2097 3866 1919 4016 
Q 1791 4119 1609 4119 
Q 1397 4119 1231 3928 
Q 1006 3669 925 3112 
Q 844 2556 844 2016 
z
" transform="scale(0.015625)"/>
       </defs>
       <use xlink:href="#TimesNewRomanPSMT-30"/>
      </g>
     </g>
    </g>
    <g id="xtick_2">
     <g id="line2d_3">
      <path d="M 183.022174 384.94375 
L 183.022174 7.2 
" clip-path="url(#p4afb1640d9)" style="fill: none; stroke-dasharray: 2.96,1.28; stroke-dashoffset: 0; stroke: #b0b0b0; stroke-opacity: 0.6; stroke-width: 0.8"/>
     </g>
     <g id="line2d_4">
      <g>
       <use xlink:href="#m920474c34d" x="183.022174" y="384.94375" style="stroke: #000000; stroke-width: 0.8"/>
      </g>
     </g>
     <g id="text_2">
      <!-- 100000 -->
      <g transform="translate(168.022174 398.8875) scale(0.1 -0.1)">
       <defs>
        <path id="TimesNewRomanPSMT-31" d="M 750 3822 
L 1781 4325 
L 1884 4325 
L 1884 747 
Q 1884 391 1914 303 
Q 1944 216 2037 169 
Q 2131 122 2419 116 
L 2419 0 
L 825 0 
L 825 116 
Q 1125 122 1212 167 
Q 1300 213 1334 289 
Q 1369 366 1369 747 
L 1369 3034 
Q 1369 3497 1338 3628 
Q 1316 3728 1258 3775 
Q 1200 3822 1119 3822 
Q 1003 3822 797 3725 
L 750 3822 
z
" transform="scale(0.015625)"/>
       </defs>
       <use xlink:href="#TimesNewRomanPSMT-31"/>
       <use xlink:href="#TimesNewRomanPSMT-30" transform="translate(50 0)"/>
       <use xlink:href="#TimesNewRomanPSMT-30" transform="translate(100 0)"/>
       <use xlink:href="#TimesNewRomanPSMT-30" transform="translate(150 0)"/>
       <use xlink:href="#TimesNewRomanPSMT-30" transform="translate(200 0)"/>
       <use xlink:href="#TimesNewRomanPSMT-30" transform="translate(250 0)"/>
      </g>
     </g>
    </g>
    <g id="xtick_3">
     <g id="line2d_5">
      <path d="M 278.462474 384.94375 
L 278.462474 7.2 
" clip-path="url(#p4afb1640d9)" style="fill: none; stroke-dasharray: 2.96,1.28; stroke-dashoffset: 0; stroke: #b0b0b0; stroke-opacity: 0.6; stroke-width: 0.8"/>
     </g>
     <g id="line2d_6">
      <g>
       <use xlink:href="#m920474c34d" x="278.462474" y="384.94375" style="stroke: #000000; stroke-width: 0.8"/>
      </g>
     </g>
     <g id="text_3">
      <!-- 200000 -->
      <g transform="translate(263.462474 398.8875) scale(0.1 -0.1)">
       <defs>
        <path id="TimesNewRomanPSMT-32" d="M 2934 816 
L 2638 0 
L 138 0 
L 138 116 
Q 1241 1122 1691 1759 
Q 2141 2397 2141 2925 
Q 2141 3328 1894 3587 
Q 1647 3847 1303 3847 
Q 991 3847 742 3664 
Q 494 3481 375 3128 
L 259 3128 
Q 338 3706 661 4015 
Q 984 4325 1469 4325 
Q 1984 4325 2329 3994 
Q 2675 3663 2675 3213 
Q 2675 2891 2525 2569 
Q 2294 2063 1775 1497 
Q 997 647 803 472 
L 1909 472 
Q 2247 472 2383 497 
Q 2519 522 2628 598 
Q 2738 675 2819 816 
L 2934 816 
z
" transform="scale(0.015625)"/>
       </defs>
       <use xlink:href="#TimesNewRomanPSMT-32"/>
       <use xlink:href="#TimesNewRomanPSMT-30" transform="translate(50 0)"/>
       <use xlink:href="#TimesNewRomanPSMT-30" transform="translate(100 0)"/>
       <use xlink:href="#TimesNewRomanPSMT-30" transform="translate(150 0)"/>
       <use xlink:href="#TimesNewRomanPSMT-30" transform="translate(200 0)"/>
       <use xlink:href="#TimesNewRomanPSMT-30" transform="translate(250 0)"/>
      </g>
     </g>
    </g>
    <g id="xtick_4">
     <g id="line2d_7">
      <path d="M 373.902773 384.94375 
L 373.902773 7.2 
" clip-path="url(#p4afb1640d9)" style="fill: none; stroke-dasharray: 2.96,1.28; stroke-dashoffset: 0; stroke: #b0b0b0; stroke-opacity: 0.6; stroke-width: 0.8"/>
     </g>
     <g id="line2d_8">
      <g>
       <use xlink:href="#m920474c34d" x="373.902773" y="384.94375" style="stroke: #000000; stroke-width: 0.8"/>
      </g>
     </g>
     <g id="text_4">
      <!-- 300000 -->
      <g transform="translate(358.902773 398.8875) scale(0.1 -0.1)">
       <defs>
        <path id="TimesNewRomanPSMT-33" d="M 325 3431 
Q 506 3859 782 4092 
Q 1059 4325 1472 4325 
Q 1981 4325 2253 3994 
Q 2459 3747 2459 3466 
Q 2459 3003 1878 2509 
Q 2269 2356 2469 2072 
Q 2669 1788 2669 1403 
Q 2669 853 2319 450 
Q 1863 -75 997 -75 
Q 569 -75 414 31 
Q 259 138 259 259 
Q 259 350 332 419 
Q 406 488 509 488 
Q 588 488 669 463 
Q 722 447 909 348 
Q 1097 250 1169 231 
Q 1284 197 1416 197 
Q 1734 197 1970 444 
Q 2206 691 2206 1028 
Q 2206 1275 2097 1509 
Q 2016 1684 1919 1775 
Q 1784 1900 1550 2001 
Q 1316 2103 1072 2103 
L 972 2103 
L 972 2197 
Q 1219 2228 1467 2375 
Q 1716 2522 1828 2728 
Q 1941 2934 1941 3181 
Q 1941 3503 1739 3701 
Q 1538 3900 1238 3900 
Q 753 3900 428 3381 
L 325 3431 
z
" transform="scale(0.015625)"/>
       </defs>
       <use xlink:href="#TimesNewRomanPSMT-33"/>
       <use xlink:href="#TimesNewRomanPSMT-30" transform="translate(50 0)"/>
       <use xlink:href="#TimesNewRomanPSMT-30" transform="translate(100 0)"/>
       <use xlink:href="#TimesNewRomanPSMT-30" transform="translate(150 0)"/>
       <use xlink:href="#TimesNewRomanPSMT-30" transform="translate(200 0)"/>
       <use xlink:href="#TimesNewRomanPSMT-30" transform="translate(250 0)"/>
      </g>
     </g>
    </g>
    <g id="xtick_5">
     <g id="line2d_9">
      <path d="M 469.343072 384.94375 
L 469.343072 7.2 
" clip-path="url(#p4afb1640d9)" style="fill: none; stroke-dasharray: 2.96,1.28; stroke-dashoffset: 0; stroke: #b0b0b0; stroke-opacity: 0.6; stroke-width: 0.8"/>
     </g>
     <g id="line2d_10">
      <g>
       <use xlink:href="#m920474c34d" x="469.343072" y="384.94375" style="stroke: #000000; stroke-width: 0.8"/>
      </g>
     </g>
     <g id="text_5">
      <!-- 400000 -->
      <g transform="translate(454.343072 398.8875) scale(0.1 -0.1)">
       <defs>
        <path id="TimesNewRomanPSMT-34" d="M 2978 1563 
L 2978 1119 
L 2409 1119 
L 2409 0 
L 1894 0 
L 1894 1119 
L 100 1119 
L 100 1519 
L 2066 4325 
L 2409 4325 
L 2409 1563 
L 2978 1563 
z
M 1894 1563 
L 1894 3666 
L 406 1563 
L 1894 1563 
z
" transform="scale(0.015625)"/>
       </defs>
       <use xlink:href="#TimesNewRomanPSMT-34"/>
       <use xlink:href="#TimesNewRomanPSMT-30" transform="translate(50 0)"/>
       <use xlink:href="#TimesNewRomanPSMT-30" transform="translate(100 0)"/>
       <use xlink:href="#TimesNewRomanPSMT-30" transform="translate(150 0)"/>
       <use xlink:href="#TimesNewRomanPSMT-30" transform="translate(200 0)"/>
       <use xlink:href="#TimesNewRomanPSMT-30" transform="translate(250 0)"/>
      </g>
     </g>
    </g>
    <g id="xtick_6">
     <g id="line2d_11">
      <path d="M 564.783371 384.94375 
L 564.783371 7.2 
" clip-path="url(#p4afb1640d9)" style="fill: none; stroke-dasharray: 2.96,1.28; stroke-dashoffset: 0; stroke: #b0b0b0; stroke-opacity: 0.6; stroke-width: 0.8"/>
     </g>
     <g id="line2d_12">
      <g>
       <use xlink:href="#m920474c34d" x="564.783371" y="384.94375" style="stroke: #000000; stroke-width: 0.8"/>
      </g>
     </g>
     <g id="text_6">
      <!-- 500000 -->
      <g transform="translate(549.783371 398.8875) scale(0.1 -0.1)">
       <defs>
        <path id="TimesNewRomanPSMT-35" d="M 2778 4238 
L 2534 3706 
L 1259 3706 
L 981 3138 
Q 1809 3016 2294 2522 
Q 2709 2097 2709 1522 
Q 2709 1188 2573 903 
Q 2438 619 2231 419 
Q 2025 219 1772 97 
Q 1413 -75 1034 -75 
Q 653 -75 479 54 
Q 306 184 306 341 
Q 306 428 378 495 
Q 450 563 559 563 
Q 641 563 702 538 
Q 763 513 909 409 
Q 1144 247 1384 247 
Q 1750 247 2026 523 
Q 2303 800 2303 1197 
Q 2303 1581 2056 1914 
Q 1809 2247 1375 2428 
Q 1034 2569 447 2591 
L 1259 4238 
L 2778 4238 
z
" transform="scale(0.015625)"/>
       </defs>
       <use xlink:href="#TimesNewRomanPSMT-35"/>
       <use xlink:href="#TimesNewRomanPSMT-30" transform="translate(50 0)"/>
       <use xlink:href="#TimesNewRomanPSMT-30" transform="translate(100 0)"/>
       <use xlink:href="#TimesNewRomanPSMT-30" transform="translate(150 0)"/>
       <use xlink:href="#TimesNewRomanPSMT-30" transform="translate(200 0)"/>
       <use xlink:href="#TimesNewRomanPSMT-30" transform="translate(250 0)"/>
      </g>
     </g>
    </g>
    <g id="text_7">
     <!-- Failure Mileage (km) -->
     <g transform="translate(295.865 413.359062) scale(0.12 -0.12)">
      <defs>
       <path id="TimesNewRomanPSMT-46" d="M 1309 4006 
L 1309 2341 
L 2081 2341 
Q 2347 2341 2470 2458 
Q 2594 2575 2634 2922 
L 2750 2922 
L 2750 1488 
L 2634 1488 
Q 2631 1734 2570 1850 
Q 2509 1966 2401 2023 
Q 2294 2081 2081 2081 
L 1309 2081 
L 1309 750 
Q 1309 428 1350 325 
Q 1381 247 1481 191 
Q 1619 116 1769 116 
L 1922 116 
L 1922 0 
L 103 0 
L 103 116 
L 253 116 
Q 516 116 634 269 
Q 709 369 709 750 
L 709 3488 
Q 709 3809 669 3913 
Q 638 3991 541 4047 
Q 406 4122 253 4122 
L 103 4122 
L 103 4238 
L 3256 4238 
L 3297 3306 
L 3188 3306 
Q 3106 3603 2998 3742 
Q 2891 3881 2733 3943 
Q 2575 4006 2244 4006 
L 1309 4006 
z
" transform="scale(0.015625)"/>
       <path id="TimesNewRomanPSMT-61" d="M 1822 413 
Q 1381 72 1269 19 
Q 1100 -59 909 -59 
Q 613 -59 420 144 
Q 228 347 228 678 
Q 228 888 322 1041 
Q 450 1253 767 1440 
Q 1084 1628 1822 1897 
L 1822 2009 
Q 1822 2438 1686 2597 
Q 1550 2756 1291 2756 
Q 1094 2756 978 2650 
Q 859 2544 859 2406 
L 866 2225 
Q 866 2081 792 2003 
Q 719 1925 600 1925 
Q 484 1925 411 2006 
Q 338 2088 338 2228 
Q 338 2497 613 2722 
Q 888 2947 1384 2947 
Q 1766 2947 2009 2819 
Q 2194 2722 2281 2516 
Q 2338 2381 2338 1966 
L 2338 994 
Q 2338 584 2353 492 
Q 2369 400 2405 369 
Q 2441 338 2488 338 
Q 2538 338 2575 359 
Q 2641 400 2828 588 
L 2828 413 
Q 2478 -56 2159 -56 
Q 2006 -56 1915 50 
Q 1825 156 1822 413 
z
M 1822 616 
L 1822 1706 
Q 1350 1519 1213 1441 
Q 966 1303 859 1153 
Q 753 1003 753 825 
Q 753 600 887 451 
Q 1022 303 1197 303 
Q 1434 303 1822 616 
z
" transform="scale(0.015625)"/>
       <path id="TimesNewRomanPSMT-69" d="M 928 4444 
Q 1059 4444 1151 4351 
Q 1244 4259 1244 4128 
Q 1244 3997 1151 3903 
Q 1059 3809 928 3809 
Q 797 3809 703 3903 
Q 609 3997 609 4128 
Q 609 4259 701 4351 
Q 794 4444 928 4444 
z
M 1188 2947 
L 1188 647 
Q 1188 378 1227 289 
Q 1266 200 1342 156 
Q 1419 113 1622 113 
L 1622 0 
L 231 0 
L 231 113 
Q 441 113 512 153 
Q 584 194 626 287 
Q 669 381 669 647 
L 669 1750 
Q 669 2216 641 2353 
Q 619 2453 572 2492 
Q 525 2531 444 2531 
Q 356 2531 231 2484 
L 188 2597 
L 1050 2947 
L 1188 2947 
z
" transform="scale(0.015625)"/>
       <path id="TimesNewRomanPSMT-6c" d="M 1184 4444 
L 1184 647 
Q 1184 378 1223 290 
Q 1263 203 1344 158 
Q 1425 113 1647 113 
L 1647 0 
L 244 0 
L 244 113 
Q 441 113 512 153 
Q 584 194 625 287 
Q 666 381 666 647 
L 666 3247 
Q 666 3731 644 3842 
Q 622 3953 573 3993 
Q 525 4034 450 4034 
Q 369 4034 244 3984 
L 191 4094 
L 1044 4444 
L 1184 4444 
z
" transform="scale(0.015625)"/>
       <path id="TimesNewRomanPSMT-75" d="M 2709 2863 
L 2709 1128 
Q 2709 631 2732 520 
Q 2756 409 2807 365 
Q 2859 322 2928 322 
Q 3025 322 3147 375 
L 3191 266 
L 2334 -88 
L 2194 -88 
L 2194 519 
Q 1825 119 1631 15 
Q 1438 -88 1222 -88 
Q 981 -88 804 51 
Q 628 191 559 409 
Q 491 628 491 1028 
L 491 2306 
Q 491 2509 447 2587 
Q 403 2666 317 2708 
Q 231 2750 6 2747 
L 6 2863 
L 1009 2863 
L 1009 947 
Q 1009 547 1148 422 
Q 1288 297 1484 297 
Q 1619 297 1789 381 
Q 1959 466 2194 703 
L 2194 2325 
Q 2194 2569 2105 2655 
Q 2016 2741 1734 2747 
L 1734 2863 
L 2709 2863 
z
" transform="scale(0.015625)"/>
       <path id="TimesNewRomanPSMT-72" d="M 1038 2947 
L 1038 2303 
Q 1397 2947 1775 2947 
Q 1947 2947 2059 2842 
Q 2172 2738 2172 2600 
Q 2172 2478 2090 2393 
Q 2009 2309 1897 2309 
Q 1788 2309 1652 2417 
Q 1516 2525 1450 2525 
Q 1394 2525 1328 2463 
Q 1188 2334 1038 2041 
L 1038 669 
Q 1038 431 1097 309 
Q 1138 225 1241 169 
Q 1344 113 1538 113 
L 1538 0 
L 72 0 
L 72 113 
Q 291 113 397 181 
Q 475 231 506 341 
Q 522 394 522 644 
L 522 1753 
Q 522 2253 501 2348 
Q 481 2444 426 2487 
Q 372 2531 291 2531 
Q 194 2531 72 2484 
L 41 2597 
L 906 2947 
L 1038 2947 
z
" transform="scale(0.015625)"/>
       <path id="TimesNewRomanPSMT-65" d="M 681 1784 
Q 678 1147 991 784 
Q 1303 422 1725 422 
Q 2006 422 2214 576 
Q 2422 731 2563 1106 
L 2659 1044 
Q 2594 616 2278 264 
Q 1963 -88 1488 -88 
Q 972 -88 605 314 
Q 238 716 238 1394 
Q 238 2128 614 2539 
Q 991 2950 1559 2950 
Q 2041 2950 2350 2633 
Q 2659 2316 2659 1784 
L 681 1784 
z
M 681 1966 
L 2006 1966 
Q 1991 2241 1941 2353 
Q 1863 2528 1708 2628 
Q 1553 2728 1384 2728 
Q 1125 2728 920 2526 
Q 716 2325 681 1966 
z
" transform="scale(0.015625)"/>
       <path id="TimesNewRomanPSMT-20" transform="scale(0.015625)"/>
       <path id="TimesNewRomanPSMT-4d" d="M 2619 0 
L 981 3566 
L 981 734 
Q 981 344 1066 247 
Q 1181 116 1431 116 
L 1581 116 
L 1581 0 
L 106 0 
L 106 116 
L 256 116 
Q 525 116 638 278 
Q 706 378 706 734 
L 706 3503 
Q 706 3784 644 3909 
Q 600 4000 483 4061 
Q 366 4122 106 4122 
L 106 4238 
L 1306 4238 
L 2844 922 
L 4356 4238 
L 5556 4238 
L 5556 4122 
L 5409 4122 
Q 5138 4122 5025 3959 
Q 4956 3859 4956 3503 
L 4956 734 
Q 4956 344 5044 247 
Q 5159 116 5409 116 
L 5556 116 
L 5556 0 
L 3756 0 
L 3756 116 
L 3906 116 
Q 4178 116 4288 278 
Q 4356 378 4356 734 
L 4356 3566 
L 2722 0 
L 2619 0 
z
" transform="scale(0.015625)"/>
       <path id="TimesNewRomanPSMT-67" d="M 966 1044 
Q 703 1172 562 1401 
Q 422 1631 422 1909 
Q 422 2334 742 2640 
Q 1063 2947 1563 2947 
Q 1972 2947 2272 2747 
L 2878 2747 
Q 3013 2747 3034 2739 
Q 3056 2731 3066 2713 
Q 3084 2684 3084 2613 
Q 3084 2531 3069 2500 
Q 3059 2484 3036 2475 
Q 3013 2466 2878 2466 
L 2506 2466 
Q 2681 2241 2681 1891 
Q 2681 1491 2375 1206 
Q 2069 922 1553 922 
Q 1341 922 1119 984 
Q 981 866 932 777 
Q 884 688 884 625 
Q 884 572 936 522 
Q 988 472 1138 450 
Q 1225 438 1575 428 
Q 2219 413 2409 384 
Q 2700 344 2873 169 
Q 3047 -6 3047 -263 
Q 3047 -616 2716 -925 
Q 2228 -1381 1444 -1381 
Q 841 -1381 425 -1109 
Q 191 -953 191 -784 
Q 191 -709 225 -634 
Q 278 -519 444 -313 
Q 466 -284 763 25 
Q 600 122 533 198 
Q 466 275 466 372 
Q 466 481 555 628 
Q 644 775 966 1044 
z
M 1509 2797 
Q 1278 2797 1122 2612 
Q 966 2428 966 2047 
Q 966 1553 1178 1281 
Q 1341 1075 1591 1075 
Q 1828 1075 1981 1253 
Q 2134 1431 2134 1813 
Q 2134 2309 1919 2591 
Q 1759 2797 1509 2797 
z
M 934 0 
Q 788 -159 713 -296 
Q 638 -434 638 -550 
Q 638 -700 819 -813 
Q 1131 -1006 1722 -1006 
Q 2284 -1006 2551 -807 
Q 2819 -609 2819 -384 
Q 2819 -222 2659 -153 
Q 2497 -84 2016 -72 
Q 1313 -53 934 0 
z
" transform="scale(0.015625)"/>
       <path id="TimesNewRomanPSMT-28" d="M 1988 -1253 
L 1988 -1369 
Q 1516 -1131 1200 -813 
Q 750 -359 506 256 
Q 263 872 263 1534 
Q 263 2503 741 3301 
Q 1219 4100 1988 4444 
L 1988 4313 
Q 1603 4100 1356 3731 
Q 1109 3363 987 2797 
Q 866 2231 866 1616 
Q 866 947 969 400 
Q 1050 -31 1165 -292 
Q 1281 -553 1476 -793 
Q 1672 -1034 1988 -1253 
z
" transform="scale(0.015625)"/>
       <path id="TimesNewRomanPSMT-6b" d="M 1047 4444 
L 1047 1597 
L 1775 2259 
Q 2006 2472 2044 2528 
Q 2069 2566 2069 2603 
Q 2069 2666 2017 2711 
Q 1966 2756 1847 2763 
L 1847 2863 
L 3091 2863 
L 3091 2763 
Q 2834 2756 2664 2684 
Q 2494 2613 2291 2428 
L 1556 1750 
L 2291 822 
Q 2597 438 2703 334 
Q 2853 188 2966 144 
Q 3044 113 3238 113 
L 3238 0 
L 1847 0 
L 1847 113 
Q 1966 116 2008 148 
Q 2050 181 2050 241 
Q 2050 313 1925 472 
L 1047 1594 
L 1047 644 
Q 1047 366 1086 278 
Q 1125 191 1197 153 
Q 1269 116 1509 113 
L 1509 0 
L 53 0 
L 53 113 
Q 272 113 381 166 
Q 447 200 481 272 
Q 528 375 528 628 
L 528 3234 
Q 528 3731 506 3842 
Q 484 3953 434 3995 
Q 384 4038 303 4038 
Q 238 4038 106 3984 
L 53 4094 
L 903 4444 
L 1047 4444 
z
" transform="scale(0.015625)"/>
       <path id="TimesNewRomanPSMT-6d" d="M 1050 2338 
Q 1363 2650 1419 2697 
Q 1559 2816 1721 2881 
Q 1884 2947 2044 2947 
Q 2313 2947 2506 2790 
Q 2700 2634 2766 2338 
Q 3088 2713 3309 2830 
Q 3531 2947 3766 2947 
Q 3994 2947 4170 2830 
Q 4347 2713 4450 2447 
Q 4519 2266 4519 1878 
L 4519 647 
Q 4519 378 4559 278 
Q 4591 209 4675 161 
Q 4759 113 4950 113 
L 4950 0 
L 3538 0 
L 3538 113 
L 3597 113 
Q 3781 113 3884 184 
Q 3956 234 3988 344 
Q 4000 397 4000 647 
L 4000 1878 
Q 4000 2228 3916 2372 
Q 3794 2572 3525 2572 
Q 3359 2572 3192 2489 
Q 3025 2406 2788 2181 
L 2781 2147 
L 2788 2013 
L 2788 647 
Q 2788 353 2820 281 
Q 2853 209 2943 161 
Q 3034 113 3253 113 
L 3253 0 
L 1806 0 
L 1806 113 
Q 2044 113 2133 169 
Q 2222 225 2256 338 
Q 2272 391 2272 647 
L 2272 1878 
Q 2272 2228 2169 2381 
Q 2031 2581 1784 2581 
Q 1616 2581 1450 2491 
Q 1191 2353 1050 2181 
L 1050 647 
Q 1050 366 1089 281 
Q 1128 197 1204 155 
Q 1281 113 1516 113 
L 1516 0 
L 100 0 
L 100 113 
Q 297 113 375 155 
Q 453 197 493 289 
Q 534 381 534 647 
L 534 1741 
Q 534 2213 506 2350 
Q 484 2453 437 2492 
Q 391 2531 309 2531 
Q 222 2531 100 2484 
L 53 2597 
L 916 2947 
L 1050 2947 
L 1050 2338 
z
" transform="scale(0.015625)"/>
       <path id="TimesNewRomanPSMT-29" d="M 144 4313 
L 144 4444 
Q 619 4209 934 3891 
Q 1381 3434 1625 2820 
Q 1869 2206 1869 1541 
Q 1869 572 1392 -226 
Q 916 -1025 144 -1369 
L 144 -1253 
Q 528 -1038 776 -670 
Q 1025 -303 1145 264 
Q 1266 831 1266 1447 
Q 1266 2113 1163 2663 
Q 1084 3094 967 3353 
Q 850 3613 656 3853 
Q 463 4094 144 4313 
z
" transform="scale(0.015625)"/>
      </defs>
      <use xlink:href="#TimesNewRomanPSMT-46"/>
      <use xlink:href="#TimesNewRomanPSMT-61" transform="translate(55.615234 0)"/>
      <use xlink:href="#TimesNewRomanPSMT-69" transform="translate(100 0)"/>
      <use xlink:href="#TimesNewRomanPSMT-6c" transform="translate(127.783203 0)"/>
      <use xlink:href="#TimesNewRomanPSMT-75" transform="translate(155.566406 0)"/>
      <use xlink:href="#TimesNewRomanPSMT-72" transform="translate(205.566406 0)"/>
      <use xlink:href="#TimesNewRomanPSMT-65" transform="translate(238.867188 0)"/>
      <use xlink:href="#TimesNewRomanPSMT-20" transform="translate(283.251953 0)"/>
      <use xlink:href="#TimesNewRomanPSMT-4d" transform="translate(308.251953 0)"/>
      <use xlink:href="#TimesNewRomanPSMT-69" transform="translate(397.167969 0)"/>
      <use xlink:href="#TimesNewRomanPSMT-6c" transform="translate(424.951172 0)"/>
      <use xlink:href="#TimesNewRomanPSMT-65" transform="translate(452.734375 0)"/>
      <use xlink:href="#TimesNewRomanPSMT-61" transform="translate(497.119141 0)"/>
      <use xlink:href="#TimesNewRomanPSMT-67" transform="translate(541.503906 0)"/>
      <use xlink:href="#TimesNewRomanPSMT-65" transform="translate(591.503906 0)"/>
      <use xlink:href="#TimesNewRomanPSMT-20" transform="translate(635.888672 0)"/>
      <use xlink:href="#TimesNewRomanPSMT-28" transform="translate(660.888672 0)"/>
      <use xlink:href="#TimesNewRomanPSMT-6b" transform="translate(694.189453 0)"/>
      <use xlink:href="#TimesNewRomanPSMT-6d" transform="translate(744.189453 0)"/>
      <use xlink:href="#TimesNewRomanPSMT-29" transform="translate(821.972656 0)"/>
     </g>
    </g>
   </g>
   <g id="matplotlib.axis_2">
    <g id="ytick_1">
     <g id="line2d_13">
      <path d="M 61.621875 384.94375 
L 632.741875 384.94375 
" clip-path="url(#p4afb1640d9)" style="fill: none; stroke-dasharray: 2.96,1.28; stroke-dashoffset: 0; stroke: #b0b0b0; stroke-opacity: 0.6; stroke-width: 0.8"/>
     </g>
     <g id="line2d_14">
      <defs>
       <path id="m798cfda612" d="M 0 0 
L -3.5 0 
" style="stroke: #000000; stroke-width: 0.8"/>
      </defs>
      <g>
       <use xlink:href="#m798cfda612" x="61.621875" y="384.94375" style="stroke: #000000; stroke-width: 0.8"/>
      </g>
     </g>
     <g id="text_8">
      <!-- 0.00000 -->
      <g transform="translate(22.121875 388.415625) scale(0.1 -0.1)">
       <defs>
        <path id="TimesNewRomanPSMT-2e" d="M 800 606 
Q 947 606 1047 504 
Q 1147 403 1147 259 
Q 1147 116 1045 14 
Q 944 -88 800 -88 
Q 656 -88 554 14 
Q 453 116 453 259 
Q 453 406 554 506 
Q 656 606 800 606 
z
" transform="scale(0.015625)"/>
       </defs>
       <use xlink:href="#TimesNewRomanPSMT-30"/>
       <use xlink:href="#TimesNewRomanPSMT-2e" transform="translate(50 0)"/>
       <use xlink:href="#TimesNewRomanPSMT-30" transform="translate(75 0)"/>
       <use xlink:href="#TimesNewRomanPSMT-30" transform="translate(125 0)"/>
       <use xlink:href="#TimesNewRomanPSMT-30" transform="translate(175 0)"/>
       <use xlink:href="#TimesNewRomanPSMT-30" transform="translate(225 0)"/>
       <use xlink:href="#TimesNewRomanPSMT-30" transform="translate(275 0)"/>
      </g>
     </g>
    </g>
    <g id="ytick_2">
     <g id="line2d_15">
      <path d="M 61.621875 305.660283 
L 632.741875 305.660283 
" clip-path="url(#p4afb1640d9)" style="fill: none; stroke-dasharray: 2.96,1.28; stroke-dashoffset: 0; stroke: #b0b0b0; stroke-opacity: 0.6; stroke-width: 0.8"/>
     </g>
     <g id="line2d_16">
      <g>
       <use xlink:href="#m798cfda612" x="61.621875" y="305.660283" style="stroke: #000000; stroke-width: 0.8"/>
      </g>
     </g>
     <g id="text_9">
      <!-- 0.00005 -->
      <g transform="translate(22.121875 309.132158) scale(0.1 -0.1)">
       <use xlink:href="#TimesNewRomanPSMT-30"/>
       <use xlink:href="#TimesNewRomanPSMT-2e" transform="translate(50 0)"/>
       <use xlink:href="#TimesNewRomanPSMT-30" transform="translate(75 0)"/>
       <use xlink:href="#TimesNewRomanPSMT-30" transform="translate(125 0)"/>
       <use xlink:href="#TimesNewRomanPSMT-30" transform="translate(175 0)"/>
       <use xlink:href="#TimesNewRomanPSMT-30" transform="translate(225 0)"/>
       <use xlink:href="#TimesNewRomanPSMT-35" transform="translate(275 0)"/>
      </g>
     </g>
    </g>
    <g id="ytick_3">
     <g id="line2d_17">
      <path d="M 61.621875 226.376815 
L 632.741875 226.376815 
" clip-path="url(#p4afb1640d9)" style="fill: none; stroke-dasharray: 2.96,1.28; stroke-dashoffset: 0; stroke: #b0b0b0; stroke-opacity: 0.6; stroke-width: 0.8"/>
     </g>
     <g id="line2d_18">
      <g>
       <use xlink:href="#m798cfda612" x="61.621875" y="226.376815" style="stroke: #000000; stroke-width: 0.8"/>
      </g>
     </g>
     <g id="text_10">
      <!-- 0.00010 -->
      <g transform="translate(22.121875 229.84869) scale(0.1 -0.1)">
       <use xlink:href="#TimesNewRomanPSMT-30"/>
       <use xlink:href="#TimesNewRomanPSMT-2e" transform="translate(50 0)"/>
       <use xlink:href="#TimesNewRomanPSMT-30" transform="translate(75 0)"/>
       <use xlink:href="#TimesNewRomanPSMT-30" transform="translate(125 0)"/>
       <use xlink:href="#TimesNewRomanPSMT-30" transform="translate(175 0)"/>
       <use xlink:href="#TimesNewRomanPSMT-31" transform="translate(225 0)"/>
       <use xlink:href="#TimesNewRomanPSMT-30" transform="translate(275 0)"/>
      </g>
     </g>
    </g>
    <g id="ytick_4">
     <g id="line2d_19">
      <path d="M 61.621875 147.093348 
L 632.741875 147.093348 
" clip-path="url(#p4afb1640d9)" style="fill: none; stroke-dasharray: 2.96,1.28; stroke-dashoffset: 0; stroke: #b0b0b0; stroke-opacity: 0.6; stroke-width: 0.8"/>
     </g>
     <g id="line2d_20">
      <g>
       <use xlink:href="#m798cfda612" x="61.621875" y="147.093348" style="stroke: #000000; stroke-width: 0.8"/>
      </g>
     </g>
     <g id="text_11">
      <!-- 0.00015 -->
      <g transform="translate(22.121875 150.565223) scale(0.1 -0.1)">
       <use xlink:href="#TimesNewRomanPSMT-30"/>
       <use xlink:href="#TimesNewRomanPSMT-2e" transform="translate(50 0)"/>
       <use xlink:href="#TimesNewRomanPSMT-30" transform="translate(75 0)"/>
       <use xlink:href="#TimesNewRomanPSMT-30" transform="translate(125 0)"/>
       <use xlink:href="#TimesNewRomanPSMT-30" transform="translate(175 0)"/>
       <use xlink:href="#TimesNewRomanPSMT-31" transform="translate(225 0)"/>
       <use xlink:href="#TimesNewRomanPSMT-35" transform="translate(275 0)"/>
      </g>
     </g>
    </g>
    <g id="ytick_5">
     <g id="line2d_21">
      <path d="M 61.621875 67.80988 
L 632.741875 67.80988 
" clip-path="url(#p4afb1640d9)" style="fill: none; stroke-dasharray: 2.96,1.28; stroke-dashoffset: 0; stroke: #b0b0b0; stroke-opacity: 0.6; stroke-width: 0.8"/>
     </g>
     <g id="line2d_22">
      <g>
       <use xlink:href="#m798cfda612" x="61.621875" y="67.80988" style="stroke: #000000; stroke-width: 0.8"/>
      </g>
     </g>
     <g id="text_12">
      <!-- 0.00020 -->
      <g transform="translate(22.121875 71.281755) scale(0.1 -0.1)">
       <use xlink:href="#TimesNewRomanPSMT-30"/>
       <use xlink:href="#TimesNewRomanPSMT-2e" transform="translate(50 0)"/>
       <use xlink:href="#TimesNewRomanPSMT-30" transform="translate(75 0)"/>
       <use xlink:href="#TimesNewRomanPSMT-30" transform="translate(125 0)"/>
       <use xlink:href="#TimesNewRomanPSMT-30" transform="translate(175 0)"/>
       <use xlink:href="#TimesNewRomanPSMT-32" transform="translate(225 0)"/>
       <use xlink:href="#TimesNewRomanPSMT-30" transform="translate(275 0)"/>
      </g>
     </g>
    </g>
    <g id="text_13">
     <!-- Density -->
     <g transform="translate(15.5325 214.7375) rotate(-90) scale(0.12 -0.12)">
      <defs>
       <path id="TimesNewRomanPSMT-44" d="M 109 0 
L 109 116 
L 269 116 
Q 538 116 650 288 
Q 719 391 719 750 
L 719 3488 
Q 719 3884 631 3984 
Q 509 4122 269 4122 
L 109 4122 
L 109 4238 
L 1834 4238 
Q 2784 4238 3279 4022 
Q 3775 3806 4076 3303 
Q 4378 2800 4378 2141 
Q 4378 1256 3841 663 
Q 3238 0 2003 0 
L 109 0 
z
M 1319 306 
Q 1716 219 1984 219 
Q 2709 219 3187 728 
Q 3666 1238 3666 2109 
Q 3666 2988 3187 3494 
Q 2709 4000 1959 4000 
Q 1678 4000 1319 3909 
L 1319 306 
z
" transform="scale(0.015625)"/>
       <path id="TimesNewRomanPSMT-6e" d="M 1034 2341 
Q 1538 2947 1994 2947 
Q 2228 2947 2397 2830 
Q 2566 2713 2666 2444 
Q 2734 2256 2734 1869 
L 2734 647 
Q 2734 375 2778 278 
Q 2813 200 2889 156 
Q 2966 113 3172 113 
L 3172 0 
L 1756 0 
L 1756 113 
L 1816 113 
Q 2016 113 2095 173 
Q 2175 234 2206 353 
Q 2219 400 2219 647 
L 2219 1819 
Q 2219 2209 2117 2386 
Q 2016 2563 1775 2563 
Q 1403 2563 1034 2156 
L 1034 647 
Q 1034 356 1069 288 
Q 1113 197 1189 155 
Q 1266 113 1500 113 
L 1500 0 
L 84 0 
L 84 113 
L 147 113 
Q 366 113 442 223 
Q 519 334 519 647 
L 519 1709 
Q 519 2225 495 2337 
Q 472 2450 423 2490 
Q 375 2531 294 2531 
Q 206 2531 84 2484 
L 38 2597 
L 900 2947 
L 1034 2947 
L 1034 2341 
z
" transform="scale(0.015625)"/>
       <path id="TimesNewRomanPSMT-73" d="M 2050 2947 
L 2050 1972 
L 1947 1972 
Q 1828 2431 1642 2597 
Q 1456 2763 1169 2763 
Q 950 2763 815 2647 
Q 681 2531 681 2391 
Q 681 2216 781 2091 
Q 878 1963 1175 1819 
L 1631 1597 
Q 2266 1288 2266 781 
Q 2266 391 1970 151 
Q 1675 -88 1309 -88 
Q 1047 -88 709 6 
Q 606 38 541 38 
Q 469 38 428 -44 
L 325 -44 
L 325 978 
L 428 978 
Q 516 541 762 319 
Q 1009 97 1316 97 
Q 1531 97 1667 223 
Q 1803 350 1803 528 
Q 1803 744 1651 891 
Q 1500 1038 1047 1263 
Q 594 1488 453 1669 
Q 313 1847 313 2119 
Q 313 2472 555 2709 
Q 797 2947 1181 2947 
Q 1350 2947 1591 2875 
Q 1750 2828 1803 2828 
Q 1853 2828 1881 2850 
Q 1909 2872 1947 2947 
L 2050 2947 
z
" transform="scale(0.015625)"/>
       <path id="TimesNewRomanPSMT-74" d="M 1031 3803 
L 1031 2863 
L 1700 2863 
L 1700 2644 
L 1031 2644 
L 1031 788 
Q 1031 509 1111 412 
Q 1191 316 1316 316 
Q 1419 316 1516 380 
Q 1613 444 1666 569 
L 1788 569 
Q 1678 263 1478 108 
Q 1278 -47 1066 -47 
Q 922 -47 784 33 
Q 647 113 581 261 
Q 516 409 516 719 
L 516 2644 
L 63 2644 
L 63 2747 
Q 234 2816 414 2980 
Q 594 3144 734 3369 
Q 806 3488 934 3803 
L 1031 3803 
z
" transform="scale(0.015625)"/>
       <path id="TimesNewRomanPSMT-79" d="M 38 2863 
L 1372 2863 
L 1372 2747 
L 1306 2747 
Q 1166 2747 1095 2686 
Q 1025 2625 1025 2534 
Q 1025 2413 1128 2197 
L 1825 753 
L 2466 2334 
Q 2519 2463 2519 2588 
Q 2519 2644 2497 2672 
Q 2472 2706 2419 2726 
Q 2366 2747 2231 2747 
L 2231 2863 
L 3163 2863 
L 3163 2747 
Q 3047 2734 2984 2696 
Q 2922 2659 2847 2556 
Q 2819 2513 2741 2316 
L 1575 -541 
Q 1406 -956 1132 -1168 
Q 859 -1381 606 -1381 
Q 422 -1381 303 -1275 
Q 184 -1169 184 -1031 
Q 184 -900 270 -820 
Q 356 -741 506 -741 
Q 609 -741 788 -809 
Q 913 -856 944 -856 
Q 1038 -856 1148 -759 
Q 1259 -663 1372 -384 
L 1575 113 
L 547 2272 
Q 500 2369 397 2513 
Q 319 2622 269 2659 
Q 197 2709 38 2747 
L 38 2863 
z
" transform="scale(0.015625)"/>
      </defs>
      <use xlink:href="#TimesNewRomanPSMT-44"/>
      <use xlink:href="#TimesNewRomanPSMT-65" transform="translate(72.216797 0)"/>
      <use xlink:href="#TimesNewRomanPSMT-6e" transform="translate(116.601562 0)"/>
      <use xlink:href="#TimesNewRomanPSMT-73" transform="translate(166.601562 0)"/>
      <use xlink:href="#TimesNewRomanPSMT-69" transform="translate(205.517578 0)"/>
      <use xlink:href="#TimesNewRomanPSMT-74" transform="translate(233.300781 0)"/>
      <use xlink:href="#TimesNewRomanPSMT-79" transform="translate(261.083984 0)"/>
     </g>
    </g>
   </g>
   <g id="line2d_23">
    <path d="M 87.581875 25.187798 
L 88.622356 302.017932 
L 89.662837 310.777829 
L 90.703318 316.9951 
L 91.743799 322.042558 
L 92.78428 326.368274 
L 94.865242 333.604541 
L 96.946204 339.550986 
L 99.027166 344.583804 
L 101.108128 348.91648 
L 103.189089 352.687809 
L 105.270051 355.996017 
L 107.351013 358.914654 
L 109.431975 361.501022 
L 111.512937 363.801054 
L 113.593899 365.85237 
L 116.715342 368.530141 
L 119.836785 370.80367 
L 122.958228 372.740984 
L 126.079671 374.396767 
L 129.201113 375.815527 
L 132.322556 377.033851 
L 136.48448 378.398139 
L 140.646404 379.517764 
L 145.848809 380.642709 
L 151.051214 381.527167 
L 157.294099 382.345422 
L 164.577466 383.050112 
L 172.901314 383.62002 
L 183.306123 384.093733 
L 196.832376 384.46268 
L 215.561033 384.72274 
L 244.6945 384.876542 
L 309.20432 384.938621 
L 606.781875 384.94375 
L 606.781875 384.94375 
" clip-path="url(#p4afb1640d9)" style="fill: none; stroke-dasharray: 2,3.3; stroke-dashoffset: 0; stroke: #0000ff; stroke-width: 2"/>
   </g>
   <g id="line2d_24">
    <path d="M 87.581875 88.542021 
L 88.622356 301.747863 
L 89.662837 310.023077 
L 90.703318 316.061734 
L 91.743799 321.045501 
L 92.78428 325.36425 
L 94.865242 332.667605 
L 96.946204 338.726651 
L 99.027166 343.884931 
L 101.108128 348.341957 
L 103.189089 352.230166 
L 105.270051 355.644985 
L 107.351013 358.658979 
L 109.431975 361.329415 
L 111.512937 363.702703 
L 113.593899 365.817194 
L 115.674861 367.705056 
L 118.796304 370.170534 
L 121.917747 372.262912 
L 125.03919 374.043576 
L 128.160633 375.562498 
L 131.282075 376.860741 
L 135.443999 378.306359 
L 139.605923 379.484767 
L 143.767847 380.447565 
L 148.970252 381.409549 
L 155.213138 382.290028 
L 161.456023 382.946531 
L 169.779871 383.572054 
L 179.1442 384.041277 
L 191.629971 384.424179 
L 208.277667 384.692266 
L 234.289691 384.860489 
L 288.394701 384.932978 
L 606.781875 384.941763 
L 606.781875 384.941763 
" clip-path="url(#p4afb1640d9)" style="fill: none; stroke-dasharray: 9.25,4; stroke-dashoffset: 0; stroke: #ff8c00; stroke-width: 2.5"/>
   </g>
   <g id="line2d_25">
    <path d="M 87.581875 126.095137 
L 88.622356 302.19528 
L 89.662837 310.053309 
L 90.703318 315.898978 
L 91.743799 320.778597 
L 93.824761 328.848781 
L 95.905723 335.459807 
L 97.986685 341.05811 
L 100.067647 345.881928 
L 102.148608 350.082808 
L 104.22957 353.767484 
L 106.310532 357.016099 
L 108.391494 359.891456 
L 110.472456 362.44425 
L 112.553418 364.716285 
L 114.63438 366.742591 
L 117.755823 369.385093 
L 120.877266 371.623586 
L 123.998709 373.524861 
L 127.120152 375.143294 
L 130.241594 376.523562 
L 133.363037 377.702634 
L 137.524961 379.014196 
L 141.686885 380.081618 
L 146.88929 381.143407 
L 152.091695 381.968256 
L 158.33458 382.720825 
L 165.617947 383.357766 
L 173.941795 383.862039 
L 184.346604 384.270015 
L 198.913338 384.59259 
L 219.722957 384.799168 
L 256.139791 384.897821 
L 441.345402 384.94369 
L 606.781875 384.942534 
L 606.781875 384.942534 
" clip-path="url(#p4afb1640d9)" style="fill: none; stroke: #b22222; stroke-width: 2; stroke-linecap: square"/>
   </g>
   <g id="line2d_26"/>
   <g id="patch_48">
    <path d="M 61.621875 384.94375 
L 61.621875 7.2 
" style="fill: none; stroke: #000000; stroke-width: 0.8; stroke-linejoin: miter; stroke-linecap: square"/>
   </g>
   <g id="patch_49">
    <path d="M 632.741875 384.94375 
L 632.741875 7.2 
" style="fill: none; stroke: #000000; stroke-width: 0.8; stroke-linejoin: miter; stroke-linecap: square"/>
   </g>
   <g id="patch_50">
    <path d="M 61.621875 384.94375 
L 632.741875 384.94375 
" style="fill: none; stroke: #000000; stroke-width: 0.8; stroke-linejoin: miter; stroke-linecap: square"/>
   </g>
   <g id="patch_51">
    <path d="M 61.621875 7.2 
L 632.741875 7.2 
" style="fill: none; stroke: #000000; stroke-width: 0.8; stroke-linejoin: miter; stroke-linecap: square"/>
   </g>
   <g id="legend_1">
    <g id="patch_52">
     <path d="M 464.9025 78.2325 
L 625.041875 78.2325 
Q 627.241875 78.2325 627.241875 76.0325 
L 627.241875 14.9 
Q 627.241875 12.7 625.041875 12.7 
L 464.9025 12.7 
Q 462.7025 12.7 462.7025 14.9 
L 462.7025 76.0325 
Q 462.7025 78.2325 464.9025 78.2325 
z
" style="fill: #ffffff; opacity: 0.8; stroke: #cccccc; stroke-linejoin: miter"/>
    </g>
    <g id="line2d_27">
     <path d="M 467.1025 20.95 
L 478.1025 20.95 
L 489.1025 20.95 
" style="fill: none; stroke-dasharray: 2,3.3; stroke-dashoffset: 0; stroke: #0000ff; stroke-width: 2"/>
    </g>
    <g id="text_14">
     <!-- Standard Weibull (n=1) -->
     <g transform="translate(497.9025 24.8) scale(0.11 -0.11)">
      <defs>
       <path id="TimesNewRomanPSMT-53" d="M 2934 4334 
L 2934 2869 
L 2819 2869 
Q 2763 3291 2617 3541 
Q 2472 3791 2203 3937 
Q 1934 4084 1647 4084 
Q 1322 4084 1109 3886 
Q 897 3688 897 3434 
Q 897 3241 1031 3081 
Q 1225 2847 1953 2456 
Q 2547 2138 2764 1967 
Q 2981 1797 3098 1565 
Q 3216 1334 3216 1081 
Q 3216 600 2842 251 
Q 2469 -97 1881 -97 
Q 1697 -97 1534 -69 
Q 1438 -53 1133 45 
Q 828 144 747 144 
Q 669 144 623 97 
Q 578 50 556 -97 
L 441 -97 
L 441 1356 
L 556 1356 
Q 638 900 775 673 
Q 913 447 1195 297 
Q 1478 147 1816 147 
Q 2206 147 2432 353 
Q 2659 559 2659 841 
Q 2659 997 2573 1156 
Q 2488 1316 2306 1453 
Q 2184 1547 1640 1851 
Q 1097 2156 867 2337 
Q 638 2519 519 2737 
Q 400 2956 400 3219 
Q 400 3675 750 4004 
Q 1100 4334 1641 4334 
Q 1978 4334 2356 4169 
Q 2531 4091 2603 4091 
Q 2684 4091 2736 4139 
Q 2788 4188 2819 4334 
L 2934 4334 
z
" transform="scale(0.015625)"/>
       <path id="TimesNewRomanPSMT-64" d="M 2222 322 
Q 2013 103 1813 7 
Q 1613 -88 1381 -88 
Q 913 -88 563 304 
Q 213 697 213 1313 
Q 213 1928 600 2439 
Q 988 2950 1597 2950 
Q 1975 2950 2222 2709 
L 2222 3238 
Q 2222 3728 2198 3840 
Q 2175 3953 2125 3993 
Q 2075 4034 2000 4034 
Q 1919 4034 1784 3984 
L 1744 4094 
L 2597 4444 
L 2738 4444 
L 2738 1134 
Q 2738 631 2761 520 
Q 2784 409 2836 365 
Q 2888 322 2956 322 
Q 3041 322 3181 375 
L 3216 266 
L 2366 -88 
L 2222 -88 
L 2222 322 
z
M 2222 541 
L 2222 2016 
Q 2203 2228 2109 2403 
Q 2016 2578 1861 2667 
Q 1706 2756 1559 2756 
Q 1284 2756 1069 2509 
Q 784 2184 784 1559 
Q 784 928 1059 592 
Q 1334 256 1672 256 
Q 1956 256 2222 541 
z
" transform="scale(0.015625)"/>
       <path id="TimesNewRomanPSMT-57" d="M 5991 4238 
L 5991 4122 
Q 5825 4122 5722 4062 
Q 5619 4003 5525 3841 
Q 5463 3731 5328 3319 
L 4147 -97 
L 4022 -97 
L 3056 2613 
L 2097 -97 
L 1984 -97 
L 725 3422 
Q 584 3816 547 3888 
Q 484 4006 376 4064 
Q 269 4122 84 4122 
L 84 4238 
L 1653 4238 
L 1653 4122 
L 1578 4122 
Q 1413 4122 1325 4047 
Q 1238 3972 1238 3866 
Q 1238 3756 1375 3363 
L 2209 984 
L 2913 3006 
L 2788 3363 
L 2688 3647 
Q 2622 3803 2541 3922 
Q 2500 3981 2441 4022 
Q 2363 4078 2284 4103 
Q 2225 4122 2097 4122 
L 2097 4238 
L 3747 4238 
L 3747 4122 
L 3634 4122 
Q 3459 4122 3378 4047 
Q 3297 3972 3297 3844 
Q 3297 3684 3438 3288 
L 4250 984 
L 5056 3319 
Q 5194 3706 5194 3856 
Q 5194 3928 5148 3990 
Q 5103 4053 5034 4078 
Q 4916 4122 4725 4122 
L 4725 4238 
L 5991 4238 
z
" transform="scale(0.015625)"/>
       <path id="TimesNewRomanPSMT-62" d="M 984 2369 
Q 1400 2947 1881 2947 
Q 2322 2947 2650 2570 
Q 2978 2194 2978 1541 
Q 2978 778 2472 313 
Q 2038 -88 1503 -88 
Q 1253 -88 995 3 
Q 738 94 469 275 
L 469 3241 
Q 469 3728 445 3840 
Q 422 3953 372 3993 
Q 322 4034 247 4034 
Q 159 4034 28 3984 
L -16 4094 
L 844 4444 
L 984 4444 
L 984 2369 
z
M 984 2169 
L 984 456 
Q 1144 300 1314 220 
Q 1484 141 1663 141 
Q 1947 141 2192 453 
Q 2438 766 2438 1363 
Q 2438 1913 2192 2208 
Q 1947 2503 1634 2503 
Q 1469 2503 1303 2419 
Q 1178 2356 984 2169 
z
" transform="scale(0.015625)"/>
       <path id="TimesNewRomanPSMT-3d" d="M 116 2759 
L 3488 2759 
L 3488 2503 
L 116 2503 
L 116 2759 
z
M 116 1741 
L 3488 1741 
L 3488 1484 
L 116 1484 
L 116 1741 
z
" transform="scale(0.015625)"/>
      </defs>
      <use xlink:href="#TimesNewRomanPSMT-53"/>
      <use xlink:href="#TimesNewRomanPSMT-74" transform="translate(55.615234 0)"/>
      <use xlink:href="#TimesNewRomanPSMT-61" transform="translate(83.398438 0)"/>
      <use xlink:href="#TimesNewRomanPSMT-6e" transform="translate(127.783203 0)"/>
      <use xlink:href="#TimesNewRomanPSMT-64" transform="translate(177.783203 0)"/>
      <use xlink:href="#TimesNewRomanPSMT-61" transform="translate(227.783203 0)"/>
      <use xlink:href="#TimesNewRomanPSMT-72" transform="translate(272.167969 0)"/>
      <use xlink:href="#TimesNewRomanPSMT-64" transform="translate(305.46875 0)"/>
      <use xlink:href="#TimesNewRomanPSMT-20" transform="translate(355.46875 0)"/>
      <use xlink:href="#TimesNewRomanPSMT-57" transform="translate(378.71875 0)"/>
      <use xlink:href="#TimesNewRomanPSMT-65" transform="translate(465.103516 0)"/>
      <use xlink:href="#TimesNewRomanPSMT-69" transform="translate(509.488281 0)"/>
      <use xlink:href="#TimesNewRomanPSMT-62" transform="translate(537.271484 0)"/>
      <use xlink:href="#TimesNewRomanPSMT-75" transform="translate(587.271484 0)"/>
      <use xlink:href="#TimesNewRomanPSMT-6c" transform="translate(637.271484 0)"/>
      <use xlink:href="#TimesNewRomanPSMT-6c" transform="translate(665.054688 0)"/>
      <use xlink:href="#TimesNewRomanPSMT-20" transform="translate(692.837891 0)"/>
      <use xlink:href="#TimesNewRomanPSMT-28" transform="translate(717.837891 0)"/>
      <use xlink:href="#TimesNewRomanPSMT-6e" transform="translate(751.138672 0)"/>
      <use xlink:href="#TimesNewRomanPSMT-3d" transform="translate(801.138672 0)"/>
      <use xlink:href="#TimesNewRomanPSMT-31" transform="translate(857.535156 0)"/>
      <use xlink:href="#TimesNewRomanPSMT-29" transform="translate(907.535156 0)"/>
     </g>
    </g>
    <g id="line2d_28">
     <path d="M 467.1025 36.502969 
L 478.1025 36.502969 
L 489.1025 36.502969 
" style="fill: none; stroke-dasharray: 9.25,4; stroke-dashoffset: 0; stroke: #ff8c00; stroke-width: 2.5"/>
    </g>
    <g id="text_15">
     <!-- Mixed Weibull (n=2) -->
     <g transform="translate(497.9025 40.352969) scale(0.11 -0.11)">
      <defs>
       <path id="TimesNewRomanPSMT-78" d="M 84 2863 
L 1431 2863 
L 1431 2747 
Q 1303 2747 1251 2703 
Q 1200 2659 1200 2588 
Q 1200 2513 1309 2356 
Q 1344 2306 1413 2200 
L 1616 1875 
L 1850 2200 
Q 2075 2509 2075 2591 
Q 2075 2656 2022 2701 
Q 1969 2747 1850 2747 
L 1850 2863 
L 2819 2863 
L 2819 2747 
Q 2666 2738 2553 2663 
Q 2400 2556 2134 2200 
L 1744 1678 
L 2456 653 
Q 2719 275 2831 198 
Q 2944 122 3122 113 
L 3122 0 
L 1772 0 
L 1772 113 
Q 1913 113 1991 175 
Q 2050 219 2050 291 
Q 2050 363 1850 653 
L 1431 1266 
L 972 653 
Q 759 369 759 316 
Q 759 241 829 180 
Q 900 119 1041 113 
L 1041 0 
L 106 0 
L 106 113 
Q 219 128 303 191 
Q 422 281 703 653 
L 1303 1450 
L 759 2238 
Q 528 2575 401 2661 
Q 275 2747 84 2747 
L 84 2863 
z
" transform="scale(0.015625)"/>
      </defs>
      <use xlink:href="#TimesNewRomanPSMT-4d"/>
      <use xlink:href="#TimesNewRomanPSMT-69" transform="translate(88.916016 0)"/>
      <use xlink:href="#TimesNewRomanPSMT-78" transform="translate(116.699219 0)"/>
      <use xlink:href="#TimesNewRomanPSMT-65" transform="translate(166.699219 0)"/>
      <use xlink:href="#TimesNewRomanPSMT-64" transform="translate(211.083984 0)"/>
      <use xlink:href="#TimesNewRomanPSMT-20" transform="translate(261.083984 0)"/>
      <use xlink:href="#TimesNewRomanPSMT-57" transform="translate(284.333984 0)"/>
      <use xlink:href="#TimesNewRomanPSMT-65" transform="translate(370.71875 0)"/>
      <use xlink:href="#TimesNewRomanPSMT-69" transform="translate(415.103516 0)"/>
      <use xlink:href="#TimesNewRomanPSMT-62" transform="translate(442.886719 0)"/>
      <use xlink:href="#TimesNewRomanPSMT-75" transform="translate(492.886719 0)"/>
      <use xlink:href="#TimesNewRomanPSMT-6c" transform="translate(542.886719 0)"/>
      <use xlink:href="#TimesNewRomanPSMT-6c" transform="translate(570.669922 0)"/>
      <use xlink:href="#TimesNewRomanPSMT-20" transform="translate(598.453125 0)"/>
      <use xlink:href="#TimesNewRomanPSMT-28" transform="translate(623.453125 0)"/>
      <use xlink:href="#TimesNewRomanPSMT-6e" transform="translate(656.753906 0)"/>
      <use xlink:href="#TimesNewRomanPSMT-3d" transform="translate(706.753906 0)"/>
      <use xlink:href="#TimesNewRomanPSMT-32" transform="translate(763.150391 0)"/>
      <use xlink:href="#TimesNewRomanPSMT-29" transform="translate(813.150391 0)"/>
     </g>
    </g>
    <g id="line2d_29">
     <path d="M 467.1025 52.055938 
L 478.1025 52.055938 
L 489.1025 52.055938 
" style="fill: none; stroke: #b22222; stroke-width: 2; stroke-linecap: square"/>
    </g>
    <g id="text_16">
     <!-- Mixed Weibull (n=3) -->
     <g transform="translate(497.9025 55.905938) scale(0.11 -0.11)">
      <use xlink:href="#TimesNewRomanPSMT-4d"/>
      <use xlink:href="#TimesNewRomanPSMT-69" transform="translate(88.916016 0)"/>
      <use xlink:href="#TimesNewRomanPSMT-78" transform="translate(116.699219 0)"/>
      <use xlink:href="#TimesNewRomanPSMT-65" transform="translate(166.699219 0)"/>
      <use xlink:href="#TimesNewRomanPSMT-64" transform="translate(211.083984 0)"/>
      <use xlink:href="#TimesNewRomanPSMT-20" transform="translate(261.083984 0)"/>
      <use xlink:href="#TimesNewRomanPSMT-57" transform="translate(284.333984 0)"/>
      <use xlink:href="#TimesNewRomanPSMT-65" transform="translate(370.71875 0)"/>
      <use xlink:href="#TimesNewRomanPSMT-69" transform="translate(415.103516 0)"/>
      <use xlink:href="#TimesNewRomanPSMT-62" transform="translate(442.886719 0)"/>
      <use xlink:href="#TimesNewRomanPSMT-75" transform="translate(492.886719 0)"/>
      <use xlink:href="#TimesNewRomanPSMT-6c" transform="translate(542.886719 0)"/>
      <use xlink:href="#TimesNewRomanPSMT-6c" transform="translate(570.669922 0)"/>
      <use xlink:href="#TimesNewRomanPSMT-20" transform="translate(598.453125 0)"/>
      <use xlink:href="#TimesNewRomanPSMT-28" transform="translate(623.453125 0)"/>
      <use xlink:href="#TimesNewRomanPSMT-6e" transform="translate(656.753906 0)"/>
      <use xlink:href="#TimesNewRomanPSMT-3d" transform="translate(706.753906 0)"/>
      <use xlink:href="#TimesNewRomanPSMT-33" transform="translate(763.150391 0)"/>
      <use xlink:href="#TimesNewRomanPSMT-29" transform="translate(813.150391 0)"/>
     </g>
    </g>
    <g id="line2d_30"/>
    <g id="text_17">
     <!-- Underlying Hist (Real Data) -->
     <g transform="translate(497.9025 71.458906) scale(0.11 -0.11)">
      <defs>
       <path id="TimesNewRomanPSMT-55" d="M 3053 4122 
L 3053 4238 
L 4553 4238 
L 4553 4122 
L 4394 4122 
Q 4144 4122 4009 3913 
Q 3944 3816 3944 3463 
L 3944 1744 
Q 3944 1106 3817 754 
Q 3691 403 3320 151 
Q 2950 -100 2313 -100 
Q 1619 -100 1259 140 
Q 900 381 750 788 
Q 650 1066 650 1831 
L 650 3488 
Q 650 3878 542 4000 
Q 434 4122 194 4122 
L 34 4122 
L 34 4238 
L 1866 4238 
L 1866 4122 
L 1703 4122 
Q 1441 4122 1328 3956 
Q 1250 3844 1250 3488 
L 1250 1641 
Q 1250 1394 1295 1075 
Q 1341 756 1459 578 
Q 1578 400 1801 284 
Q 2025 169 2350 169 
Q 2766 169 3094 350 
Q 3422 531 3542 814 
Q 3663 1097 3663 1772 
L 3663 3488 
Q 3663 3884 3575 3984 
Q 3453 4122 3213 4122 
L 3053 4122 
z
" transform="scale(0.015625)"/>
       <path id="TimesNewRomanPSMT-48" d="M 1316 2272 
L 3284 2272 
L 3284 3484 
Q 3284 3809 3244 3913 
Q 3213 3991 3113 4047 
Q 2978 4122 2828 4122 
L 2678 4122 
L 2678 4238 
L 4491 4238 
L 4491 4122 
L 4341 4122 
Q 4191 4122 4056 4050 
Q 3956 4000 3920 3898 
Q 3884 3797 3884 3484 
L 3884 750 
Q 3884 428 3925 325 
Q 3956 247 4053 191 
Q 4191 116 4341 116 
L 4491 116 
L 4491 0 
L 2678 0 
L 2678 116 
L 2828 116 
Q 3088 116 3206 269 
Q 3284 369 3284 750 
L 3284 2041 
L 1316 2041 
L 1316 750 
Q 1316 428 1356 325 
Q 1388 247 1488 191 
Q 1622 116 1772 116 
L 1925 116 
L 1925 0 
L 109 0 
L 109 116 
L 259 116 
Q 522 116 641 269 
Q 716 369 716 750 
L 716 3484 
Q 716 3809 675 3913 
Q 644 3991 547 4047 
Q 409 4122 259 4122 
L 109 4122 
L 109 4238 
L 1925 4238 
L 1925 4122 
L 1772 4122 
Q 1622 4122 1488 4050 
Q 1391 4000 1353 3898 
Q 1316 3797 1316 3484 
L 1316 2272 
z
" transform="scale(0.015625)"/>
       <path id="TimesNewRomanPSMT-52" d="M 4325 0 
L 3194 0 
L 1759 1981 
Q 1600 1975 1500 1975 
Q 1459 1975 1412 1976 
Q 1366 1978 1316 1981 
L 1316 750 
Q 1316 350 1403 253 
Q 1522 116 1759 116 
L 1925 116 
L 1925 0 
L 109 0 
L 109 116 
L 269 116 
Q 538 116 653 291 
Q 719 388 719 750 
L 719 3488 
Q 719 3888 631 3984 
Q 509 4122 269 4122 
L 109 4122 
L 109 4238 
L 1653 4238 
Q 2328 4238 2648 4139 
Q 2969 4041 3192 3777 
Q 3416 3513 3416 3147 
Q 3416 2756 3161 2468 
Q 2906 2181 2372 2063 
L 3247 847 
Q 3547 428 3762 290 
Q 3978 153 4325 116 
L 4325 0 
z
M 1316 2178 
Q 1375 2178 1419 2176 
Q 1463 2175 1491 2175 
Q 2097 2175 2405 2437 
Q 2713 2700 2713 3106 
Q 2713 3503 2464 3751 
Q 2216 4000 1806 4000 
Q 1625 4000 1316 3941 
L 1316 2178 
z
" transform="scale(0.015625)"/>
      </defs>
      <use xlink:href="#TimesNewRomanPSMT-55"/>
      <use xlink:href="#TimesNewRomanPSMT-6e" transform="translate(72.216797 0)"/>
      <use xlink:href="#TimesNewRomanPSMT-64" transform="translate(122.216797 0)"/>
      <use xlink:href="#TimesNewRomanPSMT-65" transform="translate(172.216797 0)"/>
      <use xlink:href="#TimesNewRomanPSMT-72" transform="translate(216.601562 0)"/>
      <use xlink:href="#TimesNewRomanPSMT-6c" transform="translate(249.902344 0)"/>
      <use xlink:href="#TimesNewRomanPSMT-79" transform="translate(277.685547 0)"/>
      <use xlink:href="#TimesNewRomanPSMT-69" transform="translate(327.685547 0)"/>
      <use xlink:href="#TimesNewRomanPSMT-6e" transform="translate(355.46875 0)"/>
      <use xlink:href="#TimesNewRomanPSMT-67" transform="translate(405.46875 0)"/>
      <use xlink:href="#TimesNewRomanPSMT-20" transform="translate(455.46875 0)"/>
      <use xlink:href="#TimesNewRomanPSMT-48" transform="translate(480.46875 0)"/>
      <use xlink:href="#TimesNewRomanPSMT-69" transform="translate(552.685547 0)"/>
      <use xlink:href="#TimesNewRomanPSMT-73" transform="translate(580.46875 0)"/>
      <use xlink:href="#TimesNewRomanPSMT-74" transform="translate(619.384766 0)"/>
      <use xlink:href="#TimesNewRomanPSMT-20" transform="translate(647.167969 0)"/>
      <use xlink:href="#TimesNewRomanPSMT-28" transform="translate(672.167969 0)"/>
      <use xlink:href="#TimesNewRomanPSMT-52" transform="translate(705.46875 0)"/>
      <use xlink:href="#TimesNewRomanPSMT-65" transform="translate(772.167969 0)"/>
      <use xlink:href="#TimesNewRomanPSMT-61" transform="translate(816.552734 0)"/>
      <use xlink:href="#TimesNewRomanPSMT-6c" transform="translate(860.9375 0)"/>
      <use xlink:href="#TimesNewRomanPSMT-20" transform="translate(888.720703 0)"/>
      <use xlink:href="#TimesNewRomanPSMT-44" transform="translate(913.720703 0)"/>
      <use xlink:href="#TimesNewRomanPSMT-61" transform="translate(985.9375 0)"/>
      <use xlink:href="#TimesNewRomanPSMT-74" transform="translate(1030.322266 0)"/>
      <use xlink:href="#TimesNewRomanPSMT-61" transform="translate(1058.105469 0)"/>
      <use xlink:href="#TimesNewRomanPSMT-29" transform="translate(1102.490234 0)"/>
     </g>
    </g>
   </g>
  </g>
 </g>
 <defs>
  <clipPath id="p4afb1640d9">
   <rect x="61.621875" y="7.2" width="571.12" height="377.74375"/>
  </clipPath>
 </defs>
</svg>
