<?xml version="1.0" encoding="utf-8" standalone="no"?>
<!DOCTYPE svg PUBLIC "-//W3C//DTD SVG 1.1//EN"
  "http://www.w3.org/Graphics/SVG/1.1/DTD/svg11.dtd">
<svg xmlns:xlink="http://www.w3.org/1999/xlink" width="496.239375pt" height="351.639687pt" viewBox="0 0 496.239375 351.639687" xmlns="http://www.w3.org/2000/svg" version="1.1">
 <metadata>
  <rdf:RDF xmlns:dc="http://purl.org/dc/elements/1.1/" xmlns:cc="http://creativecommons.org/ns#" xmlns:rdf="http://www.w3.org/1999/02/22-rdf-syntax-ns#">
   <cc:Work>
    <dc:type rdf:resource="http://purl.org/dc/dcmitype/StillImage"/>
    <dc:date>2026-03-23T22:35:05.004812</dc:date>
    <dc:format>image/svg+xml</dc:format>
    <dc:creator>
     <cc:Agent>
      <dc:title>Matplotlib v3.10.8, https://matplotlib.org/</dc:title>
     </cc:Agent>
    </dc:creator>
   </cc:Work>
  </rdf:RDF>
 </metadata>
 <defs>
  <style type="text/css">*{stroke-linejoin: round; stroke-linecap: butt}</style>
 </defs>
 <g id="figure_1">
  <g id="patch_1">
   <path d="M 0 351.639687 
L 496.239375 351.639687 
L 496.239375 0 
L 0 0 
z
" style="fill: #ffffff"/>
  </g>
  <g id="axes_1">
   <g id="patch_2">
    <path d="M 44.099375 313.435 
L 489.039375 313.435 
L 489.039375 7.2 
L 44.099375 7.2 
z
" style="fill: #ffffff"/>
   </g>
   <g id="patch_3">
    <path d="M 64.32392 313.435 
L 66.346375 313.435 
L 66.346375 173.48459 
L 64.32392 173.48459 
z
" clip-path="url(#p0189add144)" style="fill: #87ceeb; fill-opacity: 0.75; stroke: #000000; stroke-width: 0.177545; stroke-linejoin: miter"/>
   </g>
   <g id="patch_4">
    <path d="M 66.346375 313.435 
L 68.36883 313.435 
L 68.36883 85.882043 
L 66.346375 85.882043 
z
" clip-path="url(#p0189add144)" style="fill: #87ceeb; fill-opacity: 0.75; stroke: #000000; stroke-width: 0.177545; stroke-linejoin: miter"/>
   </g>
   <g id="patch_5">
    <path d="M 68.36883 313.435 
L 70.391284 313.435 
L 70.391284 83.745396 
L 68.36883 83.745396 
z
" clip-path="url(#p0189add144)" style="fill: #87ceeb; fill-opacity: 0.75; stroke: #000000; stroke-width: 0.177545; stroke-linejoin: miter"/>
   </g>
   <g id="patch_6">
    <path d="M 70.391284 313.435 
L 72.413739 313.435 
L 72.413739 37.807475 
L 70.391284 37.807475 
z
" clip-path="url(#p0189add144)" style="fill: #87ceeb; fill-opacity: 0.75; stroke: #000000; stroke-width: 0.177545; stroke-linejoin: miter"/>
   </g>
   <g id="patch_7">
    <path d="M 72.413739 313.435 
L 74.436193 313.435 
L 74.436193 21.782619 
L 72.413739 21.782619 
z
" clip-path="url(#p0189add144)" style="fill: #87ceeb; fill-opacity: 0.75; stroke: #000000; stroke-width: 0.177545; stroke-linejoin: miter"/>
   </g>
   <g id="patch_8">
    <path d="M 74.436193 313.435 
L 76.458648 313.435 
L 76.458648 88.018691 
L 74.436193 88.018691 
z
" clip-path="url(#p0189add144)" style="fill: #87ceeb; fill-opacity: 0.75; stroke: #000000; stroke-width: 0.177545; stroke-linejoin: miter"/>
   </g>
   <g id="patch_9">
    <path d="M 76.458648 313.435 
L 78.481102 313.435 
L 78.481102 69.857187 
L 76.458648 69.857187 
z
" clip-path="url(#p0189add144)" style="fill: #87ceeb; fill-opacity: 0.75; stroke: #000000; stroke-width: 0.177545; stroke-linejoin: miter"/>
   </g>
   <g id="patch_10">
    <path d="M 78.481102 313.435 
L 80.503557 313.435 
L 80.503557 106.180194 
L 78.481102 106.180194 
z
" clip-path="url(#p0189add144)" style="fill: #87ceeb; fill-opacity: 0.75; stroke: #000000; stroke-width: 0.177545; stroke-linejoin: miter"/>
   </g>
   <g id="patch_11">
    <path d="M 80.503557 313.435 
L 82.526011 313.435 
L 82.526011 65.583892 
L 80.503557 65.583892 
z
" clip-path="url(#p0189add144)" style="fill: #87ceeb; fill-opacity: 0.75; stroke: #000000; stroke-width: 0.177545; stroke-linejoin: miter"/>
   </g>
   <g id="patch_12">
    <path d="M 82.526011 313.435 
L 84.548466 313.435 
L 84.548466 92.291986 
L 82.526011 92.291986 
z
" clip-path="url(#p0189add144)" style="fill: #87ceeb; fill-opacity: 0.75; stroke: #000000; stroke-width: 0.177545; stroke-linejoin: miter"/>
   </g>
   <g id="patch_13">
    <path d="M 84.548466 313.435 
L 86.57092 313.435 
L 86.57092 114.726784 
L 84.548466 114.726784 
z
" clip-path="url(#p0189add144)" style="fill: #87ceeb; fill-opacity: 0.75; stroke: #000000; stroke-width: 0.177545; stroke-linejoin: miter"/>
   </g>
   <g id="patch_14">
    <path d="M 86.57092 313.435 
L 88.593375 313.435 
L 88.593375 101.9069 
L 86.57092 101.9069 
z
" clip-path="url(#p0189add144)" style="fill: #87ceeb; fill-opacity: 0.75; stroke: #000000; stroke-width: 0.177545; stroke-linejoin: miter"/>
   </g>
   <g id="patch_15">
    <path d="M 88.593375 313.435 
L 90.61583 313.435 
L 90.61583 159.596381 
L 88.593375 159.596381 
z
" clip-path="url(#p0189add144)" style="fill: #87ceeb; fill-opacity: 0.75; stroke: #000000; stroke-width: 0.177545; stroke-linejoin: miter"/>
   </g>
   <g id="patch_16">
    <path d="M 90.61583 313.435 
L 92.638284 313.435 
L 92.638284 141.434878 
L 90.61583 141.434878 
z
" clip-path="url(#p0189add144)" style="fill: #87ceeb; fill-opacity: 0.75; stroke: #000000; stroke-width: 0.177545; stroke-linejoin: miter"/>
   </g>
   <g id="patch_17">
    <path d="M 92.638284 313.435 
L 94.660739 313.435 
L 94.660739 143.571525 
L 92.638284 143.571525 
z
" clip-path="url(#p0189add144)" style="fill: #87ceeb; fill-opacity: 0.75; stroke: #000000; stroke-width: 0.177545; stroke-linejoin: miter"/>
   </g>
   <g id="patch_18">
    <path d="M 94.660739 313.435 
L 96.683193 313.435 
L 96.683193 188.441122 
L 94.660739 188.441122 
z
" clip-path="url(#p0189add144)" style="fill: #87ceeb; fill-opacity: 0.75; stroke: #000000; stroke-width: 0.177545; stroke-linejoin: miter"/>
   </g>
   <g id="patch_19">
    <path d="M 96.683193 313.435 
L 98.705648 313.435 
L 98.705648 175.621238 
L 96.683193 175.621238 
z
" clip-path="url(#p0189add144)" style="fill: #87ceeb; fill-opacity: 0.75; stroke: #000000; stroke-width: 0.177545; stroke-linejoin: miter"/>
   </g>
   <g id="patch_20">
    <path d="M 98.705648 313.435 
L 100.728102 313.435 
L 100.728102 204.465979 
L 98.705648 204.465979 
z
" clip-path="url(#p0189add144)" style="fill: #87ceeb; fill-opacity: 0.75; stroke: #000000; stroke-width: 0.177545; stroke-linejoin: miter"/>
   </g>
   <g id="patch_21">
    <path d="M 100.728102 313.435 
L 102.750557 313.435 
L 102.750557 160.664705 
L 100.728102 160.664705 
z
" clip-path="url(#p0189add144)" style="fill: #87ceeb; fill-opacity: 0.75; stroke: #000000; stroke-width: 0.177545; stroke-linejoin: miter"/>
   </g>
   <g id="patch_22">
    <path d="M 102.750557 313.435 
L 104.773011 313.435 
L 104.773011 213.012568 
L 102.750557 213.012568 
z
" clip-path="url(#p0189add144)" style="fill: #87ceeb; fill-opacity: 0.75; stroke: #000000; stroke-width: 0.177545; stroke-linejoin: miter"/>
   </g>
   <g id="patch_23">
    <path d="M 104.773011 313.435 
L 106.795466 313.435 
L 106.795466 202.329331 
L 104.773011 202.329331 
z
" clip-path="url(#p0189add144)" style="fill: #87ceeb; fill-opacity: 0.75; stroke: #000000; stroke-width: 0.177545; stroke-linejoin: miter"/>
   </g>
   <g id="patch_24">
    <path d="M 106.795466 313.435 
L 108.81792 313.435 
L 108.81792 213.012568 
L 106.795466 213.012568 
z
" clip-path="url(#p0189add144)" style="fill: #87ceeb; fill-opacity: 0.75; stroke: #000000; stroke-width: 0.177545; stroke-linejoin: miter"/>
   </g>
   <g id="patch_25">
    <path d="M 108.81792 313.435 
L 110.840375 313.435 
L 110.840375 219.422511 
L 108.81792 219.422511 
z
" clip-path="url(#p0189add144)" style="fill: #87ceeb; fill-opacity: 0.75; stroke: #000000; stroke-width: 0.177545; stroke-linejoin: miter"/>
   </g>
   <g id="patch_26">
    <path d="M 110.840375 313.435 
L 112.86283 313.435 
L 112.86283 236.515691 
L 110.840375 236.515691 
z
" clip-path="url(#p0189add144)" style="fill: #87ceeb; fill-opacity: 0.75; stroke: #000000; stroke-width: 0.177545; stroke-linejoin: miter"/>
   </g>
   <g id="patch_27">
    <path d="M 112.86283 313.435 
L 114.885284 313.435 
L 114.885284 217.285863 
L 112.86283 217.285863 
z
" clip-path="url(#p0189add144)" style="fill: #87ceeb; fill-opacity: 0.75; stroke: #000000; stroke-width: 0.177545; stroke-linejoin: miter"/>
   </g>
   <g id="patch_28">
    <path d="M 114.885284 313.435 
L 116.907739 313.435 
L 116.907739 235.447367 
L 114.885284 235.447367 
z
" clip-path="url(#p0189add144)" style="fill: #87ceeb; fill-opacity: 0.75; stroke: #000000; stroke-width: 0.177545; stroke-linejoin: miter"/>
   </g>
   <g id="patch_29">
    <path d="M 116.907739 313.435 
L 118.930193 313.435 
L 118.930193 252.540547 
L 116.907739 252.540547 
z
" clip-path="url(#p0189add144)" style="fill: #87ceeb; fill-opacity: 0.75; stroke: #000000; stroke-width: 0.177545; stroke-linejoin: miter"/>
   </g>
   <g id="patch_30">
    <path d="M 118.930193 313.435 
L 120.952648 313.435 
L 120.952648 237.584014 
L 118.930193 237.584014 
z
" clip-path="url(#p0189add144)" style="fill: #87ceeb; fill-opacity: 0.75; stroke: #000000; stroke-width: 0.177545; stroke-linejoin: miter"/>
   </g>
   <g id="patch_31">
    <path d="M 120.952648 313.435 
L 122.975102 313.435 
L 122.975102 245.062281 
L 120.952648 245.062281 
z
" clip-path="url(#p0189add144)" style="fill: #87ceeb; fill-opacity: 0.75; stroke: #000000; stroke-width: 0.177545; stroke-linejoin: miter"/>
   </g>
   <g id="patch_32">
    <path d="M 122.975102 313.435 
L 124.997557 313.435 
L 124.997557 210.875921 
L 122.975102 210.875921 
z
" clip-path="url(#p0189add144)" style="fill: #87ceeb; fill-opacity: 0.75; stroke: #000000; stroke-width: 0.177545; stroke-linejoin: miter"/>
   </g>
   <g id="patch_33">
    <path d="M 124.997557 313.435 
L 127.020011 313.435 
L 127.020011 232.242396 
L 124.997557 232.242396 
z
" clip-path="url(#p0189add144)" style="fill: #87ceeb; fill-opacity: 0.75; stroke: #000000; stroke-width: 0.177545; stroke-linejoin: miter"/>
   </g>
   <g id="patch_34">
    <path d="M 127.020011 313.435 
L 129.042466 313.435 
L 129.042466 258.950489 
L 127.020011 258.950489 
z
" clip-path="url(#p0189add144)" style="fill: #87ceeb; fill-opacity: 0.75; stroke: #000000; stroke-width: 0.177545; stroke-linejoin: miter"/>
   </g>
   <g id="patch_35">
    <path d="M 129.042466 313.435 
L 131.06492 313.435 
L 131.06492 264.292108 
L 129.042466 264.292108 
z
" clip-path="url(#p0189add144)" style="fill: #87ceeb; fill-opacity: 0.75; stroke: #000000; stroke-width: 0.177545; stroke-linejoin: miter"/>
   </g>
   <g id="patch_36">
    <path d="M 131.06492 313.435 
L 133.087375 313.435 
L 133.087375 267.497079 
L 131.06492 267.497079 
z
" clip-path="url(#p0189add144)" style="fill: #87ceeb; fill-opacity: 0.75; stroke: #000000; stroke-width: 0.177545; stroke-linejoin: miter"/>
   </g>
   <g id="patch_37">
    <path d="M 133.087375 313.435 
L 135.10983 313.435 
L 135.10983 266.428755 
L 133.087375 266.428755 
z
" clip-path="url(#p0189add144)" style="fill: #87ceeb; fill-opacity: 0.75; stroke: #000000; stroke-width: 0.177545; stroke-linejoin: miter"/>
   </g>
   <g id="patch_38">
    <path d="M 135.10983 313.435 
L 137.132284 313.435 
L 137.132284 293.136849 
L 135.10983 293.136849 
z
" clip-path="url(#p0189add144)" style="fill: #87ceeb; fill-opacity: 0.75; stroke: #000000; stroke-width: 0.177545; stroke-linejoin: miter"/>
   </g>
   <g id="patch_39">
    <path d="M 137.132284 313.435 
L 139.154739 313.435 
L 139.154739 266.428755 
L 137.132284 266.428755 
z
" clip-path="url(#p0189add144)" style="fill: #87ceeb; fill-opacity: 0.75; stroke: #000000; stroke-width: 0.177545; stroke-linejoin: miter"/>
   </g>
   <g id="patch_40">
    <path d="M 139.154739 313.435 
L 141.177193 313.435 
L 141.177193 282.453612 
L 139.154739 282.453612 
z
" clip-path="url(#p0189add144)" style="fill: #87ceeb; fill-opacity: 0.75; stroke: #000000; stroke-width: 0.177545; stroke-linejoin: miter"/>
   </g>
   <g id="patch_41">
    <path d="M 141.177193 313.435 
L 143.199648 313.435 
L 143.199648 272.838698 
L 141.177193 272.838698 
z
" clip-path="url(#p0189add144)" style="fill: #87ceeb; fill-opacity: 0.75; stroke: #000000; stroke-width: 0.177545; stroke-linejoin: miter"/>
   </g>
   <g id="patch_42">
    <path d="M 143.199648 313.435 
L 145.222102 313.435 
L 145.222102 266.428755 
L 143.199648 266.428755 
z
" clip-path="url(#p0189add144)" style="fill: #87ceeb; fill-opacity: 0.75; stroke: #000000; stroke-width: 0.177545; stroke-linejoin: miter"/>
   </g>
   <g id="patch_43">
    <path d="M 145.222102 313.435 
L 147.244557 313.435 
L 147.244557 276.043669 
L 145.222102 276.043669 
z
" clip-path="url(#p0189add144)" style="fill: #87ceeb; fill-opacity: 0.75; stroke: #000000; stroke-width: 0.177545; stroke-linejoin: miter"/>
   </g>
   <g id="patch_44">
    <path d="M 147.244557 313.435 
L 149.267011 313.435 
L 149.267011 262.15546 
L 147.244557 262.15546 
z
" clip-path="url(#p0189add144)" style="fill: #87ceeb; fill-opacity: 0.75; stroke: #000000; stroke-width: 0.177545; stroke-linejoin: miter"/>
   </g>
   <g id="patch_45">
    <path d="M 149.267011 313.435 
L 151.289466 313.435 
L 151.289466 285.658583 
L 149.267011 285.658583 
z
" clip-path="url(#p0189add144)" style="fill: #87ceeb; fill-opacity: 0.75; stroke: #000000; stroke-width: 0.177545; stroke-linejoin: miter"/>
   </g>
   <g id="patch_46">
    <path d="M 151.289466 313.435 
L 153.31192 313.435 
L 153.31192 298.478468 
L 151.289466 298.478468 
z
" clip-path="url(#p0189add144)" style="fill: #87ceeb; fill-opacity: 0.75; stroke: #000000; stroke-width: 0.177545; stroke-linejoin: miter"/>
   </g>
   <g id="patch_47">
    <path d="M 153.31192 313.435 
L 155.334375 313.435 
L 155.334375 298.478468 
L 153.31192 298.478468 
z
" clip-path="url(#p0189add144)" style="fill: #87ceeb; fill-opacity: 0.75; stroke: #000000; stroke-width: 0.177545; stroke-linejoin: miter"/>
   </g>
   <g id="patch_48">
    <path d="M 155.334375 313.435 
L 157.35683 313.435 
L 157.35683 305.956734 
L 155.334375 305.956734 
z
" clip-path="url(#p0189add144)" style="fill: #87ceeb; fill-opacity: 0.75; stroke: #000000; stroke-width: 0.177545; stroke-linejoin: miter"/>
   </g>
   <g id="patch_49">
    <path d="M 157.35683 313.435 
L 159.379284 313.435 
L 159.379284 303.820086 
L 157.35683 303.820086 
z
" clip-path="url(#p0189add144)" style="fill: #87ceeb; fill-opacity: 0.75; stroke: #000000; stroke-width: 0.177545; stroke-linejoin: miter"/>
   </g>
   <g id="patch_50">
    <path d="M 159.379284 313.435 
L 161.401739 313.435 
L 161.401739 308.093381 
L 159.379284 308.093381 
z
" clip-path="url(#p0189add144)" style="fill: #87ceeb; fill-opacity: 0.75; stroke: #000000; stroke-width: 0.177545; stroke-linejoin: miter"/>
   </g>
   <g id="patch_51">
    <path d="M 161.401739 313.435 
L 163.424193 313.435 
L 163.424193 312.366676 
L 161.401739 312.366676 
z
" clip-path="url(#p0189add144)" style="fill: #87ceeb; fill-opacity: 0.75; stroke: #000000; stroke-width: 0.177545; stroke-linejoin: miter"/>
   </g>
   <g id="patch_52">
    <path d="M 163.424193 313.435 
L 165.446648 313.435 
L 165.446648 310.230029 
L 163.424193 310.230029 
z
" clip-path="url(#p0189add144)" style="fill: #87ceeb; fill-opacity: 0.75; stroke: #000000; stroke-width: 0.177545; stroke-linejoin: miter"/>
   </g>
   <g id="patch_53">
    <path d="M 165.446648 313.435 
L 167.469102 313.435 
L 167.469102 310.230029 
L 165.446648 310.230029 
z
" clip-path="url(#p0189add144)" style="fill: #87ceeb; fill-opacity: 0.75; stroke: #000000; stroke-width: 0.177545; stroke-linejoin: miter"/>
   </g>
   <g id="patch_54">
    <path d="M 167.469102 313.435 
L 169.491557 313.435 
L 169.491557 309.161705 
L 167.469102 309.161705 
z
" clip-path="url(#p0189add144)" style="fill: #87ceeb; fill-opacity: 0.75; stroke: #000000; stroke-width: 0.177545; stroke-linejoin: miter"/>
   </g>
   <g id="patch_55">
    <path d="M 169.491557 313.435 
L 171.514011 313.435 
L 171.514011 305.956734 
L 169.491557 305.956734 
z
" clip-path="url(#p0189add144)" style="fill: #87ceeb; fill-opacity: 0.75; stroke: #000000; stroke-width: 0.177545; stroke-linejoin: miter"/>
   </g>
   <g id="patch_56">
    <path d="M 171.514011 313.435 
L 173.536466 313.435 
L 173.536466 305.956734 
L 171.514011 305.956734 
z
" clip-path="url(#p0189add144)" style="fill: #87ceeb; fill-opacity: 0.75; stroke: #000000; stroke-width: 0.177545; stroke-linejoin: miter"/>
   </g>
   <g id="patch_57">
    <path d="M 173.536466 313.435 
L 175.55892 313.435 
L 175.55892 300.615115 
L 173.536466 300.615115 
z
" clip-path="url(#p0189add144)" style="fill: #87ceeb; fill-opacity: 0.75; stroke: #000000; stroke-width: 0.177545; stroke-linejoin: miter"/>
   </g>
   <g id="patch_58">
    <path d="M 175.55892 313.435 
L 177.581375 313.435 
L 177.581375 301.683439 
L 175.55892 301.683439 
z
" clip-path="url(#p0189add144)" style="fill: #87ceeb; fill-opacity: 0.75; stroke: #000000; stroke-width: 0.177545; stroke-linejoin: miter"/>
   </g>
   <g id="patch_59">
    <path d="M 177.581375 313.435 
L 179.60383 313.435 
L 179.60383 301.683439 
L 177.581375 301.683439 
z
" clip-path="url(#p0189add144)" style="fill: #87ceeb; fill-opacity: 0.75; stroke: #000000; stroke-width: 0.177545; stroke-linejoin: miter"/>
   </g>
   <g id="patch_60">
    <path d="M 179.60383 313.435 
L 181.626284 313.435 
L 181.626284 309.161705 
L 179.60383 309.161705 
z
" clip-path="url(#p0189add144)" style="fill: #87ceeb; fill-opacity: 0.75; stroke: #000000; stroke-width: 0.177545; stroke-linejoin: miter"/>
   </g>
   <g id="patch_61">
    <path d="M 181.626284 313.435 
L 183.648739 313.435 
L 183.648739 310.230029 
L 181.626284 310.230029 
z
" clip-path="url(#p0189add144)" style="fill: #87ceeb; fill-opacity: 0.75; stroke: #000000; stroke-width: 0.177545; stroke-linejoin: miter"/>
   </g>
   <g id="patch_62">
    <path d="M 183.648739 313.435 
L 185.671193 313.435 
L 185.671193 311.298353 
L 183.648739 311.298353 
z
" clip-path="url(#p0189add144)" style="fill: #87ceeb; fill-opacity: 0.75; stroke: #000000; stroke-width: 0.177545; stroke-linejoin: miter"/>
   </g>
   <g id="patch_63">
    <path d="M 185.671193 313.435 
L 187.693648 313.435 
L 187.693648 311.298353 
L 185.671193 311.298353 
z
" clip-path="url(#p0189add144)" style="fill: #87ceeb; fill-opacity: 0.75; stroke: #000000; stroke-width: 0.177545; stroke-linejoin: miter"/>
   </g>
   <g id="patch_64">
    <path d="M 187.693648 313.435 
L 189.716102 313.435 
L 189.716102 310.230029 
L 187.693648 310.230029 
z
" clip-path="url(#p0189add144)" style="fill: #87ceeb; fill-opacity: 0.75; stroke: #000000; stroke-width: 0.177545; stroke-linejoin: miter"/>
   </g>
   <g id="patch_65">
    <path d="M 189.716102 313.435 
L 191.738557 313.435 
L 191.738557 310.230029 
L 189.716102 310.230029 
z
" clip-path="url(#p0189add144)" style="fill: #87ceeb; fill-opacity: 0.75; stroke: #000000; stroke-width: 0.177545; stroke-linejoin: miter"/>
   </g>
   <g id="patch_66">
    <path d="M 191.738557 313.435 
L 193.761011 313.435 
L 193.761011 313.435 
L 191.738557 313.435 
z
" clip-path="url(#p0189add144)" style="fill: #87ceeb; fill-opacity: 0.75; stroke: #000000; stroke-width: 0.177545; stroke-linejoin: miter"/>
   </g>
   <g id="patch_67">
    <path d="M 193.761011 313.435 
L 195.783466 313.435 
L 195.783466 312.366676 
L 193.761011 312.366676 
z
" clip-path="url(#p0189add144)" style="fill: #87ceeb; fill-opacity: 0.75; stroke: #000000; stroke-width: 0.177545; stroke-linejoin: miter"/>
   </g>
   <g id="patch_68">
    <path d="M 195.783466 313.435 
L 197.80592 313.435 
L 197.80592 312.366676 
L 195.783466 312.366676 
z
" clip-path="url(#p0189add144)" style="fill: #87ceeb; fill-opacity: 0.75; stroke: #000000; stroke-width: 0.177545; stroke-linejoin: miter"/>
   </g>
   <g id="patch_69">
    <path d="M 197.80592 313.435 
L 199.828375 313.435 
L 199.828375 313.435 
L 197.80592 313.435 
z
" clip-path="url(#p0189add144)" style="fill: #87ceeb; fill-opacity: 0.75; stroke: #000000; stroke-width: 0.177545; stroke-linejoin: miter"/>
   </g>
   <g id="patch_70">
    <path d="M 199.828375 313.435 
L 201.85083 313.435 
L 201.85083 310.230029 
L 199.828375 310.230029 
z
" clip-path="url(#p0189add144)" style="fill: #87ceeb; fill-opacity: 0.75; stroke: #000000; stroke-width: 0.177545; stroke-linejoin: miter"/>
   </g>
   <g id="patch_71">
    <path d="M 201.85083 313.435 
L 203.873284 313.435 
L 203.873284 312.366676 
L 201.85083 312.366676 
z
" clip-path="url(#p0189add144)" style="fill: #87ceeb; fill-opacity: 0.75; stroke: #000000; stroke-width: 0.177545; stroke-linejoin: miter"/>
   </g>
   <g id="patch_72">
    <path d="M 203.873284 313.435 
L 205.895739 313.435 
L 205.895739 304.88841 
L 203.873284 304.88841 
z
" clip-path="url(#p0189add144)" style="fill: #87ceeb; fill-opacity: 0.75; stroke: #000000; stroke-width: 0.177545; stroke-linejoin: miter"/>
   </g>
   <g id="patch_73">
    <path d="M 205.895739 313.435 
L 207.918193 313.435 
L 207.918193 302.751763 
L 205.895739 302.751763 
z
" clip-path="url(#p0189add144)" style="fill: #87ceeb; fill-opacity: 0.75; stroke: #000000; stroke-width: 0.177545; stroke-linejoin: miter"/>
   </g>
   <g id="patch_74">
    <path d="M 207.918193 313.435 
L 209.940648 313.435 
L 209.940648 301.683439 
L 207.918193 301.683439 
z
" clip-path="url(#p0189add144)" style="fill: #87ceeb; fill-opacity: 0.75; stroke: #000000; stroke-width: 0.177545; stroke-linejoin: miter"/>
   </g>
   <g id="patch_75">
    <path d="M 209.940648 313.435 
L 211.963102 313.435 
L 211.963102 310.230029 
L 209.940648 310.230029 
z
" clip-path="url(#p0189add144)" style="fill: #87ceeb; fill-opacity: 0.75; stroke: #000000; stroke-width: 0.177545; stroke-linejoin: miter"/>
   </g>
   <g id="patch_76">
    <path d="M 211.963102 313.435 
L 213.985557 313.435 
L 213.985557 311.298353 
L 211.963102 311.298353 
z
" clip-path="url(#p0189add144)" style="fill: #87ceeb; fill-opacity: 0.75; stroke: #000000; stroke-width: 0.177545; stroke-linejoin: miter"/>
   </g>
   <g id="patch_77">
    <path d="M 213.985557 313.435 
L 216.008011 313.435 
L 216.008011 310.230029 
L 213.985557 310.230029 
z
" clip-path="url(#p0189add144)" style="fill: #87ceeb; fill-opacity: 0.75; stroke: #000000; stroke-width: 0.177545; stroke-linejoin: miter"/>
   </g>
   <g id="patch_78">
    <path d="M 216.008011 313.435 
L 218.030466 313.435 
L 218.030466 312.366676 
L 216.008011 312.366676 
z
" clip-path="url(#p0189add144)" style="fill: #87ceeb; fill-opacity: 0.75; stroke: #000000; stroke-width: 0.177545; stroke-linejoin: miter"/>
   </g>
   <g id="patch_79">
    <path d="M 218.030466 313.435 
L 220.05292 313.435 
L 220.05292 313.435 
L 218.030466 313.435 
z
" clip-path="url(#p0189add144)" style="fill: #87ceeb; fill-opacity: 0.75; stroke: #000000; stroke-width: 0.177545; stroke-linejoin: miter"/>
   </g>
   <g id="patch_80">
    <path d="M 220.05292 313.435 
L 222.075375 313.435 
L 222.075375 309.161705 
L 220.05292 309.161705 
z
" clip-path="url(#p0189add144)" style="fill: #87ceeb; fill-opacity: 0.75; stroke: #000000; stroke-width: 0.177545; stroke-linejoin: miter"/>
   </g>
   <g id="patch_81">
    <path d="M 222.075375 313.435 
L 224.09783 313.435 
L 224.09783 313.435 
L 222.075375 313.435 
z
" clip-path="url(#p0189add144)" style="fill: #87ceeb; fill-opacity: 0.75; stroke: #000000; stroke-width: 0.177545; stroke-linejoin: miter"/>
   </g>
   <g id="patch_82">
    <path d="M 224.09783 313.435 
L 226.120284 313.435 
L 226.120284 312.366676 
L 224.09783 312.366676 
z
" clip-path="url(#p0189add144)" style="fill: #87ceeb; fill-opacity: 0.75; stroke: #000000; stroke-width: 0.177545; stroke-linejoin: miter"/>
   </g>
   <g id="patch_83">
    <path d="M 226.120284 313.435 
L 228.142739 313.435 
L 228.142739 312.366676 
L 226.120284 312.366676 
z
" clip-path="url(#p0189add144)" style="fill: #87ceeb; fill-opacity: 0.75; stroke: #000000; stroke-width: 0.177545; stroke-linejoin: miter"/>
   </g>
   <g id="patch_84">
    <path d="M 228.142739 313.435 
L 230.165193 313.435 
L 230.165193 311.298353 
L 228.142739 311.298353 
z
" clip-path="url(#p0189add144)" style="fill: #87ceeb; fill-opacity: 0.75; stroke: #000000; stroke-width: 0.177545; stroke-linejoin: miter"/>
   </g>
   <g id="patch_85">
    <path d="M 230.165193 313.435 
L 232.187648 313.435 
L 232.187648 313.435 
L 230.165193 313.435 
z
" clip-path="url(#p0189add144)" style="fill: #87ceeb; fill-opacity: 0.75; stroke: #000000; stroke-width: 0.177545; stroke-linejoin: miter"/>
   </g>
   <g id="patch_86">
    <path d="M 232.187648 313.435 
L 234.210102 313.435 
L 234.210102 313.435 
L 232.187648 313.435 
z
" clip-path="url(#p0189add144)" style="fill: #87ceeb; fill-opacity: 0.75; stroke: #000000; stroke-width: 0.177545; stroke-linejoin: miter"/>
   </g>
   <g id="patch_87">
    <path d="M 234.210102 313.435 
L 236.232557 313.435 
L 236.232557 313.435 
L 234.210102 313.435 
z
" clip-path="url(#p0189add144)" style="fill: #87ceeb; fill-opacity: 0.75; stroke: #000000; stroke-width: 0.177545; stroke-linejoin: miter"/>
   </g>
   <g id="patch_88">
    <path d="M 236.232557 313.435 
L 238.255011 313.435 
L 238.255011 313.435 
L 236.232557 313.435 
z
" clip-path="url(#p0189add144)" style="fill: #87ceeb; fill-opacity: 0.75; stroke: #000000; stroke-width: 0.177545; stroke-linejoin: miter"/>
   </g>
   <g id="patch_89">
    <path d="M 238.255011 313.435 
L 240.277466 313.435 
L 240.277466 313.435 
L 238.255011 313.435 
z
" clip-path="url(#p0189add144)" style="fill: #87ceeb; fill-opacity: 0.75; stroke: #000000; stroke-width: 0.177545; stroke-linejoin: miter"/>
   </g>
   <g id="patch_90">
    <path d="M 240.277466 313.435 
L 242.29992 313.435 
L 242.29992 313.435 
L 240.277466 313.435 
z
" clip-path="url(#p0189add144)" style="fill: #87ceeb; fill-opacity: 0.75; stroke: #000000; stroke-width: 0.177545; stroke-linejoin: miter"/>
   </g>
   <g id="patch_91">
    <path d="M 242.29992 313.435 
L 244.322375 313.435 
L 244.322375 313.435 
L 242.29992 313.435 
z
" clip-path="url(#p0189add144)" style="fill: #87ceeb; fill-opacity: 0.75; stroke: #000000; stroke-width: 0.177545; stroke-linejoin: miter"/>
   </g>
   <g id="patch_92">
    <path d="M 244.322375 313.435 
L 246.34483 313.435 
L 246.34483 312.366676 
L 244.322375 312.366676 
z
" clip-path="url(#p0189add144)" style="fill: #87ceeb; fill-opacity: 0.75; stroke: #000000; stroke-width: 0.177545; stroke-linejoin: miter"/>
   </g>
   <g id="patch_93">
    <path d="M 246.34483 313.435 
L 248.367284 313.435 
L 248.367284 312.366676 
L 246.34483 312.366676 
z
" clip-path="url(#p0189add144)" style="fill: #87ceeb; fill-opacity: 0.75; stroke: #000000; stroke-width: 0.177545; stroke-linejoin: miter"/>
   </g>
   <g id="patch_94">
    <path d="M 248.367284 313.435 
L 250.389739 313.435 
L 250.389739 313.435 
L 248.367284 313.435 
z
" clip-path="url(#p0189add144)" style="fill: #87ceeb; fill-opacity: 0.75; stroke: #000000; stroke-width: 0.177545; stroke-linejoin: miter"/>
   </g>
   <g id="patch_95">
    <path d="M 250.389739 313.435 
L 252.412193 313.435 
L 252.412193 312.366676 
L 250.389739 312.366676 
z
" clip-path="url(#p0189add144)" style="fill: #87ceeb; fill-opacity: 0.75; stroke: #000000; stroke-width: 0.177545; stroke-linejoin: miter"/>
   </g>
   <g id="patch_96">
    <path d="M 252.412193 313.435 
L 254.434648 313.435 
L 254.434648 313.435 
L 252.412193 313.435 
z
" clip-path="url(#p0189add144)" style="fill: #87ceeb; fill-opacity: 0.75; stroke: #000000; stroke-width: 0.177545; stroke-linejoin: miter"/>
   </g>
   <g id="patch_97">
    <path d="M 254.434648 313.435 
L 256.457102 313.435 
L 256.457102 313.435 
L 254.434648 313.435 
z
" clip-path="url(#p0189add144)" style="fill: #87ceeb; fill-opacity: 0.75; stroke: #000000; stroke-width: 0.177545; stroke-linejoin: miter"/>
   </g>
   <g id="patch_98">
    <path d="M 256.457102 313.435 
L 258.479557 313.435 
L 258.479557 313.435 
L 256.457102 313.435 
z
" clip-path="url(#p0189add144)" style="fill: #87ceeb; fill-opacity: 0.75; stroke: #000000; stroke-width: 0.177545; stroke-linejoin: miter"/>
   </g>
   <g id="patch_99">
    <path d="M 258.479557 313.435 
L 260.502011 313.435 
L 260.502011 310.230029 
L 258.479557 310.230029 
z
" clip-path="url(#p0189add144)" style="fill: #87ceeb; fill-opacity: 0.75; stroke: #000000; stroke-width: 0.177545; stroke-linejoin: miter"/>
   </g>
   <g id="patch_100">
    <path d="M 260.502011 313.435 
L 262.524466 313.435 
L 262.524466 310.230029 
L 260.502011 310.230029 
z
" clip-path="url(#p0189add144)" style="fill: #87ceeb; fill-opacity: 0.75; stroke: #000000; stroke-width: 0.177545; stroke-linejoin: miter"/>
   </g>
   <g id="patch_101">
    <path d="M 262.524466 313.435 
L 264.54692 313.435 
L 264.54692 310.230029 
L 262.524466 310.230029 
z
" clip-path="url(#p0189add144)" style="fill: #87ceeb; fill-opacity: 0.75; stroke: #000000; stroke-width: 0.177545; stroke-linejoin: miter"/>
   </g>
   <g id="patch_102">
    <path d="M 264.54692 313.435 
L 266.569375 313.435 
L 266.569375 310.230029 
L 264.54692 310.230029 
z
" clip-path="url(#p0189add144)" style="fill: #87ceeb; fill-opacity: 0.75; stroke: #000000; stroke-width: 0.177545; stroke-linejoin: miter"/>
   </g>
   <g id="patch_103">
    <path d="M 266.569375 313.435 
L 268.59183 313.435 
L 268.59183 311.298353 
L 266.569375 311.298353 
z
" clip-path="url(#p0189add144)" style="fill: #87ceeb; fill-opacity: 0.75; stroke: #000000; stroke-width: 0.177545; stroke-linejoin: miter"/>
   </g>
   <g id="patch_104">
    <path d="M 268.59183 313.435 
L 270.614284 313.435 
L 270.614284 313.435 
L 268.59183 313.435 
z
" clip-path="url(#p0189add144)" style="fill: #87ceeb; fill-opacity: 0.75; stroke: #000000; stroke-width: 0.177545; stroke-linejoin: miter"/>
   </g>
   <g id="patch_105">
    <path d="M 270.614284 313.435 
L 272.636739 313.435 
L 272.636739 310.230029 
L 270.614284 310.230029 
z
" clip-path="url(#p0189add144)" style="fill: #87ceeb; fill-opacity: 0.75; stroke: #000000; stroke-width: 0.177545; stroke-linejoin: miter"/>
   </g>
   <g id="patch_106">
    <path d="M 272.636739 313.435 
L 274.659193 313.435 
L 274.659193 313.435 
L 272.636739 313.435 
z
" clip-path="url(#p0189add144)" style="fill: #87ceeb; fill-opacity: 0.75; stroke: #000000; stroke-width: 0.177545; stroke-linejoin: miter"/>
   </g>
   <g id="patch_107">
    <path d="M 274.659193 313.435 
L 276.681648 313.435 
L 276.681648 313.435 
L 274.659193 313.435 
z
" clip-path="url(#p0189add144)" style="fill: #87ceeb; fill-opacity: 0.75; stroke: #000000; stroke-width: 0.177545; stroke-linejoin: miter"/>
   </g>
   <g id="patch_108">
    <path d="M 276.681648 313.435 
L 278.704102 313.435 
L 278.704102 313.435 
L 276.681648 313.435 
z
" clip-path="url(#p0189add144)" style="fill: #87ceeb; fill-opacity: 0.75; stroke: #000000; stroke-width: 0.177545; stroke-linejoin: miter"/>
   </g>
   <g id="patch_109">
    <path d="M 278.704102 313.435 
L 280.726557 313.435 
L 280.726557 313.435 
L 278.704102 313.435 
z
" clip-path="url(#p0189add144)" style="fill: #87ceeb; fill-opacity: 0.75; stroke: #000000; stroke-width: 0.177545; stroke-linejoin: miter"/>
   </g>
   <g id="patch_110">
    <path d="M 280.726557 313.435 
L 282.749011 313.435 
L 282.749011 313.435 
L 280.726557 313.435 
z
" clip-path="url(#p0189add144)" style="fill: #87ceeb; fill-opacity: 0.75; stroke: #000000; stroke-width: 0.177545; stroke-linejoin: miter"/>
   </g>
   <g id="patch_111">
    <path d="M 282.749011 313.435 
L 284.771466 313.435 
L 284.771466 313.435 
L 282.749011 313.435 
z
" clip-path="url(#p0189add144)" style="fill: #87ceeb; fill-opacity: 0.75; stroke: #000000; stroke-width: 0.177545; stroke-linejoin: miter"/>
   </g>
   <g id="patch_112">
    <path d="M 284.771466 313.435 
L 286.79392 313.435 
L 286.79392 311.298353 
L 284.771466 311.298353 
z
" clip-path="url(#p0189add144)" style="fill: #87ceeb; fill-opacity: 0.75; stroke: #000000; stroke-width: 0.177545; stroke-linejoin: miter"/>
   </g>
   <g id="patch_113">
    <path d="M 286.79392 313.435 
L 288.816375 313.435 
L 288.816375 313.435 
L 286.79392 313.435 
z
" clip-path="url(#p0189add144)" style="fill: #87ceeb; fill-opacity: 0.75; stroke: #000000; stroke-width: 0.177545; stroke-linejoin: miter"/>
   </g>
   <g id="patch_114">
    <path d="M 288.816375 313.435 
L 290.83883 313.435 
L 290.83883 313.435 
L 288.816375 313.435 
z
" clip-path="url(#p0189add144)" style="fill: #87ceeb; fill-opacity: 0.75; stroke: #000000; stroke-width: 0.177545; stroke-linejoin: miter"/>
   </g>
   <g id="patch_115">
    <path d="M 290.83883 313.435 
L 292.861284 313.435 
L 292.861284 313.435 
L 290.83883 313.435 
z
" clip-path="url(#p0189add144)" style="fill: #87ceeb; fill-opacity: 0.75; stroke: #000000; stroke-width: 0.177545; stroke-linejoin: miter"/>
   </g>
   <g id="patch_116">
    <path d="M 292.861284 313.435 
L 294.883739 313.435 
L 294.883739 312.366676 
L 292.861284 312.366676 
z
" clip-path="url(#p0189add144)" style="fill: #87ceeb; fill-opacity: 0.75; stroke: #000000; stroke-width: 0.177545; stroke-linejoin: miter"/>
   </g>
   <g id="patch_117">
    <path d="M 294.883739 313.435 
L 296.906193 313.435 
L 296.906193 313.435 
L 294.883739 313.435 
z
" clip-path="url(#p0189add144)" style="fill: #87ceeb; fill-opacity: 0.75; stroke: #000000; stroke-width: 0.177545; stroke-linejoin: miter"/>
   </g>
   <g id="patch_118">
    <path d="M 296.906193 313.435 
L 298.928648 313.435 
L 298.928648 313.435 
L 296.906193 313.435 
z
" clip-path="url(#p0189add144)" style="fill: #87ceeb; fill-opacity: 0.75; stroke: #000000; stroke-width: 0.177545; stroke-linejoin: miter"/>
   </g>
   <g id="patch_119">
    <path d="M 298.928648 313.435 
L 300.951102 313.435 
L 300.951102 313.435 
L 298.928648 313.435 
z
" clip-path="url(#p0189add144)" style="fill: #87ceeb; fill-opacity: 0.75; stroke: #000000; stroke-width: 0.177545; stroke-linejoin: miter"/>
   </g>
   <g id="patch_120">
    <path d="M 300.951102 313.435 
L 302.973557 313.435 
L 302.973557 313.435 
L 300.951102 313.435 
z
" clip-path="url(#p0189add144)" style="fill: #87ceeb; fill-opacity: 0.75; stroke: #000000; stroke-width: 0.177545; stroke-linejoin: miter"/>
   </g>
   <g id="patch_121">
    <path d="M 302.973557 313.435 
L 304.996011 313.435 
L 304.996011 313.435 
L 302.973557 313.435 
z
" clip-path="url(#p0189add144)" style="fill: #87ceeb; fill-opacity: 0.75; stroke: #000000; stroke-width: 0.177545; stroke-linejoin: miter"/>
   </g>
   <g id="patch_122">
    <path d="M 304.996011 313.435 
L 307.018466 313.435 
L 307.018466 313.435 
L 304.996011 313.435 
z
" clip-path="url(#p0189add144)" style="fill: #87ceeb; fill-opacity: 0.75; stroke: #000000; stroke-width: 0.177545; stroke-linejoin: miter"/>
   </g>
   <g id="patch_123">
    <path d="M 307.018466 313.435 
L 309.04092 313.435 
L 309.04092 313.435 
L 307.018466 313.435 
z
" clip-path="url(#p0189add144)" style="fill: #87ceeb; fill-opacity: 0.75; stroke: #000000; stroke-width: 0.177545; stroke-linejoin: miter"/>
   </g>
   <g id="patch_124">
    <path d="M 309.04092 313.435 
L 311.063375 313.435 
L 311.063375 312.366676 
L 309.04092 312.366676 
z
" clip-path="url(#p0189add144)" style="fill: #87ceeb; fill-opacity: 0.75; stroke: #000000; stroke-width: 0.177545; stroke-linejoin: miter"/>
   </g>
   <g id="patch_125">
    <path d="M 311.063375 313.435 
L 313.08583 313.435 
L 313.08583 313.435 
L 311.063375 313.435 
z
" clip-path="url(#p0189add144)" style="fill: #87ceeb; fill-opacity: 0.75; stroke: #000000; stroke-width: 0.177545; stroke-linejoin: miter"/>
   </g>
   <g id="patch_126">
    <path d="M 313.08583 313.435 
L 315.108284 313.435 
L 315.108284 312.366676 
L 313.08583 312.366676 
z
" clip-path="url(#p0189add144)" style="fill: #87ceeb; fill-opacity: 0.75; stroke: #000000; stroke-width: 0.177545; stroke-linejoin: miter"/>
   </g>
   <g id="patch_127">
    <path d="M 315.108284 313.435 
L 317.130739 313.435 
L 317.130739 313.435 
L 315.108284 313.435 
z
" clip-path="url(#p0189add144)" style="fill: #87ceeb; fill-opacity: 0.75; stroke: #000000; stroke-width: 0.177545; stroke-linejoin: miter"/>
   </g>
   <g id="patch_128">
    <path d="M 317.130739 313.435 
L 319.153193 313.435 
L 319.153193 313.435 
L 317.130739 313.435 
z
" clip-path="url(#p0189add144)" style="fill: #87ceeb; fill-opacity: 0.75; stroke: #000000; stroke-width: 0.177545; stroke-linejoin: miter"/>
   </g>
   <g id="patch_129">
    <path d="M 319.153193 313.435 
L 321.175648 313.435 
L 321.175648 312.366676 
L 319.153193 312.366676 
z
" clip-path="url(#p0189add144)" style="fill: #87ceeb; fill-opacity: 0.75; stroke: #000000; stroke-width: 0.177545; stroke-linejoin: miter"/>
   </g>
   <g id="patch_130">
    <path d="M 321.175648 313.435 
L 323.198102 313.435 
L 323.198102 312.366676 
L 321.175648 312.366676 
z
" clip-path="url(#p0189add144)" style="fill: #87ceeb; fill-opacity: 0.75; stroke: #000000; stroke-width: 0.177545; stroke-linejoin: miter"/>
   </g>
   <g id="patch_131">
    <path d="M 323.198102 313.435 
L 325.220557 313.435 
L 325.220557 309.161705 
L 323.198102 309.161705 
z
" clip-path="url(#p0189add144)" style="fill: #87ceeb; fill-opacity: 0.75; stroke: #000000; stroke-width: 0.177545; stroke-linejoin: miter"/>
   </g>
   <g id="patch_132">
    <path d="M 325.220557 313.435 
L 327.243011 313.435 
L 327.243011 312.366676 
L 325.220557 312.366676 
z
" clip-path="url(#p0189add144)" style="fill: #87ceeb; fill-opacity: 0.75; stroke: #000000; stroke-width: 0.177545; stroke-linejoin: miter"/>
   </g>
   <g id="patch_133">
    <path d="M 327.243011 313.435 
L 329.265466 313.435 
L 329.265466 313.435 
L 327.243011 313.435 
z
" clip-path="url(#p0189add144)" style="fill: #87ceeb; fill-opacity: 0.75; stroke: #000000; stroke-width: 0.177545; stroke-linejoin: miter"/>
   </g>
   <g id="patch_134">
    <path d="M 329.265466 313.435 
L 331.28792 313.435 
L 331.28792 312.366676 
L 329.265466 312.366676 
z
" clip-path="url(#p0189add144)" style="fill: #87ceeb; fill-opacity: 0.75; stroke: #000000; stroke-width: 0.177545; stroke-linejoin: miter"/>
   </g>
   <g id="patch_135">
    <path d="M 331.28792 313.435 
L 333.310375 313.435 
L 333.310375 310.230029 
L 331.28792 310.230029 
z
" clip-path="url(#p0189add144)" style="fill: #87ceeb; fill-opacity: 0.75; stroke: #000000; stroke-width: 0.177545; stroke-linejoin: miter"/>
   </g>
   <g id="patch_136">
    <path d="M 333.310375 313.435 
L 335.33283 313.435 
L 335.33283 313.435 
L 333.310375 313.435 
z
" clip-path="url(#p0189add144)" style="fill: #87ceeb; fill-opacity: 0.75; stroke: #000000; stroke-width: 0.177545; stroke-linejoin: miter"/>
   </g>
   <g id="patch_137">
    <path d="M 335.33283 313.435 
L 337.355284 313.435 
L 337.355284 313.435 
L 335.33283 313.435 
z
" clip-path="url(#p0189add144)" style="fill: #87ceeb; fill-opacity: 0.75; stroke: #000000; stroke-width: 0.177545; stroke-linejoin: miter"/>
   </g>
   <g id="patch_138">
    <path d="M 337.355284 313.435 
L 339.377739 313.435 
L 339.377739 313.435 
L 337.355284 313.435 
z
" clip-path="url(#p0189add144)" style="fill: #87ceeb; fill-opacity: 0.75; stroke: #000000; stroke-width: 0.177545; stroke-linejoin: miter"/>
   </g>
   <g id="patch_139">
    <path d="M 339.377739 313.435 
L 341.400193 313.435 
L 341.400193 313.435 
L 339.377739 313.435 
z
" clip-path="url(#p0189add144)" style="fill: #87ceeb; fill-opacity: 0.75; stroke: #000000; stroke-width: 0.177545; stroke-linejoin: miter"/>
   </g>
   <g id="patch_140">
    <path d="M 341.400193 313.435 
L 343.422648 313.435 
L 343.422648 311.298353 
L 341.400193 311.298353 
z
" clip-path="url(#p0189add144)" style="fill: #87ceeb; fill-opacity: 0.75; stroke: #000000; stroke-width: 0.177545; stroke-linejoin: miter"/>
   </g>
   <g id="patch_141">
    <path d="M 343.422648 313.435 
L 345.445102 313.435 
L 345.445102 313.435 
L 343.422648 313.435 
z
" clip-path="url(#p0189add144)" style="fill: #87ceeb; fill-opacity: 0.75; stroke: #000000; stroke-width: 0.177545; stroke-linejoin: miter"/>
   </g>
   <g id="patch_142">
    <path d="M 345.445102 313.435 
L 347.467557 313.435 
L 347.467557 310.230029 
L 345.445102 310.230029 
z
" clip-path="url(#p0189add144)" style="fill: #87ceeb; fill-opacity: 0.75; stroke: #000000; stroke-width: 0.177545; stroke-linejoin: miter"/>
   </g>
   <g id="patch_143">
    <path d="M 347.467557 313.435 
L 349.490011 313.435 
L 349.490011 312.366676 
L 347.467557 312.366676 
z
" clip-path="url(#p0189add144)" style="fill: #87ceeb; fill-opacity: 0.75; stroke: #000000; stroke-width: 0.177545; stroke-linejoin: miter"/>
   </g>
   <g id="patch_144">
    <path d="M 349.490011 313.435 
L 351.512466 313.435 
L 351.512466 313.435 
L 349.490011 313.435 
z
" clip-path="url(#p0189add144)" style="fill: #87ceeb; fill-opacity: 0.75; stroke: #000000; stroke-width: 0.177545; stroke-linejoin: miter"/>
   </g>
   <g id="patch_145">
    <path d="M 351.512466 313.435 
L 353.53492 313.435 
L 353.53492 311.298353 
L 351.512466 311.298353 
z
" clip-path="url(#p0189add144)" style="fill: #87ceeb; fill-opacity: 0.75; stroke: #000000; stroke-width: 0.177545; stroke-linejoin: miter"/>
   </g>
   <g id="patch_146">
    <path d="M 353.53492 313.435 
L 355.557375 313.435 
L 355.557375 313.435 
L 353.53492 313.435 
z
" clip-path="url(#p0189add144)" style="fill: #87ceeb; fill-opacity: 0.75; stroke: #000000; stroke-width: 0.177545; stroke-linejoin: miter"/>
   </g>
   <g id="patch_147">
    <path d="M 355.557375 313.435 
L 357.57983 313.435 
L 357.57983 312.366676 
L 355.557375 312.366676 
z
" clip-path="url(#p0189add144)" style="fill: #87ceeb; fill-opacity: 0.75; stroke: #000000; stroke-width: 0.177545; stroke-linejoin: miter"/>
   </g>
   <g id="patch_148">
    <path d="M 357.57983 313.435 
L 359.602284 313.435 
L 359.602284 313.435 
L 357.57983 313.435 
z
" clip-path="url(#p0189add144)" style="fill: #87ceeb; fill-opacity: 0.75; stroke: #000000; stroke-width: 0.177545; stroke-linejoin: miter"/>
   </g>
   <g id="patch_149">
    <path d="M 359.602284 313.435 
L 361.624739 313.435 
L 361.624739 313.435 
L 359.602284 313.435 
z
" clip-path="url(#p0189add144)" style="fill: #87ceeb; fill-opacity: 0.75; stroke: #000000; stroke-width: 0.177545; stroke-linejoin: miter"/>
   </g>
   <g id="patch_150">
    <path d="M 361.624739 313.435 
L 363.647193 313.435 
L 363.647193 313.435 
L 361.624739 313.435 
z
" clip-path="url(#p0189add144)" style="fill: #87ceeb; fill-opacity: 0.75; stroke: #000000; stroke-width: 0.177545; stroke-linejoin: miter"/>
   </g>
   <g id="patch_151">
    <path d="M 363.647193 313.435 
L 365.669648 313.435 
L 365.669648 313.435 
L 363.647193 313.435 
z
" clip-path="url(#p0189add144)" style="fill: #87ceeb; fill-opacity: 0.75; stroke: #000000; stroke-width: 0.177545; stroke-linejoin: miter"/>
   </g>
   <g id="patch_152">
    <path d="M 365.669648 313.435 
L 367.692102 313.435 
L 367.692102 313.435 
L 365.669648 313.435 
z
" clip-path="url(#p0189add144)" style="fill: #87ceeb; fill-opacity: 0.75; stroke: #000000; stroke-width: 0.177545; stroke-linejoin: miter"/>
   </g>
   <g id="patch_153">
    <path d="M 367.692102 313.435 
L 369.714557 313.435 
L 369.714557 311.298353 
L 367.692102 311.298353 
z
" clip-path="url(#p0189add144)" style="fill: #87ceeb; fill-opacity: 0.75; stroke: #000000; stroke-width: 0.177545; stroke-linejoin: miter"/>
   </g>
   <g id="patch_154">
    <path d="M 369.714557 313.435 
L 371.737011 313.435 
L 371.737011 313.435 
L 369.714557 313.435 
z
" clip-path="url(#p0189add144)" style="fill: #87ceeb; fill-opacity: 0.75; stroke: #000000; stroke-width: 0.177545; stroke-linejoin: miter"/>
   </g>
   <g id="patch_155">
    <path d="M 371.737011 313.435 
L 373.759466 313.435 
L 373.759466 313.435 
L 371.737011 313.435 
z
" clip-path="url(#p0189add144)" style="fill: #87ceeb; fill-opacity: 0.75; stroke: #000000; stroke-width: 0.177545; stroke-linejoin: miter"/>
   </g>
   <g id="patch_156">
    <path d="M 373.759466 313.435 
L 375.78192 313.435 
L 375.78192 313.435 
L 373.759466 313.435 
z
" clip-path="url(#p0189add144)" style="fill: #87ceeb; fill-opacity: 0.75; stroke: #000000; stroke-width: 0.177545; stroke-linejoin: miter"/>
   </g>
   <g id="patch_157">
    <path d="M 375.78192 313.435 
L 377.804375 313.435 
L 377.804375 313.435 
L 375.78192 313.435 
z
" clip-path="url(#p0189add144)" style="fill: #87ceeb; fill-opacity: 0.75; stroke: #000000; stroke-width: 0.177545; stroke-linejoin: miter"/>
   </g>
   <g id="patch_158">
    <path d="M 377.804375 313.435 
L 379.82683 313.435 
L 379.82683 313.435 
L 377.804375 313.435 
z
" clip-path="url(#p0189add144)" style="fill: #87ceeb; fill-opacity: 0.75; stroke: #000000; stroke-width: 0.177545; stroke-linejoin: miter"/>
   </g>
   <g id="patch_159">
    <path d="M 379.82683 313.435 
L 381.849284 313.435 
L 381.849284 313.435 
L 379.82683 313.435 
z
" clip-path="url(#p0189add144)" style="fill: #87ceeb; fill-opacity: 0.75; stroke: #000000; stroke-width: 0.177545; stroke-linejoin: miter"/>
   </g>
   <g id="patch_160">
    <path d="M 381.849284 313.435 
L 383.871739 313.435 
L 383.871739 313.435 
L 381.849284 313.435 
z
" clip-path="url(#p0189add144)" style="fill: #87ceeb; fill-opacity: 0.75; stroke: #000000; stroke-width: 0.177545; stroke-linejoin: miter"/>
   </g>
   <g id="patch_161">
    <path d="M 383.871739 313.435 
L 385.894193 313.435 
L 385.894193 313.435 
L 383.871739 313.435 
z
" clip-path="url(#p0189add144)" style="fill: #87ceeb; fill-opacity: 0.75; stroke: #000000; stroke-width: 0.177545; stroke-linejoin: miter"/>
   </g>
   <g id="patch_162">
    <path d="M 385.894193 313.435 
L 387.916648 313.435 
L 387.916648 313.435 
L 385.894193 313.435 
z
" clip-path="url(#p0189add144)" style="fill: #87ceeb; fill-opacity: 0.75; stroke: #000000; stroke-width: 0.177545; stroke-linejoin: miter"/>
   </g>
   <g id="patch_163">
    <path d="M 387.916648 313.435 
L 389.939102 313.435 
L 389.939102 313.435 
L 387.916648 313.435 
z
" clip-path="url(#p0189add144)" style="fill: #87ceeb; fill-opacity: 0.75; stroke: #000000; stroke-width: 0.177545; stroke-linejoin: miter"/>
   </g>
   <g id="patch_164">
    <path d="M 389.939102 313.435 
L 391.961557 313.435 
L 391.961557 313.435 
L 389.939102 313.435 
z
" clip-path="url(#p0189add144)" style="fill: #87ceeb; fill-opacity: 0.75; stroke: #000000; stroke-width: 0.177545; stroke-linejoin: miter"/>
   </g>
   <g id="patch_165">
    <path d="M 391.961557 313.435 
L 393.984011 313.435 
L 393.984011 313.435 
L 391.961557 313.435 
z
" clip-path="url(#p0189add144)" style="fill: #87ceeb; fill-opacity: 0.75; stroke: #000000; stroke-width: 0.177545; stroke-linejoin: miter"/>
   </g>
   <g id="patch_166">
    <path d="M 393.984011 313.435 
L 396.006466 313.435 
L 396.006466 313.435 
L 393.984011 313.435 
z
" clip-path="url(#p0189add144)" style="fill: #87ceeb; fill-opacity: 0.75; stroke: #000000; stroke-width: 0.177545; stroke-linejoin: miter"/>
   </g>
   <g id="patch_167">
    <path d="M 396.006466 313.435 
L 398.02892 313.435 
L 398.02892 313.435 
L 396.006466 313.435 
z
" clip-path="url(#p0189add144)" style="fill: #87ceeb; fill-opacity: 0.75; stroke: #000000; stroke-width: 0.177545; stroke-linejoin: miter"/>
   </g>
   <g id="patch_168">
    <path d="M 398.02892 313.435 
L 400.051375 313.435 
L 400.051375 313.435 
L 398.02892 313.435 
z
" clip-path="url(#p0189add144)" style="fill: #87ceeb; fill-opacity: 0.75; stroke: #000000; stroke-width: 0.177545; stroke-linejoin: miter"/>
   </g>
   <g id="patch_169">
    <path d="M 400.051375 313.435 
L 402.07383 313.435 
L 402.07383 313.435 
L 400.051375 313.435 
z
" clip-path="url(#p0189add144)" style="fill: #87ceeb; fill-opacity: 0.75; stroke: #000000; stroke-width: 0.177545; stroke-linejoin: miter"/>
   </g>
   <g id="patch_170">
    <path d="M 402.07383 313.435 
L 404.096284 313.435 
L 404.096284 313.435 
L 402.07383 313.435 
z
" clip-path="url(#p0189add144)" style="fill: #87ceeb; fill-opacity: 0.75; stroke: #000000; stroke-width: 0.177545; stroke-linejoin: miter"/>
   </g>
   <g id="patch_171">
    <path d="M 404.096284 313.435 
L 406.118739 313.435 
L 406.118739 313.435 
L 404.096284 313.435 
z
" clip-path="url(#p0189add144)" style="fill: #87ceeb; fill-opacity: 0.75; stroke: #000000; stroke-width: 0.177545; stroke-linejoin: miter"/>
   </g>
   <g id="patch_172">
    <path d="M 406.118739 313.435 
L 408.141193 313.435 
L 408.141193 313.435 
L 406.118739 313.435 
z
" clip-path="url(#p0189add144)" style="fill: #87ceeb; fill-opacity: 0.75; stroke: #000000; stroke-width: 0.177545; stroke-linejoin: miter"/>
   </g>
   <g id="patch_173">
    <path d="M 408.141193 313.435 
L 410.163648 313.435 
L 410.163648 313.435 
L 408.141193 313.435 
z
" clip-path="url(#p0189add144)" style="fill: #87ceeb; fill-opacity: 0.75; stroke: #000000; stroke-width: 0.177545; stroke-linejoin: miter"/>
   </g>
   <g id="patch_174">
    <path d="M 410.163648 313.435 
L 412.186102 313.435 
L 412.186102 313.435 
L 410.163648 313.435 
z
" clip-path="url(#p0189add144)" style="fill: #87ceeb; fill-opacity: 0.75; stroke: #000000; stroke-width: 0.177545; stroke-linejoin: miter"/>
   </g>
   <g id="patch_175">
    <path d="M 412.186102 313.435 
L 414.208557 313.435 
L 414.208557 313.435 
L 412.186102 313.435 
z
" clip-path="url(#p0189add144)" style="fill: #87ceeb; fill-opacity: 0.75; stroke: #000000; stroke-width: 0.177545; stroke-linejoin: miter"/>
   </g>
   <g id="patch_176">
    <path d="M 414.208557 313.435 
L 416.231011 313.435 
L 416.231011 313.435 
L 414.208557 313.435 
z
" clip-path="url(#p0189add144)" style="fill: #87ceeb; fill-opacity: 0.75; stroke: #000000; stroke-width: 0.177545; stroke-linejoin: miter"/>
   </g>
   <g id="patch_177">
    <path d="M 416.231011 313.435 
L 418.253466 313.435 
L 418.253466 313.435 
L 416.231011 313.435 
z
" clip-path="url(#p0189add144)" style="fill: #87ceeb; fill-opacity: 0.75; stroke: #000000; stroke-width: 0.177545; stroke-linejoin: miter"/>
   </g>
   <g id="patch_178">
    <path d="M 418.253466 313.435 
L 420.27592 313.435 
L 420.27592 313.435 
L 418.253466 313.435 
z
" clip-path="url(#p0189add144)" style="fill: #87ceeb; fill-opacity: 0.75; stroke: #000000; stroke-width: 0.177545; stroke-linejoin: miter"/>
   </g>
   <g id="patch_179">
    <path d="M 420.27592 313.435 
L 422.298375 313.435 
L 422.298375 313.435 
L 420.27592 313.435 
z
" clip-path="url(#p0189add144)" style="fill: #87ceeb; fill-opacity: 0.75; stroke: #000000; stroke-width: 0.177545; stroke-linejoin: miter"/>
   </g>
   <g id="patch_180">
    <path d="M 422.298375 313.435 
L 424.32083 313.435 
L 424.32083 313.435 
L 422.298375 313.435 
z
" clip-path="url(#p0189add144)" style="fill: #87ceeb; fill-opacity: 0.75; stroke: #000000; stroke-width: 0.177545; stroke-linejoin: miter"/>
   </g>
   <g id="patch_181">
    <path d="M 424.32083 313.435 
L 426.343284 313.435 
L 426.343284 313.435 
L 424.32083 313.435 
z
" clip-path="url(#p0189add144)" style="fill: #87ceeb; fill-opacity: 0.75; stroke: #000000; stroke-width: 0.177545; stroke-linejoin: miter"/>
   </g>
   <g id="patch_182">
    <path d="M 426.343284 313.435 
L 428.365739 313.435 
L 428.365739 313.435 
L 426.343284 313.435 
z
" clip-path="url(#p0189add144)" style="fill: #87ceeb; fill-opacity: 0.75; stroke: #000000; stroke-width: 0.177545; stroke-linejoin: miter"/>
   </g>
   <g id="patch_183">
    <path d="M 428.365739 313.435 
L 430.388193 313.435 
L 430.388193 313.435 
L 428.365739 313.435 
z
" clip-path="url(#p0189add144)" style="fill: #87ceeb; fill-opacity: 0.75; stroke: #000000; stroke-width: 0.177545; stroke-linejoin: miter"/>
   </g>
   <g id="patch_184">
    <path d="M 430.388193 313.435 
L 432.410648 313.435 
L 432.410648 313.435 
L 430.388193 313.435 
z
" clip-path="url(#p0189add144)" style="fill: #87ceeb; fill-opacity: 0.75; stroke: #000000; stroke-width: 0.177545; stroke-linejoin: miter"/>
   </g>
   <g id="patch_185">
    <path d="M 432.410648 313.435 
L 434.433102 313.435 
L 434.433102 313.435 
L 432.410648 313.435 
z
" clip-path="url(#p0189add144)" style="fill: #87ceeb; fill-opacity: 0.75; stroke: #000000; stroke-width: 0.177545; stroke-linejoin: miter"/>
   </g>
   <g id="patch_186">
    <path d="M 434.433102 313.435 
L 436.455557 313.435 
L 436.455557 313.435 
L 434.433102 313.435 
z
" clip-path="url(#p0189add144)" style="fill: #87ceeb; fill-opacity: 0.75; stroke: #000000; stroke-width: 0.177545; stroke-linejoin: miter"/>
   </g>
   <g id="patch_187">
    <path d="M 436.455557 313.435 
L 438.478011 313.435 
L 438.478011 313.435 
L 436.455557 313.435 
z
" clip-path="url(#p0189add144)" style="fill: #87ceeb; fill-opacity: 0.75; stroke: #000000; stroke-width: 0.177545; stroke-linejoin: miter"/>
   </g>
   <g id="patch_188">
    <path d="M 438.478011 313.435 
L 440.500466 313.435 
L 440.500466 313.435 
L 438.478011 313.435 
z
" clip-path="url(#p0189add144)" style="fill: #87ceeb; fill-opacity: 0.75; stroke: #000000; stroke-width: 0.177545; stroke-linejoin: miter"/>
   </g>
   <g id="patch_189">
    <path d="M 440.500466 313.435 
L 442.52292 313.435 
L 442.52292 313.435 
L 440.500466 313.435 
z
" clip-path="url(#p0189add144)" style="fill: #87ceeb; fill-opacity: 0.75; stroke: #000000; stroke-width: 0.177545; stroke-linejoin: miter"/>
   </g>
   <g id="patch_190">
    <path d="M 442.52292 313.435 
L 444.545375 313.435 
L 444.545375 313.435 
L 442.52292 313.435 
z
" clip-path="url(#p0189add144)" style="fill: #87ceeb; fill-opacity: 0.75; stroke: #000000; stroke-width: 0.177545; stroke-linejoin: miter"/>
   </g>
   <g id="patch_191">
    <path d="M 444.545375 313.435 
L 446.56783 313.435 
L 446.56783 313.435 
L 444.545375 313.435 
z
" clip-path="url(#p0189add144)" style="fill: #87ceeb; fill-opacity: 0.75; stroke: #000000; stroke-width: 0.177545; stroke-linejoin: miter"/>
   </g>
   <g id="patch_192">
    <path d="M 446.56783 313.435 
L 448.590284 313.435 
L 448.590284 313.435 
L 446.56783 313.435 
z
" clip-path="url(#p0189add144)" style="fill: #87ceeb; fill-opacity: 0.75; stroke: #000000; stroke-width: 0.177545; stroke-linejoin: miter"/>
   </g>
   <g id="patch_193">
    <path d="M 448.590284 313.435 
L 450.612739 313.435 
L 450.612739 313.435 
L 448.590284 313.435 
z
" clip-path="url(#p0189add144)" style="fill: #87ceeb; fill-opacity: 0.75; stroke: #000000; stroke-width: 0.177545; stroke-linejoin: miter"/>
   </g>
   <g id="patch_194">
    <path d="M 450.612739 313.435 
L 452.635193 313.435 
L 452.635193 313.435 
L 450.612739 313.435 
z
" clip-path="url(#p0189add144)" style="fill: #87ceeb; fill-opacity: 0.75; stroke: #000000; stroke-width: 0.177545; stroke-linejoin: miter"/>
   </g>
   <g id="patch_195">
    <path d="M 452.635193 313.435 
L 454.657648 313.435 
L 454.657648 313.435 
L 452.635193 313.435 
z
" clip-path="url(#p0189add144)" style="fill: #87ceeb; fill-opacity: 0.75; stroke: #000000; stroke-width: 0.177545; stroke-linejoin: miter"/>
   </g>
   <g id="patch_196">
    <path d="M 454.657648 313.435 
L 456.680102 313.435 
L 456.680102 313.435 
L 454.657648 313.435 
z
" clip-path="url(#p0189add144)" style="fill: #87ceeb; fill-opacity: 0.75; stroke: #000000; stroke-width: 0.177545; stroke-linejoin: miter"/>
   </g>
   <g id="patch_197">
    <path d="M 456.680102 313.435 
L 458.702557 313.435 
L 458.702557 313.435 
L 456.680102 313.435 
z
" clip-path="url(#p0189add144)" style="fill: #87ceeb; fill-opacity: 0.75; stroke: #000000; stroke-width: 0.177545; stroke-linejoin: miter"/>
   </g>
   <g id="patch_198">
    <path d="M 458.702557 313.435 
L 460.725011 313.435 
L 460.725011 313.435 
L 458.702557 313.435 
z
" clip-path="url(#p0189add144)" style="fill: #87ceeb; fill-opacity: 0.75; stroke: #000000; stroke-width: 0.177545; stroke-linejoin: miter"/>
   </g>
   <g id="patch_199">
    <path d="M 460.725011 313.435 
L 462.747466 313.435 
L 462.747466 313.435 
L 460.725011 313.435 
z
" clip-path="url(#p0189add144)" style="fill: #87ceeb; fill-opacity: 0.75; stroke: #000000; stroke-width: 0.177545; stroke-linejoin: miter"/>
   </g>
   <g id="patch_200">
    <path d="M 462.747466 313.435 
L 464.76992 313.435 
L 464.76992 313.435 
L 462.747466 313.435 
z
" clip-path="url(#p0189add144)" style="fill: #87ceeb; fill-opacity: 0.75; stroke: #000000; stroke-width: 0.177545; stroke-linejoin: miter"/>
   </g>
   <g id="patch_201">
    <path d="M 464.76992 313.435 
L 466.792375 313.435 
L 466.792375 313.435 
L 464.76992 313.435 
z
" clip-path="url(#p0189add144)" style="fill: #87ceeb; fill-opacity: 0.75; stroke: #000000; stroke-width: 0.177545; stroke-linejoin: miter"/>
   </g>
   <g id="patch_202">
    <path d="M 466.792375 313.435 
L 468.81483 313.435 
L 468.81483 312.366676 
L 466.792375 312.366676 
z
" clip-path="url(#p0189add144)" style="fill: #87ceeb; fill-opacity: 0.75; stroke: #000000; stroke-width: 0.177545; stroke-linejoin: miter"/>
   </g>
   <g id="matplotlib.axis_1">
    <g id="xtick_1">
     <g id="line2d_1">
      <defs>
       <path id="m53182422f4" d="M 0 0 
L 0 3.5 
" style="stroke: #000000; stroke-width: 0.8"/>
      </defs>
      <g>
       <use xlink:href="#m53182422f4" x="64.088888" y="313.435" style="stroke: #000000; stroke-width: 0.8"/>
      </g>
     </g>
     <g id="text_1">
      <!-- 0 -->
      <g transform="translate(61.588888 327.37875) scale(0.1 -0.1)">
       <defs>
        <path id="TimesNewRomanPSMT-30" d="M 231 2094 
Q 231 2819 450 3342 
Q 669 3866 1031 4122 
Q 1313 4325 1613 4325 
Q 2100 4325 2488 3828 
Q 2972 3213 2972 2159 
Q 2972 1422 2759 906 
Q 2547 391 2217 158 
Q 1888 -75 1581 -75 
Q 975 -75 572 641 
Q 231 1244 231 2094 
z
M 844 2016 
Q 844 1141 1059 588 
Q 1238 122 1591 122 
Q 1759 122 1940 273 
Q 2122 425 2216 781 
Q 2359 1319 2359 2297 
Q 2359 3022 2209 3506 
Q 2097 3866 1919 4016 
Q 1791 4119 1609 4119 
Q 1397 4119 1231 3928 
Q 1006 3669 925 3112 
Q 844 2556 844 2016 
z
" transform="scale(0.015625)"/>
       </defs>
       <use xlink:href="#TimesNewRomanPSMT-30"/>
      </g>
     </g>
    </g>
    <g id="xtick_2">
     <g id="line2d_2">
      <g>
       <use xlink:href="#m53182422f4" x="122.84701" y="313.435" style="stroke: #000000; stroke-width: 0.8"/>
      </g>
     </g>
     <g id="text_2">
      <!-- 250 -->
      <g transform="translate(115.34701 327.37875) scale(0.1 -0.1)">
       <defs>
        <path id="TimesNewRomanPSMT-32" d="M 2934 816 
L 2638 0 
L 138 0 
L 138 116 
Q 1241 1122 1691 1759 
Q 2141 2397 2141 2925 
Q 2141 3328 1894 3587 
Q 1647 3847 1303 3847 
Q 991 3847 742 3664 
Q 494 3481 375 3128 
L 259 3128 
Q 338 3706 661 4015 
Q 984 4325 1469 4325 
Q 1984 4325 2329 3994 
Q 2675 3663 2675 3213 
Q 2675 2891 2525 2569 
Q 2294 2063 1775 1497 
Q 997 647 803 472 
L 1909 472 
Q 2247 472 2383 497 
Q 2519 522 2628 598 
Q 2738 675 2819 816 
L 2934 816 
z
" transform="scale(0.015625)"/>
        <path id="TimesNewRomanPSMT-35" d="M 2778 4238 
L 2534 3706 
L 1259 3706 
L 981 3138 
Q 1809 3016 2294 2522 
Q 2709 2097 2709 1522 
Q 2709 1188 2573 903 
Q 2438 619 2231 419 
Q 2025 219 1772 97 
Q 1413 -75 1034 -75 
Q 653 -75 479 54 
Q 306 184 306 341 
Q 306 428 378 495 
Q 450 563 559 563 
Q 641 563 702 538 
Q 763 513 909 409 
Q 1144 247 1384 247 
Q 1750 247 2026 523 
Q 2303 800 2303 1197 
Q 2303 1581 2056 1914 
Q 1809 2247 1375 2428 
Q 1034 2569 447 2591 
L 1259 4238 
L 2778 4238 
z
" transform="scale(0.015625)"/>
       </defs>
       <use xlink:href="#TimesNewRomanPSMT-32"/>
       <use xlink:href="#TimesNewRomanPSMT-35" transform="translate(50 0)"/>
       <use xlink:href="#TimesNewRomanPSMT-30" transform="translate(100 0)"/>
      </g>
     </g>
    </g>
    <g id="xtick_3">
     <g id="line2d_3">
      <g>
       <use xlink:href="#m53182422f4" x="181.605131" y="313.435" style="stroke: #000000; stroke-width: 0.8"/>
      </g>
     </g>
     <g id="text_3">
      <!-- 500 -->
      <g transform="translate(174.105131 327.37875) scale(0.1 -0.1)">
       <use xlink:href="#TimesNewRomanPSMT-35"/>
       <use xlink:href="#TimesNewRomanPSMT-30" transform="translate(50 0)"/>
       <use xlink:href="#TimesNewRomanPSMT-30" transform="translate(100 0)"/>
      </g>
     </g>
    </g>
    <g id="xtick_4">
     <g id="line2d_4">
      <g>
       <use xlink:href="#m53182422f4" x="240.363253" y="313.435" style="stroke: #000000; stroke-width: 0.8"/>
      </g>
     </g>
     <g id="text_4">
      <!-- 750 -->
      <g transform="translate(232.863253 327.37875) scale(0.1 -0.1)">
       <defs>
        <path id="TimesNewRomanPSMT-37" d="M 644 4238 
L 2916 4238 
L 2916 4119 
L 1503 -88 
L 1153 -88 
L 2419 3728 
L 1253 3728 
Q 900 3728 750 3644 
Q 488 3500 328 3200 
L 238 3234 
L 644 4238 
z
" transform="scale(0.015625)"/>
       </defs>
       <use xlink:href="#TimesNewRomanPSMT-37"/>
       <use xlink:href="#TimesNewRomanPSMT-35" transform="translate(50 0)"/>
       <use xlink:href="#TimesNewRomanPSMT-30" transform="translate(100 0)"/>
      </g>
     </g>
    </g>
    <g id="xtick_5">
     <g id="line2d_5">
      <g>
       <use xlink:href="#m53182422f4" x="299.121374" y="313.435" style="stroke: #000000; stroke-width: 0.8"/>
      </g>
     </g>
     <g id="text_5">
      <!-- 1000 -->
      <g transform="translate(289.121374 327.37875) scale(0.1 -0.1)">
       <defs>
        <path id="TimesNewRomanPSMT-31" d="M 750 3822 
L 1781 4325 
L 1884 4325 
L 1884 747 
Q 1884 391 1914 303 
Q 1944 216 2037 169 
Q 2131 122 2419 116 
L 2419 0 
L 825 0 
L 825 116 
Q 1125 122 1212 167 
Q 1300 213 1334 289 
Q 1369 366 1369 747 
L 1369 3034 
Q 1369 3497 1338 3628 
Q 1316 3728 1258 3775 
Q 1200 3822 1119 3822 
Q 1003 3822 797 3725 
L 750 3822 
z
" transform="scale(0.015625)"/>
       </defs>
       <use xlink:href="#TimesNewRomanPSMT-31"/>
       <use xlink:href="#TimesNewRomanPSMT-30" transform="translate(50 0)"/>
       <use xlink:href="#TimesNewRomanPSMT-30" transform="translate(100 0)"/>
       <use xlink:href="#TimesNewRomanPSMT-30" transform="translate(150 0)"/>
      </g>
     </g>
    </g>
    <g id="xtick_6">
     <g id="line2d_6">
      <g>
       <use xlink:href="#m53182422f4" x="357.879496" y="313.435" style="stroke: #000000; stroke-width: 0.8"/>
      </g>
     </g>
     <g id="text_6">
      <!-- 1250 -->
      <g transform="translate(347.879496 327.37875) scale(0.1 -0.1)">
       <use xlink:href="#TimesNewRomanPSMT-31"/>
       <use xlink:href="#TimesNewRomanPSMT-32" transform="translate(50 0)"/>
       <use xlink:href="#TimesNewRomanPSMT-35" transform="translate(100 0)"/>
       <use xlink:href="#TimesNewRomanPSMT-30" transform="translate(150 0)"/>
      </g>
     </g>
    </g>
    <g id="xtick_7">
     <g id="line2d_7">
      <g>
       <use xlink:href="#m53182422f4" x="416.637618" y="313.435" style="stroke: #000000; stroke-width: 0.8"/>
      </g>
     </g>
     <g id="text_7">
      <!-- 1500 -->
      <g transform="translate(406.637618 327.37875) scale(0.1 -0.1)">
       <use xlink:href="#TimesNewRomanPSMT-31"/>
       <use xlink:href="#TimesNewRomanPSMT-35" transform="translate(50 0)"/>
       <use xlink:href="#TimesNewRomanPSMT-30" transform="translate(100 0)"/>
       <use xlink:href="#TimesNewRomanPSMT-30" transform="translate(150 0)"/>
      </g>
     </g>
    </g>
    <g id="xtick_8">
     <g id="line2d_8">
      <g>
       <use xlink:href="#m53182422f4" x="475.395739" y="313.435" style="stroke: #000000; stroke-width: 0.8"/>
      </g>
     </g>
     <g id="text_8">
      <!-- 1750 -->
      <g transform="translate(465.395739 327.37875) scale(0.1 -0.1)">
       <use xlink:href="#TimesNewRomanPSMT-31"/>
       <use xlink:href="#TimesNewRomanPSMT-37" transform="translate(50 0)"/>
       <use xlink:href="#TimesNewRomanPSMT-35" transform="translate(100 0)"/>
       <use xlink:href="#TimesNewRomanPSMT-30" transform="translate(150 0)"/>
      </g>
     </g>
    </g>
    <g id="text_9">
     <!-- Failure Time (Days) -->
     <g transform="translate(217.9 341.850312) scale(0.12 -0.12)">
      <defs>
       <path id="TimesNewRomanPSMT-46" d="M 1309 4006 
L 1309 2341 
L 2081 2341 
Q 2347 2341 2470 2458 
Q 2594 2575 2634 2922 
L 2750 2922 
L 2750 1488 
L 2634 1488 
Q 2631 1734 2570 1850 
Q 2509 1966 2401 2023 
Q 2294 2081 2081 2081 
L 1309 2081 
L 1309 750 
Q 1309 428 1350 325 
Q 1381 247 1481 191 
Q 1619 116 1769 116 
L 1922 116 
L 1922 0 
L 103 0 
L 103 116 
L 253 116 
Q 516 116 634 269 
Q 709 369 709 750 
L 709 3488 
Q 709 3809 669 3913 
Q 638 3991 541 4047 
Q 406 4122 253 4122 
L 103 4122 
L 103 4238 
L 3256 4238 
L 3297 3306 
L 3188 3306 
Q 3106 3603 2998 3742 
Q 2891 3881 2733 3943 
Q 2575 4006 2244 4006 
L 1309 4006 
z
" transform="scale(0.015625)"/>
       <path id="TimesNewRomanPSMT-61" d="M 1822 413 
Q 1381 72 1269 19 
Q 1100 -59 909 -59 
Q 613 -59 420 144 
Q 228 347 228 678 
Q 228 888 322 1041 
Q 450 1253 767 1440 
Q 1084 1628 1822 1897 
L 1822 2009 
Q 1822 2438 1686 2597 
Q 1550 2756 1291 2756 
Q 1094 2756 978 2650 
Q 859 2544 859 2406 
L 866 2225 
Q 866 2081 792 2003 
Q 719 1925 600 1925 
Q 484 1925 411 2006 
Q 338 2088 338 2228 
Q 338 2497 613 2722 
Q 888 2947 1384 2947 
Q 1766 2947 2009 2819 
Q 2194 2722 2281 2516 
Q 2338 2381 2338 1966 
L 2338 994 
Q 2338 584 2353 492 
Q 2369 400 2405 369 
Q 2441 338 2488 338 
Q 2538 338 2575 359 
Q 2641 400 2828 588 
L 2828 413 
Q 2478 -56 2159 -56 
Q 2006 -56 1915 50 
Q 1825 156 1822 413 
z
M 1822 616 
L 1822 1706 
Q 1350 1519 1213 1441 
Q 966 1303 859 1153 
Q 753 1003 753 825 
Q 753 600 887 451 
Q 1022 303 1197 303 
Q 1434 303 1822 616 
z
" transform="scale(0.015625)"/>
       <path id="TimesNewRomanPSMT-69" d="M 928 4444 
Q 1059 4444 1151 4351 
Q 1244 4259 1244 4128 
Q 1244 3997 1151 3903 
Q 1059 3809 928 3809 
Q 797 3809 703 3903 
Q 609 3997 609 4128 
Q 609 4259 701 4351 
Q 794 4444 928 4444 
z
M 1188 2947 
L 1188 647 
Q 1188 378 1227 289 
Q 1266 200 1342 156 
Q 1419 113 1622 113 
L 1622 0 
L 231 0 
L 231 113 
Q 441 113 512 153 
Q 584 194 626 287 
Q 669 381 669 647 
L 669 1750 
Q 669 2216 641 2353 
Q 619 2453 572 2492 
Q 525 2531 444 2531 
Q 356 2531 231 2484 
L 188 2597 
L 1050 2947 
L 1188 2947 
z
" transform="scale(0.015625)"/>
       <path id="TimesNewRomanPSMT-6c" d="M 1184 4444 
L 1184 647 
Q 1184 378 1223 290 
Q 1263 203 1344 158 
Q 1425 113 1647 113 
L 1647 0 
L 244 0 
L 244 113 
Q 441 113 512 153 
Q 584 194 625 287 
Q 666 381 666 647 
L 666 3247 
Q 666 3731 644 3842 
Q 622 3953 573 3993 
Q 525 4034 450 4034 
Q 369 4034 244 3984 
L 191 4094 
L 1044 4444 
L 1184 4444 
z
" transform="scale(0.015625)"/>
       <path id="TimesNewRomanPSMT-75" d="M 2709 2863 
L 2709 1128 
Q 2709 631 2732 520 
Q 2756 409 2807 365 
Q 2859 322 2928 322 
Q 3025 322 3147 375 
L 3191 266 
L 2334 -88 
L 2194 -88 
L 2194 519 
Q 1825 119 1631 15 
Q 1438 -88 1222 -88 
Q 981 -88 804 51 
Q 628 191 559 409 
Q 491 628 491 1028 
L 491 2306 
Q 491 2509 447 2587 
Q 403 2666 317 2708 
Q 231 2750 6 2747 
L 6 2863 
L 1009 2863 
L 1009 947 
Q 1009 547 1148 422 
Q 1288 297 1484 297 
Q 1619 297 1789 381 
Q 1959 466 2194 703 
L 2194 2325 
Q 2194 2569 2105 2655 
Q 2016 2741 1734 2747 
L 1734 2863 
L 2709 2863 
z
" transform="scale(0.015625)"/>
       <path id="TimesNewRomanPSMT-72" d="M 1038 2947 
L 1038 2303 
Q 1397 2947 1775 2947 
Q 1947 2947 2059 2842 
Q 2172 2738 2172 2600 
Q 2172 2478 2090 2393 
Q 2009 2309 1897 2309 
Q 1788 2309 1652 2417 
Q 1516 2525 1450 2525 
Q 1394 2525 1328 2463 
Q 1188 2334 1038 2041 
L 1038 669 
Q 1038 431 1097 309 
Q 1138 225 1241 169 
Q 1344 113 1538 113 
L 1538 0 
L 72 0 
L 72 113 
Q 291 113 397 181 
Q 475 231 506 341 
Q 522 394 522 644 
L 522 1753 
Q 522 2253 501 2348 
Q 481 2444 426 2487 
Q 372 2531 291 2531 
Q 194 2531 72 2484 
L 41 2597 
L 906 2947 
L 1038 2947 
z
" transform="scale(0.015625)"/>
       <path id="TimesNewRomanPSMT-65" d="M 681 1784 
Q 678 1147 991 784 
Q 1303 422 1725 422 
Q 2006 422 2214 576 
Q 2422 731 2563 1106 
L 2659 1044 
Q 2594 616 2278 264 
Q 1963 -88 1488 -88 
Q 972 -88 605 314 
Q 238 716 238 1394 
Q 238 2128 614 2539 
Q 991 2950 1559 2950 
Q 2041 2950 2350 2633 
Q 2659 2316 2659 1784 
L 681 1784 
z
M 681 1966 
L 2006 1966 
Q 1991 2241 1941 2353 
Q 1863 2528 1708 2628 
Q 1553 2728 1384 2728 
Q 1125 2728 920 2526 
Q 716 2325 681 1966 
z
" transform="scale(0.015625)"/>
       <path id="TimesNewRomanPSMT-20" transform="scale(0.015625)"/>
       <path id="TimesNewRomanPSMT-54" d="M 3703 4238 
L 3750 3244 
L 3631 3244 
Q 3597 3506 3538 3619 
Q 3441 3800 3280 3886 
Q 3119 3972 2856 3972 
L 2259 3972 
L 2259 734 
Q 2259 344 2344 247 
Q 2463 116 2709 116 
L 2856 116 
L 2856 0 
L 1059 0 
L 1059 116 
L 1209 116 
Q 1478 116 1591 278 
Q 1659 378 1659 734 
L 1659 3972 
L 1150 3972 
Q 853 3972 728 3928 
Q 566 3869 450 3700 
Q 334 3531 313 3244 
L 194 3244 
L 244 4238 
L 3703 4238 
z
" transform="scale(0.015625)"/>
       <path id="TimesNewRomanPSMT-6d" d="M 1050 2338 
Q 1363 2650 1419 2697 
Q 1559 2816 1721 2881 
Q 1884 2947 2044 2947 
Q 2313 2947 2506 2790 
Q 2700 2634 2766 2338 
Q 3088 2713 3309 2830 
Q 3531 2947 3766 2947 
Q 3994 2947 4170 2830 
Q 4347 2713 4450 2447 
Q 4519 2266 4519 1878 
L 4519 647 
Q 4519 378 4559 278 
Q 4591 209 4675 161 
Q 4759 113 4950 113 
L 4950 0 
L 3538 0 
L 3538 113 
L 3597 113 
Q 3781 113 3884 184 
Q 3956 234 3988 344 
Q 4000 397 4000 647 
L 4000 1878 
Q 4000 2228 3916 2372 
Q 3794 2572 3525 2572 
Q 3359 2572 3192 2489 
Q 3025 2406 2788 2181 
L 2781 2147 
L 2788 2013 
L 2788 647 
Q 2788 353 2820 281 
Q 2853 209 2943 161 
Q 3034 113 3253 113 
L 3253 0 
L 1806 0 
L 1806 113 
Q 2044 113 2133 169 
Q 2222 225 2256 338 
Q 2272 391 2272 647 
L 2272 1878 
Q 2272 2228 2169 2381 
Q 2031 2581 1784 2581 
Q 1616 2581 1450 2491 
Q 1191 2353 1050 2181 
L 1050 647 
Q 1050 366 1089 281 
Q 1128 197 1204 155 
Q 1281 113 1516 113 
L 1516 0 
L 100 0 
L 100 113 
Q 297 113 375 155 
Q 453 197 493 289 
Q 534 381 534 647 
L 534 1741 
Q 534 2213 506 2350 
Q 484 2453 437 2492 
Q 391 2531 309 2531 
Q 222 2531 100 2484 
L 53 2597 
L 916 2947 
L 1050 2947 
L 1050 2338 
z
" transform="scale(0.015625)"/>
       <path id="TimesNewRomanPSMT-28" d="M 1988 -1253 
L 1988 -1369 
Q 1516 -1131 1200 -813 
Q 750 -359 506 256 
Q 263 872 263 1534 
Q 263 2503 741 3301 
Q 1219 4100 1988 4444 
L 1988 4313 
Q 1603 4100 1356 3731 
Q 1109 3363 987 2797 
Q 866 2231 866 1616 
Q 866 947 969 400 
Q 1050 -31 1165 -292 
Q 1281 -553 1476 -793 
Q 1672 -1034 1988 -1253 
z
" transform="scale(0.015625)"/>
       <path id="TimesNewRomanPSMT-44" d="M 109 0 
L 109 116 
L 269 116 
Q 538 116 650 288 
Q 719 391 719 750 
L 719 3488 
Q 719 3884 631 3984 
Q 509 4122 269 4122 
L 109 4122 
L 109 4238 
L 1834 4238 
Q 2784 4238 3279 4022 
Q 3775 3806 4076 3303 
Q 4378 2800 4378 2141 
Q 4378 1256 3841 663 
Q 3238 0 2003 0 
L 109 0 
z
M 1319 306 
Q 1716 219 1984 219 
Q 2709 219 3187 728 
Q 3666 1238 3666 2109 
Q 3666 2988 3187 3494 
Q 2709 4000 1959 4000 
Q 1678 4000 1319 3909 
L 1319 306 
z
" transform="scale(0.015625)"/>
       <path id="TimesNewRomanPSMT-79" d="M 38 2863 
L 1372 2863 
L 1372 2747 
L 1306 2747 
Q 1166 2747 1095 2686 
Q 1025 2625 1025 2534 
Q 1025 2413 1128 2197 
L 1825 753 
L 2466 2334 
Q 2519 2463 2519 2588 
Q 2519 2644 2497 2672 
Q 2472 2706 2419 2726 
Q 2366 2747 2231 2747 
L 2231 2863 
L 3163 2863 
L 3163 2747 
Q 3047 2734 2984 2696 
Q 2922 2659 2847 2556 
Q 2819 2513 2741 2316 
L 1575 -541 
Q 1406 -956 1132 -1168 
Q 859 -1381 606 -1381 
Q 422 -1381 303 -1275 
Q 184 -1169 184 -1031 
Q 184 -900 270 -820 
Q 356 -741 506 -741 
Q 609 -741 788 -809 
Q 913 -856 944 -856 
Q 1038 -856 1148 -759 
Q 1259 -663 1372 -384 
L 1575 113 
L 547 2272 
Q 500 2369 397 2513 
Q 319 2622 269 2659 
Q 197 2709 38 2747 
L 38 2863 
z
" transform="scale(0.015625)"/>
       <path id="TimesNewRomanPSMT-73" d="M 2050 2947 
L 2050 1972 
L 1947 1972 
Q 1828 2431 1642 2597 
Q 1456 2763 1169 2763 
Q 950 2763 815 2647 
Q 681 2531 681 2391 
Q 681 2216 781 2091 
Q 878 1963 1175 1819 
L 1631 1597 
Q 2266 1288 2266 781 
Q 2266 391 1970 151 
Q 1675 -88 1309 -88 
Q 1047 -88 709 6 
Q 606 38 541 38 
Q 469 38 428 -44 
L 325 -44 
L 325 978 
L 428 978 
Q 516 541 762 319 
Q 1009 97 1316 97 
Q 1531 97 1667 223 
Q 1803 350 1803 528 
Q 1803 744 1651 891 
Q 1500 1038 1047 1263 
Q 594 1488 453 1669 
Q 313 1847 313 2119 
Q 313 2472 555 2709 
Q 797 2947 1181 2947 
Q 1350 2947 1591 2875 
Q 1750 2828 1803 2828 
Q 1853 2828 1881 2850 
Q 1909 2872 1947 2947 
L 2050 2947 
z
" transform="scale(0.015625)"/>
       <path id="TimesNewRomanPSMT-29" d="M 144 4313 
L 144 4444 
Q 619 4209 934 3891 
Q 1381 3434 1625 2820 
Q 1869 2206 1869 1541 
Q 1869 572 1392 -226 
Q 916 -1025 144 -1369 
L 144 -1253 
Q 528 -1038 776 -670 
Q 1025 -303 1145 264 
Q 1266 831 1266 1447 
Q 1266 2113 1163 2663 
Q 1084 3094 967 3353 
Q 850 3613 656 3853 
Q 463 4094 144 4313 
z
" transform="scale(0.015625)"/>
      </defs>
      <use xlink:href="#TimesNewRomanPSMT-46"/>
      <use xlink:href="#TimesNewRomanPSMT-61" transform="translate(55.615234 0)"/>
      <use xlink:href="#TimesNewRomanPSMT-69" transform="translate(100 0)"/>
      <use xlink:href="#TimesNewRomanPSMT-6c" transform="translate(127.783203 0)"/>
      <use xlink:href="#TimesNewRomanPSMT-75" transform="translate(155.566406 0)"/>
      <use xlink:href="#TimesNewRomanPSMT-72" transform="translate(205.566406 0)"/>
      <use xlink:href="#TimesNewRomanPSMT-65" transform="translate(238.867188 0)"/>
      <use xlink:href="#TimesNewRomanPSMT-20" transform="translate(283.251953 0)"/>
      <use xlink:href="#TimesNewRomanPSMT-54" transform="translate(306.501953 0)"/>
      <use xlink:href="#TimesNewRomanPSMT-69" transform="translate(364.085938 0)"/>
      <use xlink:href="#TimesNewRomanPSMT-6d" transform="translate(391.869141 0)"/>
      <use xlink:href="#TimesNewRomanPSMT-65" transform="translate(469.652344 0)"/>
      <use xlink:href="#TimesNewRomanPSMT-20" transform="translate(514.037109 0)"/>
      <use xlink:href="#TimesNewRomanPSMT-28" transform="translate(539.037109 0)"/>
      <use xlink:href="#TimesNewRomanPSMT-44" transform="translate(572.337891 0)"/>
      <use xlink:href="#TimesNewRomanPSMT-61" transform="translate(644.554688 0)"/>
      <use xlink:href="#TimesNewRomanPSMT-79" transform="translate(688.939453 0)"/>
      <use xlink:href="#TimesNewRomanPSMT-73" transform="translate(738.939453 0)"/>
      <use xlink:href="#TimesNewRomanPSMT-29" transform="translate(777.855469 0)"/>
     </g>
    </g>
   </g>
   <g id="matplotlib.axis_2">
    <g id="ytick_1">
     <g id="line2d_9">
      <path d="M 44.099375 313.435 
L 489.039375 313.435 
" clip-path="url(#p0189add144)" style="fill: none; stroke-dasharray: 2.96,1.28; stroke-dashoffset: 0; stroke: #b0b0b0; stroke-opacity: 0.7; stroke-width: 0.8"/>
     </g>
     <g id="line2d_10">
      <defs>
       <path id="m8b1c9e96f0" d="M 0 0 
L -3.5 0 
" style="stroke: #000000; stroke-width: 0.8"/>
      </defs>
      <g>
       <use xlink:href="#m8b1c9e96f0" x="44.099375" y="313.435" style="stroke: #000000; stroke-width: 0.8"/>
      </g>
     </g>
     <g id="text_10">
      <!-- 0 -->
      <g transform="translate(32.099375 316.906875) scale(0.1 -0.1)">
       <use xlink:href="#TimesNewRomanPSMT-30"/>
      </g>
     </g>
    </g>
    <g id="ytick_2">
     <g id="line2d_11">
      <path d="M 44.099375 260.018813 
L 489.039375 260.018813 
" clip-path="url(#p0189add144)" style="fill: none; stroke-dasharray: 2.96,1.28; stroke-dashoffset: 0; stroke: #b0b0b0; stroke-opacity: 0.7; stroke-width: 0.8"/>
     </g>
     <g id="line2d_12">
      <g>
       <use xlink:href="#m8b1c9e96f0" x="44.099375" y="260.018813" style="stroke: #000000; stroke-width: 0.8"/>
      </g>
     </g>
     <g id="text_11">
      <!-- 50 -->
      <g transform="translate(27.099375 263.490688) scale(0.1 -0.1)">
       <use xlink:href="#TimesNewRomanPSMT-35"/>
       <use xlink:href="#TimesNewRomanPSMT-30" transform="translate(50 0)"/>
      </g>
     </g>
    </g>
    <g id="ytick_3">
     <g id="line2d_13">
      <path d="M 44.099375 206.602626 
L 489.039375 206.602626 
" clip-path="url(#p0189add144)" style="fill: none; stroke-dasharray: 2.96,1.28; stroke-dashoffset: 0; stroke: #b0b0b0; stroke-opacity: 0.7; stroke-width: 0.8"/>
     </g>
     <g id="line2d_14">
      <g>
       <use xlink:href="#m8b1c9e96f0" x="44.099375" y="206.602626" style="stroke: #000000; stroke-width: 0.8"/>
      </g>
     </g>
     <g id="text_12">
      <!-- 100 -->
      <g transform="translate(22.099375 210.074501) scale(0.1 -0.1)">
       <use xlink:href="#TimesNewRomanPSMT-31"/>
       <use xlink:href="#TimesNewRomanPSMT-30" transform="translate(50 0)"/>
       <use xlink:href="#TimesNewRomanPSMT-30" transform="translate(100 0)"/>
      </g>
     </g>
    </g>
    <g id="ytick_4">
     <g id="line2d_15">
      <path d="M 44.099375 153.186439 
L 489.039375 153.186439 
" clip-path="url(#p0189add144)" style="fill: none; stroke-dasharray: 2.96,1.28; stroke-dashoffset: 0; stroke: #b0b0b0; stroke-opacity: 0.7; stroke-width: 0.8"/>
     </g>
     <g id="line2d_16">
      <g>
       <use xlink:href="#m8b1c9e96f0" x="44.099375" y="153.186439" style="stroke: #000000; stroke-width: 0.8"/>
      </g>
     </g>
     <g id="text_13">
      <!-- 150 -->
      <g transform="translate(22.099375 156.658314) scale(0.1 -0.1)">
       <use xlink:href="#TimesNewRomanPSMT-31"/>
       <use xlink:href="#TimesNewRomanPSMT-35" transform="translate(50 0)"/>
       <use xlink:href="#TimesNewRomanPSMT-30" transform="translate(100 0)"/>
      </g>
     </g>
    </g>
    <g id="ytick_5">
     <g id="line2d_17">
      <path d="M 44.099375 99.770252 
L 489.039375 99.770252 
" clip-path="url(#p0189add144)" style="fill: none; stroke-dasharray: 2.96,1.28; stroke-dashoffset: 0; stroke: #b0b0b0; stroke-opacity: 0.7; stroke-width: 0.8"/>
     </g>
     <g id="line2d_18">
      <g>
       <use xlink:href="#m8b1c9e96f0" x="44.099375" y="99.770252" style="stroke: #000000; stroke-width: 0.8"/>
      </g>
     </g>
     <g id="text_14">
      <!-- 200 -->
      <g transform="translate(22.099375 103.242127) scale(0.1 -0.1)">
       <use xlink:href="#TimesNewRomanPSMT-32"/>
       <use xlink:href="#TimesNewRomanPSMT-30" transform="translate(50 0)"/>
       <use xlink:href="#TimesNewRomanPSMT-30" transform="translate(100 0)"/>
      </g>
     </g>
    </g>
    <g id="ytick_6">
     <g id="line2d_19">
      <path d="M 44.099375 46.354065 
L 489.039375 46.354065 
" clip-path="url(#p0189add144)" style="fill: none; stroke-dasharray: 2.96,1.28; stroke-dashoffset: 0; stroke: #b0b0b0; stroke-opacity: 0.7; stroke-width: 0.8"/>
     </g>
     <g id="line2d_20">
      <g>
       <use xlink:href="#m8b1c9e96f0" x="44.099375" y="46.354065" style="stroke: #000000; stroke-width: 0.8"/>
      </g>
     </g>
     <g id="text_15">
      <!-- 250 -->
      <g transform="translate(22.099375 49.82594) scale(0.1 -0.1)">
       <use xlink:href="#TimesNewRomanPSMT-32"/>
       <use xlink:href="#TimesNewRomanPSMT-35" transform="translate(50 0)"/>
       <use xlink:href="#TimesNewRomanPSMT-30" transform="translate(100 0)"/>
      </g>
     </g>
    </g>
    <g id="text_16">
     <!-- Frequency -->
     <g transform="translate(15.51 185.642187) rotate(-90) scale(0.12 -0.12)">
      <defs>
       <path id="TimesNewRomanPSMT-71" d="M 2734 2947 
L 2734 -734 
Q 2734 -1009 2771 -1087 
Q 2809 -1166 2889 -1209 
Q 2969 -1253 3200 -1253 
L 3200 -1369 
L 1756 -1369 
L 1756 -1253 
L 1816 -1253 
Q 1991 -1253 2081 -1203 
Q 2144 -1169 2181 -1080 
Q 2219 -991 2219 -734 
L 2219 497 
Q 1934 159 1721 35 
Q 1509 -88 1281 -88 
Q 866 -88 539 290 
Q 213 669 213 1303 
Q 213 2031 644 2489 
Q 1075 2947 1684 2947 
Q 1863 2947 2013 2897 
Q 2163 2847 2281 2747 
Q 2463 2834 2628 2947 
L 2734 2947 
z
M 2219 694 
L 2219 2038 
Q 2219 2272 2158 2406 
Q 2097 2541 1940 2634 
Q 1784 2728 1588 2728 
Q 1238 2728 988 2431 
Q 738 2134 738 1531 
Q 738 953 992 653 
Q 1247 353 1606 353 
Q 1791 353 1934 433 
Q 2078 513 2219 694 
z
" transform="scale(0.015625)"/>
       <path id="TimesNewRomanPSMT-6e" d="M 1034 2341 
Q 1538 2947 1994 2947 
Q 2228 2947 2397 2830 
Q 2566 2713 2666 2444 
Q 2734 2256 2734 1869 
L 2734 647 
Q 2734 375 2778 278 
Q 2813 200 2889 156 
Q 2966 113 3172 113 
L 3172 0 
L 1756 0 
L 1756 113 
L 1816 113 
Q 2016 113 2095 173 
Q 2175 234 2206 353 
Q 2219 400 2219 647 
L 2219 1819 
Q 2219 2209 2117 2386 
Q 2016 2563 1775 2563 
Q 1403 2563 1034 2156 
L 1034 647 
Q 1034 356 1069 288 
Q 1113 197 1189 155 
Q 1266 113 1500 113 
L 1500 0 
L 84 0 
L 84 113 
L 147 113 
Q 366 113 442 223 
Q 519 334 519 647 
L 519 1709 
Q 519 2225 495 2337 
Q 472 2450 423 2490 
Q 375 2531 294 2531 
Q 206 2531 84 2484 
L 38 2597 
L 900 2947 
L 1034 2947 
L 1034 2341 
z
" transform="scale(0.015625)"/>
       <path id="TimesNewRomanPSMT-63" d="M 2631 1088 
Q 2516 522 2178 217 
Q 1841 -88 1431 -88 
Q 944 -88 581 321 
Q 219 731 219 1428 
Q 219 2103 620 2525 
Q 1022 2947 1584 2947 
Q 2006 2947 2278 2723 
Q 2550 2500 2550 2259 
Q 2550 2141 2473 2067 
Q 2397 1994 2259 1994 
Q 2075 1994 1981 2113 
Q 1928 2178 1911 2362 
Q 1894 2547 1784 2644 
Q 1675 2738 1481 2738 
Q 1169 2738 978 2506 
Q 725 2200 725 1697 
Q 725 1184 976 792 
Q 1228 400 1656 400 
Q 1963 400 2206 609 
Q 2378 753 2541 1131 
L 2631 1088 
z
" transform="scale(0.015625)"/>
      </defs>
      <use xlink:href="#TimesNewRomanPSMT-46"/>
      <use xlink:href="#TimesNewRomanPSMT-72" transform="translate(55.615234 0)"/>
      <use xlink:href="#TimesNewRomanPSMT-65" transform="translate(88.916016 0)"/>
      <use xlink:href="#TimesNewRomanPSMT-71" transform="translate(133.300781 0)"/>
      <use xlink:href="#TimesNewRomanPSMT-75" transform="translate(183.300781 0)"/>
      <use xlink:href="#TimesNewRomanPSMT-65" transform="translate(233.300781 0)"/>
      <use xlink:href="#TimesNewRomanPSMT-6e" transform="translate(277.685547 0)"/>
      <use xlink:href="#TimesNewRomanPSMT-63" transform="translate(327.685547 0)"/>
      <use xlink:href="#TimesNewRomanPSMT-79" transform="translate(372.070312 0)"/>
     </g>
    </g>
   </g>
   <g id="patch_203">
    <path d="M 44.099375 313.435 
L 44.099375 7.2 
" style="fill: none; stroke: #000000; stroke-width: 0.8; stroke-linejoin: miter; stroke-linecap: square"/>
   </g>
   <g id="patch_204">
    <path d="M 489.039375 313.435 
L 489.039375 7.2 
" style="fill: none; stroke: #000000; stroke-width: 0.8; stroke-linejoin: miter; stroke-linecap: square"/>
   </g>
   <g id="patch_205">
    <path d="M 44.099375 313.435 
L 489.039375 313.435 
" style="fill: none; stroke: #000000; stroke-width: 0.8; stroke-linejoin: miter; stroke-linecap: square"/>
   </g>
   <g id="patch_206">
    <path d="M 44.099375 7.2 
L 489.039375 7.2 
" style="fill: none; stroke: #000000; stroke-width: 0.8; stroke-linejoin: miter; stroke-linecap: square"/>
   </g>
  </g>
 </g>
 <defs>
  <clipPath id="p0189add144">
   <rect x="44.099375" y="7.2" width="444.94" height="306.235"/>
  </clipPath>
 </defs>
</svg>
