<?xml version="1.0" encoding="utf-8" standalone="no"?>
<!DOCTYPE svg PUBLIC "-//W3C//DTD SVG 1.1//EN"
  "http://www.w3.org/Graphics/SVG/1.1/DTD/svg11.dtd">
<svg xmlns:xlink="http://www.w3.org/1999/xlink" width="496.059375pt" height="351.148438pt" viewBox="0 0 496.059375 351.148438" xmlns="http://www.w3.org/2000/svg" version="1.1">
 <metadata>
  <rdf:RDF xmlns:dc="http://purl.org/dc/elements/1.1/" xmlns:cc="http://creativecommons.org/ns#" xmlns:rdf="http://www.w3.org/1999/02/22-rdf-syntax-ns#">
   <cc:Work>
    <dc:type rdf:resource="http://purl.org/dc/dcmitype/StillImage"/>
    <dc:date>2026-03-25T11:10:42.777650</dc:date>
    <dc:format>image/svg+xml</dc:format>
    <dc:creator>
     <cc:Agent>
      <dc:title>Matplotlib v3.10.8, https://matplotlib.org/</dc:title>
     </cc:Agent>
    </dc:creator>
   </cc:Work>
  </rdf:RDF>
 </metadata>
 <defs>
  <style type="text/css">*{stroke-linejoin: round; stroke-linecap: butt}</style>
 </defs>
 <g id="figure_1">
  <g id="patch_1">
   <path d="M 0 351.148438 
L 496.059375 351.148438 
L 496.059375 0 
L 0 0 
z
" style="fill: #ffffff"/>
  </g>
  <g id="axes_1">
   <g id="patch_2">
    <path d="M 44.099375 312.94375 
L 488.859375 312.94375 
L 488.859375 7.2 
L 44.099375 7.2 
z
" style="fill: #ffffff"/>
   </g>
   <g id="patch_3">
    <path d="M 64.315739 312.94375 
L 66.337375 312.94375 
L 66.337375 173.217843 
L 64.315739 173.217843 
z
" clip-path="url(#p255fcd928d)" style="fill: #87ceeb; fill-opacity: 0.75; stroke: #000000; stroke-width: 0.177545; stroke-linejoin: miter"/>
   </g>
   <g id="patch_4">
    <path d="M 66.337375 312.94375 
L 68.359011 312.94375 
L 68.359011 85.755825 
L 66.337375 85.755825 
z
" clip-path="url(#p255fcd928d)" style="fill: #87ceeb; fill-opacity: 0.75; stroke: #000000; stroke-width: 0.177545; stroke-linejoin: miter"/>
   </g>
   <g id="patch_5">
    <path d="M 68.359011 312.94375 
L 70.380648 312.94375 
L 70.380648 83.622605 
L 68.359011 83.622605 
z
" clip-path="url(#p255fcd928d)" style="fill: #87ceeb; fill-opacity: 0.75; stroke: #000000; stroke-width: 0.177545; stroke-linejoin: miter"/>
   </g>
   <g id="patch_6">
    <path d="M 70.380648 312.94375 
L 72.402284 312.94375 
L 72.402284 37.758376 
L 70.380648 37.758376 
z
" clip-path="url(#p255fcd928d)" style="fill: #87ceeb; fill-opacity: 0.75; stroke: #000000; stroke-width: 0.177545; stroke-linejoin: miter"/>
   </g>
   <g id="patch_7">
    <path d="M 72.402284 312.94375 
L 74.42392 312.94375 
L 74.42392 21.759226 
L 72.402284 21.759226 
z
" clip-path="url(#p255fcd928d)" style="fill: #87ceeb; fill-opacity: 0.75; stroke: #000000; stroke-width: 0.177545; stroke-linejoin: miter"/>
   </g>
   <g id="patch_8">
    <path d="M 74.42392 312.94375 
L 76.445557 312.94375 
L 76.445557 87.889045 
L 74.42392 87.889045 
z
" clip-path="url(#p255fcd928d)" style="fill: #87ceeb; fill-opacity: 0.75; stroke: #000000; stroke-width: 0.177545; stroke-linejoin: miter"/>
   </g>
   <g id="patch_9">
    <path d="M 76.445557 312.94375 
L 78.467193 312.94375 
L 78.467193 69.756675 
L 76.445557 69.756675 
z
" clip-path="url(#p255fcd928d)" style="fill: #87ceeb; fill-opacity: 0.75; stroke: #000000; stroke-width: 0.177545; stroke-linejoin: miter"/>
   </g>
   <g id="patch_10">
    <path d="M 78.467193 312.94375 
L 80.48883 312.94375 
L 80.48883 106.021414 
L 78.467193 106.021414 
z
" clip-path="url(#p255fcd928d)" style="fill: #87ceeb; fill-opacity: 0.75; stroke: #000000; stroke-width: 0.177545; stroke-linejoin: miter"/>
   </g>
   <g id="patch_11">
    <path d="M 80.48883 312.94375 
L 82.510466 312.94375 
L 82.510466 65.490235 
L 80.48883 65.490235 
z
" clip-path="url(#p255fcd928d)" style="fill: #87ceeb; fill-opacity: 0.75; stroke: #000000; stroke-width: 0.177545; stroke-linejoin: miter"/>
   </g>
   <g id="patch_12">
    <path d="M 82.510466 312.94375 
L 84.532102 312.94375 
L 84.532102 92.155485 
L 82.510466 92.155485 
z
" clip-path="url(#p255fcd928d)" style="fill: #87ceeb; fill-opacity: 0.75; stroke: #000000; stroke-width: 0.177545; stroke-linejoin: miter"/>
   </g>
   <g id="patch_13">
    <path d="M 84.532102 312.94375 
L 86.553739 312.94375 
L 86.553739 114.554294 
L 84.532102 114.554294 
z
" clip-path="url(#p255fcd928d)" style="fill: #87ceeb; fill-opacity: 0.75; stroke: #000000; stroke-width: 0.177545; stroke-linejoin: miter"/>
   </g>
   <g id="patch_14">
    <path d="M 86.553739 312.94375 
L 88.575375 312.94375 
L 88.575375 101.754974 
L 86.553739 101.754974 
z
" clip-path="url(#p255fcd928d)" style="fill: #87ceeb; fill-opacity: 0.75; stroke: #000000; stroke-width: 0.177545; stroke-linejoin: miter"/>
   </g>
   <g id="patch_15">
    <path d="M 88.575375 312.94375 
L 90.597011 312.94375 
L 90.597011 159.351913 
L 88.575375 159.351913 
z
" clip-path="url(#p255fcd928d)" style="fill: #87ceeb; fill-opacity: 0.75; stroke: #000000; stroke-width: 0.177545; stroke-linejoin: miter"/>
   </g>
   <g id="patch_16">
    <path d="M 90.597011 312.94375 
L 92.618648 312.94375 
L 92.618648 141.219544 
L 90.597011 141.219544 
z
" clip-path="url(#p255fcd928d)" style="fill: #87ceeb; fill-opacity: 0.75; stroke: #000000; stroke-width: 0.177545; stroke-linejoin: miter"/>
   </g>
   <g id="patch_17">
    <path d="M 92.618648 312.94375 
L 94.640284 312.94375 
L 94.640284 143.352764 
L 92.618648 143.352764 
z
" clip-path="url(#p255fcd928d)" style="fill: #87ceeb; fill-opacity: 0.75; stroke: #000000; stroke-width: 0.177545; stroke-linejoin: miter"/>
   </g>
   <g id="patch_18">
    <path d="M 94.640284 312.94375 
L 96.66192 312.94375 
L 96.66192 188.150383 
L 94.640284 188.150383 
z
" clip-path="url(#p255fcd928d)" style="fill: #87ceeb; fill-opacity: 0.75; stroke: #000000; stroke-width: 0.177545; stroke-linejoin: miter"/>
   </g>
   <g id="patch_19">
    <path d="M 96.66192 312.94375 
L 98.683557 312.94375 
L 98.683557 175.351063 
L 96.66192 175.351063 
z
" clip-path="url(#p255fcd928d)" style="fill: #87ceeb; fill-opacity: 0.75; stroke: #000000; stroke-width: 0.177545; stroke-linejoin: miter"/>
   </g>
   <g id="patch_20">
    <path d="M 98.683557 312.94375 
L 100.705193 312.94375 
L 100.705193 204.149532 
L 98.683557 204.149532 
z
" clip-path="url(#p255fcd928d)" style="fill: #87ceeb; fill-opacity: 0.75; stroke: #000000; stroke-width: 0.177545; stroke-linejoin: miter"/>
   </g>
   <g id="patch_21">
    <path d="M 100.705193 312.94375 
L 102.72683 312.94375 
L 102.72683 160.418523 
L 100.705193 160.418523 
z
" clip-path="url(#p255fcd928d)" style="fill: #87ceeb; fill-opacity: 0.75; stroke: #000000; stroke-width: 0.177545; stroke-linejoin: miter"/>
   </g>
   <g id="patch_22">
    <path d="M 102.72683 312.94375 
L 104.748466 312.94375 
L 104.748466 212.682412 
L 102.72683 212.682412 
z
" clip-path="url(#p255fcd928d)" style="fill: #87ceeb; fill-opacity: 0.75; stroke: #000000; stroke-width: 0.177545; stroke-linejoin: miter"/>
   </g>
   <g id="patch_23">
    <path d="M 104.748466 312.94375 
L 106.770102 312.94375 
L 106.770102 202.016312 
L 104.748466 202.016312 
z
" clip-path="url(#p255fcd928d)" style="fill: #87ceeb; fill-opacity: 0.75; stroke: #000000; stroke-width: 0.177545; stroke-linejoin: miter"/>
   </g>
   <g id="patch_24">
    <path d="M 106.770102 312.94375 
L 108.791739 312.94375 
L 108.791739 212.682412 
L 106.770102 212.682412 
z
" clip-path="url(#p255fcd928d)" style="fill: #87ceeb; fill-opacity: 0.75; stroke: #000000; stroke-width: 0.177545; stroke-linejoin: miter"/>
   </g>
   <g id="patch_25">
    <path d="M 108.791739 312.94375 
L 110.813375 312.94375 
L 110.813375 219.082072 
L 108.791739 219.082072 
z
" clip-path="url(#p255fcd928d)" style="fill: #87ceeb; fill-opacity: 0.75; stroke: #000000; stroke-width: 0.177545; stroke-linejoin: miter"/>
   </g>
   <g id="patch_26">
    <path d="M 110.813375 312.94375 
L 112.835011 312.94375 
L 112.835011 236.147832 
L 110.813375 236.147832 
z
" clip-path="url(#p255fcd928d)" style="fill: #87ceeb; fill-opacity: 0.75; stroke: #000000; stroke-width: 0.177545; stroke-linejoin: miter"/>
   </g>
   <g id="patch_27">
    <path d="M 112.835011 312.94375 
L 114.856648 312.94375 
L 114.856648 216.948852 
L 112.835011 216.948852 
z
" clip-path="url(#p255fcd928d)" style="fill: #87ceeb; fill-opacity: 0.75; stroke: #000000; stroke-width: 0.177545; stroke-linejoin: miter"/>
   </g>
   <g id="patch_28">
    <path d="M 114.856648 312.94375 
L 116.878284 312.94375 
L 116.878284 235.081222 
L 114.856648 235.081222 
z
" clip-path="url(#p255fcd928d)" style="fill: #87ceeb; fill-opacity: 0.75; stroke: #000000; stroke-width: 0.177545; stroke-linejoin: miter"/>
   </g>
   <g id="patch_29">
    <path d="M 116.878284 312.94375 
L 118.89992 312.94375 
L 118.89992 252.146981 
L 116.878284 252.146981 
z
" clip-path="url(#p255fcd928d)" style="fill: #87ceeb; fill-opacity: 0.75; stroke: #000000; stroke-width: 0.177545; stroke-linejoin: miter"/>
   </g>
   <g id="patch_30">
    <path d="M 118.89992 312.94375 
L 120.921557 312.94375 
L 120.921557 237.214442 
L 118.89992 237.214442 
z
" clip-path="url(#p255fcd928d)" style="fill: #87ceeb; fill-opacity: 0.75; stroke: #000000; stroke-width: 0.177545; stroke-linejoin: miter"/>
   </g>
   <g id="patch_31">
    <path d="M 120.921557 312.94375 
L 122.943193 312.94375 
L 122.943193 244.680711 
L 120.921557 244.680711 
z
" clip-path="url(#p255fcd928d)" style="fill: #87ceeb; fill-opacity: 0.75; stroke: #000000; stroke-width: 0.177545; stroke-linejoin: miter"/>
   </g>
   <g id="patch_32">
    <path d="M 122.943193 312.94375 
L 124.96483 312.94375 
L 124.96483 210.549192 
L 122.943193 210.549192 
z
" clip-path="url(#p255fcd928d)" style="fill: #87ceeb; fill-opacity: 0.75; stroke: #000000; stroke-width: 0.177545; stroke-linejoin: miter"/>
   </g>
   <g id="patch_33">
    <path d="M 124.96483 312.94375 
L 126.986466 312.94375 
L 126.986466 231.881392 
L 124.96483 231.881392 
z
" clip-path="url(#p255fcd928d)" style="fill: #87ceeb; fill-opacity: 0.75; stroke: #000000; stroke-width: 0.177545; stroke-linejoin: miter"/>
   </g>
   <g id="patch_34">
    <path d="M 126.986466 312.94375 
L 129.008102 312.94375 
L 129.008102 258.546641 
L 126.986466 258.546641 
z
" clip-path="url(#p255fcd928d)" style="fill: #87ceeb; fill-opacity: 0.75; stroke: #000000; stroke-width: 0.177545; stroke-linejoin: miter"/>
   </g>
   <g id="patch_35">
    <path d="M 129.008102 312.94375 
L 131.029739 312.94375 
L 131.029739 263.879691 
L 129.008102 263.879691 
z
" clip-path="url(#p255fcd928d)" style="fill: #87ceeb; fill-opacity: 0.75; stroke: #000000; stroke-width: 0.177545; stroke-linejoin: miter"/>
   </g>
   <g id="patch_36">
    <path d="M 131.029739 312.94375 
L 133.051375 312.94375 
L 133.051375 267.079521 
L 131.029739 267.079521 
z
" clip-path="url(#p255fcd928d)" style="fill: #87ceeb; fill-opacity: 0.75; stroke: #000000; stroke-width: 0.177545; stroke-linejoin: miter"/>
   </g>
   <g id="patch_37">
    <path d="M 133.051375 312.94375 
L 135.073011 312.94375 
L 135.073011 266.012911 
L 133.051375 266.012911 
z
" clip-path="url(#p255fcd928d)" style="fill: #87ceeb; fill-opacity: 0.75; stroke: #000000; stroke-width: 0.177545; stroke-linejoin: miter"/>
   </g>
   <g id="patch_38">
    <path d="M 135.073011 312.94375 
L 137.094648 312.94375 
L 137.094648 292.67816 
L 135.073011 292.67816 
z
" clip-path="url(#p255fcd928d)" style="fill: #87ceeb; fill-opacity: 0.75; stroke: #000000; stroke-width: 0.177545; stroke-linejoin: miter"/>
   </g>
   <g id="patch_39">
    <path d="M 137.094648 312.94375 
L 139.116284 312.94375 
L 139.116284 266.012911 
L 137.094648 266.012911 
z
" clip-path="url(#p255fcd928d)" style="fill: #87ceeb; fill-opacity: 0.75; stroke: #000000; stroke-width: 0.177545; stroke-linejoin: miter"/>
   </g>
   <g id="patch_40">
    <path d="M 139.116284 312.94375 
L 141.13792 312.94375 
L 141.13792 282.012061 
L 139.116284 282.012061 
z
" clip-path="url(#p255fcd928d)" style="fill: #87ceeb; fill-opacity: 0.75; stroke: #000000; stroke-width: 0.177545; stroke-linejoin: miter"/>
   </g>
   <g id="patch_41">
    <path d="M 141.13792 312.94375 
L 143.159557 312.94375 
L 143.159557 272.412571 
L 141.13792 272.412571 
z
" clip-path="url(#p255fcd928d)" style="fill: #87ceeb; fill-opacity: 0.75; stroke: #000000; stroke-width: 0.177545; stroke-linejoin: miter"/>
   </g>
   <g id="patch_42">
    <path d="M 143.159557 312.94375 
L 145.181193 312.94375 
L 145.181193 266.012911 
L 143.159557 266.012911 
z
" clip-path="url(#p255fcd928d)" style="fill: #87ceeb; fill-opacity: 0.75; stroke: #000000; stroke-width: 0.177545; stroke-linejoin: miter"/>
   </g>
   <g id="patch_43">
    <path d="M 145.181193 312.94375 
L 147.20283 312.94375 
L 147.20283 275.612401 
L 145.181193 275.612401 
z
" clip-path="url(#p255fcd928d)" style="fill: #87ceeb; fill-opacity: 0.75; stroke: #000000; stroke-width: 0.177545; stroke-linejoin: miter"/>
   </g>
   <g id="patch_44">
    <path d="M 147.20283 312.94375 
L 149.224466 312.94375 
L 149.224466 261.746471 
L 147.20283 261.746471 
z
" clip-path="url(#p255fcd928d)" style="fill: #87ceeb; fill-opacity: 0.75; stroke: #000000; stroke-width: 0.177545; stroke-linejoin: miter"/>
   </g>
   <g id="patch_45">
    <path d="M 149.224466 312.94375 
L 151.246102 312.94375 
L 151.246102 285.211891 
L 149.224466 285.211891 
z
" clip-path="url(#p255fcd928d)" style="fill: #87ceeb; fill-opacity: 0.75; stroke: #000000; stroke-width: 0.177545; stroke-linejoin: miter"/>
   </g>
   <g id="patch_46">
    <path d="M 151.246102 312.94375 
L 153.267739 312.94375 
L 153.267739 298.01121 
L 151.246102 298.01121 
z
" clip-path="url(#p255fcd928d)" style="fill: #87ceeb; fill-opacity: 0.75; stroke: #000000; stroke-width: 0.177545; stroke-linejoin: miter"/>
   </g>
   <g id="patch_47">
    <path d="M 153.267739 312.94375 
L 155.289375 312.94375 
L 155.289375 298.01121 
L 153.267739 298.01121 
z
" clip-path="url(#p255fcd928d)" style="fill: #87ceeb; fill-opacity: 0.75; stroke: #000000; stroke-width: 0.177545; stroke-linejoin: miter"/>
   </g>
   <g id="patch_48">
    <path d="M 155.289375 312.94375 
L 157.311011 312.94375 
L 157.311011 305.47748 
L 155.289375 305.47748 
z
" clip-path="url(#p255fcd928d)" style="fill: #87ceeb; fill-opacity: 0.75; stroke: #000000; stroke-width: 0.177545; stroke-linejoin: miter"/>
   </g>
   <g id="patch_49">
    <path d="M 157.311011 312.94375 
L 159.332648 312.94375 
L 159.332648 303.34426 
L 157.311011 303.34426 
z
" clip-path="url(#p255fcd928d)" style="fill: #87ceeb; fill-opacity: 0.75; stroke: #000000; stroke-width: 0.177545; stroke-linejoin: miter"/>
   </g>
   <g id="patch_50">
    <path d="M 159.332648 312.94375 
L 161.354284 312.94375 
L 161.354284 307.6107 
L 159.332648 307.6107 
z
" clip-path="url(#p255fcd928d)" style="fill: #87ceeb; fill-opacity: 0.75; stroke: #000000; stroke-width: 0.177545; stroke-linejoin: miter"/>
   </g>
   <g id="patch_51">
    <path d="M 161.354284 312.94375 
L 163.37592 312.94375 
L 163.37592 311.87714 
L 161.354284 311.87714 
z
" clip-path="url(#p255fcd928d)" style="fill: #87ceeb; fill-opacity: 0.75; stroke: #000000; stroke-width: 0.177545; stroke-linejoin: miter"/>
   </g>
   <g id="patch_52">
    <path d="M 163.37592 312.94375 
L 165.397557 312.94375 
L 165.397557 309.74392 
L 163.37592 309.74392 
z
" clip-path="url(#p255fcd928d)" style="fill: #87ceeb; fill-opacity: 0.75; stroke: #000000; stroke-width: 0.177545; stroke-linejoin: miter"/>
   </g>
   <g id="patch_53">
    <path d="M 165.397557 312.94375 
L 167.419193 312.94375 
L 167.419193 309.74392 
L 165.397557 309.74392 
z
" clip-path="url(#p255fcd928d)" style="fill: #87ceeb; fill-opacity: 0.75; stroke: #000000; stroke-width: 0.177545; stroke-linejoin: miter"/>
   </g>
   <g id="patch_54">
    <path d="M 167.419193 312.94375 
L 169.44083 312.94375 
L 169.44083 308.67731 
L 167.419193 308.67731 
z
" clip-path="url(#p255fcd928d)" style="fill: #87ceeb; fill-opacity: 0.75; stroke: #000000; stroke-width: 0.177545; stroke-linejoin: miter"/>
   </g>
   <g id="patch_55">
    <path d="M 169.44083 312.94375 
L 171.462466 312.94375 
L 171.462466 305.47748 
L 169.44083 305.47748 
z
" clip-path="url(#p255fcd928d)" style="fill: #87ceeb; fill-opacity: 0.75; stroke: #000000; stroke-width: 0.177545; stroke-linejoin: miter"/>
   </g>
   <g id="patch_56">
    <path d="M 171.462466 312.94375 
L 173.484102 312.94375 
L 173.484102 305.47748 
L 171.462466 305.47748 
z
" clip-path="url(#p255fcd928d)" style="fill: #87ceeb; fill-opacity: 0.75; stroke: #000000; stroke-width: 0.177545; stroke-linejoin: miter"/>
   </g>
   <g id="patch_57">
    <path d="M 173.484102 312.94375 
L 175.505739 312.94375 
L 175.505739 300.14443 
L 173.484102 300.14443 
z
" clip-path="url(#p255fcd928d)" style="fill: #87ceeb; fill-opacity: 0.75; stroke: #000000; stroke-width: 0.177545; stroke-linejoin: miter"/>
   </g>
   <g id="patch_58">
    <path d="M 175.505739 312.94375 
L 177.527375 312.94375 
L 177.527375 301.21104 
L 175.505739 301.21104 
z
" clip-path="url(#p255fcd928d)" style="fill: #87ceeb; fill-opacity: 0.75; stroke: #000000; stroke-width: 0.177545; stroke-linejoin: miter"/>
   </g>
   <g id="patch_59">
    <path d="M 177.527375 312.94375 
L 179.549011 312.94375 
L 179.549011 301.21104 
L 177.527375 301.21104 
z
" clip-path="url(#p255fcd928d)" style="fill: #87ceeb; fill-opacity: 0.75; stroke: #000000; stroke-width: 0.177545; stroke-linejoin: miter"/>
   </g>
   <g id="patch_60">
    <path d="M 179.549011 312.94375 
L 181.570648 312.94375 
L 181.570648 308.67731 
L 179.549011 308.67731 
z
" clip-path="url(#p255fcd928d)" style="fill: #87ceeb; fill-opacity: 0.75; stroke: #000000; stroke-width: 0.177545; stroke-linejoin: miter"/>
   </g>
   <g id="patch_61">
    <path d="M 181.570648 312.94375 
L 183.592284 312.94375 
L 183.592284 309.74392 
L 181.570648 309.74392 
z
" clip-path="url(#p255fcd928d)" style="fill: #87ceeb; fill-opacity: 0.75; stroke: #000000; stroke-width: 0.177545; stroke-linejoin: miter"/>
   </g>
   <g id="patch_62">
    <path d="M 183.592284 312.94375 
L 185.61392 312.94375 
L 185.61392 310.81053 
L 183.592284 310.81053 
z
" clip-path="url(#p255fcd928d)" style="fill: #87ceeb; fill-opacity: 0.75; stroke: #000000; stroke-width: 0.177545; stroke-linejoin: miter"/>
   </g>
   <g id="patch_63">
    <path d="M 185.61392 312.94375 
L 187.635557 312.94375 
L 187.635557 310.81053 
L 185.61392 310.81053 
z
" clip-path="url(#p255fcd928d)" style="fill: #87ceeb; fill-opacity: 0.75; stroke: #000000; stroke-width: 0.177545; stroke-linejoin: miter"/>
   </g>
   <g id="patch_64">
    <path d="M 187.635557 312.94375 
L 189.657193 312.94375 
L 189.657193 309.74392 
L 187.635557 309.74392 
z
" clip-path="url(#p255fcd928d)" style="fill: #87ceeb; fill-opacity: 0.75; stroke: #000000; stroke-width: 0.177545; stroke-linejoin: miter"/>
   </g>
   <g id="patch_65">
    <path d="M 189.657193 312.94375 
L 191.67883 312.94375 
L 191.67883 309.74392 
L 189.657193 309.74392 
z
" clip-path="url(#p255fcd928d)" style="fill: #87ceeb; fill-opacity: 0.75; stroke: #000000; stroke-width: 0.177545; stroke-linejoin: miter"/>
   </g>
   <g id="patch_66">
    <path d="M 191.67883 312.94375 
L 193.700466 312.94375 
L 193.700466 312.94375 
L 191.67883 312.94375 
z
" clip-path="url(#p255fcd928d)" style="fill: #87ceeb; fill-opacity: 0.75; stroke: #000000; stroke-width: 0.177545; stroke-linejoin: miter"/>
   </g>
   <g id="patch_67">
    <path d="M 193.700466 312.94375 
L 195.722102 312.94375 
L 195.722102 311.87714 
L 193.700466 311.87714 
z
" clip-path="url(#p255fcd928d)" style="fill: #87ceeb; fill-opacity: 0.75; stroke: #000000; stroke-width: 0.177545; stroke-linejoin: miter"/>
   </g>
   <g id="patch_68">
    <path d="M 195.722102 312.94375 
L 197.743739 312.94375 
L 197.743739 311.87714 
L 195.722102 311.87714 
z
" clip-path="url(#p255fcd928d)" style="fill: #87ceeb; fill-opacity: 0.75; stroke: #000000; stroke-width: 0.177545; stroke-linejoin: miter"/>
   </g>
   <g id="patch_69">
    <path d="M 197.743739 312.94375 
L 199.765375 312.94375 
L 199.765375 312.94375 
L 197.743739 312.94375 
z
" clip-path="url(#p255fcd928d)" style="fill: #87ceeb; fill-opacity: 0.75; stroke: #000000; stroke-width: 0.177545; stroke-linejoin: miter"/>
   </g>
   <g id="patch_70">
    <path d="M 199.765375 312.94375 
L 201.787011 312.94375 
L 201.787011 309.74392 
L 199.765375 309.74392 
z
" clip-path="url(#p255fcd928d)" style="fill: #87ceeb; fill-opacity: 0.75; stroke: #000000; stroke-width: 0.177545; stroke-linejoin: miter"/>
   </g>
   <g id="patch_71">
    <path d="M 201.787011 312.94375 
L 203.808648 312.94375 
L 203.808648 311.87714 
L 201.787011 311.87714 
z
" clip-path="url(#p255fcd928d)" style="fill: #87ceeb; fill-opacity: 0.75; stroke: #000000; stroke-width: 0.177545; stroke-linejoin: miter"/>
   </g>
   <g id="patch_72">
    <path d="M 203.808648 312.94375 
L 205.830284 312.94375 
L 205.830284 304.41087 
L 203.808648 304.41087 
z
" clip-path="url(#p255fcd928d)" style="fill: #87ceeb; fill-opacity: 0.75; stroke: #000000; stroke-width: 0.177545; stroke-linejoin: miter"/>
   </g>
   <g id="patch_73">
    <path d="M 205.830284 312.94375 
L 207.85192 312.94375 
L 207.85192 302.27765 
L 205.830284 302.27765 
z
" clip-path="url(#p255fcd928d)" style="fill: #87ceeb; fill-opacity: 0.75; stroke: #000000; stroke-width: 0.177545; stroke-linejoin: miter"/>
   </g>
   <g id="patch_74">
    <path d="M 207.85192 312.94375 
L 209.873557 312.94375 
L 209.873557 301.21104 
L 207.85192 301.21104 
z
" clip-path="url(#p255fcd928d)" style="fill: #87ceeb; fill-opacity: 0.75; stroke: #000000; stroke-width: 0.177545; stroke-linejoin: miter"/>
   </g>
   <g id="patch_75">
    <path d="M 209.873557 312.94375 
L 211.895193 312.94375 
L 211.895193 309.74392 
L 209.873557 309.74392 
z
" clip-path="url(#p255fcd928d)" style="fill: #87ceeb; fill-opacity: 0.75; stroke: #000000; stroke-width: 0.177545; stroke-linejoin: miter"/>
   </g>
   <g id="patch_76">
    <path d="M 211.895193 312.94375 
L 213.91683 312.94375 
L 213.91683 310.81053 
L 211.895193 310.81053 
z
" clip-path="url(#p255fcd928d)" style="fill: #87ceeb; fill-opacity: 0.75; stroke: #000000; stroke-width: 0.177545; stroke-linejoin: miter"/>
   </g>
   <g id="patch_77">
    <path d="M 213.91683 312.94375 
L 215.938466 312.94375 
L 215.938466 309.74392 
L 213.91683 309.74392 
z
" clip-path="url(#p255fcd928d)" style="fill: #87ceeb; fill-opacity: 0.75; stroke: #000000; stroke-width: 0.177545; stroke-linejoin: miter"/>
   </g>
   <g id="patch_78">
    <path d="M 215.938466 312.94375 
L 217.960102 312.94375 
L 217.960102 311.87714 
L 215.938466 311.87714 
z
" clip-path="url(#p255fcd928d)" style="fill: #87ceeb; fill-opacity: 0.75; stroke: #000000; stroke-width: 0.177545; stroke-linejoin: miter"/>
   </g>
   <g id="patch_79">
    <path d="M 217.960102 312.94375 
L 219.981739 312.94375 
L 219.981739 312.94375 
L 217.960102 312.94375 
z
" clip-path="url(#p255fcd928d)" style="fill: #87ceeb; fill-opacity: 0.75; stroke: #000000; stroke-width: 0.177545; stroke-linejoin: miter"/>
   </g>
   <g id="patch_80">
    <path d="M 219.981739 312.94375 
L 222.003375 312.94375 
L 222.003375 308.67731 
L 219.981739 308.67731 
z
" clip-path="url(#p255fcd928d)" style="fill: #87ceeb; fill-opacity: 0.75; stroke: #000000; stroke-width: 0.177545; stroke-linejoin: miter"/>
   </g>
   <g id="patch_81">
    <path d="M 222.003375 312.94375 
L 224.025011 312.94375 
L 224.025011 312.94375 
L 222.003375 312.94375 
z
" clip-path="url(#p255fcd928d)" style="fill: #87ceeb; fill-opacity: 0.75; stroke: #000000; stroke-width: 0.177545; stroke-linejoin: miter"/>
   </g>
   <g id="patch_82">
    <path d="M 224.025011 312.94375 
L 226.046648 312.94375 
L 226.046648 311.87714 
L 224.025011 311.87714 
z
" clip-path="url(#p255fcd928d)" style="fill: #87ceeb; fill-opacity: 0.75; stroke: #000000; stroke-width: 0.177545; stroke-linejoin: miter"/>
   </g>
   <g id="patch_83">
    <path d="M 226.046648 312.94375 
L 228.068284 312.94375 
L 228.068284 311.87714 
L 226.046648 311.87714 
z
" clip-path="url(#p255fcd928d)" style="fill: #87ceeb; fill-opacity: 0.75; stroke: #000000; stroke-width: 0.177545; stroke-linejoin: miter"/>
   </g>
   <g id="patch_84">
    <path d="M 228.068284 312.94375 
L 230.08992 312.94375 
L 230.08992 310.81053 
L 228.068284 310.81053 
z
" clip-path="url(#p255fcd928d)" style="fill: #87ceeb; fill-opacity: 0.75; stroke: #000000; stroke-width: 0.177545; stroke-linejoin: miter"/>
   </g>
   <g id="patch_85">
    <path d="M 230.08992 312.94375 
L 232.111557 312.94375 
L 232.111557 312.94375 
L 230.08992 312.94375 
z
" clip-path="url(#p255fcd928d)" style="fill: #87ceeb; fill-opacity: 0.75; stroke: #000000; stroke-width: 0.177545; stroke-linejoin: miter"/>
   </g>
   <g id="patch_86">
    <path d="M 232.111557 312.94375 
L 234.133193 312.94375 
L 234.133193 312.94375 
L 232.111557 312.94375 
z
" clip-path="url(#p255fcd928d)" style="fill: #87ceeb; fill-opacity: 0.75; stroke: #000000; stroke-width: 0.177545; stroke-linejoin: miter"/>
   </g>
   <g id="patch_87">
    <path d="M 234.133193 312.94375 
L 236.15483 312.94375 
L 236.15483 312.94375 
L 234.133193 312.94375 
z
" clip-path="url(#p255fcd928d)" style="fill: #87ceeb; fill-opacity: 0.75; stroke: #000000; stroke-width: 0.177545; stroke-linejoin: miter"/>
   </g>
   <g id="patch_88">
    <path d="M 236.15483 312.94375 
L 238.176466 312.94375 
L 238.176466 312.94375 
L 236.15483 312.94375 
z
" clip-path="url(#p255fcd928d)" style="fill: #87ceeb; fill-opacity: 0.75; stroke: #000000; stroke-width: 0.177545; stroke-linejoin: miter"/>
   </g>
   <g id="patch_89">
    <path d="M 238.176466 312.94375 
L 240.198102 312.94375 
L 240.198102 312.94375 
L 238.176466 312.94375 
z
" clip-path="url(#p255fcd928d)" style="fill: #87ceeb; fill-opacity: 0.75; stroke: #000000; stroke-width: 0.177545; stroke-linejoin: miter"/>
   </g>
   <g id="patch_90">
    <path d="M 240.198102 312.94375 
L 242.219739 312.94375 
L 242.219739 312.94375 
L 240.198102 312.94375 
z
" clip-path="url(#p255fcd928d)" style="fill: #87ceeb; fill-opacity: 0.75; stroke: #000000; stroke-width: 0.177545; stroke-linejoin: miter"/>
   </g>
   <g id="patch_91">
    <path d="M 242.219739 312.94375 
L 244.241375 312.94375 
L 244.241375 312.94375 
L 242.219739 312.94375 
z
" clip-path="url(#p255fcd928d)" style="fill: #87ceeb; fill-opacity: 0.75; stroke: #000000; stroke-width: 0.177545; stroke-linejoin: miter"/>
   </g>
   <g id="patch_92">
    <path d="M 244.241375 312.94375 
L 246.263011 312.94375 
L 246.263011 311.87714 
L 244.241375 311.87714 
z
" clip-path="url(#p255fcd928d)" style="fill: #87ceeb; fill-opacity: 0.75; stroke: #000000; stroke-width: 0.177545; stroke-linejoin: miter"/>
   </g>
   <g id="patch_93">
    <path d="M 246.263011 312.94375 
L 248.284648 312.94375 
L 248.284648 311.87714 
L 246.263011 311.87714 
z
" clip-path="url(#p255fcd928d)" style="fill: #87ceeb; fill-opacity: 0.75; stroke: #000000; stroke-width: 0.177545; stroke-linejoin: miter"/>
   </g>
   <g id="patch_94">
    <path d="M 248.284648 312.94375 
L 250.306284 312.94375 
L 250.306284 312.94375 
L 248.284648 312.94375 
z
" clip-path="url(#p255fcd928d)" style="fill: #87ceeb; fill-opacity: 0.75; stroke: #000000; stroke-width: 0.177545; stroke-linejoin: miter"/>
   </g>
   <g id="patch_95">
    <path d="M 250.306284 312.94375 
L 252.32792 312.94375 
L 252.32792 311.87714 
L 250.306284 311.87714 
z
" clip-path="url(#p255fcd928d)" style="fill: #87ceeb; fill-opacity: 0.75; stroke: #000000; stroke-width: 0.177545; stroke-linejoin: miter"/>
   </g>
   <g id="patch_96">
    <path d="M 252.32792 312.94375 
L 254.349557 312.94375 
L 254.349557 312.94375 
L 252.32792 312.94375 
z
" clip-path="url(#p255fcd928d)" style="fill: #87ceeb; fill-opacity: 0.75; stroke: #000000; stroke-width: 0.177545; stroke-linejoin: miter"/>
   </g>
   <g id="patch_97">
    <path d="M 254.349557 312.94375 
L 256.371193 312.94375 
L 256.371193 312.94375 
L 254.349557 312.94375 
z
" clip-path="url(#p255fcd928d)" style="fill: #87ceeb; fill-opacity: 0.75; stroke: #000000; stroke-width: 0.177545; stroke-linejoin: miter"/>
   </g>
   <g id="patch_98">
    <path d="M 256.371193 312.94375 
L 258.39283 312.94375 
L 258.39283 312.94375 
L 256.371193 312.94375 
z
" clip-path="url(#p255fcd928d)" style="fill: #87ceeb; fill-opacity: 0.75; stroke: #000000; stroke-width: 0.177545; stroke-linejoin: miter"/>
   </g>
   <g id="patch_99">
    <path d="M 258.39283 312.94375 
L 260.414466 312.94375 
L 260.414466 309.74392 
L 258.39283 309.74392 
z
" clip-path="url(#p255fcd928d)" style="fill: #87ceeb; fill-opacity: 0.75; stroke: #000000; stroke-width: 0.177545; stroke-linejoin: miter"/>
   </g>
   <g id="patch_100">
    <path d="M 260.414466 312.94375 
L 262.436102 312.94375 
L 262.436102 309.74392 
L 260.414466 309.74392 
z
" clip-path="url(#p255fcd928d)" style="fill: #87ceeb; fill-opacity: 0.75; stroke: #000000; stroke-width: 0.177545; stroke-linejoin: miter"/>
   </g>
   <g id="patch_101">
    <path d="M 262.436102 312.94375 
L 264.457739 312.94375 
L 264.457739 309.74392 
L 262.436102 309.74392 
z
" clip-path="url(#p255fcd928d)" style="fill: #87ceeb; fill-opacity: 0.75; stroke: #000000; stroke-width: 0.177545; stroke-linejoin: miter"/>
   </g>
   <g id="patch_102">
    <path d="M 264.457739 312.94375 
L 266.479375 312.94375 
L 266.479375 309.74392 
L 264.457739 309.74392 
z
" clip-path="url(#p255fcd928d)" style="fill: #87ceeb; fill-opacity: 0.75; stroke: #000000; stroke-width: 0.177545; stroke-linejoin: miter"/>
   </g>
   <g id="patch_103">
    <path d="M 266.479375 312.94375 
L 268.501011 312.94375 
L 268.501011 310.81053 
L 266.479375 310.81053 
z
" clip-path="url(#p255fcd928d)" style="fill: #87ceeb; fill-opacity: 0.75; stroke: #000000; stroke-width: 0.177545; stroke-linejoin: miter"/>
   </g>
   <g id="patch_104">
    <path d="M 268.501011 312.94375 
L 270.522648 312.94375 
L 270.522648 312.94375 
L 268.501011 312.94375 
z
" clip-path="url(#p255fcd928d)" style="fill: #87ceeb; fill-opacity: 0.75; stroke: #000000; stroke-width: 0.177545; stroke-linejoin: miter"/>
   </g>
   <g id="patch_105">
    <path d="M 270.522648 312.94375 
L 272.544284 312.94375 
L 272.544284 309.74392 
L 270.522648 309.74392 
z
" clip-path="url(#p255fcd928d)" style="fill: #87ceeb; fill-opacity: 0.75; stroke: #000000; stroke-width: 0.177545; stroke-linejoin: miter"/>
   </g>
   <g id="patch_106">
    <path d="M 272.544284 312.94375 
L 274.56592 312.94375 
L 274.56592 312.94375 
L 272.544284 312.94375 
z
" clip-path="url(#p255fcd928d)" style="fill: #87ceeb; fill-opacity: 0.75; stroke: #000000; stroke-width: 0.177545; stroke-linejoin: miter"/>
   </g>
   <g id="patch_107">
    <path d="M 274.56592 312.94375 
L 276.587557 312.94375 
L 276.587557 312.94375 
L 274.56592 312.94375 
z
" clip-path="url(#p255fcd928d)" style="fill: #87ceeb; fill-opacity: 0.75; stroke: #000000; stroke-width: 0.177545; stroke-linejoin: miter"/>
   </g>
   <g id="patch_108">
    <path d="M 276.587557 312.94375 
L 278.609193 312.94375 
L 278.609193 312.94375 
L 276.587557 312.94375 
z
" clip-path="url(#p255fcd928d)" style="fill: #87ceeb; fill-opacity: 0.75; stroke: #000000; stroke-width: 0.177545; stroke-linejoin: miter"/>
   </g>
   <g id="patch_109">
    <path d="M 278.609193 312.94375 
L 280.63083 312.94375 
L 280.63083 312.94375 
L 278.609193 312.94375 
z
" clip-path="url(#p255fcd928d)" style="fill: #87ceeb; fill-opacity: 0.75; stroke: #000000; stroke-width: 0.177545; stroke-linejoin: miter"/>
   </g>
   <g id="patch_110">
    <path d="M 280.63083 312.94375 
L 282.652466 312.94375 
L 282.652466 312.94375 
L 280.63083 312.94375 
z
" clip-path="url(#p255fcd928d)" style="fill: #87ceeb; fill-opacity: 0.75; stroke: #000000; stroke-width: 0.177545; stroke-linejoin: miter"/>
   </g>
   <g id="patch_111">
    <path d="M 282.652466 312.94375 
L 284.674102 312.94375 
L 284.674102 312.94375 
L 282.652466 312.94375 
z
" clip-path="url(#p255fcd928d)" style="fill: #87ceeb; fill-opacity: 0.75; stroke: #000000; stroke-width: 0.177545; stroke-linejoin: miter"/>
   </g>
   <g id="patch_112">
    <path d="M 284.674102 312.94375 
L 286.695739 312.94375 
L 286.695739 310.81053 
L 284.674102 310.81053 
z
" clip-path="url(#p255fcd928d)" style="fill: #87ceeb; fill-opacity: 0.75; stroke: #000000; stroke-width: 0.177545; stroke-linejoin: miter"/>
   </g>
   <g id="patch_113">
    <path d="M 286.695739 312.94375 
L 288.717375 312.94375 
L 288.717375 312.94375 
L 286.695739 312.94375 
z
" clip-path="url(#p255fcd928d)" style="fill: #87ceeb; fill-opacity: 0.75; stroke: #000000; stroke-width: 0.177545; stroke-linejoin: miter"/>
   </g>
   <g id="patch_114">
    <path d="M 288.717375 312.94375 
L 290.739011 312.94375 
L 290.739011 312.94375 
L 288.717375 312.94375 
z
" clip-path="url(#p255fcd928d)" style="fill: #87ceeb; fill-opacity: 0.75; stroke: #000000; stroke-width: 0.177545; stroke-linejoin: miter"/>
   </g>
   <g id="patch_115">
    <path d="M 290.739011 312.94375 
L 292.760648 312.94375 
L 292.760648 312.94375 
L 290.739011 312.94375 
z
" clip-path="url(#p255fcd928d)" style="fill: #87ceeb; fill-opacity: 0.75; stroke: #000000; stroke-width: 0.177545; stroke-linejoin: miter"/>
   </g>
   <g id="patch_116">
    <path d="M 292.760648 312.94375 
L 294.782284 312.94375 
L 294.782284 311.87714 
L 292.760648 311.87714 
z
" clip-path="url(#p255fcd928d)" style="fill: #87ceeb; fill-opacity: 0.75; stroke: #000000; stroke-width: 0.177545; stroke-linejoin: miter"/>
   </g>
   <g id="patch_117">
    <path d="M 294.782284 312.94375 
L 296.80392 312.94375 
L 296.80392 312.94375 
L 294.782284 312.94375 
z
" clip-path="url(#p255fcd928d)" style="fill: #87ceeb; fill-opacity: 0.75; stroke: #000000; stroke-width: 0.177545; stroke-linejoin: miter"/>
   </g>
   <g id="patch_118">
    <path d="M 296.80392 312.94375 
L 298.825557 312.94375 
L 298.825557 312.94375 
L 296.80392 312.94375 
z
" clip-path="url(#p255fcd928d)" style="fill: #87ceeb; fill-opacity: 0.75; stroke: #000000; stroke-width: 0.177545; stroke-linejoin: miter"/>
   </g>
   <g id="patch_119">
    <path d="M 298.825557 312.94375 
L 300.847193 312.94375 
L 300.847193 312.94375 
L 298.825557 312.94375 
z
" clip-path="url(#p255fcd928d)" style="fill: #87ceeb; fill-opacity: 0.75; stroke: #000000; stroke-width: 0.177545; stroke-linejoin: miter"/>
   </g>
   <g id="patch_120">
    <path d="M 300.847193 312.94375 
L 302.86883 312.94375 
L 302.86883 312.94375 
L 300.847193 312.94375 
z
" clip-path="url(#p255fcd928d)" style="fill: #87ceeb; fill-opacity: 0.75; stroke: #000000; stroke-width: 0.177545; stroke-linejoin: miter"/>
   </g>
   <g id="patch_121">
    <path d="M 302.86883 312.94375 
L 304.890466 312.94375 
L 304.890466 312.94375 
L 302.86883 312.94375 
z
" clip-path="url(#p255fcd928d)" style="fill: #87ceeb; fill-opacity: 0.75; stroke: #000000; stroke-width: 0.177545; stroke-linejoin: miter"/>
   </g>
   <g id="patch_122">
    <path d="M 304.890466 312.94375 
L 306.912102 312.94375 
L 306.912102 312.94375 
L 304.890466 312.94375 
z
" clip-path="url(#p255fcd928d)" style="fill: #87ceeb; fill-opacity: 0.75; stroke: #000000; stroke-width: 0.177545; stroke-linejoin: miter"/>
   </g>
   <g id="patch_123">
    <path d="M 306.912102 312.94375 
L 308.933739 312.94375 
L 308.933739 312.94375 
L 306.912102 312.94375 
z
" clip-path="url(#p255fcd928d)" style="fill: #87ceeb; fill-opacity: 0.75; stroke: #000000; stroke-width: 0.177545; stroke-linejoin: miter"/>
   </g>
   <g id="patch_124">
    <path d="M 308.933739 312.94375 
L 310.955375 312.94375 
L 310.955375 311.87714 
L 308.933739 311.87714 
z
" clip-path="url(#p255fcd928d)" style="fill: #87ceeb; fill-opacity: 0.75; stroke: #000000; stroke-width: 0.177545; stroke-linejoin: miter"/>
   </g>
   <g id="patch_125">
    <path d="M 310.955375 312.94375 
L 312.977011 312.94375 
L 312.977011 312.94375 
L 310.955375 312.94375 
z
" clip-path="url(#p255fcd928d)" style="fill: #87ceeb; fill-opacity: 0.75; stroke: #000000; stroke-width: 0.177545; stroke-linejoin: miter"/>
   </g>
   <g id="patch_126">
    <path d="M 312.977011 312.94375 
L 314.998648 312.94375 
L 314.998648 311.87714 
L 312.977011 311.87714 
z
" clip-path="url(#p255fcd928d)" style="fill: #87ceeb; fill-opacity: 0.75; stroke: #000000; stroke-width: 0.177545; stroke-linejoin: miter"/>
   </g>
   <g id="patch_127">
    <path d="M 314.998648 312.94375 
L 317.020284 312.94375 
L 317.020284 312.94375 
L 314.998648 312.94375 
z
" clip-path="url(#p255fcd928d)" style="fill: #87ceeb; fill-opacity: 0.75; stroke: #000000; stroke-width: 0.177545; stroke-linejoin: miter"/>
   </g>
   <g id="patch_128">
    <path d="M 317.020284 312.94375 
L 319.04192 312.94375 
L 319.04192 312.94375 
L 317.020284 312.94375 
z
" clip-path="url(#p255fcd928d)" style="fill: #87ceeb; fill-opacity: 0.75; stroke: #000000; stroke-width: 0.177545; stroke-linejoin: miter"/>
   </g>
   <g id="patch_129">
    <path d="M 319.04192 312.94375 
L 321.063557 312.94375 
L 321.063557 311.87714 
L 319.04192 311.87714 
z
" clip-path="url(#p255fcd928d)" style="fill: #87ceeb; fill-opacity: 0.75; stroke: #000000; stroke-width: 0.177545; stroke-linejoin: miter"/>
   </g>
   <g id="patch_130">
    <path d="M 321.063557 312.94375 
L 323.085193 312.94375 
L 323.085193 311.87714 
L 321.063557 311.87714 
z
" clip-path="url(#p255fcd928d)" style="fill: #87ceeb; fill-opacity: 0.75; stroke: #000000; stroke-width: 0.177545; stroke-linejoin: miter"/>
   </g>
   <g id="patch_131">
    <path d="M 323.085193 312.94375 
L 325.10683 312.94375 
L 325.10683 308.67731 
L 323.085193 308.67731 
z
" clip-path="url(#p255fcd928d)" style="fill: #87ceeb; fill-opacity: 0.75; stroke: #000000; stroke-width: 0.177545; stroke-linejoin: miter"/>
   </g>
   <g id="patch_132">
    <path d="M 325.10683 312.94375 
L 327.128466 312.94375 
L 327.128466 311.87714 
L 325.10683 311.87714 
z
" clip-path="url(#p255fcd928d)" style="fill: #87ceeb; fill-opacity: 0.75; stroke: #000000; stroke-width: 0.177545; stroke-linejoin: miter"/>
   </g>
   <g id="patch_133">
    <path d="M 327.128466 312.94375 
L 329.150102 312.94375 
L 329.150102 312.94375 
L 327.128466 312.94375 
z
" clip-path="url(#p255fcd928d)" style="fill: #87ceeb; fill-opacity: 0.75; stroke: #000000; stroke-width: 0.177545; stroke-linejoin: miter"/>
   </g>
   <g id="patch_134">
    <path d="M 329.150102 312.94375 
L 331.171739 312.94375 
L 331.171739 311.87714 
L 329.150102 311.87714 
z
" clip-path="url(#p255fcd928d)" style="fill: #87ceeb; fill-opacity: 0.75; stroke: #000000; stroke-width: 0.177545; stroke-linejoin: miter"/>
   </g>
   <g id="patch_135">
    <path d="M 331.171739 312.94375 
L 333.193375 312.94375 
L 333.193375 309.74392 
L 331.171739 309.74392 
z
" clip-path="url(#p255fcd928d)" style="fill: #87ceeb; fill-opacity: 0.75; stroke: #000000; stroke-width: 0.177545; stroke-linejoin: miter"/>
   </g>
   <g id="patch_136">
    <path d="M 333.193375 312.94375 
L 335.215011 312.94375 
L 335.215011 312.94375 
L 333.193375 312.94375 
z
" clip-path="url(#p255fcd928d)" style="fill: #87ceeb; fill-opacity: 0.75; stroke: #000000; stroke-width: 0.177545; stroke-linejoin: miter"/>
   </g>
   <g id="patch_137">
    <path d="M 335.215011 312.94375 
L 337.236648 312.94375 
L 337.236648 312.94375 
L 335.215011 312.94375 
z
" clip-path="url(#p255fcd928d)" style="fill: #87ceeb; fill-opacity: 0.75; stroke: #000000; stroke-width: 0.177545; stroke-linejoin: miter"/>
   </g>
   <g id="patch_138">
    <path d="M 337.236648 312.94375 
L 339.258284 312.94375 
L 339.258284 312.94375 
L 337.236648 312.94375 
z
" clip-path="url(#p255fcd928d)" style="fill: #87ceeb; fill-opacity: 0.75; stroke: #000000; stroke-width: 0.177545; stroke-linejoin: miter"/>
   </g>
   <g id="patch_139">
    <path d="M 339.258284 312.94375 
L 341.27992 312.94375 
L 341.27992 312.94375 
L 339.258284 312.94375 
z
" clip-path="url(#p255fcd928d)" style="fill: #87ceeb; fill-opacity: 0.75; stroke: #000000; stroke-width: 0.177545; stroke-linejoin: miter"/>
   </g>
   <g id="patch_140">
    <path d="M 341.27992 312.94375 
L 343.301557 312.94375 
L 343.301557 310.81053 
L 341.27992 310.81053 
z
" clip-path="url(#p255fcd928d)" style="fill: #87ceeb; fill-opacity: 0.75; stroke: #000000; stroke-width: 0.177545; stroke-linejoin: miter"/>
   </g>
   <g id="patch_141">
    <path d="M 343.301557 312.94375 
L 345.323193 312.94375 
L 345.323193 312.94375 
L 343.301557 312.94375 
z
" clip-path="url(#p255fcd928d)" style="fill: #87ceeb; fill-opacity: 0.75; stroke: #000000; stroke-width: 0.177545; stroke-linejoin: miter"/>
   </g>
   <g id="patch_142">
    <path d="M 345.323193 312.94375 
L 347.34483 312.94375 
L 347.34483 309.74392 
L 345.323193 309.74392 
z
" clip-path="url(#p255fcd928d)" style="fill: #87ceeb; fill-opacity: 0.75; stroke: #000000; stroke-width: 0.177545; stroke-linejoin: miter"/>
   </g>
   <g id="patch_143">
    <path d="M 347.34483 312.94375 
L 349.366466 312.94375 
L 349.366466 311.87714 
L 347.34483 311.87714 
z
" clip-path="url(#p255fcd928d)" style="fill: #87ceeb; fill-opacity: 0.75; stroke: #000000; stroke-width: 0.177545; stroke-linejoin: miter"/>
   </g>
   <g id="patch_144">
    <path d="M 349.366466 312.94375 
L 351.388102 312.94375 
L 351.388102 312.94375 
L 349.366466 312.94375 
z
" clip-path="url(#p255fcd928d)" style="fill: #87ceeb; fill-opacity: 0.75; stroke: #000000; stroke-width: 0.177545; stroke-linejoin: miter"/>
   </g>
   <g id="patch_145">
    <path d="M 351.388102 312.94375 
L 353.409739 312.94375 
L 353.409739 310.81053 
L 351.388102 310.81053 
z
" clip-path="url(#p255fcd928d)" style="fill: #87ceeb; fill-opacity: 0.75; stroke: #000000; stroke-width: 0.177545; stroke-linejoin: miter"/>
   </g>
   <g id="patch_146">
    <path d="M 353.409739 312.94375 
L 355.431375 312.94375 
L 355.431375 312.94375 
L 353.409739 312.94375 
z
" clip-path="url(#p255fcd928d)" style="fill: #87ceeb; fill-opacity: 0.75; stroke: #000000; stroke-width: 0.177545; stroke-linejoin: miter"/>
   </g>
   <g id="patch_147">
    <path d="M 355.431375 312.94375 
L 357.453011 312.94375 
L 357.453011 311.87714 
L 355.431375 311.87714 
z
" clip-path="url(#p255fcd928d)" style="fill: #87ceeb; fill-opacity: 0.75; stroke: #000000; stroke-width: 0.177545; stroke-linejoin: miter"/>
   </g>
   <g id="patch_148">
    <path d="M 357.453011 312.94375 
L 359.474648 312.94375 
L 359.474648 312.94375 
L 357.453011 312.94375 
z
" clip-path="url(#p255fcd928d)" style="fill: #87ceeb; fill-opacity: 0.75; stroke: #000000; stroke-width: 0.177545; stroke-linejoin: miter"/>
   </g>
   <g id="patch_149">
    <path d="M 359.474648 312.94375 
L 361.496284 312.94375 
L 361.496284 312.94375 
L 359.474648 312.94375 
z
" clip-path="url(#p255fcd928d)" style="fill: #87ceeb; fill-opacity: 0.75; stroke: #000000; stroke-width: 0.177545; stroke-linejoin: miter"/>
   </g>
   <g id="patch_150">
    <path d="M 361.496284 312.94375 
L 363.51792 312.94375 
L 363.51792 312.94375 
L 361.496284 312.94375 
z
" clip-path="url(#p255fcd928d)" style="fill: #87ceeb; fill-opacity: 0.75; stroke: #000000; stroke-width: 0.177545; stroke-linejoin: miter"/>
   </g>
   <g id="patch_151">
    <path d="M 363.51792 312.94375 
L 365.539557 312.94375 
L 365.539557 312.94375 
L 363.51792 312.94375 
z
" clip-path="url(#p255fcd928d)" style="fill: #87ceeb; fill-opacity: 0.75; stroke: #000000; stroke-width: 0.177545; stroke-linejoin: miter"/>
   </g>
   <g id="patch_152">
    <path d="M 365.539557 312.94375 
L 367.561193 312.94375 
L 367.561193 312.94375 
L 365.539557 312.94375 
z
" clip-path="url(#p255fcd928d)" style="fill: #87ceeb; fill-opacity: 0.75; stroke: #000000; stroke-width: 0.177545; stroke-linejoin: miter"/>
   </g>
   <g id="patch_153">
    <path d="M 367.561193 312.94375 
L 369.58283 312.94375 
L 369.58283 310.81053 
L 367.561193 310.81053 
z
" clip-path="url(#p255fcd928d)" style="fill: #87ceeb; fill-opacity: 0.75; stroke: #000000; stroke-width: 0.177545; stroke-linejoin: miter"/>
   </g>
   <g id="patch_154">
    <path d="M 369.58283 312.94375 
L 371.604466 312.94375 
L 371.604466 312.94375 
L 369.58283 312.94375 
z
" clip-path="url(#p255fcd928d)" style="fill: #87ceeb; fill-opacity: 0.75; stroke: #000000; stroke-width: 0.177545; stroke-linejoin: miter"/>
   </g>
   <g id="patch_155">
    <path d="M 371.604466 312.94375 
L 373.626102 312.94375 
L 373.626102 312.94375 
L 371.604466 312.94375 
z
" clip-path="url(#p255fcd928d)" style="fill: #87ceeb; fill-opacity: 0.75; stroke: #000000; stroke-width: 0.177545; stroke-linejoin: miter"/>
   </g>
   <g id="patch_156">
    <path d="M 373.626102 312.94375 
L 375.647739 312.94375 
L 375.647739 312.94375 
L 373.626102 312.94375 
z
" clip-path="url(#p255fcd928d)" style="fill: #87ceeb; fill-opacity: 0.75; stroke: #000000; stroke-width: 0.177545; stroke-linejoin: miter"/>
   </g>
   <g id="patch_157">
    <path d="M 375.647739 312.94375 
L 377.669375 312.94375 
L 377.669375 312.94375 
L 375.647739 312.94375 
z
" clip-path="url(#p255fcd928d)" style="fill: #87ceeb; fill-opacity: 0.75; stroke: #000000; stroke-width: 0.177545; stroke-linejoin: miter"/>
   </g>
   <g id="patch_158">
    <path d="M 377.669375 312.94375 
L 379.691011 312.94375 
L 379.691011 312.94375 
L 377.669375 312.94375 
z
" clip-path="url(#p255fcd928d)" style="fill: #87ceeb; fill-opacity: 0.75; stroke: #000000; stroke-width: 0.177545; stroke-linejoin: miter"/>
   </g>
   <g id="patch_159">
    <path d="M 379.691011 312.94375 
L 381.712648 312.94375 
L 381.712648 312.94375 
L 379.691011 312.94375 
z
" clip-path="url(#p255fcd928d)" style="fill: #87ceeb; fill-opacity: 0.75; stroke: #000000; stroke-width: 0.177545; stroke-linejoin: miter"/>
   </g>
   <g id="patch_160">
    <path d="M 381.712648 312.94375 
L 383.734284 312.94375 
L 383.734284 312.94375 
L 381.712648 312.94375 
z
" clip-path="url(#p255fcd928d)" style="fill: #87ceeb; fill-opacity: 0.75; stroke: #000000; stroke-width: 0.177545; stroke-linejoin: miter"/>
   </g>
   <g id="patch_161">
    <path d="M 383.734284 312.94375 
L 385.75592 312.94375 
L 385.75592 312.94375 
L 383.734284 312.94375 
z
" clip-path="url(#p255fcd928d)" style="fill: #87ceeb; fill-opacity: 0.75; stroke: #000000; stroke-width: 0.177545; stroke-linejoin: miter"/>
   </g>
   <g id="patch_162">
    <path d="M 385.75592 312.94375 
L 387.777557 312.94375 
L 387.777557 312.94375 
L 385.75592 312.94375 
z
" clip-path="url(#p255fcd928d)" style="fill: #87ceeb; fill-opacity: 0.75; stroke: #000000; stroke-width: 0.177545; stroke-linejoin: miter"/>
   </g>
   <g id="patch_163">
    <path d="M 387.777557 312.94375 
L 389.799193 312.94375 
L 389.799193 312.94375 
L 387.777557 312.94375 
z
" clip-path="url(#p255fcd928d)" style="fill: #87ceeb; fill-opacity: 0.75; stroke: #000000; stroke-width: 0.177545; stroke-linejoin: miter"/>
   </g>
   <g id="patch_164">
    <path d="M 389.799193 312.94375 
L 391.82083 312.94375 
L 391.82083 312.94375 
L 389.799193 312.94375 
z
" clip-path="url(#p255fcd928d)" style="fill: #87ceeb; fill-opacity: 0.75; stroke: #000000; stroke-width: 0.177545; stroke-linejoin: miter"/>
   </g>
   <g id="patch_165">
    <path d="M 391.82083 312.94375 
L 393.842466 312.94375 
L 393.842466 312.94375 
L 391.82083 312.94375 
z
" clip-path="url(#p255fcd928d)" style="fill: #87ceeb; fill-opacity: 0.75; stroke: #000000; stroke-width: 0.177545; stroke-linejoin: miter"/>
   </g>
   <g id="patch_166">
    <path d="M 393.842466 312.94375 
L 395.864102 312.94375 
L 395.864102 312.94375 
L 393.842466 312.94375 
z
" clip-path="url(#p255fcd928d)" style="fill: #87ceeb; fill-opacity: 0.75; stroke: #000000; stroke-width: 0.177545; stroke-linejoin: miter"/>
   </g>
   <g id="patch_167">
    <path d="M 395.864102 312.94375 
L 397.885739 312.94375 
L 397.885739 312.94375 
L 395.864102 312.94375 
z
" clip-path="url(#p255fcd928d)" style="fill: #87ceeb; fill-opacity: 0.75; stroke: #000000; stroke-width: 0.177545; stroke-linejoin: miter"/>
   </g>
   <g id="patch_168">
    <path d="M 397.885739 312.94375 
L 399.907375 312.94375 
L 399.907375 312.94375 
L 397.885739 312.94375 
z
" clip-path="url(#p255fcd928d)" style="fill: #87ceeb; fill-opacity: 0.75; stroke: #000000; stroke-width: 0.177545; stroke-linejoin: miter"/>
   </g>
   <g id="patch_169">
    <path d="M 399.907375 312.94375 
L 401.929011 312.94375 
L 401.929011 312.94375 
L 399.907375 312.94375 
z
" clip-path="url(#p255fcd928d)" style="fill: #87ceeb; fill-opacity: 0.75; stroke: #000000; stroke-width: 0.177545; stroke-linejoin: miter"/>
   </g>
   <g id="patch_170">
    <path d="M 401.929011 312.94375 
L 403.950648 312.94375 
L 403.950648 312.94375 
L 401.929011 312.94375 
z
" clip-path="url(#p255fcd928d)" style="fill: #87ceeb; fill-opacity: 0.75; stroke: #000000; stroke-width: 0.177545; stroke-linejoin: miter"/>
   </g>
   <g id="patch_171">
    <path d="M 403.950648 312.94375 
L 405.972284 312.94375 
L 405.972284 312.94375 
L 403.950648 312.94375 
z
" clip-path="url(#p255fcd928d)" style="fill: #87ceeb; fill-opacity: 0.75; stroke: #000000; stroke-width: 0.177545; stroke-linejoin: miter"/>
   </g>
   <g id="patch_172">
    <path d="M 405.972284 312.94375 
L 407.99392 312.94375 
L 407.99392 312.94375 
L 405.972284 312.94375 
z
" clip-path="url(#p255fcd928d)" style="fill: #87ceeb; fill-opacity: 0.75; stroke: #000000; stroke-width: 0.177545; stroke-linejoin: miter"/>
   </g>
   <g id="patch_173">
    <path d="M 407.99392 312.94375 
L 410.015557 312.94375 
L 410.015557 312.94375 
L 407.99392 312.94375 
z
" clip-path="url(#p255fcd928d)" style="fill: #87ceeb; fill-opacity: 0.75; stroke: #000000; stroke-width: 0.177545; stroke-linejoin: miter"/>
   </g>
   <g id="patch_174">
    <path d="M 410.015557 312.94375 
L 412.037193 312.94375 
L 412.037193 312.94375 
L 410.015557 312.94375 
z
" clip-path="url(#p255fcd928d)" style="fill: #87ceeb; fill-opacity: 0.75; stroke: #000000; stroke-width: 0.177545; stroke-linejoin: miter"/>
   </g>
   <g id="patch_175">
    <path d="M 412.037193 312.94375 
L 414.05883 312.94375 
L 414.05883 312.94375 
L 412.037193 312.94375 
z
" clip-path="url(#p255fcd928d)" style="fill: #87ceeb; fill-opacity: 0.75; stroke: #000000; stroke-width: 0.177545; stroke-linejoin: miter"/>
   </g>
   <g id="patch_176">
    <path d="M 414.05883 312.94375 
L 416.080466 312.94375 
L 416.080466 312.94375 
L 414.05883 312.94375 
z
" clip-path="url(#p255fcd928d)" style="fill: #87ceeb; fill-opacity: 0.75; stroke: #000000; stroke-width: 0.177545; stroke-linejoin: miter"/>
   </g>
   <g id="patch_177">
    <path d="M 416.080466 312.94375 
L 418.102102 312.94375 
L 418.102102 312.94375 
L 416.080466 312.94375 
z
" clip-path="url(#p255fcd928d)" style="fill: #87ceeb; fill-opacity: 0.75; stroke: #000000; stroke-width: 0.177545; stroke-linejoin: miter"/>
   </g>
   <g id="patch_178">
    <path d="M 418.102102 312.94375 
L 420.123739 312.94375 
L 420.123739 312.94375 
L 418.102102 312.94375 
z
" clip-path="url(#p255fcd928d)" style="fill: #87ceeb; fill-opacity: 0.75; stroke: #000000; stroke-width: 0.177545; stroke-linejoin: miter"/>
   </g>
   <g id="patch_179">
    <path d="M 420.123739 312.94375 
L 422.145375 312.94375 
L 422.145375 312.94375 
L 420.123739 312.94375 
z
" clip-path="url(#p255fcd928d)" style="fill: #87ceeb; fill-opacity: 0.75; stroke: #000000; stroke-width: 0.177545; stroke-linejoin: miter"/>
   </g>
   <g id="patch_180">
    <path d="M 422.145375 312.94375 
L 424.167011 312.94375 
L 424.167011 312.94375 
L 422.145375 312.94375 
z
" clip-path="url(#p255fcd928d)" style="fill: #87ceeb; fill-opacity: 0.75; stroke: #000000; stroke-width: 0.177545; stroke-linejoin: miter"/>
   </g>
   <g id="patch_181">
    <path d="M 424.167011 312.94375 
L 426.188648 312.94375 
L 426.188648 312.94375 
L 424.167011 312.94375 
z
" clip-path="url(#p255fcd928d)" style="fill: #87ceeb; fill-opacity: 0.75; stroke: #000000; stroke-width: 0.177545; stroke-linejoin: miter"/>
   </g>
   <g id="patch_182">
    <path d="M 426.188648 312.94375 
L 428.210284 312.94375 
L 428.210284 312.94375 
L 426.188648 312.94375 
z
" clip-path="url(#p255fcd928d)" style="fill: #87ceeb; fill-opacity: 0.75; stroke: #000000; stroke-width: 0.177545; stroke-linejoin: miter"/>
   </g>
   <g id="patch_183">
    <path d="M 428.210284 312.94375 
L 430.23192 312.94375 
L 430.23192 312.94375 
L 428.210284 312.94375 
z
" clip-path="url(#p255fcd928d)" style="fill: #87ceeb; fill-opacity: 0.75; stroke: #000000; stroke-width: 0.177545; stroke-linejoin: miter"/>
   </g>
   <g id="patch_184">
    <path d="M 430.23192 312.94375 
L 432.253557 312.94375 
L 432.253557 312.94375 
L 430.23192 312.94375 
z
" clip-path="url(#p255fcd928d)" style="fill: #87ceeb; fill-opacity: 0.75; stroke: #000000; stroke-width: 0.177545; stroke-linejoin: miter"/>
   </g>
   <g id="patch_185">
    <path d="M 432.253557 312.94375 
L 434.275193 312.94375 
L 434.275193 312.94375 
L 432.253557 312.94375 
z
" clip-path="url(#p255fcd928d)" style="fill: #87ceeb; fill-opacity: 0.75; stroke: #000000; stroke-width: 0.177545; stroke-linejoin: miter"/>
   </g>
   <g id="patch_186">
    <path d="M 434.275193 312.94375 
L 436.29683 312.94375 
L 436.29683 312.94375 
L 434.275193 312.94375 
z
" clip-path="url(#p255fcd928d)" style="fill: #87ceeb; fill-opacity: 0.75; stroke: #000000; stroke-width: 0.177545; stroke-linejoin: miter"/>
   </g>
   <g id="patch_187">
    <path d="M 436.29683 312.94375 
L 438.318466 312.94375 
L 438.318466 312.94375 
L 436.29683 312.94375 
z
" clip-path="url(#p255fcd928d)" style="fill: #87ceeb; fill-opacity: 0.75; stroke: #000000; stroke-width: 0.177545; stroke-linejoin: miter"/>
   </g>
   <g id="patch_188">
    <path d="M 438.318466 312.94375 
L 440.340102 312.94375 
L 440.340102 312.94375 
L 438.318466 312.94375 
z
" clip-path="url(#p255fcd928d)" style="fill: #87ceeb; fill-opacity: 0.75; stroke: #000000; stroke-width: 0.177545; stroke-linejoin: miter"/>
   </g>
   <g id="patch_189">
    <path d="M 440.340102 312.94375 
L 442.361739 312.94375 
L 442.361739 312.94375 
L 440.340102 312.94375 
z
" clip-path="url(#p255fcd928d)" style="fill: #87ceeb; fill-opacity: 0.75; stroke: #000000; stroke-width: 0.177545; stroke-linejoin: miter"/>
   </g>
   <g id="patch_190">
    <path d="M 442.361739 312.94375 
L 444.383375 312.94375 
L 444.383375 312.94375 
L 442.361739 312.94375 
z
" clip-path="url(#p255fcd928d)" style="fill: #87ceeb; fill-opacity: 0.75; stroke: #000000; stroke-width: 0.177545; stroke-linejoin: miter"/>
   </g>
   <g id="patch_191">
    <path d="M 444.383375 312.94375 
L 446.405011 312.94375 
L 446.405011 312.94375 
L 444.383375 312.94375 
z
" clip-path="url(#p255fcd928d)" style="fill: #87ceeb; fill-opacity: 0.75; stroke: #000000; stroke-width: 0.177545; stroke-linejoin: miter"/>
   </g>
   <g id="patch_192">
    <path d="M 446.405011 312.94375 
L 448.426648 312.94375 
L 448.426648 312.94375 
L 446.405011 312.94375 
z
" clip-path="url(#p255fcd928d)" style="fill: #87ceeb; fill-opacity: 0.75; stroke: #000000; stroke-width: 0.177545; stroke-linejoin: miter"/>
   </g>
   <g id="patch_193">
    <path d="M 448.426648 312.94375 
L 450.448284 312.94375 
L 450.448284 312.94375 
L 448.426648 312.94375 
z
" clip-path="url(#p255fcd928d)" style="fill: #87ceeb; fill-opacity: 0.75; stroke: #000000; stroke-width: 0.177545; stroke-linejoin: miter"/>
   </g>
   <g id="patch_194">
    <path d="M 450.448284 312.94375 
L 452.46992 312.94375 
L 452.46992 312.94375 
L 450.448284 312.94375 
z
" clip-path="url(#p255fcd928d)" style="fill: #87ceeb; fill-opacity: 0.75; stroke: #000000; stroke-width: 0.177545; stroke-linejoin: miter"/>
   </g>
   <g id="patch_195">
    <path d="M 452.46992 312.94375 
L 454.491557 312.94375 
L 454.491557 312.94375 
L 452.46992 312.94375 
z
" clip-path="url(#p255fcd928d)" style="fill: #87ceeb; fill-opacity: 0.75; stroke: #000000; stroke-width: 0.177545; stroke-linejoin: miter"/>
   </g>
   <g id="patch_196">
    <path d="M 454.491557 312.94375 
L 456.513193 312.94375 
L 456.513193 312.94375 
L 454.491557 312.94375 
z
" clip-path="url(#p255fcd928d)" style="fill: #87ceeb; fill-opacity: 0.75; stroke: #000000; stroke-width: 0.177545; stroke-linejoin: miter"/>
   </g>
   <g id="patch_197">
    <path d="M 456.513193 312.94375 
L 458.53483 312.94375 
L 458.53483 312.94375 
L 456.513193 312.94375 
z
" clip-path="url(#p255fcd928d)" style="fill: #87ceeb; fill-opacity: 0.75; stroke: #000000; stroke-width: 0.177545; stroke-linejoin: miter"/>
   </g>
   <g id="patch_198">
    <path d="M 458.53483 312.94375 
L 460.556466 312.94375 
L 460.556466 312.94375 
L 458.53483 312.94375 
z
" clip-path="url(#p255fcd928d)" style="fill: #87ceeb; fill-opacity: 0.75; stroke: #000000; stroke-width: 0.177545; stroke-linejoin: miter"/>
   </g>
   <g id="patch_199">
    <path d="M 460.556466 312.94375 
L 462.578102 312.94375 
L 462.578102 312.94375 
L 460.556466 312.94375 
z
" clip-path="url(#p255fcd928d)" style="fill: #87ceeb; fill-opacity: 0.75; stroke: #000000; stroke-width: 0.177545; stroke-linejoin: miter"/>
   </g>
   <g id="patch_200">
    <path d="M 462.578102 312.94375 
L 464.599739 312.94375 
L 464.599739 312.94375 
L 462.578102 312.94375 
z
" clip-path="url(#p255fcd928d)" style="fill: #87ceeb; fill-opacity: 0.75; stroke: #000000; stroke-width: 0.177545; stroke-linejoin: miter"/>
   </g>
   <g id="patch_201">
    <path d="M 464.599739 312.94375 
L 466.621375 312.94375 
L 466.621375 312.94375 
L 464.599739 312.94375 
z
" clip-path="url(#p255fcd928d)" style="fill: #87ceeb; fill-opacity: 0.75; stroke: #000000; stroke-width: 0.177545; stroke-linejoin: miter"/>
   </g>
   <g id="patch_202">
    <path d="M 466.621375 312.94375 
L 468.643011 312.94375 
L 468.643011 311.87714 
L 466.621375 311.87714 
z
" clip-path="url(#p255fcd928d)" style="fill: #87ceeb; fill-opacity: 0.75; stroke: #000000; stroke-width: 0.177545; stroke-linejoin: miter"/>
   </g>
   <g id="matplotlib.axis_1">
    <g id="xtick_1">
     <g id="line2d_1">
      <defs>
       <path id="mb9463379c4" d="M 0 0 
L 0 3.5 
" style="stroke: #000000; stroke-width: 0.8"/>
      </defs>
      <g>
       <use xlink:href="#mb9463379c4" x="64.080801" y="312.94375" style="stroke: #000000; stroke-width: 0.8"/>
      </g>
     </g>
     <g id="text_1">
      <!-- 0 -->
      <g transform="translate(61.580801 326.8875) scale(0.1 -0.1)">
       <defs>
        <path id="TimesNewRomanPSMT-30" d="M 231 2094 
Q 231 2819 450 3342 
Q 669 3866 1031 4122 
Q 1313 4325 1613 4325 
Q 2100 4325 2488 3828 
Q 2972 3213 2972 2159 
Q 2972 1422 2759 906 
Q 2547 391 2217 158 
Q 1888 -75 1581 -75 
Q 975 -75 572 641 
Q 231 1244 231 2094 
z
M 844 2016 
Q 844 1141 1059 588 
Q 1238 122 1591 122 
Q 1759 122 1940 273 
Q 2122 425 2216 781 
Q 2359 1319 2359 2297 
Q 2359 3022 2209 3506 
Q 2097 3866 1919 4016 
Q 1791 4119 1609 4119 
Q 1397 4119 1231 3928 
Q 1006 3669 925 3112 
Q 844 2556 844 2016 
z
" transform="scale(0.015625)"/>
       </defs>
       <use xlink:href="#TimesNewRomanPSMT-30"/>
      </g>
     </g>
    </g>
    <g id="xtick_2">
     <g id="line2d_2">
      <g>
       <use xlink:href="#mb9463379c4" x="122.815152" y="312.94375" style="stroke: #000000; stroke-width: 0.8"/>
      </g>
     </g>
     <g id="text_2">
      <!-- 250 -->
      <g transform="translate(115.315152 326.8875) scale(0.1 -0.1)">
       <defs>
        <path id="TimesNewRomanPSMT-32" d="M 2934 816 
L 2638 0 
L 138 0 
L 138 116 
Q 1241 1122 1691 1759 
Q 2141 2397 2141 2925 
Q 2141 3328 1894 3587 
Q 1647 3847 1303 3847 
Q 991 3847 742 3664 
Q 494 3481 375 3128 
L 259 3128 
Q 338 3706 661 4015 
Q 984 4325 1469 4325 
Q 1984 4325 2329 3994 
Q 2675 3663 2675 3213 
Q 2675 2891 2525 2569 
Q 2294 2063 1775 1497 
Q 997 647 803 472 
L 1909 472 
Q 2247 472 2383 497 
Q 2519 522 2628 598 
Q 2738 675 2819 816 
L 2934 816 
z
" transform="scale(0.015625)"/>
        <path id="TimesNewRomanPSMT-35" d="M 2778 4238 
L 2534 3706 
L 1259 3706 
L 981 3138 
Q 1809 3016 2294 2522 
Q 2709 2097 2709 1522 
Q 2709 1188 2573 903 
Q 2438 619 2231 419 
Q 2025 219 1772 97 
Q 1413 -75 1034 -75 
Q 653 -75 479 54 
Q 306 184 306 341 
Q 306 428 378 495 
Q 450 563 559 563 
Q 641 563 702 538 
Q 763 513 909 409 
Q 1144 247 1384 247 
Q 1750 247 2026 523 
Q 2303 800 2303 1197 
Q 2303 1581 2056 1914 
Q 1809 2247 1375 2428 
Q 1034 2569 447 2591 
L 1259 4238 
L 2778 4238 
z
" transform="scale(0.015625)"/>
       </defs>
       <use xlink:href="#TimesNewRomanPSMT-32"/>
       <use xlink:href="#TimesNewRomanPSMT-35" transform="translate(50 0)"/>
       <use xlink:href="#TimesNewRomanPSMT-30" transform="translate(100 0)"/>
      </g>
     </g>
    </g>
    <g id="xtick_3">
     <g id="line2d_3">
      <g>
       <use xlink:href="#mb9463379c4" x="181.549503" y="312.94375" style="stroke: #000000; stroke-width: 0.8"/>
      </g>
     </g>
     <g id="text_3">
      <!-- 500 -->
      <g transform="translate(174.049503 326.8875) scale(0.1 -0.1)">
       <use xlink:href="#TimesNewRomanPSMT-35"/>
       <use xlink:href="#TimesNewRomanPSMT-30" transform="translate(50 0)"/>
       <use xlink:href="#TimesNewRomanPSMT-30" transform="translate(100 0)"/>
      </g>
     </g>
    </g>
    <g id="xtick_4">
     <g id="line2d_4">
      <g>
       <use xlink:href="#mb9463379c4" x="240.283854" y="312.94375" style="stroke: #000000; stroke-width: 0.8"/>
      </g>
     </g>
     <g id="text_4">
      <!-- 750 -->
      <g transform="translate(232.783854 326.8875) scale(0.1 -0.1)">
       <defs>
        <path id="TimesNewRomanPSMT-37" d="M 644 4238 
L 2916 4238 
L 2916 4119 
L 1503 -88 
L 1153 -88 
L 2419 3728 
L 1253 3728 
Q 900 3728 750 3644 
Q 488 3500 328 3200 
L 238 3234 
L 644 4238 
z
" transform="scale(0.015625)"/>
       </defs>
       <use xlink:href="#TimesNewRomanPSMT-37"/>
       <use xlink:href="#TimesNewRomanPSMT-35" transform="translate(50 0)"/>
       <use xlink:href="#TimesNewRomanPSMT-30" transform="translate(100 0)"/>
      </g>
     </g>
    </g>
    <g id="xtick_5">
     <g id="line2d_5">
      <g>
       <use xlink:href="#mb9463379c4" x="299.018205" y="312.94375" style="stroke: #000000; stroke-width: 0.8"/>
      </g>
     </g>
     <g id="text_5">
      <!-- 1000 -->
      <g transform="translate(289.018205 326.8875) scale(0.1 -0.1)">
       <defs>
        <path id="TimesNewRomanPSMT-31" d="M 750 3822 
L 1781 4325 
L 1884 4325 
L 1884 747 
Q 1884 391 1914 303 
Q 1944 216 2037 169 
Q 2131 122 2419 116 
L 2419 0 
L 825 0 
L 825 116 
Q 1125 122 1212 167 
Q 1300 213 1334 289 
Q 1369 366 1369 747 
L 1369 3034 
Q 1369 3497 1338 3628 
Q 1316 3728 1258 3775 
Q 1200 3822 1119 3822 
Q 1003 3822 797 3725 
L 750 3822 
z
" transform="scale(0.015625)"/>
       </defs>
       <use xlink:href="#TimesNewRomanPSMT-31"/>
       <use xlink:href="#TimesNewRomanPSMT-30" transform="translate(50 0)"/>
       <use xlink:href="#TimesNewRomanPSMT-30" transform="translate(100 0)"/>
       <use xlink:href="#TimesNewRomanPSMT-30" transform="translate(150 0)"/>
      </g>
     </g>
    </g>
    <g id="xtick_6">
     <g id="line2d_6">
      <g>
       <use xlink:href="#mb9463379c4" x="357.752557" y="312.94375" style="stroke: #000000; stroke-width: 0.8"/>
      </g>
     </g>
     <g id="text_6">
      <!-- 1250 -->
      <g transform="translate(347.752557 326.8875) scale(0.1 -0.1)">
       <use xlink:href="#TimesNewRomanPSMT-31"/>
       <use xlink:href="#TimesNewRomanPSMT-32" transform="translate(50 0)"/>
       <use xlink:href="#TimesNewRomanPSMT-35" transform="translate(100 0)"/>
       <use xlink:href="#TimesNewRomanPSMT-30" transform="translate(150 0)"/>
      </g>
     </g>
    </g>
    <g id="xtick_7">
     <g id="line2d_7">
      <g>
       <use xlink:href="#mb9463379c4" x="416.486908" y="312.94375" style="stroke: #000000; stroke-width: 0.8"/>
      </g>
     </g>
     <g id="text_7">
      <!-- 1500 -->
      <g transform="translate(406.486908 326.8875) scale(0.1 -0.1)">
       <use xlink:href="#TimesNewRomanPSMT-31"/>
       <use xlink:href="#TimesNewRomanPSMT-35" transform="translate(50 0)"/>
       <use xlink:href="#TimesNewRomanPSMT-30" transform="translate(100 0)"/>
       <use xlink:href="#TimesNewRomanPSMT-30" transform="translate(150 0)"/>
      </g>
     </g>
    </g>
    <g id="xtick_8">
     <g id="line2d_8">
      <g>
       <use xlink:href="#mb9463379c4" x="475.221259" y="312.94375" style="stroke: #000000; stroke-width: 0.8"/>
      </g>
     </g>
     <g id="text_8">
      <!-- 1750 -->
      <g transform="translate(465.221259 326.8875) scale(0.1 -0.1)">
       <use xlink:href="#TimesNewRomanPSMT-31"/>
       <use xlink:href="#TimesNewRomanPSMT-37" transform="translate(50 0)"/>
       <use xlink:href="#TimesNewRomanPSMT-35" transform="translate(100 0)"/>
       <use xlink:href="#TimesNewRomanPSMT-30" transform="translate(150 0)"/>
      </g>
     </g>
    </g>
    <g id="text_9">
     <!-- Failure Time (Days) -->
     <g transform="translate(217.81 341.359062) scale(0.12 -0.12)">
      <defs>
       <path id="TimesNewRomanPSMT-46" d="M 1309 4006 
L 1309 2341 
L 2081 2341 
Q 2347 2341 2470 2458 
Q 2594 2575 2634 2922 
L 2750 2922 
L 2750 1488 
L 2634 1488 
Q 2631 1734 2570 1850 
Q 2509 1966 2401 2023 
Q 2294 2081 2081 2081 
L 1309 2081 
L 1309 750 
Q 1309 428 1350 325 
Q 1381 247 1481 191 
Q 1619 116 1769 116 
L 1922 116 
L 1922 0 
L 103 0 
L 103 116 
L 253 116 
Q 516 116 634 269 
Q 709 369 709 750 
L 709 3488 
Q 709 3809 669 3913 
Q 638 3991 541 4047 
Q 406 4122 253 4122 
L 103 4122 
L 103 4238 
L 3256 4238 
L 3297 3306 
L 3188 3306 
Q 3106 3603 2998 3742 
Q 2891 3881 2733 3943 
Q 2575 4006 2244 4006 
L 1309 4006 
z
" transform="scale(0.015625)"/>
       <path id="TimesNewRomanPSMT-61" d="M 1822 413 
Q 1381 72 1269 19 
Q 1100 -59 909 -59 
Q 613 -59 420 144 
Q 228 347 228 678 
Q 228 888 322 1041 
Q 450 1253 767 1440 
Q 1084 1628 1822 1897 
L 1822 2009 
Q 1822 2438 1686 2597 
Q 1550 2756 1291 2756 
Q 1094 2756 978 2650 
Q 859 2544 859 2406 
L 866 2225 
Q 866 2081 792 2003 
Q 719 1925 600 1925 
Q 484 1925 411 2006 
Q 338 2088 338 2228 
Q 338 2497 613 2722 
Q 888 2947 1384 2947 
Q 1766 2947 2009 2819 
Q 2194 2722 2281 2516 
Q 2338 2381 2338 1966 
L 2338 994 
Q 2338 584 2353 492 
Q 2369 400 2405 369 
Q 2441 338 2488 338 
Q 2538 338 2575 359 
Q 2641 400 2828 588 
L 2828 413 
Q 2478 -56 2159 -56 
Q 2006 -56 1915 50 
Q 1825 156 1822 413 
z
M 1822 616 
L 1822 1706 
Q 1350 1519 1213 1441 
Q 966 1303 859 1153 
Q 753 1003 753 825 
Q 753 600 887 451 
Q 1022 303 1197 303 
Q 1434 303 1822 616 
z
" transform="scale(0.015625)"/>
       <path id="TimesNewRomanPSMT-69" d="M 928 4444 
Q 1059 4444 1151 4351 
Q 1244 4259 1244 4128 
Q 1244 3997 1151 3903 
Q 1059 3809 928 3809 
Q 797 3809 703 3903 
Q 609 3997 609 4128 
Q 609 4259 701 4351 
Q 794 4444 928 4444 
z
M 1188 2947 
L 1188 647 
Q 1188 378 1227 289 
Q 1266 200 1342 156 
Q 1419 113 1622 113 
L 1622 0 
L 231 0 
L 231 113 
Q 441 113 512 153 
Q 584 194 626 287 
Q 669 381 669 647 
L 669 1750 
Q 669 2216 641 2353 
Q 619 2453 572 2492 
Q 525 2531 444 2531 
Q 356 2531 231 2484 
L 188 2597 
L 1050 2947 
L 1188 2947 
z
" transform="scale(0.015625)"/>
       <path id="TimesNewRomanPSMT-6c" d="M 1184 4444 
L 1184 647 
Q 1184 378 1223 290 
Q 1263 203 1344 158 
Q 1425 113 1647 113 
L 1647 0 
L 244 0 
L 244 113 
Q 441 113 512 153 
Q 584 194 625 287 
Q 666 381 666 647 
L 666 3247 
Q 666 3731 644 3842 
Q 622 3953 573 3993 
Q 525 4034 450 4034 
Q 369 4034 244 3984 
L 191 4094 
L 1044 4444 
L 1184 4444 
z
" transform="scale(0.015625)"/>
       <path id="TimesNewRomanPSMT-75" d="M 2709 2863 
L 2709 1128 
Q 2709 631 2732 520 
Q 2756 409 2807 365 
Q 2859 322 2928 322 
Q 3025 322 3147 375 
L 3191 266 
L 2334 -88 
L 2194 -88 
L 2194 519 
Q 1825 119 1631 15 
Q 1438 -88 1222 -88 
Q 981 -88 804 51 
Q 628 191 559 409 
Q 491 628 491 1028 
L 491 2306 
Q 491 2509 447 2587 
Q 403 2666 317 2708 
Q 231 2750 6 2747 
L 6 2863 
L 1009 2863 
L 1009 947 
Q 1009 547 1148 422 
Q 1288 297 1484 297 
Q 1619 297 1789 381 
Q 1959 466 2194 703 
L 2194 2325 
Q 2194 2569 2105 2655 
Q 2016 2741 1734 2747 
L 1734 2863 
L 2709 2863 
z
" transform="scale(0.015625)"/>
       <path id="TimesNewRomanPSMT-72" d="M 1038 2947 
L 1038 2303 
Q 1397 2947 1775 2947 
Q 1947 2947 2059 2842 
Q 2172 2738 2172 2600 
Q 2172 2478 2090 2393 
Q 2009 2309 1897 2309 
Q 1788 2309 1652 2417 
Q 1516 2525 1450 2525 
Q 1394 2525 1328 2463 
Q 1188 2334 1038 2041 
L 1038 669 
Q 1038 431 1097 309 
Q 1138 225 1241 169 
Q 1344 113 1538 113 
L 1538 0 
L 72 0 
L 72 113 
Q 291 113 397 181 
Q 475 231 506 341 
Q 522 394 522 644 
L 522 1753 
Q 522 2253 501 2348 
Q 481 2444 426 2487 
Q 372 2531 291 2531 
Q 194 2531 72 2484 
L 41 2597 
L 906 2947 
L 1038 2947 
z
" transform="scale(0.015625)"/>
       <path id="TimesNewRomanPSMT-65" d="M 681 1784 
Q 678 1147 991 784 
Q 1303 422 1725 422 
Q 2006 422 2214 576 
Q 2422 731 2563 1106 
L 2659 1044 
Q 2594 616 2278 264 
Q 1963 -88 1488 -88 
Q 972 -88 605 314 
Q 238 716 238 1394 
Q 238 2128 614 2539 
Q 991 2950 1559 2950 
Q 2041 2950 2350 2633 
Q 2659 2316 2659 1784 
L 681 1784 
z
M 681 1966 
L 2006 1966 
Q 1991 2241 1941 2353 
Q 1863 2528 1708 2628 
Q 1553 2728 1384 2728 
Q 1125 2728 920 2526 
Q 716 2325 681 1966 
z
" transform="scale(0.015625)"/>
       <path id="TimesNewRomanPSMT-20" transform="scale(0.015625)"/>
       <path id="TimesNewRomanPSMT-54" d="M 3703 4238 
L 3750 3244 
L 3631 3244 
Q 3597 3506 3538 3619 
Q 3441 3800 3280 3886 
Q 3119 3972 2856 3972 
L 2259 3972 
L 2259 734 
Q 2259 344 2344 247 
Q 2463 116 2709 116 
L 2856 116 
L 2856 0 
L 1059 0 
L 1059 116 
L 1209 116 
Q 1478 116 1591 278 
Q 1659 378 1659 734 
L 1659 3972 
L 1150 3972 
Q 853 3972 728 3928 
Q 566 3869 450 3700 
Q 334 3531 313 3244 
L 194 3244 
L 244 4238 
L 3703 4238 
z
" transform="scale(0.015625)"/>
       <path id="TimesNewRomanPSMT-6d" d="M 1050 2338 
Q 1363 2650 1419 2697 
Q 1559 2816 1721 2881 
Q 1884 2947 2044 2947 
Q 2313 2947 2506 2790 
Q 2700 2634 2766 2338 
Q 3088 2713 3309 2830 
Q 3531 2947 3766 2947 
Q 3994 2947 4170 2830 
Q 4347 2713 4450 2447 
Q 4519 2266 4519 1878 
L 4519 647 
Q 4519 378 4559 278 
Q 4591 209 4675 161 
Q 4759 113 4950 113 
L 4950 0 
L 3538 0 
L 3538 113 
L 3597 113 
Q 3781 113 3884 184 
Q 3956 234 3988 344 
Q 4000 397 4000 647 
L 4000 1878 
Q 4000 2228 3916 2372 
Q 3794 2572 3525 2572 
Q 3359 2572 3192 2489 
Q 3025 2406 2788 2181 
L 2781 2147 
L 2788 2013 
L 2788 647 
Q 2788 353 2820 281 
Q 2853 209 2943 161 
Q 3034 113 3253 113 
L 3253 0 
L 1806 0 
L 1806 113 
Q 2044 113 2133 169 
Q 2222 225 2256 338 
Q 2272 391 2272 647 
L 2272 1878 
Q 2272 2228 2169 2381 
Q 2031 2581 1784 2581 
Q 1616 2581 1450 2491 
Q 1191 2353 1050 2181 
L 1050 647 
Q 1050 366 1089 281 
Q 1128 197 1204 155 
Q 1281 113 1516 113 
L 1516 0 
L 100 0 
L 100 113 
Q 297 113 375 155 
Q 453 197 493 289 
Q 534 381 534 647 
L 534 1741 
Q 534 2213 506 2350 
Q 484 2453 437 2492 
Q 391 2531 309 2531 
Q 222 2531 100 2484 
L 53 2597 
L 916 2947 
L 1050 2947 
L 1050 2338 
z
" transform="scale(0.015625)"/>
       <path id="TimesNewRomanPSMT-28" d="M 1988 -1253 
L 1988 -1369 
Q 1516 -1131 1200 -813 
Q 750 -359 506 256 
Q 263 872 263 1534 
Q 263 2503 741 3301 
Q 1219 4100 1988 4444 
L 1988 4313 
Q 1603 4100 1356 3731 
Q 1109 3363 987 2797 
Q 866 2231 866 1616 
Q 866 947 969 400 
Q 1050 -31 1165 -292 
Q 1281 -553 1476 -793 
Q 1672 -1034 1988 -1253 
z
" transform="scale(0.015625)"/>
       <path id="TimesNewRomanPSMT-44" d="M 109 0 
L 109 116 
L 269 116 
Q 538 116 650 288 
Q 719 391 719 750 
L 719 3488 
Q 719 3884 631 3984 
Q 509 4122 269 4122 
L 109 4122 
L 109 4238 
L 1834 4238 
Q 2784 4238 3279 4022 
Q 3775 3806 4076 3303 
Q 4378 2800 4378 2141 
Q 4378 1256 3841 663 
Q 3238 0 2003 0 
L 109 0 
z
M 1319 306 
Q 1716 219 1984 219 
Q 2709 219 3187 728 
Q 3666 1238 3666 2109 
Q 3666 2988 3187 3494 
Q 2709 4000 1959 4000 
Q 1678 4000 1319 3909 
L 1319 306 
z
" transform="scale(0.015625)"/>
       <path id="TimesNewRomanPSMT-79" d="M 38 2863 
L 1372 2863 
L 1372 2747 
L 1306 2747 
Q 1166 2747 1095 2686 
Q 1025 2625 1025 2534 
Q 1025 2413 1128 2197 
L 1825 753 
L 2466 2334 
Q 2519 2463 2519 2588 
Q 2519 2644 2497 2672 
Q 2472 2706 2419 2726 
Q 2366 2747 2231 2747 
L 2231 2863 
L 3163 2863 
L 3163 2747 
Q 3047 2734 2984 2696 
Q 2922 2659 2847 2556 
Q 2819 2513 2741 2316 
L 1575 -541 
Q 1406 -956 1132 -1168 
Q 859 -1381 606 -1381 
Q 422 -1381 303 -1275 
Q 184 -1169 184 -1031 
Q 184 -900 270 -820 
Q 356 -741 506 -741 
Q 609 -741 788 -809 
Q 913 -856 944 -856 
Q 1038 -856 1148 -759 
Q 1259 -663 1372 -384 
L 1575 113 
L 547 2272 
Q 500 2369 397 2513 
Q 319 2622 269 2659 
Q 197 2709 38 2747 
L 38 2863 
z
" transform="scale(0.015625)"/>
       <path id="TimesNewRomanPSMT-73" d="M 2050 2947 
L 2050 1972 
L 1947 1972 
Q 1828 2431 1642 2597 
Q 1456 2763 1169 2763 
Q 950 2763 815 2647 
Q 681 2531 681 2391 
Q 681 2216 781 2091 
Q 878 1963 1175 1819 
L 1631 1597 
Q 2266 1288 2266 781 
Q 2266 391 1970 151 
Q 1675 -88 1309 -88 
Q 1047 -88 709 6 
Q 606 38 541 38 
Q 469 38 428 -44 
L 325 -44 
L 325 978 
L 428 978 
Q 516 541 762 319 
Q 1009 97 1316 97 
Q 1531 97 1667 223 
Q 1803 350 1803 528 
Q 1803 744 1651 891 
Q 1500 1038 1047 1263 
Q 594 1488 453 1669 
Q 313 1847 313 2119 
Q 313 2472 555 2709 
Q 797 2947 1181 2947 
Q 1350 2947 1591 2875 
Q 1750 2828 1803 2828 
Q 1853 2828 1881 2850 
Q 1909 2872 1947 2947 
L 2050 2947 
z
" transform="scale(0.015625)"/>
       <path id="TimesNewRomanPSMT-29" d="M 144 4313 
L 144 4444 
Q 619 4209 934 3891 
Q 1381 3434 1625 2820 
Q 1869 2206 1869 1541 
Q 1869 572 1392 -226 
Q 916 -1025 144 -1369 
L 144 -1253 
Q 528 -1038 776 -670 
Q 1025 -303 1145 264 
Q 1266 831 1266 1447 
Q 1266 2113 1163 2663 
Q 1084 3094 967 3353 
Q 850 3613 656 3853 
Q 463 4094 144 4313 
z
" transform="scale(0.015625)"/>
      </defs>
      <use xlink:href="#TimesNewRomanPSMT-46"/>
      <use xlink:href="#TimesNewRomanPSMT-61" transform="translate(55.615234 0)"/>
      <use xlink:href="#TimesNewRomanPSMT-69" transform="translate(100 0)"/>
      <use xlink:href="#TimesNewRomanPSMT-6c" transform="translate(127.783203 0)"/>
      <use xlink:href="#TimesNewRomanPSMT-75" transform="translate(155.566406 0)"/>
      <use xlink:href="#TimesNewRomanPSMT-72" transform="translate(205.566406 0)"/>
      <use xlink:href="#TimesNewRomanPSMT-65" transform="translate(238.867188 0)"/>
      <use xlink:href="#TimesNewRomanPSMT-20" transform="translate(283.251953 0)"/>
      <use xlink:href="#TimesNewRomanPSMT-54" transform="translate(306.501953 0)"/>
      <use xlink:href="#TimesNewRomanPSMT-69" transform="translate(364.085938 0)"/>
      <use xlink:href="#TimesNewRomanPSMT-6d" transform="translate(391.869141 0)"/>
      <use xlink:href="#TimesNewRomanPSMT-65" transform="translate(469.652344 0)"/>
      <use xlink:href="#TimesNewRomanPSMT-20" transform="translate(514.037109 0)"/>
      <use xlink:href="#TimesNewRomanPSMT-28" transform="translate(539.037109 0)"/>
      <use xlink:href="#TimesNewRomanPSMT-44" transform="translate(572.337891 0)"/>
      <use xlink:href="#TimesNewRomanPSMT-61" transform="translate(644.554688 0)"/>
      <use xlink:href="#TimesNewRomanPSMT-79" transform="translate(688.939453 0)"/>
      <use xlink:href="#TimesNewRomanPSMT-73" transform="translate(738.939453 0)"/>
      <use xlink:href="#TimesNewRomanPSMT-29" transform="translate(777.855469 0)"/>
     </g>
    </g>
   </g>
   <g id="matplotlib.axis_2">
    <g id="ytick_1">
     <g id="line2d_9">
      <path d="M 44.099375 312.94375 
L 488.859375 312.94375 
" clip-path="url(#p255fcd928d)" style="fill: none; stroke-dasharray: 2.96,1.28; stroke-dashoffset: 0; stroke: #b0b0b0; stroke-opacity: 0.7; stroke-width: 0.8"/>
     </g>
     <g id="line2d_10">
      <defs>
       <path id="m8567dd7b16" d="M 0 0 
L -3.5 0 
" style="stroke: #000000; stroke-width: 0.8"/>
      </defs>
      <g>
       <use xlink:href="#m8567dd7b16" x="44.099375" y="312.94375" style="stroke: #000000; stroke-width: 0.8"/>
      </g>
     </g>
     <g id="text_10">
      <!-- 0 -->
      <g transform="translate(32.099375 316.415625) scale(0.1 -0.1)">
       <use xlink:href="#TimesNewRomanPSMT-30"/>
      </g>
     </g>
    </g>
    <g id="ytick_2">
     <g id="line2d_11">
      <path d="M 44.099375 259.613251 
L 488.859375 259.613251 
" clip-path="url(#p255fcd928d)" style="fill: none; stroke-dasharray: 2.96,1.28; stroke-dashoffset: 0; stroke: #b0b0b0; stroke-opacity: 0.7; stroke-width: 0.8"/>
     </g>
     <g id="line2d_12">
      <g>
       <use xlink:href="#m8567dd7b16" x="44.099375" y="259.613251" style="stroke: #000000; stroke-width: 0.8"/>
      </g>
     </g>
     <g id="text_11">
      <!-- 50 -->
      <g transform="translate(27.099375 263.085126) scale(0.1 -0.1)">
       <use xlink:href="#TimesNewRomanPSMT-35"/>
       <use xlink:href="#TimesNewRomanPSMT-30" transform="translate(50 0)"/>
      </g>
     </g>
    </g>
    <g id="ytick_3">
     <g id="line2d_13">
      <path d="M 44.099375 206.282752 
L 488.859375 206.282752 
" clip-path="url(#p255fcd928d)" style="fill: none; stroke-dasharray: 2.96,1.28; stroke-dashoffset: 0; stroke: #b0b0b0; stroke-opacity: 0.7; stroke-width: 0.8"/>
     </g>
     <g id="line2d_14">
      <g>
       <use xlink:href="#m8567dd7b16" x="44.099375" y="206.282752" style="stroke: #000000; stroke-width: 0.8"/>
      </g>
     </g>
     <g id="text_12">
      <!-- 100 -->
      <g transform="translate(22.099375 209.754627) scale(0.1 -0.1)">
       <use xlink:href="#TimesNewRomanPSMT-31"/>
       <use xlink:href="#TimesNewRomanPSMT-30" transform="translate(50 0)"/>
       <use xlink:href="#TimesNewRomanPSMT-30" transform="translate(100 0)"/>
      </g>
     </g>
    </g>
    <g id="ytick_4">
     <g id="line2d_15">
      <path d="M 44.099375 152.952253 
L 488.859375 152.952253 
" clip-path="url(#p255fcd928d)" style="fill: none; stroke-dasharray: 2.96,1.28; stroke-dashoffset: 0; stroke: #b0b0b0; stroke-opacity: 0.7; stroke-width: 0.8"/>
     </g>
     <g id="line2d_16">
      <g>
       <use xlink:href="#m8567dd7b16" x="44.099375" y="152.952253" style="stroke: #000000; stroke-width: 0.8"/>
      </g>
     </g>
     <g id="text_13">
      <!-- 150 -->
      <g transform="translate(22.099375 156.424128) scale(0.1 -0.1)">
       <use xlink:href="#TimesNewRomanPSMT-31"/>
       <use xlink:href="#TimesNewRomanPSMT-35" transform="translate(50 0)"/>
       <use xlink:href="#TimesNewRomanPSMT-30" transform="translate(100 0)"/>
      </g>
     </g>
    </g>
    <g id="ytick_5">
     <g id="line2d_17">
      <path d="M 44.099375 99.621755 
L 488.859375 99.621755 
" clip-path="url(#p255fcd928d)" style="fill: none; stroke-dasharray: 2.96,1.28; stroke-dashoffset: 0; stroke: #b0b0b0; stroke-opacity: 0.7; stroke-width: 0.8"/>
     </g>
     <g id="line2d_18">
      <g>
       <use xlink:href="#m8567dd7b16" x="44.099375" y="99.621755" style="stroke: #000000; stroke-width: 0.8"/>
      </g>
     </g>
     <g id="text_14">
      <!-- 200 -->
      <g transform="translate(22.099375 103.09363) scale(0.1 -0.1)">
       <use xlink:href="#TimesNewRomanPSMT-32"/>
       <use xlink:href="#TimesNewRomanPSMT-30" transform="translate(50 0)"/>
       <use xlink:href="#TimesNewRomanPSMT-30" transform="translate(100 0)"/>
      </g>
     </g>
    </g>
    <g id="ytick_6">
     <g id="line2d_19">
      <path d="M 44.099375 46.291256 
L 488.859375 46.291256 
" clip-path="url(#p255fcd928d)" style="fill: none; stroke-dasharray: 2.96,1.28; stroke-dashoffset: 0; stroke: #b0b0b0; stroke-opacity: 0.7; stroke-width: 0.8"/>
     </g>
     <g id="line2d_20">
      <g>
       <use xlink:href="#m8567dd7b16" x="44.099375" y="46.291256" style="stroke: #000000; stroke-width: 0.8"/>
      </g>
     </g>
     <g id="text_15">
      <!-- 250 -->
      <g transform="translate(22.099375 49.763131) scale(0.1 -0.1)">
       <use xlink:href="#TimesNewRomanPSMT-32"/>
       <use xlink:href="#TimesNewRomanPSMT-35" transform="translate(50 0)"/>
       <use xlink:href="#TimesNewRomanPSMT-30" transform="translate(100 0)"/>
      </g>
     </g>
    </g>
    <g id="text_16">
     <!-- Frequency -->
     <g transform="translate(15.51 185.396563) rotate(-90) scale(0.12 -0.12)">
      <defs>
       <path id="TimesNewRomanPSMT-71" d="M 2734 2947 
L 2734 -734 
Q 2734 -1009 2771 -1087 
Q 2809 -1166 2889 -1209 
Q 2969 -1253 3200 -1253 
L 3200 -1369 
L 1756 -1369 
L 1756 -1253 
L 1816 -1253 
Q 1991 -1253 2081 -1203 
Q 2144 -1169 2181 -1080 
Q 2219 -991 2219 -734 
L 2219 497 
Q 1934 159 1721 35 
Q 1509 -88 1281 -88 
Q 866 -88 539 290 
Q 213 669 213 1303 
Q 213 2031 644 2489 
Q 1075 2947 1684 2947 
Q 1863 2947 2013 2897 
Q 2163 2847 2281 2747 
Q 2463 2834 2628 2947 
L 2734 2947 
z
M 2219 694 
L 2219 2038 
Q 2219 2272 2158 2406 
Q 2097 2541 1940 2634 
Q 1784 2728 1588 2728 
Q 1238 2728 988 2431 
Q 738 2134 738 1531 
Q 738 953 992 653 
Q 1247 353 1606 353 
Q 1791 353 1934 433 
Q 2078 513 2219 694 
z
" transform="scale(0.015625)"/>
       <path id="TimesNewRomanPSMT-6e" d="M 1034 2341 
Q 1538 2947 1994 2947 
Q 2228 2947 2397 2830 
Q 2566 2713 2666 2444 
Q 2734 2256 2734 1869 
L 2734 647 
Q 2734 375 2778 278 
Q 2813 200 2889 156 
Q 2966 113 3172 113 
L 3172 0 
L 1756 0 
L 1756 113 
L 1816 113 
Q 2016 113 2095 173 
Q 2175 234 2206 353 
Q 2219 400 2219 647 
L 2219 1819 
Q 2219 2209 2117 2386 
Q 2016 2563 1775 2563 
Q 1403 2563 1034 2156 
L 1034 647 
Q 1034 356 1069 288 
Q 1113 197 1189 155 
Q 1266 113 1500 113 
L 1500 0 
L 84 0 
L 84 113 
L 147 113 
Q 366 113 442 223 
Q 519 334 519 647 
L 519 1709 
Q 519 2225 495 2337 
Q 472 2450 423 2490 
Q 375 2531 294 2531 
Q 206 2531 84 2484 
L 38 2597 
L 900 2947 
L 1034 2947 
L 1034 2341 
z
" transform="scale(0.015625)"/>
       <path id="TimesNewRomanPSMT-63" d="M 2631 1088 
Q 2516 522 2178 217 
Q 1841 -88 1431 -88 
Q 944 -88 581 321 
Q 219 731 219 1428 
Q 219 2103 620 2525 
Q 1022 2947 1584 2947 
Q 2006 2947 2278 2723 
Q 2550 2500 2550 2259 
Q 2550 2141 2473 2067 
Q 2397 1994 2259 1994 
Q 2075 1994 1981 2113 
Q 1928 2178 1911 2362 
Q 1894 2547 1784 2644 
Q 1675 2738 1481 2738 
Q 1169 2738 978 2506 
Q 725 2200 725 1697 
Q 725 1184 976 792 
Q 1228 400 1656 400 
Q 1963 400 2206 609 
Q 2378 753 2541 1131 
L 2631 1088 
z
" transform="scale(0.015625)"/>
      </defs>
      <use xlink:href="#TimesNewRomanPSMT-46"/>
      <use xlink:href="#TimesNewRomanPSMT-72" transform="translate(55.615234 0)"/>
      <use xlink:href="#TimesNewRomanPSMT-65" transform="translate(88.916016 0)"/>
      <use xlink:href="#TimesNewRomanPSMT-71" transform="translate(133.300781 0)"/>
      <use xlink:href="#TimesNewRomanPSMT-75" transform="translate(183.300781 0)"/>
      <use xlink:href="#TimesNewRomanPSMT-65" transform="translate(233.300781 0)"/>
      <use xlink:href="#TimesNewRomanPSMT-6e" transform="translate(277.685547 0)"/>
      <use xlink:href="#TimesNewRomanPSMT-63" transform="translate(327.685547 0)"/>
      <use xlink:href="#TimesNewRomanPSMT-79" transform="translate(372.070312 0)"/>
     </g>
    </g>
   </g>
   <g id="patch_203">
    <path d="M 44.099375 312.94375 
L 44.099375 7.2 
" style="fill: none; stroke: #000000; stroke-width: 0.8; stroke-linejoin: miter; stroke-linecap: square"/>
   </g>
   <g id="patch_204">
    <path d="M 488.859375 312.94375 
L 488.859375 7.2 
" style="fill: none; stroke: #000000; stroke-width: 0.8; stroke-linejoin: miter; stroke-linecap: square"/>
   </g>
   <g id="patch_205">
    <path d="M 44.099375 312.94375 
L 488.859375 312.94375 
" style="fill: none; stroke: #000000; stroke-width: 0.8; stroke-linejoin: miter; stroke-linecap: square"/>
   </g>
   <g id="patch_206">
    <path d="M 44.099375 7.2 
L 488.859375 7.2 
" style="fill: none; stroke: #000000; stroke-width: 0.8; stroke-linejoin: miter; stroke-linecap: square"/>
   </g>
  </g>
 </g>
 <defs>
  <clipPath id="p255fcd928d">
   <rect x="44.099375" y="7.2" width="444.76" height="305.74375"/>
  </clipPath>
 </defs>
</svg>
